<?xml version="1.0" encoding="utf-8" standalone="no"?>
<!DOCTYPE svg PUBLIC "-//W3C//DTD SVG 1.1//EN"
  "http://www.w3.org/Graphics/SVG/1.1/DTD/svg11.dtd">
<!-- Created with matplotlib (https://matplotlib.org/) -->
<svg height="288pt" version="1.1" viewBox="0 0 432 288" width="432pt" xmlns="http://www.w3.org/2000/svg" xmlns:xlink="http://www.w3.org/1999/xlink">
 <defs>
  <style type="text/css">
*{stroke-linecap:butt;stroke-linejoin:round;}
  </style>
 </defs>
 <g id="figure_1">
  <g id="patch_1">
   <path d="M 0 288 
L 432 288 
L 432 0 
L 0 0 
z
" style="fill:#ffffff;"/>
  </g>
  <g id="axes_1">
   <g id="patch_2">
    <path d="M 54 252 
L 388.8 252 
L 388.8 34.56 
L 54 34.56 
z
" style="fill:#ffffff;"/>
   </g>
   <g id="matplotlib.axis_1">
    <g id="xtick_1">
     <g id="line2d_1">
      <path clip-path="url(#p8a653124a1)" d="M 69.218182 252 
L 69.218182 34.56 
" style="fill:none;stroke:#b0b0b0;stroke-linecap:square;stroke-width:0.8;"/>
     </g>
     <g id="line2d_2">
      <defs>
       <path d="M 0 0 
L 0 3.5 
" id="mc6485304e5" style="stroke:#000000;stroke-width:0.8;"/>
      </defs>
      <g>
       <use style="stroke:#000000;stroke-width:0.8;" x="69.218182" xlink:href="#mc6485304e5" y="252"/>
      </g>
     </g>
     <g id="text_1">
      <!-- 0.0 -->
      <defs>
       <path d="M 31.78125 66.40625 
Q 24.171875 66.40625 20.328125 58.90625 
Q 16.5 51.421875 16.5 36.375 
Q 16.5 21.390625 20.328125 13.890625 
Q 24.171875 6.390625 31.78125 6.390625 
Q 39.453125 6.390625 43.28125 13.890625 
Q 47.125 21.390625 47.125 36.375 
Q 47.125 51.421875 43.28125 58.90625 
Q 39.453125 66.40625 31.78125 66.40625 
z
M 31.78125 74.21875 
Q 44.046875 74.21875 50.515625 64.515625 
Q 56.984375 54.828125 56.984375 36.375 
Q 56.984375 17.96875 50.515625 8.265625 
Q 44.046875 -1.421875 31.78125 -1.421875 
Q 19.53125 -1.421875 13.0625 8.265625 
Q 6.59375 17.96875 6.59375 36.375 
Q 6.59375 54.828125 13.0625 64.515625 
Q 19.53125 74.21875 31.78125 74.21875 
z
" id="DejaVuSans-48"/>
       <path d="M 10.6875 12.40625 
L 21 12.40625 
L 21 0 
L 10.6875 0 
z
" id="DejaVuSans-46"/>
      </defs>
      <g transform="translate(61.266619 266.598437)scale(0.1 -0.1)">
       <use xlink:href="#DejaVuSans-48"/>
       <use x="63.623047" xlink:href="#DejaVuSans-46"/>
       <use x="95.410156" xlink:href="#DejaVuSans-48"/>
      </g>
     </g>
    </g>
    <g id="xtick_2">
     <g id="line2d_3">
      <path clip-path="url(#p8a653124a1)" d="M 129.562703 252 
L 129.562703 34.56 
" style="fill:none;stroke:#b0b0b0;stroke-linecap:square;stroke-width:0.8;"/>
     </g>
     <g id="line2d_4">
      <g>
       <use style="stroke:#000000;stroke-width:0.8;" x="129.562703" xlink:href="#mc6485304e5" y="252"/>
      </g>
     </g>
     <g id="text_2">
      <!-- 0.2 -->
      <defs>
       <path d="M 19.1875 8.296875 
L 53.609375 8.296875 
L 53.609375 0 
L 7.328125 0 
L 7.328125 8.296875 
Q 12.9375 14.109375 22.625 23.890625 
Q 32.328125 33.6875 34.8125 36.53125 
Q 39.546875 41.84375 41.421875 45.53125 
Q 43.3125 49.21875 43.3125 52.78125 
Q 43.3125 58.59375 39.234375 62.25 
Q 35.15625 65.921875 28.609375 65.921875 
Q 23.96875 65.921875 18.8125 64.3125 
Q 13.671875 62.703125 7.8125 59.421875 
L 7.8125 69.390625 
Q 13.765625 71.78125 18.9375 73 
Q 24.125 74.21875 28.421875 74.21875 
Q 39.75 74.21875 46.484375 68.546875 
Q 53.21875 62.890625 53.21875 53.421875 
Q 53.21875 48.921875 51.53125 44.890625 
Q 49.859375 40.875 45.40625 35.40625 
Q 44.1875 33.984375 37.640625 27.21875 
Q 31.109375 20.453125 19.1875 8.296875 
z
" id="DejaVuSans-50"/>
      </defs>
      <g transform="translate(121.61114 266.598437)scale(0.1 -0.1)">
       <use xlink:href="#DejaVuSans-48"/>
       <use x="63.623047" xlink:href="#DejaVuSans-46"/>
       <use x="95.410156" xlink:href="#DejaVuSans-50"/>
      </g>
     </g>
    </g>
    <g id="xtick_3">
     <g id="line2d_5">
      <path clip-path="url(#p8a653124a1)" d="M 189.907223 252 
L 189.907223 34.56 
" style="fill:none;stroke:#b0b0b0;stroke-linecap:square;stroke-width:0.8;"/>
     </g>
     <g id="line2d_6">
      <g>
       <use style="stroke:#000000;stroke-width:0.8;" x="189.907223" xlink:href="#mc6485304e5" y="252"/>
      </g>
     </g>
     <g id="text_3">
      <!-- 0.4 -->
      <defs>
       <path d="M 37.796875 64.3125 
L 12.890625 25.390625 
L 37.796875 25.390625 
z
M 35.203125 72.90625 
L 47.609375 72.90625 
L 47.609375 25.390625 
L 58.015625 25.390625 
L 58.015625 17.1875 
L 47.609375 17.1875 
L 47.609375 0 
L 37.796875 0 
L 37.796875 17.1875 
L 4.890625 17.1875 
L 4.890625 26.703125 
z
" id="DejaVuSans-52"/>
      </defs>
      <g transform="translate(181.955661 266.598437)scale(0.1 -0.1)">
       <use xlink:href="#DejaVuSans-48"/>
       <use x="63.623047" xlink:href="#DejaVuSans-46"/>
       <use x="95.410156" xlink:href="#DejaVuSans-52"/>
      </g>
     </g>
    </g>
    <g id="xtick_4">
     <g id="line2d_7">
      <path clip-path="url(#p8a653124a1)" d="M 250.251744 252 
L 250.251744 34.56 
" style="fill:none;stroke:#b0b0b0;stroke-linecap:square;stroke-width:0.8;"/>
     </g>
     <g id="line2d_8">
      <g>
       <use style="stroke:#000000;stroke-width:0.8;" x="250.251744" xlink:href="#mc6485304e5" y="252"/>
      </g>
     </g>
     <g id="text_4">
      <!-- 0.6 -->
      <defs>
       <path d="M 33.015625 40.375 
Q 26.375 40.375 22.484375 35.828125 
Q 18.609375 31.296875 18.609375 23.390625 
Q 18.609375 15.53125 22.484375 10.953125 
Q 26.375 6.390625 33.015625 6.390625 
Q 39.65625 6.390625 43.53125 10.953125 
Q 47.40625 15.53125 47.40625 23.390625 
Q 47.40625 31.296875 43.53125 35.828125 
Q 39.65625 40.375 33.015625 40.375 
z
M 52.59375 71.296875 
L 52.59375 62.3125 
Q 48.875 64.0625 45.09375 64.984375 
Q 41.3125 65.921875 37.59375 65.921875 
Q 27.828125 65.921875 22.671875 59.328125 
Q 17.53125 52.734375 16.796875 39.40625 
Q 19.671875 43.65625 24.015625 45.921875 
Q 28.375 48.1875 33.59375 48.1875 
Q 44.578125 48.1875 50.953125 41.515625 
Q 57.328125 34.859375 57.328125 23.390625 
Q 57.328125 12.15625 50.6875 5.359375 
Q 44.046875 -1.421875 33.015625 -1.421875 
Q 20.359375 -1.421875 13.671875 8.265625 
Q 6.984375 17.96875 6.984375 36.375 
Q 6.984375 53.65625 15.1875 63.9375 
Q 23.390625 74.21875 37.203125 74.21875 
Q 40.921875 74.21875 44.703125 73.484375 
Q 48.484375 72.75 52.59375 71.296875 
z
" id="DejaVuSans-54"/>
      </defs>
      <g transform="translate(242.300182 266.598437)scale(0.1 -0.1)">
       <use xlink:href="#DejaVuSans-48"/>
       <use x="63.623047" xlink:href="#DejaVuSans-46"/>
       <use x="95.410156" xlink:href="#DejaVuSans-54"/>
      </g>
     </g>
    </g>
    <g id="xtick_5">
     <g id="line2d_9">
      <path clip-path="url(#p8a653124a1)" d="M 310.596265 252 
L 310.596265 34.56 
" style="fill:none;stroke:#b0b0b0;stroke-linecap:square;stroke-width:0.8;"/>
     </g>
     <g id="line2d_10">
      <g>
       <use style="stroke:#000000;stroke-width:0.8;" x="310.596265" xlink:href="#mc6485304e5" y="252"/>
      </g>
     </g>
     <g id="text_5">
      <!-- 0.8 -->
      <defs>
       <path d="M 31.78125 34.625 
Q 24.75 34.625 20.71875 30.859375 
Q 16.703125 27.09375 16.703125 20.515625 
Q 16.703125 13.921875 20.71875 10.15625 
Q 24.75 6.390625 31.78125 6.390625 
Q 38.8125 6.390625 42.859375 10.171875 
Q 46.921875 13.96875 46.921875 20.515625 
Q 46.921875 27.09375 42.890625 30.859375 
Q 38.875 34.625 31.78125 34.625 
z
M 21.921875 38.8125 
Q 15.578125 40.375 12.03125 44.71875 
Q 8.5 49.078125 8.5 55.328125 
Q 8.5 64.0625 14.71875 69.140625 
Q 20.953125 74.21875 31.78125 74.21875 
Q 42.671875 74.21875 48.875 69.140625 
Q 55.078125 64.0625 55.078125 55.328125 
Q 55.078125 49.078125 51.53125 44.71875 
Q 48 40.375 41.703125 38.8125 
Q 48.828125 37.15625 52.796875 32.3125 
Q 56.78125 27.484375 56.78125 20.515625 
Q 56.78125 9.90625 50.3125 4.234375 
Q 43.84375 -1.421875 31.78125 -1.421875 
Q 19.734375 -1.421875 13.25 4.234375 
Q 6.78125 9.90625 6.78125 20.515625 
Q 6.78125 27.484375 10.78125 32.3125 
Q 14.796875 37.15625 21.921875 38.8125 
z
M 18.3125 54.390625 
Q 18.3125 48.734375 21.84375 45.5625 
Q 25.390625 42.390625 31.78125 42.390625 
Q 38.140625 42.390625 41.71875 45.5625 
Q 45.3125 48.734375 45.3125 54.390625 
Q 45.3125 60.0625 41.71875 63.234375 
Q 38.140625 66.40625 31.78125 66.40625 
Q 25.390625 66.40625 21.84375 63.234375 
Q 18.3125 60.0625 18.3125 54.390625 
z
" id="DejaVuSans-56"/>
      </defs>
      <g transform="translate(302.644702 266.598437)scale(0.1 -0.1)">
       <use xlink:href="#DejaVuSans-48"/>
       <use x="63.623047" xlink:href="#DejaVuSans-46"/>
       <use x="95.410156" xlink:href="#DejaVuSans-56"/>
      </g>
     </g>
    </g>
    <g id="xtick_6">
     <g id="line2d_11">
      <path clip-path="url(#p8a653124a1)" d="M 370.940786 252 
L 370.940786 34.56 
" style="fill:none;stroke:#b0b0b0;stroke-linecap:square;stroke-width:0.8;"/>
     </g>
     <g id="line2d_12">
      <g>
       <use style="stroke:#000000;stroke-width:0.8;" x="370.940786" xlink:href="#mc6485304e5" y="252"/>
      </g>
     </g>
     <g id="text_6">
      <!-- 1.0 -->
      <defs>
       <path d="M 12.40625 8.296875 
L 28.515625 8.296875 
L 28.515625 63.921875 
L 10.984375 60.40625 
L 10.984375 69.390625 
L 28.421875 72.90625 
L 38.28125 72.90625 
L 38.28125 8.296875 
L 54.390625 8.296875 
L 54.390625 0 
L 12.40625 0 
z
" id="DejaVuSans-49"/>
      </defs>
      <g transform="translate(362.989223 266.598437)scale(0.1 -0.1)">
       <use xlink:href="#DejaVuSans-49"/>
       <use x="63.623047" xlink:href="#DejaVuSans-46"/>
       <use x="95.410156" xlink:href="#DejaVuSans-48"/>
      </g>
     </g>
    </g>
    <g id="text_7">
     <!-- $x_1$ -->
     <defs>
      <path d="M 60.015625 54.6875 
L 34.90625 27.875 
L 50.296875 0 
L 39.984375 0 
L 28.421875 21.6875 
L 8.296875 0 
L -2.59375 0 
L 24.3125 28.8125 
L 10.015625 54.6875 
L 20.3125 54.6875 
L 30.8125 34.90625 
L 49.125 54.6875 
z
" id="DejaVuSans-Oblique-120"/>
     </defs>
     <g transform="translate(216.05 280.276563)scale(0.1 -0.1)">
      <use transform="translate(0 0.3125)" xlink:href="#DejaVuSans-Oblique-120"/>
      <use transform="translate(59.179688 -16.09375)scale(0.7)" xlink:href="#DejaVuSans-49"/>
     </g>
    </g>
   </g>
   <g id="matplotlib.axis_2">
    <g id="ytick_1">
     <g id="line2d_13">
      <path clip-path="url(#p8a653124a1)" d="M 54 242.116364 
L 388.8 242.116364 
" style="fill:none;stroke:#b0b0b0;stroke-linecap:square;stroke-width:0.8;"/>
     </g>
     <g id="line2d_14">
      <defs>
       <path d="M 0 0 
L -3.5 0 
" id="mb087c81515" style="stroke:#000000;stroke-width:0.8;"/>
      </defs>
      <g>
       <use style="stroke:#000000;stroke-width:0.8;" x="54" xlink:href="#mb087c81515" y="242.116364"/>
      </g>
     </g>
     <g id="text_8">
      <!-- 0 -->
      <g transform="translate(40.6375 245.915582)scale(0.1 -0.1)">
       <use xlink:href="#DejaVuSans-48"/>
      </g>
     </g>
    </g>
    <g id="ytick_2">
     <g id="line2d_15">
      <path clip-path="url(#p8a653124a1)" d="M 54 198.112696 
L 388.8 198.112696 
" style="fill:none;stroke:#b0b0b0;stroke-linecap:square;stroke-width:0.8;"/>
     </g>
     <g id="line2d_16">
      <g>
       <use style="stroke:#000000;stroke-width:0.8;" x="54" xlink:href="#mb087c81515" y="198.112696"/>
      </g>
     </g>
     <g id="text_9">
      <!-- 2 -->
      <g transform="translate(40.6375 201.911914)scale(0.1 -0.1)">
       <use xlink:href="#DejaVuSans-50"/>
      </g>
     </g>
    </g>
    <g id="ytick_3">
     <g id="line2d_17">
      <path clip-path="url(#p8a653124a1)" d="M 54 154.109028 
L 388.8 154.109028 
" style="fill:none;stroke:#b0b0b0;stroke-linecap:square;stroke-width:0.8;"/>
     </g>
     <g id="line2d_18">
      <g>
       <use style="stroke:#000000;stroke-width:0.8;" x="54" xlink:href="#mb087c81515" y="154.109028"/>
      </g>
     </g>
     <g id="text_10">
      <!-- 4 -->
      <g transform="translate(40.6375 157.908246)scale(0.1 -0.1)">
       <use xlink:href="#DejaVuSans-52"/>
      </g>
     </g>
    </g>
    <g id="ytick_4">
     <g id="line2d_19">
      <path clip-path="url(#p8a653124a1)" d="M 54 110.10536 
L 388.8 110.10536 
" style="fill:none;stroke:#b0b0b0;stroke-linecap:square;stroke-width:0.8;"/>
     </g>
     <g id="line2d_20">
      <g>
       <use style="stroke:#000000;stroke-width:0.8;" x="54" xlink:href="#mb087c81515" y="110.10536"/>
      </g>
     </g>
     <g id="text_11">
      <!-- 6 -->
      <g transform="translate(40.6375 113.904578)scale(0.1 -0.1)">
       <use xlink:href="#DejaVuSans-54"/>
      </g>
     </g>
    </g>
    <g id="ytick_5">
     <g id="line2d_21">
      <path clip-path="url(#p8a653124a1)" d="M 54 66.101692 
L 388.8 66.101692 
" style="fill:none;stroke:#b0b0b0;stroke-linecap:square;stroke-width:0.8;"/>
     </g>
     <g id="line2d_22">
      <g>
       <use style="stroke:#000000;stroke-width:0.8;" x="54" xlink:href="#mb087c81515" y="66.101692"/>
      </g>
     </g>
     <g id="text_12">
      <!-- 8 -->
      <g transform="translate(40.6375 69.90091)scale(0.1 -0.1)">
       <use xlink:href="#DejaVuSans-56"/>
      </g>
     </g>
    </g>
    <g id="text_13">
     <!-- $x_2$ -->
     <g transform="translate(34.557813 148.63)rotate(-90)scale(0.1 -0.1)">
      <use transform="translate(0 0.3125)" xlink:href="#DejaVuSans-Oblique-120"/>
      <use transform="translate(59.179688 -16.09375)scale(0.7)" xlink:href="#DejaVuSans-50"/>
     </g>
    </g>
   </g>
   <g id="line2d_23">
    <path clip-path="url(#p8a653124a1)" d="M 303.452709 48.830717 
L 305.211964 49.009468 
L 307.241844 49.172251 
L 309.601947 49.30933 
L 312.307129 49.406773 
L 315.258351 49.452536 
L 318.274351 49.446262 
L 321.218523 49.398149 
L 324.039917 49.320178 
L 326.738805 49.221811 
L 329.334805 49.10968 
L 331.85288 48.988464 
L 334.319125 48.861708 
L 336.760912 48.732477 
L 339.20921 48.603874 
L 341.702665 48.479993 
L 344.294726 48.36738 
L 347.059615 48.279316 
L 350.041032 48.245513 
L 352.94938 48.304075 
L 355.32128 48.440063 
L 357.152095 48.614953 
L 358.600262 48.807972 
L 359.787336 49.010244 
L 360.790092 49.217762 
L 361.657212 49.42849 
L 362.420779 49.641337 
L 363.102771 49.855674 
L 363.718941 50.07106 
L 364.280836 50.287223 
L 364.797212 50.503994 
L 365.274869 50.721227 
L 365.719147 50.938858 
L 366.1344 51.156783 
L 366.524096 51.37496 
L 366.891187 51.593347 
L 367.2381 51.811902 
L 367.566885 52.030603 
L 367.879304 52.249451 
L 368.176886 52.468384 
L 368.460909 52.687421 
L 368.73254 52.906563 
L 368.992787 53.125747 
L 369.242496 53.345015 
L 369.482494 53.564346 
L 369.713463 53.783719 
L 369.936034 54.003134 
L 370.150764 54.222591 
L 370.358156 54.442089 
L 370.558696 54.66163 
L 370.75278 54.881192 
L 370.940786 55.100775 
" style="fill:none;stroke:#ffa500;stroke-linecap:square;stroke-width:1.5;"/>
   </g>
   <g id="line2d_24">
    <path clip-path="url(#p8a653124a1)" d="M 368.678606 242.116067 
L 368.791995 228.254915 
L 369.13024 214.393783 
L 369.687242 200.752706 
L 370.459694 187.331708 
L 370.940786 180.51123 
L 370.940786 180.51123 
" style="fill:none;stroke:#ffa500;stroke-linecap:square;stroke-width:1.5;"/>
   </g>
   <g id="line2d_25">
    <path clip-path="url(#p8a653124a1)" d="M 69.218182 242.116364 
L 72.243034 242.116364 
L 75.267887 242.116364 
L 78.29274 242.116364 
L 81.317592 242.116364 
L 84.342445 242.116364 
L 87.367298 242.116364 
L 90.39215 242.116364 
L 93.417003 242.116364 
L 96.441856 242.116364 
L 99.466709 242.116364 
L 102.491562 242.116364 
L 105.516414 242.116364 
L 108.541265 242.116364 
L 111.566118 242.116364 
L 114.590971 242.116364 
L 117.615824 242.116364 
L 120.640677 242.116364 
L 123.66553 242.116364 
L 126.690382 242.116364 
L 129.715235 242.116364 
L 132.740088 242.116364 
L 135.764941 242.116364 
L 138.789794 242.116364 
L 141.814647 242.116364 
L 144.8395 242.116364 
L 147.864348 242.116364 
L 150.889206 242.116364 
L 153.914054 242.116364 
L 156.938912 242.116364 
L 159.96376 242.116364 
L 162.988617 242.116364 
L 166.013466 242.116364 
L 169.038323 242.116364 
L 172.063172 242.116364 
L 175.088029 242.116364 
L 178.112877 242.116364 
L 181.137735 242.116364 
L 184.162583 242.116364 
L 187.187441 242.116364 
L 190.212289 242.116364 
L 193.237146 242.116364 
L 196.261995 242.116364 
L 199.286843 242.116364 
L 202.311701 242.116364 
L 205.336549 242.116364 
L 208.361406 242.116364 
L 211.386255 242.116364 
L 214.411112 242.116364 
L 217.435961 242.116364 
L 220.460818 242.116364 
L 223.485666 242.116364 
L 226.510515 242.116364 
L 229.535381 242.116364 
L 232.56023 242.116364 
L 235.585078 242.116364 
L 238.609926 242.116364 
L 241.634793 242.116364 
L 244.659641 242.116364 
L 247.68449 242.116364 
L 250.709338 242.116364 
L 253.734204 242.116364 
L 256.759053 242.116364 
L 259.783901 242.116364 
L 262.80875 242.116364 
L 265.833598 242.116364 
L 268.858464 242.116364 
L 271.883313 242.116364 
L 274.908161 242.116364 
L 277.93301 242.116364 
L 280.957876 242.116364 
L 283.982724 242.116364 
L 287.007573 242.116364 
L 290.032421 242.116364 
L 293.057288 242.116364 
L 296.082136 242.116364 
L 299.106984 242.116364 
L 302.131833 242.116364 
L 305.156699 242.116364 
L 308.181548 242.116364 
L 311.206396 242.116364 
L 314.231244 242.116364 
L 317.256111 242.116364 
L 320.280959 242.116364 
L 323.305808 242.116364 
L 326.330656 242.116364 
L 329.355505 242.116364 
L 332.380371 242.116364 
L 335.405219 242.116364 
L 338.430068 242.116364 
L 341.454916 242.116364 
L 344.479783 242.116364 
L 347.504631 242.116364 
L 350.529479 242.116364 
L 353.554328 242.116364 
L 356.579194 242.116364 
L 359.604043 242.116364 
L 362.628891 242.116364 
L 365.653739 242.116364 
L 368.678606 242.116364 
" style="fill:none;stroke:#ffa500;stroke-linecap:square;stroke-width:1.5;"/>
   </g>
   <g id="line2d_26">
    <path clip-path="url(#p8a653124a1)" d="M 288.488057 74.524269 
L 288.790082 74.524269 
L 289.092106 74.524269 
L 289.394131 74.524269 
L 289.696155 74.524269 
L 289.99818 74.524269 
L 290.300204 74.524269 
L 290.602228 74.524269 
L 290.904253 74.524269 
L 291.206277 74.524269 
L 291.508302 74.524269 
L 291.810326 74.524269 
L 292.112351 74.524269 
L 292.414375 74.524269 
L 292.7164 74.524269 
L 293.018424 71.945929 
L 293.320449 71.945929 
L 293.622473 71.945929 
L 293.924497 71.945929 
L 294.226522 71.945929 
L 294.528546 71.945929 
L 294.830571 71.945929 
L 295.132595 71.945929 
L 295.43462 71.945929 
L 295.736662 70.065889 
L 296.038687 69.582451 
L 296.340711 68.937866 
L 296.642735 67.648696 
L 296.94476 67.648696 
L 297.246784 65.070356 
L 297.548809 65.070356 
L 297.850833 65.070356 
L 298.152858 65.070356 
L 298.454882 63.311176 
L 298.756907 62.062292 
L 299.058931 60.773123 
L 299.360955 60.773123 
L 299.66298 58.194783 
L 299.965004 58.194783 
L 300.267029 58.194783 
L 300.569053 55.831304 
L 300.871078 53.897549 
L 301.173102 53.897549 
L 301.475127 51.319209 
L 301.777151 51.319209 
L 302.079176 48.955731 
L 302.3812 47.021976 
L 302.683224 44.443636 
L 302.985249 44.443636 
L 303.287273 44.443636 
L 303.452709 48.830717 
" style="fill:none;stroke:#ffa500;stroke-linecap:square;stroke-width:1.5;"/>
   </g>
   <g id="line2d_27">
    <path clip-path="url(#p8a653124a1)" d="M 288.488057 96.526103 
L 288.337531 96.306363 
L 288.18668 96.086612 
" style="fill:none;stroke:#ffa500;stroke-linecap:square;stroke-width:1.5;"/>
   </g>
   <g id="line2d_28">
    <path clip-path="url(#p8a653124a1)" d="M 288.186033 96.086612 
L 288.034859 95.866872 
L 287.883379 95.647132 
L 287.731593 95.427392 
L 287.579502 95.207652 
L 287.427123 94.987911 
L 287.274456 94.768182 
L 287.12152 94.548442 
L 286.968296 94.328712 
L 286.81482 94.108972 
L 286.661074 93.889242 
L 286.507076 93.669513 
L 286.352845 93.449783 
L 286.198362 93.230054 
L 286.043663 93.010324 
L 285.888748 92.790594 
L 285.733599 92.570865 
L 285.578253 92.351146 
L 285.422709 92.131416 
L 285.266985 91.911686 
L 285.111063 91.691967 
L 284.954961 91.472238 
" style="fill:none;stroke:#ffa500;stroke-linecap:square;stroke-width:1.5;"/>
   </g>
   <g id="line2d_29">
    <path clip-path="url(#p8a653124a1)" d="M 284.863764 91.472238 
L 284.707734 91.252518 
L 284.551543 91.032799 
L 284.395207 90.81307 
L 284.238728 90.593351 
L 284.082122 90.373631 
" style="fill:none;stroke:#ffa500;stroke-linecap:square;stroke-width:1.5;"/>
   </g>
   <g id="line2d_30">
    <path clip-path="url(#p8a653124a1)" d="M 283.957691 90.373631 
L 283.801301 90.153902 
L 283.644786 89.934183 
L 283.488181 89.714464 
" style="fill:none;stroke:#ffa500;stroke-linecap:square;stroke-width:1.5;"/>
   </g>
   <g id="line2d_31">
    <path clip-path="url(#p8a653124a1)" d="M 283.353642 89.714464 
L 283.197324 89.494734 
" style="fill:none;stroke:#ffa500;stroke-linecap:square;stroke-width:1.5;"/>
   </g>
   <g id="line2d_32">
    <path clip-path="url(#p8a653124a1)" d="M 283.051617 89.494734 
L 282.895641 89.275015 
L 282.739594 89.055296 
L 282.583474 88.835566 
L 282.4273 88.615847 
L 282.271091 88.396117 
" style="fill:none;stroke:#ffa500;stroke-linecap:square;stroke-width:1.5;"/>
   </g>
   <g id="line2d_33">
    <path clip-path="url(#p8a653124a1)" d="M 282.145544 88.396117 
L 281.989676 88.176398 
" style="fill:none;stroke:#ffa500;stroke-linecap:square;stroke-width:1.5;"/>
   </g>
   <g id="line2d_34">
    <path clip-path="url(#p8a653124a1)" d="M 281.843519 88.176398 
L 281.688083 87.956669 
L 281.532647 87.736939 
L 281.377193 87.51722 
L 281.221738 87.29749 
L 281.066284 87.077761 
L 280.910866 86.858041 
L 280.755447 86.638312 
L 280.600083 86.418582 
L 280.444755 86.198863 
L 280.289462 85.979133 
L 280.134224 85.759404 
L 279.979057 85.539674 
L 279.823963 85.319955 
" style="fill:none;stroke:#800080;stroke-linecap:square;stroke-width:1.5;"/>
   </g>
   <g id="line2d_35">
    <path clip-path="url(#p8a653124a1)" d="M 279.729348 85.319955 
L 279.574667 85.100225 
L 279.420076 84.880496 
L 279.265593 84.660766 
L 279.1112 84.441037 
L 278.956915 84.221307 
" style="fill:none;stroke:#800080;stroke-linecap:square;stroke-width:1.5;"/>
   </g>
   <g id="line2d_36">
    <path clip-path="url(#p8a653124a1)" d="M 278.823275 84.221307 
L 278.669619 84.001567 
" style="fill:none;stroke:#800080;stroke-linecap:square;stroke-width:1.5;"/>
   </g>
   <g id="line2d_37">
    <path clip-path="url(#p8a653124a1)" d="M 278.521251 84.001567 
L 278.368278 83.781837 
" style="fill:none;stroke:#800080;stroke-linecap:square;stroke-width:1.5;"/>
   </g>
   <g id="line2d_38">
    <path clip-path="url(#p8a653124a1)" d="M 278.219226 83.781837 
L 278.066955 83.562097 
L 277.914828 83.342357 
L 277.762862 83.122617 
L 277.611041 82.902877 
L 277.459381 82.683137 
L 277.307901 82.463397 
L 277.156583 82.243657 
" style="fill:none;stroke:#800080;stroke-linecap:square;stroke-width:1.5;"/>
   </g>
   <g id="line2d_39">
    <path clip-path="url(#p8a653124a1)" d="M 277.011128 82.243657 
L 276.860584 82.023916 
L 276.710237 81.804166 
" style="fill:none;stroke:#800080;stroke-linecap:square;stroke-width:1.5;"/>
   </g>
   <g id="line2d_40">
    <path clip-path="url(#p8a653124a1)" d="M 276.709104 81.804166 
L 276.558955 81.584426 
L 276.409004 81.364675 
L 276.259268 81.144924 
L 276.109731 80.925184 
L 275.960427 80.705434 
L 275.811339 80.485683 
L 275.662485 80.265933 
L 275.513883 80.046182 
L 275.365496 79.826431 
L 275.217379 79.60667 
L 275.069496 79.38692 
L 274.921865 79.167169 
L 274.774504 78.947408 
L 274.627412 78.727657 
L 274.48059 78.507896 
L 274.334038 78.288135 
L 274.187773 78.068374 
L 274.041779 77.848613 
L 273.89609 77.628852 
L 273.750689 77.409091 
L 273.605575 77.18933 
L 273.460767 76.969569 
" style="fill:none;stroke:#800080;stroke-linecap:square;stroke-width:1.5;"/>
   </g>
   <g id="line2d_41">
    <path clip-path="url(#p8a653124a1)" d="M 273.386835 76.969569 
L 273.242657 76.749797 
L 273.098784 76.530025 
" style="fill:none;stroke:#800080;stroke-linecap:square;stroke-width:1.5;"/>
   </g>
   <g id="line2d_42">
    <path clip-path="url(#p8a653124a1)" d="M 273.08481 76.530025 
L 272.941316 76.310254 
L 272.798126 76.090493 
L 272.655261 75.870721 
L 272.512737 75.650939 
L 272.370519 75.431168 
L 272.228625 75.211396 
L 272.087072 74.991624 
L 271.945843 74.771842 
L 271.804956 74.55206 
L 271.664411 74.332289 
" style="fill:none;stroke:#800080;stroke-linecap:square;stroke-width:1.5;"/>
   </g>
   <g id="line2d_43">
    <path clip-path="url(#p8a653124a1)" d="M 271.574688 74.332289 
L 271.43488 74.112507 
L 271.295432 73.892714 
" style="fill:none;stroke:#800080;stroke-linecap:square;stroke-width:1.5;"/>
   </g>
   <g id="line2d_44">
    <path clip-path="url(#p8a653124a1)" d="M 271.272664 73.892714 
L 267.64695 67.958115 
L 264.416364 62.242491 
L 262.211912 58.194783 
L 261.607863 58.194783 
L 261.305839 60.773123 
L 260.399766 60.773123 
L 260.097741 62.062292 
L 259.795717 62.062292 
L 259.191668 63.190316 
L 258.889643 65.070356 
L 257.077497 65.070356 
L 256.775472 67.648696 
L 256.171423 67.648696 
L 255.869399 68.937866 
L 255.26535 70.065889 
L 254.963326 71.945929 
L 253.453203 71.945929 
L 253.151179 74.524269 
L 252.849154 74.524269 
L 252.54713 75.813439 
L 252.245106 75.813439 
L 251.943081 76.780316 
L 251.641057 78.821502 
L 250.130934 78.821502 
L 249.82891 81.399842 
L 249.526886 81.399842 
L 249.224861 82.689012 
L 248.922837 82.689012 
L 248.620812 83.655889 
L 248.318788 85.697075 
L 246.808665 85.697075 
L 246.506641 88.275415 
L 246.204617 88.275415 
L 245.902592 89.564585 
L 245.600568 89.564585 
L 245.298543 90.20917 
L 244.996519 92.572648 
L 243.486397 92.572648 
L 243.184372 95.150988 
L 242.580323 95.150988 
L 242.278299 96.440158 
L 241.976274 96.440158 
L 241.372225 97.568182 
L 241.070201 99.448221 
L 239.258054 99.448221 
L 238.95603 102.026561 
L 238.049956 102.026561 
L 237.747932 103.315731 
L 237.445908 103.315731 
L 237.143883 103.960316 
L 236.841859 103.960316 
L 236.539834 104.524328 
L 236.23781 106.323794 
L 232.613498 106.323794 
L 232.311474 108.902134 
L 224.458838 108.902134 
L 224.458838 108.902134 
" style="fill:none;stroke:#800080;stroke-linecap:square;stroke-width:1.5;"/>
   </g>
   <g id="line2d_45">
    <path clip-path="url(#p8a653124a1)" d="M 224.458838 130.903968 
L 224.424705 130.683966 
L 224.390481 130.463964 
L 224.356149 130.243951 
L 224.321728 130.023948 
L 224.287198 129.803946 
L 224.252597 129.583944 
L 224.21787 129.363941 
L 224.183071 129.143939 
" style="fill:none;stroke:#800080;stroke-linecap:square;stroke-width:1.5;"/>
   </g>
   <g id="line2d_46">
    <path clip-path="url(#p8a653124a1)" d="M 224.156814 129.143939 
L 224.121907 128.923936 
L 224.086892 128.703934 
L 224.051787 128.483921 
L 224.016574 128.263919 
L 223.981271 128.043916 
L 223.945879 127.823914 
L 223.910378 127.603911 
L 223.874788 127.383909 
L 223.839089 127.163907 
L 223.803301 126.943904 
L 223.767405 126.723902 
L 223.731419 126.5039 
L 223.695343 126.283897 
L 223.659141 126.063895 
L 223.622867 125.843892 
L 223.586485 125.62389 
L 223.549995 125.403888 
L 223.513416 125.183885 
L 223.476746 124.963883 
L 223.439969 124.74388 
L 223.403084 124.523878 
L 223.366108 124.303876 
L 223.329025 124.083873 
L 223.291852 123.863871 
L 223.254571 123.643868 
L 223.2172 123.423866 
L 223.179721 123.203864 
L 223.142135 122.983872 
L 223.104458 122.763869 
L 223.066674 122.543867 
L 223.028799 122.323865 
L 222.990817 122.103862 
L 222.952727 121.88386 
L 222.914546 121.663857 
L 222.876258 121.443865 
L 222.837862 121.223863 
L 222.799376 121.003861 
L 222.760783 120.783858 
L 222.722099 120.563856 
L 222.683307 120.343864 
L 222.644408 120.123862 
L 222.6054 119.903859 
L 222.566303 119.683857 
L 222.527098 119.463865 
L 222.487784 119.243863 
L 222.448381 119.02386 
L 222.40887 118.803858 
L 222.369251 118.583866 
L 222.329525 118.363863 
L 222.289708 118.143861 
L 222.249783 117.923869 
L 222.209751 117.703867 
L 222.16961 117.483864 
L 222.12938 117.263872 
L 222.089042 117.04387 
L 222.048595 116.823868 
L 222.008041 116.603876 
L 221.967397 116.383873 
L 221.926645 116.163871 
L 221.885786 115.943879 
L 221.844818 115.723877 
L 221.803742 115.503885 
L 221.762559 115.283882 
L 221.721285 115.06389 
L 221.679904 114.843888 
L 221.638415 114.623886 
L 221.596818 114.403894 
L 221.555113 114.183891 
L 221.5133 113.9639 
L 221.471397 113.743897 
L 221.429368 113.523905 
L 221.387249 113.303903 
L 221.345023 113.083911 
L 221.302688 112.863919 
L 221.260246 112.643917 
L 221.217695 112.423925 
L 221.175037 112.203922 
L 221.132289 111.98393 
L 221.089415 111.763928 
L 221.046451 111.543936 
L 221.003361 111.323944 
L 220.960182 111.103942 
L 220.916894 110.88395 
L 220.87348 110.663958 
L 220.829977 110.443956 
L 220.786366 110.223964 
L 220.742646 110.003972 
L 220.698819 109.783969 
L 220.654884 109.563978 
L 220.610841 109.343986 
L 220.56669 109.123983 
" style="fill:none;stroke:#800080;stroke-linecap:square;stroke-width:1.5;"/>
   </g>
   <g id="line2d_47">
    <path clip-path="url(#p8a653124a1)" d="M 220.53252 109.123983 
L 220.488262 108.903991 
L 220.443877 108.683999 
L 220.399402 108.464008 
L 220.354802 108.244005 
L 220.310111 108.024013 
L 220.265295 107.804021 
" style="fill:none;stroke:#800080;stroke-linecap:square;stroke-width:1.5;"/>
   </g>
   <g id="line2d_48">
    <path clip-path="url(#p8a653124a1)" d="M 220.230496 107.804021 
L 220.185572 107.584029 
L 220.14054 107.364038 
L 220.0954 107.144035 
L 220.050161 106.924043 
L 220.004805 106.704051 
L 219.959341 106.484059 
L 219.91377 106.264068 
L 219.86809 106.044076 
L 219.822294 105.824084 
L 219.776398 105.604092 
L 219.730395 105.384089 
L 219.684275 105.164098 
L 219.638056 104.944106 
L 219.59172 104.724114 
L 219.545276 104.504122 
L 219.498733 104.28413 
L 219.452074 104.064138 
L 219.405297 103.844146 
L 219.358422 103.624154 
L 219.311438 103.404162 
L 219.264338 103.18417 
L 218.720374 102.026561 
L 218.418349 102.026561 
L 218.116325 102.026561 
" style="fill:none;stroke:#800080;stroke-linecap:square;stroke-width:1.5;"/>
   </g>
   <g id="line2d_49">
    <path clip-path="url(#p8a653124a1)" d="M 218.116325 124.028395 
L 218.07774 123.808393 
L 218.039065 123.58839 
L 218.000283 123.368399 
L 217.96141 123.148396 
L 217.922448 122.928394 
L 217.883386 122.708391 
L 217.844217 122.488399 
" style="fill:none;stroke:#800080;stroke-linecap:square;stroke-width:1.5;"/>
   </g>
   <g id="line2d_50">
    <path clip-path="url(#p8a653124a1)" d="M 217.8143 122.488399 
L 217.775032 122.268397 
L 217.735674 122.048395 
L 217.696217 121.828392 
L 217.656661 121.6084 
L 217.617015 121.388398 
L 217.57727 121.168396 
L 217.537427 120.948404 
L 217.497484 120.728401 
L 217.457443 120.508399 
L 217.417311 120.288397 
L 217.377081 120.068405 
L 217.336751 119.848402 
L 217.296323 119.62841 
L 217.255796 119.408408 
L 217.215179 119.188406 
L 217.174454 118.968414 
L 217.133639 118.748411 
L 217.092726 118.528419 
L 217.051713 118.308417 
L 217.010601 118.088415 
L 216.969391 117.868423 
L 216.92809 117.64842 
L 216.886682 117.428428 
L 216.845184 117.208426 
L 216.803587 116.988434 
L 216.761891 116.768432 
L 216.720096 116.54844 
L 216.678202 116.328437 
L 216.636209 116.108445 
L 216.594117 115.888443 
L 216.551927 115.668451 
L 216.509637 115.448449 
L 216.467258 115.228457 
L 216.42477 115.008455 
L 216.382184 114.788463 
L 216.339508 114.56846 
L 216.296724 114.348468 
L 216.25385 114.128476 
L 216.210868 113.908474 
L 216.167796 113.688482 
L 216.124625 113.46848 
L 216.081347 113.248488 
L 216.037978 113.028496 
" style="fill:none;stroke:#800080;stroke-linecap:square;stroke-width:1.5;"/>
   </g>
   <g id="line2d_51">
    <path clip-path="url(#p8a653124a1)" d="M 216.002154 113.028496 
L 215.958677 112.808494 
L 215.915102 112.588502 
L 215.871428 112.36851 
L 215.827654 112.148507 
L 215.783782 111.928515 
L 215.739811 111.708524 
" style="fill:none;stroke:#800080;stroke-linecap:square;stroke-width:1.5;"/>
   </g>
   <g id="line2d_52">
    <path clip-path="url(#p8a653124a1)" d="M 215.700129 111.708524 
L 215.65605 111.488532 
L 215.611881 111.268529 
L 215.567605 111.048537 
L 215.523229 110.828545 
L 215.478763 110.608554 
L 215.43419 110.388551 
L 215.389517 110.168559 
L 215.344755 109.948567 
L 215.299885 109.728575 
L 215.254916 109.508584 
L 215.209848 109.288581 
L 215.16469 109.068589 
L 215.119424 108.848597 
L 215.074059 108.628605 
L 215.028595 108.408614 
L 214.983033 108.188622 
L 214.937371 107.968619 
L 214.891611 107.748627 
L 214.845751 107.528635 
L 214.799793 107.308644 
L 214.753736 107.088652 
L 214.70758 106.86866 
L 214.661325 106.648668 
L 214.614971 106.428676 
L 214.568509 106.208684 
L 214.521957 105.988692 
L 214.475306 105.7687 
L 214.428548 105.548708 
L 214.381699 105.328716 
L 214.334752 105.108725 
L 214.287697 104.888733 
L 214.240551 104.668741 
L 214.193298 104.448749 
" style="fill:none;stroke:#800080;stroke-linecap:square;stroke-width:1.5;"/>
   </g>
   <g id="line2d_53">
    <path clip-path="url(#p8a653124a1)" d="M 214.190007 104.448749 
L 214.142655 104.228757 
L 214.095204 104.008765 
L 214.047663 103.788773 
L 214.000014 103.568781 
L 213.952267 103.348789 
L 213.904429 103.128808 
" style="fill:none;stroke:#800080;stroke-linecap:square;stroke-width:1.5;"/>
   </g>
   <g id="line2d_54">
    <path clip-path="url(#p8a653124a1)" d="M 213.887983 103.128808 
L 213.840037 102.908816 
L 213.791993 102.688824 
L 213.743849 102.468832 
L 213.695607 102.24884 
L 213.647266 102.028848 
L 213.598826 101.808856 
L 213.550296 101.588875 
L 213.501658 101.368883 
L 213.452921 101.148891 
L 213.404085 100.928899 
L 213.355151 100.708918 
L 213.306117 100.488926 
L 213.256994 100.268934 
L 213.207762 100.048942 
L 213.158432 99.828961 
L 213.109012 99.608969 
L 213.059484 99.388977 
L 213.009856 99.168996 
L 212.96014 98.949004 
L 212.910324 98.729012 
L 212.8604 98.50903 
L 212.810386 98.289038 
L 212.760274 98.069047 
L 212.710062 97.849065 
L 212.659752 97.629073 
L 212.609342 97.409081 
L 212.558834 97.1891 
L 212.508227 96.969108 
L 212.45753 96.749127 
L 212.406725 96.529135 
" style="fill:none;stroke:#800080;stroke-linecap:square;stroke-width:1.5;"/>
   </g>
   <g id="line2d_55">
    <path clip-path="url(#p8a653124a1)" d="M 212.377851 96.529135 
L 212.326956 96.309153 
L 212.275963 96.089161 
L 212.22487 95.86918 
L 212.173678 95.649188 
L 212.122397 95.429207 
" style="fill:none;stroke:#800080;stroke-linecap:square;stroke-width:1.5;"/>
   </g>
   <g id="line2d_56">
    <path clip-path="url(#p8a653124a1)" d="M 212.075827 95.429207 
L 212.024446 95.209215 
L 211.972967 94.989233 
L 211.921389 94.769242 
L 211.869712 94.54926 
L 211.817935 94.329268 
" style="fill:none;stroke:#800080;stroke-linecap:square;stroke-width:1.5;"/>
   </g>
   <g id="line2d_57">
    <path clip-path="url(#p8a653124a1)" d="M 211.773802 94.329268 
L 211.721936 94.109287 
L 211.669971 93.889305 
L 211.617917 93.669313 
L 211.565754 93.449332 
L 211.513501 93.22934 
" style="fill:none;stroke:#800080;stroke-linecap:square;stroke-width:1.5;"/>
   </g>
   <g id="line2d_58">
    <path clip-path="url(#p8a653124a1)" d="M 211.471778 93.22934 
L 211.419435 93.009359 
L 211.366994 92.789377 
L 211.314453 92.569385 
L 211.261814 92.349404 
L 211.209085 92.129423 
L 211.156257 91.909431 
L 211.103329 91.689449 
L 211.050312 91.469468 
L 210.997205 91.249486 
L 210.943991 91.029495 
L 210.890695 90.809513 
" style="fill:none;stroke:#800080;stroke-linecap:square;stroke-width:1.5;"/>
   </g>
   <g id="line2d_59">
    <path clip-path="url(#p8a653124a1)" d="M 210.867729 90.809513 
L 210.814334 90.589532 
L 210.760841 90.36955 
L 210.707257 90.149558 
L 210.653575 89.929577 
L 210.599802 89.709596 
" style="fill:none;stroke:#800080;stroke-linecap:square;stroke-width:1.5;"/>
   </g>
   <g id="line2d_60">
    <path clip-path="url(#p8a653124a1)" d="M 210.565705 89.709596 
L 210.511842 89.489614 
L 210.457881 89.269633 
L 210.40383 89.049641 
L 210.34968 88.829659 
L 210.29544 88.609678 
L 210.241101 88.389697 
L 210.186672 88.169715 
L 210.132154 87.949734 
L 210.077536 87.729752 
L 210.022829 87.509771 
L 209.968022 87.28979 
L 209.913135 87.069808 
L 209.858148 86.849827 
L 209.803063 86.629845 
L 209.747897 86.409864 
L 209.692632 86.189883 
L 209.637277 85.969901 
L 209.581832 85.74992 
L 209.526297 85.529938 
L 209.470664 85.309957 
L 209.41494 85.089976 
L 209.359127 84.869994 
" style="fill:none;stroke:#800080;stroke-linecap:square;stroke-width:1.5;"/>
   </g>
   <g id="line2d_61">
    <path clip-path="url(#p8a653124a1)" d="M 209.357607 84.869994 
L 209.301703 84.650013 
L 209.24571 84.430031 
L 209.189627 84.21005 
L 209.133453 83.990068 
L 209.07719 83.770087 
" style="fill:none;stroke:#800080;stroke-linecap:square;stroke-width:1.5;"/>
   </g>
   <g id="line2d_62">
    <path clip-path="url(#p8a653124a1)" d="M 209.055582 83.770087 
L 208.999229 83.550106 
L 208.942786 83.330135 
L 208.886262 83.110153 
L 208.82964 82.890172 
L 208.772927 82.67019 
" style="fill:none;stroke:#800080;stroke-linecap:square;stroke-width:1.5;"/>
   </g>
   <g id="line2d_63">
    <path clip-path="url(#p8a653124a1)" d="M 208.753558 82.67019 
" style="fill:none;stroke:#800080;stroke-linecap:square;stroke-width:1.5;"/>
   </g>
   <g id="line2d_64">
    <path clip-path="url(#p8a653124a1)" d="M 208.451534 82.67019 
L 208.394794 82.450209 
L 208.337955 82.230228 
L 208.281036 82.010257 
L 208.224026 81.790275 
L 208.166927 81.570294 
" style="fill:none;stroke:#800080;stroke-linecap:square;stroke-width:1.5;"/>
   </g>
   <g id="line2d_65">
    <path clip-path="url(#p8a653124a1)" d="M 208.149509 81.570294 
L 208.092329 81.350313 
L 208.035058 81.130342 
L 207.977707 80.91036 
L 207.920266 80.690379 
L 207.862735 80.470397 
" style="fill:none;stroke:#800080;stroke-linecap:square;stroke-width:1.5;"/>
   </g>
   <g id="line2d_66">
    <path clip-path="url(#p8a653124a1)" d="M 207.847485 80.470397 
L 207.789873 80.250426 
L 207.73218 80.030445 
L 207.243436 78.821502 
L 206.941411 78.821502 
L 206.639387 78.821502 
" style="fill:none;stroke:#800080;stroke-linecap:square;stroke-width:1.5;"/>
   </g>
   <g id="line2d_67">
    <path clip-path="url(#p8a653124a1)" d="M 206.639387 100.823336 
L 206.590551 100.603344 
L 206.541634 100.383352 
L 206.492628 100.163371 
L 206.44354 99.943379 
L 206.394372 99.723387 
L 206.345114 99.503406 
" style="fill:none;stroke:#800080;stroke-linecap:square;stroke-width:1.5;"/>
   </g>
   <g id="line2d_68">
    <path clip-path="url(#p8a653124a1)" d="M 206.337362 99.503406 
L 206.288023 99.283414 
L 206.238603 99.063422 
L 206.189093 98.84343 
L 206.139502 98.623448 
L 206.08983 98.403457 
L 206.040077 98.183465 
" style="fill:none;stroke:#800080;stroke-linecap:square;stroke-width:1.5;"/>
   </g>
   <g id="line2d_69">
    <path clip-path="url(#p8a653124a1)" d="M 206.035338 98.183465 
L 205.985495 97.963483 
L 205.935571 97.743491 
L 205.885567 97.523499 
L 205.835481 97.303518 
L 205.785305 97.083526 
L 205.735058 96.863545 
" style="fill:none;stroke:#800080;stroke-linecap:square;stroke-width:1.5;"/>
   </g>
   <g id="line2d_70">
    <path clip-path="url(#p8a653124a1)" d="M 205.733313 96.863545 
L 205.682976 96.643553 
L 205.632558 96.423561 
L 205.582058 96.203579 
L 205.531469 95.983588 
L 205.480808 95.763606 
" style="fill:none;stroke:#800080;stroke-linecap:square;stroke-width:1.5;"/>
   </g>
   <g id="line2d_71">
    <path clip-path="url(#p8a653124a1)" d="M 205.431289 95.763606 
L 205.380547 95.543614 
L 205.329724 95.323633 
L 205.27882 95.103641 
L 205.227835 94.883649 
L 205.17677 94.663668 
" style="fill:none;stroke:#800080;stroke-linecap:square;stroke-width:1.5;"/>
   </g>
   <g id="line2d_72">
    <path clip-path="url(#p8a653124a1)" d="M 205.129265 94.663668 
L 205.078127 94.443676 
L 205.026899 94.223694 
L 204.9756 94.003702 
L 204.924219 93.783721 
L 204.872758 93.56374 
L 204.821215 93.343748 
L 204.769592 93.123766 
L 204.717888 92.903774 
L 204.666103 92.683793 
L 204.614237 92.463801 
L 204.562299 92.24382 
L 204.510271 92.023828 
L 204.458171 91.803846 
L 204.40599 91.583865 
L 204.353729 91.363873 
L 204.301395 91.143892 
L 204.24898 90.92391 
" style="fill:none;stroke:#800080;stroke-linecap:square;stroke-width:1.5;"/>
   </g>
   <g id="line2d_73">
    <path clip-path="url(#p8a653124a1)" d="M 204.223191 90.92391 
L 204.170705 90.703918 
L 204.118128 90.483937 
L 204.065489 90.263955 
L 204.01276 90.043964 
L 203.959958 89.823982 
" style="fill:none;stroke:#800080;stroke-linecap:square;stroke-width:1.5;"/>
   </g>
   <g id="line2d_74">
    <path clip-path="url(#p8a653124a1)" d="M 203.921167 89.823982 
L 203.868294 89.604001 
L 203.815349 89.384009 
L 203.762323 89.164027 
L 203.709216 88.944046 
L 203.656037 88.724065 
" style="fill:none;stroke:#800080;stroke-linecap:square;stroke-width:1.5;"/>
   </g>
   <g id="line2d_75">
    <path clip-path="url(#p8a653124a1)" d="M 203.619142 88.724065 
L 203.565892 88.504073 
L 203.512569 88.284091 
L 203.459165 88.06411 
L 203.405689 87.844128 
L 203.352133 87.624137 
" style="fill:none;stroke:#800080;stroke-linecap:square;stroke-width:1.5;"/>
   </g>
   <g id="line2d_76">
    <path clip-path="url(#p8a653124a1)" d="M 203.317118 87.624137 
L 203.263498 87.404155 
L 203.209798 87.184174 
L 203.156026 86.964192 
L 203.102181 86.744211 
L 203.048256 86.524219 
" style="fill:none;stroke:#800080;stroke-linecap:square;stroke-width:1.5;"/>
   </g>
   <g id="line2d_77">
    <path clip-path="url(#p8a653124a1)" d="M 203.015093 86.524219 
L 202.961105 86.304238 
L 202.907045 86.084256 
L 202.852904 85.864275 
L 202.798691 85.644293 
L 202.744406 85.424312 
" style="fill:none;stroke:#800080;stroke-linecap:square;stroke-width:1.5;"/>
   </g>
   <g id="line2d_78">
    <path clip-path="url(#p8a653124a1)" d="M 202.713069 85.424312 
L 202.658721 85.204331 
L 202.604292 84.984349 
L 202.549801 84.764357 
L 202.495228 84.544376 
L 202.440583 84.324394 
L 202.385867 84.104413 
L 202.331078 83.884432 
L 202.276218 83.66445 
L 202.221286 83.444469 
L 202.16629 83.224487 
L 202.111214 83.004506 
L 202.056066 82.784525 
L 202.000846 82.564543 
L 201.945563 82.344562 
L 201.890199 82.12458 
L 201.834772 81.904599 
" style="fill:none;stroke:#800080;stroke-linecap:square;stroke-width:1.5;"/>
   </g>
   <g id="line2d_79">
    <path clip-path="url(#p8a653124a1)" d="M 201.806996 81.904599 
L 201.751506 81.684618 
L 201.695944 81.464636 
L 201.64031 81.244655 
L 201.584605 81.024673 
L 201.528836 80.804692 
L 201.472996 80.58471 
L 201.417092 80.364729 
L 201.361117 80.144748 
L 201.305069 79.924777 
L 201.248959 79.704795 
" style="fill:none;stroke:#800080;stroke-linecap:square;stroke-width:1.5;"/>
   </g>
   <g id="line2d_80">
    <path clip-path="url(#p8a653124a1)" d="M 201.202947 79.704795 
L 201.146774 79.484814 
L 201.090546 79.264833 
L 201.034238 79.044851 
L 200.977876 78.82487 
L 200.921433 78.604888 
" style="fill:none;stroke:#800080;stroke-linecap:square;stroke-width:1.5;"/>
   </g>
   <g id="line2d_81">
    <path clip-path="url(#p8a653124a1)" d="M 200.900922 78.604888 
L 200.844425 78.384907 
L 200.787865 78.164936 
L 200.731234 77.944955 
L 200.674539 77.724973 
L 200.617781 77.504992 
" style="fill:none;stroke:#800080;stroke-linecap:square;stroke-width:1.5;"/>
   </g>
   <g id="line2d_82">
    <path clip-path="url(#p8a653124a1)" d="M 200.598898 77.504992 
L 200.542077 77.28501 
L 200.485194 77.065039 
L 200.428238 76.845058 
L 200.371229 76.625077 
L 200.314147 76.405095 
L 200.257003 76.185114 
L 200.199795 75.965143 
L 200.142525 75.745161 
L 200.085192 75.52518 
L 200.027796 75.305209 
L 199.970337 75.085228 
L 199.912815 74.865246 
L 199.85523 74.645265 
L 199.797582 74.425294 
L 199.739871 74.205313 
" style="fill:none;stroke:#800080;stroke-linecap:square;stroke-width:1.5;"/>
   </g>
   <g id="line2d_83">
    <path clip-path="url(#p8a653124a1)" d="M 199.692825 74.205313 
L 199.635069 73.985331 
L 199.57725 73.76536 
L 199.519377 73.545379 
L 199.461441 73.325397 
L 199.403443 73.105426 
" style="fill:none;stroke:#800080;stroke-linecap:square;stroke-width:1.5;"/>
   </g>
   <g id="line2d_84">
    <path clip-path="url(#p8a653124a1)" d="M 199.3908 73.105426 
L 199.332748 72.885445 
L 199.274632 72.665464 
L 199.216454 72.445493 
L 199.158221 72.225511 
L 199.099935 72.00554 
" style="fill:none;stroke:#800080;stroke-linecap:square;stroke-width:1.5;"/>
   </g>
   <g id="line2d_85">
    <path clip-path="url(#p8a653124a1)" d="M 199.088776 72.00554 
L 199.030426 71.785559 
L 198.972023 71.565578 
L 198.913557 71.345607 
L 198.855037 71.125625 
L 198.796454 70.905654 
" style="fill:none;stroke:#800080;stroke-linecap:square;stroke-width:1.5;"/>
   </g>
   <g id="line2d_86">
    <path clip-path="url(#p8a653124a1)" d="M 198.786751 70.905654 
L 194.992095 57.047266 
L 194.5584 58.194783 
L 192.444229 58.194783 
L 192.142204 60.773123 
L 191.236131 60.773123 
L 190.934107 62.062292 
L 190.632082 62.062292 
L 190.330058 62.706877 
L 190.028033 63.02917 
L 189.726009 65.070356 
L 187.309813 65.070356 
L 187.007789 67.648696 
L 186.40374 67.648696 
L 186.101715 68.937866 
L 185.799691 68.937866 
L 185.195642 70.065889 
L 184.893618 71.945929 
L 183.081471 71.945929 
L 182.779446 74.524269 
L 182.175389 74.524269 
L 181.873364 75.813439 
L 181.57134 75.813439 
L 181.269315 76.780316 
L 180.967291 78.821502 
L 179.457168 78.821502 
L 179.155144 81.399842 
L 178.551095 81.399842 
L 178.249071 82.689012 
L 177.645022 83.817036 
L 177.342997 85.697075 
L 176.1349 85.697075 
L 175.832875 88.275415 
L 175.228826 88.275415 
L 174.322753 92.572648 
L 173.41668 92.572648 
L 173.41668 92.572648 
" style="fill:none;stroke:#800080;stroke-linecap:square;stroke-width:1.5;"/>
   </g>
   <g id="line2d_87">
    <path clip-path="url(#p8a653124a1)" d="M 173.41668 114.574482 
L 170.721003 98.734383 
L 170.203844 96.754582 
L 169.572171 95.215153 
L 168.876395 94.116253 
L 168.04054 93.238321 
L 167.128442 92.58165 
L 165.813546 91.928672 
L 163.893063 91.283814 
L 161.19914 90.653885 
L 156.426563 89.846014 
L 150.51529 89.079153 
L 143.44074 88.366889 
L 134.778947 87.756726 
L 126.784372 87.453653 
L 120.808634 87.409233 
L 115.090959 87.542378 
L 112.588894 87.665346 
L 112.588894 87.665346 
" style="fill:none;stroke:#800080;stroke-linecap:square;stroke-width:1.5;"/>
   </g>
   <g id="line2d_88">
    <path clip-path="url(#p8a653124a1)" d="M 112.407705 87.665346 
" style="fill:none;stroke:#800080;stroke-linecap:square;stroke-width:1.5;"/>
   </g>
   <g id="line2d_89">
    <path clip-path="url(#p8a653124a1)" d="M 112.10568 87.665346 
" style="fill:none;stroke:#800080;stroke-linecap:square;stroke-width:1.5;"/>
   </g>
   <g id="line2d_90">
    <path clip-path="url(#p8a653124a1)" d="M 111.803656 87.665346 
" style="fill:none;stroke:#800080;stroke-linecap:square;stroke-width:1.5;"/>
   </g>
   <g id="line2d_91">
    <path clip-path="url(#p8a653124a1)" d="M 110.897583 87.665346 
" style="fill:none;stroke:#800080;stroke-linecap:square;stroke-width:1.5;"/>
   </g>
   <g id="line2d_92">
    <path clip-path="url(#p8a653124a1)" d="M 109.991505 87.665346 
" style="fill:none;stroke:#800080;stroke-linecap:square;stroke-width:1.5;"/>
   </g>
   <g id="line2d_93">
    <path clip-path="url(#p8a653124a1)" d="M 109.68948 87.665346 
" style="fill:none;stroke:#800080;stroke-linecap:square;stroke-width:1.5;"/>
   </g>
   <g id="line2d_94">
    <path clip-path="url(#p8a653124a1)" d="M 109.387456 87.665346 
" style="fill:none;stroke:#800080;stroke-linecap:square;stroke-width:1.5;"/>
   </g>
   <g id="line2d_95">
    <path clip-path="url(#p8a653124a1)" d="M 108.481383 87.665346 
" style="fill:none;stroke:#800080;stroke-linecap:square;stroke-width:1.5;"/>
   </g>
   <g id="line2d_96">
    <path clip-path="url(#p8a653124a1)" d="M 107.575309 87.665346 
" style="fill:none;stroke:#800080;stroke-linecap:square;stroke-width:1.5;"/>
   </g>
   <g id="line2d_97">
    <path clip-path="url(#p8a653124a1)" d="M 107.273285 87.665346 
" style="fill:none;stroke:#800080;stroke-linecap:square;stroke-width:1.5;"/>
   </g>
   <g id="line2d_98">
    <path clip-path="url(#p8a653124a1)" d="M 106.97126 87.665346 
" style="fill:none;stroke:#800080;stroke-linecap:square;stroke-width:1.5;"/>
   </g>
   <g id="line2d_99">
    <path clip-path="url(#p8a653124a1)" d="M 106.065187 87.665346 
" style="fill:none;stroke:#800080;stroke-linecap:square;stroke-width:1.5;"/>
   </g>
   <g id="line2d_100">
    <path clip-path="url(#p8a653124a1)" d="M 104.857087 87.665346 
" style="fill:none;stroke:#800080;stroke-linecap:square;stroke-width:1.5;"/>
   </g>
   <g id="line2d_101">
    <path clip-path="url(#p8a653124a1)" d="M 104.555063 87.665346 
" style="fill:none;stroke:#800080;stroke-linecap:square;stroke-width:1.5;"/>
   </g>
   <g id="line2d_102">
    <path clip-path="url(#p8a653124a1)" d="M 104.253038 87.665346 
" style="fill:none;stroke:#800080;stroke-linecap:square;stroke-width:1.5;"/>
   </g>
   <g id="line2d_103">
    <path clip-path="url(#p8a653124a1)" d="M 103.346965 87.665346 
" style="fill:none;stroke:#800080;stroke-linecap:square;stroke-width:1.5;"/>
   </g>
   <g id="line2d_104">
    <path clip-path="url(#p8a653124a1)" d="M 102.440891 87.665346 
" style="fill:none;stroke:#800080;stroke-linecap:square;stroke-width:1.5;"/>
   </g>
   <g id="line2d_105">
    <path clip-path="url(#p8a653124a1)" d="M 102.138867 87.665346 
" style="fill:none;stroke:#800080;stroke-linecap:square;stroke-width:1.5;"/>
   </g>
   <g id="line2d_106">
    <path clip-path="url(#p8a653124a1)" d="M 101.836842 87.665346 
" style="fill:none;stroke:#800080;stroke-linecap:square;stroke-width:1.5;"/>
   </g>
   <g id="line2d_107">
    <path clip-path="url(#p8a653124a1)" d="M 100.930767 87.665346 
" style="fill:none;stroke:#800080;stroke-linecap:square;stroke-width:1.5;"/>
   </g>
   <g id="line2d_108">
    <path clip-path="url(#p8a653124a1)" d="M 100.024694 87.665346 
" style="fill:none;stroke:#800080;stroke-linecap:square;stroke-width:1.5;"/>
   </g>
   <g id="line2d_109">
    <path clip-path="url(#p8a653124a1)" d="M 99.722669 87.665346 
" style="fill:none;stroke:#800080;stroke-linecap:square;stroke-width:1.5;"/>
   </g>
   <g id="line2d_110">
    <path clip-path="url(#p8a653124a1)" d="M 99.420645 87.665346 
L 98.557176 87.876158 
" style="fill:none;stroke:#800080;stroke-linecap:square;stroke-width:1.5;"/>
   </g>
   <g id="line2d_111">
    <path clip-path="url(#p8a653124a1)" d="M 98.514571 87.876158 
L 97.689734 88.087799 
" style="fill:none;stroke:#800080;stroke-linecap:square;stroke-width:1.5;"/>
   </g>
   <g id="line2d_112">
    <path clip-path="url(#p8a653124a1)" d="M 97.608498 88.087799 
" style="fill:none;stroke:#800080;stroke-linecap:square;stroke-width:1.5;"/>
   </g>
   <g id="line2d_113">
    <path clip-path="url(#p8a653124a1)" d="M 97.306471 88.087799 
" style="fill:none;stroke:#800080;stroke-linecap:square;stroke-width:1.5;"/>
   </g>
   <g id="line2d_114">
    <path clip-path="url(#p8a653124a1)" d="M 96.702422 88.087799 
L 95.968749 88.301213 
" style="fill:none;stroke:#800080;stroke-linecap:square;stroke-width:1.5;"/>
   </g>
   <g id="line2d_115">
    <path clip-path="url(#p8a653124a1)" d="M 95.796349 88.301213 
L 95.099349 88.515277 
" style="fill:none;stroke:#800080;stroke-linecap:square;stroke-width:1.5;"/>
   </g>
   <g id="line2d_116">
    <path clip-path="url(#p8a653124a1)" d="M 94.890276 88.515277 
" style="fill:none;stroke:#800080;stroke-linecap:square;stroke-width:1.5;"/>
   </g>
   <g id="line2d_117">
    <path clip-path="url(#p8a653124a1)" d="M 94.588251 88.515277 
" style="fill:none;stroke:#800080;stroke-linecap:square;stroke-width:1.5;"/>
   </g>
   <g id="line2d_118">
    <path clip-path="url(#p8a653124a1)" d="M 94.286227 88.515277 
L 93.65602 88.730443 
" style="fill:none;stroke:#800080;stroke-linecap:square;stroke-width:1.5;"/>
   </g>
   <g id="line2d_119">
    <path clip-path="url(#p8a653124a1)" d="M 93.078127 88.730443 
L 92.49634 88.946333 
" style="fill:none;stroke:#800080;stroke-linecap:square;stroke-width:1.5;"/>
   </g>
   <g id="line2d_120">
    <path clip-path="url(#p8a653124a1)" d="M 92.172053 88.946333 
" style="fill:none;stroke:#800080;stroke-linecap:square;stroke-width:1.5;"/>
   </g>
   <g id="line2d_121">
    <path clip-path="url(#p8a653124a1)" d="M 91.870029 88.946333 
" style="fill:none;stroke:#800080;stroke-linecap:square;stroke-width:1.5;"/>
   </g>
   <g id="line2d_122">
    <path clip-path="url(#p8a653124a1)" d="M 91.568004 88.946333 
" style="fill:none;stroke:#800080;stroke-linecap:square;stroke-width:1.5;"/>
   </g>
   <g id="line2d_123">
    <path clip-path="url(#p8a653124a1)" d="M 91.26598 88.946333 
" style="fill:none;stroke:#800080;stroke-linecap:square;stroke-width:1.5;"/>
   </g>
   <g id="line2d_124">
    <path clip-path="url(#p8a653124a1)" d="M 90.963956 88.946333 
L 90.465966 89.163335 
" style="fill:none;stroke:#800080;stroke-linecap:square;stroke-width:1.5;"/>
   </g>
   <g id="line2d_125">
    <path clip-path="url(#p8a653124a1)" d="M 90.359907 89.163335 
L 89.879768 89.380547 
L 89.412585 89.597916 
" style="fill:none;stroke:#800080;stroke-linecap:square;stroke-width:1.5;"/>
   </g>
   <g id="line2d_126">
    <path clip-path="url(#p8a653124a1)" d="M 89.151807 89.597916 
" style="fill:none;stroke:#800080;stroke-linecap:square;stroke-width:1.5;"/>
   </g>
   <g id="line2d_127">
    <path clip-path="url(#p8a653124a1)" d="M 88.849782 89.597916 
" style="fill:none;stroke:#800080;stroke-linecap:square;stroke-width:1.5;"/>
   </g>
   <g id="line2d_128">
    <path clip-path="url(#p8a653124a1)" d="M 88.547758 89.597916 
L 88.124921 89.815757 
L 87.712523 90.033714 
" style="fill:none;stroke:#800080;stroke-linecap:square;stroke-width:1.5;"/>
   </g>
   <g id="line2d_129">
    <path clip-path="url(#p8a653124a1)" d="M 87.641684 90.033714 
L 87.241832 90.251796 
L 86.851629 90.469962 
L 86.470759 90.688223 
" style="fill:none;stroke:#800080;stroke-linecap:square;stroke-width:1.5;"/>
   </g>
   <g id="line2d_130">
    <path clip-path="url(#p8a653124a1)" d="M 86.131561 90.688223 
" style="fill:none;stroke:#800080;stroke-linecap:square;stroke-width:1.5;"/>
   </g>
   <g id="line2d_131">
    <path clip-path="url(#p8a653124a1)" d="M 85.829537 90.688223 
" style="fill:none;stroke:#800080;stroke-linecap:square;stroke-width:1.5;"/>
   </g>
   <g id="line2d_132">
    <path clip-path="url(#p8a653124a1)" d="M 85.527512 90.688223 
" style="fill:none;stroke:#800080;stroke-linecap:square;stroke-width:1.5;"/>
   </g>
   <g id="line2d_133">
    <path clip-path="url(#p8a653124a1)" d="M 85.225487 90.688223 
" style="fill:none;stroke:#800080;stroke-linecap:square;stroke-width:1.5;"/>
   </g>
   <g id="line2d_134">
    <path clip-path="url(#p8a653124a1)" d="M 84.923462 90.688223 
L 84.599738 90.906967 
" style="fill:none;stroke:#800080;stroke-linecap:square;stroke-width:1.5;"/>
   </g>
   <g id="line2d_135">
    <path clip-path="url(#p8a653124a1)" d="M 84.319413 90.906967 
L 84.010384 91.125826 
L 83.707564 91.344737 
L 83.410788 91.56369 
L 83.119896 91.782685 
L 82.834729 92.001712 
" style="fill:none;stroke:#800080;stroke-linecap:square;stroke-width:1.5;"/>
   </g>
   <g id="line2d_136">
    <path clip-path="url(#p8a653124a1)" d="M 82.80929 92.001712 
L 82.530381 92.220791 
" style="fill:none;stroke:#800080;stroke-linecap:square;stroke-width:1.5;"/>
   </g>
   <g id="line2d_137">
    <path clip-path="url(#p8a653124a1)" d="M 82.507265 92.220791 
L 82.234371 92.439912 
L 81.966712 92.659065 
" style="fill:none;stroke:#800080;stroke-linecap:square;stroke-width:1.5;"/>
   </g>
   <g id="line2d_138">
    <path clip-path="url(#p8a653124a1)" d="M 81.903217 92.659065 
L 81.642301 92.878249 
L 81.386294 93.097475 
L 81.135064 93.316733 
L 80.888491 93.536011 
" style="fill:none;stroke:#800080;stroke-linecap:square;stroke-width:1.5;"/>
   </g>
   <g id="line2d_139">
    <path clip-path="url(#p8a653124a1)" d="M 80.695118 93.536011 
L 80.457852 93.755353 
L 80.224844 93.974715 
L 79.995988 94.194098 
L 79.77118 94.413503 
L 79.550321 94.632928 
L 79.333313 94.852385 
" style="fill:none;stroke:#800080;stroke-linecap:square;stroke-width:1.5;"/>
   </g>
   <g id="line2d_140">
    <path clip-path="url(#p8a653124a1)" d="M 79.184994 94.852385 
L 78.975161 95.071863 
" style="fill:none;stroke:#800080;stroke-linecap:square;stroke-width:1.5;"/>
   </g>
   <g id="line2d_141">
    <path clip-path="url(#p8a653124a1)" d="M 78.88297 95.071863 
L 78.678776 95.291383 
L 78.477991 95.510913 
L 78.280535 95.730454 
L 78.086331 95.950026 
" style="fill:none;stroke:#800080;stroke-linecap:square;stroke-width:1.5;"/>
   </g>
   <g id="line2d_142">
    <path clip-path="url(#p8a653124a1)" d="M 77.976896 95.950026 
L 77.788238 96.169609 
" style="fill:none;stroke:#800080;stroke-linecap:square;stroke-width:1.5;"/>
   </g>
   <g id="line2d_143">
    <path clip-path="url(#p8a653124a1)" d="M 77.674871 96.169609 
" style="fill:none;stroke:#800080;stroke-linecap:square;stroke-width:1.5;"/>
   </g>
   <g id="line2d_144">
    <path clip-path="url(#p8a653124a1)" d="M 77.372847 96.169609 
L 77.070822 97.084743 
L 76.768798 97.689042 
L 76.466773 99.448221 
" style="fill:none;stroke:#800080;stroke-linecap:square;stroke-width:1.5;"/>
   </g>
   <g id="line2d_145">
    <path clip-path="url(#p8a653124a1)" d="M 76.466773 121.450055 
L 76.082308 121.668285 
L 75.728818 121.886787 
L 75.400761 122.105499 
L 75.094088 122.324379 
L 74.805731 122.543384 
L 74.533298 122.762505 
" style="fill:none;stroke:#800080;stroke-linecap:square;stroke-width:1.5;"/>
   </g>
   <g id="line2d_146">
    <path clip-path="url(#p8a653124a1)" d="M 74.3526 122.762505 
L 74.104546 122.981784 
" style="fill:none;stroke:#800080;stroke-linecap:square;stroke-width:1.5;"/>
   </g>
   <g id="line2d_147">
    <path clip-path="url(#p8a653124a1)" d="M 74.050576 122.981784 
L 73.816687 123.201136 
L 73.59275 123.420551 
L 73.377874 123.640008 
L 73.171295 123.859506 
" style="fill:none;stroke:#800080;stroke-linecap:square;stroke-width:1.5;"/>
   </g>
   <g id="line2d_148">
    <path clip-path="url(#p8a653124a1)" d="M 73.144502 123.859506 
L 72.946721 124.079058 
" style="fill:none;stroke:#800080;stroke-linecap:square;stroke-width:1.5;"/>
   </g>
   <g id="line2d_149">
    <path clip-path="url(#p8a653124a1)" d="M 72.842477 124.079058 
L 72.655954 124.298651 
L 72.475576 124.518276 
L 72.300936 124.737932 
L 72.131669 124.957598 
L 71.967447 125.177286 
L 71.807976 125.397005 
L 71.652985 125.616735 
L 71.502231 125.836475 
L 71.35549 126.056236 
" style="fill:none;stroke:#800080;stroke-linecap:square;stroke-width:1.5;"/>
   </g>
   <g id="line2d_150">
    <path clip-path="url(#p8a653124a1)" d="M 71.332354 126.056236 
L 71.19015 126.276008 
L 71.051527 126.49579 
" style="fill:none;stroke:#800080;stroke-linecap:square;stroke-width:1.5;"/>
   </g>
   <g id="line2d_151">
    <path clip-path="url(#p8a653124a1)" d="M 71.03033 126.49579 
L 70.895753 126.715593 
L 70.764398 126.935396 
L 70.636121 127.15522 
L 70.510788 127.375044 
L 70.388274 127.594889 
L 70.268463 127.814734 
L 70.151246 128.034579 
L 70.036522 128.254445 
L 69.924195 128.474311 
L 69.814175 128.694177 
L 69.706377 128.914054 
L 69.600721 129.133941 
L 69.497133 129.353828 
L 69.395541 129.573725 
L 69.295878 129.793622 
" style="fill:none;stroke:#800080;stroke-linecap:square;stroke-width:1.5;"/>
   </g>
   <g id="line2d_152">
    <path clip-path="url(#p8a653124a1)" d="M 220.079484 198.112696 
L 220.129605 198.002747 
L 220.180015 197.892798 
L 220.230694 197.782855 
L 220.281643 197.672906 
L 220.332861 197.562962 
L 220.384386 197.453014 
L 220.436162 197.34307 
L 220.488244 197.233127 
L 220.540613 197.123183 
L 220.593253 197.01324 
L 220.646198 196.903301 
L 220.699413 196.793358 
L 220.752933 196.68342 
L 220.806742 196.573481 
L 220.860856 196.463543 
L 220.915257 196.353605 
L 220.969965 196.243667 
L 221.024978 196.133734 
L 221.080279 196.023795 
L 221.135904 195.913862 
L 221.191816 195.803929 
L 221.248053 195.693996 
L 221.304577 195.584063 
L 221.361442 195.474136 
L 221.418596 195.364203 
L 221.476091 195.254275 
L 221.533873 195.144347 
L 221.591998 195.034419 
L 221.650446 194.924492 
L 221.7092 194.814564 
L 221.768296 194.704641 
L 221.827697 194.594719 
L 221.887458 194.484796 
L 221.947525 194.374874 
L 222.007933 194.264951 
L 222.068684 194.155034 
L 222.129758 194.045112 
L 222.191191 193.935194 
L 222.252948 193.825277 
L 222.315047 193.71536 
L 222.377506 193.605448 
L 222.440306 193.495531 
L 222.503448 193.385618 
L 222.56695 193.275706 
L 222.630794 193.1658 
L 222.694997 193.055888 
L 222.75956 192.945981 
L 222.8245 192.836074 
L 222.889782 192.726167 
L 222.955424 192.616261 
L 223.021444 192.506359 
L 223.087823 192.396458 
" style="fill:none;stroke:#800080;stroke-linecap:square;stroke-width:1.5;"/>
   </g>
   <g id="line2d_153">
    <path clip-path="url(#p8a653124a1)" d="M 223.087823 192.396458 
L 224.242184 192.467284 
L 225.552629 192.521781 
" style="fill:none;stroke:#800080;stroke-linecap:square;stroke-width:1.5;"/>
   </g>
   <g id="line2d_154">
    <path clip-path="url(#p8a653124a1)" d="M 225.552629 192.521781 
L 225.695297 192.412268 
L 225.838972 192.30276 
L 225.983654 192.193257 
L 226.129378 192.083759 
L 226.27611 191.974272 
L 226.42385 191.864796 
L 226.572632 191.755319 
L 226.722421 191.645853 
L 226.873235 191.536397 
L 227.025057 191.426947 
L 227.177904 191.317502 
L 227.331757 191.208067 
L 227.486636 191.098637 
L 227.642504 190.989219 
L 227.799379 190.879805 
L 227.957261 190.770402 
L 228.116132 190.661004 
L 228.275993 190.551616 
L 228.436842 190.442234 
" style="fill:none;stroke:#800080;stroke-linecap:square;stroke-width:1.5;"/>
   </g>
   <g id="line2d_155">
    <path clip-path="url(#p8a653124a1)" d="M 228.436842 190.442234 
L 228.696119 190.333859 
L 228.95651 190.2255 
L 229.217944 190.117156 
L 229.48035 190.008823 
L 229.743673 189.900506 
L 230.007859 189.792194 
L 230.272836 189.683897 
L 230.538533 189.575606 
L 230.804895 189.467326 
L 231.07185 189.35905 
L 231.339345 189.250785 
" style="fill:none;stroke:#800080;stroke-linecap:square;stroke-width:1.5;"/>
   </g>
   <g id="line2d_156">
    <path clip-path="url(#p8a653124a1)" d="M 231.339345 189.250785 
L 231.738124 189.144692 
L 232.133809 189.038531 
L 232.526294 188.932312 
L 232.915505 188.826024 
L 233.301407 188.719679 
L 233.683928 188.613261 
L 234.06305 188.506785 
" style="fill:none;stroke:#800080;stroke-linecap:square;stroke-width:1.5;"/>
   </g>
   <g id="line2d_157">
    <path clip-path="url(#p8a653124a1)" d="M 234.06305 188.506785 
L 234.404604 188.399632 
L 234.744089 188.292442 
L 235.081452 188.185221 
L 235.416603 188.077958 
L 235.749542 187.970664 
L 236.080215 187.863328 
L 236.408586 187.75596 
L 236.73462 187.64855 
L 237.058333 187.541103 
" style="fill:none;stroke:#800080;stroke-linecap:square;stroke-width:1.5;"/>
   </g>
   <g id="line2d_158">
    <path clip-path="url(#p8a653124a1)" d="M 237.058333 187.541103 
L 237.382694 187.433667 
L 237.704554 187.326189 
L 238.023916 187.218674 
L 238.340777 187.111118 
L 238.65512 187.003524 
L 238.966982 186.895889 
L 239.276326 186.788217 
L 239.583188 186.680508 
L 239.887569 186.572762 
" style="fill:none;stroke:#800080;stroke-linecap:square;stroke-width:1.5;"/>
   </g>
   <g id="line2d_159">
    <path clip-path="url(#p8a653124a1)" d="M 239.887569 186.572762 
L 240.138608 186.464288 
L 240.388695 186.355802 
L 240.637828 186.247301 
L 240.88599 186.13879 
L 241.133145 186.030268 
L 241.379293 185.921736 
L 241.624398 185.813188 
L 241.868478 185.704629 
L 242.111497 185.596054 
L 242.353454 185.48747 
L 242.594333 185.378869 
L 242.834114 185.270258 
" style="fill:none;stroke:#800080;stroke-linecap:square;stroke-width:1.5;"/>
   </g>
   <g id="line2d_160">
    <path clip-path="url(#p8a653124a1)" d="M 242.834114 185.270258 
L 243.057692 185.161468 
L 243.280515 185.052663 
L 243.502546 184.943853 
L 243.723786 184.835032 
L 243.944235 184.726206 
L 244.163856 184.617369 
L 244.382651 184.508522 
L 244.600617 184.399664 
L 244.817739 184.290801 
L 245.034034 184.181928 
L 245.249465 184.073049 
L 245.464033 183.964155 
L 245.677755 183.855255 
" style="fill:none;stroke:#800080;stroke-linecap:square;stroke-width:1.5;"/>
   </g>
   <g id="line2d_161">
    <path clip-path="url(#p8a653124a1)" d="M 245.677755 183.855255 
L 245.869232 183.746135 
L 246.06024 183.637016 
L 246.250764 183.527885 
L 246.440783 183.418755 
L 246.630299 183.309614 
L 246.819294 183.200473 
L 247.007767 183.091327 
L 247.195719 182.982175 
L 247.383149 182.873013 
L 247.570039 182.763852 
L 247.75639 182.65469 
L 247.942183 182.545517 
L 248.127419 182.43634 
L 248.312116 182.327157 
L 248.496237 182.217969 
L 248.6798 182.108781 
" style="fill:none;stroke:#800080;stroke-linecap:square;stroke-width:1.5;"/>
   </g>
   <g id="line2d_162">
    <path clip-path="url(#p8a653124a1)" d="M 248.6798 182.108781 
L 248.852411 181.999493 
L 249.024608 181.8902 
L 249.196392 181.780907 
L 249.367762 181.671614 
L 249.538701 181.56231 
L 249.70919 181.453007 
L 249.879265 181.343698 
L 250.048891 181.234389 
L 250.218067 181.12507 
L 250.386812 181.01575 
L 250.555107 180.906431 
L 250.722952 180.797101 
L 250.89033 180.687772 
L 251.057276 180.578442 
L 251.223736 180.469102 
L 251.389747 180.359761 
L 251.555309 180.250416 
" style="fill:none;stroke:#800080;stroke-linecap:square;stroke-width:1.5;"/>
   </g>
   <g id="line2d_163">
    <path clip-path="url(#p8a653124a1)" d="M 251.555309 180.250416 
L 251.720834 180.14107 
L 251.885892 180.031725 
L 252.050482 179.922369 
L 252.214605 179.813013 
L 252.378224 179.703652 
L 252.541393 179.594291 
L 252.704059 179.484924 
L 252.866257 179.375552 
L 253.02797 179.266175 
L 253.189197 179.156798 
L 253.349957 179.047416 
L 253.510231 178.938029 
L 253.670019 178.828636 
L 253.829322 178.719243 
L 253.988139 178.609845 
L 254.146471 178.500442 
L 254.304335 178.391039 
L 254.461714 178.281631 
" style="fill:none;stroke:#800080;stroke-linecap:square;stroke-width:1.5;"/>
   </g>
   <g id="line2d_164">
    <path clip-path="url(#p8a653124a1)" d="M 254.461714 178.281631 
L 254.61046 178.172154 
L 254.758829 178.062683 
L 254.906838 177.953201 
L 255.054469 177.843719 
L 255.201722 177.734237 
L 255.348598 177.62475 
L 255.495114 177.515263 
L 255.641235 177.40577 
L 255.786996 177.296273 
L 255.932361 177.186775 
L 256.077367 177.077278 
L 256.221995 176.967775 
L 256.366227 176.858272 
L 256.510099 176.748764 
L 256.653594 176.63925 
L 256.796693 176.529737 
L 256.939433 176.420224 
L 257.081795 176.310705 
L 257.223761 176.201181 
L 257.365368 176.091663 
" style="fill:none;stroke:#800080;stroke-linecap:square;stroke-width:1.5;"/>
   </g>
   <g id="line2d_165">
    <path clip-path="url(#p8a653124a1)" d="M 257.365368 176.091663 
L 257.502784 175.982107 
L 257.639859 175.872552 
L 257.776591 175.762997 
L 257.913019 175.653441 
L 258.049104 175.543881 
L 258.184848 175.434315 
L 258.320268 175.324749 
L 258.455364 175.215183 
L 258.590119 175.105612 
L 258.72455 174.996041 
L 258.858657 174.88647 
L 258.992422 174.776894 
L 259.125864 174.667318 
L 259.258982 174.557736 
L 259.391759 174.448154 
L 259.524211 174.338568 
L 259.65634 174.228981 
L 259.788127 174.119394 
L 259.919591 174.009802 
L 260.050749 173.90021 
L 260.181565 173.790613 
L 260.312039 173.681021 
" style="fill:none;stroke:#800080;stroke-linecap:square;stroke-width:1.5;"/>
   </g>
   <g id="line2d_166">
    <path clip-path="url(#p8a653124a1)" d="M 260.312039 173.681021 
L 260.453538 173.571492 
L 260.594551 173.461968 
L 260.735115 173.352433 
L 260.87521 173.242904 
L 261.014857 173.133365 
L 261.154053 173.023825 
L 261.292801 172.91428 
L 261.431098 172.804736 
L 261.568946 172.695185 
L 261.706344 172.585635 
L 261.843311 172.47608 
L 261.979828 172.366525 
L 262.115931 172.256964 
L 262.251585 172.147398 
L 262.386807 172.037833 
L 262.521616 171.928262 
L 262.655993 171.818691 
L 262.789938 171.709114 
L 262.92347 171.599538 
L 263.056588 171.489962 
L 263.189275 171.380375 
L 263.321565 171.270793 
" style="fill:none;stroke:#800080;stroke-linecap:square;stroke-width:1.5;"/>
   </g>
   <g id="line2d_167">
    <path clip-path="url(#p8a653124a1)" d="M 263.321565 171.270793 
L 263.467848 171.161301 
L 263.613519 171.051803 
L 263.758596 170.942306 
L 263.903062 170.832803 
L 264.046953 170.723295 
L 264.19025 170.613781 
L 264.332989 170.504268 
L 264.475135 170.394749 
L 264.616706 170.285226 
L 264.757737 170.175696 
L 264.898193 170.066167 
L 265.038109 169.956628 
L 265.177485 169.847093 
L 265.316304 169.737549 
L 265.454602 169.628004 
L 265.59236 169.518454 
L 265.729596 169.408898 
L 265.866329 169.299343 
L 266.002522 169.189783 
L 266.138212 169.080222 
L 266.273398 168.970656 
" style="fill:none;stroke:#800080;stroke-linecap:square;stroke-width:1.5;"/>
   </g>
   <g id="line2d_168">
    <path clip-path="url(#p8a653124a1)" d="M 266.273398 168.970656 
L 266.458239 168.861473 
L 266.641622 168.75228 
L 266.823549 168.643076 
L 267.004073 168.533856 
L 267.183212 168.424626 
L 267.361021 168.315381 
L 267.537481 168.20613 
L 267.712681 168.096863 
L 267.886605 167.987585 
L 268.059288 167.878303 
L 268.230766 167.769005 
L 268.401058 167.659701 
L 268.57018 167.550382 
L 268.738169 167.441057 
L 268.905043 167.331722 
L 269.07082 167.222382 
L 269.235518 167.113031 
" style="fill:none;stroke:#800080;stroke-linecap:square;stroke-width:1.5;"/>
   </g>
   <g id="line2d_169">
    <path clip-path="url(#p8a653124a1)" d="M 269.235518 167.113031 
L 269.467747 167.004331 
L 269.696846 166.895599 
L 269.922941 166.786831 
L 270.146178 166.678036 
L 270.366662 166.569205 
L 270.584467 166.460347 
L 270.799701 166.351463 
L 271.01247 166.242558 
L 271.22283 166.133622 
L 271.430888 166.024665 
L 271.636715 165.915681 
L 271.840367 165.806682 
L 272.041914 165.697656 
L 272.241448 165.588615 
" style="fill:none;stroke:#800080;stroke-linecap:square;stroke-width:1.5;"/>
   </g>
   <g id="line2d_170">
    <path clip-path="url(#p8a653124a1)" d="M 272.241448 165.588615 
L 272.533221 165.480681 
L 272.818862 165.372662 
L 273.09873 165.264565 
L 273.373185 165.15639 
L 273.64255 165.048151 
L 273.907078 164.939844 
L 274.167038 164.83148 
L 274.422645 164.723063 
L 274.674153 164.614593 
L 274.921721 164.506076 
L 275.165549 164.397512 
" style="fill:none;stroke:#800080;stroke-linecap:square;stroke-width:1.5;"/>
   </g>
   <g id="line2d_171">
    <path clip-path="url(#p8a653124a1)" d="M 275.165549 164.397512 
L 275.534528 164.290842 
L 275.891764 164.183962 
L 276.238299 164.076893 
L 276.575069 163.969662 
L 276.902864 163.862284 
L 277.222387 163.754769 
L 277.534231 163.647133 
L 277.838953 163.539393 
L 278.137021 163.431553 
" style="fill:none;stroke:#800080;stroke-linecap:square;stroke-width:1.5;"/>
   </g>
   <g id="line2d_172">
    <path clip-path="url(#p8a653124a1)" d="M 278.137021 163.431553 
L 278.631313 163.327616 
L 279.100266 163.22306 
L 279.547439 163.117989 
L 279.975622 163.012505 
L 280.38708 162.906668 
L 280.783646 162.800528 
" style="fill:none;stroke:#800080;stroke-linecap:square;stroke-width:1.5;"/>
   </g>
   <g id="line2d_173">
    <path clip-path="url(#p8a653124a1)" d="M 280.783646 162.800528 
L 281.414761 162.700609 
L 281.999837 162.599211 
L 282.547578 162.496705 
L 283.064314 162.39335 
L 283.55474 162.289319 
" style="fill:none;stroke:#800080;stroke-linecap:square;stroke-width:1.5;"/>
   </g>
   <g id="line2d_174">
    <path clip-path="url(#p8a653124a1)" d="M 283.55474 162.289319 
L 284.415565 162.198973 
L 285.183359 162.104279 
L 285.88177 162.006767 
L 286.526247 161.907305 
" style="fill:none;stroke:#800080;stroke-linecap:square;stroke-width:1.5;"/>
   </g>
   <g id="line2d_175">
    <path clip-path="url(#p8a653124a1)" d="M 286.526247 161.907305 
L 287.970674 161.875558 
L 289.232832 161.815296 
" style="fill:none;stroke:#800080;stroke-linecap:square;stroke-width:1.5;"/>
   </g>
   <g id="line2d_176">
    <path clip-path="url(#p8a653124a1)" d="M 289.232832 161.815296 
L 290.620069 161.858531 
L 292.113304 161.874199 
" style="fill:none;stroke:#800080;stroke-linecap:square;stroke-width:1.5;"/>
   </g>
   <g id="line2d_177">
    <path clip-path="url(#p8a653124a1)" d="M 292.113304 161.874199 
L 293.591271 161.852136 
L 294.943511 161.803362 
" style="fill:none;stroke:#800080;stroke-linecap:square;stroke-width:1.5;"/>
   </g>
   <g id="line2d_178">
    <path clip-path="url(#p8a653124a1)" d="M 294.943511 161.803362 
L 296.183674 161.740724 
L 297.289928 161.665926 
" style="fill:none;stroke:#800080;stroke-linecap:square;stroke-width:1.5;"/>
   </g>
   <g id="line2d_179">
    <path clip-path="url(#p8a653124a1)" d="M 297.289928 161.665926 
L 298.351384 161.587756 
L 299.31515 161.503122 
L 300.20038 161.414041 
" style="fill:none;stroke:#800080;stroke-linecap:square;stroke-width:1.5;"/>
   </g>
   <g id="line2d_180">
    <path clip-path="url(#p8a653124a1)" d="M 300.20038 161.414041 
L 300.334883 161.30447 
L 300.468792 161.194893 
L 300.602144 161.085317 
L 300.734902 160.975736 
L 300.867103 160.866149 
L 300.998729 160.756562 
L 301.129815 160.646965 
L 301.260343 160.537368 
L 301.390314 160.42777 
L 301.519763 160.318168 
L 301.648655 160.20856 
L 301.777043 160.098947 
L 301.904892 159.989334 
L 302.032219 159.879721 
L 302.159043 159.770097 
L 302.285345 159.660474 
L 302.411161 159.55085 
L 302.536474 159.441222 
L 302.661284 159.331588 
L 302.785608 159.221954 
L 302.909446 159.112314 
L 303.032799 159.002675 
L 303.155684 158.893031 
" style="fill:none;stroke:#800080;stroke-linecap:square;stroke-width:1.5;"/>
   </g>
   <g id="line2d_181">
    <path clip-path="url(#p8a653124a1)" d="M 303.155684 158.893031 
L 303.302236 158.783543 
L 303.448069 158.674051 
L 303.593146 158.564548 
L 303.737504 158.455045 
L 303.881125 158.345537 
L 304.024045 158.236024 
L 304.166263 158.1265 
L 304.307779 158.016976 
L 304.448613 157.907447 
L 304.58878 157.797918 
L 304.728265 157.688378 
L 304.867084 157.578834 
L 305.005237 157.469289 
L 305.142762 157.359739 
L 305.279638 157.250183 
L 305.415868 157.140623 
L 305.551486 157.031057 
L 305.686474 156.921491 
L 305.820869 156.81192 
L 305.954634 156.702344 
L 306.087806 156.592762 
" style="fill:none;stroke:#800080;stroke-linecap:square;stroke-width:1.5;"/>
   </g>
   <g id="line2d_182">
    <path clip-path="url(#p8a653124a1)" d="M 306.087806 156.592762 
L 306.168555 156.482913 
L 306.24916 156.373059 
L 306.32962 156.26321 
L 306.409919 156.153356 
L 306.490056 156.043501 
L 306.570049 155.933647 
L 306.649881 155.823793 
L 306.729568 155.713933 
L 306.809093 155.604079 
L 306.888493 155.494224 
L 306.967713 155.384365 
L 307.046807 155.274505 
L 307.125739 155.164651 
L 307.204527 155.054791 
L 307.283154 154.944932 
L 307.361654 154.835072 
L 307.439993 154.725207 
L 307.518187 154.615348 
L 307.596238 154.505488 
L 307.674127 154.395624 
L 307.75189 154.285759 
L 307.82951 154.175899 
L 307.906967 154.066034 
L 307.984298 153.95617 
L 308.061486 153.846305 
L 308.13853 153.73644 
L 308.215412 153.626575 
L 308.292168 153.5167 
L 308.368798 153.406835 
L 308.445266 153.29697 
L 308.52159 153.187105 
L 308.597789 153.07723 
L 308.673844 152.967365 
L 308.749754 152.85749 
L 308.825539 152.747625 
L 308.901162 152.63775 
L 308.976677 152.527885 
L 309.052031 152.41801 
" style="fill:none;stroke:#800080;stroke-linecap:square;stroke-width:1.5;"/>
   </g>
   <g id="line2d_183">
    <path clip-path="url(#p8a653124a1)" d="M 309.052031 152.41801 
L 309.14026 152.308187 
L 309.228292 152.198364 
L 309.316091 152.088541 
L 309.403691 151.978718 
L 309.491076 151.868896 
L 309.578262 151.759073 
L 309.665233 151.64925 
L 309.752006 151.539417 
L 309.838564 151.429594 
L 309.924923 151.31976 
L 310.011067 151.209927 
L 310.097031 151.100104 
L 310.182779 150.990271 
L 310.268329 150.880437 
L 310.353681 150.770604 
L 310.438836 150.660771 
L 310.523775 150.550937 
L 310.608534 150.441104 
L 310.693095 150.33126 
L 310.777476 150.221427 
L 310.861641 150.111594 
L 310.945627 150.00175 
L 311.029415 149.891916 
L 311.113005 149.782073 
L 311.196415 149.672229 
L 311.279627 149.562385 
L 311.362642 149.452541 
L 311.445494 149.342708 
L 311.528131 149.232864 
L 311.610606 149.12301 
L 311.692883 149.013166 
L 311.77498 148.903322 
L 311.85688 148.793478 
L 311.938617 148.683624 
L 312.020157 148.57378 
" style="fill:none;stroke:#800080;stroke-linecap:square;stroke-width:1.5;"/>
   </g>
   <g id="line2d_184">
    <path clip-path="url(#p8a653124a1)" d="M 312.020157 148.57378 
L 312.115419 148.463989 
L 312.210411 148.354197 
L 312.305133 148.244406 
L 312.399567 148.134615 
L 312.49375 148.024823 
L 312.587662 147.915021 
L 312.681306 147.80523 
L 312.774697 147.695428 
L 312.8678 147.585626 
L 312.96067 147.475824 
L 313.05327 147.366023 
L 313.1456 147.256221 
L 313.237697 147.146419 
L 313.329523 147.036617 
L 313.421098 146.926805 
L 313.512421 146.817003 
L 313.603493 146.70719 
L 313.694312 146.597378 
L 313.78488 146.487576 
L 313.875214 146.377764 
L 313.965296 146.267951 
L 314.055127 146.158129 
L 314.144723 146.048316 
L 314.234068 145.938504 
L 314.323179 145.828681 
L 314.412056 145.718869 
L 314.5007 145.609046 
L 314.589091 145.499223 
L 314.677249 145.389411 
L 314.765191 145.279588 
L 314.852882 145.169765 
L 314.940356 145.059942 
L 315.027579 144.950109 
" style="fill:none;stroke:#800080;stroke-linecap:square;stroke-width:1.5;"/>
   </g>
   <g id="line2d_185">
    <path clip-path="url(#p8a653124a1)" d="M 315.027579 144.950109 
L 315.129549 144.840359 
L 315.231159 144.730599 
L 315.332445 144.620829 
L 315.433408 144.511069 
L 315.53401 144.401309 
L 315.634308 144.291539 
L 315.734263 144.181779 
L 315.833895 144.072009 
L 315.933203 143.962238 
L 316.032187 143.852457 
L 316.130866 143.742687 
L 316.229203 143.632917 
L 316.327252 143.523136 
L 316.424959 143.413355 
L 316.522379 143.303584 
L 316.619475 143.193793 
L 316.716265 143.084012 
L 316.81275 142.974231 
L 316.908946 142.86445 
L 317.004819 142.754659 
L 317.100405 142.644868 
L 317.195684 142.535087 
L 317.290676 142.425295 
L 317.385362 142.315504 
L 317.479779 142.205702 
L 317.573889 142.095911 
L 317.667712 141.986109 
L 317.761247 141.876318 
L 317.854495 141.766516 
L 317.947454 141.656714 
L 318.040144 141.546912 
" style="fill:none;stroke:#800080;stroke-linecap:square;stroke-width:1.5;"/>
   </g>
   <g id="line2d_186">
    <path clip-path="url(#p8a653124a1)" d="M 318.040144 141.546912 
L 318.148372 141.437194 
L 318.256205 141.327466 
L 318.363606 141.217737 
L 318.470629 141.107998 
L 318.577239 140.99827 
L 318.68347 140.888531 
L 318.789289 140.778792 
L 318.894729 140.669053 
L 318.999774 140.559314 
L 319.104442 140.449565 
L 319.208713 140.339815 
L 319.312625 140.230077 
L 319.416141 140.120327 
L 319.519298 140.010567 
L 319.622077 139.900818 
L 319.724478 139.791058 
L 319.826538 139.681308 
L 319.928202 139.571549 
L 320.029524 139.461789 
L 320.130487 139.352018 
L 320.231107 139.242258 
L 320.331351 139.132488 
L 320.431252 139.022728 
L 320.530812 138.912958 
L 320.630012 138.803187 
L 320.728871 138.693406 
L 320.827405 138.583636 
L 320.92558 138.473866 
L 321.023432 138.364085 
" style="fill:none;stroke:#800080;stroke-linecap:square;stroke-width:1.5;"/>
   </g>
   <g id="line2d_187">
    <path clip-path="url(#p8a653124a1)" d="M 321.023432 138.364085 
L 321.137433 138.254388 
L 321.250966 138.144691 
L 321.364032 138.034994 
L 321.476612 137.925287 
L 321.588725 137.815579 
L 321.70037 137.705872 
L 321.811547 137.596164 
L 321.922293 137.486457 
L 322.032554 137.376739 
L 322.142382 137.267021 
L 322.251761 137.157303 
L 322.360709 137.047585 
L 322.469207 136.937857 
L 322.577273 136.828128 
L 322.684908 136.7184 
L 322.792111 136.608671 
L 322.898882 136.498932 
L 323.00524 136.389204 
L 323.111166 136.279465 
L 323.216697 136.169726 
L 323.321796 136.059977 
L 323.426499 135.950238 
L 323.530788 135.840488 
L 323.634682 135.730739 
L 323.738163 135.62099 
L 323.841247 135.51124 
L 323.943954 135.401491 
" style="fill:none;stroke:#800080;stroke-linecap:square;stroke-width:1.5;"/>
   </g>
   <g id="line2d_188">
    <path clip-path="url(#p8a653124a1)" d="M 323.943954 135.401491 
L 324.063207 135.291825 
L 324.18192 135.18216 
L 324.300093 135.072484 
L 324.417709 134.962808 
L 324.534803 134.853132 
L 324.651358 134.743456 
L 324.767373 134.63377 
L 324.882867 134.524083 
L 324.997857 134.414397 
L 325.112307 134.3047 
L 325.226272 134.195003 
L 325.339716 134.085306 
L 325.452656 133.975609 
L 325.565092 133.865901 
L 325.677043 133.756194 
L 325.788508 133.646487 
L 325.899488 133.536779 
L 326.009982 133.427061 
L 326.120009 133.317354 
L 326.22955 133.207625 
L 326.338623 133.097907 
L 326.447229 132.988189 
L 326.555385 132.878461 
L 326.663074 132.768733 
L 326.770313 132.659004 
L 326.877102 132.549265 
" style="fill:none;stroke:#800080;stroke-linecap:square;stroke-width:1.5;"/>
   </g>
   <g id="line2d_189">
    <path clip-path="url(#p8a653124a1)" d="M 326.877102 132.549265 
L 327.000904 132.439631 
L 327.124095 132.329987 
L 327.246657 132.220342 
L 327.368607 132.110687 
L 327.489963 132.001043 
L 327.61069 131.891388 
L 327.730842 131.781722 
L 327.8504 131.672057 
L 327.969382 131.562391 
L 328.087772 131.452726 
L 328.205585 131.34305 
L 328.322841 131.233374 
L 328.43954 131.123698 
L 328.555663 131.014012 
L 328.671229 130.904325 
L 328.786273 130.794639 
L 328.900741 130.684942 
L 329.014688 130.575255 
L 329.128114 130.465548 
L 329.240982 130.355851 
L 329.353346 130.246143 
L 329.465189 130.136446 
L 329.576511 130.026729 
L 329.687311 129.917021 
L 329.797625 129.807303 
" style="fill:none;stroke:#800080;stroke-linecap:square;stroke-width:1.5;"/>
   </g>
   <g id="line2d_190">
    <path clip-path="url(#p8a653124a1)" d="M 329.797625 129.807303 
L 329.926013 129.69769 
L 330.053682 129.588077 
L 330.180668 129.478464 
L 330.30697 129.368841 
L 330.43257 129.259207 
L 330.557506 129.149583 
L 330.681776 129.039949 
L 330.80538 128.930305 
L 330.928337 128.82066 
L 331.050647 128.711016 
L 331.172291 128.601361 
L 331.293324 128.491706 
L 331.413709 128.382051 
L 331.533483 128.272385 
L 331.652628 128.16272 
L 331.771161 128.053054 
L 331.8891 127.943378 
L 332.006428 127.833702 
L 332.123163 127.724026 
L 332.239304 127.61434 
L 332.354869 127.504664 
L 332.46986 127.394967 
L 332.584256 127.28528 
L 332.698113 127.175584 
L 332.811377 127.065887 
" style="fill:none;stroke:#800080;stroke-linecap:square;stroke-width:1.5;"/>
   </g>
   <g id="line2d_191">
    <path clip-path="url(#p8a653124a1)" d="M 332.811377 127.065887 
L 332.944315 126.956305 
L 333.076462 126.846713 
L 333.207818 126.737121 
L 333.338418 126.627529 
L 333.468245 126.517926 
L 333.597299 126.408324 
L 333.725615 126.298711 
L 333.853194 126.189098 
L 333.980036 126.079474 
L 334.106158 125.969851 
L 334.231561 125.860227 
L 334.356245 125.750593 
L 334.480766 125.640959 
L 334.606295 125.531325 
L 334.732813 125.421712 
L 334.860374 125.312089 
L 334.988996 125.202486 
L 335.118679 125.092884 
L 335.249477 124.983292 
L 335.381408 124.8737 
L 335.514508 124.764118 
L 335.648796 124.654547 
L 335.784288 124.544986 
" style="fill:none;stroke:#800080;stroke-linecap:square;stroke-width:1.5;"/>
   </g>
   <g id="line2d_192">
    <path clip-path="url(#p8a653124a1)" d="M 335.784288 124.544986 
L 335.948716 124.435625 
L 336.115356 124.326295 
L 336.284299 124.216976 
L 336.455633 124.107678 
L 336.629485 123.998401 
L 336.805926 123.889144 
L 336.98512 123.779919 
L 337.167154 123.670716 
L 337.352193 123.561533 
L 337.540396 123.452381 
L 337.731908 123.343261 
L 337.926927 123.234173 
L 338.125651 123.125126 
L 338.328296 123.016111 
L 338.535095 122.907149 
L 338.746336 122.798218 
" style="fill:none;stroke:#800080;stroke-linecap:square;stroke-width:1.5;"/>
   </g>
   <g id="line2d_193">
    <path clip-path="url(#p8a653124a1)" d="M 338.746336 122.798218 
L 339.008615 122.689885 
L 339.280121 122.581667 
L 339.561949 122.473596 
L 339.855377 122.365693 
L 340.162005 122.257979 
L 340.48383 122.150506 
L 340.82337 122.043317 
L 341.18395 121.936495 
L 341.57005 121.830144 
" style="fill:none;stroke:#800080;stroke-linecap:square;stroke-width:1.5;"/>
   </g>
   <g id="line2d_194">
    <path clip-path="url(#p8a653124a1)" d="M 341.57005 121.830144 
L 342.07632 121.726522 
L 342.658086 121.625019 
L 343.358476 121.527586 
L 344.273289 121.44011 
" style="fill:none;stroke:#800080;stroke-linecap:square;stroke-width:1.5;"/>
   </g>
   <g id="line2d_195">
    <path clip-path="url(#p8a653124a1)" d="M 344.273289 121.44011 
L 345.728147 121.411007 
L 346.757555 121.491423 
" style="fill:none;stroke:#800080;stroke-linecap:square;stroke-width:1.5;"/>
   </g>
   <g id="line2d_196">
    <path clip-path="url(#p8a653124a1)" d="M 346.757555 121.491423 
L 347.43354 121.589768 
L 347.958441 121.692908 
L 348.401155 121.798072 
L 348.790132 121.90436 
L 349.140426 122.01136 
L 349.461136 122.118854 
L 349.758233 122.226715 
" style="fill:none;stroke:#800080;stroke-linecap:square;stroke-width:1.5;"/>
   </g>
   <g id="line2d_197">
    <path clip-path="url(#p8a653124a1)" d="M 349.758233 122.226715 
L 350.070832 122.334335 
L 350.361005 122.44229 
L 350.632654 122.550497 
L 350.888639 122.658914 
L 351.13119 122.767489 
L 351.362034 122.8762 
L 351.582536 122.985036 
L 351.793849 123.093957 
L 351.996907 123.202961 
L 352.192502 123.31205 
L 352.381281 123.421191 
L 352.563855 123.530395 
L 352.740693 123.63964 
" style="fill:none;stroke:#800080;stroke-linecap:square;stroke-width:1.5;"/>
   </g>
   <g id="line2d_198">
    <path clip-path="url(#p8a653124a1)" d="M 352.740693 123.63964 
L 352.938445 123.748697 
L 353.129005 123.857828 
L 353.313035 123.967021 
L 353.49106 124.076257 
L 353.663563 124.185544 
L 353.830959 124.294874 
L 353.993607 124.404246 
L 354.15183 124.513649 
L 354.305918 124.623084 
L 354.456139 124.732539 
L 354.602727 124.842026 
L 354.745862 124.951545 
L 354.885778 125.061074 
L 355.022619 125.170635 
L 355.156546 125.280206 
L 355.287704 125.389798 
L 355.416236 125.499411 
L 355.542269 125.609034 
L 355.665909 125.718679 
" style="fill:none;stroke:#800080;stroke-linecap:square;stroke-width:1.5;"/>
   </g>
   <g id="line2d_199">
    <path clip-path="url(#p8a653124a1)" d="M 355.665909 125.718679 
L 355.806491 125.828208 
L 355.943853 125.937758 
L 356.078158 126.047329 
L 356.209604 126.156921 
L 356.338316 126.266524 
L 356.46442 126.376147 
L 356.588042 126.485792 
L 356.709291 126.595447 
L 356.828291 126.705112 
L 356.945134 126.814788 
L 357.059908 126.924485 
L 357.172686 127.034182 
L 357.283558 127.143889 
L 357.392596 127.253618 
L 357.499871 127.363346 
L 357.605437 127.473085 
L 357.709385 127.582834 
L 357.811732 127.692584 
L 357.912569 127.802354 
L 358.011913 127.912125 
L 358.109836 128.021895 
L 358.206393 128.131686 
L 358.3016 128.241467 
L 358.395513 128.351269 
L 358.488167 128.461071 
L 358.579616 128.570873 
L 358.66986 128.680685 
" style="fill:none;stroke:#800080;stroke-linecap:square;stroke-width:1.5;"/>
   </g>
   <g id="line2d_200">
    <path clip-path="url(#p8a653124a1)" d="M 358.66986 128.680685 
L 358.775031 128.790435 
L 358.878475 128.900184 
L 358.980301 129.009944 
L 359.080544 129.119704 
L 359.179277 129.229474 
L 359.276535 129.339255 
L 359.372354 129.449046 
L 359.466824 129.558838 
L 359.559946 129.66864 
L 359.65179 129.778442 
L 359.742394 129.888254 
L 359.831775 129.998066 
L 359.919987 130.107889 
L 360.007048 130.217712 
L 360.093011 130.327545 
L 360.177896 130.437379 
L 360.261738 130.547222 
L 360.344555 130.657066 
L 360.426382 130.76691 
L 360.507256 130.876764 
L 360.587178 130.986619 
L 360.666164 131.096473 
L 360.744286 131.206338 
L 360.82151 131.316203 
L 360.897906 131.426068 
L 360.973457 131.535943 
L 361.048199 131.645818 
L 361.12215 131.755693 
L 361.195309 131.865569 
L 361.267731 131.975455 
L 361.339397 132.08534 
L 361.410344 132.195226 
L 361.48059 132.305112 
L 361.550117 132.415008 
L 361.618978 132.524904 
" style="fill:none;stroke:#800080;stroke-linecap:square;stroke-width:1.5;"/>
   </g>
   <g id="line2d_201">
    <path clip-path="url(#p8a653124a1)" d="M 361.618978 132.524904 
L 361.701165 132.634748 
L 361.782309 132.744603 
L 361.862446 132.854457 
L 361.941612 132.964311 
L 362.019842 133.074176 
L 362.097138 133.184041 
L 362.173534 133.293906 
L 362.249049 133.40377 
L 362.323701 133.513646 
L 362.397544 133.623532 
L 362.470541 133.733407 
L 362.542765 133.843293 
L 362.614216 133.953178 
L 362.684893 134.063064 
L 362.754833 134.172961 
L 362.824054 134.282846 
L 362.892555 134.392743 
L 362.960373 134.502639 
L 363.027508 134.612546 
L 363.093977 134.722442 
L 363.159799 134.832349 
L 363.224991 134.942256 
L 363.289554 135.052162 
L 363.353505 135.16208 
L 363.416845 135.271986 
L 363.479609 135.381904 
L 363.54178 135.491821 
L 363.603412 135.601738 
L 363.664468 135.711655 
L 363.724984 135.821573 
L 363.784979 135.9315 
L 363.844434 136.041418 
L 363.903386 136.151345 
L 363.961816 136.261273 
L 364.019761 136.371201 
L 364.077202 136.481129 
L 364.134175 136.591056 
L 364.190681 136.700995 
L 364.24672 136.810922 
L 364.302291 136.920861 
L 364.357412 137.030799 
L 364.412101 137.140727 
L 364.466359 137.250665 
L 364.520186 137.360614 
L 364.573598 137.470552 
L 364.626579 137.58049 
" style="fill:none;stroke:#800080;stroke-linecap:square;stroke-width:1.5;"/>
   </g>
   <g id="line2d_202">
    <path clip-path="url(#p8a653124a1)" d="M 364.626579 137.58049 
L 364.691088 137.690397 
L 364.754932 137.800314 
L 364.818164 137.910221 
L 364.880748 138.020138 
L 364.942739 138.130056 
L 365.004119 138.239973 
L 365.064923 138.34989 
L 365.125152 138.459807 
L 365.184805 138.569735 
L 365.243918 138.679663 
L 365.302493 138.789591 
L 365.360545 138.899518 
L 365.418058 139.009446 
L 365.475068 139.119374 
L 365.531574 139.229302 
L 365.587594 139.33924 
L 365.643129 139.449178 
L 365.698178 139.559106 
L 365.75276 139.669044 
L 365.806892 139.778982 
L 365.860574 139.888921 
L 365.913807 139.998869 
L 365.967022 140.108808 
L 366.020237 140.218746 
L 366.073488 140.328684 
L 366.126738 140.438622 
L 366.179989 140.548571 
L 366.233258 140.658509 
L 366.286545 140.768448 
L 366.33985 140.878386 
L 366.393154 140.988335 
L 366.446477 141.098273 
L 366.4998 141.208211 
L 366.553141 141.318149 
L 366.606499 141.428088 
L 366.659876 141.538036 
L 366.713253 141.647975 
L 366.766629 141.757913 
L 366.820024 141.867851 
L 366.873437 141.977789 
L 366.926868 142.087738 
L 366.980298 142.197676 
L 367.033729 142.307615 
L 367.087196 142.417553 
L 367.140662 142.527491 
L 367.194129 142.637429 
L 367.247613 142.747378 
L 367.301098 142.857316 
L 367.354601 142.967255 
L 367.408121 143.077193 
L 367.461642 143.187131 
L 367.51518 143.297069 
L 367.568719 143.407018 
L 367.622276 143.516956 
" style="fill:none;stroke:#800080;stroke-linecap:square;stroke-width:1.5;"/>
   </g>
   <g id="line2d_203">
    <path clip-path="url(#p8a653124a1)" d="M 367.622276 143.516956 
L 367.69209 143.626842 
L 367.761922 143.736738 
L 367.831826 143.846624 
L 367.901766 143.95652 
L 367.971742 144.066406 
L 368.041754 144.176303 
L 368.11182 144.286188 
L 368.18194 144.396085 
L 368.252096 144.50597 
L 368.322287 144.615856 
L 368.392515 144.725752 
L 368.462815 144.835638 
L 368.533133 144.945524 
L 368.603504 145.05542 
L 368.673912 145.165306 
L 368.744373 145.275192 
L 368.814871 145.385088 
L 368.885405 145.494974 
L 368.955992 145.60486 
L 369.026615 145.714756 
L 369.097275 145.824642 
L 369.167988 145.934528 
L 369.238738 146.044413 
L 369.309541 146.15431 
L 369.380362 146.264196 
L 369.451255 146.374081 
L 369.522166 146.483967 
L 369.593132 146.593853 
L 369.664133 146.703739 
L 369.735188 146.813625 
L 369.806261 146.923521 
L 369.877406 147.033407 
L 369.948569 147.143292 
L 370.019786 147.253178 
L 370.091039 147.363064 
L 370.162327 147.47295 
L 370.23367 147.582836 
L 370.305049 147.692721 
L 370.376464 147.802607 
L 370.447914 147.912493 
L 370.519419 148.022379 
L 370.59096 148.132265 
" style="fill:none;stroke:#800080;stroke-linecap:square;stroke-width:1.5;"/>
   </g>
   <g id="line2d_204">
    <path clip-path="url(#p8a653124a1)" d="M 370.59096 148.132265 
L 370.62923 148.022295 
L 370.667572 147.912315 
L 370.705986 147.802345 
L 370.744472 147.692365 
L 370.78303 147.582395 
L 370.821659 147.472425 
L 370.860361 147.362455 
L 370.899135 147.252475 
L 370.93798 147.142506 
L 370.976898 147.032536 
L 371.015923 146.922556 
L 371.054985 146.812586 
L 371.094118 146.702616 
L 371.133323 146.592646 
L 371.172636 146.482677 
L 371.211986 146.372696 
L 371.251443 146.262727 
L 371.290936 146.152757 
L 371.330537 146.042787 
L 371.370173 145.932818 
L 371.409918 145.822848 
L 371.449735 145.712868 
L 371.489624 145.602898 
L 371.529584 145.492928 
L 371.569617 145.382958 
L 371.609721 145.272989 
L 371.649898 145.163019 
L 371.690146 145.053049 
L 371.730502 144.94308 
L 371.770894 144.83311 
L 371.811395 144.72314 
L 371.851967 144.61317 
L 371.892575 144.503201 
L 371.933291 144.393231 
L 371.974078 144.283261 
L 372.014938 144.173292 
L 372.055906 144.063332 
L 372.09691 143.953363 
L 372.138021 143.843393 
L 372.179169 143.733423 
L 372.220424 143.623453 
L 372.261752 143.513484 
L 372.303151 143.403514 
L 372.344658 143.293555 
L 372.386201 143.183585 
L 372.427852 143.073615 
L 372.46954 142.963646 
L 372.511334 142.853686 
L 372.553201 142.743717 
L 372.595176 142.633747 
L 372.637187 142.523777 
L 372.679306 142.413818 
L 372.72146 142.303848 
L 372.763723 142.193879 
L 372.806057 142.083919 
L 372.8485 141.97395 
L 372.890978 141.86399 
L 372.933564 141.754021 
L 372.976223 141.644061 
L 373.018953 141.534092 
L 373.061791 141.424122 
L 373.104665 141.314163 
L 373.147647 141.204193 
L 373.190701 141.094234 
L 373.233826 140.984264 
L 373.27706 140.874305 
L 373.32033 140.764346 
L 373.363707 140.654376 
L 373.407193 140.544417 
L 373.450714 140.434447 
L 373.494344 140.324488 
L 373.538045 140.214528 
L 373.581818 140.104559 
" style="fill:none;stroke:#800080;stroke-linecap:square;stroke-width:1.5;"/>
   </g>
   <g id="patch_3">
    <path d="M 54 252 
L 54 34.56 
" style="fill:none;stroke:#000000;stroke-linecap:square;stroke-linejoin:miter;stroke-width:0.8;"/>
   </g>
   <g id="patch_4">
    <path d="M 388.8 252 
L 388.8 34.56 
" style="fill:none;stroke:#000000;stroke-linecap:square;stroke-linejoin:miter;stroke-width:0.8;"/>
   </g>
   <g id="patch_5">
    <path d="M 54 252 
L 388.8 252 
" style="fill:none;stroke:#000000;stroke-linecap:square;stroke-linejoin:miter;stroke-width:0.8;"/>
   </g>
   <g id="patch_6">
    <path d="M 54 34.56 
L 388.8 34.56 
" style="fill:none;stroke:#000000;stroke-linecap:square;stroke-linejoin:miter;stroke-width:0.8;"/>
   </g>
   <g id="text_14">
    <!-- controller -->
    <defs>
     <path d="M 48.78125 52.59375 
L 48.78125 44.1875 
Q 44.96875 46.296875 41.140625 47.34375 
Q 37.3125 48.390625 33.40625 48.390625 
Q 24.65625 48.390625 19.8125 42.84375 
Q 14.984375 37.3125 14.984375 27.296875 
Q 14.984375 17.28125 19.8125 11.734375 
Q 24.65625 6.203125 33.40625 6.203125 
Q 37.3125 6.203125 41.140625 7.25 
Q 44.96875 8.296875 48.78125 10.40625 
L 48.78125 2.09375 
Q 45.015625 0.34375 40.984375 -0.53125 
Q 36.96875 -1.421875 32.421875 -1.421875 
Q 20.0625 -1.421875 12.78125 6.34375 
Q 5.515625 14.109375 5.515625 27.296875 
Q 5.515625 40.671875 12.859375 48.328125 
Q 20.21875 56 33.015625 56 
Q 37.15625 56 41.109375 55.140625 
Q 45.0625 54.296875 48.78125 52.59375 
z
" id="DejaVuSans-99"/>
     <path d="M 30.609375 48.390625 
Q 23.390625 48.390625 19.1875 42.75 
Q 14.984375 37.109375 14.984375 27.296875 
Q 14.984375 17.484375 19.15625 11.84375 
Q 23.34375 6.203125 30.609375 6.203125 
Q 37.796875 6.203125 41.984375 11.859375 
Q 46.1875 17.53125 46.1875 27.296875 
Q 46.1875 37.015625 41.984375 42.703125 
Q 37.796875 48.390625 30.609375 48.390625 
z
M 30.609375 56 
Q 42.328125 56 49.015625 48.375 
Q 55.71875 40.765625 55.71875 27.296875 
Q 55.71875 13.875 49.015625 6.21875 
Q 42.328125 -1.421875 30.609375 -1.421875 
Q 18.84375 -1.421875 12.171875 6.21875 
Q 5.515625 13.875 5.515625 27.296875 
Q 5.515625 40.765625 12.171875 48.375 
Q 18.84375 56 30.609375 56 
z
" id="DejaVuSans-111"/>
     <path d="M 54.890625 33.015625 
L 54.890625 0 
L 45.90625 0 
L 45.90625 32.71875 
Q 45.90625 40.484375 42.875 44.328125 
Q 39.84375 48.1875 33.796875 48.1875 
Q 26.515625 48.1875 22.3125 43.546875 
Q 18.109375 38.921875 18.109375 30.90625 
L 18.109375 0 
L 9.078125 0 
L 9.078125 54.6875 
L 18.109375 54.6875 
L 18.109375 46.1875 
Q 21.34375 51.125 25.703125 53.5625 
Q 30.078125 56 35.796875 56 
Q 45.21875 56 50.046875 50.171875 
Q 54.890625 44.34375 54.890625 33.015625 
z
" id="DejaVuSans-110"/>
     <path d="M 18.3125 70.21875 
L 18.3125 54.6875 
L 36.8125 54.6875 
L 36.8125 47.703125 
L 18.3125 47.703125 
L 18.3125 18.015625 
Q 18.3125 11.328125 20.140625 9.421875 
Q 21.96875 7.515625 27.59375 7.515625 
L 36.8125 7.515625 
L 36.8125 0 
L 27.59375 0 
Q 17.1875 0 13.234375 3.875 
Q 9.28125 7.765625 9.28125 18.015625 
L 9.28125 47.703125 
L 2.6875 47.703125 
L 2.6875 54.6875 
L 9.28125 54.6875 
L 9.28125 70.21875 
z
" id="DejaVuSans-116"/>
     <path d="M 41.109375 46.296875 
Q 39.59375 47.171875 37.8125 47.578125 
Q 36.03125 48 33.890625 48 
Q 26.265625 48 22.1875 43.046875 
Q 18.109375 38.09375 18.109375 28.8125 
L 18.109375 0 
L 9.078125 0 
L 9.078125 54.6875 
L 18.109375 54.6875 
L 18.109375 46.1875 
Q 20.953125 51.171875 25.484375 53.578125 
Q 30.03125 56 36.53125 56 
Q 37.453125 56 38.578125 55.875 
Q 39.703125 55.765625 41.0625 55.515625 
z
" id="DejaVuSans-114"/>
     <path d="M 9.421875 75.984375 
L 18.40625 75.984375 
L 18.40625 0 
L 9.421875 0 
z
" id="DejaVuSans-108"/>
     <path d="M 56.203125 29.59375 
L 56.203125 25.203125 
L 14.890625 25.203125 
Q 15.484375 15.921875 20.484375 11.0625 
Q 25.484375 6.203125 34.421875 6.203125 
Q 39.59375 6.203125 44.453125 7.46875 
Q 49.3125 8.734375 54.109375 11.28125 
L 54.109375 2.78125 
Q 49.265625 0.734375 44.1875 -0.34375 
Q 39.109375 -1.421875 33.890625 -1.421875 
Q 20.796875 -1.421875 13.15625 6.1875 
Q 5.515625 13.8125 5.515625 26.8125 
Q 5.515625 40.234375 12.765625 48.109375 
Q 20.015625 56 32.328125 56 
Q 43.359375 56 49.78125 48.890625 
Q 56.203125 41.796875 56.203125 29.59375 
z
M 47.21875 32.234375 
Q 47.125 39.59375 43.09375 43.984375 
Q 39.0625 48.390625 32.421875 48.390625 
Q 24.90625 48.390625 20.390625 44.140625 
Q 15.875 39.890625 15.1875 32.171875 
z
" id="DejaVuSans-101"/>
    </defs>
    <g transform="translate(192.646875 28.56)scale(0.12 -0.12)">
     <use xlink:href="#DejaVuSans-99"/>
     <use x="54.980469" xlink:href="#DejaVuSans-111"/>
     <use x="116.162109" xlink:href="#DejaVuSans-110"/>
     <use x="179.541016" xlink:href="#DejaVuSans-116"/>
     <use x="218.75" xlink:href="#DejaVuSans-114"/>
     <use x="259.832031" xlink:href="#DejaVuSans-111"/>
     <use x="321.013672" xlink:href="#DejaVuSans-108"/>
     <use x="348.796875" xlink:href="#DejaVuSans-108"/>
     <use x="376.580078" xlink:href="#DejaVuSans-101"/>
     <use x="438.103516" xlink:href="#DejaVuSans-114"/>
    </g>
   </g>
  </g>
 </g>
 <defs>
  <clipPath id="p8a653124a1">
   <rect height="217.44" width="334.8" x="54" y="34.56"/>
  </clipPath>
 </defs>
</svg>
