<?xml version="1.0" encoding="utf-8" standalone="no"?>
<!DOCTYPE svg PUBLIC "-//W3C//DTD SVG 1.1//EN"
  "http://www.w3.org/Graphics/SVG/1.1/DTD/svg11.dtd">
<!-- Created with matplotlib (https://matplotlib.org/) -->
<svg height="288pt" version="1.1" viewBox="0 0 432 288" width="432pt" xmlns="http://www.w3.org/2000/svg" xmlns:xlink="http://www.w3.org/1999/xlink">
 <defs>
  <style type="text/css">
*{stroke-linecap:butt;stroke-linejoin:round;}
  </style>
 </defs>
 <g id="figure_1">
  <g id="patch_1">
   <path d="M 0 288 
L 432 288 
L 432 0 
L 0 0 
z
" style="fill:#ffffff;"/>
  </g>
  <g id="axes_1">
   <g id="patch_2">
    <path d="M 54 252 
L 388.8 252 
L 388.8 34.56 
L 54 34.56 
z
" style="fill:#ffffff;"/>
   </g>
   <g id="matplotlib.axis_1">
    <g id="xtick_1">
     <g id="line2d_1">
      <path clip-path="url(#p29a9f5ebf7)" d="M 69.218182 252 
L 69.218182 34.56 
" style="fill:none;stroke:#b0b0b0;stroke-linecap:square;stroke-width:0.8;"/>
     </g>
     <g id="line2d_2">
      <defs>
       <path d="M 0 0 
L 0 3.5 
" id="mb94326f057" style="stroke:#000000;stroke-width:0.8;"/>
      </defs>
      <g>
       <use style="stroke:#000000;stroke-width:0.8;" x="69.218182" xlink:href="#mb94326f057" y="252"/>
      </g>
     </g>
     <g id="text_1">
      <!-- 0.0 -->
      <defs>
       <path d="M 31.78125 66.40625 
Q 24.171875 66.40625 20.328125 58.90625 
Q 16.5 51.421875 16.5 36.375 
Q 16.5 21.390625 20.328125 13.890625 
Q 24.171875 6.390625 31.78125 6.390625 
Q 39.453125 6.390625 43.28125 13.890625 
Q 47.125 21.390625 47.125 36.375 
Q 47.125 51.421875 43.28125 58.90625 
Q 39.453125 66.40625 31.78125 66.40625 
z
M 31.78125 74.21875 
Q 44.046875 74.21875 50.515625 64.515625 
Q 56.984375 54.828125 56.984375 36.375 
Q 56.984375 17.96875 50.515625 8.265625 
Q 44.046875 -1.421875 31.78125 -1.421875 
Q 19.53125 -1.421875 13.0625 8.265625 
Q 6.59375 17.96875 6.59375 36.375 
Q 6.59375 54.828125 13.0625 64.515625 
Q 19.53125 74.21875 31.78125 74.21875 
z
" id="DejaVuSans-48"/>
       <path d="M 10.6875 12.40625 
L 21 12.40625 
L 21 0 
L 10.6875 0 
z
" id="DejaVuSans-46"/>
      </defs>
      <g transform="translate(61.266619 266.598437)scale(0.1 -0.1)">
       <use xlink:href="#DejaVuSans-48"/>
       <use x="63.623047" xlink:href="#DejaVuSans-46"/>
       <use x="95.410156" xlink:href="#DejaVuSans-48"/>
      </g>
     </g>
    </g>
    <g id="xtick_2">
     <g id="line2d_3">
      <path clip-path="url(#p29a9f5ebf7)" d="M 126.003735 252 
L 126.003735 34.56 
" style="fill:none;stroke:#b0b0b0;stroke-linecap:square;stroke-width:0.8;"/>
     </g>
     <g id="line2d_4">
      <g>
       <use style="stroke:#000000;stroke-width:0.8;" x="126.003735" xlink:href="#mb94326f057" y="252"/>
      </g>
     </g>
     <g id="text_2">
      <!-- 0.2 -->
      <defs>
       <path d="M 19.1875 8.296875 
L 53.609375 8.296875 
L 53.609375 0 
L 7.328125 0 
L 7.328125 8.296875 
Q 12.9375 14.109375 22.625 23.890625 
Q 32.328125 33.6875 34.8125 36.53125 
Q 39.546875 41.84375 41.421875 45.53125 
Q 43.3125 49.21875 43.3125 52.78125 
Q 43.3125 58.59375 39.234375 62.25 
Q 35.15625 65.921875 28.609375 65.921875 
Q 23.96875 65.921875 18.8125 64.3125 
Q 13.671875 62.703125 7.8125 59.421875 
L 7.8125 69.390625 
Q 13.765625 71.78125 18.9375 73 
Q 24.125 74.21875 28.421875 74.21875 
Q 39.75 74.21875 46.484375 68.546875 
Q 53.21875 62.890625 53.21875 53.421875 
Q 53.21875 48.921875 51.53125 44.890625 
Q 49.859375 40.875 45.40625 35.40625 
Q 44.1875 33.984375 37.640625 27.21875 
Q 31.109375 20.453125 19.1875 8.296875 
z
" id="DejaVuSans-50"/>
      </defs>
      <g transform="translate(118.052173 266.598437)scale(0.1 -0.1)">
       <use xlink:href="#DejaVuSans-48"/>
       <use x="63.623047" xlink:href="#DejaVuSans-46"/>
       <use x="95.410156" xlink:href="#DejaVuSans-50"/>
      </g>
     </g>
    </g>
    <g id="xtick_3">
     <g id="line2d_5">
      <path clip-path="url(#p29a9f5ebf7)" d="M 182.789289 252 
L 182.789289 34.56 
" style="fill:none;stroke:#b0b0b0;stroke-linecap:square;stroke-width:0.8;"/>
     </g>
     <g id="line2d_6">
      <g>
       <use style="stroke:#000000;stroke-width:0.8;" x="182.789289" xlink:href="#mb94326f057" y="252"/>
      </g>
     </g>
     <g id="text_3">
      <!-- 0.4 -->
      <defs>
       <path d="M 37.796875 64.3125 
L 12.890625 25.390625 
L 37.796875 25.390625 
z
M 35.203125 72.90625 
L 47.609375 72.90625 
L 47.609375 25.390625 
L 58.015625 25.390625 
L 58.015625 17.1875 
L 47.609375 17.1875 
L 47.609375 0 
L 37.796875 0 
L 37.796875 17.1875 
L 4.890625 17.1875 
L 4.890625 26.703125 
z
" id="DejaVuSans-52"/>
      </defs>
      <g transform="translate(174.837727 266.598437)scale(0.1 -0.1)">
       <use xlink:href="#DejaVuSans-48"/>
       <use x="63.623047" xlink:href="#DejaVuSans-46"/>
       <use x="95.410156" xlink:href="#DejaVuSans-52"/>
      </g>
     </g>
    </g>
    <g id="xtick_4">
     <g id="line2d_7">
      <path clip-path="url(#p29a9f5ebf7)" d="M 239.574843 252 
L 239.574843 34.56 
" style="fill:none;stroke:#b0b0b0;stroke-linecap:square;stroke-width:0.8;"/>
     </g>
     <g id="line2d_8">
      <g>
       <use style="stroke:#000000;stroke-width:0.8;" x="239.574843" xlink:href="#mb94326f057" y="252"/>
      </g>
     </g>
     <g id="text_4">
      <!-- 0.6 -->
      <defs>
       <path d="M 33.015625 40.375 
Q 26.375 40.375 22.484375 35.828125 
Q 18.609375 31.296875 18.609375 23.390625 
Q 18.609375 15.53125 22.484375 10.953125 
Q 26.375 6.390625 33.015625 6.390625 
Q 39.65625 6.390625 43.53125 10.953125 
Q 47.40625 15.53125 47.40625 23.390625 
Q 47.40625 31.296875 43.53125 35.828125 
Q 39.65625 40.375 33.015625 40.375 
z
M 52.59375 71.296875 
L 52.59375 62.3125 
Q 48.875 64.0625 45.09375 64.984375 
Q 41.3125 65.921875 37.59375 65.921875 
Q 27.828125 65.921875 22.671875 59.328125 
Q 17.53125 52.734375 16.796875 39.40625 
Q 19.671875 43.65625 24.015625 45.921875 
Q 28.375 48.1875 33.59375 48.1875 
Q 44.578125 48.1875 50.953125 41.515625 
Q 57.328125 34.859375 57.328125 23.390625 
Q 57.328125 12.15625 50.6875 5.359375 
Q 44.046875 -1.421875 33.015625 -1.421875 
Q 20.359375 -1.421875 13.671875 8.265625 
Q 6.984375 17.96875 6.984375 36.375 
Q 6.984375 53.65625 15.1875 63.9375 
Q 23.390625 74.21875 37.203125 74.21875 
Q 40.921875 74.21875 44.703125 73.484375 
Q 48.484375 72.75 52.59375 71.296875 
z
" id="DejaVuSans-54"/>
      </defs>
      <g transform="translate(231.62328 266.598437)scale(0.1 -0.1)">
       <use xlink:href="#DejaVuSans-48"/>
       <use x="63.623047" xlink:href="#DejaVuSans-46"/>
       <use x="95.410156" xlink:href="#DejaVuSans-54"/>
      </g>
     </g>
    </g>
    <g id="xtick_5">
     <g id="line2d_9">
      <path clip-path="url(#p29a9f5ebf7)" d="M 296.360396 252 
L 296.360396 34.56 
" style="fill:none;stroke:#b0b0b0;stroke-linecap:square;stroke-width:0.8;"/>
     </g>
     <g id="line2d_10">
      <g>
       <use style="stroke:#000000;stroke-width:0.8;" x="296.360396" xlink:href="#mb94326f057" y="252"/>
      </g>
     </g>
     <g id="text_5">
      <!-- 0.8 -->
      <defs>
       <path d="M 31.78125 34.625 
Q 24.75 34.625 20.71875 30.859375 
Q 16.703125 27.09375 16.703125 20.515625 
Q 16.703125 13.921875 20.71875 10.15625 
Q 24.75 6.390625 31.78125 6.390625 
Q 38.8125 6.390625 42.859375 10.171875 
Q 46.921875 13.96875 46.921875 20.515625 
Q 46.921875 27.09375 42.890625 30.859375 
Q 38.875 34.625 31.78125 34.625 
z
M 21.921875 38.8125 
Q 15.578125 40.375 12.03125 44.71875 
Q 8.5 49.078125 8.5 55.328125 
Q 8.5 64.0625 14.71875 69.140625 
Q 20.953125 74.21875 31.78125 74.21875 
Q 42.671875 74.21875 48.875 69.140625 
Q 55.078125 64.0625 55.078125 55.328125 
Q 55.078125 49.078125 51.53125 44.71875 
Q 48 40.375 41.703125 38.8125 
Q 48.828125 37.15625 52.796875 32.3125 
Q 56.78125 27.484375 56.78125 20.515625 
Q 56.78125 9.90625 50.3125 4.234375 
Q 43.84375 -1.421875 31.78125 -1.421875 
Q 19.734375 -1.421875 13.25 4.234375 
Q 6.78125 9.90625 6.78125 20.515625 
Q 6.78125 27.484375 10.78125 32.3125 
Q 14.796875 37.15625 21.921875 38.8125 
z
M 18.3125 54.390625 
Q 18.3125 48.734375 21.84375 45.5625 
Q 25.390625 42.390625 31.78125 42.390625 
Q 38.140625 42.390625 41.71875 45.5625 
Q 45.3125 48.734375 45.3125 54.390625 
Q 45.3125 60.0625 41.71875 63.234375 
Q 38.140625 66.40625 31.78125 66.40625 
Q 25.390625 66.40625 21.84375 63.234375 
Q 18.3125 60.0625 18.3125 54.390625 
z
" id="DejaVuSans-56"/>
      </defs>
      <g transform="translate(288.408834 266.598437)scale(0.1 -0.1)">
       <use xlink:href="#DejaVuSans-48"/>
       <use x="63.623047" xlink:href="#DejaVuSans-46"/>
       <use x="95.410156" xlink:href="#DejaVuSans-56"/>
      </g>
     </g>
    </g>
    <g id="xtick_6">
     <g id="line2d_11">
      <path clip-path="url(#p29a9f5ebf7)" d="M 353.14595 252 
L 353.14595 34.56 
" style="fill:none;stroke:#b0b0b0;stroke-linecap:square;stroke-width:0.8;"/>
     </g>
     <g id="line2d_12">
      <g>
       <use style="stroke:#000000;stroke-width:0.8;" x="353.14595" xlink:href="#mb94326f057" y="252"/>
      </g>
     </g>
     <g id="text_6">
      <!-- 1.0 -->
      <defs>
       <path d="M 12.40625 8.296875 
L 28.515625 8.296875 
L 28.515625 63.921875 
L 10.984375 60.40625 
L 10.984375 69.390625 
L 28.421875 72.90625 
L 38.28125 72.90625 
L 38.28125 8.296875 
L 54.390625 8.296875 
L 54.390625 0 
L 12.40625 0 
z
" id="DejaVuSans-49"/>
      </defs>
      <g transform="translate(345.194387 266.598437)scale(0.1 -0.1)">
       <use xlink:href="#DejaVuSans-49"/>
       <use x="63.623047" xlink:href="#DejaVuSans-46"/>
       <use x="95.410156" xlink:href="#DejaVuSans-48"/>
      </g>
     </g>
    </g>
    <g id="text_7">
     <!-- $x_1$ -->
     <defs>
      <path d="M 60.015625 54.6875 
L 34.90625 27.875 
L 50.296875 0 
L 39.984375 0 
L 28.421875 21.6875 
L 8.296875 0 
L -2.59375 0 
L 24.3125 28.8125 
L 10.015625 54.6875 
L 20.3125 54.6875 
L 30.8125 34.90625 
L 49.125 54.6875 
z
" id="DejaVuSans-Oblique-120"/>
     </defs>
     <g transform="translate(216.05 280.276563)scale(0.1 -0.1)">
      <use transform="translate(0 0.3125)" xlink:href="#DejaVuSans-Oblique-120"/>
      <use transform="translate(59.179688 -16.09375)scale(0.7)" xlink:href="#DejaVuSans-49"/>
     </g>
    </g>
   </g>
   <g id="matplotlib.axis_2">
    <g id="ytick_1">
     <g id="line2d_13">
      <path clip-path="url(#p29a9f5ebf7)" d="M 54 242.116364 
L 388.8 242.116364 
" style="fill:none;stroke:#b0b0b0;stroke-linecap:square;stroke-width:0.8;"/>
     </g>
     <g id="line2d_14">
      <defs>
       <path d="M 0 0 
L -3.5 0 
" id="m48de5dbab1" style="stroke:#000000;stroke-width:0.8;"/>
      </defs>
      <g>
       <use style="stroke:#000000;stroke-width:0.8;" x="54" xlink:href="#m48de5dbab1" y="242.116364"/>
      </g>
     </g>
     <g id="text_8">
      <!-- 0 -->
      <g transform="translate(40.6375 245.915582)scale(0.1 -0.1)">
       <use xlink:href="#DejaVuSans-48"/>
      </g>
     </g>
    </g>
    <g id="ytick_2">
     <g id="line2d_15">
      <path clip-path="url(#p29a9f5ebf7)" d="M 54 197.406458 
L 388.8 197.406458 
" style="fill:none;stroke:#b0b0b0;stroke-linecap:square;stroke-width:0.8;"/>
     </g>
     <g id="line2d_16">
      <g>
       <use style="stroke:#000000;stroke-width:0.8;" x="54" xlink:href="#m48de5dbab1" y="197.406458"/>
      </g>
     </g>
     <g id="text_9">
      <!-- 2 -->
      <g transform="translate(40.6375 201.205677)scale(0.1 -0.1)">
       <use xlink:href="#DejaVuSans-50"/>
      </g>
     </g>
    </g>
    <g id="ytick_3">
     <g id="line2d_17">
      <path clip-path="url(#p29a9f5ebf7)" d="M 54 152.696552 
L 388.8 152.696552 
" style="fill:none;stroke:#b0b0b0;stroke-linecap:square;stroke-width:0.8;"/>
     </g>
     <g id="line2d_18">
      <g>
       <use style="stroke:#000000;stroke-width:0.8;" x="54" xlink:href="#m48de5dbab1" y="152.696552"/>
      </g>
     </g>
     <g id="text_10">
      <!-- 4 -->
      <g transform="translate(40.6375 156.495771)scale(0.1 -0.1)">
       <use xlink:href="#DejaVuSans-52"/>
      </g>
     </g>
    </g>
    <g id="ytick_4">
     <g id="line2d_19">
      <path clip-path="url(#p29a9f5ebf7)" d="M 54 107.986646 
L 388.8 107.986646 
" style="fill:none;stroke:#b0b0b0;stroke-linecap:square;stroke-width:0.8;"/>
     </g>
     <g id="line2d_20">
      <g>
       <use style="stroke:#000000;stroke-width:0.8;" x="54" xlink:href="#m48de5dbab1" y="107.986646"/>
      </g>
     </g>
     <g id="text_11">
      <!-- 6 -->
      <g transform="translate(40.6375 111.785865)scale(0.1 -0.1)">
       <use xlink:href="#DejaVuSans-54"/>
      </g>
     </g>
    </g>
    <g id="ytick_5">
     <g id="line2d_21">
      <path clip-path="url(#p29a9f5ebf7)" d="M 54 63.27674 
L 388.8 63.27674 
" style="fill:none;stroke:#b0b0b0;stroke-linecap:square;stroke-width:0.8;"/>
     </g>
     <g id="line2d_22">
      <g>
       <use style="stroke:#000000;stroke-width:0.8;" x="54" xlink:href="#m48de5dbab1" y="63.27674"/>
      </g>
     </g>
     <g id="text_12">
      <!-- 8 -->
      <g transform="translate(40.6375 67.075959)scale(0.1 -0.1)">
       <use xlink:href="#DejaVuSans-56"/>
      </g>
     </g>
    </g>
    <g id="text_13">
     <!-- $x_2$ -->
     <g transform="translate(34.557813 148.63)rotate(-90)scale(0.1 -0.1)">
      <use transform="translate(0 0.3125)" xlink:href="#DejaVuSans-Oblique-120"/>
      <use transform="translate(59.179688 -16.09375)scale(0.7)" xlink:href="#DejaVuSans-50"/>
     </g>
    </g>
   </g>
   <g id="line2d_23">
    <path clip-path="url(#p29a9f5ebf7)" d="M 288.619461 46.208793 
L 302.805868 46.1669 
L 313.717205 45.451849 
L 322.809157 44.593405 
L 336.87754 44.443636 
L 343.030402 45.450933 
L 346.233311 46.539861 
L 348.367235 47.644928 
L 349.957545 48.755623 
L 351.219355 49.868962 
L 352.261346 50.983686 
L 353.14595 52.099264 
" style="fill:none;stroke:#ffa500;stroke-linecap:square;stroke-width:1.5;"/>
   </g>
   <g id="line2d_24">
    <path clip-path="url(#p29a9f5ebf7)" d="M 350.986235 242.116055 
L 350.987555 240.998308 
L 350.990195 239.88056 
L 350.994155 238.762812 
L 350.999452 237.645065 
L 351.006052 236.527318 
L 351.013989 235.40957 
L 351.023246 234.291822 
L 351.03384 233.174075 
L 351.045737 232.056328 
L 351.058971 230.938581 
L 351.073542 229.820834 
L 351.089434 228.703086 
L 351.106662 227.58534 
L 351.125227 226.467593 
L 351.145112 225.349846 
L 351.166334 224.2321 
L 351.188892 223.114355 
L 351.212805 221.996608 
L 351.238055 220.878863 
L 351.264642 219.761118 
L 351.292565 218.643371 
L 351.32186 217.525627 
L 351.352491 216.40788 
L 351.384476 215.290137 
L 351.417832 214.172393 
L 351.452525 213.054646 
L 351.488606 211.936902 
L 351.526041 210.819158 
L 351.564846 209.701417 
L 351.605022 208.583673 
L 351.646569 207.465929 
L 351.689504 206.348188 
L 351.733826 205.230444 
L 351.779537 204.112703 
L 351.826634 202.994961 
L 351.87512 201.87722 
L 351.925027 200.759479 
L 351.976322 199.64174 
L 352.029038 198.523999 
L 352.08316 197.406261 
L 352.138702 196.288519 
L 352.195666 195.170783 
L 352.254069 194.053042 
L 352.31391 192.935306 
L 352.375173 191.81757 
L 352.437891 190.699834 
L 352.502065 189.582098 
L 352.567694 188.464363 
L 352.634795 187.346627 
L 352.703352 186.228891 
L 352.773398 185.111155 
L 352.844916 183.993424 
L 352.917924 182.875688 
L 352.992421 181.757958 
L 353.068441 180.640227 
L 353.14595 179.522496 
" style="fill:none;stroke:#ffa500;stroke-linecap:square;stroke-width:1.5;"/>
   </g>
   <g id="line2d_25">
    <path clip-path="url(#p29a9f5ebf7)" d="M 69.218182 242.116364 
L 72.064324 242.116364 
L 74.910466 242.116364 
L 77.756607 242.116364 
L 80.602749 242.116364 
L 83.448891 242.116364 
L 86.295033 242.116364 
L 89.141175 242.116364 
L 91.987317 242.116364 
L 94.833459 242.116364 
L 97.6796 242.116364 
L 100.525742 242.116364 
L 103.371884 242.116364 
L 106.218027 242.116364 
L 109.064169 242.116364 
L 111.910311 242.116364 
L 114.756452 242.116364 
L 117.602594 242.116364 
L 120.448736 242.116364 
L 123.294877 242.116364 
L 126.141019 242.116364 
L 128.987161 242.116364 
L 131.833302 242.116364 
L 134.679444 242.116364 
L 137.525586 242.116364 
L 140.371727 242.116364 
L 143.217873 242.116364 
L 146.064011 242.116364 
L 148.910156 242.116364 
L 151.756294 242.116364 
L 154.60244 242.116364 
L 157.448577 242.116364 
L 160.294723 242.116364 
L 163.14086 242.116364 
L 165.987006 242.116364 
L 168.833144 242.116364 
L 171.67929 242.116364 
L 174.525435 242.116364 
L 177.371573 242.116364 
L 180.217719 242.116364 
L 183.063856 242.116364 
L 185.910002 242.116364 
L 188.75614 242.116364 
L 191.602285 242.116364 
L 194.448423 242.116364 
L 197.294569 242.116364 
L 200.140706 242.116364 
L 202.986852 242.116364 
L 205.832989 242.116364 
L 208.679135 242.116364 
L 211.525273 242.116364 
L 214.371419 242.116364 
L 217.217564 242.116364 
L 220.063693 242.116364 
L 222.909839 242.116364 
L 225.755985 242.116364 
L 228.602131 242.116364 
L 231.448277 242.116364 
L 234.294406 242.116364 
L 237.140552 242.116364 
L 239.986698 242.116364 
L 242.832844 242.116364 
L 245.678972 242.116364 
L 248.525118 242.116364 
L 251.371264 242.116364 
L 254.21741 242.116364 
L 257.063539 242.116364 
L 259.909685 242.116364 
L 262.755831 242.116364 
L 265.601977 242.116364 
L 268.448106 242.116364 
L 271.294252 242.116364 
L 274.140397 242.116364 
L 276.986543 242.116364 
L 279.832689 242.116364 
L 282.678818 242.116364 
L 285.524964 242.116364 
L 288.37111 242.116364 
L 291.217256 242.116364 
L 294.063385 242.116364 
L 296.909531 242.116364 
L 299.755676 242.116364 
L 302.601822 242.116364 
L 305.447951 242.116364 
L 308.294097 242.116364 
L 311.140243 242.116364 
L 313.986389 242.116364 
L 316.832518 242.116364 
L 319.678664 242.116364 
L 322.52481 242.116364 
L 325.370956 242.116364 
L 328.217101 242.116364 
L 331.06323 242.116364 
L 333.909376 242.116364 
L 336.755522 242.116364 
L 339.601668 242.116364 
L 342.447797 242.116364 
L 345.293943 242.116364 
L 348.140089 242.116364 
L 350.986235 242.116364 
" style="fill:none;stroke:#ffa500;stroke-linecap:square;stroke-width:1.5;"/>
   </g>
   <g id="line2d_26">
    <path clip-path="url(#p29a9f5ebf7)" d="M 273.646183 69.214775 
L 276.485458 71.834496 
L 279.324733 71.834496 
L 282.164008 69.214775 
L 285.003283 60.154906 
L 287.842558 48.257006 
L 288.619461 46.208793 
" style="fill:none;stroke:#ffa500;stroke-linecap:square;stroke-width:1.5;"/>
   </g>
   <g id="line2d_27">
    <path clip-path="url(#p29a9f5ebf7)" d="M 273.646183 91.569727 
L 273.501809 91.346471 
L 273.357216 91.123204 
L 273.212402 90.899948 
L 273.067385 90.676692 
L 272.922165 90.453436 
L 272.776743 90.23018 
L 272.63115 90.006924 
L 272.485355 89.783667 
L 272.339391 89.560411 
L 272.193274 89.337166 
L 272.046971 89.11391 
L 271.900533 88.890653 
L 271.753959 88.667408 
L 271.607233 88.444152 
L 271.460372 88.220906 
L 271.313409 87.99765 
L 271.166311 87.774404 
L 271.019111 87.551159 
L 270.871809 87.327903 
L 270.724423 87.104657 
L 270.576953 86.881412 
L 270.429414 86.658166 
L 270.281791 86.434921 
L 270.134118 86.211665 
L 269.986376 85.988419 
L 269.838601 85.765174 
L 269.690792 85.541928 
L 269.542949 85.318683 
L 269.395089 85.095437 
L 269.247195 84.872191 
L 269.099319 84.648946 
L 268.951425 84.4257 
L 268.803548 84.202455 
L 268.655688 83.979209 
L 268.507862 83.755964 
L 268.360053 83.532718 
L 268.212278 83.309473 
L 268.06457 83.086217 
L 267.916897 82.862971 
L 267.769308 82.639726 
L 267.621769 82.41648 
L 267.474316 82.193235 
L 267.326946 81.969978 
L 267.179662 81.746733 
L 267.032479 81.523487 
L 266.885398 81.300231 
L 266.738435 81.076986 
L 266.59159 80.85374 
L 266.444881 80.630484 
L 266.298291 80.407239 
L 266.151852 80.183982 
L 266.005549 79.960726 
L 265.859416 79.737481 
L 265.713434 79.514224 
L 265.567622 79.290968 
L 265.421979 79.067712 
L 265.276523 78.844456 
L 265.131235 78.6212 
" style="fill:none;stroke:#ffa500;stroke-linecap:square;stroke-width:1.5;"/>
   </g>
   <g id="line2d_28">
    <path clip-path="url(#p29a9f5ebf7)" d="M 265.128341 78.6212 
L 264.983274 78.397944 
L 264.838392 78.174687 
L 264.693731 77.951421 
L 264.549273 77.728164 
L 264.405034 77.504908 
L 264.261016 77.281641 
L 264.117218 77.058375 
L 263.973657 76.835118 
L 263.830332 76.611852 
L 263.687245 76.388585 
L 263.544428 76.165318 
L 263.401848 75.942051 
L 263.259522 75.718784 
L 263.117467 75.495517 
L 262.975683 75.27224 
L 262.834169 75.048973 
L 262.692926 74.825696 
L 262.551971 74.602429 
L 262.411304 74.379151 
L 262.270924 74.155874 
L 262.130849 73.932596 
L 261.991062 73.709319 
L 261.851579 73.486041 
L 261.712401 73.262753 
L 261.573544 73.039476 
L 261.434992 72.816187 
L 261.296762 72.59291 
L 261.158853 72.369622 
L 261.021266 72.146334 
L 260.884 71.923046 
L 260.747072 71.699757 
L 260.610484 71.476469 
L 260.474216 71.25317 
L 260.338304 71.029882 
L 260.202714 70.806583 
L 260.067496 70.583295 
L 259.932599 70.359996 
L 259.798075 70.136698 
L 259.663889 69.913399 
L 259.530059 69.6901 
L 259.396584 69.466791 
L 259.263481 69.243492 
L 259.130717 69.020182 
L 258.998325 68.796873 
L 258.866306 68.573574 
L 258.734642 68.350264 
L 258.60335 68.126955 
L 258.47243 67.903635 
L 258.341883 67.680325 
L 258.211708 67.457016 
L 258.081905 67.233696 
L 257.952475 67.010376 
L 257.823417 66.787056 
L 257.694749 66.563735 
L 257.566452 66.340415 
L 257.438528 66.117095 
L 257.310993 65.893775 
L 257.183831 65.670444 
L 257.057057 65.447124 
L 256.930656 65.223793 
L 256.804645 65.000462 
L 256.679022 64.777132 
L 256.553789 64.553801 
L 256.428928 64.33047 
L 256.304456 64.107129 
L 256.180357 63.883798 
L 256.056664 63.660456 
L 255.933343 63.437126 
L 255.810411 63.213784 
L 255.687852 62.990443 
L 255.565698 62.767101 
L 255.443918 62.54376 
L 255.322526 62.320418 
L 255.201524 62.097056 
L 255.08091 61.873714 
L 254.96067 61.650373 
L 254.840818 61.42701 
L 254.721356 61.203668 
L 254.602282 60.980306 
L 254.483582 60.756964 
L 254.36527 60.533601 
L 254.247331 60.310239 
L 254.129781 60.086897 
L 254.01262 59.863534 
L 253.895831 59.640172 
L 253.779432 59.416809 
L 253.663405 59.193446 
L 253.547768 58.970083 
L 253.432485 58.746721 
L 253.317609 58.523358 
L 253.203088 58.299974 
L 253.088957 58.076611 
L 252.975198 57.853248 
L 252.861811 57.629864 
L 252.748796 57.406501 
L 252.636154 57.183117 
L 252.523884 56.959754 
L 252.411986 56.73637 
L 252.300461 56.512986 
L 252.189308 56.289624 
L 252.078511 56.066239 
L 251.968085 55.842855 
L 251.858032 55.619471 
L 251.748335 55.396087 
L 248.092674 60.154906 
L 245.253399 64.848573 
L 242.414124 71.834496 
L 239.574849 76.200697 
L 236.735558 83.18662 
L 233.896283 90.172543 
L 231.057008 97.158466 
L 228.217733 99.778187 
L 225.378458 104.144389 
L 222.539183 106.76411 
L 219.699891 106.76411 
L 216.860616 106.76411 
L 214.021341 104.144389 
L 211.182066 102.070443 
L 208.342791 97.158466 
L 205.503507 92.792264 
L 202.664232 85.806341 
L 199.824958 78.820418 
L 196.985674 69.214775 
L 194.146399 62.228852 
" style="fill:none;stroke:#ffa500;stroke-linecap:square;stroke-width:1.5;"/>
   </g>
   <g id="line2d_29">
    <path clip-path="url(#p29a9f5ebf7)" d="M 194.146399 84.583805 
L 194.096043 84.360293 
L 194.045612 84.136781 
L 193.995121 83.913258 
L 193.944554 83.689746 
L 193.893927 83.466234 
L 193.843225 83.242722 
L 193.792463 83.01921 
L 193.741633 82.795687 
L 193.690736 82.572175 
L 193.639771 82.348663 
L 193.588747 82.125151 
L 193.537647 81.901639 
L 193.486488 81.678127 
L 193.43526 81.454615 
L 193.383965 81.231103 
L 193.332611 81.007591 
L 193.28119 80.784069 
L 193.2297 80.560557 
L 193.178151 80.337045 
L 193.126535 80.113533 
L 193.074851 79.890021 
L 193.023108 79.666509 
L 192.971305 79.442997 
L 192.919426 79.219485 
L 192.867497 78.995973 
L 192.8155 78.772461 
L 192.763435 78.548949 
L 192.711311 78.325437 
L 192.659127 78.101925 
L 192.606876 77.878413 
L 192.554566 77.6549 
L 192.502188 77.431388 
L 192.449759 77.207876 
L 192.397263 76.984364 
L 192.344699 76.760852 
L 192.292084 76.537351 
L 192.239401 76.313839 
L 192.186659 76.090327 
L 192.133858 75.866815 
L 192.080998 75.643303 
L 192.028078 75.419791 
L 191.9751 75.196279 
L 191.922062 74.972767 
L 191.868956 74.749255 
L 191.8158 74.525754 
L 191.762584 74.302242 
L 191.709301 74.07873 
L 191.655966 73.855218 
L 191.602573 73.631706 
L 191.549129 73.408204 
L 191.495617 73.184692 
L 191.442046 72.96118 
L 191.388424 72.737668 
L 191.334743 72.514156 
" style="fill:none;stroke:#ffa500;stroke-linecap:square;stroke-width:1.5;"/>
   </g>
   <g id="line2d_30">
    <path clip-path="url(#p29a9f5ebf7)" d="M 191.307124 72.514156 
L 191.253392 72.290655 
L 191.19961 72.067143 
L 191.145776 71.843631 
L 191.091875 71.620119 
L 191.037923 71.396618 
L 190.983921 71.173106 
L 190.929859 70.949594 
L 190.875738 70.726092 
L 190.821566 70.50258 
L 190.767335 70.279068 
L 190.713053 70.055556 
L 190.65872 69.832055 
L 190.604329 69.608543 
L 190.549886 69.385031 
L 190.495393 69.161529 
L 190.44084 68.938017 
L 190.386237 68.714505 
L 190.331582 68.491004 
L 190.276877 68.267492 
L 190.222122 68.043991 
L 190.167307 67.820479 
L 190.112441 67.596967 
L 190.057533 67.373465 
L 190.002566 67.149953 
L 189.947548 66.926452 
L 189.892479 66.70294 
L 189.837359 66.479428 
L 189.782198 66.255927 
L 189.726977 66.032415 
L 189.671713 65.808913 
L 189.61639 65.585401 
L 189.561026 65.3619 
L 189.50561 65.138388 
L 189.450152 64.914887 
L 189.394635 64.691375 
L 189.339075 64.467873 
L 189.283473 64.244361 
L 189.22782 64.02086 
L 189.172117 63.797348 
L 189.116363 63.573847 
L 189.060566 63.350335 
L 189.004728 63.126823 
L 188.948838 62.903332 
L 188.892906 62.67982 
L 188.836923 62.456308 
L 188.780898 62.232817 
L 188.724831 62.009305 
L 188.668713 61.785793 
L 188.612553 61.562281 
L 188.55635 61.33879 
L 188.500105 61.115278 
L 188.443809 60.891766 
L 188.38748 60.668276 
L 188.3311 60.444764 
L 188.274677 60.221252 
L 188.218212 59.99774 
L 188.161705 59.774249 
L 188.105155 59.550737 
L 188.048563 59.327225 
L 187.991937 59.103734 
L 187.935261 58.880222 
L 187.87855 58.65671 
L 187.821789 58.43322 
L 187.764994 58.209708 
L 187.708157 57.986196 
L 187.651286 57.762705 
L 187.594373 57.539193 
L 187.537417 57.315681 
L 187.480427 57.09219 
L 187.423387 56.868678 
L 187.366321 56.645188 
L 187.309213 56.421676 
L 187.252063 56.198164 
L 187.194878 55.974673 
L 187.13766 55.751161 
L 187.0804 55.527649 
L 187.023106 55.304158 
L 186.965769 55.080646 
L 186.908407 54.857155 
L 182.789291 60.154906 
L 179.950007 64.848573 
L 177.110732 69.214775 
L 174.271457 76.200697 
L 171.432182 80.785209 
L 168.592899 87.771132 
" style="fill:none;stroke:#ffa500;stroke-linecap:square;stroke-width:1.5;"/>
   </g>
   <g id="line2d_31">
    <path clip-path="url(#p29a9f5ebf7)" d="M 168.592899 110.126085 
L 168.558062 109.902552 
L 168.523191 109.679018 
L 168.488278 109.455485 
L 168.453332 109.231952 
L 168.418342 109.008418 
L 168.383319 108.784885 
L 168.348263 108.561352 
L 168.313163 108.337829 
L 168.278039 108.114296 
L 168.242864 107.890762 
L 168.207663 107.667229 
L 168.172428 107.443696 
L 168.137151 107.220162 
L 168.101841 106.996629 
L 168.066496 106.773096 
L 168.031109 106.549562 
L 167.995697 106.326029 
L 167.960243 106.102506 
L 167.924754 105.878973 
L 167.889232 105.65544 
L 167.853676 105.431906 
L 167.818086 105.208373 
L 167.782462 104.98484 
L 167.746804 104.761306 
L 167.711113 104.537773 
L 167.675379 104.31425 
L 167.63962 104.090717 
L 167.603827 103.867184 
L 167.568 103.64365 
L 167.532139 103.420117 
L 167.496236 103.196584 
L 167.460308 102.973061 
L 167.424346 102.749528 
L 167.388358 102.525994 
L 167.352328 102.302461 
L 167.316264 102.078928 
L 167.280175 101.855394 
L 167.244052 101.631872 
L 167.207895 101.408338 
L 167.171705 101.184805 
L 167.13548 100.961272 
L 167.09923 100.737738 
L 167.062946 100.514205 
L 167.026629 100.290682 
L 166.990277 100.067149 
L 166.9539 99.843616 
L 166.917489 99.620083 
L 166.881053 99.396549 
L 166.844575 99.173027 
L 166.80808 98.949493 
L 166.771542 98.72596 
L 166.734979 98.502427 
L 166.698382 98.278904 
L 166.66176 98.055371 
L 166.625104 97.831837 
L 166.588422 97.608304 
L 166.551707 97.384771 
L 166.514966 97.161248 
L 166.478191 96.937715 
L 166.441392 96.714181 
L 166.404558 96.490648 
L 166.367699 96.267125 
L 166.330805 96.043592 
L 166.293887 95.820059 
L 166.256943 95.596525 
L 166.219966 95.373003 
L 166.182963 95.149469 
L 166.145934 94.925936 
L 166.108872 94.702403 
L 166.071784 94.47888 
L 166.034671 94.255347 
L 165.996585 94.031813 
L 165.955808 93.808291 
L 165.912019 93.584768 
L 165.864828 93.361245 
L 165.813804 93.137733 
L 165.758405 92.914232 
L 165.698014 92.690731 
L 165.631868 92.46724 
L 165.55903 92.243771 
L 165.478365 92.020301 
L 165.388459 91.796864 
L 165.287545 91.573458 
L 165.173362 91.350096 
L 165.043027 91.126775 
L 164.892781 90.903541 
L 164.717666 90.680412 
L 164.511149 90.457465 
L 164.264474 90.234753 
L 163.966071 90.012445 
L 163.600907 89.790756 
L 163.150498 89.570037 
L 162.594564 89.35081 
L 161.915766 89.133747 
L 161.106759 88.919456 
L 160.174948 88.708288 
L 159.139125 88.500147 
L 158.020665 88.294682 
L 156.836923 88.091487 
L 155.599449 87.890286 
L 154.314902 87.690918 
L 152.986457 87.493352 
L 151.614941 87.297608 
L 150.199517 87.103815 
L 148.738113 86.912154 
L 147.227639 86.72287 
L 145.664085 86.536262 
L 144.0425 86.352767 
L 142.356945 86.172863 
L 140.600354 85.997235 
L 138.764384 85.826712 
L 136.839235 85.662404 
L 134.81352 85.50576 
L 132.674269 85.358774 
L 130.407445 85.224163 
L 127.999612 85.105702 
L 125.442217 85.008593 
L 122.740894 84.939752 
L 119.931472 84.907422 
L 117.095987 84.918977 
L 114.353988 84.976997 
L 111.813314 85.076783 
L 109.524659 85.20909 
" style="fill:none;stroke:#ffa500;stroke-linecap:square;stroke-width:1.5;"/>
   </g>
   <g id="line2d_32">
    <path clip-path="url(#p29a9f5ebf7)" d="M 108.96807 85.20909 
L 107.006024 85.37067 
L 105.250947 85.546394 
L 103.671339 85.732161 
L 102.239434 85.925197 
L 100.932272 86.123648 
L 99.731264 86.326213 
L 98.621395 86.531977 
L 97.59049 86.740267 
L 96.628593 86.950593 
L 95.727483 87.162593 
L 94.880309 87.375957 
L 94.081317 87.590472 
L 93.325619 87.805957 
L 92.609033 88.022274 
L 91.927962 88.239294 
L 91.279282 88.456933 
L 90.660263 88.675104 
L 90.068511 88.893745 
L 89.501906 89.11279 
L 88.958576 89.332209 
L 88.436842 89.551958 
L 87.935202 89.771984 
L 87.452312 89.992277 
L 86.986952 90.212805 
L 86.538021 90.433545 
L 86.104514 90.654477 
L 85.685521 90.87558 
L 85.280208 91.096832 
L 84.887806 91.318245 
L 84.507617 91.539774 
L 84.13899 91.761431 
L 83.781329 91.983206 
L 83.434083 92.205076 
L 83.096738 92.427042 
L 82.768818 92.649094 
L 82.449882 92.871231 
L 82.139516 93.093442 
L 81.837336 93.315718 
L 81.54298 93.538068 
L 81.256114 93.760471 
L 80.97642 93.982928 
L 80.703601 94.205449 
L 80.437379 94.428012 
L 80.177491 94.650618 
L 79.923688 94.873277 
L 79.675738 95.095968 
L 79.433419 95.318702 
L 79.196523 95.541479 
L 78.964853 95.764277 
L 78.73822 95.987117 
L 78.516448 96.209979 
L 78.299368 96.432872 
L 78.08682 96.655798 
L 77.87865 96.878745 
" style="fill:none;stroke:#ffa500;stroke-linecap:square;stroke-width:1.5;"/>
   </g>
   <g id="line2d_33">
    <path clip-path="url(#p29a9f5ebf7)" d="M 77.736015 96.878745 
L 77.535823 97.101746 
L 77.339582 97.324757 
L 77.147169 97.547789 
L 76.958464 97.770843 
L 76.773354 97.993918 
L 76.591731 98.217014 
L 76.413492 98.440121 
L 76.238537 98.663249 
L 76.066772 98.886388 
L 75.898104 99.109538 
L 75.732446 99.332708 
L 75.569715 99.55589 
L 75.40983 99.779082 
L 75.252713 100.002296 
L 75.098289 100.225509 
L 74.946487 100.448744 
L 74.797239 100.671979 
L 74.650477 100.895235 
L 74.506138 101.118491 
L 74.364159 101.341758 
L 74.224483 101.565046 
L 74.087051 101.788334 
L 73.951808 102.011623 
L 73.8187 102.234932 
L 73.687677 102.458242 
L 73.558688 102.681562 
L 73.431685 102.904882 
L 73.306622 103.128213 
L 73.183454 103.351554 
L 73.062137 103.574906 
L 72.94263 103.798258 
L 72.824891 104.02161 
L 72.708881 104.244973 
L 72.594561 104.468347 
L 72.481895 104.69172 
L 72.370848 104.915093 
L 72.261383 105.138478 
L 72.153468 105.361862 
L 72.047068 105.585256 
L 71.942154 105.808651 
L 71.838694 106.032057 
L 71.736658 106.255462 
L 71.636016 106.478867 
L 71.536742 106.702283 
L 71.438806 106.9257 
L 71.342183 107.149116 
L 71.246847 107.372542 
L 71.152771 107.595969 
L 71.059933 107.819396 
L 70.968307 108.042833 
L 70.877871 108.266271 
L 70.788602 108.489708 
L 70.700479 108.713145 
L 70.613478 108.936593 
L 70.527581 109.160041 
L 70.442766 109.383489 
L 70.359013 109.606948 
L 70.276304 109.830396 
L 70.194619 110.053855 
L 70.11394 110.277314 
L 70.034249 110.500772 
L 69.955529 110.724242 
L 69.877762 110.9477 
L 69.800933 111.17117 
L 69.725025 111.394639 
L 69.650021 111.618109 
L 69.575907 111.841589 
L 69.502667 112.065058 
L 69.430287 112.288538 
L 69.358753 112.512018 
L 69.28805 112.735498 
" style="fill:none;stroke:#ffa500;stroke-linecap:square;stroke-width:1.5;"/>
   </g>
   <g id="line2d_34">
    <path clip-path="url(#p29a9f5ebf7)" d="M 211.182066 197.406458 
L 211.583015 196.289154 
L 212.004628 195.171903 
L 212.448073 194.0547 
L 212.91455 192.937555 
L 213.405362 191.820475 
L 213.921882 190.703469 
L 214.465547 189.586538 
L 215.037863 188.469703 
L 215.640353 187.352958 
L 216.274609 186.236331 
L 216.942204 185.119816 
L 217.644694 184.003439 
L 218.383588 182.887206 
L 219.160237 181.771133 
L 219.975793 180.655231 
L 220.831187 179.539515 
L 221.726943 178.423996 
L 222.663147 177.30868 
L 223.639323 176.193577 
L 224.654322 175.078692 
L 225.706315 173.964016 
L 226.792663 172.849547 
L 227.910031 171.735265 
L 229.054325 170.621153 
L 230.220923 169.507191 
L 231.404784 168.393335 
L 232.600643 167.279559 
L 233.803221 166.165831 
L 235.007474 165.052109 
L 236.208681 163.93837 
L 237.402645 162.824584 
L 238.585727 161.710723 
" style="fill:none;stroke:#800080;stroke-linecap:square;stroke-width:1.5;"/>
   </g>
   <g id="line2d_35">
    <path clip-path="url(#p29a9f5ebf7)" d="M 238.585727 161.710723 
L 239.865814 162.823917 
L 241.240773 163.936409 
L 242.729052 165.047999 
L 244.355832 166.158385 
L 246.15689 167.267098 
L 248.186024 168.373369 
L 250.53034 169.475771 
L 253.347377 170.571293 
L 256.97596 171.651912 
L 262.411879 172.684471 
" style="fill:none;stroke:#800080;stroke-linecap:square;stroke-width:1.5;"/>
   </g>
   <g id="line2d_36">
    <path clip-path="url(#p29a9f5ebf7)" d="M 262.411879 172.684471 
L 263.626625 171.570823 
L 264.801618 170.456914 
L 265.940039 169.342765 
L 267.04463 168.228403 
L 268.117811 167.113855 
L 269.161749 165.999135 
L 270.178305 164.884256 
L 271.169171 163.769233 
L 272.13587 162.654082 
L 273.07979 161.538809 
L 274.002133 160.423423 
L 274.904033 159.307931 
L 275.786504 158.192343 
L 276.650478 157.07667 
L 277.496818 155.960911 
L 278.326319 154.845073 
L 279.139675 153.72916 
L 279.937564 152.613183 
L 280.720627 151.497136 
L 281.489424 150.381026 
L 282.244496 149.264862 
L 282.986317 148.148635 
L 283.715394 147.032365 
L 284.432135 145.916041 
L 285.136978 144.799675 
L 285.830279 143.683266 
L 286.512428 142.566804 
L 287.183746 141.45031 
L 287.844555 140.333773 
L 288.495192 139.217194 
L 289.135913 138.100593 
L 289.767021 136.98395 
L 290.388753 135.867275 
" style="fill:none;stroke:#800080;stroke-linecap:square;stroke-width:1.5;"/>
   </g>
   <g id="line2d_37">
    <path clip-path="url(#p29a9f5ebf7)" d="M 290.388753 135.867275 
L 291.93447 134.756174 
L 293.38352 133.644264 
L 294.749815 132.531703 
L 296.044016 131.41861 
L 297.274569 130.305068 
L 298.448258 129.191143 
L 299.570737 128.076898 
L 300.646677 126.962366 
L 301.680106 125.847588 
L 302.674407 124.732586 
L 303.632594 123.617382 
L 304.557238 122.502007 
L 305.450659 121.386472 
L 306.314887 120.270799 
L 307.15175 119.154998 
L 307.962889 118.039079 
L 308.749794 116.923044 
L 309.513785 115.806923 
L 310.256113 114.690695 
L 310.977897 113.574393 
L 311.680168 112.458016 
L 312.36389 111.341565 
L 313.029928 110.225049 
L 313.679094 109.10847 
L 314.312148 107.991837 
L 314.955271 106.875237 
L 315.613677 105.758689 
L 316.28777 104.642206 
L 316.977975 103.525776 
L 317.68473 102.40942 
L 318.408494 101.293129 
" style="fill:none;stroke:#800080;stroke-linecap:square;stroke-width:1.5;"/>
   </g>
   <g id="line2d_38">
    <path clip-path="url(#p29a9f5ebf7)" d="M 318.408494 101.293129 
L 332.188485 101.024388 
L 333.725994 102.135563 
L 335.003796 103.248774 
L 336.105121 104.363157 
L 337.076373 105.478287 
L 337.94671 106.593928 
L 338.735866 107.709942 
L 339.457988 108.826244 
L 340.123586 109.942771 
L 340.7408 111.059456 
L 341.315976 112.176292 
L 341.854276 113.293233 
L 342.359914 114.410271 
L 342.836375 115.527383 
L 343.286606 116.64457 
L 343.713127 117.761811 
L 344.118053 118.879104 
L 344.503281 119.99644 
L 344.870401 121.113819 
L 345.220851 122.23123 
L 345.555883 123.348662 
L 345.876633 124.466126 
L 346.184081 125.583612 
L 346.479123 126.701118 
L 346.762574 127.818636 
" style="fill:none;stroke:#800080;stroke-linecap:square;stroke-width:1.5;"/>
   </g>
   <g id="line2d_39">
    <path clip-path="url(#p29a9f5ebf7)" d="M 346.762574 127.818636 
L 347.318457 128.935535 
L 347.830289 130.052551 
L 348.304635 131.169674 
L 348.74659 132.286883 
L 349.160181 133.404155 
L 349.548743 134.52148 
L 349.929858 135.638827 
L 350.310652 136.756174 
L 350.691023 137.873521 
L 351.070936 138.990868 
L 351.450325 140.108215 
L 351.829105 141.225561 
L 352.207225 142.342919 
L 352.584617 143.460266 
L 352.961197 144.577623 
L 353.336914 145.694981 
L 353.7117 146.812338 
L 354.085436 147.929696 
L 354.458124 149.047064 
L 354.829626 150.164421 
L 355.199877 151.28179 
L 355.568841 152.399158 
L 355.936418 153.516537 
L 356.302539 154.63391 
L 356.667103 155.751289 
L 357.030043 156.868673 
L 357.39129 157.986057 
L 357.750743 159.103447 
L 358.108335 160.220841 
L 358.463963 161.338236 
L 358.817595 162.455636 
L 359.169094 163.573042 
L 359.518428 164.690453 
L 359.865459 165.807863 
L 360.210121 166.925285 
L 360.552347 168.042706 
L 360.892033 169.160133 
L 361.229114 170.277565 
L 361.563453 171.395003 
L 361.895016 172.512446 
L 362.223703 173.629894 
L 362.549411 174.747347 
L 362.872073 175.864806 
L 363.191587 176.98227 
L 363.507852 178.099745 
L 363.820799 179.217219 
L 364.130329 180.3347 
L 364.436372 181.45219 
L 364.738827 182.569681 
L 365.037627 183.687182 
L 365.332636 184.804689 
L 365.623786 185.922201 
L 365.911044 187.039719 
L 366.19424 188.157247 
L 366.473341 189.274775 
L 366.748245 190.392314 
L 367.018851 191.509858 
L 367.28509 192.627412 
L 367.546895 193.744967 
L 367.804165 194.862532 
L 368.056797 195.980103 
L 368.304725 197.097679 
L 368.547881 198.215263 
L 368.786163 199.332852 
L 369.019503 200.45045 
L 369.247833 201.568052 
L 369.471053 202.685663 
L 369.689095 203.803279 
L 369.90189 204.9209 
L 370.109337 206.03853 
L 370.311402 207.156164 
L 370.507985 208.273804 
L 370.69905 209.39145 
L 370.884497 210.509103 
L 371.064291 211.626762 
L 371.238298 212.744426 
L 371.40655 213.862092 
L 371.568914 214.979767 
L 371.725354 216.097447 
L 371.875803 217.215132 
L 372.020227 218.332823 
L 372.158559 219.450516 
L 372.290731 220.568216 
L 372.416709 221.68592 
L 372.536459 222.803628 
L 372.649913 223.92134 
L 372.757039 225.039056 
L 372.857801 226.156776 
L 372.952132 227.274498 
L 373.040032 228.392225 
L 373.121434 229.509954 
L 373.196337 230.627686 
L 373.264673 231.745421 
L 373.326444 232.863157 
L 373.381648 233.980896 
L 373.430218 235.098638 
L 373.472154 236.21638 
L 373.507423 237.334125 
L 373.536057 238.45187 
L 373.55799 239.569616 
L 373.573255 240.687363 
L 373.581818 241.805111 
" style="fill:none;stroke:#800080;stroke-linecap:square;stroke-width:1.5;"/>
   </g>
   <g id="patch_3">
    <path d="M 54 252 
L 54 34.56 
" style="fill:none;stroke:#000000;stroke-linecap:square;stroke-linejoin:miter;stroke-width:0.8;"/>
   </g>
   <g id="patch_4">
    <path d="M 388.8 252 
L 388.8 34.56 
" style="fill:none;stroke:#000000;stroke-linecap:square;stroke-linejoin:miter;stroke-width:0.8;"/>
   </g>
   <g id="patch_5">
    <path d="M 54 252 
L 388.8 252 
" style="fill:none;stroke:#000000;stroke-linecap:square;stroke-linejoin:miter;stroke-width:0.8;"/>
   </g>
   <g id="patch_6">
    <path d="M 54 34.56 
L 388.8 34.56 
" style="fill:none;stroke:#000000;stroke-linecap:square;stroke-linejoin:miter;stroke-width:0.8;"/>
   </g>
   <g id="text_14">
    <!-- controller -->
    <defs>
     <path d="M 48.78125 52.59375 
L 48.78125 44.1875 
Q 44.96875 46.296875 41.140625 47.34375 
Q 37.3125 48.390625 33.40625 48.390625 
Q 24.65625 48.390625 19.8125 42.84375 
Q 14.984375 37.3125 14.984375 27.296875 
Q 14.984375 17.28125 19.8125 11.734375 
Q 24.65625 6.203125 33.40625 6.203125 
Q 37.3125 6.203125 41.140625 7.25 
Q 44.96875 8.296875 48.78125 10.40625 
L 48.78125 2.09375 
Q 45.015625 0.34375 40.984375 -0.53125 
Q 36.96875 -1.421875 32.421875 -1.421875 
Q 20.0625 -1.421875 12.78125 6.34375 
Q 5.515625 14.109375 5.515625 27.296875 
Q 5.515625 40.671875 12.859375 48.328125 
Q 20.21875 56 33.015625 56 
Q 37.15625 56 41.109375 55.140625 
Q 45.0625 54.296875 48.78125 52.59375 
z
" id="DejaVuSans-99"/>
     <path d="M 30.609375 48.390625 
Q 23.390625 48.390625 19.1875 42.75 
Q 14.984375 37.109375 14.984375 27.296875 
Q 14.984375 17.484375 19.15625 11.84375 
Q 23.34375 6.203125 30.609375 6.203125 
Q 37.796875 6.203125 41.984375 11.859375 
Q 46.1875 17.53125 46.1875 27.296875 
Q 46.1875 37.015625 41.984375 42.703125 
Q 37.796875 48.390625 30.609375 48.390625 
z
M 30.609375 56 
Q 42.328125 56 49.015625 48.375 
Q 55.71875 40.765625 55.71875 27.296875 
Q 55.71875 13.875 49.015625 6.21875 
Q 42.328125 -1.421875 30.609375 -1.421875 
Q 18.84375 -1.421875 12.171875 6.21875 
Q 5.515625 13.875 5.515625 27.296875 
Q 5.515625 40.765625 12.171875 48.375 
Q 18.84375 56 30.609375 56 
z
" id="DejaVuSans-111"/>
     <path d="M 54.890625 33.015625 
L 54.890625 0 
L 45.90625 0 
L 45.90625 32.71875 
Q 45.90625 40.484375 42.875 44.328125 
Q 39.84375 48.1875 33.796875 48.1875 
Q 26.515625 48.1875 22.3125 43.546875 
Q 18.109375 38.921875 18.109375 30.90625 
L 18.109375 0 
L 9.078125 0 
L 9.078125 54.6875 
L 18.109375 54.6875 
L 18.109375 46.1875 
Q 21.34375 51.125 25.703125 53.5625 
Q 30.078125 56 35.796875 56 
Q 45.21875 56 50.046875 50.171875 
Q 54.890625 44.34375 54.890625 33.015625 
z
" id="DejaVuSans-110"/>
     <path d="M 18.3125 70.21875 
L 18.3125 54.6875 
L 36.8125 54.6875 
L 36.8125 47.703125 
L 18.3125 47.703125 
L 18.3125 18.015625 
Q 18.3125 11.328125 20.140625 9.421875 
Q 21.96875 7.515625 27.59375 7.515625 
L 36.8125 7.515625 
L 36.8125 0 
L 27.59375 0 
Q 17.1875 0 13.234375 3.875 
Q 9.28125 7.765625 9.28125 18.015625 
L 9.28125 47.703125 
L 2.6875 47.703125 
L 2.6875 54.6875 
L 9.28125 54.6875 
L 9.28125 70.21875 
z
" id="DejaVuSans-116"/>
     <path d="M 41.109375 46.296875 
Q 39.59375 47.171875 37.8125 47.578125 
Q 36.03125 48 33.890625 48 
Q 26.265625 48 22.1875 43.046875 
Q 18.109375 38.09375 18.109375 28.8125 
L 18.109375 0 
L 9.078125 0 
L 9.078125 54.6875 
L 18.109375 54.6875 
L 18.109375 46.1875 
Q 20.953125 51.171875 25.484375 53.578125 
Q 30.03125 56 36.53125 56 
Q 37.453125 56 38.578125 55.875 
Q 39.703125 55.765625 41.0625 55.515625 
z
" id="DejaVuSans-114"/>
     <path d="M 9.421875 75.984375 
L 18.40625 75.984375 
L 18.40625 0 
L 9.421875 0 
z
" id="DejaVuSans-108"/>
     <path d="M 56.203125 29.59375 
L 56.203125 25.203125 
L 14.890625 25.203125 
Q 15.484375 15.921875 20.484375 11.0625 
Q 25.484375 6.203125 34.421875 6.203125 
Q 39.59375 6.203125 44.453125 7.46875 
Q 49.3125 8.734375 54.109375 11.28125 
L 54.109375 2.78125 
Q 49.265625 0.734375 44.1875 -0.34375 
Q 39.109375 -1.421875 33.890625 -1.421875 
Q 20.796875 -1.421875 13.15625 6.1875 
Q 5.515625 13.8125 5.515625 26.8125 
Q 5.515625 40.234375 12.765625 48.109375 
Q 20.015625 56 32.328125 56 
Q 43.359375 56 49.78125 48.890625 
Q 56.203125 41.796875 56.203125 29.59375 
z
M 47.21875 32.234375 
Q 47.125 39.59375 43.09375 43.984375 
Q 39.0625 48.390625 32.421875 48.390625 
Q 24.90625 48.390625 20.390625 44.140625 
Q 15.875 39.890625 15.1875 32.171875 
z
" id="DejaVuSans-101"/>
    </defs>
    <g transform="translate(192.646875 28.56)scale(0.12 -0.12)">
     <use xlink:href="#DejaVuSans-99"/>
     <use x="54.980469" xlink:href="#DejaVuSans-111"/>
     <use x="116.162109" xlink:href="#DejaVuSans-110"/>
     <use x="179.541016" xlink:href="#DejaVuSans-116"/>
     <use x="218.75" xlink:href="#DejaVuSans-114"/>
     <use x="259.832031" xlink:href="#DejaVuSans-111"/>
     <use x="321.013672" xlink:href="#DejaVuSans-108"/>
     <use x="348.796875" xlink:href="#DejaVuSans-108"/>
     <use x="376.580078" xlink:href="#DejaVuSans-101"/>
     <use x="438.103516" xlink:href="#DejaVuSans-114"/>
    </g>
   </g>
  </g>
 </g>
 <defs>
  <clipPath id="p29a9f5ebf7">
   <rect height="217.44" width="334.8" x="54" y="34.56"/>
  </clipPath>
 </defs>
</svg>
