<?xml version="1.0" encoding="utf-8" standalone="no"?>
<!DOCTYPE svg PUBLIC "-//W3C//DTD SVG 1.1//EN"
  "http://www.w3.org/Graphics/SVG/1.1/DTD/svg11.dtd">
<!-- Created with matplotlib (https://matplotlib.org/) -->
<svg height="288pt" version="1.1" viewBox="0 0 432 288" width="432pt" xmlns="http://www.w3.org/2000/svg" xmlns:xlink="http://www.w3.org/1999/xlink">
 <defs>
  <style type="text/css">
*{stroke-linecap:butt;stroke-linejoin:round;}
  </style>
 </defs>
 <g id="figure_1">
  <g id="patch_1">
   <path d="M 0 288 
L 432 288 
L 432 0 
L 0 0 
z
" style="fill:#ffffff;"/>
  </g>
  <g id="axes_1">
   <g id="patch_2">
    <path d="M 54 252 
L 388.8 252 
L 388.8 34.56 
L 54 34.56 
z
" style="fill:#ffffff;"/>
   </g>
   <g id="matplotlib.axis_1">
    <g id="xtick_1">
     <g id="line2d_1">
      <path clip-path="url(#p75ee10cb12)" d="M 69.218182 252 
L 69.218182 34.56 
" style="fill:none;stroke:#b0b0b0;stroke-linecap:square;stroke-width:0.8;"/>
     </g>
     <g id="line2d_2">
      <defs>
       <path d="M 0 0 
L 0 3.5 
" id="m1477574b8b" style="stroke:#000000;stroke-width:0.8;"/>
      </defs>
      <g>
       <use style="stroke:#000000;stroke-width:0.8;" x="69.218182" xlink:href="#m1477574b8b" y="252"/>
      </g>
     </g>
     <g id="text_1">
      <!-- 0.0 -->
      <defs>
       <path d="M 31.78125 66.40625 
Q 24.171875 66.40625 20.328125 58.90625 
Q 16.5 51.421875 16.5 36.375 
Q 16.5 21.390625 20.328125 13.890625 
Q 24.171875 6.390625 31.78125 6.390625 
Q 39.453125 6.390625 43.28125 13.890625 
Q 47.125 21.390625 47.125 36.375 
Q 47.125 51.421875 43.28125 58.90625 
Q 39.453125 66.40625 31.78125 66.40625 
z
M 31.78125 74.21875 
Q 44.046875 74.21875 50.515625 64.515625 
Q 56.984375 54.828125 56.984375 36.375 
Q 56.984375 17.96875 50.515625 8.265625 
Q 44.046875 -1.421875 31.78125 -1.421875 
Q 19.53125 -1.421875 13.0625 8.265625 
Q 6.59375 17.96875 6.59375 36.375 
Q 6.59375 54.828125 13.0625 64.515625 
Q 19.53125 74.21875 31.78125 74.21875 
z
" id="DejaVuSans-48"/>
       <path d="M 10.6875 12.40625 
L 21 12.40625 
L 21 0 
L 10.6875 0 
z
" id="DejaVuSans-46"/>
      </defs>
      <g transform="translate(61.266619 266.598437)scale(0.1 -0.1)">
       <use xlink:href="#DejaVuSans-48"/>
       <use x="63.623047" xlink:href="#DejaVuSans-46"/>
       <use x="95.410156" xlink:href="#DejaVuSans-48"/>
      </g>
     </g>
    </g>
    <g id="xtick_2">
     <g id="line2d_3">
      <path clip-path="url(#p75ee10cb12)" d="M 129.561262 252 
L 129.561262 34.56 
" style="fill:none;stroke:#b0b0b0;stroke-linecap:square;stroke-width:0.8;"/>
     </g>
     <g id="line2d_4">
      <g>
       <use style="stroke:#000000;stroke-width:0.8;" x="129.561262" xlink:href="#m1477574b8b" y="252"/>
      </g>
     </g>
     <g id="text_2">
      <!-- 0.2 -->
      <defs>
       <path d="M 19.1875 8.296875 
L 53.609375 8.296875 
L 53.609375 0 
L 7.328125 0 
L 7.328125 8.296875 
Q 12.9375 14.109375 22.625 23.890625 
Q 32.328125 33.6875 34.8125 36.53125 
Q 39.546875 41.84375 41.421875 45.53125 
Q 43.3125 49.21875 43.3125 52.78125 
Q 43.3125 58.59375 39.234375 62.25 
Q 35.15625 65.921875 28.609375 65.921875 
Q 23.96875 65.921875 18.8125 64.3125 
Q 13.671875 62.703125 7.8125 59.421875 
L 7.8125 69.390625 
Q 13.765625 71.78125 18.9375 73 
Q 24.125 74.21875 28.421875 74.21875 
Q 39.75 74.21875 46.484375 68.546875 
Q 53.21875 62.890625 53.21875 53.421875 
Q 53.21875 48.921875 51.53125 44.890625 
Q 49.859375 40.875 45.40625 35.40625 
Q 44.1875 33.984375 37.640625 27.21875 
Q 31.109375 20.453125 19.1875 8.296875 
z
" id="DejaVuSans-50"/>
      </defs>
      <g transform="translate(121.6097 266.598437)scale(0.1 -0.1)">
       <use xlink:href="#DejaVuSans-48"/>
       <use x="63.623047" xlink:href="#DejaVuSans-46"/>
       <use x="95.410156" xlink:href="#DejaVuSans-50"/>
      </g>
     </g>
    </g>
    <g id="xtick_3">
     <g id="line2d_5">
      <path clip-path="url(#p75ee10cb12)" d="M 189.904342 252 
L 189.904342 34.56 
" style="fill:none;stroke:#b0b0b0;stroke-linecap:square;stroke-width:0.8;"/>
     </g>
     <g id="line2d_6">
      <g>
       <use style="stroke:#000000;stroke-width:0.8;" x="189.904342" xlink:href="#m1477574b8b" y="252"/>
      </g>
     </g>
     <g id="text_3">
      <!-- 0.4 -->
      <defs>
       <path d="M 37.796875 64.3125 
L 12.890625 25.390625 
L 37.796875 25.390625 
z
M 35.203125 72.90625 
L 47.609375 72.90625 
L 47.609375 25.390625 
L 58.015625 25.390625 
L 58.015625 17.1875 
L 47.609375 17.1875 
L 47.609375 0 
L 37.796875 0 
L 37.796875 17.1875 
L 4.890625 17.1875 
L 4.890625 26.703125 
z
" id="DejaVuSans-52"/>
      </defs>
      <g transform="translate(181.95278 266.598437)scale(0.1 -0.1)">
       <use xlink:href="#DejaVuSans-48"/>
       <use x="63.623047" xlink:href="#DejaVuSans-46"/>
       <use x="95.410156" xlink:href="#DejaVuSans-52"/>
      </g>
     </g>
    </g>
    <g id="xtick_4">
     <g id="line2d_7">
      <path clip-path="url(#p75ee10cb12)" d="M 250.247423 252 
L 250.247423 34.56 
" style="fill:none;stroke:#b0b0b0;stroke-linecap:square;stroke-width:0.8;"/>
     </g>
     <g id="line2d_8">
      <g>
       <use style="stroke:#000000;stroke-width:0.8;" x="250.247423" xlink:href="#m1477574b8b" y="252"/>
      </g>
     </g>
     <g id="text_4">
      <!-- 0.6 -->
      <defs>
       <path d="M 33.015625 40.375 
Q 26.375 40.375 22.484375 35.828125 
Q 18.609375 31.296875 18.609375 23.390625 
Q 18.609375 15.53125 22.484375 10.953125 
Q 26.375 6.390625 33.015625 6.390625 
Q 39.65625 6.390625 43.53125 10.953125 
Q 47.40625 15.53125 47.40625 23.390625 
Q 47.40625 31.296875 43.53125 35.828125 
Q 39.65625 40.375 33.015625 40.375 
z
M 52.59375 71.296875 
L 52.59375 62.3125 
Q 48.875 64.0625 45.09375 64.984375 
Q 41.3125 65.921875 37.59375 65.921875 
Q 27.828125 65.921875 22.671875 59.328125 
Q 17.53125 52.734375 16.796875 39.40625 
Q 19.671875 43.65625 24.015625 45.921875 
Q 28.375 48.1875 33.59375 48.1875 
Q 44.578125 48.1875 50.953125 41.515625 
Q 57.328125 34.859375 57.328125 23.390625 
Q 57.328125 12.15625 50.6875 5.359375 
Q 44.046875 -1.421875 33.015625 -1.421875 
Q 20.359375 -1.421875 13.671875 8.265625 
Q 6.984375 17.96875 6.984375 36.375 
Q 6.984375 53.65625 15.1875 63.9375 
Q 23.390625 74.21875 37.203125 74.21875 
Q 40.921875 74.21875 44.703125 73.484375 
Q 48.484375 72.75 52.59375 71.296875 
z
" id="DejaVuSans-54"/>
      </defs>
      <g transform="translate(242.29586 266.598437)scale(0.1 -0.1)">
       <use xlink:href="#DejaVuSans-48"/>
       <use x="63.623047" xlink:href="#DejaVuSans-46"/>
       <use x="95.410156" xlink:href="#DejaVuSans-54"/>
      </g>
     </g>
    </g>
    <g id="xtick_5">
     <g id="line2d_9">
      <path clip-path="url(#p75ee10cb12)" d="M 310.590503 252 
L 310.590503 34.56 
" style="fill:none;stroke:#b0b0b0;stroke-linecap:square;stroke-width:0.8;"/>
     </g>
     <g id="line2d_10">
      <g>
       <use style="stroke:#000000;stroke-width:0.8;" x="310.590503" xlink:href="#m1477574b8b" y="252"/>
      </g>
     </g>
     <g id="text_5">
      <!-- 0.8 -->
      <defs>
       <path d="M 31.78125 34.625 
Q 24.75 34.625 20.71875 30.859375 
Q 16.703125 27.09375 16.703125 20.515625 
Q 16.703125 13.921875 20.71875 10.15625 
Q 24.75 6.390625 31.78125 6.390625 
Q 38.8125 6.390625 42.859375 10.171875 
Q 46.921875 13.96875 46.921875 20.515625 
Q 46.921875 27.09375 42.890625 30.859375 
Q 38.875 34.625 31.78125 34.625 
z
M 21.921875 38.8125 
Q 15.578125 40.375 12.03125 44.71875 
Q 8.5 49.078125 8.5 55.328125 
Q 8.5 64.0625 14.71875 69.140625 
Q 20.953125 74.21875 31.78125 74.21875 
Q 42.671875 74.21875 48.875 69.140625 
Q 55.078125 64.0625 55.078125 55.328125 
Q 55.078125 49.078125 51.53125 44.71875 
Q 48 40.375 41.703125 38.8125 
Q 48.828125 37.15625 52.796875 32.3125 
Q 56.78125 27.484375 56.78125 20.515625 
Q 56.78125 9.90625 50.3125 4.234375 
Q 43.84375 -1.421875 31.78125 -1.421875 
Q 19.734375 -1.421875 13.25 4.234375 
Q 6.78125 9.90625 6.78125 20.515625 
Q 6.78125 27.484375 10.78125 32.3125 
Q 14.796875 37.15625 21.921875 38.8125 
z
M 18.3125 54.390625 
Q 18.3125 48.734375 21.84375 45.5625 
Q 25.390625 42.390625 31.78125 42.390625 
Q 38.140625 42.390625 41.71875 45.5625 
Q 45.3125 48.734375 45.3125 54.390625 
Q 45.3125 60.0625 41.71875 63.234375 
Q 38.140625 66.40625 31.78125 66.40625 
Q 25.390625 66.40625 21.84375 63.234375 
Q 18.3125 60.0625 18.3125 54.390625 
z
" id="DejaVuSans-56"/>
      </defs>
      <g transform="translate(302.638941 266.598437)scale(0.1 -0.1)">
       <use xlink:href="#DejaVuSans-48"/>
       <use x="63.623047" xlink:href="#DejaVuSans-46"/>
       <use x="95.410156" xlink:href="#DejaVuSans-56"/>
      </g>
     </g>
    </g>
    <g id="xtick_6">
     <g id="line2d_11">
      <path clip-path="url(#p75ee10cb12)" d="M 370.933583 252 
L 370.933583 34.56 
" style="fill:none;stroke:#b0b0b0;stroke-linecap:square;stroke-width:0.8;"/>
     </g>
     <g id="line2d_12">
      <g>
       <use style="stroke:#000000;stroke-width:0.8;" x="370.933583" xlink:href="#m1477574b8b" y="252"/>
      </g>
     </g>
     <g id="text_6">
      <!-- 1.0 -->
      <defs>
       <path d="M 12.40625 8.296875 
L 28.515625 8.296875 
L 28.515625 63.921875 
L 10.984375 60.40625 
L 10.984375 69.390625 
L 28.421875 72.90625 
L 38.28125 72.90625 
L 38.28125 8.296875 
L 54.390625 8.296875 
L 54.390625 0 
L 12.40625 0 
z
" id="DejaVuSans-49"/>
      </defs>
      <g transform="translate(362.982021 266.598437)scale(0.1 -0.1)">
       <use xlink:href="#DejaVuSans-49"/>
       <use x="63.623047" xlink:href="#DejaVuSans-46"/>
       <use x="95.410156" xlink:href="#DejaVuSans-48"/>
      </g>
     </g>
    </g>
    <g id="text_7">
     <!-- $x_1$ -->
     <defs>
      <path d="M 60.015625 54.6875 
L 34.90625 27.875 
L 50.296875 0 
L 39.984375 0 
L 28.421875 21.6875 
L 8.296875 0 
L -2.59375 0 
L 24.3125 28.8125 
L 10.015625 54.6875 
L 20.3125 54.6875 
L 30.8125 34.90625 
L 49.125 54.6875 
z
" id="DejaVuSans-Oblique-120"/>
     </defs>
     <g transform="translate(216.05 280.276563)scale(0.1 -0.1)">
      <use transform="translate(0 0.3125)" xlink:href="#DejaVuSans-Oblique-120"/>
      <use transform="translate(59.179688 -16.09375)scale(0.7)" xlink:href="#DejaVuSans-49"/>
     </g>
    </g>
   </g>
   <g id="matplotlib.axis_2">
    <g id="ytick_1">
     <g id="line2d_13">
      <path clip-path="url(#p75ee10cb12)" d="M 54 242.116364 
L 388.8 242.116364 
" style="fill:none;stroke:#b0b0b0;stroke-linecap:square;stroke-width:0.8;"/>
     </g>
     <g id="line2d_14">
      <defs>
       <path d="M 0 0 
L -3.5 0 
" id="m8f0a0789f8" style="stroke:#000000;stroke-width:0.8;"/>
      </defs>
      <g>
       <use style="stroke:#000000;stroke-width:0.8;" x="54" xlink:href="#m8f0a0789f8" y="242.116364"/>
      </g>
     </g>
     <g id="text_8">
      <!-- 0 -->
      <g transform="translate(40.6375 245.915582)scale(0.1 -0.1)">
       <use xlink:href="#DejaVuSans-48"/>
      </g>
     </g>
    </g>
    <g id="ytick_2">
     <g id="line2d_15">
      <path clip-path="url(#p75ee10cb12)" d="M 54 197.406458 
L 388.8 197.406458 
" style="fill:none;stroke:#b0b0b0;stroke-linecap:square;stroke-width:0.8;"/>
     </g>
     <g id="line2d_16">
      <g>
       <use style="stroke:#000000;stroke-width:0.8;" x="54" xlink:href="#m8f0a0789f8" y="197.406458"/>
      </g>
     </g>
     <g id="text_9">
      <!-- 2 -->
      <g transform="translate(40.6375 201.205677)scale(0.1 -0.1)">
       <use xlink:href="#DejaVuSans-50"/>
      </g>
     </g>
    </g>
    <g id="ytick_3">
     <g id="line2d_17">
      <path clip-path="url(#p75ee10cb12)" d="M 54 152.696552 
L 388.8 152.696552 
" style="fill:none;stroke:#b0b0b0;stroke-linecap:square;stroke-width:0.8;"/>
     </g>
     <g id="line2d_18">
      <g>
       <use style="stroke:#000000;stroke-width:0.8;" x="54" xlink:href="#m8f0a0789f8" y="152.696552"/>
      </g>
     </g>
     <g id="text_10">
      <!-- 4 -->
      <g transform="translate(40.6375 156.495771)scale(0.1 -0.1)">
       <use xlink:href="#DejaVuSans-52"/>
      </g>
     </g>
    </g>
    <g id="ytick_4">
     <g id="line2d_19">
      <path clip-path="url(#p75ee10cb12)" d="M 54 107.986646 
L 388.8 107.986646 
" style="fill:none;stroke:#b0b0b0;stroke-linecap:square;stroke-width:0.8;"/>
     </g>
     <g id="line2d_20">
      <g>
       <use style="stroke:#000000;stroke-width:0.8;" x="54" xlink:href="#m8f0a0789f8" y="107.986646"/>
      </g>
     </g>
     <g id="text_11">
      <!-- 6 -->
      <g transform="translate(40.6375 111.785865)scale(0.1 -0.1)">
       <use xlink:href="#DejaVuSans-54"/>
      </g>
     </g>
    </g>
    <g id="ytick_5">
     <g id="line2d_21">
      <path clip-path="url(#p75ee10cb12)" d="M 54 63.27674 
L 388.8 63.27674 
" style="fill:none;stroke:#b0b0b0;stroke-linecap:square;stroke-width:0.8;"/>
     </g>
     <g id="line2d_22">
      <g>
       <use style="stroke:#000000;stroke-width:0.8;" x="54" xlink:href="#m8f0a0789f8" y="63.27674"/>
      </g>
     </g>
     <g id="text_12">
      <!-- 8 -->
      <g transform="translate(40.6375 67.075959)scale(0.1 -0.1)">
       <use xlink:href="#DejaVuSans-56"/>
      </g>
     </g>
    </g>
    <g id="text_13">
     <!-- $x_2$ -->
     <g transform="translate(34.557813 148.63)rotate(-90)scale(0.1 -0.1)">
      <use transform="translate(0 0.3125)" xlink:href="#DejaVuSans-Oblique-120"/>
      <use transform="translate(59.179688 -16.09375)scale(0.7)" xlink:href="#DejaVuSans-50"/>
     </g>
    </g>
   </g>
   <g id="line2d_23">
    <path clip-path="url(#p75ee10cb12)" d="M 370.933583 52.099264 
L 369.993561 50.983686 
L 368.88629 49.868962 
L 367.54543 48.755623 
L 365.855489 47.644928 
L 363.587878 46.539861 
L 360.184313 45.450933 
L 353.645983 44.443636 
L 338.696237 44.593405 
L 329.034689 45.451849 
L 317.439774 46.1669 
L 302.36461 46.208793 
" style="fill:none;stroke:#ffa500;stroke-linecap:square;stroke-width:1.5;"/>
   </g>
   <g id="line2d_24">
    <path clip-path="url(#p75ee10cb12)" d="M 370.933583 179.522496 
L 370.851218 180.640227 
L 370.770436 181.757958 
L 370.691272 182.875688 
L 370.61369 183.993424 
L 370.537692 185.111155 
L 370.463257 186.228891 
L 370.390406 187.346627 
L 370.3191 188.464363 
L 370.24936 189.582098 
L 370.181166 190.699834 
L 370.114519 191.81757 
L 370.049418 192.935306 
L 369.985828 194.053042 
L 369.923766 195.170783 
L 369.863233 196.288519 
L 369.804211 197.406261 
L 369.746699 198.523999 
L 369.69068 199.64174 
L 369.636172 200.759479 
L 369.583138 201.87722 
L 369.531615 202.994961 
L 369.481566 204.112703 
L 369.432993 205.230444 
L 369.385893 206.348188 
L 369.340269 207.465929 
L 369.296119 208.583673 
L 369.253426 209.701417 
L 369.212189 210.819158 
L 369.17241 211.936902 
L 369.134069 213.054646 
L 369.097202 214.172393 
L 369.061756 215.290137 
L 369.027767 216.40788 
L 368.995217 217.525627 
L 368.964087 218.643371 
L 368.934414 219.761118 
L 368.906162 220.878863 
L 368.87933 221.996608 
L 368.853919 223.114355 
L 368.829947 224.2321 
L 368.807396 225.349846 
L 368.786265 226.467593 
L 368.766537 227.58534 
L 368.74823 228.703086 
L 368.731343 229.820834 
L 368.715859 230.938581 
L 368.701796 232.056328 
L 368.689153 233.174075 
L 368.677896 234.291822 
L 368.668058 235.40957 
L 368.659624 236.527318 
L 368.652611 237.645065 
L 368.646982 238.762812 
L 368.642773 239.88056 
L 368.639968 240.998308 
L 368.638565 242.116055 
" style="fill:none;stroke:#ffa500;stroke-linecap:square;stroke-width:1.5;"/>
   </g>
   <g id="line2d_25">
    <path clip-path="url(#p75ee10cb12)" d="M 69.218182 242.116364 
L 72.24263 242.116364 
L 75.267078 242.116364 
L 78.291526 242.116364 
L 81.315975 242.116364 
L 84.340423 242.116364 
L 87.364871 242.116364 
L 90.38932 242.116364 
L 93.413768 242.116364 
L 96.438216 242.116364 
L 99.462664 242.116364 
L 102.487112 242.116364 
L 105.51156 242.116364 
L 108.53601 242.116364 
L 111.560458 242.116364 
L 114.584906 242.116364 
L 117.609354 242.116364 
L 120.633802 242.116364 
L 123.65825 242.116364 
L 126.682698 242.116364 
L 129.707146 242.116364 
L 132.731594 242.116364 
L 135.756042 242.116364 
L 138.78049 242.116364 
L 141.804938 242.116364 
L 144.829386 242.116364 
L 147.853839 242.116364 
L 150.878282 242.116364 
L 153.902735 242.116364 
L 156.927178 242.116364 
L 159.951631 242.116364 
L 162.976074 242.116364 
L 166.000527 242.116364 
L 169.02497 242.116364 
L 172.049423 242.116364 
L 175.073866 242.116364 
L 178.098319 242.116364 
L 181.122771 242.116364 
L 184.147215 242.116364 
L 187.171667 242.116364 
L 190.196111 242.116364 
L 193.220563 242.116364 
L 196.245007 242.116364 
L 199.269459 242.116364 
L 202.293903 242.116364 
L 205.318355 242.116364 
L 208.342799 242.116364 
L 211.367251 242.116364 
L 214.391695 242.116364 
L 217.416147 242.116364 
L 220.440591 242.116364 
L 223.465043 242.116364 
L 226.489496 242.116364 
L 229.51393 242.116364 
L 232.538383 242.116364 
L 235.562835 242.116364 
L 238.587288 242.116364 
L 241.61174 242.116364 
L 244.636175 242.116364 
L 247.660627 242.116364 
L 250.68508 242.116364 
L 253.709532 242.116364 
L 256.733967 242.116364 
L 259.758419 242.116364 
L 262.782872 242.116364 
L 265.807324 242.116364 
L 268.831759 242.116364 
L 271.856211 242.116364 
L 274.880664 242.116364 
L 277.905116 242.116364 
L 280.929551 242.116364 
L 283.954003 242.116364 
L 286.978456 242.116364 
L 290.002908 242.116364 
L 293.027361 242.116364 
L 296.051795 242.116364 
L 299.076248 242.116364 
L 302.1007 242.116364 
L 305.125153 242.116364 
L 308.149587 242.116364 
L 311.17404 242.116364 
L 314.198492 242.116364 
L 317.222945 242.116364 
L 320.247379 242.116364 
L 323.271832 242.116364 
L 326.296284 242.116364 
L 329.320737 242.116364 
L 332.345171 242.116364 
L 335.369624 242.116364 
L 338.394076 242.116364 
L 341.418529 242.116364 
L 344.442981 242.116364 
L 347.467416 242.116364 
L 350.491868 242.116364 
L 353.516321 242.116364 
L 356.540773 242.116364 
L 359.565208 242.116364 
L 362.58966 242.116364 
L 365.614113 242.116364 
L 368.638565 242.116364 
" style="fill:none;stroke:#ffa500;stroke-linecap:square;stroke-width:1.5;"/>
   </g>
   <g id="line2d_26">
    <path clip-path="url(#p75ee10cb12)" d="M 286.45328 69.214775 
L 289.470431 71.834496 
L 292.487582 71.834496 
L 295.504733 69.214775 
L 298.521884 60.154906 
L 301.539035 48.257006 
L 302.36461 46.208793 
" style="fill:none;stroke:#ffa500;stroke-linecap:square;stroke-width:1.5;"/>
   </g>
   <g id="line2d_27">
    <path clip-path="url(#p75ee10cb12)" d="M 286.45328 91.569727 
L 286.299861 91.346471 
L 286.146209 91.123204 
L 285.992323 90.899948 
L 285.838221 90.676692 
L 285.683904 90.453436 
L 285.52937 90.23018 
L 285.374657 90.006924 
L 285.219728 89.783667 
L 285.064619 89.560411 
L 284.909348 89.337166 
L 284.75388 89.11391 
L 284.598267 88.890653 
L 284.442511 88.667408 
L 284.286593 88.444152 
L 284.130531 88.220906 
L 283.974361 87.99765 
L 283.818047 87.774404 
L 283.661625 87.551159 
L 283.505096 87.327903 
L 283.348476 87.104657 
L 283.191767 86.881412 
L 283.034985 86.658166 
L 282.878114 86.434921 
L 282.721189 86.211665 
L 282.564192 85.988419 
L 282.407159 85.765174 
L 282.250089 85.541928 
L 282.092984 85.318683 
L 281.935861 85.095437 
L 281.778702 84.872191 
L 281.621561 84.648946 
L 281.464402 84.4257 
L 281.307261 84.202455 
L 281.150138 83.979209 
L 280.993051 83.755964 
L 280.835982 83.532718 
L 280.678949 83.309473 
L 280.521988 83.086217 
L 280.365062 82.862971 
L 280.208227 82.639726 
L 280.051446 82.41648 
L 279.894754 82.193235 
L 279.738153 81.969978 
L 279.581641 81.746733 
L 279.425237 81.523487 
L 279.268942 81.300231 
L 279.112772 81.076986 
L 278.956728 80.85374 
L 278.800827 80.630484 
L 278.645053 80.407239 
L 278.489441 80.183982 
L 278.333972 79.960726 
L 278.178683 79.737481 
L 278.023557 79.514224 
L 277.86861 79.290968 
L 277.713842 79.067712 
L 277.559273 78.844456 
L 277.404883 78.6212 
" style="fill:none;stroke:#ffa500;stroke-linecap:square;stroke-width:1.5;"/>
   </g>
   <g id="line2d_28">
    <path clip-path="url(#p75ee10cb12)" d="M 277.401808 78.6212 
L 277.247652 78.397944 
L 277.093695 78.174687 
L 276.93997 77.951421 
L 276.786462 77.728164 
L 276.633187 77.504908 
L 276.480147 77.281641 
L 276.32734 77.058375 
L 276.174784 76.835118 
L 276.022481 76.611852 
L 275.870429 76.388585 
L 275.718665 76.165318 
L 275.567153 75.942051 
L 275.415911 75.718784 
L 275.264956 75.495517 
L 275.114289 75.27224 
L 274.96391 75.048973 
L 274.813819 74.825696 
L 274.664033 74.602429 
L 274.514553 74.379151 
L 274.365379 74.155874 
L 274.216528 73.932596 
L 274.067983 73.709319 
L 273.919762 73.486041 
L 273.771865 73.262753 
L 273.624309 73.039476 
L 273.477077 72.816187 
L 273.330186 72.59291 
L 273.183638 72.369622 
L 273.037431 72.146334 
L 272.891565 71.923046 
L 272.74606 71.699757 
L 272.600914 71.476469 
L 272.45611 71.25317 
L 272.311683 71.029882 
L 272.167598 70.806583 
L 272.023909 70.583295 
L 271.880561 70.359996 
L 271.737609 70.136698 
L 271.595017 69.913399 
L 271.452802 69.6901 
L 271.310965 69.466791 
L 271.169524 69.243492 
L 271.028442 69.020182 
L 270.887756 68.796873 
L 270.747466 68.573574 
L 270.607553 68.350264 
L 270.468036 68.126955 
L 270.328915 67.903635 
L 270.190189 67.680325 
L 270.051859 67.457016 
L 269.913924 67.233696 
L 269.776385 67.010376 
L 269.639242 66.787056 
L 269.502513 66.563735 
L 269.366179 66.340415 
L 269.23024 66.117095 
L 269.094716 65.893775 
L 268.959587 65.670444 
L 268.824871 65.447124 
L 268.690551 65.223793 
L 268.556645 65.000462 
L 268.423153 64.777132 
L 268.290074 64.553801 
L 268.15739 64.33047 
L 268.025121 64.107129 
L 267.893247 63.883798 
L 267.761804 63.660456 
L 267.630757 63.437126 
L 267.500124 63.213784 
L 267.369887 62.990443 
L 267.240081 62.767101 
L 267.110671 62.54376 
L 266.981674 62.320418 
L 266.853091 62.097056 
L 266.724922 61.873714 
L 266.597148 61.650373 
L 266.469788 61.42701 
L 266.342841 61.203668 
L 266.216308 60.980306 
L 266.090171 60.756964 
L 265.964447 60.533601 
L 265.839119 60.310239 
L 265.714205 60.086897 
L 265.589704 59.863534 
L 265.465599 59.640172 
L 265.341908 59.416809 
L 265.218612 59.193446 
L 265.09573 58.970083 
L 264.973225 58.746721 
L 264.851152 58.523358 
L 264.729457 58.299974 
L 264.608175 58.076611 
L 264.487289 57.853248 
L 264.366799 57.629864 
L 264.246704 57.406501 
L 264.127005 57.183117 
L 264.007702 56.959754 
L 263.888794 56.73637 
L 263.770282 56.512986 
L 263.652165 56.289624 
L 263.534426 56.066239 
L 263.417083 55.842855 
L 263.300135 55.619471 
L 263.183565 55.396087 
L 259.298883 60.154906 
L 256.281732 64.848573 
L 253.264581 71.834496 
L 250.24743 76.200697 
L 247.230261 83.18662 
L 244.21311 90.172543 
L 241.195959 97.158466 
L 238.178807 99.778187 
L 235.161656 104.144389 
L 232.144505 106.76411 
L 229.127336 106.76411 
L 226.110185 106.76411 
L 223.093034 104.144389 
L 220.075883 102.070443 
L 217.058731 97.158466 
L 214.041571 92.792264 
L 211.02442 85.806341 
L 208.007269 78.820418 
L 204.990109 69.214775 
L 201.972958 62.228852 
" style="fill:none;stroke:#ffa500;stroke-linecap:square;stroke-width:1.5;"/>
   </g>
   <g id="line2d_29">
    <path clip-path="url(#p75ee10cb12)" d="M 201.972958 84.583805 
L 201.919447 84.360293 
L 201.865856 84.136781 
L 201.812202 83.913258 
L 201.758467 83.689746 
L 201.704669 83.466234 
L 201.65079 83.242722 
L 201.596848 83.01921 
L 201.542834 82.795687 
L 201.488748 82.572175 
L 201.434591 82.348663 
L 201.38037 82.125151 
L 201.326068 81.901639 
L 201.271704 81.678127 
L 201.217267 81.454615 
L 201.162759 81.231103 
L 201.108188 81.007591 
L 201.053544 80.784069 
L 200.998829 80.560557 
L 200.944051 80.337045 
L 200.889201 80.113533 
L 200.834279 79.890021 
L 200.779294 79.666509 
L 200.724246 79.442997 
L 200.669117 79.219485 
L 200.613934 78.995973 
L 200.558679 78.772461 
L 200.503353 78.548949 
L 200.447963 78.325437 
L 200.392511 78.101925 
L 200.336986 77.878413 
L 200.281399 77.6549 
L 200.225739 77.431388 
L 200.170026 77.207876 
L 200.114241 76.984364 
L 200.058384 76.760852 
L 200.002472 76.537351 
L 199.946489 76.313839 
L 199.890443 76.090327 
L 199.834334 75.866815 
L 199.778163 75.643303 
L 199.721928 75.419791 
L 199.66563 75.196279 
L 199.609269 74.972767 
L 199.552837 74.749255 
L 199.49635 74.525754 
L 199.4398 74.302242 
L 199.383179 74.07873 
L 199.326503 73.855218 
L 199.269765 73.631706 
L 199.212973 73.408204 
L 199.156108 73.184692 
L 199.099181 72.96118 
L 199.0422 72.737668 
L 198.985156 72.514156 
" style="fill:none;stroke:#ffa500;stroke-linecap:square;stroke-width:1.5;"/>
   </g>
   <g id="line2d_30">
    <path clip-path="url(#p75ee10cb12)" d="M 198.955807 72.514156 
L 198.898709 72.290655 
L 198.841557 72.067143 
L 198.784351 71.843631 
L 198.727073 71.620119 
L 198.669741 71.396618 
L 198.612355 71.173106 
L 198.554906 70.949594 
L 198.497395 70.726092 
L 198.439829 70.50258 
L 198.382201 70.279068 
L 198.324518 70.055556 
L 198.266782 69.832055 
L 198.208982 69.608543 
L 198.151129 69.385031 
L 198.093221 69.161529 
L 198.035251 68.938017 
L 197.977227 68.714505 
L 197.919149 68.491004 
L 197.861017 68.267492 
L 197.802831 68.043991 
L 197.744582 67.820479 
L 197.686279 67.596967 
L 197.627931 67.373465 
L 197.56952 67.149953 
L 197.511055 66.926452 
L 197.452536 66.70294 
L 197.393964 66.479428 
L 197.335346 66.255927 
L 197.276665 66.032415 
L 197.21794 65.808913 
L 197.159151 65.585401 
L 197.100318 65.3619 
L 197.04143 65.138388 
L 196.982498 64.914887 
L 196.923503 64.691375 
L 196.864462 64.467873 
L 196.805377 64.244361 
L 196.746238 64.02086 
L 196.687045 63.797348 
L 196.627798 63.573847 
L 196.568506 63.350335 
L 196.509169 63.126823 
L 196.449778 62.903332 
L 196.390342 62.67982 
L 196.330852 62.456308 
L 196.271317 62.232817 
L 196.211737 62.009305 
L 196.152103 61.785793 
L 196.092425 61.562281 
L 196.032701 61.33879 
L 195.972932 61.115278 
L 195.91311 60.891766 
L 195.853251 60.668276 
L 195.793339 60.444764 
L 195.733381 60.221252 
L 195.673379 59.99774 
L 195.613331 59.774249 
L 195.553239 59.550737 
L 195.493102 59.327225 
L 195.432929 59.103734 
L 195.372701 58.880222 
L 195.312438 58.65671 
L 195.252121 58.43322 
L 195.191768 58.209708 
L 195.13137 57.986196 
L 195.070936 57.762705 
L 195.010457 57.539193 
L 194.949933 57.315681 
L 194.889373 57.09219 
L 194.828759 56.868678 
L 194.768118 56.645188 
L 194.707433 56.421676 
L 194.646702 56.198164 
L 194.585935 55.974673 
L 194.525132 55.751161 
L 194.464285 55.527649 
L 194.403401 55.304158 
L 194.342473 55.080646 
L 194.281517 54.857155 
L 189.904344 60.154906 
L 186.887184 64.848573 
L 183.870033 69.214775 
L 180.852882 76.200697 
L 177.835731 80.785209 
L 174.818571 87.771132 
" style="fill:none;stroke:#ffa500;stroke-linecap:square;stroke-width:1.5;"/>
   </g>
   <g id="line2d_31">
    <path clip-path="url(#p75ee10cb12)" d="M 174.818571 110.126085 
L 174.781551 109.902552 
L 174.744496 109.679018 
L 174.707396 109.455485 
L 174.67026 109.231952 
L 174.633078 109.008418 
L 174.595861 108.784885 
L 174.558608 108.561352 
L 174.52131 108.337829 
L 174.483985 108.114296 
L 174.446606 107.890762 
L 174.4092 107.667229 
L 174.371758 107.443696 
L 174.334271 107.220162 
L 174.296748 106.996629 
L 174.259189 106.773096 
L 174.221586 106.549562 
L 174.183955 106.326029 
L 174.146279 106.102506 
L 174.108568 105.878973 
L 174.07082 105.65544 
L 174.033036 105.431906 
L 173.995217 105.208373 
L 173.957361 104.98484 
L 173.91947 104.761306 
L 173.881542 104.537773 
L 173.84357 104.31425 
L 173.80557 104.090717 
L 173.767535 103.867184 
L 173.729463 103.64365 
L 173.691356 103.420117 
L 173.653204 103.196584 
L 173.615025 102.973061 
L 173.576809 102.749528 
L 173.538567 102.525994 
L 173.50028 102.302461 
L 173.461957 102.078928 
L 173.423607 101.855394 
L 173.385221 101.631872 
L 173.346799 101.408338 
L 173.308341 101.184805 
L 173.269847 100.961272 
L 173.231326 100.737738 
L 173.192769 100.514205 
L 173.154176 100.290682 
L 173.115547 100.067149 
L 173.076891 99.843616 
L 173.038199 99.620083 
L 172.999481 99.396549 
L 172.960717 99.173027 
L 172.921935 98.949493 
L 172.883108 98.72596 
L 172.844255 98.502427 
L 172.805365 98.278904 
L 172.766449 98.055371 
L 172.727496 97.831837 
L 172.688516 97.608304 
L 172.649501 97.384771 
L 172.610458 97.161248 
L 172.57138 96.937715 
L 172.532275 96.714181 
L 172.493133 96.490648 
L 172.453965 96.267125 
L 172.41476 96.043592 
L 172.375529 95.820059 
L 172.336271 95.596525 
L 172.296977 95.373003 
L 172.257655 95.149469 
L 172.218307 94.925936 
L 172.178923 94.702403 
L 172.139512 94.47888 
L 172.100074 94.255347 
L 172.059602 94.031813 
L 172.01627 93.808291 
L 171.969737 93.584768 
L 171.91959 93.361245 
L 171.865369 93.137733 
L 171.8065 92.914232 
L 171.742325 92.690731 
L 171.672036 92.46724 
L 171.594635 92.243771 
L 171.508916 92.020301 
L 171.413377 91.796864 
L 171.306141 91.573458 
L 171.184805 91.350096 
L 171.046304 91.126775 
L 170.886646 90.903541 
L 170.70056 90.680412 
L 170.481106 90.457465 
L 170.218976 90.234753 
L 169.90188 90.012445 
L 169.513838 89.790756 
L 169.035212 89.570037 
L 168.444449 89.35081 
L 167.723126 89.133747 
L 166.863436 88.919456 
L 165.873248 88.708288 
L 164.772532 88.500147 
L 163.584002 88.294682 
L 162.326101 88.091487 
L 161.011101 87.890286 
L 159.64608 87.690918 
L 158.234409 87.493352 
L 156.77697 87.297608 
L 155.272872 87.103815 
L 153.719913 86.912154 
L 152.11481 86.72287 
L 150.453302 86.536262 
L 148.730128 86.352767 
L 146.938975 86.172863 
L 145.072336 85.997235 
L 143.121345 85.826712 
L 141.075589 85.662404 
L 138.922966 85.50576 
L 136.649694 85.358774 
L 134.240858 85.224163 
L 131.682177 85.105702 
L 128.964566 85.008593 
L 126.094008 84.939752 
L 123.10858 84.907422 
L 120.095458 84.918977 
L 117.181676 84.976997 
L 114.481833 85.076783 
L 112.049798 85.20909 
" style="fill:none;stroke:#ffa500;stroke-linecap:square;stroke-width:1.5;"/>
   </g>
   <g id="line2d_32">
    <path clip-path="url(#p75ee10cb12)" d="M 111.458338 85.20909 
L 109.373374 85.37067 
L 107.508344 85.546394 
L 105.829776 85.732161 
L 104.308165 85.925197 
L 102.919111 86.123648 
L 101.642861 86.326213 
L 100.46346 86.531977 
L 99.367971 86.740267 
L 98.345813 86.950593 
L 97.388249 87.162593 
L 96.488002 87.375957 
L 95.638953 87.590472 
L 94.835912 87.805957 
L 94.074433 88.022274 
L 93.350695 88.239294 
L 92.661375 88.456933 
L 92.003576 88.675104 
L 91.374752 88.893745 
L 90.77265 89.11279 
L 90.195281 89.332209 
L 89.640861 89.551958 
L 89.107795 89.771984 
L 88.594652 89.992277 
L 88.100138 90.212805 
L 87.623082 90.433545 
L 87.162417 90.654477 
L 86.717174 90.87558 
L 86.286469 91.096832 
L 85.869484 91.318245 
L 85.465476 91.539774 
L 85.073755 91.761431 
L 84.693688 91.983206 
L 84.324687 92.205076 
L 83.966208 92.427042 
L 83.617745 92.649094 
L 83.278827 92.871231 
L 82.949018 93.093442 
L 82.627906 93.315718 
L 82.31511 93.538068 
L 82.010272 93.760471 
L 81.713055 93.982928 
L 81.423145 94.205449 
L 81.140244 94.428012 
L 80.864074 94.650618 
L 80.594371 94.873277 
L 80.330887 95.095968 
L 80.073388 95.318702 
L 79.82165 95.541479 
L 79.575467 95.764277 
L 79.334635 95.987117 
L 79.09897 96.209979 
L 78.86829 96.432872 
L 78.642426 96.655798 
L 78.421215 96.878745 
" style="fill:none;stroke:#ffa500;stroke-linecap:square;stroke-width:1.5;"/>
   </g>
   <g id="line2d_33">
    <path clip-path="url(#p75ee10cb12)" d="M 78.269644 96.878745 
L 78.05691 97.101746 
L 77.848375 97.324757 
L 77.643907 97.547789 
L 77.44338 97.770843 
L 77.246674 97.993918 
L 77.053673 98.217014 
L 76.864267 98.440121 
L 76.678352 98.663249 
L 76.495825 98.886388 
L 76.316591 99.109538 
L 76.140555 99.332708 
L 75.967629 99.55589 
L 75.797727 99.779082 
L 75.630767 100.002296 
L 75.466669 100.225509 
L 75.305357 100.448744 
L 75.146758 100.671979 
L 74.990802 100.895235 
L 74.83742 101.118491 
L 74.686547 101.341758 
L 74.53812 101.565046 
L 74.392078 101.788334 
L 74.248362 102.011623 
L 74.106916 102.234932 
L 73.967684 102.458242 
L 73.830614 102.681562 
L 73.695654 102.904882 
L 73.562757 103.128213 
L 73.431872 103.351554 
L 73.302955 103.574906 
L 73.17596 103.798258 
L 73.050845 104.02161 
L 72.927567 104.244973 
L 72.806086 104.468347 
L 72.686362 104.69172 
L 72.568357 104.915093 
L 72.452035 105.138478 
L 72.337359 105.361862 
L 72.224294 105.585256 
L 72.112807 105.808651 
L 72.002865 106.032057 
L 71.894436 106.255462 
L 71.78749 106.478867 
L 71.681996 106.702283 
L 71.577925 106.9257 
L 71.475249 107.149116 
L 71.373939 107.372542 
L 71.27397 107.595969 
L 71.175316 107.819396 
L 71.07795 108.042833 
L 70.981848 108.266271 
L 70.886987 108.489708 
L 70.793342 108.713145 
L 70.700891 108.936593 
L 70.609613 109.160041 
L 70.519484 109.383489 
L 70.430484 109.606948 
L 70.342593 109.830396 
L 70.255791 110.053855 
L 70.170057 110.277314 
L 70.085374 110.500772 
L 70.001722 110.724242 
L 69.919084 110.9477 
L 69.837441 111.17117 
L 69.756777 111.394639 
L 69.677075 111.618109 
L 69.598318 111.841589 
L 69.52049 112.065058 
L 69.443576 112.288538 
L 69.36756 112.512018 
L 69.292427 112.735498 
" style="fill:none;stroke:#ffa500;stroke-linecap:square;stroke-width:1.5;"/>
   </g>
   <g id="line2d_34">
    <path clip-path="url(#p75ee10cb12)" d="M 355.84781 63.27674 
L 356.180849 63.49892 
L 356.50227 63.721206 
L 356.81283 63.943567 
L 357.113247 64.166002 
L 357.404114 64.388512 
L 357.686007 64.611086 
L 357.959431 64.833713 
L 358.224869 65.056394 
L 358.482755 65.279128 
L 358.733482 65.501904 
" style="fill:none;stroke:#800080;stroke-linecap:square;stroke-width:1.5;"/>
   </g>
   <g id="line2d_35">
    <path clip-path="url(#p75ee10cb12)" d="M 358.733482 65.501904 
L 358.99295 65.724627 
L 359.245027 65.947393 
L 359.490108 66.170202 
L 359.728553 66.393053 
L 359.960704 66.615936 
L 360.186848 66.838862 
L 360.407292 67.061809 
L 360.622304 67.284798 
L 360.832119 67.507799 
L 361.036971 67.730831 
L 361.237075 67.953895 
L 361.432629 68.17697 
L 361.623831 68.400077 
" style="fill:none;stroke:#800080;stroke-linecap:square;stroke-width:1.5;"/>
   </g>
   <g id="line2d_36">
    <path clip-path="url(#p75ee10cb12)" d="M 361.623831 68.400077 
L 361.819799 68.623152 
L 362.011324 68.846248 
L 362.198606 69.069366 
L 362.381805 69.292505 
L 362.561084 69.515654 
L 362.736623 69.738825 
L 362.908546 69.962018 
L 363.076981 70.18522 
L 363.242071 70.408434 
L 363.403924 70.631658 
L 363.562665 70.854904 
L 363.718385 71.078149 
L 363.871228 71.301416 
L 364.021248 71.524683 
L 364.168552 71.747971 
L 364.31323 71.971259 
L 364.455391 72.194558 
L 364.59507 72.417867 
" style="fill:none;stroke:#800080;stroke-linecap:square;stroke-width:1.5;"/>
   </g>
   <g id="line2d_37">
    <path clip-path="url(#p75ee10cb12)" d="M 364.59507 72.417867 
L 364.740881 72.641156 
L 364.884085 72.864454 
L 365.024735 73.087764 
L 365.162957 73.311084 
L 365.298806 73.534404 
L 365.432352 73.757735 
L 365.563669 73.981066 
L 365.692809 74.204418 
L 365.819864 74.42777 
L 365.944886 74.651122 
L 366.06793 74.874485 
L 366.189032 75.097858 
L 366.308281 75.321232 
L 366.425714 75.544616 
L 366.541367 75.768 
L 366.655312 75.991384 
L 366.767565 76.214779 
L 366.878201 76.438184 
L 366.987236 76.66159 
L 367.094724 76.884995 
L 367.200683 77.1084 
L 367.305186 77.331816 
L 367.408251 77.555243 
L 367.509912 77.778659 
L 367.610207 78.002086 
" style="fill:none;stroke:#800080;stroke-linecap:square;stroke-width:1.5;"/>
   </g>
   <g id="line2d_38">
    <path clip-path="url(#p75ee10cb12)" d="M 367.610207 78.002086 
L 367.715501 78.225502 
L 367.819303 78.448918 
L 367.921666 78.672334 
L 368.022644 78.895761 
L 368.122237 79.119188 
L 368.2205 79.342625 
L 368.317449 79.566052 
L 368.41314 79.789489 
L 368.507572 80.012937 
L 368.6008 80.236375 
L 368.692822 80.459823 
L 368.783693 80.683271 
L 368.873432 80.906719 
L 368.962055 81.130177 
L 369.049581 81.353626 
L 369.136047 81.577084 
L 369.221487 81.800543 
L 369.305884 82.024012 
L 369.389292 82.247471 
L 369.471729 82.47094 
L 369.553195 82.69441 
L 369.633726 82.917879 
L 369.713322 83.141349 
L 369.792036 83.364818 
L 369.869851 83.588298 
L 369.946803 83.811767 
L 370.02291 84.035247 
L 370.098171 84.258727 
L 370.172624 84.482207 
L 370.246267 84.705698 
L 370.319118 84.929178 
L 370.391197 85.152669 
L 370.46252 85.376149 
L 370.533088 85.599639 
L 370.602918 85.82313 
" style="fill:none;stroke:#800080;stroke-linecap:square;stroke-width:1.5;"/>
   </g>
   <g id="line2d_39">
    <path clip-path="url(#p75ee10cb12)" d="M 370.602918 85.82313 
L 370.701271 86.046557 
L 370.798203 86.269994 
L 370.893768 86.493432 
L 370.988002 86.716869 
L 371.080941 86.940317 
L 371.172622 87.163765 
L 371.263044 87.387213 
L 371.352279 87.610661 
L 371.440326 87.83412 
L 371.527223 88.057579 
L 371.613005 88.281037 
L 371.697708 88.504496 
L 371.781296 88.727955 
L 371.863877 88.951424 
L 371.945415 89.174894 
L 372.025946 89.398363 
L 372.105505 89.621832 
L 372.184094 89.845312 
L 372.261747 90.068782 
L 372.338501 90.292262 
L 372.41432 90.515742 
L 372.489276 90.739222 
L 372.563369 90.962702 
L 372.636634 91.186182 
L 372.709036 91.409673 
L 372.780647 91.633153 
L 372.851431 91.856643 
L 372.921459 92.080134 
L 372.990732 92.303625 
L 373.05925 92.527115 
L 373.127012 92.750606 
L 373.194055 92.974107 
L 373.260379 93.197598 
L 373.326019 93.421099 
L 373.390976 93.64459 
L 373.455249 93.868091 
L 373.518839 94.091593 
L 373.581818 94.315094 
" style="fill:none;stroke:#800080;stroke-linecap:square;stroke-width:1.5;"/>
   </g>
   <g id="patch_3">
    <path d="M 54 252 
L 54 34.56 
" style="fill:none;stroke:#000000;stroke-linecap:square;stroke-linejoin:miter;stroke-width:0.8;"/>
   </g>
   <g id="patch_4">
    <path d="M 388.8 252 
L 388.8 34.56 
" style="fill:none;stroke:#000000;stroke-linecap:square;stroke-linejoin:miter;stroke-width:0.8;"/>
   </g>
   <g id="patch_5">
    <path d="M 54 252 
L 388.8 252 
" style="fill:none;stroke:#000000;stroke-linecap:square;stroke-linejoin:miter;stroke-width:0.8;"/>
   </g>
   <g id="patch_6">
    <path d="M 54 34.56 
L 388.8 34.56 
" style="fill:none;stroke:#000000;stroke-linecap:square;stroke-linejoin:miter;stroke-width:0.8;"/>
   </g>
   <g id="text_14">
    <!-- controller -->
    <defs>
     <path d="M 48.78125 52.59375 
L 48.78125 44.1875 
Q 44.96875 46.296875 41.140625 47.34375 
Q 37.3125 48.390625 33.40625 48.390625 
Q 24.65625 48.390625 19.8125 42.84375 
Q 14.984375 37.3125 14.984375 27.296875 
Q 14.984375 17.28125 19.8125 11.734375 
Q 24.65625 6.203125 33.40625 6.203125 
Q 37.3125 6.203125 41.140625 7.25 
Q 44.96875 8.296875 48.78125 10.40625 
L 48.78125 2.09375 
Q 45.015625 0.34375 40.984375 -0.53125 
Q 36.96875 -1.421875 32.421875 -1.421875 
Q 20.0625 -1.421875 12.78125 6.34375 
Q 5.515625 14.109375 5.515625 27.296875 
Q 5.515625 40.671875 12.859375 48.328125 
Q 20.21875 56 33.015625 56 
Q 37.15625 56 41.109375 55.140625 
Q 45.0625 54.296875 48.78125 52.59375 
z
" id="DejaVuSans-99"/>
     <path d="M 30.609375 48.390625 
Q 23.390625 48.390625 19.1875 42.75 
Q 14.984375 37.109375 14.984375 27.296875 
Q 14.984375 17.484375 19.15625 11.84375 
Q 23.34375 6.203125 30.609375 6.203125 
Q 37.796875 6.203125 41.984375 11.859375 
Q 46.1875 17.53125 46.1875 27.296875 
Q 46.1875 37.015625 41.984375 42.703125 
Q 37.796875 48.390625 30.609375 48.390625 
z
M 30.609375 56 
Q 42.328125 56 49.015625 48.375 
Q 55.71875 40.765625 55.71875 27.296875 
Q 55.71875 13.875 49.015625 6.21875 
Q 42.328125 -1.421875 30.609375 -1.421875 
Q 18.84375 -1.421875 12.171875 6.21875 
Q 5.515625 13.875 5.515625 27.296875 
Q 5.515625 40.765625 12.171875 48.375 
Q 18.84375 56 30.609375 56 
z
" id="DejaVuSans-111"/>
     <path d="M 54.890625 33.015625 
L 54.890625 0 
L 45.90625 0 
L 45.90625 32.71875 
Q 45.90625 40.484375 42.875 44.328125 
Q 39.84375 48.1875 33.796875 48.1875 
Q 26.515625 48.1875 22.3125 43.546875 
Q 18.109375 38.921875 18.109375 30.90625 
L 18.109375 0 
L 9.078125 0 
L 9.078125 54.6875 
L 18.109375 54.6875 
L 18.109375 46.1875 
Q 21.34375 51.125 25.703125 53.5625 
Q 30.078125 56 35.796875 56 
Q 45.21875 56 50.046875 50.171875 
Q 54.890625 44.34375 54.890625 33.015625 
z
" id="DejaVuSans-110"/>
     <path d="M 18.3125 70.21875 
L 18.3125 54.6875 
L 36.8125 54.6875 
L 36.8125 47.703125 
L 18.3125 47.703125 
L 18.3125 18.015625 
Q 18.3125 11.328125 20.140625 9.421875 
Q 21.96875 7.515625 27.59375 7.515625 
L 36.8125 7.515625 
L 36.8125 0 
L 27.59375 0 
Q 17.1875 0 13.234375 3.875 
Q 9.28125 7.765625 9.28125 18.015625 
L 9.28125 47.703125 
L 2.6875 47.703125 
L 2.6875 54.6875 
L 9.28125 54.6875 
L 9.28125 70.21875 
z
" id="DejaVuSans-116"/>
     <path d="M 41.109375 46.296875 
Q 39.59375 47.171875 37.8125 47.578125 
Q 36.03125 48 33.890625 48 
Q 26.265625 48 22.1875 43.046875 
Q 18.109375 38.09375 18.109375 28.8125 
L 18.109375 0 
L 9.078125 0 
L 9.078125 54.6875 
L 18.109375 54.6875 
L 18.109375 46.1875 
Q 20.953125 51.171875 25.484375 53.578125 
Q 30.03125 56 36.53125 56 
Q 37.453125 56 38.578125 55.875 
Q 39.703125 55.765625 41.0625 55.515625 
z
" id="DejaVuSans-114"/>
     <path d="M 9.421875 75.984375 
L 18.40625 75.984375 
L 18.40625 0 
L 9.421875 0 
z
" id="DejaVuSans-108"/>
     <path d="M 56.203125 29.59375 
L 56.203125 25.203125 
L 14.890625 25.203125 
Q 15.484375 15.921875 20.484375 11.0625 
Q 25.484375 6.203125 34.421875 6.203125 
Q 39.59375 6.203125 44.453125 7.46875 
Q 49.3125 8.734375 54.109375 11.28125 
L 54.109375 2.78125 
Q 49.265625 0.734375 44.1875 -0.34375 
Q 39.109375 -1.421875 33.890625 -1.421875 
Q 20.796875 -1.421875 13.15625 6.1875 
Q 5.515625 13.8125 5.515625 26.8125 
Q 5.515625 40.234375 12.765625 48.109375 
Q 20.015625 56 32.328125 56 
Q 43.359375 56 49.78125 48.890625 
Q 56.203125 41.796875 56.203125 29.59375 
z
M 47.21875 32.234375 
Q 47.125 39.59375 43.09375 43.984375 
Q 39.0625 48.390625 32.421875 48.390625 
Q 24.90625 48.390625 20.390625 44.140625 
Q 15.875 39.890625 15.1875 32.171875 
z
" id="DejaVuSans-101"/>
    </defs>
    <g transform="translate(192.646875 28.56)scale(0.12 -0.12)">
     <use xlink:href="#DejaVuSans-99"/>
     <use x="54.980469" xlink:href="#DejaVuSans-111"/>
     <use x="116.162109" xlink:href="#DejaVuSans-110"/>
     <use x="179.541016" xlink:href="#DejaVuSans-116"/>
     <use x="218.75" xlink:href="#DejaVuSans-114"/>
     <use x="259.832031" xlink:href="#DejaVuSans-111"/>
     <use x="321.013672" xlink:href="#DejaVuSans-108"/>
     <use x="348.796875" xlink:href="#DejaVuSans-108"/>
     <use x="376.580078" xlink:href="#DejaVuSans-101"/>
     <use x="438.103516" xlink:href="#DejaVuSans-114"/>
    </g>
   </g>
  </g>
 </g>
 <defs>
  <clipPath id="p75ee10cb12">
   <rect height="217.44" width="334.8" x="54" y="34.56"/>
  </clipPath>
 </defs>
</svg>
