<?xml version="1.0" encoding="utf-8" standalone="no"?>
<!DOCTYPE svg PUBLIC "-//W3C//DTD SVG 1.1//EN"
  "http://www.w3.org/Graphics/SVG/1.1/DTD/svg11.dtd">
<!-- Created with matplotlib (https://matplotlib.org/) -->
<svg height="288pt" version="1.1" viewBox="0 0 432 288" width="432pt" xmlns="http://www.w3.org/2000/svg" xmlns:xlink="http://www.w3.org/1999/xlink">
 <defs>
  <style type="text/css">
*{stroke-linecap:butt;stroke-linejoin:round;}
  </style>
 </defs>
 <g id="figure_1">
  <g id="patch_1">
   <path d="M 0 288 
L 432 288 
L 432 0 
L 0 0 
z
" style="fill:#ffffff;"/>
  </g>
  <g id="axes_1">
   <g id="patch_2">
    <path d="M 54 252 
L 388.8 252 
L 388.8 34.56 
L 54 34.56 
z
" style="fill:#ffffff;"/>
   </g>
   <g id="matplotlib.axis_1">
    <g id="xtick_1">
     <g id="line2d_1">
      <path clip-path="url(#p77f90f5a81)" d="M 69.218182 252 
L 69.218182 34.56 
" style="fill:none;stroke:#b0b0b0;stroke-linecap:square;stroke-width:0.8;"/>
     </g>
     <g id="line2d_2">
      <defs>
       <path d="M 0 0 
L 0 3.5 
" id="m2c3d0c3eb3" style="stroke:#000000;stroke-width:0.8;"/>
      </defs>
      <g>
       <use style="stroke:#000000;stroke-width:0.8;" x="69.218182" xlink:href="#m2c3d0c3eb3" y="252"/>
      </g>
     </g>
     <g id="text_1">
      <!-- 0.0 -->
      <defs>
       <path d="M 31.78125 66.40625 
Q 24.171875 66.40625 20.328125 58.90625 
Q 16.5 51.421875 16.5 36.375 
Q 16.5 21.390625 20.328125 13.890625 
Q 24.171875 6.390625 31.78125 6.390625 
Q 39.453125 6.390625 43.28125 13.890625 
Q 47.125 21.390625 47.125 36.375 
Q 47.125 51.421875 43.28125 58.90625 
Q 39.453125 66.40625 31.78125 66.40625 
z
M 31.78125 74.21875 
Q 44.046875 74.21875 50.515625 64.515625 
Q 56.984375 54.828125 56.984375 36.375 
Q 56.984375 17.96875 50.515625 8.265625 
Q 44.046875 -1.421875 31.78125 -1.421875 
Q 19.53125 -1.421875 13.0625 8.265625 
Q 6.59375 17.96875 6.59375 36.375 
Q 6.59375 54.828125 13.0625 64.515625 
Q 19.53125 74.21875 31.78125 74.21875 
z
" id="DejaVuSans-48"/>
       <path d="M 10.6875 12.40625 
L 21 12.40625 
L 21 0 
L 10.6875 0 
z
" id="DejaVuSans-46"/>
      </defs>
      <g transform="translate(61.266619 266.598437)scale(0.1 -0.1)">
       <use xlink:href="#DejaVuSans-48"/>
       <use x="63.623047" xlink:href="#DejaVuSans-46"/>
       <use x="95.410156" xlink:href="#DejaVuSans-48"/>
      </g>
     </g>
    </g>
    <g id="xtick_2">
     <g id="line2d_3">
      <path clip-path="url(#p77f90f5a81)" d="M 130.065232 252 
L 130.065232 34.56 
" style="fill:none;stroke:#b0b0b0;stroke-linecap:square;stroke-width:0.8;"/>
     </g>
     <g id="line2d_4">
      <g>
       <use style="stroke:#000000;stroke-width:0.8;" x="130.065232" xlink:href="#m2c3d0c3eb3" y="252"/>
      </g>
     </g>
     <g id="text_2">
      <!-- 0.2 -->
      <defs>
       <path d="M 19.1875 8.296875 
L 53.609375 8.296875 
L 53.609375 0 
L 7.328125 0 
L 7.328125 8.296875 
Q 12.9375 14.109375 22.625 23.890625 
Q 32.328125 33.6875 34.8125 36.53125 
Q 39.546875 41.84375 41.421875 45.53125 
Q 43.3125 49.21875 43.3125 52.78125 
Q 43.3125 58.59375 39.234375 62.25 
Q 35.15625 65.921875 28.609375 65.921875 
Q 23.96875 65.921875 18.8125 64.3125 
Q 13.671875 62.703125 7.8125 59.421875 
L 7.8125 69.390625 
Q 13.765625 71.78125 18.9375 73 
Q 24.125 74.21875 28.421875 74.21875 
Q 39.75 74.21875 46.484375 68.546875 
Q 53.21875 62.890625 53.21875 53.421875 
Q 53.21875 48.921875 51.53125 44.890625 
Q 49.859375 40.875 45.40625 35.40625 
Q 44.1875 33.984375 37.640625 27.21875 
Q 31.109375 20.453125 19.1875 8.296875 
z
" id="DejaVuSans-50"/>
      </defs>
      <g transform="translate(122.113669 266.598437)scale(0.1 -0.1)">
       <use xlink:href="#DejaVuSans-48"/>
       <use x="63.623047" xlink:href="#DejaVuSans-46"/>
       <use x="95.410156" xlink:href="#DejaVuSans-50"/>
      </g>
     </g>
    </g>
    <g id="xtick_3">
     <g id="line2d_5">
      <path clip-path="url(#p77f90f5a81)" d="M 190.912281 252 
L 190.912281 34.56 
" style="fill:none;stroke:#b0b0b0;stroke-linecap:square;stroke-width:0.8;"/>
     </g>
     <g id="line2d_6">
      <g>
       <use style="stroke:#000000;stroke-width:0.8;" x="190.912281" xlink:href="#m2c3d0c3eb3" y="252"/>
      </g>
     </g>
     <g id="text_3">
      <!-- 0.4 -->
      <defs>
       <path d="M 37.796875 64.3125 
L 12.890625 25.390625 
L 37.796875 25.390625 
z
M 35.203125 72.90625 
L 47.609375 72.90625 
L 47.609375 25.390625 
L 58.015625 25.390625 
L 58.015625 17.1875 
L 47.609375 17.1875 
L 47.609375 0 
L 37.796875 0 
L 37.796875 17.1875 
L 4.890625 17.1875 
L 4.890625 26.703125 
z
" id="DejaVuSans-52"/>
      </defs>
      <g transform="translate(182.960719 266.598437)scale(0.1 -0.1)">
       <use xlink:href="#DejaVuSans-48"/>
       <use x="63.623047" xlink:href="#DejaVuSans-46"/>
       <use x="95.410156" xlink:href="#DejaVuSans-52"/>
      </g>
     </g>
    </g>
    <g id="xtick_4">
     <g id="line2d_7">
      <path clip-path="url(#p77f90f5a81)" d="M 251.759331 252 
L 251.759331 34.56 
" style="fill:none;stroke:#b0b0b0;stroke-linecap:square;stroke-width:0.8;"/>
     </g>
     <g id="line2d_8">
      <g>
       <use style="stroke:#000000;stroke-width:0.8;" x="251.759331" xlink:href="#m2c3d0c3eb3" y="252"/>
      </g>
     </g>
     <g id="text_4">
      <!-- 0.6 -->
      <defs>
       <path d="M 33.015625 40.375 
Q 26.375 40.375 22.484375 35.828125 
Q 18.609375 31.296875 18.609375 23.390625 
Q 18.609375 15.53125 22.484375 10.953125 
Q 26.375 6.390625 33.015625 6.390625 
Q 39.65625 6.390625 43.53125 10.953125 
Q 47.40625 15.53125 47.40625 23.390625 
Q 47.40625 31.296875 43.53125 35.828125 
Q 39.65625 40.375 33.015625 40.375 
z
M 52.59375 71.296875 
L 52.59375 62.3125 
Q 48.875 64.0625 45.09375 64.984375 
Q 41.3125 65.921875 37.59375 65.921875 
Q 27.828125 65.921875 22.671875 59.328125 
Q 17.53125 52.734375 16.796875 39.40625 
Q 19.671875 43.65625 24.015625 45.921875 
Q 28.375 48.1875 33.59375 48.1875 
Q 44.578125 48.1875 50.953125 41.515625 
Q 57.328125 34.859375 57.328125 23.390625 
Q 57.328125 12.15625 50.6875 5.359375 
Q 44.046875 -1.421875 33.015625 -1.421875 
Q 20.359375 -1.421875 13.671875 8.265625 
Q 6.984375 17.96875 6.984375 36.375 
Q 6.984375 53.65625 15.1875 63.9375 
Q 23.390625 74.21875 37.203125 74.21875 
Q 40.921875 74.21875 44.703125 73.484375 
Q 48.484375 72.75 52.59375 71.296875 
z
" id="DejaVuSans-54"/>
      </defs>
      <g transform="translate(243.807769 266.598437)scale(0.1 -0.1)">
       <use xlink:href="#DejaVuSans-48"/>
       <use x="63.623047" xlink:href="#DejaVuSans-46"/>
       <use x="95.410156" xlink:href="#DejaVuSans-54"/>
      </g>
     </g>
    </g>
    <g id="xtick_5">
     <g id="line2d_9">
      <path clip-path="url(#p77f90f5a81)" d="M 312.606381 252 
L 312.606381 34.56 
" style="fill:none;stroke:#b0b0b0;stroke-linecap:square;stroke-width:0.8;"/>
     </g>
     <g id="line2d_10">
      <g>
       <use style="stroke:#000000;stroke-width:0.8;" x="312.606381" xlink:href="#m2c3d0c3eb3" y="252"/>
      </g>
     </g>
     <g id="text_5">
      <!-- 0.8 -->
      <defs>
       <path d="M 31.78125 34.625 
Q 24.75 34.625 20.71875 30.859375 
Q 16.703125 27.09375 16.703125 20.515625 
Q 16.703125 13.921875 20.71875 10.15625 
Q 24.75 6.390625 31.78125 6.390625 
Q 38.8125 6.390625 42.859375 10.171875 
Q 46.921875 13.96875 46.921875 20.515625 
Q 46.921875 27.09375 42.890625 30.859375 
Q 38.875 34.625 31.78125 34.625 
z
M 21.921875 38.8125 
Q 15.578125 40.375 12.03125 44.71875 
Q 8.5 49.078125 8.5 55.328125 
Q 8.5 64.0625 14.71875 69.140625 
Q 20.953125 74.21875 31.78125 74.21875 
Q 42.671875 74.21875 48.875 69.140625 
Q 55.078125 64.0625 55.078125 55.328125 
Q 55.078125 49.078125 51.53125 44.71875 
Q 48 40.375 41.703125 38.8125 
Q 48.828125 37.15625 52.796875 32.3125 
Q 56.78125 27.484375 56.78125 20.515625 
Q 56.78125 9.90625 50.3125 4.234375 
Q 43.84375 -1.421875 31.78125 -1.421875 
Q 19.734375 -1.421875 13.25 4.234375 
Q 6.78125 9.90625 6.78125 20.515625 
Q 6.78125 27.484375 10.78125 32.3125 
Q 14.796875 37.15625 21.921875 38.8125 
z
M 18.3125 54.390625 
Q 18.3125 48.734375 21.84375 45.5625 
Q 25.390625 42.390625 31.78125 42.390625 
Q 38.140625 42.390625 41.71875 45.5625 
Q 45.3125 48.734375 45.3125 54.390625 
Q 45.3125 60.0625 41.71875 63.234375 
Q 38.140625 66.40625 31.78125 66.40625 
Q 25.390625 66.40625 21.84375 63.234375 
Q 18.3125 60.0625 18.3125 54.390625 
z
" id="DejaVuSans-56"/>
      </defs>
      <g transform="translate(304.654818 266.598437)scale(0.1 -0.1)">
       <use xlink:href="#DejaVuSans-48"/>
       <use x="63.623047" xlink:href="#DejaVuSans-46"/>
       <use x="95.410156" xlink:href="#DejaVuSans-56"/>
      </g>
     </g>
    </g>
    <g id="xtick_6">
     <g id="line2d_11">
      <path clip-path="url(#p77f90f5a81)" d="M 373.453431 252 
L 373.453431 34.56 
" style="fill:none;stroke:#b0b0b0;stroke-linecap:square;stroke-width:0.8;"/>
     </g>
     <g id="line2d_12">
      <g>
       <use style="stroke:#000000;stroke-width:0.8;" x="373.453431" xlink:href="#m2c3d0c3eb3" y="252"/>
      </g>
     </g>
     <g id="text_6">
      <!-- 1.0 -->
      <defs>
       <path d="M 12.40625 8.296875 
L 28.515625 8.296875 
L 28.515625 63.921875 
L 10.984375 60.40625 
L 10.984375 69.390625 
L 28.421875 72.90625 
L 38.28125 72.90625 
L 38.28125 8.296875 
L 54.390625 8.296875 
L 54.390625 0 
L 12.40625 0 
z
" id="DejaVuSans-49"/>
      </defs>
      <g transform="translate(365.501868 266.598437)scale(0.1 -0.1)">
       <use xlink:href="#DejaVuSans-49"/>
       <use x="63.623047" xlink:href="#DejaVuSans-46"/>
       <use x="95.410156" xlink:href="#DejaVuSans-48"/>
      </g>
     </g>
    </g>
    <g id="text_7">
     <!-- $x_1$ -->
     <defs>
      <path d="M 60.015625 54.6875 
L 34.90625 27.875 
L 50.296875 0 
L 39.984375 0 
L 28.421875 21.6875 
L 8.296875 0 
L -2.59375 0 
L 24.3125 28.8125 
L 10.015625 54.6875 
L 20.3125 54.6875 
L 30.8125 34.90625 
L 49.125 54.6875 
z
" id="DejaVuSans-Oblique-120"/>
     </defs>
     <g transform="translate(216.05 280.276563)scale(0.1 -0.1)">
      <use transform="translate(0 0.3125)" xlink:href="#DejaVuSans-Oblique-120"/>
      <use transform="translate(59.179688 -16.09375)scale(0.7)" xlink:href="#DejaVuSans-49"/>
     </g>
    </g>
   </g>
   <g id="matplotlib.axis_2">
    <g id="ytick_1">
     <g id="line2d_13">
      <path clip-path="url(#p77f90f5a81)" d="M 54 242.116364 
L 388.8 242.116364 
" style="fill:none;stroke:#b0b0b0;stroke-linecap:square;stroke-width:0.8;"/>
     </g>
     <g id="line2d_14">
      <defs>
       <path d="M 0 0 
L -3.5 0 
" id="mea9a0a63d3" style="stroke:#000000;stroke-width:0.8;"/>
      </defs>
      <g>
       <use style="stroke:#000000;stroke-width:0.8;" x="54" xlink:href="#mea9a0a63d3" y="242.116364"/>
      </g>
     </g>
     <g id="text_8">
      <!-- 0 -->
      <g transform="translate(40.6375 245.915582)scale(0.1 -0.1)">
       <use xlink:href="#DejaVuSans-48"/>
      </g>
     </g>
    </g>
    <g id="ytick_2">
     <g id="line2d_15">
      <path clip-path="url(#p77f90f5a81)" d="M 54 197.406458 
L 388.8 197.406458 
" style="fill:none;stroke:#b0b0b0;stroke-linecap:square;stroke-width:0.8;"/>
     </g>
     <g id="line2d_16">
      <g>
       <use style="stroke:#000000;stroke-width:0.8;" x="54" xlink:href="#mea9a0a63d3" y="197.406458"/>
      </g>
     </g>
     <g id="text_9">
      <!-- 2 -->
      <g transform="translate(40.6375 201.205677)scale(0.1 -0.1)">
       <use xlink:href="#DejaVuSans-50"/>
      </g>
     </g>
    </g>
    <g id="ytick_3">
     <g id="line2d_17">
      <path clip-path="url(#p77f90f5a81)" d="M 54 152.696552 
L 388.8 152.696552 
" style="fill:none;stroke:#b0b0b0;stroke-linecap:square;stroke-width:0.8;"/>
     </g>
     <g id="line2d_18">
      <g>
       <use style="stroke:#000000;stroke-width:0.8;" x="54" xlink:href="#mea9a0a63d3" y="152.696552"/>
      </g>
     </g>
     <g id="text_10">
      <!-- 4 -->
      <g transform="translate(40.6375 156.495771)scale(0.1 -0.1)">
       <use xlink:href="#DejaVuSans-52"/>
      </g>
     </g>
    </g>
    <g id="ytick_4">
     <g id="line2d_19">
      <path clip-path="url(#p77f90f5a81)" d="M 54 107.986646 
L 388.8 107.986646 
" style="fill:none;stroke:#b0b0b0;stroke-linecap:square;stroke-width:0.8;"/>
     </g>
     <g id="line2d_20">
      <g>
       <use style="stroke:#000000;stroke-width:0.8;" x="54" xlink:href="#mea9a0a63d3" y="107.986646"/>
      </g>
     </g>
     <g id="text_11">
      <!-- 6 -->
      <g transform="translate(40.6375 111.785865)scale(0.1 -0.1)">
       <use xlink:href="#DejaVuSans-54"/>
      </g>
     </g>
    </g>
    <g id="ytick_5">
     <g id="line2d_21">
      <path clip-path="url(#p77f90f5a81)" d="M 54 63.27674 
L 388.8 63.27674 
" style="fill:none;stroke:#b0b0b0;stroke-linecap:square;stroke-width:0.8;"/>
     </g>
     <g id="line2d_22">
      <g>
       <use style="stroke:#000000;stroke-width:0.8;" x="54" xlink:href="#mea9a0a63d3" y="63.27674"/>
      </g>
     </g>
     <g id="text_12">
      <!-- 8 -->
      <g transform="translate(40.6375 67.075959)scale(0.1 -0.1)">
       <use xlink:href="#DejaVuSans-56"/>
      </g>
     </g>
    </g>
    <g id="text_13">
     <!-- $x_2$ -->
     <g transform="translate(34.557813 148.63)rotate(-90)scale(0.1 -0.1)">
      <use transform="translate(0 0.3125)" xlink:href="#DejaVuSans-Oblique-120"/>
      <use transform="translate(59.179688 -16.09375)scale(0.7)" xlink:href="#DejaVuSans-50"/>
     </g>
    </g>
   </g>
   <g id="line2d_23">
    <path clip-path="url(#p77f90f5a81)" d="M 373.453431 52.099264 
L 372.505557 50.983686 
L 371.389039 49.868962 
L 370.03698 48.755623 
L 368.332926 47.644928 
L 366.046376 46.539861 
L 362.614385 45.450933 
L 356.021449 44.443636 
L 340.946847 44.593405 
L 331.204608 45.451849 
L 319.512855 46.1669 
L 304.311788 46.208793 
" style="fill:none;stroke:#ffa500;stroke-linecap:square;stroke-width:1.5;"/>
   </g>
   <g id="line2d_24">
    <path clip-path="url(#p77f90f5a81)" d="M 373.453431 179.522496 
L 373.370378 180.640227 
L 373.28892 181.757958 
L 373.209095 182.875688 
L 373.130866 183.993424 
L 373.054232 185.111155 
L 372.979176 186.228891 
L 372.905716 187.346627 
L 372.833816 188.464363 
L 372.763493 189.582098 
L 372.694729 190.699834 
L 372.627525 191.81757 
L 372.561881 192.935306 
L 372.497759 194.053042 
L 372.43518 195.170783 
L 372.374141 196.288519 
L 372.314626 197.406261 
L 372.256634 198.523999 
L 372.200147 199.64174 
L 372.145183 200.759479 
L 372.091707 201.87722 
L 372.039753 202.994961 
L 371.989287 204.112703 
L 371.940307 205.230444 
L 371.892815 206.348188 
L 371.846809 207.465929 
L 371.802291 208.583673 
L 371.759241 209.701417 
L 371.71766 210.819158 
L 371.677548 211.936902 
L 371.638887 213.054646 
L 371.601712 214.172393 
L 371.565971 215.290137 
L 371.531698 216.40788 
L 371.498875 217.525627 
L 371.467486 218.643371 
L 371.437565 219.761118 
L 371.409077 220.878863 
L 371.382021 221.996608 
L 371.356398 223.114355 
L 371.332225 224.2321 
L 371.309486 225.349846 
L 371.288178 226.467593 
L 371.268286 227.58534 
L 371.249825 228.703086 
L 371.232798 229.820834 
L 371.217184 230.938581 
L 371.203004 232.056328 
L 371.190256 233.174075 
L 371.178904 234.291822 
L 371.168985 235.40957 
L 371.16048 236.527318 
L 371.153408 237.645065 
L 371.147732 238.762812 
L 371.143488 239.88056 
L 371.14066 240.998308 
L 371.139245 242.116055 
" style="fill:none;stroke:#ffa500;stroke-linecap:square;stroke-width:1.5;"/>
   </g>
   <g id="line2d_25">
    <path clip-path="url(#p77f90f5a81)" d="M 69.218182 242.116364 
L 72.267889 242.116364 
L 75.317597 242.116364 
L 78.367305 242.116364 
L 81.417013 242.116364 
L 84.46672 242.116364 
L 87.516427 242.116364 
L 90.566136 242.116364 
L 93.615843 242.116364 
L 96.665551 242.116364 
L 99.715258 242.116364 
L 102.764965 242.116364 
L 105.814673 242.116364 
L 108.864382 242.116364 
L 111.91409 242.116364 
L 114.963797 242.116364 
L 118.013505 242.116364 
L 121.063212 242.116364 
L 124.112919 242.116364 
L 127.162627 242.116364 
L 130.212334 242.116364 
L 133.262042 242.116364 
L 136.311749 242.116364 
L 139.361456 242.116364 
L 142.411164 242.116364 
L 145.460871 242.116364 
L 148.510583 242.116364 
L 151.560286 242.116364 
L 154.609998 242.116364 
L 157.659701 242.116364 
L 160.709413 242.116364 
L 163.759115 242.116364 
L 166.808827 242.116364 
L 169.85853 242.116364 
L 172.908242 242.116364 
L 175.957945 242.116364 
L 179.007657 242.116364 
L 182.057369 242.116364 
L 185.107072 242.116364 
L 188.156784 242.116364 
L 191.206486 242.116364 
L 194.256198 242.116364 
L 197.305901 242.116364 
L 200.355613 242.116364 
L 203.405316 242.116364 
L 206.455028 242.116364 
L 209.504731 242.116364 
L 212.554443 242.116364 
L 215.604146 242.116364 
L 218.653858 242.116364 
L 221.70356 242.116364 
L 224.753272 242.116364 
L 227.802984 242.116364 
L 230.852678 242.116364 
L 233.90239 242.116364 
L 236.952102 242.116364 
L 240.001814 242.116364 
L 243.051526 242.116364 
L 246.101219 242.116364 
L 249.150931 242.116364 
L 252.200643 242.116364 
L 255.250355 242.116364 
L 258.300049 242.116364 
L 261.349761 242.116364 
L 264.399473 242.116364 
L 267.449185 242.116364 
L 270.498879 242.116364 
L 273.548591 242.116364 
L 276.598302 242.116364 
L 279.648014 242.116364 
L 282.697708 242.116364 
L 285.74742 242.116364 
L 288.797132 242.116364 
L 291.846844 242.116364 
L 294.896556 242.116364 
L 297.94625 242.116364 
L 300.995962 242.116364 
L 304.045674 242.116364 
L 307.095385 242.116364 
L 310.145079 242.116364 
L 313.194791 242.116364 
L 316.244503 242.116364 
L 319.294215 242.116364 
L 322.343909 242.116364 
L 325.393621 242.116364 
L 328.443333 242.116364 
L 331.493045 242.116364 
L 334.542738 242.116364 
L 337.59245 242.116364 
L 340.642162 242.116364 
L 343.691874 242.116364 
L 346.741586 242.116364 
L 349.79128 242.116364 
L 352.840992 242.116364 
L 355.890704 242.116364 
L 358.940416 242.116364 
L 361.990109 242.116364 
L 365.039821 242.116364 
L 368.089533 242.116364 
L 371.139245 242.116364 
" style="fill:none;stroke:#ffa500;stroke-linecap:square;stroke-width:1.5;"/>
   </g>
   <g id="line2d_26">
    <path clip-path="url(#p77f90f5a81)" d="M 288.26757 69.214775 
L 291.309919 71.834496 
L 294.352269 71.834496 
L 297.394618 69.214775 
L 300.436968 60.154906 
L 303.479318 48.257006 
L 304.311788 46.208793 
" style="fill:none;stroke:#ffa500;stroke-linecap:square;stroke-width:1.5;"/>
   </g>
   <g id="line2d_27">
    <path clip-path="url(#p77f90f5a81)" d="M 288.26757 91.569727 
L 288.11287 91.346471 
L 287.957934 91.123204 
L 287.802763 90.899948 
L 287.647374 90.676692 
L 287.491768 90.453436 
L 287.335944 90.23018 
L 287.179939 90.006924 
L 287.023716 89.783667 
L 286.867311 89.560411 
L 286.710744 89.337166 
L 286.553977 89.11391 
L 286.397065 88.890653 
L 286.240008 88.667408 
L 286.082787 88.444152 
L 285.925422 88.220906 
L 285.767948 87.99765 
L 285.610328 87.774404 
L 285.4526 87.551159 
L 285.294763 87.327903 
L 285.136836 87.104657 
L 284.978818 86.881412 
L 284.820727 86.658166 
L 284.662545 86.434921 
L 284.50431 86.211665 
L 284.346001 85.988419 
L 284.187657 85.765174 
L 284.029276 85.541928 
L 283.870858 85.318683 
L 283.712423 85.095437 
L 283.553952 84.872191 
L 283.395498 84.648946 
L 283.237027 84.4257 
L 283.078573 84.202455 
L 282.920138 83.979209 
L 282.761739 83.755964 
L 282.603358 83.532718 
L 282.445013 83.309473 
L 282.286741 83.086217 
L 282.128505 82.862971 
L 281.97036 82.639726 
L 281.812269 82.41648 
L 281.654269 82.193235 
L 281.49636 81.969978 
L 281.338541 81.746733 
L 281.180831 81.523487 
L 281.02323 81.300231 
L 280.865756 81.076986 
L 280.708408 80.85374 
L 280.551206 80.630484 
L 280.394131 80.407239 
L 280.237219 80.183982 
L 280.080452 79.960726 
L 279.923866 79.737481 
L 279.767444 79.514224 
L 279.611203 79.290968 
L 279.455143 79.067712 
L 279.299283 78.844456 
L 279.143604 78.6212 
" style="fill:none;stroke:#ffa500;stroke-linecap:square;stroke-width:1.5;"/>
   </g>
   <g id="line2d_28">
    <path clip-path="url(#p77f90f5a81)" d="M 279.140503 78.6212 
L 278.98506 78.397944 
L 278.829816 78.174687 
L 278.674808 77.951421 
L 278.520017 77.728164 
L 278.365463 77.504908 
L 278.211144 77.281641 
L 278.057061 77.058375 
L 277.903231 76.835118 
L 277.749656 76.611852 
L 277.596334 76.388585 
L 277.443303 76.165318 
L 277.290525 75.942051 
L 277.13802 75.718784 
L 276.985804 75.495517 
L 276.833879 75.27224 
L 276.682244 75.048973 
L 276.530899 74.825696 
L 276.379862 74.602429 
L 276.229134 74.379151 
L 276.078714 74.155874 
L 275.92862 73.932596 
L 275.778835 73.709319 
L 275.629375 73.486041 
L 275.480243 73.262753 
L 275.331455 73.039476 
L 275.182993 72.816187 
L 275.034876 72.59291 
L 274.887103 72.369622 
L 274.739675 72.146334 
L 274.592592 71.923046 
L 274.445871 71.699757 
L 274.299513 71.476469 
L 274.153499 71.25317 
L 274.007866 71.029882 
L 273.862578 70.806583 
L 273.717689 70.583295 
L 273.573144 70.359996 
L 273.428998 70.136698 
L 273.285215 69.913399 
L 273.141812 69.6901 
L 272.998791 69.466791 
L 272.856168 69.243492 
L 272.713908 69.020182 
L 272.572047 68.796873 
L 272.430585 68.573574 
L 272.289504 68.350264 
L 272.148822 68.126955 
L 272.008538 67.903635 
L 271.868654 67.680325 
L 271.729169 67.457016 
L 271.590082 67.233696 
L 271.451395 67.010376 
L 271.313106 66.787056 
L 271.175234 66.563735 
L 271.037762 66.340415 
L 270.900688 66.117095 
L 270.764032 65.893775 
L 270.627774 65.670444 
L 270.491933 65.447124 
L 270.356492 65.223793 
L 270.221467 65.000462 
L 270.08686 64.777132 
L 269.952669 64.553801 
L 269.818878 64.33047 
L 269.685504 64.107129 
L 269.552528 63.883798 
L 269.419988 63.660456 
L 269.287847 63.437126 
L 269.156123 63.213784 
L 269.024797 62.990443 
L 268.893907 62.767101 
L 268.763416 62.54376 
L 268.633342 62.320418 
L 268.503685 62.097056 
L 268.374446 61.873714 
L 268.245605 61.650373 
L 268.117181 61.42701 
L 267.989174 61.203668 
L 267.861584 60.980306 
L 267.734394 60.756964 
L 267.60762 60.533601 
L 267.481245 60.310239 
L 267.355288 60.086897 
L 267.229747 59.863534 
L 267.104606 59.640172 
L 266.979881 59.416809 
L 266.855556 59.193446 
L 266.731647 58.970083 
L 266.608119 58.746721 
L 266.485027 58.523358 
L 266.362315 58.299974 
L 266.240021 58.076611 
L 266.118125 57.853248 
L 265.996628 57.629864 
L 265.875531 57.406501 
L 265.754832 57.183117 
L 265.634532 56.959754 
L 265.514631 56.73637 
L 265.395129 56.512986 
L 265.276026 56.289624 
L 265.157304 56.066239 
L 265.038981 55.842855 
L 264.921056 55.619471 
L 264.803513 55.396087 
L 260.886387 60.154906 
L 257.844038 64.848573 
L 254.801688 71.834496 
L 251.759338 76.200697 
L 248.716971 83.18662 
L 245.674621 90.172543 
L 242.632271 97.158466 
L 239.589922 99.778187 
L 236.547572 104.144389 
L 233.505223 106.76411 
L 230.462855 106.76411 
L 227.420505 106.76411 
L 224.378156 104.144389 
L 221.335806 102.070443 
L 218.293457 97.158466 
L 215.251098 92.792264 
L 212.208748 85.806341 
L 209.166399 78.820418 
L 206.12404 69.214775 
L 203.081691 62.228852 
" style="fill:none;stroke:#ffa500;stroke-linecap:square;stroke-width:1.5;"/>
   </g>
   <g id="line2d_29">
    <path clip-path="url(#p77f90f5a81)" d="M 203.081691 84.583805 
L 203.027733 84.360293 
L 202.973695 84.136781 
L 202.919592 83.913258 
L 202.865408 83.689746 
L 202.811161 83.466234 
L 202.756832 83.242722 
L 202.70244 83.01921 
L 202.647975 82.795687 
L 202.593437 82.572175 
L 202.538827 82.348663 
L 202.484154 82.125151 
L 202.429398 81.901639 
L 202.37458 81.678127 
L 202.319689 81.454615 
L 202.264725 81.231103 
L 202.209698 81.007591 
L 202.154598 80.784069 
L 202.099426 80.560557 
L 202.04419 80.337045 
L 201.988882 80.113533 
L 201.933502 79.890021 
L 201.878057 79.666509 
L 201.82255 79.442997 
L 201.76696 79.219485 
L 201.711317 78.995973 
L 201.655601 78.772461 
L 201.599812 78.548949 
L 201.54396 78.325437 
L 201.488044 78.101925 
L 201.432056 77.878413 
L 201.376004 77.6549 
L 201.31988 77.431388 
L 201.263701 77.207876 
L 201.20745 76.984364 
L 201.151126 76.760852 
L 201.094748 76.537351 
L 201.038298 76.313839 
L 200.981784 76.090327 
L 200.925206 75.866815 
L 200.868565 75.643303 
L 200.81186 75.419791 
L 200.755092 75.196279 
L 200.698261 74.972767 
L 200.641357 74.749255 
L 200.584399 74.525754 
L 200.527377 74.302242 
L 200.470282 74.07873 
L 200.413134 73.855218 
L 200.355921 73.631706 
L 200.298655 73.408204 
L 200.241316 73.184692 
L 200.183913 72.96118 
L 200.126456 72.737668 
L 200.068935 72.514156 
" style="fill:none;stroke:#ffa500;stroke-linecap:square;stroke-width:1.5;"/>
   </g>
   <g id="line2d_30">
    <path clip-path="url(#p77f90f5a81)" d="M 200.039341 72.514156 
L 199.981766 72.290655 
L 199.924137 72.067143 
L 199.866453 71.843631 
L 199.808697 71.620119 
L 199.750886 71.396618 
L 199.693021 71.173106 
L 199.635092 70.949594 
L 199.5771 70.726092 
L 199.519054 70.50258 
L 199.460944 70.279068 
L 199.40278 70.055556 
L 199.344561 69.832055 
L 199.286279 69.608543 
L 199.227943 69.385031 
L 199.169552 69.161529 
L 199.111097 68.938017 
L 199.052588 68.714505 
L 198.994025 68.491004 
L 198.935408 68.267492 
L 198.876736 68.043991 
L 198.818 67.820479 
L 198.75921 67.596967 
L 198.700375 67.373465 
L 198.641476 67.149953 
L 198.582523 66.926452 
L 198.523516 66.70294 
L 198.464454 66.479428 
L 198.405347 66.255927 
L 198.346176 66.032415 
L 198.28696 65.808913 
L 198.22768 65.585401 
L 198.168355 65.3619 
L 198.108976 65.138388 
L 198.049552 64.914887 
L 197.990064 64.691375 
L 197.93053 64.467873 
L 197.870952 64.244361 
L 197.811318 64.02086 
L 197.751631 63.797348 
L 197.691889 63.573847 
L 197.632102 63.350335 
L 197.572269 63.126823 
L 197.512382 62.903332 
L 197.45245 62.67982 
L 197.392463 62.456308 
L 197.332431 62.232817 
L 197.272354 62.009305 
L 197.212222 61.785793 
L 197.152045 61.562281 
L 197.091822 61.33879 
L 197.031554 61.115278 
L 196.971232 60.891766 
L 196.910874 60.668276 
L 196.850461 60.444764 
L 196.790003 60.221252 
L 196.729499 59.99774 
L 196.66895 59.774249 
L 196.608356 59.550737 
L 196.547717 59.327225 
L 196.487041 59.103734 
L 196.426311 58.880222 
L 196.365544 58.65671 
L 196.304723 58.43322 
L 196.243866 58.209708 
L 196.182964 57.986196 
L 196.122025 57.762705 
L 196.061041 57.539193 
L 196.000011 57.315681 
L 195.938946 57.09219 
L 195.877826 56.868678 
L 195.816678 56.645188 
L 195.755486 56.421676 
L 195.694248 56.198164 
L 195.632973 55.974673 
L 195.571663 55.751161 
L 195.510307 55.527649 
L 195.448915 55.304158 
L 195.387478 55.080646 
L 195.326013 54.857155 
L 190.912283 60.154906 
L 187.869925 64.848573 
L 184.827575 69.214775 
L 181.785225 76.200697 
L 178.742876 80.785209 
L 175.700517 87.771132 
" style="fill:none;stroke:#ffa500;stroke-linecap:square;stroke-width:1.5;"/>
   </g>
   <g id="line2d_31">
    <path clip-path="url(#p77f90f5a81)" d="M 175.700517 110.126085 
L 175.663189 109.902552 
L 175.625824 109.679018 
L 175.588414 109.455485 
L 175.550967 109.231952 
L 175.513476 109.008418 
L 175.475948 108.784885 
L 175.438383 108.561352 
L 175.400774 108.337829 
L 175.363137 108.114296 
L 175.325446 107.890762 
L 175.287728 107.667229 
L 175.249973 107.443696 
L 175.212173 107.220162 
L 175.174337 106.996629 
L 175.136464 106.773096 
L 175.098546 106.549562 
L 175.060601 106.326029 
L 175.022611 106.102506 
L 174.984584 105.878973 
L 174.946521 105.65544 
L 174.908422 105.431906 
L 174.870287 105.208373 
L 174.832115 104.98484 
L 174.793907 104.761306 
L 174.755663 104.537773 
L 174.717373 104.31425 
L 174.679056 104.090717 
L 174.640703 103.867184 
L 174.602314 103.64365 
L 174.563888 103.420117 
L 174.525417 103.196584 
L 174.486919 102.973061 
L 174.448385 102.749528 
L 174.409823 102.525994 
L 174.371216 102.302461 
L 174.332573 102.078928 
L 174.293903 101.855394 
L 174.255196 101.631872 
L 174.216453 101.408338 
L 174.177674 101.184805 
L 174.138859 100.961272 
L 174.100016 100.737738 
L 174.061137 100.514205 
L 174.022222 100.290682 
L 173.98327 100.067149 
L 173.944292 99.843616 
L 173.905277 99.620083 
L 173.866234 99.396549 
L 173.827147 99.173027 
L 173.788041 98.949493 
L 173.74889 98.72596 
L 173.709712 98.502427 
L 173.670498 98.278904 
L 173.631256 98.055371 
L 173.591978 97.831837 
L 173.552673 97.608304 
L 173.513332 97.384771 
L 173.473963 97.161248 
L 173.434559 96.937715 
L 173.395127 96.714181 
L 173.355658 96.490648 
L 173.316163 96.267125 
L 173.276631 96.043592 
L 173.237072 95.820059 
L 173.197486 95.596525 
L 173.157863 95.373003 
L 173.118214 95.149469 
L 173.078537 94.925936 
L 173.038824 94.702403 
L 172.999084 94.47888 
L 172.959316 94.255347 
L 172.918506 94.031813 
L 172.874812 93.808291 
L 172.827891 93.584768 
L 172.777325 93.361245 
L 172.722651 93.137733 
L 172.66329 92.914232 
L 172.59858 92.690731 
L 172.527704 92.46724 
L 172.449656 92.243771 
L 172.363221 92.020301 
L 172.266885 91.796864 
L 172.158753 91.573458 
L 172.036404 91.350096 
L 171.896746 91.126775 
L 171.735754 90.903541 
L 171.548114 90.680412 
L 171.326827 90.457465 
L 171.062508 90.234753 
L 170.742763 90.012445 
L 170.35148 89.790756 
L 169.868857 89.570037 
L 169.273161 89.35081 
L 168.545813 89.133747 
L 167.678943 88.919456 
L 166.680485 88.708288 
L 165.570577 88.500147 
L 164.372121 88.294682 
L 163.103713 88.091487 
L 161.777731 87.890286 
L 160.40131 87.690918 
L 158.977849 87.493352 
L 157.508238 87.297608 
L 155.991578 87.103815 
L 154.425649 86.912154 
L 152.807141 86.72287 
L 151.131756 86.536262 
L 149.39419 86.352767 
L 147.588079 86.172863 
L 145.70585 85.997235 
L 143.738565 85.826712 
L 141.675723 85.662404 
L 139.505122 85.50576 
L 137.212864 85.358774 
L 134.78391 85.224163 
L 132.20386 85.105702 
L 129.463552 85.008593 
L 126.56902 84.939752 
L 123.558659 84.907422 
L 120.520371 84.918977 
L 117.582255 84.976997 
L 114.859863 85.076783 
L 112.407516 85.20909 
" style="fill:none;stroke:#ffa500;stroke-linecap:square;stroke-width:1.5;"/>
   </g>
   <g id="line2d_32">
    <path clip-path="url(#p77f90f5a81)" d="M 111.811117 85.20909 
L 109.708739 85.37067 
L 107.828134 85.546394 
L 106.135546 85.732161 
L 104.601227 85.925197 
L 103.200572 86.123648 
L 101.913663 86.326213 
L 100.724413 86.531977 
L 99.619774 86.740267 
L 98.589079 86.950593 
L 97.623518 87.162593 
L 96.715752 87.375957 
L 95.859613 87.590472 
L 95.049865 87.805957 
L 94.282026 88.022274 
L 93.552243 88.239294 
L 92.857167 88.456933 
L 92.193874 88.675104 
L 91.559797 88.893745 
L 90.952668 89.11279 
L 90.370476 89.332209 
L 89.811426 89.551958 
L 89.273907 89.771984 
L 88.756479 89.992277 
L 88.257835 90.212805 
L 87.776795 90.433545 
L 87.312282 90.654477 
L 86.863321 90.87558 
L 86.429018 91.096832 
L 86.008551 91.318245 
L 85.601169 91.539774 
L 85.206177 91.761431 
L 84.822935 91.983206 
L 84.450853 92.205076 
L 84.08938 92.427042 
L 83.738006 92.649094 
L 83.396258 92.871231 
L 83.063694 93.093442 
L 82.739901 93.315718 
L 82.424492 93.538068 
L 82.117108 93.760471 
L 81.817409 93.982928 
L 81.525078 94.205449 
L 81.239814 94.428012 
L 80.961338 94.650618 
L 80.689382 94.873277 
L 80.423698 95.095968 
L 80.164047 95.318702 
L 79.910208 95.541479 
L 79.661968 95.764277 
L 79.419125 95.987117 
L 79.181492 96.209979 
L 78.948886 96.432872 
L 78.721135 96.655798 
L 78.498077 96.878745 
" style="fill:none;stroke:#ffa500;stroke-linecap:square;stroke-width:1.5;"/>
   </g>
   <g id="line2d_33">
    <path clip-path="url(#p77f90f5a81)" d="M 78.345239 96.878745 
L 78.130729 97.101746 
L 77.920452 97.324757 
L 77.714277 97.547789 
L 77.512075 97.770843 
L 77.313725 97.993918 
L 77.119113 98.217014 
L 76.928125 98.440121 
L 76.740657 98.663249 
L 76.556606 98.886388 
L 76.375875 99.109538 
L 76.198369 99.332708 
L 76.023998 99.55589 
L 75.852677 99.779082 
L 75.684323 100.002296 
L 75.518854 100.225509 
L 75.356195 100.448744 
L 75.196272 100.671979 
L 75.039013 100.895235 
L 74.88435 101.118491 
L 74.732217 101.341758 
L 74.582551 101.565046 
L 74.435289 101.788334 
L 74.290373 102.011623 
L 74.147745 102.234932 
L 74.007351 102.458242 
L 73.869136 102.681562 
L 73.733049 102.904882 
L 73.599042 103.128213 
L 73.467064 103.351554 
L 73.33707 103.574906 
L 73.209015 103.798258 
L 73.082855 104.02161 
L 72.958547 104.244973 
L 72.836051 104.468347 
L 72.715327 104.69172 
L 72.596337 104.915093 
L 72.479043 105.138478 
L 72.363409 105.361862 
L 72.2494 105.585256 
L 72.136982 105.808651 
L 72.026122 106.032057 
L 71.916788 106.255462 
L 71.808948 106.478867 
L 71.702573 106.702283 
L 71.597633 106.9257 
L 71.494099 107.149116 
L 71.391944 107.372542 
L 71.29114 107.595969 
L 71.191661 107.819396 
L 71.093482 108.042833 
L 70.996578 108.266271 
L 70.900924 108.489708 
L 70.806497 108.713145 
L 70.713275 108.936593 
L 70.621233 109.160041 
L 70.530352 109.383489 
L 70.440609 109.606948 
L 70.351984 109.830396 
L 70.264457 110.053855 
L 70.178007 110.277314 
L 70.092617 110.500772 
L 70.008266 110.724242 
L 69.924938 110.9477 
L 69.842613 111.17117 
L 69.761276 111.394639 
L 69.680908 111.618109 
L 69.601493 111.841589 
L 69.523015 112.065058 
L 69.445458 112.288538 
L 69.368807 112.512018 
L 69.293047 112.735498 
" style="fill:none;stroke:#ffa500;stroke-linecap:square;stroke-width:1.5;"/>
   </g>
   <g id="line2d_34">
    <path clip-path="url(#p77f90f5a81)" d="M 69.218182 114.693136 
L 69.292955 114.469646 
L 69.368591 114.246165 
L 69.445102 114.022685 
L 69.522503 113.799216 
L 69.60081 113.575736 
L 69.680037 113.352267 
L 69.760199 113.128797 
L 69.841312 112.905317 
L 69.923393 112.681859 
L 70.006457 112.458389 
L 70.090522 112.23492 
L 70.175605 112.011461 
L 70.261723 111.788002 
L 70.348895 111.564544 
L 70.437139 111.341085 
L 70.526474 111.117637 
L 70.616919 110.894189 
L 70.708495 110.670741 
L 70.801222 110.447293 
L 70.895121 110.223845 
L 70.990213 110.000407 
L 71.08652 109.77697 
L 71.184065 109.553533 
L 71.282871 109.330106 
L 71.382962 109.106679 
L 71.484362 108.883252 
L 71.587096 108.659826 
L 71.69119 108.43641 
L 71.79667 108.212994 
L 71.903563 107.989577 
L 72.011897 107.766172 
L 72.1217 107.542767 
L 72.233003 107.319372 
" style="fill:none;stroke:#800080;stroke-linecap:square;stroke-width:1.5;"/>
   </g>
   <g id="line2d_35">
    <path clip-path="url(#p77f90f5a81)" d="M 72.233003 107.319372 
L 72.346617 107.095977 
L 72.461828 106.872593 
L 72.57867 106.649209 
L 72.697178 106.425825 
L 72.817387 106.202451 
L 72.939333 105.979078 
L 73.063055 105.755715 
L 73.188592 105.532352 
L 73.315984 105.309 
L 73.445271 105.085659 
L 73.576499 104.862317 
L 73.709709 104.638976 
L 73.844948 104.415645 
L 73.982264 104.192325 
L 74.121703 103.969016 
L 74.263318 103.745706 
L 74.407159 103.522407 
L 74.55328 103.299119 
L 74.701737 103.075831 
L 74.852587 102.852553 
L 75.005891 102.629287 
L 75.161708 102.40603 
" style="fill:none;stroke:#800080;stroke-linecap:square;stroke-width:1.5;"/>
   </g>
   <g id="line2d_36">
    <path clip-path="url(#p77f90f5a81)" d="M 75.161708 102.40603 
L 75.320254 102.182785 
L 75.481453 101.95955 
L 75.645373 101.736326 
L 75.812086 101.513112 
L 75.981667 101.28991 
L 76.154193 101.066728 
L 76.329742 100.843546 
L 76.5084 100.620386 
L 76.69025 100.397237 
L 76.875385 100.174098 
L 77.063897 99.95098 
L 77.255883 99.727873 
L 77.451445 99.504787 
L 77.650687 99.281713 
L 77.853721 99.05867 
L 78.060661 98.835637 
" style="fill:none;stroke:#800080;stroke-linecap:square;stroke-width:1.5;"/>
   </g>
   <g id="line2d_37">
    <path clip-path="url(#p77f90f5a81)" d="M 78.060661 98.835637 
L 78.271814 98.612626 
L 78.48713 98.389637 
L 78.706741 98.166668 
L 78.930785 97.943721 
L 79.159402 97.720806 
L 79.392748 97.497912 
L 79.630977 97.275051 
L 79.874255 97.052221 
L 80.122755 96.829423 
L 80.376661 96.606646 
L 80.636161 96.383913 
L 80.901457 96.161211 
" style="fill:none;stroke:#800080;stroke-linecap:square;stroke-width:1.5;"/>
   </g>
   <g id="line2d_38">
    <path clip-path="url(#p77f90f5a81)" d="M 80.901457 96.161211 
L 81.174828 95.938573 
L 81.454597 95.715967 
L 81.741011 95.493414 
L 82.034334 95.270904 
L 82.334842 95.048448 
L 82.642831 94.826044 
L 82.958613 94.603705 
L 83.282518 94.381429 
L 83.614899 94.159218 
" style="fill:none;stroke:#800080;stroke-linecap:square;stroke-width:1.5;"/>
   </g>
   <g id="line2d_39">
    <path clip-path="url(#p77f90f5a81)" d="M 83.614899 94.159218 
L 83.95636 93.937081 
L 84.307092 93.715019 
L 84.667523 93.493041 
L 85.038106 93.27116 
L 85.419331 93.049365 
L 85.811721 92.827686 
L 86.215837 92.606114 
L 86.63228 92.38467 
" style="fill:none;stroke:#800080;stroke-linecap:square;stroke-width:1.5;"/>
   </g>
   <g id="line2d_40">
    <path clip-path="url(#p77f90f5a81)" d="M 86.63228 92.38467 
L 87.06203 92.163365 
L 87.50549 91.942198 
L 87.963421 91.721201 
L 88.436643 91.500376 
L 88.926044 91.279731 
L 89.432592 91.0593 
" style="fill:none;stroke:#800080;stroke-linecap:square;stroke-width:1.5;"/>
   </g>
   <g id="line2d_41">
    <path clip-path="url(#p77f90f5a81)" d="M 89.432592 91.0593 
L 89.957721 90.839114 
L 90.502246 90.619173 
L 91.067428 90.399509 
L 91.654646 90.180165 
L 92.265421 89.961172 
" style="fill:none;stroke:#800080;stroke-linecap:square;stroke-width:1.5;"/>
   </g>
   <g id="line2d_42">
    <path clip-path="url(#p77f90f5a81)" d="M 92.265421 89.961172 
L 92.901937 89.742564 
L 93.565608 89.524403 
L 94.258488 89.306722 
L 94.982865 89.089606 
" style="fill:none;stroke:#800080;stroke-linecap:square;stroke-width:1.5;"/>
   </g>
   <g id="line2d_43">
    <path clip-path="url(#p77f90f5a81)" d="M 94.982865 89.089606 
L 95.757454 88.873427 
L 96.571876 88.658027 
L 97.42991 88.443555 
" style="fill:none;stroke:#800080;stroke-linecap:square;stroke-width:1.5;"/>
   </g>
   <g id="line2d_44">
    <path clip-path="url(#p77f90f5a81)" d="M 97.42991 88.443555 
L 98.336298 88.230159 
L 99.295641 88.01801 
L 100.313645 87.807354 
" style="fill:none;stroke:#800080;stroke-linecap:square;stroke-width:1.5;"/>
   </g>
   <g id="line2d_45">
    <path clip-path="url(#p77f90f5a81)" d="M 100.313645 87.807354 
L 101.397629 87.598477 
L 102.554685 87.391722 
" style="fill:none;stroke:#800080;stroke-linecap:square;stroke-width:1.5;"/>
   </g>
   <g id="line2d_46">
    <path clip-path="url(#p77f90f5a81)" d="M 102.554685 87.391722 
L 103.794595 87.187579 
L 105.127104 86.986612 
" style="fill:none;stroke:#800080;stroke-linecap:square;stroke-width:1.5;"/>
   </g>
   <g id="line2d_47">
    <path clip-path="url(#p77f90f5a81)" d="M 105.127104 86.986612 
L 106.566073 86.789653 
L 108.124119 86.597641 
" style="fill:none;stroke:#800080;stroke-linecap:square;stroke-width:1.5;"/>
   </g>
   <g id="line2d_48">
    <path clip-path="url(#p77f90f5a81)" d="M 108.124119 86.597641 
L 109.821572 86.41212 
" style="fill:none;stroke:#800080;stroke-linecap:square;stroke-width:1.5;"/>
   </g>
   <g id="line2d_49">
    <path clip-path="url(#p77f90f5a81)" d="M 109.821572 86.41212 
L 111.677067 86.234956 
" style="fill:none;stroke:#800080;stroke-linecap:square;stroke-width:1.5;"/>
   </g>
   <g id="line2d_50">
    <path clip-path="url(#p77f90f5a81)" d="M 111.677067 86.234956 
L 113.792791 86.074315 
" style="fill:none;stroke:#800080;stroke-linecap:square;stroke-width:1.5;"/>
   </g>
   <g id="line2d_51">
    <path clip-path="url(#p77f90f5a81)" d="M 113.792791 86.074315 
L 116.122776 85.930569 
" style="fill:none;stroke:#800080;stroke-linecap:square;stroke-width:1.5;"/>
   </g>
   <g id="line2d_52">
    <path clip-path="url(#p77f90f5a81)" d="M 116.122776 85.930569 
L 118.682811 85.809784 
" style="fill:none;stroke:#800080;stroke-linecap:square;stroke-width:1.5;"/>
   </g>
   <g id="line2d_53">
    <path clip-path="url(#p77f90f5a81)" d="M 118.682811 85.809784 
L 121.464722 85.719284 
" style="fill:none;stroke:#800080;stroke-linecap:square;stroke-width:1.5;"/>
   </g>
   <g id="line2d_54">
    <path clip-path="url(#p77f90f5a81)" d="M 121.464722 85.719284 
L 124.421661 85.666689 
" style="fill:none;stroke:#800080;stroke-linecap:square;stroke-width:1.5;"/>
   </g>
   <g id="line2d_55">
    <path clip-path="url(#p77f90f5a81)" d="M 124.421661 85.666689 
L 127.461046 85.656818 
" style="fill:none;stroke:#800080;stroke-linecap:square;stroke-width:1.5;"/>
   </g>
   <g id="line2d_56">
    <path clip-path="url(#p77f90f5a81)" d="M 127.461046 85.656818 
L 130.449411 85.698742 
" style="fill:none;stroke:#800080;stroke-linecap:square;stroke-width:1.5;"/>
   </g>
   <g id="line2d_57">
    <path clip-path="url(#p77f90f5a81)" d="M 130.449411 85.698742 
L 133.26206 85.783956 
" style="fill:none;stroke:#800080;stroke-linecap:square;stroke-width:1.5;"/>
   </g>
   <g id="line2d_58">
    <path clip-path="url(#p77f90f5a81)" d="M 133.26206 85.783956 
L 135.862805 85.899954 
" style="fill:none;stroke:#800080;stroke-linecap:square;stroke-width:1.5;"/>
   </g>
   <g id="line2d_59">
    <path clip-path="url(#p77f90f5a81)" d="M 135.862805 85.899954 
L 138.260501 86.037549 
" style="fill:none;stroke:#800080;stroke-linecap:square;stroke-width:1.5;"/>
   </g>
   <g id="line2d_60">
    <path clip-path="url(#p77f90f5a81)" d="M 138.260501 86.037549 
L 140.476556 86.190718 
" style="fill:none;stroke:#800080;stroke-linecap:square;stroke-width:1.5;"/>
   </g>
   <g id="line2d_61">
    <path clip-path="url(#p77f90f5a81)" d="M 140.476556 86.190718 
L 142.532533 86.355496 
" style="fill:none;stroke:#800080;stroke-linecap:square;stroke-width:1.5;"/>
   </g>
   <g id="line2d_62">
    <path clip-path="url(#p77f90f5a81)" d="M 142.532533 86.355496 
L 144.446818 86.529248 
" style="fill:none;stroke:#800080;stroke-linecap:square;stroke-width:1.5;"/>
   </g>
   <g id="line2d_63">
    <path clip-path="url(#p77f90f5a81)" d="M 144.446818 86.529248 
L 146.234179 86.710153 
" style="fill:none;stroke:#800080;stroke-linecap:square;stroke-width:1.5;"/>
   </g>
   <g id="line2d_64">
    <path clip-path="url(#p77f90f5a81)" d="M 146.234179 86.710153 
L 147.906228 86.896911 
" style="fill:none;stroke:#800080;stroke-linecap:square;stroke-width:1.5;"/>
   </g>
   <g id="line2d_65">
    <path clip-path="url(#p77f90f5a81)" d="M 147.906228 86.896911 
L 149.472039 87.088583 
L 150.935376 87.284571 
" style="fill:none;stroke:#800080;stroke-linecap:square;stroke-width:1.5;"/>
   </g>
   <g id="line2d_66">
    <path clip-path="url(#p77f90f5a81)" d="M 150.935376 87.284571 
L 152.351438 87.482425 
L 153.672071 87.683819 
" style="fill:none;stroke:#800080;stroke-linecap:square;stroke-width:1.5;"/>
   </g>
   <g id="line2d_67">
    <path clip-path="url(#p77f90f5a81)" d="M 153.672071 87.683819 
L 154.907483 87.888111 
L 156.054938 88.095143 
" style="fill:none;stroke:#800080;stroke-linecap:square;stroke-width:1.5;"/>
   </g>
   <g id="line2d_68">
    <path clip-path="url(#p77f90f5a81)" d="M 156.054938 88.095143 
L 157.122658 88.304478 
L 158.108894 88.515955 
L 159.017335 88.729309 
" style="fill:none;stroke:#800080;stroke-linecap:square;stroke-width:1.5;"/>
   </g>
   <g id="line2d_69">
    <path clip-path="url(#p77f90f5a81)" d="M 159.017335 88.729309 
L 159.875193 88.943781 
L 160.660324 89.159757 
L 161.377554 89.377012 
L 162.031913 89.595332 
" style="fill:none;stroke:#800080;stroke-linecap:square;stroke-width:1.5;"/>
   </g>
   <g id="line2d_70">
    <path clip-path="url(#p77f90f5a81)" d="M 162.031913 89.595332 
L 162.652444 89.814175 
L 163.216315 90.03385 
L 163.728986 90.254207 
L 164.195606 90.475107 
L 164.620962 90.696466 
L 165.009425 90.918187 
" style="fill:none;stroke:#800080;stroke-linecap:square;stroke-width:1.5;"/>
   </g>
   <g id="line2d_71">
    <path clip-path="url(#p77f90f5a81)" d="M 165.009425 90.918187 
L 165.383027 91.140047 
L 165.724243 91.362184 
L 166.036734 91.584544 
L 166.323729 91.807097 
L 166.588039 92.02981 
L 166.832129 92.252639 
L 167.058168 92.475565 
L 167.268021 92.698587 
L 167.463359 92.921672 
L 167.645604 93.144822 
L 167.816044 93.368014 
L 167.975794 93.59126 
" style="fill:none;stroke:#800080;stroke-linecap:square;stroke-width:1.5;"/>
   </g>
   <g id="line2d_72">
    <path clip-path="url(#p77f90f5a81)" d="M 167.975794 93.59126 
L 168.134547 93.814505 
L 168.283416 94.037783 
L 168.423337 94.261103 
L 168.555116 94.484434 
L 168.679459 94.707796 
L 168.797003 94.931181 
L 168.908317 95.154586 
L 169.013911 95.378002 
L 169.114218 95.601429 
L 169.209656 95.824866 
L 169.300597 96.048314 
L 169.38735 96.271773 
L 169.470212 96.495242 
L 169.549475 96.718712 
L 169.625356 96.942192 
L 169.6981 97.165682 
L 169.767897 97.389173 
L 169.834938 97.612664 
L 169.899395 97.836165 
L 169.961413 98.059666 
L 170.021145 98.283178 
L 170.07872 98.50668 
L 170.134264 98.730192 
L 170.187886 98.953714 
L 170.239694 99.177226 
L 170.289789 99.400749 
L 170.338243 99.624272 
L 170.385155 99.847794 
L 170.430598 100.071317 
L 170.474654 100.29484 
L 170.517369 100.518373 
L 170.558832 100.741896 
L 170.59908 100.965429 
L 170.638593 101.188962 
L 170.67808 101.412485 
L 170.717539 101.636018 
L 170.756962 101.859552 
L 170.796358 102.083085 
L 170.835717 102.306618 
L 170.875049 102.530141 
L 170.914345 102.753674 
L 170.953614 102.977208 
L 170.992856 103.200741 
" style="fill:none;stroke:#800080;stroke-linecap:square;stroke-width:1.5;"/>
   </g>
   <g id="line2d_73">
    <path clip-path="url(#p77f90f5a81)" d="M 170.992856 103.200741 
L 171.036785 103.424264 
L 171.080687 103.647786 
L 171.124553 103.87132 
L 171.168391 104.094842 
L 171.212203 104.318365 
L 171.255978 104.541898 
L 171.299717 104.765421 
L 171.343428 104.988944 
L 171.387113 105.212477 
L 171.430761 105.436 
L 171.474382 105.659522 
L 171.517966 105.883056 
L 171.561515 106.106578 
L 171.605036 106.330112 
L 171.648521 106.553634 
L 171.69197 106.777157 
L 171.735391 107.00069 
L 171.778776 107.224213 
L 171.822125 107.447736 
L 171.865447 107.671269 
L 171.908732 107.894792 
L 171.951982 108.118325 
L 171.995195 108.341848 
L 172.038371 108.56537 
L 172.081512 108.788904 
L 172.124625 109.012426 
L 172.167702 109.23596 
L 172.210733 109.459482 
L 172.253738 109.683016 
L 172.296706 109.906538 
L 172.339638 110.130061 
L 172.382533 110.353594 
L 172.425383 110.577117 
L 172.468207 110.80065 
L 172.510993 111.024173 
L 172.553735 111.247706 
L 172.596449 111.471229 
L 172.639118 111.694762 
L 172.681751 111.918285 
L 172.724347 112.141808 
L 172.766907 112.365341 
L 172.809422 112.588864 
L 172.8519 112.812397 
L 172.894343 113.03592 
L 172.936749 113.259453 
L 172.979109 113.482976 
L 173.021434 113.706509 
L 173.063722 113.930032 
L 173.105964 114.153565 
L 173.148171 114.377088 
L 173.190332 114.600621 
L 173.232457 114.824144 
L 173.274546 115.047677 
L 173.316589 115.2712 
L 173.358587 115.494733 
L 173.400549 115.718256 
L 173.442474 115.941789 
L 173.484354 116.165312 
L 173.526189 116.388845 
L 173.567978 116.612378 
L 173.609731 116.835901 
L 173.651448 117.059434 
L 173.693111 117.282957 
L 173.734737 117.50649 
L 173.776327 117.730013 
L 173.817862 117.953546 
L 173.859362 118.177069 
L 173.900816 118.400602 
L 173.942224 118.624135 
L 173.983588 118.847658 
L 174.024915 119.071191 
" style="fill:none;stroke:#800080;stroke-linecap:square;stroke-width:1.5;"/>
   </g>
   <g id="line2d_74">
    <path clip-path="url(#p77f90f5a81)" d="M 174.024915 119.071191 
L 174.070875 119.294714 
L 174.11679 119.518237 
L 174.162659 119.741759 
L 174.208492 119.965282 
L 174.254271 120.188805 
L 174.300005 120.412338 
L 174.345693 120.635861 
L 174.391345 120.859383 
L 174.436942 121.082906 
L 174.482495 121.306429 
L 174.528002 121.529951 
L 174.573454 121.753485 
L 174.61887 121.977007 
L 174.664232 122.20053 
L 174.709548 122.424053 
L 174.75482 122.647575 
L 174.800045 122.871109 
L 174.845217 123.094631 
L 174.890343 123.318154 
L 174.935414 123.541677 
L 174.980441 123.765199 
L 175.025422 123.988733 
L 175.070348 124.212255 
L 175.115229 124.435778 
L 175.160056 124.659301 
L 175.204838 124.882834 
L 175.249565 125.106357 
L 175.294247 125.329879 
L 175.338874 125.553402 
L 175.383447 125.776935 
L 175.427975 126.000458 
L 175.472448 126.223981 
L 175.516867 126.447514 
L 175.56124 126.671037 
L 175.605559 126.894559 
L 175.649824 127.118082 
L 175.694034 127.341615 
L 175.738199 127.565138 
L 175.782301 127.788661 
L 175.826357 128.012194 
L 175.870359 128.235717 
L 175.914306 128.459239 
L 175.958199 128.682773 
L 176.002037 128.906295 
L 176.045822 129.129818 
L 176.089551 129.353351 
L 176.133227 129.576874 
L 176.176848 129.800397 
L 176.220414 130.02393 
L 176.263926 130.247453 
L 176.307375 130.470986 
L 176.350778 130.694509 
L 176.394118 130.918031 
L 176.437404 131.141565 
L 176.480635 131.365087 
L 176.523802 131.588621 
L 176.566915 131.812143 
L 176.609974 132.035666 
L 176.652979 132.259199 
L 176.69592 132.482722 
L 176.738806 132.706255 
L 176.781629 132.929778 
L 176.824398 133.153311 
L 176.867112 133.376834 
L 176.909763 133.600357 
L 176.95235 133.82389 
L 176.994883 134.047413 
L 177.037361 134.270946 
" style="fill:none;stroke:#800080;stroke-linecap:square;stroke-width:1.5;"/>
   </g>
   <g id="line2d_75">
    <path clip-path="url(#p77f90f5a81)" d="M 177.037361 134.270946 
L 177.112245 134.494426 
L 177.187083 134.717906 
L 177.261867 134.941386 
L 177.336597 135.164877 
L 177.411272 135.388357 
L 177.485902 135.611837 
L 177.560477 135.835317 
L 177.634989 136.058797 
L 177.709456 136.282288 
L 177.783859 136.505768 
L 177.858208 136.729248 
L 177.932502 136.952728 
L 178.006733 137.176218 
L 178.080909 137.399698 
L 178.155022 137.623178 
L 178.229072 137.846669 
L 178.303067 138.070149 
L 178.376998 138.293629 
L 178.450867 138.51712 
L 178.524671 138.7406 
L 178.598413 138.96408 
L 178.672081 139.187571 
L 178.745696 139.411051 
L 178.819237 139.634531 
L 178.892707 139.858021 
L 178.966121 140.081501 
L 179.039455 140.304992 
L 179.112724 140.528472 
L 179.185922 140.751963 
L 179.259055 140.975443 
L 179.332107 141.198934 
L 179.405096 141.422414 
L 179.478012 141.645894 
L 179.550847 141.869384 
L 179.623609 142.092875 
L 179.696298 142.316355 
L 179.768915 142.539846 
L 179.841451 142.763326 
L 179.913913 142.986816 
L 179.986295 143.210296 
L 180.058594 143.433787 
" style="fill:none;stroke:#800080;stroke-linecap:square;stroke-width:1.5;"/>
   </g>
   <g id="line2d_76">
    <path clip-path="url(#p77f90f5a81)" d="M 180.058594 143.433787 
L 180.180979 143.65715 
L 180.303401 143.880523 
L 180.425841 144.103897 
L 180.548307 144.327259 
L 180.670802 144.550633 
L 180.793314 144.773996 
L 180.915844 144.997369 
L 181.038392 145.220732 
L 181.160959 145.444105 
L 181.283544 145.667468 
L 181.406128 145.890842 
L 181.528731 146.114204 
L 181.651334 146.337578 
L 181.773946 146.560941 
L 181.896558 146.784303 
L 182.01917 147.007677 
L 182.141782 147.231039 
L 182.264394 147.454413 
L 182.386997 147.677776 
L 182.50959 147.901149 
L 182.632184 148.124512 
L 182.754751 148.347885 
L 182.877317 148.571248 
L 182.999857 148.794622 
" style="fill:none;stroke:#800080;stroke-linecap:square;stroke-width:1.5;"/>
   </g>
   <g id="line2d_77">
    <path clip-path="url(#p77f90f5a81)" d="M 182.999857 148.794622 
L 183.207707 149.017643 
L 183.416173 149.240676 
L 183.625229 149.463697 
L 183.834893 149.686708 
L 184.045163 149.90973 
L 184.256033 150.132741 
L 184.4675 150.355741 
L 184.679567 150.578752 
L 184.892231 150.801753 
L 185.105494 151.024753 
L 185.319346 151.247753 
L 185.533797 151.470743 
L 185.748837 151.693733 
L 185.964467 151.916722 
" style="fill:none;stroke:#800080;stroke-linecap:square;stroke-width:1.5;"/>
   </g>
   <g id="line2d_78">
    <path clip-path="url(#p77f90f5a81)" d="M 185.964467 151.916722 
L 186.522254 152.136482 
L 187.095274 152.356029 
L 187.684742 152.575341 
L 188.292008 152.794397 
L 188.918649 153.01315 
" style="fill:none;stroke:#800080;stroke-linecap:square;stroke-width:1.5;"/>
   </g>
   <g id="line2d_79">
    <path clip-path="url(#p77f90f5a81)" d="M 188.918649 153.01315 
L 191.621778 153.115733 
" style="fill:none;stroke:#800080;stroke-linecap:square;stroke-width:1.5;"/>
   </g>
   <g id="line2d_80">
    <path clip-path="url(#p77f90f5a81)" d="M 191.621778 153.115733 
L 192.5617 152.90312 
L 193.44072 152.689101 
L 194.268865 152.473999 
" style="fill:none;stroke:#800080;stroke-linecap:square;stroke-width:1.5;"/>
   </g>
   <g id="line2d_81">
    <path clip-path="url(#p77f90f5a81)" d="M 194.268865 152.473999 
L 195.231273 152.261925 
L 196.771543 152.069145 
" style="fill:none;stroke:#800080;stroke-linecap:square;stroke-width:1.5;"/>
   </g>
   <g id="line2d_82">
    <path clip-path="url(#p77f90f5a81)" d="M 196.771543 152.069145 
L 197.885839 152.277158 
L 198.504076 152.496043 
L 199.008922 152.716496 
L 199.451315 152.937668 
" style="fill:none;stroke:#800080;stroke-linecap:square;stroke-width:1.5;"/>
   </g>
   <g id="line2d_83">
    <path clip-path="url(#p77f90f5a81)" d="M 199.451315 152.937668 
L 199.702405 153.160456 
L 199.946496 153.383285 
L 200.184267 153.606147 
L 200.41628 153.829046 
L 200.642989 154.051977 
L 200.864838 154.27493 
L 201.082154 154.497909 
L 201.295281 154.720909 
L 201.504473 154.943931 
L 201.709984 155.166968 
L 201.912022 155.390027 
L 202.110805 155.613097 
L 202.306496 155.836182 
" style="fill:none;stroke:#800080;stroke-linecap:square;stroke-width:1.5;"/>
   </g>
   <g id="line2d_84">
    <path clip-path="url(#p77f90f5a81)" d="M 202.306496 155.836182 
L 202.464914 156.059428 
L 202.621835 156.282679 
L 202.777305 156.50594 
L 202.931361 156.729202 
L 203.084039 156.952469 
L 203.235375 157.175741 
L 203.385405 157.399018 
L 203.534166 157.622301 
L 203.681685 157.845589 
L 203.827989 158.068877 
L 203.973114 158.292176 
L 204.117069 158.515475 
L 204.2599 158.738779 
L 204.401607 158.962083 
L 204.542235 159.185393 
L 204.681793 159.408708 
L 204.820308 159.632028 
L 204.957799 159.855348 
L 205.094274 160.078673 
L 205.22977 160.301999 
" style="fill:none;stroke:#800080;stroke-linecap:square;stroke-width:1.5;"/>
   </g>
   <g id="line2d_85">
    <path clip-path="url(#p77f90f5a81)" d="M 205.22977 160.301999 
L 205.689218 160.522985 
L 206.107919 160.744407 
L 206.496083 160.966128 
L 206.860174 161.188073 
L 207.204626 161.410184 
L 207.532631 161.632433 
L 207.846564 161.854788 
L 208.148275 162.077234 
" style="fill:none;stroke:#800080;stroke-linecap:square;stroke-width:1.5;"/>
   </g>
   <g id="line2d_86">
    <path clip-path="url(#p77f90f5a81)" d="M 208.148275 162.077234 
L 208.400942 162.300011 
L 208.647418 162.52283 
L 208.888153 162.745675 
L 209.123558 162.968553 
L 209.354002 163.191463 
L 209.579787 163.414394 
L 209.80121 163.637352 
L 210.018517 163.860331 
L 210.231934 164.083331 
L 210.441661 164.306347 
L 210.647897 164.529385 
L 210.850796 164.752433 
L 211.050522 164.975503 
" style="fill:none;stroke:#800080;stroke-linecap:square;stroke-width:1.5;"/>
   </g>
   <g id="line2d_87">
    <path clip-path="url(#p77f90f5a81)" d="M 211.050522 164.975503 
L 211.225704 165.198679 
L 211.398819 165.421866 
L 211.56993 165.645064 
L 211.7391 165.868267 
L 211.906385 166.09148 
L 212.071838 166.314699 
L 212.235505 166.537923 
L 212.397431 166.761158 
L 212.557671 166.984393 
L 212.71626 167.207638 
L 212.873245 167.430895 
L 213.028652 167.654151 
L 213.182526 167.877412 
L 213.334905 168.100684 
L 213.485815 168.323957 
L 213.635292 168.547234 
L 213.783364 168.770522 
L 213.930057 168.99381 
L 214.0754 169.217104 
" style="fill:none;stroke:#800080;stroke-linecap:square;stroke-width:1.5;"/>
   </g>
   <g id="line2d_88">
    <path clip-path="url(#p77f90f5a81)" d="M 214.0754 169.217104 
L 214.228658 169.440371 
L 214.380384 169.663643 
L 214.530604 169.88692 
L 214.679365 170.110198 
L 214.826685 170.333486 
L 214.972599 170.556779 
L 215.117134 170.780078 
L 215.260319 171.003377 
L 215.402171 171.226687 
L 215.542735 171.449996 
L 215.682012 171.673311 
L 215.820047 171.896631 
L 215.956849 172.119956 
L 216.092435 172.343282 
L 216.226834 172.566613 
L 216.360073 172.789949 
L 216.492159 173.013285 
L 216.623113 173.236626 
L 216.752951 173.459973 
L 216.882798 173.68332 
L 217.013543 173.906661 
" style="fill:none;stroke:#800080;stroke-linecap:square;stroke-width:1.5;"/>
   </g>
   <g id="line2d_89">
    <path clip-path="url(#p77f90f5a81)" d="M 217.013543 173.906661 
L 217.158741 174.12996 
L 217.305135 174.353248 
L 217.452736 174.576536 
L 217.60156 174.799819 
L 217.751618 175.023097 
L 217.902954 175.246369 
L 218.055559 175.469636 
L 218.209479 175.692897 
L 218.364714 175.916159 
L 218.521299 176.13941 
L 218.679245 176.362661 
L 218.838587 176.585901 
L 218.999343 176.809141 
L 219.161532 177.03237 
L 219.325181 177.255595 
L 219.490326 177.478813 
L 219.656976 177.702027 
L 219.825167 177.925235 
L 219.994927 178.148438 
" style="fill:none;stroke:#800080;stroke-linecap:square;stroke-width:1.5;"/>
   </g>
   <g id="line2d_90">
    <path clip-path="url(#p77f90f5a81)" d="M 219.994927 178.148438 
L 220.207873 178.371438 
L 220.423611 178.594428 
L 220.642232 178.817396 
L 220.863801 179.040354 
L 221.088415 179.263296 
L 221.316149 179.486216 
L 221.547102 179.709121 
L 221.781355 179.932004 
L 222.019017 180.154871 
L 222.260215 180.377717 
L 222.505021 180.600541 
L 222.753564 180.823344 
L 223.005987 181.046126 
" style="fill:none;stroke:#800080;stroke-linecap:square;stroke-width:1.5;"/>
   </g>
   <g id="line2d_91">
    <path clip-path="url(#p77f90f5a81)" d="M 223.005987 181.046126 
L 223.289763 181.2687 
L 223.578871 181.491237 
L 223.873509 181.713736 
L 224.173933 181.936193 
L 224.480394 182.158607 
L 224.793167 182.380968 
L 225.11254 182.603286 
L 225.43884 182.825545 
L 225.772412 183.047746 
" style="fill:none;stroke:#800080;stroke-linecap:square;stroke-width:1.5;"/>
   </g>
   <g id="line2d_92">
    <path clip-path="url(#p77f90f5a81)" d="M 225.772412 183.047746 
L 226.194241 183.269137 
L 226.629852 183.490384 
L 227.080315 183.711471 
L 227.546916 183.932371 
L 228.031108 184.153074 
L 228.534576 184.373543 
" style="fill:none;stroke:#800080;stroke-linecap:square;stroke-width:1.5;"/>
   </g>
   <g id="line2d_93">
    <path clip-path="url(#p77f90f5a81)" d="M 228.534576 184.373543 
L 229.089163 184.593345 
L 229.670987 184.812769 
L 230.283602 185.03174 
L 230.931415 185.250162 
" style="fill:none;stroke:#800080;stroke-linecap:square;stroke-width:1.5;"/>
   </g>
   <g id="line2d_94">
    <path clip-path="url(#p77f90f5a81)" d="M 230.931415 185.250162 
L 231.901067 185.462055 
L 232.991147 185.670761 
" style="fill:none;stroke:#800080;stroke-linecap:square;stroke-width:1.5;"/>
   </g>
   <g id="line2d_95">
    <path clip-path="url(#p77f90f5a81)" d="M 232.991147 185.670761 
L 234.617298 185.859698 
" style="fill:none;stroke:#800080;stroke-linecap:square;stroke-width:1.5;"/>
   </g>
   <g id="line2d_96">
    <path clip-path="url(#p77f90f5a81)" d="M 234.617298 185.859698 
L 237.033867 185.995503 
" style="fill:none;stroke:#800080;stroke-linecap:square;stroke-width:1.5;"/>
   </g>
   <g id="line2d_97">
    <path clip-path="url(#p77f90f5a81)" d="M 237.033867 185.995503 
L 238.589496 185.803389 
L 239.927973 185.602635 
" style="fill:none;stroke:#800080;stroke-linecap:square;stroke-width:1.5;"/>
   </g>
   <g id="line2d_98">
    <path clip-path="url(#p77f90f5a81)" d="M 239.927973 185.602635 
L 240.64406 185.38537 
L 241.342176 185.167784 
L 242.023156 184.949906 
L 242.687761 184.731756 
" style="fill:none;stroke:#800080;stroke-linecap:square;stroke-width:1.5;"/>
   </g>
   <g id="line2d_99">
    <path clip-path="url(#p77f90f5a81)" d="M 242.687761 184.731756 
L 243.310187 184.512934 
L 243.920028 184.29392 
L 244.517755 184.074731 
L 245.10375 183.855365 
L 245.678465 183.63584 
" style="fill:none;stroke:#800080;stroke-linecap:square;stroke-width:1.5;"/>
   </g>
   <g id="line2d_100">
    <path clip-path="url(#p77f90f5a81)" d="M 245.678465 183.63584 
L 246.100494 183.414455 
L 246.519875 183.193037 
L 246.936518 182.971593 
L 247.350351 182.750123 
L 247.761336 182.52862 
L 248.16942 182.307091 
L 248.574566 182.085535 
" style="fill:none;stroke:#800080;stroke-linecap:square;stroke-width:1.5;"/>
   </g>
   <g id="line2d_101">
    <path clip-path="url(#p77f90f5a81)" d="M 248.574566 182.085535 
L 249.085142 181.865157 
L 249.587086 181.644667 
L 250.080707 181.424081 
L 250.566277 181.203399 
L 251.044104 180.982621 
L 251.514423 180.761758 
" style="fill:none;stroke:#800080;stroke-linecap:square;stroke-width:1.5;"/>
   </g>
   <g id="line2d_102">
    <path clip-path="url(#p77f90f5a81)" d="M 251.514423 180.761758 
L 251.897681 180.539994 
L 252.277821 180.318193 
L 252.654805 180.096365 
L 253.028689 179.874511 
L 253.399471 179.65263 
L 253.767189 179.430717 
L 254.131842 179.208782 
L 254.493485 178.986816 
" style="fill:none;stroke:#800080;stroke-linecap:square;stroke-width:1.5;"/>
   </g>
   <g id="line2d_103">
    <path clip-path="url(#p77f90f5a81)" d="M 254.493485 178.986816 
L 254.820946 178.764567 
L 255.146448 178.542297 
L 255.469992 178.320016 
L 255.791596 178.097719 
L 256.111223 177.875407 
L 256.428909 177.653083 
L 256.744638 177.430738 
L 257.058407 177.208383 
L 257.370255 176.986006 
" style="fill:none;stroke:#800080;stroke-linecap:square;stroke-width:1.5;"/>
   </g>
   <g id="line2d_104">
    <path clip-path="url(#p77f90f5a81)" d="M 257.370255 176.986006 
L 257.689193 176.763693 
L 258.005936 176.541354 
L 258.320504 176.319004 
L 258.632932 176.096638 
L 258.94322 175.874256 
L 259.251368 175.651852 
L 259.557449 175.429438 
L 259.861427 175.207008 
L 260.163355 174.984562 
" style="fill:none;stroke:#800080;stroke-linecap:square;stroke-width:1.5;"/>
   </g>
   <g id="line2d_105">
    <path clip-path="url(#p77f90f5a81)" d="M 260.163355 174.984562 
L 260.448908 174.761999 
L 260.732848 174.539425 
L 261.015137 174.31684 
L 261.295831 174.094245 
L 261.574911 173.871639 
L 261.852395 173.649017 
L 262.128301 173.42639 
L 262.40263 173.203752 
L 262.675381 172.981103 
L 262.946608 172.758444 
" style="fill:none;stroke:#800080;stroke-linecap:square;stroke-width:1.5;"/>
   </g>
   <g id="line2d_106">
    <path clip-path="url(#p77f90f5a81)" d="M 262.946608 172.758444 
L 263.224147 172.535828 
L 263.499962 172.313195 
L 263.774091 172.090557 
L 264.046534 171.867903 
L 264.31729 171.645244 
L 264.586415 171.422569 
L 264.853907 171.199888 
L 265.119785 170.977192 
L 265.384068 170.754484 
L 265.646772 170.531772 
L 265.907918 170.309049 
" style="fill:none;stroke:#800080;stroke-linecap:square;stroke-width:1.5;"/>
   </g>
   <g id="line2d_107">
    <path clip-path="url(#p77f90f5a81)" d="M 265.907918 170.309049 
L 266.190407 170.086464 
L 266.470792 169.863863 
L 266.74911 169.641252 
L 267.025379 169.41863 
L 267.299635 169.195987 
L 267.571915 168.973338 
L 267.842254 168.750669 
L 268.110689 168.527993 
L 268.377256 168.305302 
L 268.641956 168.0826 
L 268.90486 167.859888 
" style="fill:none;stroke:#800080;stroke-linecap:square;stroke-width:1.5;"/>
   </g>
   <g id="line2d_108">
    <path clip-path="url(#p77f90f5a81)" d="M 268.90486 167.859888 
L 269.259159 167.637857 
L 269.608417 167.41579 
L 269.952851 167.193674 
L 270.292643 166.971527 
L 270.627973 166.749336 
L 270.959007 166.527114 
L 271.285905 166.30486 
L 271.608814 166.082574 
L 271.927879 165.860256 
" style="fill:none;stroke:#800080;stroke-linecap:square;stroke-width:1.5;"/>
   </g>
   <g id="line2d_109">
    <path clip-path="url(#p77f90f5a81)" d="M 271.927879 165.860256 
L 272.368223 165.639062 
L 272.798321 165.417757 
L 273.218863 165.196355 
L 273.630483 164.974858 
L 274.033689 164.753281 
L 274.429043 164.531629 
L 274.816943 164.309902 
" style="fill:none;stroke:#800080;stroke-linecap:square;stroke-width:1.5;"/>
   </g>
   <g id="line2d_110">
    <path clip-path="url(#p77f90f5a81)" d="M 274.816943 164.309902 
L 275.36172 164.089967 
L 275.887275 163.869775 
L 276.39553 163.64937 
L 276.888136 163.428769 
L 277.366488 163.208001 
L 277.831784 162.98708 
" style="fill:none;stroke:#800080;stroke-linecap:square;stroke-width:1.5;"/>
   </g>
   <g id="line2d_111">
    <path clip-path="url(#p77f90f5a81)" d="M 277.831784 162.98708 
L 278.528558 162.769473 
L 279.187506 162.551232 
L 279.814338 162.33248 
L 280.413444 162.113306 
" style="fill:none;stroke:#800080;stroke-linecap:square;stroke-width:1.5;"/>
   </g>
   <g id="line2d_112">
    <path clip-path="url(#p77f90f5a81)" d="M 280.413444 162.113306 
L 281.309473 161.899671 
L 282.13293 161.684468 
L 282.899338 161.468124 
" style="fill:none;stroke:#800080;stroke-linecap:square;stroke-width:1.5;"/>
   </g>
   <g id="line2d_113">
    <path clip-path="url(#p77f90f5a81)" d="M 282.899338 161.468124 
L 284.074048 161.261913 
L 285.108076 161.051672 
" style="fill:none;stroke:#800080;stroke-linecap:square;stroke-width:1.5;"/>
   </g>
   <g id="line2d_114">
    <path clip-path="url(#p77f90f5a81)" d="M 285.108076 161.051672 
L 286.752143 160.863572 
L 288.092923 160.662903 
" style="fill:none;stroke:#800080;stroke-linecap:square;stroke-width:1.5;"/>
   </g>
   <g id="line2d_115">
    <path clip-path="url(#p77f90f5a81)" d="M 288.092923 160.662903 
L 290.974081 160.591105 
" style="fill:none;stroke:#800080;stroke-linecap:square;stroke-width:1.5;"/>
   </g>
   <g id="line2d_116">
    <path clip-path="url(#p77f90f5a81)" d="M 290.974081 160.591105 
L 293.377321 160.454022 
" style="fill:none;stroke:#800080;stroke-linecap:square;stroke-width:1.5;"/>
   </g>
   <g id="line2d_117">
    <path clip-path="url(#p77f90f5a81)" d="M 293.377321 160.454022 
L 295.314051 160.281623 
" style="fill:none;stroke:#800080;stroke-linecap:square;stroke-width:1.5;"/>
   </g>
   <g id="line2d_118">
    <path clip-path="url(#p77f90f5a81)" d="M 295.314051 160.281623 
L 297.004378 160.09575 
" style="fill:none;stroke:#800080;stroke-linecap:square;stroke-width:1.5;"/>
   </g>
   <g id="line2d_119">
    <path clip-path="url(#p77f90f5a81)" d="M 297.004378 160.09575 
L 298.544195 159.902949 
L 299.888293 159.702398 
" style="fill:none;stroke:#800080;stroke-linecap:square;stroke-width:1.5;"/>
   </g>
   <g id="line2d_120">
    <path clip-path="url(#p77f90f5a81)" d="M 299.888293 159.702398 
L 300.156293 159.479717 
L 300.422008 159.257026 
L 300.685474 159.034313 
L 300.946746 158.81159 
L 301.205897 158.588851 
L 301.462926 158.366101 
L 301.717888 158.143341 
L 301.970855 157.920564 
L 302.221827 157.697777 
L 302.470841 157.474979 
L 302.717969 157.252165 
" style="fill:none;stroke:#800080;stroke-linecap:square;stroke-width:1.5;"/>
   </g>
   <g id="line2d_121">
    <path clip-path="url(#p77f90f5a81)" d="M 302.717969 157.252165 
L 303.006496 157.029623 
L 303.292176 156.807065 
L 303.575119 156.584481 
L 303.855377 156.361886 
L 304.132988 156.139264 
L 304.408042 155.916631 
L 304.680593 155.693982 
L 304.950679 155.471313 
L 305.21837 155.248632 
L 305.483723 155.025935 
L 305.746772 154.803223 
" style="fill:none;stroke:#800080;stroke-linecap:square;stroke-width:1.5;"/>
   </g>
   <g id="line2d_122">
    <path clip-path="url(#p77f90f5a81)" d="M 305.746772 154.803223 
L 305.919443 154.580031 
L 306.091388 154.356839 
L 306.262607 154.133646 
L 306.433138 153.910449 
L 306.602943 153.687246 
L 306.772059 153.464043 
L 306.940486 153.240835 
L 307.108206 153.017627 
L 307.275255 152.794413 
L 307.441633 152.571194 
L 307.607322 152.347981 
L 307.772358 152.124756 
L 307.936723 151.901543 
L 308.100435 151.678308 
L 308.263494 151.455084 
L 308.425919 151.231849 
L 308.587691 151.008625 
L 308.748828 150.785379 
" style="fill:none;stroke:#800080;stroke-linecap:square;stroke-width:1.5;"/>
   </g>
   <g id="line2d_123">
    <path clip-path="url(#p77f90f5a81)" d="M 308.748828 150.785379 
L 308.935716 150.562262 
L 309.121642 150.339123 
L 309.306625 150.115995 
L 309.490665 149.892845 
L 309.673799 149.669706 
L 309.856008 149.446556 
L 310.03731 149.223407 
L 310.217723 149.000247 
L 310.397248 148.777086 
L 310.575885 148.553926 
L 310.753669 148.330755 
L 310.930583 148.107584 
L 311.106626 147.884413 
L 311.281853 147.661232 
L 311.456228 147.43805 
L 311.629787 147.214869 
" style="fill:none;stroke:#800080;stroke-linecap:square;stroke-width:1.5;"/>
   </g>
   <g id="line2d_124">
    <path clip-path="url(#p77f90f5a81)" d="M 311.629787 147.214869 
L 311.829313 146.991794 
L 312.027661 146.768719 
L 312.224831 146.545644 
L 312.420857 146.322558 
L 312.615723 146.099473 
L 312.809483 145.876376 
L 313.002101 145.653269 
L 313.193631 145.430162 
L 313.384072 145.207056 
L 313.573444 144.983938 
L 313.761745 144.76082 
L 313.948995 144.537692 
L 314.135212 144.314564 
L 314.320394 144.091425 
L 314.504562 143.868286 
" style="fill:none;stroke:#800080;stroke-linecap:square;stroke-width:1.5;"/>
   </g>
   <g id="line2d_125">
    <path clip-path="url(#p77f90f5a81)" d="M 314.504562 143.868286 
L 314.715966 143.645275 
L 314.925919 143.422264 
L 315.134477 143.199232 
L 315.341656 142.97621 
L 315.547457 142.753167 
L 315.751916 142.530124 
L 315.955033 142.30707 
L 316.156844 142.084017 
L 316.357368 141.860952 
L 316.556604 141.637888 
L 316.75459 141.414803 
L 316.951324 141.191728 
L 317.146825 140.968642 
L 317.34111 140.745546 
L 317.534199 140.522449 
" style="fill:none;stroke:#800080;stroke-linecap:square;stroke-width:1.5;"/>
   </g>
   <g id="line2d_126">
    <path clip-path="url(#p77f90f5a81)" d="M 317.534199 140.522449 
L 317.7575 140.299502 
L 317.979095 140.076545 
L 318.199022 139.853576 
L 318.417317 139.630608 
L 318.633998 139.407629 
L 318.849084 139.184639 
L 319.06261 138.961639 
L 319.274594 138.738628 
L 319.485037 138.515617 
L 319.693993 138.292595 
L 319.901481 138.069563 
L 320.107499 137.846531 
L 320.312085 137.623488 
L 320.515257 137.400434 
" style="fill:none;stroke:#800080;stroke-linecap:square;stroke-width:1.5;"/>
   </g>
   <g id="line2d_127">
    <path clip-path="url(#p77f90f5a81)" d="M 320.515257 137.400434 
L 320.749383 137.177551 
L 320.98155 136.954646 
L 321.211795 136.731742 
L 321.440137 136.508827 
L 321.66661 136.285891 
L 321.891252 136.062954 
L 322.114099 135.840007 
L 322.335168 135.617049 
L 322.554479 135.394081 
L 322.772085 135.171102 
L 322.987986 134.948112 
L 323.202219 134.725123 
L 323.41482 134.502122 
" style="fill:none;stroke:#800080;stroke-linecap:square;stroke-width:1.5;"/>
   </g>
   <g id="line2d_128">
    <path clip-path="url(#p77f90f5a81)" d="M 323.41482 134.502122 
L 323.659246 134.279293 
L 323.901442 134.056452 
L 324.141425 133.833601 
L 324.37925 133.610729 
L 324.614954 133.387856 
L 324.848572 133.164962 
L 325.080141 132.942069 
L 325.309679 132.719154 
L 325.537259 132.496228 
L 325.76288 132.273291 
L 325.986597 132.050355 
L 326.208428 131.827397 
L 326.42841 131.604429 
" style="fill:none;stroke:#800080;stroke-linecap:square;stroke-width:1.5;"/>
   </g>
   <g id="line2d_129">
    <path clip-path="url(#p77f90f5a81)" d="M 326.42841 131.604429 
L 326.683245 131.381663 
L 326.935522 131.158887 
L 327.185316 130.936089 
L 327.432643 130.71328 
L 327.677559 130.490461 
L 327.920117 130.267621 
L 328.160354 130.04477 
L 328.398306 129.821908 
L 328.634046 129.599025 
L 328.867574 129.376142 
L 329.098943 129.153237 
L 329.328209 128.930322 
" style="fill:none;stroke:#800080;stroke-linecap:square;stroke-width:1.5;"/>
   </g>
   <g id="line2d_130">
    <path clip-path="url(#p77f90f5a81)" d="M 329.328209 128.930322 
L 329.592709 128.70762 
L 329.854344 128.484897 
L 330.113169 128.262163 
L 330.369255 128.039398 
L 330.622621 127.816632 
L 330.873357 127.593845 
L 331.121482 127.371036 
L 331.367087 127.148217 
L 331.610189 126.925377 
L 331.850843 126.702536 
L 332.089104 126.479674 
L 332.325007 126.256791 
" style="fill:none;stroke:#800080;stroke-linecap:square;stroke-width:1.5;"/>
   </g>
   <g id="line2d_131">
    <path clip-path="url(#p77f90f5a81)" d="M 332.325007 126.256791 
L 332.592046 126.034111 
L 332.856038 125.811398 
L 333.117056 125.588675 
L 333.375173 125.36593 
L 333.630425 125.143165 
L 333.882866 124.920388 
L 334.132587 124.697601 
L 334.379625 124.474782 
L 334.624014 124.251963 
L 334.865829 124.029112 
L 335.105123 123.806261 
L 335.341933 123.583388 
" style="fill:none;stroke:#800080;stroke-linecap:square;stroke-width:1.5;"/>
   </g>
   <g id="line2d_132">
    <path clip-path="url(#p77f90f5a81)" d="M 335.341933 123.583388 
L 335.618564 123.360761 
L 335.891805 123.138112 
L 336.161709 122.915453 
L 336.428331 122.692762 
L 336.698869 122.470092 
L 336.974268 122.247465 
L 337.254798 122.024869 
L 337.540733 121.802306 
L 337.832343 121.579785 
L 338.129973 121.357307 
" style="fill:none;stroke:#800080;stroke-linecap:square;stroke-width:1.5;"/>
   </g>
   <g id="line2d_133">
    <path clip-path="url(#p77f90f5a81)" d="M 338.129973 121.357307 
L 338.49314 121.135362 
L 338.867948 120.913513 
L 339.255559 120.691781 
L 339.65735 120.470188 
L 340.075008 120.248755 
L 340.510583 120.027513 
L 340.966558 119.806485 
" style="fill:none;stroke:#800080;stroke-linecap:square;stroke-width:1.5;"/>
   </g>
   <g id="line2d_134">
    <path clip-path="url(#p77f90f5a81)" d="M 340.966558 119.806485 
L 341.508361 119.586512 
L 342.090983 119.367104 
L 342.725304 119.148463 
L 343.428081 118.930964 
" style="fill:none;stroke:#800080;stroke-linecap:square;stroke-width:1.5;"/>
   </g>
   <g id="line2d_135">
    <path clip-path="url(#p77f90f5a81)" d="M 343.428081 118.930964 
L 344.377351 118.71857 
L 345.593152 118.513648 
" style="fill:none;stroke:#800080;stroke-linecap:square;stroke-width:1.5;"/>
   </g>
   <g id="line2d_136">
    <path clip-path="url(#p77f90f5a81)" d="M 345.593152 118.513648 
L 347.746073 118.355693 
" style="fill:none;stroke:#800080;stroke-linecap:square;stroke-width:1.5;"/>
   </g>
   <g id="line2d_137">
    <path clip-path="url(#p77f90f5a81)" d="M 347.746073 118.355693 
L 349.899539 118.513605 
" style="fill:none;stroke:#800080;stroke-linecap:square;stroke-width:1.5;"/>
   </g>
   <g id="line2d_138">
    <path clip-path="url(#p77f90f5a81)" d="M 349.899539 118.513605 
L 350.8693 118.725498 
L 351.605389 118.942401 
L 352.220688 119.16133 
L 352.758229 119.381367 
" style="fill:none;stroke:#800080;stroke-linecap:square;stroke-width:1.5;"/>
   </g>
   <g id="line2d_139">
    <path clip-path="url(#p77f90f5a81)" d="M 352.758229 119.381367 
L 353.295607 119.601404 
L 353.776516 119.822144 
L 354.214539 120.043364 
L 354.618525 120.264936 
L 354.99462 120.486764 
L 355.347305 120.708805 
L 355.67997 120.931016 
" style="fill:none;stroke:#800080;stroke-linecap:square;stroke-width:1.5;"/>
   </g>
   <g id="line2d_140">
    <path clip-path="url(#p77f90f5a81)" d="M 355.67997 120.931016 
L 356.041323 121.152983 
L 356.380843 121.375141 
L 356.701612 121.597438 
L 357.006007 121.819873 
L 357.295985 122.042405 
L 357.573106 122.265021 
L 357.838676 122.487712 
L 358.093819 122.710478 
L 358.339442 122.933297 
L 358.576343 123.15617 
" style="fill:none;stroke:#800080;stroke-linecap:square;stroke-width:1.5;"/>
   </g>
   <g id="line2d_141">
    <path clip-path="url(#p77f90f5a81)" d="M 358.576343 123.15617 
L 358.844887 123.37885 
L 359.102278 123.601595 
L 359.349587 123.824403 
L 359.587703 124.047265 
L 359.817386 124.27018 
L 360.039344 124.493138 
L 360.254139 124.716128 
L 360.462279 124.939149 
L 360.664236 125.162203 
L 360.860426 125.385288 
L 361.051194 125.608406 
L 361.236866 125.831534 
L 361.417751 126.054684 
L 361.594103 126.277865 
" style="fill:none;stroke:#800080;stroke-linecap:square;stroke-width:1.5;"/>
   </g>
   <g id="line2d_142">
    <path clip-path="url(#p77f90f5a81)" d="M 361.594103 126.277865 
L 361.799613 126.500898 
L 361.998795 126.723973 
L 362.192102 126.947069 
L 362.379896 127.170187 
L 362.562558 127.393336 
L 362.74036 127.616507 
L 362.913611 127.839689 
L 363.082564 128.062892 
L 363.247419 128.286116 
L 363.408429 128.509351 
L 363.565758 128.732607 
L 363.719588 128.955863 
L 363.870098 129.17914 
L 364.017436 129.402429 
L 364.161745 129.625727 
L 364.303134 129.849037 
L 364.441749 130.072357 
L 364.577699 130.295677 
" style="fill:none;stroke:#800080;stroke-linecap:square;stroke-width:1.5;"/>
   </g>
   <g id="line2d_143">
    <path clip-path="url(#p77f90f5a81)" d="M 364.577699 130.295677 
L 364.735391 130.518933 
L 364.889401 130.742189 
L 365.039912 130.965467 
L 365.187086 131.188755 
L 365.331087 131.412054 
L 365.472059 131.635363 
L 365.61013 131.858684 
L 365.745427 132.082014 
L 365.878076 132.305345 
L 366.008186 132.528697 
L 366.13583 132.752049 
L 366.261135 132.975401 
L 366.384173 133.198775 
L 366.505035 133.422148 
L 366.623794 133.645522 
L 366.740539 133.868906 
L 366.855326 134.092301 
L 366.968209 134.315695 
L 367.079279 134.539101 
L 367.188572 134.762506 
L 367.29616 134.985912 
L 367.40208 135.209328 
L 367.506404 135.432744 
L 367.609168 135.65617 
" style="fill:none;stroke:#800080;stroke-linecap:square;stroke-width:1.5;"/>
   </g>
   <g id="line2d_144">
    <path clip-path="url(#p77f90f5a81)" d="M 367.609168 135.65617 
L 367.733494 135.879533 
L 367.855444 136.102896 
L 367.975127 136.326269 
L 368.092616 136.549654 
L 368.208002 136.773048 
L 368.321356 136.996443 
L 368.432734 137.219838 
L 368.542244 137.443243 
L 368.650304 137.666649 
L 368.758418 137.890065 
L 368.866586 138.11347 
L 368.974809 138.336875 
L 369.083086 138.560281 
L 369.191418 138.783697 
L 369.299785 139.007102 
L 369.408207 139.230508 
L 369.516684 139.453913 
L 369.625215 139.677319 
L 369.733782 139.900735 
L 369.842386 140.12414 
L 369.951062 140.347545 
L 370.059756 140.570951 
L 370.168523 140.794356 
L 370.277308 141.017762 
L 370.386147 141.241167 
L 370.495041 141.464573 
L 370.603953 141.687989 
" style="fill:none;stroke:#800080;stroke-linecap:square;stroke-width:1.5;"/>
   </g>
   <g id="line2d_145">
    <path clip-path="url(#p77f90f5a81)" d="M 370.603953 141.687989 
L 370.744091 141.911298 
L 370.884374 142.134608 
L 371.024839 142.357917 
L 371.165485 142.581227 
L 371.306294 142.804536 
L 371.447266 143.027845 
L 371.58842 143.251155 
L 371.729737 143.474464 
L 371.871217 143.697774 
L 372.012861 143.921083 
L 372.154685 144.144382 
L 372.296655 144.367692 
L 372.438806 144.591001 
L 372.581103 144.8143 
L 372.72358 145.037609 
L 372.866221 145.260908 
L 373.009025 145.484218 
L 373.151974 145.707516 
L 373.295104 145.930815 
L 373.43838 146.154125 
L 373.581818 146.377424 
" style="fill:none;stroke:#800080;stroke-linecap:square;stroke-width:1.5;"/>
   </g>
   <g id="patch_3">
    <path d="M 54 252 
L 54 34.56 
" style="fill:none;stroke:#000000;stroke-linecap:square;stroke-linejoin:miter;stroke-width:0.8;"/>
   </g>
   <g id="patch_4">
    <path d="M 388.8 252 
L 388.8 34.56 
" style="fill:none;stroke:#000000;stroke-linecap:square;stroke-linejoin:miter;stroke-width:0.8;"/>
   </g>
   <g id="patch_5">
    <path d="M 54 252 
L 388.8 252 
" style="fill:none;stroke:#000000;stroke-linecap:square;stroke-linejoin:miter;stroke-width:0.8;"/>
   </g>
   <g id="patch_6">
    <path d="M 54 34.56 
L 388.8 34.56 
" style="fill:none;stroke:#000000;stroke-linecap:square;stroke-linejoin:miter;stroke-width:0.8;"/>
   </g>
   <g id="text_14">
    <!-- controller -->
    <defs>
     <path d="M 48.78125 52.59375 
L 48.78125 44.1875 
Q 44.96875 46.296875 41.140625 47.34375 
Q 37.3125 48.390625 33.40625 48.390625 
Q 24.65625 48.390625 19.8125 42.84375 
Q 14.984375 37.3125 14.984375 27.296875 
Q 14.984375 17.28125 19.8125 11.734375 
Q 24.65625 6.203125 33.40625 6.203125 
Q 37.3125 6.203125 41.140625 7.25 
Q 44.96875 8.296875 48.78125 10.40625 
L 48.78125 2.09375 
Q 45.015625 0.34375 40.984375 -0.53125 
Q 36.96875 -1.421875 32.421875 -1.421875 
Q 20.0625 -1.421875 12.78125 6.34375 
Q 5.515625 14.109375 5.515625 27.296875 
Q 5.515625 40.671875 12.859375 48.328125 
Q 20.21875 56 33.015625 56 
Q 37.15625 56 41.109375 55.140625 
Q 45.0625 54.296875 48.78125 52.59375 
z
" id="DejaVuSans-99"/>
     <path d="M 30.609375 48.390625 
Q 23.390625 48.390625 19.1875 42.75 
Q 14.984375 37.109375 14.984375 27.296875 
Q 14.984375 17.484375 19.15625 11.84375 
Q 23.34375 6.203125 30.609375 6.203125 
Q 37.796875 6.203125 41.984375 11.859375 
Q 46.1875 17.53125 46.1875 27.296875 
Q 46.1875 37.015625 41.984375 42.703125 
Q 37.796875 48.390625 30.609375 48.390625 
z
M 30.609375 56 
Q 42.328125 56 49.015625 48.375 
Q 55.71875 40.765625 55.71875 27.296875 
Q 55.71875 13.875 49.015625 6.21875 
Q 42.328125 -1.421875 30.609375 -1.421875 
Q 18.84375 -1.421875 12.171875 6.21875 
Q 5.515625 13.875 5.515625 27.296875 
Q 5.515625 40.765625 12.171875 48.375 
Q 18.84375 56 30.609375 56 
z
" id="DejaVuSans-111"/>
     <path d="M 54.890625 33.015625 
L 54.890625 0 
L 45.90625 0 
L 45.90625 32.71875 
Q 45.90625 40.484375 42.875 44.328125 
Q 39.84375 48.1875 33.796875 48.1875 
Q 26.515625 48.1875 22.3125 43.546875 
Q 18.109375 38.921875 18.109375 30.90625 
L 18.109375 0 
L 9.078125 0 
L 9.078125 54.6875 
L 18.109375 54.6875 
L 18.109375 46.1875 
Q 21.34375 51.125 25.703125 53.5625 
Q 30.078125 56 35.796875 56 
Q 45.21875 56 50.046875 50.171875 
Q 54.890625 44.34375 54.890625 33.015625 
z
" id="DejaVuSans-110"/>
     <path d="M 18.3125 70.21875 
L 18.3125 54.6875 
L 36.8125 54.6875 
L 36.8125 47.703125 
L 18.3125 47.703125 
L 18.3125 18.015625 
Q 18.3125 11.328125 20.140625 9.421875 
Q 21.96875 7.515625 27.59375 7.515625 
L 36.8125 7.515625 
L 36.8125 0 
L 27.59375 0 
Q 17.1875 0 13.234375 3.875 
Q 9.28125 7.765625 9.28125 18.015625 
L 9.28125 47.703125 
L 2.6875 47.703125 
L 2.6875 54.6875 
L 9.28125 54.6875 
L 9.28125 70.21875 
z
" id="DejaVuSans-116"/>
     <path d="M 41.109375 46.296875 
Q 39.59375 47.171875 37.8125 47.578125 
Q 36.03125 48 33.890625 48 
Q 26.265625 48 22.1875 43.046875 
Q 18.109375 38.09375 18.109375 28.8125 
L 18.109375 0 
L 9.078125 0 
L 9.078125 54.6875 
L 18.109375 54.6875 
L 18.109375 46.1875 
Q 20.953125 51.171875 25.484375 53.578125 
Q 30.03125 56 36.53125 56 
Q 37.453125 56 38.578125 55.875 
Q 39.703125 55.765625 41.0625 55.515625 
z
" id="DejaVuSans-114"/>
     <path d="M 9.421875 75.984375 
L 18.40625 75.984375 
L 18.40625 0 
L 9.421875 0 
z
" id="DejaVuSans-108"/>
     <path d="M 56.203125 29.59375 
L 56.203125 25.203125 
L 14.890625 25.203125 
Q 15.484375 15.921875 20.484375 11.0625 
Q 25.484375 6.203125 34.421875 6.203125 
Q 39.59375 6.203125 44.453125 7.46875 
Q 49.3125 8.734375 54.109375 11.28125 
L 54.109375 2.78125 
Q 49.265625 0.734375 44.1875 -0.34375 
Q 39.109375 -1.421875 33.890625 -1.421875 
Q 20.796875 -1.421875 13.15625 6.1875 
Q 5.515625 13.8125 5.515625 26.8125 
Q 5.515625 40.234375 12.765625 48.109375 
Q 20.015625 56 32.328125 56 
Q 43.359375 56 49.78125 48.890625 
Q 56.203125 41.796875 56.203125 29.59375 
z
M 47.21875 32.234375 
Q 47.125 39.59375 43.09375 43.984375 
Q 39.0625 48.390625 32.421875 48.390625 
Q 24.90625 48.390625 20.390625 44.140625 
Q 15.875 39.890625 15.1875 32.171875 
z
" id="DejaVuSans-101"/>
    </defs>
    <g transform="translate(192.646875 28.56)scale(0.12 -0.12)">
     <use xlink:href="#DejaVuSans-99"/>
     <use x="54.980469" xlink:href="#DejaVuSans-111"/>
     <use x="116.162109" xlink:href="#DejaVuSans-110"/>
     <use x="179.541016" xlink:href="#DejaVuSans-116"/>
     <use x="218.75" xlink:href="#DejaVuSans-114"/>
     <use x="259.832031" xlink:href="#DejaVuSans-111"/>
     <use x="321.013672" xlink:href="#DejaVuSans-108"/>
     <use x="348.796875" xlink:href="#DejaVuSans-108"/>
     <use x="376.580078" xlink:href="#DejaVuSans-101"/>
     <use x="438.103516" xlink:href="#DejaVuSans-114"/>
    </g>
   </g>
  </g>
 </g>
 <defs>
  <clipPath id="p77f90f5a81">
   <rect height="217.44" width="334.8" x="54" y="34.56"/>
  </clipPath>
 </defs>
</svg>
