<?xml version="1.0" encoding="utf-8" standalone="no"?>
<!DOCTYPE svg PUBLIC "-//W3C//DTD SVG 1.1//EN"
  "http://www.w3.org/Graphics/SVG/1.1/DTD/svg11.dtd">
<!-- Created with matplotlib (https://matplotlib.org/) -->
<svg height="288pt" version="1.1" viewBox="0 0 432 288" width="432pt" xmlns="http://www.w3.org/2000/svg" xmlns:xlink="http://www.w3.org/1999/xlink">
 <defs>
  <style type="text/css">
*{stroke-linecap:butt;stroke-linejoin:round;}
  </style>
 </defs>
 <g id="figure_1">
  <g id="patch_1">
   <path d="M 0 288 
L 432 288 
L 432 0 
L 0 0 
z
" style="fill:#ffffff;"/>
  </g>
  <g id="axes_1">
   <g id="patch_2">
    <path d="M 54 252 
L 388.8 252 
L 388.8 34.56 
L 54 34.56 
z
" style="fill:#ffffff;"/>
   </g>
   <g id="matplotlib.axis_1">
    <g id="xtick_1">
     <g id="line2d_1">
      <defs>
       <path d="M 0 0 
L 0 3.5 
" id="m08d23c8030" style="stroke:#000000;stroke-width:0.8;"/>
      </defs>
      <g>
       <use style="stroke:#000000;stroke-width:0.8;" x="69.218182" xlink:href="#m08d23c8030" y="252"/>
      </g>
     </g>
     <g id="text_1">
      <!-- 0.0 -->
      <defs>
       <path d="M 31.78125 66.40625 
Q 24.171875 66.40625 20.328125 58.90625 
Q 16.5 51.421875 16.5 36.375 
Q 16.5 21.390625 20.328125 13.890625 
Q 24.171875 6.390625 31.78125 6.390625 
Q 39.453125 6.390625 43.28125 13.890625 
Q 47.125 21.390625 47.125 36.375 
Q 47.125 51.421875 43.28125 58.90625 
Q 39.453125 66.40625 31.78125 66.40625 
z
M 31.78125 74.21875 
Q 44.046875 74.21875 50.515625 64.515625 
Q 56.984375 54.828125 56.984375 36.375 
Q 56.984375 17.96875 50.515625 8.265625 
Q 44.046875 -1.421875 31.78125 -1.421875 
Q 19.53125 -1.421875 13.0625 8.265625 
Q 6.59375 17.96875 6.59375 36.375 
Q 6.59375 54.828125 13.0625 64.515625 
Q 19.53125 74.21875 31.78125 74.21875 
z
" id="DejaVuSans-48"/>
       <path d="M 10.6875 12.40625 
L 21 12.40625 
L 21 0 
L 10.6875 0 
z
" id="DejaVuSans-46"/>
      </defs>
      <g transform="translate(61.266619 266.598437)scale(0.1 -0.1)">
       <use xlink:href="#DejaVuSans-48"/>
       <use x="63.623047" xlink:href="#DejaVuSans-46"/>
       <use x="95.410156" xlink:href="#DejaVuSans-48"/>
      </g>
     </g>
    </g>
    <g id="xtick_2">
     <g id="line2d_2">
      <g>
       <use style="stroke:#000000;stroke-width:0.8;" x="130.090909" xlink:href="#m08d23c8030" y="252"/>
      </g>
     </g>
     <g id="text_2">
      <!-- 0.2 -->
      <defs>
       <path d="M 19.1875 8.296875 
L 53.609375 8.296875 
L 53.609375 0 
L 7.328125 0 
L 7.328125 8.296875 
Q 12.9375 14.109375 22.625 23.890625 
Q 32.328125 33.6875 34.8125 36.53125 
Q 39.546875 41.84375 41.421875 45.53125 
Q 43.3125 49.21875 43.3125 52.78125 
Q 43.3125 58.59375 39.234375 62.25 
Q 35.15625 65.921875 28.609375 65.921875 
Q 23.96875 65.921875 18.8125 64.3125 
Q 13.671875 62.703125 7.8125 59.421875 
L 7.8125 69.390625 
Q 13.765625 71.78125 18.9375 73 
Q 24.125 74.21875 28.421875 74.21875 
Q 39.75 74.21875 46.484375 68.546875 
Q 53.21875 62.890625 53.21875 53.421875 
Q 53.21875 48.921875 51.53125 44.890625 
Q 49.859375 40.875 45.40625 35.40625 
Q 44.1875 33.984375 37.640625 27.21875 
Q 31.109375 20.453125 19.1875 8.296875 
z
" id="DejaVuSans-50"/>
      </defs>
      <g transform="translate(122.139347 266.598437)scale(0.1 -0.1)">
       <use xlink:href="#DejaVuSans-48"/>
       <use x="63.623047" xlink:href="#DejaVuSans-46"/>
       <use x="95.410156" xlink:href="#DejaVuSans-50"/>
      </g>
     </g>
    </g>
    <g id="xtick_3">
     <g id="line2d_3">
      <g>
       <use style="stroke:#000000;stroke-width:0.8;" x="190.963636" xlink:href="#m08d23c8030" y="252"/>
      </g>
     </g>
     <g id="text_3">
      <!-- 0.4 -->
      <defs>
       <path d="M 37.796875 64.3125 
L 12.890625 25.390625 
L 37.796875 25.390625 
z
M 35.203125 72.90625 
L 47.609375 72.90625 
L 47.609375 25.390625 
L 58.015625 25.390625 
L 58.015625 17.1875 
L 47.609375 17.1875 
L 47.609375 0 
L 37.796875 0 
L 37.796875 17.1875 
L 4.890625 17.1875 
L 4.890625 26.703125 
z
" id="DejaVuSans-52"/>
      </defs>
      <g transform="translate(183.012074 266.598437)scale(0.1 -0.1)">
       <use xlink:href="#DejaVuSans-48"/>
       <use x="63.623047" xlink:href="#DejaVuSans-46"/>
       <use x="95.410156" xlink:href="#DejaVuSans-52"/>
      </g>
     </g>
    </g>
    <g id="xtick_4">
     <g id="line2d_4">
      <g>
       <use style="stroke:#000000;stroke-width:0.8;" x="251.836364" xlink:href="#m08d23c8030" y="252"/>
      </g>
     </g>
     <g id="text_4">
      <!-- 0.6 -->
      <defs>
       <path d="M 33.015625 40.375 
Q 26.375 40.375 22.484375 35.828125 
Q 18.609375 31.296875 18.609375 23.390625 
Q 18.609375 15.53125 22.484375 10.953125 
Q 26.375 6.390625 33.015625 6.390625 
Q 39.65625 6.390625 43.53125 10.953125 
Q 47.40625 15.53125 47.40625 23.390625 
Q 47.40625 31.296875 43.53125 35.828125 
Q 39.65625 40.375 33.015625 40.375 
z
M 52.59375 71.296875 
L 52.59375 62.3125 
Q 48.875 64.0625 45.09375 64.984375 
Q 41.3125 65.921875 37.59375 65.921875 
Q 27.828125 65.921875 22.671875 59.328125 
Q 17.53125 52.734375 16.796875 39.40625 
Q 19.671875 43.65625 24.015625 45.921875 
Q 28.375 48.1875 33.59375 48.1875 
Q 44.578125 48.1875 50.953125 41.515625 
Q 57.328125 34.859375 57.328125 23.390625 
Q 57.328125 12.15625 50.6875 5.359375 
Q 44.046875 -1.421875 33.015625 -1.421875 
Q 20.359375 -1.421875 13.671875 8.265625 
Q 6.984375 17.96875 6.984375 36.375 
Q 6.984375 53.65625 15.1875 63.9375 
Q 23.390625 74.21875 37.203125 74.21875 
Q 40.921875 74.21875 44.703125 73.484375 
Q 48.484375 72.75 52.59375 71.296875 
z
" id="DejaVuSans-54"/>
      </defs>
      <g transform="translate(243.884801 266.598437)scale(0.1 -0.1)">
       <use xlink:href="#DejaVuSans-48"/>
       <use x="63.623047" xlink:href="#DejaVuSans-46"/>
       <use x="95.410156" xlink:href="#DejaVuSans-54"/>
      </g>
     </g>
    </g>
    <g id="xtick_5">
     <g id="line2d_5">
      <g>
       <use style="stroke:#000000;stroke-width:0.8;" x="312.709091" xlink:href="#m08d23c8030" y="252"/>
      </g>
     </g>
     <g id="text_5">
      <!-- 0.8 -->
      <defs>
       <path d="M 31.78125 34.625 
Q 24.75 34.625 20.71875 30.859375 
Q 16.703125 27.09375 16.703125 20.515625 
Q 16.703125 13.921875 20.71875 10.15625 
Q 24.75 6.390625 31.78125 6.390625 
Q 38.8125 6.390625 42.859375 10.171875 
Q 46.921875 13.96875 46.921875 20.515625 
Q 46.921875 27.09375 42.890625 30.859375 
Q 38.875 34.625 31.78125 34.625 
z
M 21.921875 38.8125 
Q 15.578125 40.375 12.03125 44.71875 
Q 8.5 49.078125 8.5 55.328125 
Q 8.5 64.0625 14.71875 69.140625 
Q 20.953125 74.21875 31.78125 74.21875 
Q 42.671875 74.21875 48.875 69.140625 
Q 55.078125 64.0625 55.078125 55.328125 
Q 55.078125 49.078125 51.53125 44.71875 
Q 48 40.375 41.703125 38.8125 
Q 48.828125 37.15625 52.796875 32.3125 
Q 56.78125 27.484375 56.78125 20.515625 
Q 56.78125 9.90625 50.3125 4.234375 
Q 43.84375 -1.421875 31.78125 -1.421875 
Q 19.734375 -1.421875 13.25 4.234375 
Q 6.78125 9.90625 6.78125 20.515625 
Q 6.78125 27.484375 10.78125 32.3125 
Q 14.796875 37.15625 21.921875 38.8125 
z
M 18.3125 54.390625 
Q 18.3125 48.734375 21.84375 45.5625 
Q 25.390625 42.390625 31.78125 42.390625 
Q 38.140625 42.390625 41.71875 45.5625 
Q 45.3125 48.734375 45.3125 54.390625 
Q 45.3125 60.0625 41.71875 63.234375 
Q 38.140625 66.40625 31.78125 66.40625 
Q 25.390625 66.40625 21.84375 63.234375 
Q 18.3125 60.0625 18.3125 54.390625 
z
" id="DejaVuSans-56"/>
      </defs>
      <g transform="translate(304.757528 266.598437)scale(0.1 -0.1)">
       <use xlink:href="#DejaVuSans-48"/>
       <use x="63.623047" xlink:href="#DejaVuSans-46"/>
       <use x="95.410156" xlink:href="#DejaVuSans-56"/>
      </g>
     </g>
    </g>
    <g id="xtick_6">
     <g id="line2d_6">
      <g>
       <use style="stroke:#000000;stroke-width:0.8;" x="373.581818" xlink:href="#m08d23c8030" y="252"/>
      </g>
     </g>
     <g id="text_6">
      <!-- 1.0 -->
      <defs>
       <path d="M 12.40625 8.296875 
L 28.515625 8.296875 
L 28.515625 63.921875 
L 10.984375 60.40625 
L 10.984375 69.390625 
L 28.421875 72.90625 
L 38.28125 72.90625 
L 38.28125 8.296875 
L 54.390625 8.296875 
L 54.390625 0 
L 12.40625 0 
z
" id="DejaVuSans-49"/>
      </defs>
      <g transform="translate(365.630256 266.598437)scale(0.1 -0.1)">
       <use xlink:href="#DejaVuSans-49"/>
       <use x="63.623047" xlink:href="#DejaVuSans-46"/>
       <use x="95.410156" xlink:href="#DejaVuSans-48"/>
      </g>
     </g>
    </g>
    <g id="text_7">
     <!-- $x_1$ -->
     <defs>
      <path d="M 60.015625 54.6875 
L 34.90625 27.875 
L 50.296875 0 
L 39.984375 0 
L 28.421875 21.6875 
L 8.296875 0 
L -2.59375 0 
L 24.3125 28.8125 
L 10.015625 54.6875 
L 20.3125 54.6875 
L 30.8125 34.90625 
L 49.125 54.6875 
z
" id="DejaVuSans-Oblique-120"/>
     </defs>
     <g transform="translate(216.05 280.276563)scale(0.1 -0.1)">
      <use transform="translate(0 0.3125)" xlink:href="#DejaVuSans-Oblique-120"/>
      <use transform="translate(59.179688 -16.09375)scale(0.7)" xlink:href="#DejaVuSans-49"/>
     </g>
    </g>
   </g>
   <g id="matplotlib.axis_2">
    <g id="ytick_1">
     <g id="line2d_7">
      <defs>
       <path d="M 0 0 
L -3.5 0 
" id="mb5e9b8f4a4" style="stroke:#000000;stroke-width:0.8;"/>
      </defs>
      <g>
       <use style="stroke:#000000;stroke-width:0.8;" x="54" xlink:href="#mb5e9b8f4a4" y="242.055695"/>
      </g>
     </g>
     <g id="text_8">
      <!-- 6 -->
      <g transform="translate(40.6375 245.854913)scale(0.1 -0.1)">
       <use xlink:href="#DejaVuSans-54"/>
      </g>
     </g>
    </g>
    <g id="ytick_2">
     <g id="line2d_8">
      <g>
       <use style="stroke:#000000;stroke-width:0.8;" x="54" xlink:href="#mb5e9b8f4a4" y="213.825401"/>
      </g>
     </g>
     <g id="text_9">
      <!-- 8 -->
      <g transform="translate(40.6375 217.624619)scale(0.1 -0.1)">
       <use xlink:href="#DejaVuSans-56"/>
      </g>
     </g>
    </g>
    <g id="ytick_3">
     <g id="line2d_9">
      <g>
       <use style="stroke:#000000;stroke-width:0.8;" x="54" xlink:href="#mb5e9b8f4a4" y="185.595107"/>
      </g>
     </g>
     <g id="text_10">
      <!-- 10 -->
      <g transform="translate(34.275 189.394325)scale(0.1 -0.1)">
       <use xlink:href="#DejaVuSans-49"/>
       <use x="63.623047" xlink:href="#DejaVuSans-48"/>
      </g>
     </g>
    </g>
    <g id="ytick_4">
     <g id="line2d_10">
      <g>
       <use style="stroke:#000000;stroke-width:0.8;" x="54" xlink:href="#mb5e9b8f4a4" y="157.364813"/>
      </g>
     </g>
     <g id="text_11">
      <!-- 12 -->
      <g transform="translate(34.275 161.164031)scale(0.1 -0.1)">
       <use xlink:href="#DejaVuSans-49"/>
       <use x="63.623047" xlink:href="#DejaVuSans-50"/>
      </g>
     </g>
    </g>
    <g id="ytick_5">
     <g id="line2d_11">
      <g>
       <use style="stroke:#000000;stroke-width:0.8;" x="54" xlink:href="#mb5e9b8f4a4" y="129.134518"/>
      </g>
     </g>
     <g id="text_12">
      <!-- 14 -->
      <g transform="translate(34.275 132.933737)scale(0.1 -0.1)">
       <use xlink:href="#DejaVuSans-49"/>
       <use x="63.623047" xlink:href="#DejaVuSans-52"/>
      </g>
     </g>
    </g>
    <g id="ytick_6">
     <g id="line2d_12">
      <g>
       <use style="stroke:#000000;stroke-width:0.8;" x="54" xlink:href="#mb5e9b8f4a4" y="100.904224"/>
      </g>
     </g>
     <g id="text_13">
      <!-- 16 -->
      <g transform="translate(34.275 104.703443)scale(0.1 -0.1)">
       <use xlink:href="#DejaVuSans-49"/>
       <use x="63.623047" xlink:href="#DejaVuSans-54"/>
      </g>
     </g>
    </g>
    <g id="ytick_7">
     <g id="line2d_13">
      <g>
       <use style="stroke:#000000;stroke-width:0.8;" x="54" xlink:href="#mb5e9b8f4a4" y="72.67393"/>
      </g>
     </g>
     <g id="text_14">
      <!-- 18 -->
      <g transform="translate(34.275 76.473149)scale(0.1 -0.1)">
       <use xlink:href="#DejaVuSans-49"/>
       <use x="63.623047" xlink:href="#DejaVuSans-56"/>
      </g>
     </g>
    </g>
    <g id="ytick_8">
     <g id="line2d_14">
      <g>
       <use style="stroke:#000000;stroke-width:0.8;" x="54" xlink:href="#mb5e9b8f4a4" y="44.443636"/>
      </g>
     </g>
     <g id="text_15">
      <!-- 20 -->
      <g transform="translate(34.275 48.242855)scale(0.1 -0.1)">
       <use xlink:href="#DejaVuSans-50"/>
       <use x="63.623047" xlink:href="#DejaVuSans-48"/>
      </g>
     </g>
    </g>
    <g id="text_16">
     <!-- $x_2$ -->
     <g transform="translate(28.195312 148.63)rotate(-90)scale(0.1 -0.1)">
      <use transform="translate(0 0.3125)" xlink:href="#DejaVuSans-Oblique-120"/>
      <use transform="translate(59.179688 -16.09375)scale(0.7)" xlink:href="#DejaVuSans-50"/>
     </g>
    </g>
   </g>
   <g id="line2d_15">
    <path clip-path="url(#pf4d98b7af5)" d="M 69.218182 108.667555 
L 72.261818 44.443636 
L 75.305455 44.443636 
L 78.349091 65.757508 
L 81.392727 101.892285 
L 84.436364 122.500399 
L 87.48 136.615546 
L 90.523636 147.343058 
L 93.567273 156.376752 
L 96.610909 164.140083 
L 99.654545 167.386567 
L 102.698182 170.209596 
L 105.741818 172.609171 
L 108.785455 174.867595 
L 111.829091 176.843715 
L 114.872727 178.678684 
L 117.916364 180.513654 
L 120.96 182.207471 
L 124.003636 184.04244 
L 127.047273 185.736258 
L 130.090909 187.571227 
L 133.134545 189.406196 
L 136.178182 191.241165 
L 139.221818 193.358437 
L 142.265455 195.475709 
L 145.309091 197.734133 
L 148.352727 200.274859 
L 151.396364 202.815586 
L 154.44 205.638615 
L 157.483636 208.743948 
L 160.527273 211.990431 
L 163.570909 215.519218 
L 166.614545 219.189156 
L 169.658182 223.282549 
L 172.701818 227.517093 
L 175.745455 229.210911 
L 178.789091 224.976367 
L 181.832727 221.165277 
L 184.876364 217.777642 
L 187.92 214.672309 
L 190.963636 211.990431 
L 194.007273 209.449705 
L 197.050909 207.191281 
L 200.094545 205.074009 
L 203.138182 203.097889 
L 206.181818 201.121768 
L 209.225455 199.145648 
L 212.269091 197.169527 
L 215.312727 195.193407 
L 218.356364 192.934983 
L 221.4 190.676559 
L 224.443636 188.135833 
L 227.487273 185.453955 
L 230.530909 182.630926 
L 233.574545 179.666745 
L 236.618182 176.420261 
L 239.661818 173.032626 
L 242.705455 169.786142 
L 245.749091 166.539658 
L 248.792727 163.575477 
L 251.836364 160.893599 
L 254.88 158.917479 
L 257.923636 157.505964 
L 260.967273 156.941358 
L 264.010909 157.364813 
L 267.054545 158.494024 
L 270.098182 160.470145 
L 273.141818 163.152023 
L 276.185455 166.116204 
L 279.229091 165.833901 
L 282.272727 165.833901 
L 285.316364 166.116204 
L 288.36 166.68081 
L 291.403636 167.386567 
L 294.447273 168.092324 
L 297.490909 168.798082 
L 300.534545 169.503839 
L 303.578182 170.209596 
L 306.621818 170.915354 
L 309.665455 171.47996 
L 312.709091 172.044565 
L 315.752727 172.609171 
L 318.796364 173.173777 
L 321.84 173.738383 
L 324.883636 174.161837 
L 327.927273 174.585292 
L 330.970909 175.149898 
L 334.014545 175.573352 
L 337.058182 176.137958 
L 340.101818 176.702564 
L 343.145455 177.26717 
L 346.189091 177.831776 
L 349.232727 178.396382 
L 352.276364 179.102139 
L 355.32 179.666745 
L 358.363636 180.372502 
L 361.407273 181.078259 
L 364.450909 181.642865 
L 367.494545 182.348623 
L 370.538182 183.05438 
L 373.581818 183.618986 
" style="fill:none;stroke:#008000;stroke-linecap:square;stroke-width:1.5;"/>
   </g>
   <g id="line2d_16">
    <path clip-path="url(#pf4d98b7af5)" d="M 69.218182 240.005267 
L 71.990962 238.032557 
L 74.876358 235.707519 
L 77.640008 233.195401 
L 80.303216 230.472064 
L 82.951206 227.442022 
L 85.669201 223.988078 
L 88.557641 219.949451 
L 91.74436 215.09957 
L 95.457633 209.026121 
L 100.315326 200.622783 
L 115.335821 174.357362 
L 119.776531 167.194327 
L 123.617639 161.40848 
L 127.035676 156.651296 
L 130.118911 152.731297 
L 132.931259 149.506439 
L 135.518376 146.870108 
L 137.916785 144.73624 
L 140.156924 143.034239 
L 142.266185 141.705367 
L 144.265874 140.70354 
L 146.180341 139.989561 
L 148.027846 139.535342 
L 149.826653 139.320092 
L 151.601111 139.330977 
L 153.369482 139.564718 
L 155.150027 140.025831 
L 156.961008 140.726712 
L 158.820689 141.687697 
L 160.750374 142.939221 
L 162.765281 144.515981 
L 164.883673 146.461474 
L 167.129899 148.832766 
L 169.525265 151.691992 
L 172.103251 155.123649 
L 174.903424 159.230498 
L 177.986659 164.157784 
L 181.453395 170.130168 
L 185.498428 177.559322 
L 190.693967 187.598372 
L 204.369162 214.256814 
L 208.08548 220.873544 
L 211.177845 225.940966 
L 213.87149 229.941993 
L 216.279031 233.131675 
L 218.46134 235.664526 
L 220.464072 237.657835 
L 222.320709 239.200124 
L 224.055599 240.359371 
L 225.696136 241.193571 
L 227.26058 241.743965 
L 228.773283 242.043485 
L 230.258592 242.112157 
L 231.737814 241.95777 
L 233.235298 241.576371 
L 234.775394 240.951747 
L 236.38245 240.055975 
L 238.086903 238.84573 
L 239.922234 237.262709 
L 241.940185 235.21934 
L 244.225979 232.576577 
L 246.989629 229.023074 
L 251.32381 223.030378 
L 255.801044 216.960021 
L 258.400335 213.806345 
L 260.53699 211.55091 
L 262.411888 209.884892 
L 264.107211 208.667158 
L 265.677743 207.805944 
L 267.160009 207.241575 
L 268.587488 206.93268 
L 269.993662 206.854994 
L 271.405924 207.000167 
L 272.86384 207.376143 
L 274.406979 208.008323 
L 276.093171 208.946145 
L 278.028943 210.287735 
L 280.521706 212.306605 
L 286.228581 217.021601 
L 287.996951 218.136085 
L 289.457911 218.803554 
L 290.736252 219.150347 
L 291.898932 219.239751 
L 292.991609 219.102073 
L 294.047761 218.744093 
L 295.10087 218.14882 
L 296.17224 217.282223 
L 297.283179 216.089641 
L 298.448903 214.501301 
L 299.681588 212.432788 
L 300.993409 209.781863 
L 302.399583 206.420788 
L 303.915329 202.201786 
L 305.571084 196.911358 
L 307.409458 190.263569 
L 309.518719 181.764134 
L 312.145404 170.194694 
L 320.284169 133.646951 
L 322.143849 126.696921 
L 323.699163 121.703002 
L 325.038376 118.112965 
L 326.210188 115.574537 
L 327.241991 113.841349 
L 328.152048 112.722524 
L 328.961663 112.060354 
L 329.692143 111.737076 
L 330.373924 111.672007 
L 331.046575 111.831918 
L 331.746618 112.23323 
L 332.507535 112.937255 
L 333.35063 114.034918 
L 334.300254 115.654884 
L 335.380756 117.961006 
L 336.62866 121.176533 
L 338.120056 125.670362 
L 340.086265 132.361085 
L 344.992656 149.35802 
L 346.411005 153.316427 
L 347.555423 155.891551 
L 348.511135 157.52988 
L 349.323794 158.510139 
L 350.020793 159.02439 
L 350.635614 159.214733 
L 351.207824 159.162671 
L 351.78612 158.880741 
L 352.407028 158.318506 
L 353.100984 157.371922 
L 353.88625 155.901472 
L 354.784132 153.719661 
L 355.825066 150.570556 
L 357.069926 146.050043 
L 358.713506 139.167515 
L 362.621574 122.485194 
L 363.762949 118.737928 
L 364.663874 116.48582 
L 365.400442 115.193709 
L 366.012219 114.531203 
L 366.529642 114.273804 
L 366.998367 114.282145 
L 367.473179 114.520305 
L 368.011908 115.05661 
L 368.666296 116.049033 
L 369.536785 117.814885 
L 371.572998 122.090866 
L 372.063028 122.58215 
L 372.403919 122.647375 
L 372.696111 122.472156 
L 373.012652 121.991857 
L 373.377893 120.989564 
L 373.581818 120.187521 
L 373.581818 120.187521 
" style="fill:none;stroke:#000000;stroke-dasharray:5.55,2.4;stroke-dashoffset:0;stroke-width:1.5;"/>
   </g>
   <g id="text_17">
    <g id="patch_3">
     <path clip-path="url(#pf4d98b7af5)" d="M 151.902344 226.804906 
L 179.297656 226.804906 
L 179.297656 209.126781 
L 151.902344 209.126781 
z
" style="fill:#ffffff;stroke:#ffffff;stroke-linejoin:miter;"/>
    </g>
    <g clip-path="url(#pf4d98b7af5)">
     <!-- VLC -->
     <defs>
      <path d="M 28.609375 0 
L 0.78125 72.90625 
L 11.078125 72.90625 
L 34.1875 11.53125 
L 57.328125 72.90625 
L 67.578125 72.90625 
L 39.796875 0 
z
" id="DejaVuSans-86"/>
      <path d="M 9.8125 72.90625 
L 19.671875 72.90625 
L 19.671875 8.296875 
L 55.171875 8.296875 
L 55.171875 0 
L 9.8125 0 
z
" id="DejaVuSans-76"/>
      <path d="M 64.40625 67.28125 
L 64.40625 56.890625 
Q 59.421875 61.53125 53.78125 63.8125 
Q 48.140625 66.109375 41.796875 66.109375 
Q 29.296875 66.109375 22.65625 58.46875 
Q 16.015625 50.828125 16.015625 36.375 
Q 16.015625 21.96875 22.65625 14.328125 
Q 29.296875 6.6875 41.796875 6.6875 
Q 48.140625 6.6875 53.78125 8.984375 
Q 59.421875 11.28125 64.40625 15.921875 
L 64.40625 5.609375 
Q 59.234375 2.09375 53.4375 0.328125 
Q 47.65625 -1.421875 41.21875 -1.421875 
Q 24.65625 -1.421875 15.125 8.703125 
Q 5.609375 18.84375 5.609375 36.375 
Q 5.609375 53.953125 15.125 64.078125 
Q 24.65625 74.21875 41.21875 74.21875 
Q 47.75 74.21875 53.53125 72.484375 
Q 59.328125 70.75 64.40625 67.28125 
z
" id="DejaVuSans-67"/>
     </defs>
     <g style="fill:#008000;" transform="translate(155.902344 220.725219)scale(0.1 -0.1)">
      <use xlink:href="#DejaVuSans-86"/>
      <use x="68.408203" xlink:href="#DejaVuSans-76"/>
      <use x="124.121094" xlink:href="#DejaVuSans-67"/>
     </g>
    </g>
   </g>
   <g id="text_18">
    <g id="patch_4">
     <path clip-path="url(#pf4d98b7af5)" d="M 262.797656 218.521974 
L 291.602344 218.521974 
L 291.602344 200.843849 
L 262.797656 200.843849 
z
" style="fill:#ffffff;stroke:#ffffff;stroke-linejoin:miter;"/>
    </g>
    <g clip-path="url(#pf4d98b7af5)">
     <!-- ACC -->
     <defs>
      <path d="M 34.1875 63.1875 
L 20.796875 26.90625 
L 47.609375 26.90625 
z
M 28.609375 72.90625 
L 39.796875 72.90625 
L 67.578125 0 
L 57.328125 0 
L 50.6875 18.703125 
L 17.828125 18.703125 
L 11.1875 0 
L 0.78125 0 
z
" id="DejaVuSans-65"/>
     </defs>
     <g transform="translate(266.797656 212.442286)scale(0.1 -0.1)">
      <use xlink:href="#DejaVuSans-65"/>
      <use x="68.392578" xlink:href="#DejaVuSans-67"/>
      <use x="138.216797" xlink:href="#DejaVuSans-67"/>
     </g>
    </g>
   </g>
   <g id="patch_5">
    <path d="M 54 252 
L 54 34.56 
" style="fill:none;stroke:#000000;stroke-linecap:square;stroke-linejoin:miter;stroke-width:0.8;"/>
   </g>
   <g id="patch_6">
    <path d="M 388.8 252 
L 388.8 34.56 
" style="fill:none;stroke:#000000;stroke-linecap:square;stroke-linejoin:miter;stroke-width:0.8;"/>
   </g>
   <g id="patch_7">
    <path d="M 54 252 
L 388.8 252 
" style="fill:none;stroke:#000000;stroke-linecap:square;stroke-linejoin:miter;stroke-width:0.8;"/>
   </g>
   <g id="patch_8">
    <path d="M 54 34.56 
L 388.8 34.56 
" style="fill:none;stroke:#000000;stroke-linecap:square;stroke-linejoin:miter;stroke-width:0.8;"/>
   </g>
  </g>
 </g>
 <defs>
  <clipPath id="pf4d98b7af5">
   <rect height="217.44" width="334.8" x="54" y="34.56"/>
  </clipPath>
 </defs>
</svg>
