<?xml version="1.0" encoding="utf-8" standalone="no"?>
<!DOCTYPE svg PUBLIC "-//W3C//DTD SVG 1.1//EN"
  "http://www.w3.org/Graphics/SVG/1.1/DTD/svg11.dtd">
<!-- Created with matplotlib (https://matplotlib.org/) -->
<svg height="345.6pt" version="1.1" viewBox="0 0 460.8 345.6" width="460.8pt" xmlns="http://www.w3.org/2000/svg" xmlns:xlink="http://www.w3.org/1999/xlink">
 <metadata>
  <rdf:RDF xmlns:cc="http://creativecommons.org/ns#" xmlns:dc="http://purl.org/dc/elements/1.1/" xmlns:rdf="http://www.w3.org/1999/02/22-rdf-syntax-ns#">
   <cc:Work>
    <dc:type rdf:resource="http://purl.org/dc/dcmitype/StillImage"/>
    <dc:date>2022-03-29T14:51:43.638062</dc:date>
    <dc:format>image/svg+xml</dc:format>
    <dc:creator>
     <cc:Agent>
      <dc:title>Matplotlib v3.3.4, https://matplotlib.org/</dc:title>
     </cc:Agent>
    </dc:creator>
   </cc:Work>
  </rdf:RDF>
 </metadata>
 <defs>
  <style type="text/css">*{stroke-linecap:butt;stroke-linejoin:round;}</style>
 </defs>
 <g id="figure_1">
  <g id="patch_1">
   <path d="M 0 345.6 
L 460.8 345.6 
L 460.8 0 
L 0 0 
z
" style="fill:#ffffff;"/>
  </g>
  <g id="axes_1">
   <g id="patch_2">
    <path d="M 57.6 307.584 
L 414.72 307.584 
L 414.72 41.472 
L 57.6 41.472 
z
" style="fill:#ffffff;"/>
   </g>
   <g id="matplotlib.axis_1">
    <g id="xtick_1">
     <g id="line2d_1">
      <path clip-path="url(#p6cd80417f7)" d="M 73.832727 307.584 
L 73.832727 41.472 
" style="fill:none;stroke:#b0b0b0;stroke-linecap:square;stroke-width:0.8;"/>
     </g>
     <g id="line2d_2">
      <defs>
       <path d="M 0 0 
L 0 3.5 
" id="m56015e3fd5" style="stroke:#000000;stroke-width:0.8;"/>
      </defs>
      <g>
       <use style="stroke:#000000;stroke-width:0.8;" x="73.832727" xlink:href="#m56015e3fd5" y="307.584"/>
      </g>
     </g>
     <g id="text_1">
      <!-- 0.1 -->
      <g transform="translate(65.881165 322.182437)scale(0.1 -0.1)">
       <defs>
        <path d="M 31.78125 66.40625 
Q 24.171875 66.40625 20.328125 58.90625 
Q 16.5 51.421875 16.5 36.375 
Q 16.5 21.390625 20.328125 13.890625 
Q 24.171875 6.390625 31.78125 6.390625 
Q 39.453125 6.390625 43.28125 13.890625 
Q 47.125 21.390625 47.125 36.375 
Q 47.125 51.421875 43.28125 58.90625 
Q 39.453125 66.40625 31.78125 66.40625 
z
M 31.78125 74.21875 
Q 44.046875 74.21875 50.515625 64.515625 
Q 56.984375 54.828125 56.984375 36.375 
Q 56.984375 17.96875 50.515625 8.265625 
Q 44.046875 -1.421875 31.78125 -1.421875 
Q 19.53125 -1.421875 13.0625 8.265625 
Q 6.59375 17.96875 6.59375 36.375 
Q 6.59375 54.828125 13.0625 64.515625 
Q 19.53125 74.21875 31.78125 74.21875 
z
" id="DejaVuSans-48"/>
        <path d="M 10.6875 12.40625 
L 21 12.40625 
L 21 0 
L 10.6875 0 
z
" id="DejaVuSans-46"/>
        <path d="M 12.40625 8.296875 
L 28.515625 8.296875 
L 28.515625 63.921875 
L 10.984375 60.40625 
L 10.984375 69.390625 
L 28.421875 72.90625 
L 38.28125 72.90625 
L 38.28125 8.296875 
L 54.390625 8.296875 
L 54.390625 0 
L 12.40625 0 
z
" id="DejaVuSans-49"/>
       </defs>
       <use xlink:href="#DejaVuSans-48"/>
       <use x="63.623047" xlink:href="#DejaVuSans-46"/>
       <use x="95.410156" xlink:href="#DejaVuSans-49"/>
      </g>
     </g>
    </g>
    <g id="xtick_2">
     <g id="line2d_3">
      <path clip-path="url(#p6cd80417f7)" d="M 114.779112 307.584 
L 114.779112 41.472 
" style="fill:none;stroke:#b0b0b0;stroke-linecap:square;stroke-width:0.8;"/>
     </g>
     <g id="line2d_4">
      <g>
       <use style="stroke:#000000;stroke-width:0.8;" x="114.779112" xlink:href="#m56015e3fd5" y="307.584"/>
      </g>
     </g>
     <g id="text_2">
      <!-- 0.2 -->
      <g transform="translate(106.827549 322.182437)scale(0.1 -0.1)">
       <defs>
        <path d="M 19.1875 8.296875 
L 53.609375 8.296875 
L 53.609375 0 
L 7.328125 0 
L 7.328125 8.296875 
Q 12.9375 14.109375 22.625 23.890625 
Q 32.328125 33.6875 34.8125 36.53125 
Q 39.546875 41.84375 41.421875 45.53125 
Q 43.3125 49.21875 43.3125 52.78125 
Q 43.3125 58.59375 39.234375 62.25 
Q 35.15625 65.921875 28.609375 65.921875 
Q 23.96875 65.921875 18.8125 64.3125 
Q 13.671875 62.703125 7.8125 59.421875 
L 7.8125 69.390625 
Q 13.765625 71.78125 18.9375 73 
Q 24.125 74.21875 28.421875 74.21875 
Q 39.75 74.21875 46.484375 68.546875 
Q 53.21875 62.890625 53.21875 53.421875 
Q 53.21875 48.921875 51.53125 44.890625 
Q 49.859375 40.875 45.40625 35.40625 
Q 44.1875 33.984375 37.640625 27.21875 
Q 31.109375 20.453125 19.1875 8.296875 
z
" id="DejaVuSans-50"/>
       </defs>
       <use xlink:href="#DejaVuSans-48"/>
       <use x="63.623047" xlink:href="#DejaVuSans-46"/>
       <use x="95.410156" xlink:href="#DejaVuSans-50"/>
      </g>
     </g>
    </g>
    <g id="xtick_3">
     <g id="line2d_5">
      <path clip-path="url(#p6cd80417f7)" d="M 155.725496 307.584 
L 155.725496 41.472 
" style="fill:none;stroke:#b0b0b0;stroke-linecap:square;stroke-width:0.8;"/>
     </g>
     <g id="line2d_6">
      <g>
       <use style="stroke:#000000;stroke-width:0.8;" x="155.725496" xlink:href="#m56015e3fd5" y="307.584"/>
      </g>
     </g>
     <g id="text_3">
      <!-- 0.3 -->
      <g transform="translate(147.773934 322.182437)scale(0.1 -0.1)">
       <defs>
        <path d="M 40.578125 39.3125 
Q 47.65625 37.796875 51.625 33 
Q 55.609375 28.21875 55.609375 21.1875 
Q 55.609375 10.40625 48.1875 4.484375 
Q 40.765625 -1.421875 27.09375 -1.421875 
Q 22.515625 -1.421875 17.65625 -0.515625 
Q 12.796875 0.390625 7.625 2.203125 
L 7.625 11.71875 
Q 11.71875 9.328125 16.59375 8.109375 
Q 21.484375 6.890625 26.8125 6.890625 
Q 36.078125 6.890625 40.9375 10.546875 
Q 45.796875 14.203125 45.796875 21.1875 
Q 45.796875 27.640625 41.28125 31.265625 
Q 36.765625 34.90625 28.71875 34.90625 
L 20.21875 34.90625 
L 20.21875 43.015625 
L 29.109375 43.015625 
Q 36.375 43.015625 40.234375 45.921875 
Q 44.09375 48.828125 44.09375 54.296875 
Q 44.09375 59.90625 40.109375 62.90625 
Q 36.140625 65.921875 28.71875 65.921875 
Q 24.65625 65.921875 20.015625 65.03125 
Q 15.375 64.15625 9.8125 62.3125 
L 9.8125 71.09375 
Q 15.4375 72.65625 20.34375 73.4375 
Q 25.25 74.21875 29.59375 74.21875 
Q 40.828125 74.21875 47.359375 69.109375 
Q 53.90625 64.015625 53.90625 55.328125 
Q 53.90625 49.265625 50.4375 45.09375 
Q 46.96875 40.921875 40.578125 39.3125 
z
" id="DejaVuSans-51"/>
       </defs>
       <use xlink:href="#DejaVuSans-48"/>
       <use x="63.623047" xlink:href="#DejaVuSans-46"/>
       <use x="95.410156" xlink:href="#DejaVuSans-51"/>
      </g>
     </g>
    </g>
    <g id="xtick_4">
     <g id="line2d_7">
      <path clip-path="url(#p6cd80417f7)" d="M 196.671881 307.584 
L 196.671881 41.472 
" style="fill:none;stroke:#b0b0b0;stroke-linecap:square;stroke-width:0.8;"/>
     </g>
     <g id="line2d_8">
      <g>
       <use style="stroke:#000000;stroke-width:0.8;" x="196.671881" xlink:href="#m56015e3fd5" y="307.584"/>
      </g>
     </g>
     <g id="text_4">
      <!-- 0.4 -->
      <g transform="translate(188.720318 322.182437)scale(0.1 -0.1)">
       <defs>
        <path d="M 37.796875 64.3125 
L 12.890625 25.390625 
L 37.796875 25.390625 
z
M 35.203125 72.90625 
L 47.609375 72.90625 
L 47.609375 25.390625 
L 58.015625 25.390625 
L 58.015625 17.1875 
L 47.609375 17.1875 
L 47.609375 0 
L 37.796875 0 
L 37.796875 17.1875 
L 4.890625 17.1875 
L 4.890625 26.703125 
z
" id="DejaVuSans-52"/>
       </defs>
       <use xlink:href="#DejaVuSans-48"/>
       <use x="63.623047" xlink:href="#DejaVuSans-46"/>
       <use x="95.410156" xlink:href="#DejaVuSans-52"/>
      </g>
     </g>
    </g>
    <g id="xtick_5">
     <g id="line2d_9">
      <path clip-path="url(#p6cd80417f7)" d="M 237.618265 307.584 
L 237.618265 41.472 
" style="fill:none;stroke:#b0b0b0;stroke-linecap:square;stroke-width:0.8;"/>
     </g>
     <g id="line2d_10">
      <g>
       <use style="stroke:#000000;stroke-width:0.8;" x="237.618265" xlink:href="#m56015e3fd5" y="307.584"/>
      </g>
     </g>
     <g id="text_5">
      <!-- 0.5 -->
      <g transform="translate(229.666703 322.182437)scale(0.1 -0.1)">
       <defs>
        <path d="M 10.796875 72.90625 
L 49.515625 72.90625 
L 49.515625 64.59375 
L 19.828125 64.59375 
L 19.828125 46.734375 
Q 21.96875 47.46875 24.109375 47.828125 
Q 26.265625 48.1875 28.421875 48.1875 
Q 40.625 48.1875 47.75 41.5 
Q 54.890625 34.8125 54.890625 23.390625 
Q 54.890625 11.625 47.5625 5.09375 
Q 40.234375 -1.421875 26.90625 -1.421875 
Q 22.3125 -1.421875 17.546875 -0.640625 
Q 12.796875 0.140625 7.71875 1.703125 
L 7.71875 11.625 
Q 12.109375 9.234375 16.796875 8.0625 
Q 21.484375 6.890625 26.703125 6.890625 
Q 35.15625 6.890625 40.078125 11.328125 
Q 45.015625 15.765625 45.015625 23.390625 
Q 45.015625 31 40.078125 35.4375 
Q 35.15625 39.890625 26.703125 39.890625 
Q 22.75 39.890625 18.8125 39.015625 
Q 14.890625 38.140625 10.796875 36.28125 
z
" id="DejaVuSans-53"/>
       </defs>
       <use xlink:href="#DejaVuSans-48"/>
       <use x="63.623047" xlink:href="#DejaVuSans-46"/>
       <use x="95.410156" xlink:href="#DejaVuSans-53"/>
      </g>
     </g>
    </g>
    <g id="xtick_6">
     <g id="line2d_11">
      <path clip-path="url(#p6cd80417f7)" d="M 278.56465 307.584 
L 278.56465 41.472 
" style="fill:none;stroke:#b0b0b0;stroke-linecap:square;stroke-width:0.8;"/>
     </g>
     <g id="line2d_12">
      <g>
       <use style="stroke:#000000;stroke-width:0.8;" x="278.56465" xlink:href="#m56015e3fd5" y="307.584"/>
      </g>
     </g>
     <g id="text_6">
      <!-- 0.6 -->
      <g transform="translate(270.613087 322.182437)scale(0.1 -0.1)">
       <defs>
        <path d="M 33.015625 40.375 
Q 26.375 40.375 22.484375 35.828125 
Q 18.609375 31.296875 18.609375 23.390625 
Q 18.609375 15.53125 22.484375 10.953125 
Q 26.375 6.390625 33.015625 6.390625 
Q 39.65625 6.390625 43.53125 10.953125 
Q 47.40625 15.53125 47.40625 23.390625 
Q 47.40625 31.296875 43.53125 35.828125 
Q 39.65625 40.375 33.015625 40.375 
z
M 52.59375 71.296875 
L 52.59375 62.3125 
Q 48.875 64.0625 45.09375 64.984375 
Q 41.3125 65.921875 37.59375 65.921875 
Q 27.828125 65.921875 22.671875 59.328125 
Q 17.53125 52.734375 16.796875 39.40625 
Q 19.671875 43.65625 24.015625 45.921875 
Q 28.375 48.1875 33.59375 48.1875 
Q 44.578125 48.1875 50.953125 41.515625 
Q 57.328125 34.859375 57.328125 23.390625 
Q 57.328125 12.15625 50.6875 5.359375 
Q 44.046875 -1.421875 33.015625 -1.421875 
Q 20.359375 -1.421875 13.671875 8.265625 
Q 6.984375 17.96875 6.984375 36.375 
Q 6.984375 53.65625 15.1875 63.9375 
Q 23.390625 74.21875 37.203125 74.21875 
Q 40.921875 74.21875 44.703125 73.484375 
Q 48.484375 72.75 52.59375 71.296875 
z
" id="DejaVuSans-54"/>
       </defs>
       <use xlink:href="#DejaVuSans-48"/>
       <use x="63.623047" xlink:href="#DejaVuSans-46"/>
       <use x="95.410156" xlink:href="#DejaVuSans-54"/>
      </g>
     </g>
    </g>
    <g id="xtick_7">
     <g id="line2d_13">
      <path clip-path="url(#p6cd80417f7)" d="M 319.511034 307.584 
L 319.511034 41.472 
" style="fill:none;stroke:#b0b0b0;stroke-linecap:square;stroke-width:0.8;"/>
     </g>
     <g id="line2d_14">
      <g>
       <use style="stroke:#000000;stroke-width:0.8;" x="319.511034" xlink:href="#m56015e3fd5" y="307.584"/>
      </g>
     </g>
     <g id="text_7">
      <!-- 0.7 -->
      <g transform="translate(311.559472 322.182437)scale(0.1 -0.1)">
       <defs>
        <path d="M 8.203125 72.90625 
L 55.078125 72.90625 
L 55.078125 68.703125 
L 28.609375 0 
L 18.3125 0 
L 43.21875 64.59375 
L 8.203125 64.59375 
z
" id="DejaVuSans-55"/>
       </defs>
       <use xlink:href="#DejaVuSans-48"/>
       <use x="63.623047" xlink:href="#DejaVuSans-46"/>
       <use x="95.410156" xlink:href="#DejaVuSans-55"/>
      </g>
     </g>
    </g>
    <g id="xtick_8">
     <g id="line2d_15">
      <path clip-path="url(#p6cd80417f7)" d="M 360.457419 307.584 
L 360.457419 41.472 
" style="fill:none;stroke:#b0b0b0;stroke-linecap:square;stroke-width:0.8;"/>
     </g>
     <g id="line2d_16">
      <g>
       <use style="stroke:#000000;stroke-width:0.8;" x="360.457419" xlink:href="#m56015e3fd5" y="307.584"/>
      </g>
     </g>
     <g id="text_8">
      <!-- 0.8 -->
      <g transform="translate(352.505856 322.182437)scale(0.1 -0.1)">
       <defs>
        <path d="M 31.78125 34.625 
Q 24.75 34.625 20.71875 30.859375 
Q 16.703125 27.09375 16.703125 20.515625 
Q 16.703125 13.921875 20.71875 10.15625 
Q 24.75 6.390625 31.78125 6.390625 
Q 38.8125 6.390625 42.859375 10.171875 
Q 46.921875 13.96875 46.921875 20.515625 
Q 46.921875 27.09375 42.890625 30.859375 
Q 38.875 34.625 31.78125 34.625 
z
M 21.921875 38.8125 
Q 15.578125 40.375 12.03125 44.71875 
Q 8.5 49.078125 8.5 55.328125 
Q 8.5 64.0625 14.71875 69.140625 
Q 20.953125 74.21875 31.78125 74.21875 
Q 42.671875 74.21875 48.875 69.140625 
Q 55.078125 64.0625 55.078125 55.328125 
Q 55.078125 49.078125 51.53125 44.71875 
Q 48 40.375 41.703125 38.8125 
Q 48.828125 37.15625 52.796875 32.3125 
Q 56.78125 27.484375 56.78125 20.515625 
Q 56.78125 9.90625 50.3125 4.234375 
Q 43.84375 -1.421875 31.78125 -1.421875 
Q 19.734375 -1.421875 13.25 4.234375 
Q 6.78125 9.90625 6.78125 20.515625 
Q 6.78125 27.484375 10.78125 32.3125 
Q 14.796875 37.15625 21.921875 38.8125 
z
M 18.3125 54.390625 
Q 18.3125 48.734375 21.84375 45.5625 
Q 25.390625 42.390625 31.78125 42.390625 
Q 38.140625 42.390625 41.71875 45.5625 
Q 45.3125 48.734375 45.3125 54.390625 
Q 45.3125 60.0625 41.71875 63.234375 
Q 38.140625 66.40625 31.78125 66.40625 
Q 25.390625 66.40625 21.84375 63.234375 
Q 18.3125 60.0625 18.3125 54.390625 
z
" id="DejaVuSans-56"/>
       </defs>
       <use xlink:href="#DejaVuSans-48"/>
       <use x="63.623047" xlink:href="#DejaVuSans-46"/>
       <use x="95.410156" xlink:href="#DejaVuSans-56"/>
      </g>
     </g>
    </g>
    <g id="xtick_9">
     <g id="line2d_17">
      <path clip-path="url(#p6cd80417f7)" d="M 401.403803 307.584 
L 401.403803 41.472 
" style="fill:none;stroke:#b0b0b0;stroke-linecap:square;stroke-width:0.8;"/>
     </g>
     <g id="line2d_18">
      <g>
       <use style="stroke:#000000;stroke-width:0.8;" x="401.403803" xlink:href="#m56015e3fd5" y="307.584"/>
      </g>
     </g>
     <g id="text_9">
      <!-- 0.9 -->
      <g transform="translate(393.452241 322.182437)scale(0.1 -0.1)">
       <defs>
        <path d="M 10.984375 1.515625 
L 10.984375 10.5 
Q 14.703125 8.734375 18.5 7.8125 
Q 22.3125 6.890625 25.984375 6.890625 
Q 35.75 6.890625 40.890625 13.453125 
Q 46.046875 20.015625 46.78125 33.40625 
Q 43.953125 29.203125 39.59375 26.953125 
Q 35.25 24.703125 29.984375 24.703125 
Q 19.046875 24.703125 12.671875 31.3125 
Q 6.296875 37.9375 6.296875 49.421875 
Q 6.296875 60.640625 12.9375 67.421875 
Q 19.578125 74.21875 30.609375 74.21875 
Q 43.265625 74.21875 49.921875 64.515625 
Q 56.59375 54.828125 56.59375 36.375 
Q 56.59375 19.140625 48.40625 8.859375 
Q 40.234375 -1.421875 26.421875 -1.421875 
Q 22.703125 -1.421875 18.890625 -0.6875 
Q 15.09375 0.046875 10.984375 1.515625 
z
M 30.609375 32.421875 
Q 37.25 32.421875 41.125 36.953125 
Q 45.015625 41.5 45.015625 49.421875 
Q 45.015625 57.28125 41.125 61.84375 
Q 37.25 66.40625 30.609375 66.40625 
Q 23.96875 66.40625 20.09375 61.84375 
Q 16.21875 57.28125 16.21875 49.421875 
Q 16.21875 41.5 20.09375 36.953125 
Q 23.96875 32.421875 30.609375 32.421875 
z
" id="DejaVuSans-57"/>
       </defs>
       <use xlink:href="#DejaVuSans-48"/>
       <use x="63.623047" xlink:href="#DejaVuSans-46"/>
       <use x="95.410156" xlink:href="#DejaVuSans-57"/>
      </g>
     </g>
    </g>
    <g id="text_10">
     <!-- $x_1$ -->
     <g transform="translate(230.81 335.860562)scale(0.1 -0.1)">
      <defs>
       <path d="M 60.015625 54.6875 
L 34.90625 27.875 
L 50.296875 0 
L 39.984375 0 
L 28.421875 21.6875 
L 8.296875 0 
L -2.59375 0 
L 24.3125 28.8125 
L 10.015625 54.6875 
L 20.3125 54.6875 
L 30.8125 34.90625 
L 49.125 54.6875 
z
" id="DejaVuSans-Oblique-120"/>
      </defs>
      <use transform="translate(0 0.3125)" xlink:href="#DejaVuSans-Oblique-120"/>
      <use transform="translate(59.179688 -16.09375)scale(0.7)" xlink:href="#DejaVuSans-49"/>
     </g>
    </g>
   </g>
   <g id="matplotlib.axis_2">
    <g id="ytick_1">
     <g id="line2d_19">
      <path clip-path="url(#p6cd80417f7)" d="M 57.6 286.892814 
L 414.72 286.892814 
" style="fill:none;stroke:#b0b0b0;stroke-linecap:square;stroke-width:0.8;"/>
     </g>
     <g id="line2d_20">
      <defs>
       <path d="M 0 0 
L -3.5 0 
" id="m0bface5353" style="stroke:#000000;stroke-width:0.8;"/>
      </defs>
      <g>
       <use style="stroke:#000000;stroke-width:0.8;" x="57.6" xlink:href="#m0bface5353" y="286.892814"/>
      </g>
     </g>
     <g id="text_11">
      <!-- 0.3 -->
      <g transform="translate(34.696875 290.692033)scale(0.1 -0.1)">
       <use xlink:href="#DejaVuSans-48"/>
       <use x="63.623047" xlink:href="#DejaVuSans-46"/>
       <use x="95.410156" xlink:href="#DejaVuSans-51"/>
      </g>
     </g>
    </g>
    <g id="ytick_2">
     <g id="line2d_21">
      <path clip-path="url(#p6cd80417f7)" d="M 57.6 228.225497 
L 414.72 228.225497 
" style="fill:none;stroke:#b0b0b0;stroke-linecap:square;stroke-width:0.8;"/>
     </g>
     <g id="line2d_22">
      <g>
       <use style="stroke:#000000;stroke-width:0.8;" x="57.6" xlink:href="#m0bface5353" y="228.225497"/>
      </g>
     </g>
     <g id="text_12">
      <!-- 0.4 -->
      <g transform="translate(34.696875 232.024716)scale(0.1 -0.1)">
       <use xlink:href="#DejaVuSans-48"/>
       <use x="63.623047" xlink:href="#DejaVuSans-46"/>
       <use x="95.410156" xlink:href="#DejaVuSans-52"/>
      </g>
     </g>
    </g>
    <g id="ytick_3">
     <g id="line2d_23">
      <path clip-path="url(#p6cd80417f7)" d="M 57.6 169.55818 
L 414.72 169.55818 
" style="fill:none;stroke:#b0b0b0;stroke-linecap:square;stroke-width:0.8;"/>
     </g>
     <g id="line2d_24">
      <g>
       <use style="stroke:#000000;stroke-width:0.8;" x="57.6" xlink:href="#m0bface5353" y="169.55818"/>
      </g>
     </g>
     <g id="text_13">
      <!-- 0.5 -->
      <g transform="translate(34.696875 173.357399)scale(0.1 -0.1)">
       <use xlink:href="#DejaVuSans-48"/>
       <use x="63.623047" xlink:href="#DejaVuSans-46"/>
       <use x="95.410156" xlink:href="#DejaVuSans-53"/>
      </g>
     </g>
    </g>
    <g id="ytick_4">
     <g id="line2d_25">
      <path clip-path="url(#p6cd80417f7)" d="M 57.6 110.890863 
L 414.72 110.890863 
" style="fill:none;stroke:#b0b0b0;stroke-linecap:square;stroke-width:0.8;"/>
     </g>
     <g id="line2d_26">
      <g>
       <use style="stroke:#000000;stroke-width:0.8;" x="57.6" xlink:href="#m0bface5353" y="110.890863"/>
      </g>
     </g>
     <g id="text_14">
      <!-- 0.6 -->
      <g transform="translate(34.696875 114.690082)scale(0.1 -0.1)">
       <use xlink:href="#DejaVuSans-48"/>
       <use x="63.623047" xlink:href="#DejaVuSans-46"/>
       <use x="95.410156" xlink:href="#DejaVuSans-54"/>
      </g>
     </g>
    </g>
    <g id="ytick_5">
     <g id="line2d_27">
      <path clip-path="url(#p6cd80417f7)" d="M 57.6 52.223546 
L 414.72 52.223546 
" style="fill:none;stroke:#b0b0b0;stroke-linecap:square;stroke-width:0.8;"/>
     </g>
     <g id="line2d_28">
      <g>
       <use style="stroke:#000000;stroke-width:0.8;" x="57.6" xlink:href="#m0bface5353" y="52.223546"/>
      </g>
     </g>
     <g id="text_15">
      <!-- 0.7 -->
      <g transform="translate(34.696875 56.022765)scale(0.1 -0.1)">
       <use xlink:href="#DejaVuSans-48"/>
       <use x="63.623047" xlink:href="#DejaVuSans-46"/>
       <use x="95.410156" xlink:href="#DejaVuSans-55"/>
      </g>
     </g>
    </g>
    <g id="text_16">
     <!-- $\lambda$ -->
     <g transform="translate(28.617188 177.528)rotate(-90)scale(0.1 -0.1)">
      <defs>
       <path d="M 36.71875 67.4375 
L 48.828125 0 
L 39.3125 0 
L 31.84375 40.4375 
L 5.125 0 
L -4.390625 0 
L 29.734375 52.4375 
L 28.03125 62.109375 
Q 26.953125 68.265625 21.734375 68.265625 
L 17.046875 68.265625 
L 18.5 75.984375 
L 24.21875 75.875 
Q 35.203125 75.734375 36.71875 67.4375 
z
" id="DejaVuSans-Oblique-955"/>
      </defs>
      <use transform="translate(0 0.015625)" xlink:href="#DejaVuSans-Oblique-955"/>
     </g>
    </g>
   </g>
   <g id="line2d_29">
    <defs>
     <path d="M 0 0.5 
C 0.132602 0.5 0.25979 0.447317 0.353553 0.353553 
C 0.447317 0.25979 0.5 0.132602 0.5 0 
C 0.5 -0.132602 0.447317 -0.25979 0.353553 -0.353553 
C 0.25979 -0.447317 0.132602 -0.5 0 -0.5 
C -0.132602 -0.5 -0.25979 -0.447317 -0.353553 -0.353553 
C -0.447317 -0.25979 -0.5 -0.132602 -0.5 0 
C -0.5 0.132602 -0.447317 0.25979 -0.353553 0.353553 
C -0.25979 0.447317 -0.132602 0.5 0 0.5 
z
" id="me4471cb743" style="stroke:#ff0000;"/>
    </defs>
    <g clip-path="url(#p6cd80417f7)">
     <use style="fill:#ff0000;stroke:#ff0000;" x="73.832727" xlink:href="#me4471cb743" y="76.472704"/>
     <use style="fill:#ff0000;stroke:#ff0000;" x="75.762663" xlink:href="#me4471cb743" y="72.769645"/>
     <use style="fill:#ff0000;stroke:#ff0000;" x="77.588454" xlink:href="#me4471cb743" y="68.022588"/>
     <use style="fill:#ff0000;stroke:#ff0000;" x="79.295773" xlink:href="#me4471cb743" y="62.976604"/>
     <use style="fill:#ff0000;stroke:#ff0000;" x="80.892556" xlink:href="#me4471cb743" y="60.434632"/>
     <use style="fill:#ff0000;stroke:#ff0000;" x="82.439666" xlink:href="#me4471cb743" y="57.451207"/>
     <use style="fill:#ff0000;stroke:#ff0000;" x="83.932206" xlink:href="#me4471cb743" y="53.568"/>
     <use style="fill:#ff0000;stroke:#ff0000;" x="85.358872" xlink:href="#me4471cb743" y="54.771509"/>
     <use style="fill:#ff0000;stroke:#ff0000;" x="86.808499" xlink:href="#me4471cb743" y="56.371002"/>
     <use style="fill:#ff0000;stroke:#ff0000;" x="88.28854" xlink:href="#me4471cb743" y="57.982266"/>
     <use style="fill:#ff0000;stroke:#ff0000;" x="89.800018" xlink:href="#me4471cb743" y="59.605308"/>
     <use style="fill:#ff0000;stroke:#ff0000;" x="91.343994" xlink:href="#me4471cb743" y="61.240129"/>
     <use style="fill:#ff0000;stroke:#ff0000;" x="92.92156" xlink:href="#me4471cb743" y="62.886717"/>
     <use style="fill:#ff0000;stroke:#ff0000;" x="94.533841" xlink:href="#me4471cb743" y="64.545049"/>
     <use style="fill:#ff0000;stroke:#ff0000;" x="96.181992" xlink:href="#me4471cb743" y="66.215092"/>
     <use style="fill:#ff0000;stroke:#ff0000;" x="97.867197" xlink:href="#me4471cb743" y="68.188009"/>
     <use style="fill:#ff0000;stroke:#ff0000;" x="99.597523" xlink:href="#me4471cb743" y="69.884553"/>
     <use style="fill:#ff0000;stroke:#ff0000;" x="101.36762" xlink:href="#me4471cb743" y="71.892697"/>
     <use style="fill:#ff0000;stroke:#ff0000;" x="103.186456" xlink:href="#me4471cb743" y="73.920495"/>
     <use style="fill:#ff0000;stroke:#ff0000;" x="105.056112" xlink:href="#me4471cb743" y="75.657698"/>
     <use style="fill:#ff0000;stroke:#ff0000;" x="106.969944" xlink:href="#me4471cb743" y="77.720454"/>
     <use style="fill:#ff0000;stroke:#ff0000;" x="108.938487" xlink:href="#me4471cb743" y="80.123285"/>
     <use style="fill:#ff0000;stroke:#ff0000;" x="110.973964" xlink:href="#me4471cb743" y="82.228726"/>
     <use style="fill:#ff0000;stroke:#ff0000;" x="113.069048" xlink:href="#me4471cb743" y="84.353137"/>
     <use style="fill:#ff0000;stroke:#ff0000;" x="115.225962" xlink:href="#me4471cb743" y="86.834497"/>
     <use style="fill:#ff0000;stroke:#ff0000;" x="117.459218" xlink:href="#me4471cb743" y="89.344917"/>
     <use style="fill:#ff0000;stroke:#ff0000;" x="119.772409" xlink:href="#me4471cb743" y="91.883959"/>
     <use style="fill:#ff0000;stroke:#ff0000;" x="122.16907" xlink:href="#me4471cb743" y="94.451061"/>
     <use style="fill:#ff0000;stroke:#ff0000;" x="124.652598" xlink:href="#me4471cb743" y="97.045534"/>
     <use style="fill:#ff0000;stroke:#ff0000;" x="127.226156" xlink:href="#me4471cb743" y="100.041853"/>
     <use style="fill:#ff0000;stroke:#ff0000;" x="129.910602" xlink:href="#me4471cb743" y="103.076655"/>
     <use style="fill:#ff0000;stroke:#ff0000;" x="132.710268" xlink:href="#me4471cb743" y="106.1484"/>
     <use style="fill:#ff0000;stroke:#ff0000;" x="135.62864" xlink:href="#me4471cb743" y="109.659666"/>
     <use style="fill:#ff0000;stroke:#ff0000;" x="138.69063" xlink:href="#me4471cb743" y="113.218643"/>
     <use style="fill:#ff0000;stroke:#ff0000;" x="141.898631" xlink:href="#me4471cb743" y="116.8219"/>
     <use style="fill:#ff0000;stroke:#ff0000;" x="145.252183" xlink:href="#me4471cb743" y="120.906403"/>
     <use style="fill:#ff0000;stroke:#ff0000;" x="148.773014" xlink:href="#me4471cb743" y="125.042542"/>
     <use style="fill:#ff0000;stroke:#ff0000;" x="152.451012" xlink:href="#me4471cb743" y="129.862117"/>
     <use style="fill:#ff0000;stroke:#ff0000;" x="156.299796" xlink:href="#me4471cb743" y="134.549987"/>
     <use style="fill:#ff0000;stroke:#ff0000;" x="160.275236" xlink:href="#me4471cb743" y="139.487704"/>
     <use style="fill:#ff0000;stroke:#ff0000;" x="164.338439" xlink:href="#me4471cb743" y="144.314969"/>
     <use style="fill:#ff0000;stroke:#ff0000;" x="168.432864" xlink:href="#me4471cb743" y="149.62155"/>
     <use style="fill:#ff0000;stroke:#ff0000;" x="172.497709" xlink:href="#me4471cb743" y="154.87104"/>
     <use style="fill:#ff0000;stroke:#ff0000;" x="176.47008" xlink:href="#me4471cb743" y="160.15263"/>
     <use style="fill:#ff0000;stroke:#ff0000;" x="180.295998" xlink:href="#me4471cb743" y="165.354049"/>
     <use style="fill:#ff0000;stroke:#ff0000;" x="183.940275" xlink:href="#me4471cb743" y="170.320452"/>
     <use style="fill:#ff0000;stroke:#ff0000;" x="187.392785" xlink:href="#me4471cb743" y="175.11091"/>
     <use style="fill:#ff0000;stroke:#ff0000;" x="190.652077" xlink:href="#me4471cb743" y="179.61864"/>
     <use style="fill:#ff0000;stroke:#ff0000;" x="193.731422" xlink:href="#me4471cb743" y="184.041084"/>
     <use style="fill:#ff0000;stroke:#ff0000;" x="196.635318" xlink:href="#me4471cb743" y="188.413112"/>
     <use style="fill:#ff0000;stroke:#ff0000;" x="199.368913" xlink:href="#me4471cb743" y="192.435236"/>
     <use style="fill:#ff0000;stroke:#ff0000;" x="201.956656" xlink:href="#me4471cb743" y="196.470043"/>
     <use style="fill:#ff0000;stroke:#ff0000;" x="204.401816" xlink:href="#me4471cb743" y="200.203334"/>
     <use style="fill:#ff0000;stroke:#ff0000;" x="206.724781" xlink:href="#me4471cb743" y="203.818374"/>
     <use style="fill:#ff0000;stroke:#ff0000;" x="208.935288" xlink:href="#me4471cb743" y="207.182815"/>
     <use style="fill:#ff0000;stroke:#ff0000;" x="211.0485" xlink:href="#me4471cb743" y="210.451027"/>
     <use style="fill:#ff0000;stroke:#ff0000;" x="213.071548" xlink:href="#me4471cb743" y="213.878275"/>
     <use style="fill:#ff0000;stroke:#ff0000;" x="215.001039" xlink:href="#me4471cb743" y="217.072502"/>
     <use style="fill:#ff0000;stroke:#ff0000;" x="216.849395" xlink:href="#me4471cb743" y="220.155621"/>
     <use style="fill:#ff0000;stroke:#ff0000;" x="218.623413" xlink:href="#me4471cb743" y="223.120346"/>
     <use style="fill:#ff0000;stroke:#ff0000;" x="220.329582" xlink:href="#me4471cb743" y="225.959108"/>
     <use style="fill:#ff0000;stroke:#ff0000;" x="221.974075" xlink:href="#me4471cb743" y="228.664129"/>
     <use style="fill:#ff0000;stroke:#ff0000;" x="223.562758" xlink:href="#me4471cb743" y="231.425334"/>
     <use style="fill:#ff0000;stroke:#ff0000;" x="225.095642" xlink:href="#me4471cb743" y="234.194703"/>
     <use style="fill:#ff0000;stroke:#ff0000;" x="226.574293" xlink:href="#me4471cb743" y="236.920501"/>
     <use style="fill:#ff0000;stroke:#ff0000;" x="228.001632" xlink:href="#me4471cb743" y="239.389788"/>
     <use style="fill:#ff0000;stroke:#ff0000;" x="229.385509" xlink:href="#me4471cb743" y="241.642101"/>
     <use style="fill:#ff0000;stroke:#ff0000;" x="230.732058" xlink:href="#me4471cb743" y="244.317448"/>
     <use style="fill:#ff0000;stroke:#ff0000;" x="232.03279" xlink:href="#me4471cb743" y="246.607591"/>
     <use style="fill:#ff0000;stroke:#ff0000;" x="233.29731" xlink:href="#me4471cb743" y="249.054953"/>
     <use style="fill:#ff0000;stroke:#ff0000;" x="234.523371" xlink:href="#me4471cb743" y="251.09478"/>
     <use style="fill:#ff0000;stroke:#ff0000;" x="235.719897" xlink:href="#me4471cb743" y="253.811651"/>
     <use style="fill:#ff0000;stroke:#ff0000;" x="236.875055" xlink:href="#me4471cb743" y="255.759141"/>
     <use style="fill:#ff0000;stroke:#ff0000;" x="238.00379" xlink:href="#me4471cb743" y="258.162442"/>
     <use style="fill:#ff0000;stroke:#ff0000;" x="239.098918" xlink:href="#me4471cb743" y="260.30939"/>
     <use style="fill:#ff0000;stroke:#ff0000;" x="240.165595" xlink:href="#me4471cb743" y="262.497783"/>
     <use style="fill:#ff0000;stroke:#ff0000;" x="241.203895" xlink:href="#me4471cb743" y="264.476725"/>
     <use style="fill:#ff0000;stroke:#ff0000;" x="242.217668" xlink:href="#me4471cb743" y="266.620485"/>
     <use style="fill:#ff0000;stroke:#ff0000;" x="243.205096" xlink:href="#me4471cb743" y="264.045887"/>
     <use style="fill:#ff0000;stroke:#ff0000;" x="244.235565" xlink:href="#me4471cb743" y="262.182368"/>
     <use style="fill:#ff0000;stroke:#ff0000;" x="245.301905" xlink:href="#me4471cb743" y="260.323317"/>
     <use style="fill:#ff0000;stroke:#ff0000;" x="246.407457" xlink:href="#me4471cb743" y="258.469337"/>
     <use style="fill:#ff0000;stroke:#ff0000;" x="247.556057" xlink:href="#me4471cb743" y="256.621154"/>
     <use style="fill:#ff0000;stroke:#ff0000;" x="248.752138" xlink:href="#me4471cb743" y="254.779643"/>
     <use style="fill:#ff0000;stroke:#ff0000;" x="250.000861" xlink:href="#me4471cb743" y="252.945875"/>
     <use style="fill:#ff0000;stroke:#ff0000;" x="251.308278" xlink:href="#me4471cb743" y="251.121176"/>
     <use style="fill:#ff0000;stroke:#ff0000;" x="252.681547" xlink:href="#me4471cb743" y="249.307205"/>
     <use style="fill:#ff0000;stroke:#ff0000;" x="254.129205" xlink:href="#me4471cb743" y="247.50607"/>
     <use style="fill:#ff0000;stroke:#ff0000;" x="255.661533" xlink:href="#me4471cb743" y="245.720491"/>
     <use style="fill:#ff0000;stroke:#ff0000;" x="257.291036" xlink:href="#me4471cb743" y="231.430644"/>
     <use style="fill:#ff0000;stroke:#ff0000;" x="259.851581" xlink:href="#me4471cb743" y="220.389438"/>
     <use style="fill:#ff0000;stroke:#ff0000;" x="263.702131" xlink:href="#me4471cb743" y="207.789635"/>
     <use style="fill:#ff0000;stroke:#ff0000;" x="267.034813" xlink:href="#me4471cb743" y="190.530482"/>
     <use style="fill:#ff0000;stroke:#ff0000;" x="268.776392" xlink:href="#me4471cb743" y="181.94537"/>
     <use style="fill:#ff0000;stroke:#ff0000;" x="270.141014" xlink:href="#me4471cb743" y="175.880605"/>
     <use style="fill:#ff0000;stroke:#ff0000;" x="271.320411" xlink:href="#me4471cb743" y="169.387862"/>
     <use style="fill:#ff0000;stroke:#ff0000;" x="272.351467" xlink:href="#me4471cb743" y="162.190314"/>
     <use style="fill:#ff0000;stroke:#ff0000;" x="273.257585" xlink:href="#me4471cb743" y="163.626243"/>
     <use style="fill:#ff0000;stroke:#ff0000;" x="274.182048" xlink:href="#me4471cb743" y="165.060659"/>
     <use style="fill:#ff0000;stroke:#ff0000;" x="275.125246" xlink:href="#me4471cb743" y="156.863623"/>
     <use style="fill:#ff0000;stroke:#ff0000;" x="275.950621" xlink:href="#me4471cb743" y="154.304207"/>
     <use style="fill:#ff0000;stroke:#ff0000;" x="276.744122" xlink:href="#me4471cb743" y="155.681227"/>
     <use style="fill:#ff0000;stroke:#ff0000;" x="277.552116" xlink:href="#me4471cb743" y="149.398103"/>
     <use style="fill:#ff0000;stroke:#ff0000;" x="278.291067" xlink:href="#me4471cb743" y="150.741033"/>
     <use style="fill:#ff0000;stroke:#ff0000;" x="279.042741" xlink:href="#me4471cb743" y="147.142905"/>
     <use style="fill:#ff0000;stroke:#ff0000;" x="279.758646" xlink:href="#me4471cb743" y="144.879297"/>
     <use style="fill:#ff0000;stroke:#ff0000;" x="280.453737" xlink:href="#me4471cb743" y="142.662097"/>
     <use style="fill:#ff0000;stroke:#ff0000;" x="281.129726" xlink:href="#me4471cb743" y="143.950162"/>
     <use style="fill:#ff0000;stroke:#ff0000;" x="281.816343" xlink:href="#me4471cb743" y="138.398263"/>
     <use style="fill:#ff0000;stroke:#ff0000;" x="282.458535" xlink:href="#me4471cb743" y="139.655295"/>
     <use style="fill:#ff0000;stroke:#ff0000;" x="283.11032" xlink:href="#me4471cb743" y="140.911849"/>
     <use style="fill:#ff0000;stroke:#ff0000;" x="283.77185" xlink:href="#me4471cb743" y="136.111162"/>
     <use style="fill:#ff0000;stroke:#ff0000;" x="284.397465" xlink:href="#me4471cb743" y="135.72851"/>
     <use style="fill:#ff0000;stroke:#ff0000;" x="285.02055" xlink:href="#me4471cb743" y="133.770615"/>
     <use style="fill:#ff0000;stroke:#ff0000;" x="285.630389" xlink:href="#me4471cb743" y="134.97804"/>
     <use style="fill:#ff0000;stroke:#ff0000;" x="286.248648" xlink:href="#me4471cb743" y="129.995477"/>
     <use style="fill:#ff0000;stroke:#ff0000;" x="286.834577" xlink:href="#me4471cb743" y="131.175181"/>
     <use style="fill:#ff0000;stroke:#ff0000;" x="287.42824" xlink:href="#me4471cb743" y="132.354557"/>
     <use style="fill:#ff0000;stroke:#ff0000;" x="288.029741" xlink:href="#me4471cb743" y="133.533597"/>
     <use style="fill:#ff0000;stroke:#ff0000;" x="288.639183" xlink:href="#me4471cb743" y="134.712291"/>
     <use style="fill:#ff0000;stroke:#ff0000;" x="289.25667" xlink:href="#me4471cb743" y="128.872548"/>
     <use style="fill:#ff0000;stroke:#ff0000;" x="289.836685" xlink:href="#me4471cb743" y="130.020609"/>
     <use style="fill:#ff0000;stroke:#ff0000;" x="290.423979" xlink:href="#me4471cb743" y="128.249135"/>
     <use style="fill:#ff0000;stroke:#ff0000;" x="291.000721" xlink:href="#me4471cb743" y="129.384181"/>
     <use style="fill:#ff0000;stroke:#ff0000;" x="291.584548" xlink:href="#me4471cb743" y="124.825719"/>
     <use style="fill:#ff0000;stroke:#ff0000;" x="292.142003" xlink:href="#me4471cb743" y="125.936092"/>
     <use style="fill:#ff0000;stroke:#ff0000;" x="292.706033" xlink:href="#me4471cb743" y="127.046216"/>
     <use style="fill:#ff0000;stroke:#ff0000;" x="293.276712" xlink:href="#me4471cb743" y="128.156085"/>
     <use style="fill:#ff0000;stroke:#ff0000;" x="293.854111" xlink:href="#me4471cb743" y="129.265694"/>
     <use style="fill:#ff0000;stroke:#ff0000;" x="294.438304" xlink:href="#me4471cb743" y="130.375037"/>
     <use style="fill:#ff0000;stroke:#ff0000;" x="295.029363" xlink:href="#me4471cb743" y="127.556991"/>
     <use style="fill:#ff0000;stroke:#ff0000;" x="295.603351" xlink:href="#me4471cb743" y="127.438282"/>
     <use style="fill:#ff0000;stroke:#ff0000;" x="296.176713" xlink:href="#me4471cb743" y="127.149526"/>
     <use style="fill:#ff0000;stroke:#ff0000;" x="296.748439" xlink:href="#me4471cb743" y="128.231105"/>
     <use style="fill:#ff0000;stroke:#ff0000;" x="297.326565" xlink:href="#me4471cb743" y="126.581246"/>
     <use style="fill:#ff0000;stroke:#ff0000;" x="297.895009" xlink:href="#me4471cb743" y="127.651275"/>
     <use style="fill:#ff0000;stroke:#ff0000;" x="298.469684" xlink:href="#me4471cb743" y="128.721072"/>
     <use style="fill:#ff0000;stroke:#ff0000;" x="299.050648" xlink:href="#me4471cb743" y="129.790632"/>
     <use style="fill:#ff0000;stroke:#ff0000;" x="299.637958" xlink:href="#me4471cb743" y="130.859951"/>
     <use style="fill:#ff0000;stroke:#ff0000;" x="300.231672" xlink:href="#me4471cb743" y="131.929024"/>
     <use style="fill:#ff0000;stroke:#ff0000;" x="300.831846" xlink:href="#me4471cb743" y="127.572996"/>
     <use style="fill:#ff0000;stroke:#ff0000;" x="301.405027" xlink:href="#me4471cb743" y="128.620246"/>
     <use style="fill:#ff0000;stroke:#ff0000;" x="301.984209" xlink:href="#me4471cb743" y="132.614372"/>
     <use style="fill:#ff0000;stroke:#ff0000;" x="302.587931" xlink:href="#me4471cb743" y="134.612266"/>
     <use style="fill:#ff0000;stroke:#ff0000;" x="303.204333" xlink:href="#me4471cb743" y="136.624303"/>
     <use style="fill:#ff0000;stroke:#ff0000;" x="303.833912" xlink:href="#me4471cb743" y="138.65061"/>
     <use style="fill:#ff0000;stroke:#ff0000;" x="304.477195" xlink:href="#me4471cb743" y="140.691309"/>
     <use style="fill:#ff0000;stroke:#ff0000;" x="305.134744" xlink:href="#me4471cb743" y="142.746525"/>
     <use style="fill:#ff0000;stroke:#ff0000;" x="305.807151" xlink:href="#me4471cb743" y="144.81638"/>
     <use style="fill:#ff0000;stroke:#ff0000;" x="306.495049" xlink:href="#me4471cb743" y="146.900995"/>
     <use style="fill:#ff0000;stroke:#ff0000;" x="307.199108" xlink:href="#me4471cb743" y="149.000486"/>
     <use style="fill:#ff0000;stroke:#ff0000;" x="307.920044" xlink:href="#me4471cb743" y="151.632724"/>
     <use style="fill:#ff0000;stroke:#ff0000;" x="308.663671" xlink:href="#me4471cb743" y="153.7691"/>
     <use style="fill:#ff0000;stroke:#ff0000;" x="309.426017" xlink:href="#me4471cb743" y="156.160082"/>
     <use style="fill:#ff0000;stroke:#ff0000;" x="310.210582" xlink:href="#me4471cb743" y="158.761197"/>
     <use style="fill:#ff0000;stroke:#ff0000;" x="311.020851" xlink:href="#me4471cb743" y="161.197234"/>
     <use style="fill:#ff0000;stroke:#ff0000;" x="311.856155" xlink:href="#me4471cb743" y="163.793633"/>
     <use style="fill:#ff0000;stroke:#ff0000;" x="312.719862" xlink:href="#me4471cb743" y="166.471922"/>
     <use style="fill:#ff0000;stroke:#ff0000;" x="313.614724" xlink:href="#me4471cb743" y="169.177596"/>
     <use style="fill:#ff0000;stroke:#ff0000;" x="314.543017" xlink:href="#me4471cb743" y="171.852867"/>
     <use style="fill:#ff0000;stroke:#ff0000;" x="315.506293" xlink:href="#me4471cb743" y="174.61318"/>
     <use style="fill:#ff0000;stroke:#ff0000;" x="316.508233" xlink:href="#me4471cb743" y="177.880282"/>
     <use style="fill:#ff0000;stroke:#ff0000;" x="317.561379" xlink:href="#me4471cb743" y="181.099173"/>
     <use style="fill:#ff0000;stroke:#ff0000;" x="318.669173" xlink:href="#me4471cb743" y="184.482771"/>
     <use style="fill:#ff0000;stroke:#ff0000;" x="319.840484" xlink:href="#me4471cb743" y="188.006203"/>
     <use style="fill:#ff0000;stroke:#ff0000;" x="321.085415" xlink:href="#me4471cb743" y="191.803975"/>
     <use style="fill:#ff0000;stroke:#ff0000;" x="322.420591" xlink:href="#me4471cb743" y="195.559109"/>
     <use style="fill:#ff0000;stroke:#ff0000;" x="323.85567" xlink:href="#me4471cb743" y="199.973112"/>
     <use style="fill:#ff0000;stroke:#ff0000;" x="325.431824" xlink:href="#me4471cb743" y="204.877378"/>
     <use style="fill:#ff0000;stroke:#ff0000;" x="327.199264" xlink:href="#me4471cb743" y="210.227573"/>
     <use style="fill:#ff0000;stroke:#ff0000;" x="329.227866" xlink:href="#me4471cb743" y="216.41156"/>
     <use style="fill:#ff0000;stroke:#ff0000;" x="331.65532" xlink:href="#me4471cb743" y="217.438789"/>
     <use style="fill:#ff0000;stroke:#ff0000;" x="334.025881" xlink:href="#me4471cb743" y="218.478831"/>
     <use style="fill:#ff0000;stroke:#ff0000;" x="336.345195" xlink:href="#me4471cb743" y="219.530027"/>
     <use style="fill:#ff0000;stroke:#ff0000;" x="338.618143" xlink:href="#me4471cb743" y="220.591006"/>
     <use style="fill:#ff0000;stroke:#ff0000;" x="340.848972" xlink:href="#me4471cb743" y="221.660624"/>
     <use style="fill:#ff0000;stroke:#ff0000;" x="343.0414" xlink:href="#me4471cb743" y="222.73792"/>
     <use style="fill:#ff0000;stroke:#ff0000;" x="345.1987" xlink:href="#me4471cb743" y="223.822077"/>
     <use style="fill:#ff0000;stroke:#ff0000;" x="347.323771" xlink:href="#me4471cb743" y="224.912393"/>
     <use style="fill:#ff0000;stroke:#ff0000;" x="349.419188" xlink:href="#me4471cb743" y="226.008264"/>
     <use style="fill:#ff0000;stroke:#ff0000;" x="351.487257" xlink:href="#me4471cb743" y="227.109165"/>
     <use style="fill:#ff0000;stroke:#ff0000;" x="353.530044" xlink:href="#me4471cb743" y="129.304818"/>
     <use style="fill:#ff0000;stroke:#ff0000;" x="353.877172" xlink:href="#me4471cb743" y="130.218637"/>
     <use style="fill:#ff0000;stroke:#ff0000;" x="354.226931" xlink:href="#me4471cb743" y="133.136158"/>
     <use style="fill:#ff0000;stroke:#ff0000;" x="354.585563" xlink:href="#me4471cb743" y="134.056936"/>
     <use style="fill:#ff0000;stroke:#ff0000;" x="354.946935" xlink:href="#me4471cb743" y="134.977659"/>
     <use style="fill:#ff0000;stroke:#ff0000;" x="355.311064" xlink:href="#me4471cb743" y="137.955782"/>
     <use style="fill:#ff0000;stroke:#ff0000;" x="355.684914" xlink:href="#me4471cb743" y="138.883545"/>
     <use style="fill:#ff0000;stroke:#ff0000;" x="356.06164" xlink:href="#me4471cb743" y="139.811247"/>
     <use style="fill:#ff0000;stroke:#ff0000;" x="356.441258" xlink:href="#me4471cb743" y="140.738888"/>
     <use style="fill:#ff0000;stroke:#ff0000;" x="356.823783" xlink:href="#me4471cb743" y="143.786493"/>
     <use style="fill:#ff0000;stroke:#ff0000;" x="357.217172" xlink:href="#me4471cb743" y="144.721243"/>
     <use style="fill:#ff0000;stroke:#ff0000;" x="357.613601" xlink:href="#me4471cb743" y="145.655926"/>
     <use style="fill:#ff0000;stroke:#ff0000;" x="358.013086" xlink:href="#me4471cb743" y="148.767353"/>
     <use style="fill:#ff0000;stroke:#ff0000;" x="358.424579" xlink:href="#me4471cb743" y="149.709216"/>
     <use style="fill:#ff0000;stroke:#ff0000;" x="358.839272" xlink:href="#me4471cb743" y="150.651004"/>
     <use style="fill:#ff0000;stroke:#ff0000;" x="359.257183" xlink:href="#me4471cb743" y="153.827878"/>
     <use style="fill:#ff0000;stroke:#ff0000;" x="359.688429" xlink:href="#me4471cb743" y="154.77691"/>
     <use style="fill:#ff0000;stroke:#ff0000;" x="360.123051" xlink:href="#me4471cb743" y="155.725858"/>
     <use style="fill:#ff0000;stroke:#ff0000;" x="360.561065" xlink:href="#me4471cb743" y="158.969846"/>
     <use style="fill:#ff0000;stroke:#ff0000;" x="361.013966" xlink:href="#me4471cb743" y="159.926091"/>
     <use style="fill:#ff0000;stroke:#ff0000;" x="361.470432" xlink:href="#me4471cb743" y="160.882243"/>
     <use style="fill:#ff0000;stroke:#ff0000;" x="361.930478" xlink:href="#me4471cb743" y="164.195056"/>
     <use style="fill:#ff0000;stroke:#ff0000;" x="362.407238" xlink:href="#me4471cb743" y="165.158546"/>
     <use style="fill:#ff0000;stroke:#ff0000;" x="362.887768" xlink:href="#me4471cb743" y="166.121931"/>
     <use style="fill:#ff0000;stroke:#ff0000;" x="363.372082" xlink:href="#me4471cb743" y="169.50532"/>
     <use style="fill:#ff0000;stroke:#ff0000;" x="363.875277" xlink:href="#me4471cb743" y="170.476066"/>
     <use style="fill:#ff0000;stroke:#ff0000;" x="364.384485" xlink:href="#me4471cb743" y="173.923737"/>
     <use style="fill:#ff0000;stroke:#ff0000;" x="364.918431" xlink:href="#me4471cb743" y="174.901682"/>
     <use style="fill:#ff0000;stroke:#ff0000;" x="365.460421" xlink:href="#me4471cb743" y="175.87937"/>
     <use style="fill:#ff0000;stroke:#ff0000;" x="366.010634" xlink:href="#me4471cb743" y="179.400735"/>
     <use style="fill:#ff0000;stroke:#ff0000;" x="366.590306" xlink:href="#me4471cb743" y="180.38543"/>
     <use style="fill:#ff0000;stroke:#ff0000;" x="367.17925" xlink:href="#me4471cb743" y="183.974072"/>
     <use style="fill:#ff0000;stroke:#ff0000;" x="367.802605" xlink:href="#me4471cb743" y="184.965582"/>
     <use style="fill:#ff0000;stroke:#ff0000;" x="368.436523" xlink:href="#me4471cb743" y="188.62297"/>
     <use style="fill:#ff0000;stroke:#ff0000;" x="369.111153" xlink:href="#me4471cb743" y="189.620981"/>
     <use style="fill:#ff0000;stroke:#ff0000;" x="369.797952" xlink:href="#me4471cb743" y="193.348505"/>
     <use style="fill:#ff0000;stroke:#ff0000;" x="370.533638" xlink:href="#me4471cb743" y="197.139277"/>
     <use style="fill:#ff0000;stroke:#ff0000;" x="371.326573" xlink:href="#me4471cb743" y="198.149353"/>
     <use style="fill:#ff0000;stroke:#ff0000;" x="372.135847" xlink:href="#me4471cb743" y="202.012582"/>
     <use style="fill:#ff0000;stroke:#ff0000;" x="373.016257" xlink:href="#me4471cb743" y="205.940985"/>
     <use style="fill:#ff0000;stroke:#ff0000;" x="373.982814" xlink:href="#me4471cb743" y="209.935049"/>
     <use style="fill:#ff0000;stroke:#ff0000;" x="375.055739" xlink:href="#me4471cb743" y="213.994635"/>
     <use style="fill:#ff0000;stroke:#ff0000;" x="376.263063" xlink:href="#me4471cb743" y="218.118496"/>
     <use style="fill:#ff0000;stroke:#ff0000;" x="377.644939" xlink:href="#me4471cb743" y="222.303319"/>
     <use style="fill:#ff0000;stroke:#ff0000;" x="379.260943" xlink:href="#me4471cb743" y="226.541717"/>
     <use style="fill:#ff0000;stroke:#ff0000;" x="381.202276" xlink:href="#me4471cb743" y="234.190984"/>
     <use style="fill:#ff0000;stroke:#ff0000;" x="384.139261" xlink:href="#me4471cb743" y="245.509939"/>
     <use style="fill:#ff0000;stroke:#ff0000;" x="387.942627" xlink:href="#me4471cb743" y="260.124759"/>
     <use style="fill:#ff0000;stroke:#ff0000;" x="389.567368" xlink:href="#me4471cb743" y="266.993707"/>
     <use style="fill:#ff0000;stroke:#ff0000;" x="390.761587" xlink:href="#me4471cb743" y="269.922147"/>
     <use style="fill:#ff0000;stroke:#ff0000;" x="391.822315" xlink:href="#me4471cb743" y="277.16338"/>
     <use style="fill:#ff0000;stroke:#ff0000;" x="392.656371" xlink:href="#me4471cb743" y="280.269414"/>
     <use style="fill:#ff0000;stroke:#ff0000;" x="393.414089" xlink:href="#me4471cb743" y="283.439041"/>
     <use style="fill:#ff0000;stroke:#ff0000;" x="394.105647" xlink:href="#me4471cb743" y="282.168075"/>
     <use style="fill:#ff0000;stroke:#ff0000;" x="394.812553" xlink:href="#me4471cb743" y="285.391178"/>
     <use style="fill:#ff0000;stroke:#ff0000;" x="395.45864" xlink:href="#me4471cb743" y="288.68352"/>
     <use style="fill:#ff0000;stroke:#ff0000;" x="396.051522" xlink:href="#me4471cb743" y="292.048126"/>
     <use style="fill:#ff0000;stroke:#ff0000;" x="396.597559" xlink:href="#me4471cb743" y="295.488"/>
     <use style="fill:#ff0000;stroke:#ff0000;" x="397.102107" xlink:href="#me4471cb743" y="294.149542"/>
     <use style="fill:#ff0000;stroke:#ff0000;" x="397.615447" xlink:href="#me4471cb743" y="273.414242"/>
     <use style="fill:#ff0000;stroke:#ff0000;" x="398.487273" xlink:href="#me4471cb743" y="248.217783"/>
    </g>
   </g>
   <g id="patch_3">
    <path d="M 57.6 307.584 
L 57.6 41.472 
" style="fill:none;stroke:#000000;stroke-linecap:square;stroke-linejoin:miter;stroke-width:0.8;"/>
   </g>
   <g id="patch_4">
    <path d="M 414.72 307.584 
L 414.72 41.472 
" style="fill:none;stroke:#000000;stroke-linecap:square;stroke-linejoin:miter;stroke-width:0.8;"/>
   </g>
   <g id="patch_5">
    <path d="M 57.6 307.584 
L 414.72 307.584 
" style="fill:none;stroke:#000000;stroke-linecap:square;stroke-linejoin:miter;stroke-width:0.8;"/>
   </g>
   <g id="patch_6">
    <path d="M 57.6 41.472 
L 414.72 41.472 
" style="fill:none;stroke:#000000;stroke-linecap:square;stroke-linejoin:miter;stroke-width:0.8;"/>
   </g>
   <g id="text_17">
    <!-- $\lambda$ vs $x_1$ -->
    <g transform="translate(215.7 35.472)scale(0.12 -0.12)">
     <defs>
      <path id="DejaVuSans-32"/>
      <path d="M 2.984375 54.6875 
L 12.5 54.6875 
L 29.59375 8.796875 
L 46.6875 54.6875 
L 56.203125 54.6875 
L 35.6875 0 
L 23.484375 0 
z
" id="DejaVuSans-118"/>
      <path d="M 44.28125 53.078125 
L 44.28125 44.578125 
Q 40.484375 46.53125 36.375 47.5 
Q 32.28125 48.484375 27.875 48.484375 
Q 21.1875 48.484375 17.84375 46.4375 
Q 14.5 44.390625 14.5 40.28125 
Q 14.5 37.15625 16.890625 35.375 
Q 19.28125 33.59375 26.515625 31.984375 
L 29.59375 31.296875 
Q 39.15625 29.25 43.1875 25.515625 
Q 47.21875 21.78125 47.21875 15.09375 
Q 47.21875 7.46875 41.1875 3.015625 
Q 35.15625 -1.421875 24.609375 -1.421875 
Q 20.21875 -1.421875 15.453125 -0.5625 
Q 10.6875 0.296875 5.421875 2 
L 5.421875 11.28125 
Q 10.40625 8.6875 15.234375 7.390625 
Q 20.0625 6.109375 24.8125 6.109375 
Q 31.15625 6.109375 34.5625 8.28125 
Q 37.984375 10.453125 37.984375 14.40625 
Q 37.984375 18.0625 35.515625 20.015625 
Q 33.0625 21.96875 24.703125 23.78125 
L 21.578125 24.515625 
Q 13.234375 26.265625 9.515625 29.90625 
Q 5.8125 33.546875 5.8125 39.890625 
Q 5.8125 47.609375 11.28125 51.796875 
Q 16.75 56 26.8125 56 
Q 31.78125 56 36.171875 55.265625 
Q 40.578125 54.546875 44.28125 53.078125 
z
" id="DejaVuSans-115"/>
     </defs>
     <use transform="translate(0 0.015625)" xlink:href="#DejaVuSans-Oblique-955"/>
     <use transform="translate(59.179688 0.015625)" xlink:href="#DejaVuSans-32"/>
     <use transform="translate(90.966797 0.015625)" xlink:href="#DejaVuSans-118"/>
     <use transform="translate(150.146484 0.015625)" xlink:href="#DejaVuSans-115"/>
     <use transform="translate(202.246094 0.015625)" xlink:href="#DejaVuSans-32"/>
     <use transform="translate(234.033203 0.015625)" xlink:href="#DejaVuSans-Oblique-120"/>
     <use transform="translate(293.212891 -16.390625)scale(0.7)" xlink:href="#DejaVuSans-49"/>
    </g>
   </g>
  </g>
 </g>
 <defs>
  <clipPath id="p6cd80417f7">
   <rect height="266.112" width="357.12" x="57.6" y="41.472"/>
  </clipPath>
 </defs>
</svg>
