<?xml version="1.0" encoding="utf-8" standalone="no"?>
<!DOCTYPE svg PUBLIC "-//W3C//DTD SVG 1.1//EN"
  "http://www.w3.org/Graphics/SVG/1.1/DTD/svg11.dtd">
<!-- Created with matplotlib (https://matplotlib.org/) -->
<svg height="288pt" version="1.1" viewBox="0 0 432 288" width="432pt" xmlns="http://www.w3.org/2000/svg" xmlns:xlink="http://www.w3.org/1999/xlink">
 <defs>
  <style type="text/css">
*{stroke-linecap:butt;stroke-linejoin:round;}
  </style>
 </defs>
 <g id="figure_1">
  <g id="patch_1">
   <path d="M 0 288 
L 432 288 
L 432 0 
L 0 0 
z
" style="fill:#ffffff;"/>
  </g>
  <g id="axes_1">
   <g id="patch_2">
    <path d="M 54 252 
L 388.8 252 
L 388.8 34.56 
L 54 34.56 
z
" style="fill:#ffffff;"/>
   </g>
   <g id="matplotlib.axis_1">
    <g id="xtick_1">
     <g id="line2d_1">
      <path clip-path="url(#paa6fda3686)" d="M 69.218182 252 
L 69.218182 34.56 
" style="fill:none;stroke:#b0b0b0;stroke-linecap:square;stroke-width:0.8;"/>
     </g>
     <g id="line2d_2">
      <defs>
       <path d="M 0 0 
L 0 3.5 
" id="m2c73650411" style="stroke:#000000;stroke-width:0.8;"/>
      </defs>
      <g>
       <use style="stroke:#000000;stroke-width:0.8;" x="69.218182" xlink:href="#m2c73650411" y="252"/>
      </g>
     </g>
     <g id="text_1">
      <!-- 0.0 -->
      <defs>
       <path d="M 31.78125 66.40625 
Q 24.171875 66.40625 20.328125 58.90625 
Q 16.5 51.421875 16.5 36.375 
Q 16.5 21.390625 20.328125 13.890625 
Q 24.171875 6.390625 31.78125 6.390625 
Q 39.453125 6.390625 43.28125 13.890625 
Q 47.125 21.390625 47.125 36.375 
Q 47.125 51.421875 43.28125 58.90625 
Q 39.453125 66.40625 31.78125 66.40625 
z
M 31.78125 74.21875 
Q 44.046875 74.21875 50.515625 64.515625 
Q 56.984375 54.828125 56.984375 36.375 
Q 56.984375 17.96875 50.515625 8.265625 
Q 44.046875 -1.421875 31.78125 -1.421875 
Q 19.53125 -1.421875 13.0625 8.265625 
Q 6.59375 17.96875 6.59375 36.375 
Q 6.59375 54.828125 13.0625 64.515625 
Q 19.53125 74.21875 31.78125 74.21875 
z
" id="DejaVuSans-48"/>
       <path d="M 10.6875 12.40625 
L 21 12.40625 
L 21 0 
L 10.6875 0 
z
" id="DejaVuSans-46"/>
      </defs>
      <g transform="translate(61.266619 266.598437)scale(0.1 -0.1)">
       <use xlink:href="#DejaVuSans-48"/>
       <use x="63.623047" xlink:href="#DejaVuSans-46"/>
       <use x="95.410156" xlink:href="#DejaVuSans-48"/>
      </g>
     </g>
    </g>
    <g id="xtick_2">
     <g id="line2d_3">
      <path clip-path="url(#paa6fda3686)" d="M 129.828428 252 
L 129.828428 34.56 
" style="fill:none;stroke:#b0b0b0;stroke-linecap:square;stroke-width:0.8;"/>
     </g>
     <g id="line2d_4">
      <g>
       <use style="stroke:#000000;stroke-width:0.8;" x="129.828428" xlink:href="#m2c73650411" y="252"/>
      </g>
     </g>
     <g id="text_2">
      <!-- 0.2 -->
      <defs>
       <path d="M 19.1875 8.296875 
L 53.609375 8.296875 
L 53.609375 0 
L 7.328125 0 
L 7.328125 8.296875 
Q 12.9375 14.109375 22.625 23.890625 
Q 32.328125 33.6875 34.8125 36.53125 
Q 39.546875 41.84375 41.421875 45.53125 
Q 43.3125 49.21875 43.3125 52.78125 
Q 43.3125 58.59375 39.234375 62.25 
Q 35.15625 65.921875 28.609375 65.921875 
Q 23.96875 65.921875 18.8125 64.3125 
Q 13.671875 62.703125 7.8125 59.421875 
L 7.8125 69.390625 
Q 13.765625 71.78125 18.9375 73 
Q 24.125 74.21875 28.421875 74.21875 
Q 39.75 74.21875 46.484375 68.546875 
Q 53.21875 62.890625 53.21875 53.421875 
Q 53.21875 48.921875 51.53125 44.890625 
Q 49.859375 40.875 45.40625 35.40625 
Q 44.1875 33.984375 37.640625 27.21875 
Q 31.109375 20.453125 19.1875 8.296875 
z
" id="DejaVuSans-50"/>
      </defs>
      <g transform="translate(121.876866 266.598437)scale(0.1 -0.1)">
       <use xlink:href="#DejaVuSans-48"/>
       <use x="63.623047" xlink:href="#DejaVuSans-46"/>
       <use x="95.410156" xlink:href="#DejaVuSans-50"/>
      </g>
     </g>
    </g>
    <g id="xtick_3">
     <g id="line2d_5">
      <path clip-path="url(#paa6fda3686)" d="M 190.438675 252 
L 190.438675 34.56 
" style="fill:none;stroke:#b0b0b0;stroke-linecap:square;stroke-width:0.8;"/>
     </g>
     <g id="line2d_6">
      <g>
       <use style="stroke:#000000;stroke-width:0.8;" x="190.438675" xlink:href="#m2c73650411" y="252"/>
      </g>
     </g>
     <g id="text_3">
      <!-- 0.4 -->
      <defs>
       <path d="M 37.796875 64.3125 
L 12.890625 25.390625 
L 37.796875 25.390625 
z
M 35.203125 72.90625 
L 47.609375 72.90625 
L 47.609375 25.390625 
L 58.015625 25.390625 
L 58.015625 17.1875 
L 47.609375 17.1875 
L 47.609375 0 
L 37.796875 0 
L 37.796875 17.1875 
L 4.890625 17.1875 
L 4.890625 26.703125 
z
" id="DejaVuSans-52"/>
      </defs>
      <g transform="translate(182.487112 266.598437)scale(0.1 -0.1)">
       <use xlink:href="#DejaVuSans-48"/>
       <use x="63.623047" xlink:href="#DejaVuSans-46"/>
       <use x="95.410156" xlink:href="#DejaVuSans-52"/>
      </g>
     </g>
    </g>
    <g id="xtick_4">
     <g id="line2d_7">
      <path clip-path="url(#paa6fda3686)" d="M 251.048921 252 
L 251.048921 34.56 
" style="fill:none;stroke:#b0b0b0;stroke-linecap:square;stroke-width:0.8;"/>
     </g>
     <g id="line2d_8">
      <g>
       <use style="stroke:#000000;stroke-width:0.8;" x="251.048921" xlink:href="#m2c73650411" y="252"/>
      </g>
     </g>
     <g id="text_4">
      <!-- 0.6 -->
      <defs>
       <path d="M 33.015625 40.375 
Q 26.375 40.375 22.484375 35.828125 
Q 18.609375 31.296875 18.609375 23.390625 
Q 18.609375 15.53125 22.484375 10.953125 
Q 26.375 6.390625 33.015625 6.390625 
Q 39.65625 6.390625 43.53125 10.953125 
Q 47.40625 15.53125 47.40625 23.390625 
Q 47.40625 31.296875 43.53125 35.828125 
Q 39.65625 40.375 33.015625 40.375 
z
M 52.59375 71.296875 
L 52.59375 62.3125 
Q 48.875 64.0625 45.09375 64.984375 
Q 41.3125 65.921875 37.59375 65.921875 
Q 27.828125 65.921875 22.671875 59.328125 
Q 17.53125 52.734375 16.796875 39.40625 
Q 19.671875 43.65625 24.015625 45.921875 
Q 28.375 48.1875 33.59375 48.1875 
Q 44.578125 48.1875 50.953125 41.515625 
Q 57.328125 34.859375 57.328125 23.390625 
Q 57.328125 12.15625 50.6875 5.359375 
Q 44.046875 -1.421875 33.015625 -1.421875 
Q 20.359375 -1.421875 13.671875 8.265625 
Q 6.984375 17.96875 6.984375 36.375 
Q 6.984375 53.65625 15.1875 63.9375 
Q 23.390625 74.21875 37.203125 74.21875 
Q 40.921875 74.21875 44.703125 73.484375 
Q 48.484375 72.75 52.59375 71.296875 
z
" id="DejaVuSans-54"/>
      </defs>
      <g transform="translate(243.097359 266.598437)scale(0.1 -0.1)">
       <use xlink:href="#DejaVuSans-48"/>
       <use x="63.623047" xlink:href="#DejaVuSans-46"/>
       <use x="95.410156" xlink:href="#DejaVuSans-54"/>
      </g>
     </g>
    </g>
    <g id="xtick_5">
     <g id="line2d_9">
      <path clip-path="url(#paa6fda3686)" d="M 311.659167 252 
L 311.659167 34.56 
" style="fill:none;stroke:#b0b0b0;stroke-linecap:square;stroke-width:0.8;"/>
     </g>
     <g id="line2d_10">
      <g>
       <use style="stroke:#000000;stroke-width:0.8;" x="311.659167" xlink:href="#m2c73650411" y="252"/>
      </g>
     </g>
     <g id="text_5">
      <!-- 0.8 -->
      <defs>
       <path d="M 31.78125 34.625 
Q 24.75 34.625 20.71875 30.859375 
Q 16.703125 27.09375 16.703125 20.515625 
Q 16.703125 13.921875 20.71875 10.15625 
Q 24.75 6.390625 31.78125 6.390625 
Q 38.8125 6.390625 42.859375 10.171875 
Q 46.921875 13.96875 46.921875 20.515625 
Q 46.921875 27.09375 42.890625 30.859375 
Q 38.875 34.625 31.78125 34.625 
z
M 21.921875 38.8125 
Q 15.578125 40.375 12.03125 44.71875 
Q 8.5 49.078125 8.5 55.328125 
Q 8.5 64.0625 14.71875 69.140625 
Q 20.953125 74.21875 31.78125 74.21875 
Q 42.671875 74.21875 48.875 69.140625 
Q 55.078125 64.0625 55.078125 55.328125 
Q 55.078125 49.078125 51.53125 44.71875 
Q 48 40.375 41.703125 38.8125 
Q 48.828125 37.15625 52.796875 32.3125 
Q 56.78125 27.484375 56.78125 20.515625 
Q 56.78125 9.90625 50.3125 4.234375 
Q 43.84375 -1.421875 31.78125 -1.421875 
Q 19.734375 -1.421875 13.25 4.234375 
Q 6.78125 9.90625 6.78125 20.515625 
Q 6.78125 27.484375 10.78125 32.3125 
Q 14.796875 37.15625 21.921875 38.8125 
z
M 18.3125 54.390625 
Q 18.3125 48.734375 21.84375 45.5625 
Q 25.390625 42.390625 31.78125 42.390625 
Q 38.140625 42.390625 41.71875 45.5625 
Q 45.3125 48.734375 45.3125 54.390625 
Q 45.3125 60.0625 41.71875 63.234375 
Q 38.140625 66.40625 31.78125 66.40625 
Q 25.390625 66.40625 21.84375 63.234375 
Q 18.3125 60.0625 18.3125 54.390625 
z
" id="DejaVuSans-56"/>
      </defs>
      <g transform="translate(303.707605 266.598437)scale(0.1 -0.1)">
       <use xlink:href="#DejaVuSans-48"/>
       <use x="63.623047" xlink:href="#DejaVuSans-46"/>
       <use x="95.410156" xlink:href="#DejaVuSans-56"/>
      </g>
     </g>
    </g>
    <g id="xtick_6">
     <g id="line2d_11">
      <path clip-path="url(#paa6fda3686)" d="M 372.269414 252 
L 372.269414 34.56 
" style="fill:none;stroke:#b0b0b0;stroke-linecap:square;stroke-width:0.8;"/>
     </g>
     <g id="line2d_12">
      <g>
       <use style="stroke:#000000;stroke-width:0.8;" x="372.269414" xlink:href="#m2c73650411" y="252"/>
      </g>
     </g>
     <g id="text_6">
      <!-- 1.0 -->
      <defs>
       <path d="M 12.40625 8.296875 
L 28.515625 8.296875 
L 28.515625 63.921875 
L 10.984375 60.40625 
L 10.984375 69.390625 
L 28.421875 72.90625 
L 38.28125 72.90625 
L 38.28125 8.296875 
L 54.390625 8.296875 
L 54.390625 0 
L 12.40625 0 
z
" id="DejaVuSans-49"/>
      </defs>
      <g transform="translate(364.317851 266.598437)scale(0.1 -0.1)">
       <use xlink:href="#DejaVuSans-49"/>
       <use x="63.623047" xlink:href="#DejaVuSans-46"/>
       <use x="95.410156" xlink:href="#DejaVuSans-48"/>
      </g>
     </g>
    </g>
    <g id="text_7">
     <!-- $x_1$ -->
     <defs>
      <path d="M 60.015625 54.6875 
L 34.90625 27.875 
L 50.296875 0 
L 39.984375 0 
L 28.421875 21.6875 
L 8.296875 0 
L -2.59375 0 
L 24.3125 28.8125 
L 10.015625 54.6875 
L 20.3125 54.6875 
L 30.8125 34.90625 
L 49.125 54.6875 
z
" id="DejaVuSans-Oblique-120"/>
     </defs>
     <g transform="translate(216.05 280.276563)scale(0.1 -0.1)">
      <use transform="translate(0 0.3125)" xlink:href="#DejaVuSans-Oblique-120"/>
      <use transform="translate(59.179688 -16.09375)scale(0.7)" xlink:href="#DejaVuSans-49"/>
     </g>
    </g>
   </g>
   <g id="matplotlib.axis_2">
    <g id="ytick_1">
     <g id="line2d_13">
      <path clip-path="url(#paa6fda3686)" d="M 54 242.116364 
L 388.8 242.116364 
" style="fill:none;stroke:#b0b0b0;stroke-linecap:square;stroke-width:0.8;"/>
     </g>
     <g id="line2d_14">
      <defs>
       <path d="M 0 0 
L -3.5 0 
" id="md722f7825a" style="stroke:#000000;stroke-width:0.8;"/>
      </defs>
      <g>
       <use style="stroke:#000000;stroke-width:0.8;" x="54" xlink:href="#md722f7825a" y="242.116364"/>
      </g>
     </g>
     <g id="text_8">
      <!-- 0 -->
      <g transform="translate(40.6375 245.915582)scale(0.1 -0.1)">
       <use xlink:href="#DejaVuSans-48"/>
      </g>
     </g>
    </g>
    <g id="ytick_2">
     <g id="line2d_15">
      <path clip-path="url(#paa6fda3686)" d="M 54 197.406458 
L 388.8 197.406458 
" style="fill:none;stroke:#b0b0b0;stroke-linecap:square;stroke-width:0.8;"/>
     </g>
     <g id="line2d_16">
      <g>
       <use style="stroke:#000000;stroke-width:0.8;" x="54" xlink:href="#md722f7825a" y="197.406458"/>
      </g>
     </g>
     <g id="text_9">
      <!-- 2 -->
      <g transform="translate(40.6375 201.205677)scale(0.1 -0.1)">
       <use xlink:href="#DejaVuSans-50"/>
      </g>
     </g>
    </g>
    <g id="ytick_3">
     <g id="line2d_17">
      <path clip-path="url(#paa6fda3686)" d="M 54 152.696552 
L 388.8 152.696552 
" style="fill:none;stroke:#b0b0b0;stroke-linecap:square;stroke-width:0.8;"/>
     </g>
     <g id="line2d_18">
      <g>
       <use style="stroke:#000000;stroke-width:0.8;" x="54" xlink:href="#md722f7825a" y="152.696552"/>
      </g>
     </g>
     <g id="text_10">
      <!-- 4 -->
      <g transform="translate(40.6375 156.495771)scale(0.1 -0.1)">
       <use xlink:href="#DejaVuSans-52"/>
      </g>
     </g>
    </g>
    <g id="ytick_4">
     <g id="line2d_19">
      <path clip-path="url(#paa6fda3686)" d="M 54 107.986646 
L 388.8 107.986646 
" style="fill:none;stroke:#b0b0b0;stroke-linecap:square;stroke-width:0.8;"/>
     </g>
     <g id="line2d_20">
      <g>
       <use style="stroke:#000000;stroke-width:0.8;" x="54" xlink:href="#md722f7825a" y="107.986646"/>
      </g>
     </g>
     <g id="text_11">
      <!-- 6 -->
      <g transform="translate(40.6375 111.785865)scale(0.1 -0.1)">
       <use xlink:href="#DejaVuSans-54"/>
      </g>
     </g>
    </g>
    <g id="ytick_5">
     <g id="line2d_21">
      <path clip-path="url(#paa6fda3686)" d="M 54 63.27674 
L 388.8 63.27674 
" style="fill:none;stroke:#b0b0b0;stroke-linecap:square;stroke-width:0.8;"/>
     </g>
     <g id="line2d_22">
      <g>
       <use style="stroke:#000000;stroke-width:0.8;" x="54" xlink:href="#md722f7825a" y="63.27674"/>
      </g>
     </g>
     <g id="text_12">
      <!-- 8 -->
      <g transform="translate(40.6375 67.075959)scale(0.1 -0.1)">
       <use xlink:href="#DejaVuSans-56"/>
      </g>
     </g>
    </g>
    <g id="text_13">
     <!-- $x_2$ -->
     <g transform="translate(34.557813 148.63)rotate(-90)scale(0.1 -0.1)">
      <use transform="translate(0 0.3125)" xlink:href="#DejaVuSans-Oblique-120"/>
      <use transform="translate(59.179688 -16.09375)scale(0.7)" xlink:href="#DejaVuSans-50"/>
     </g>
    </g>
   </g>
   <g id="line2d_23">
    <path clip-path="url(#paa6fda3686)" d="M 303.396855 46.208793 
L 318.538763 46.1669 
L 330.185014 45.451849 
L 339.889339 44.593405 
L 354.905273 44.443636 
L 361.472551 45.450933 
L 364.891186 46.539861 
L 367.168837 47.644928 
L 368.866259 48.755623 
L 370.213056 49.868962 
L 371.325229 50.983686 
L 372.269414 52.099264 
" style="fill:none;stroke:#ffa500;stroke-linecap:square;stroke-width:1.5;"/>
   </g>
   <g id="line2d_24">
    <path clip-path="url(#paa6fda3686)" d="M 369.964235 242.116055 
L 369.965644 240.998308 
L 369.968462 239.88056 
L 369.972688 238.762812 
L 369.978342 237.645065 
L 369.985387 236.527318 
L 369.993858 235.40957 
L 370.003739 234.291822 
L 370.015047 233.174075 
L 370.027745 232.056328 
L 370.041871 230.938581 
L 370.057423 229.820834 
L 370.074384 228.703086 
L 370.092773 227.58534 
L 370.112588 226.467593 
L 370.133813 225.349846 
L 370.156464 224.2321 
L 370.180542 223.114355 
L 370.206066 221.996608 
L 370.233016 220.878863 
L 370.261393 219.761118 
L 370.291198 218.643371 
L 370.322465 217.525627 
L 370.35516 216.40788 
L 370.389299 215.290137 
L 370.424902 214.172393 
L 370.461932 213.054646 
L 370.500443 211.936902 
L 370.540399 210.819158 
L 370.581818 209.701417 
L 370.6247 208.583673 
L 370.669045 207.465929 
L 370.714872 206.348188 
L 370.762179 205.230444 
L 370.810968 204.112703 
L 370.861238 202.994961 
L 370.912989 201.87722 
L 370.966258 200.759479 
L 371.021008 199.64174 
L 371.077275 198.523999 
L 371.135041 197.406261 
L 371.194325 196.288519 
L 371.255126 195.170783 
L 371.317462 194.053042 
L 371.381334 192.935306 
L 371.446723 191.81757 
L 371.513665 190.699834 
L 371.582161 189.582098 
L 371.65221 188.464363 
L 371.723831 187.346627 
L 371.797005 186.228891 
L 371.871769 185.111155 
L 371.948105 183.993424 
L 372.02603 182.875688 
L 372.105544 181.757958 
L 372.186684 180.640227 
L 372.269414 179.522496 
" style="fill:none;stroke:#ffa500;stroke-linecap:square;stroke-width:1.5;"/>
   </g>
   <g id="line2d_25">
    <path clip-path="url(#paa6fda3686)" d="M 69.218182 242.116364 
L 72.256021 242.116364 
L 75.29386 242.116364 
L 78.331698 242.116364 
L 81.369537 242.116364 
L 84.407376 242.116364 
L 87.445215 242.116364 
L 90.483054 242.116364 
L 93.520893 242.116364 
L 96.558731 242.116364 
L 99.59657 242.116364 
L 102.634409 242.116364 
L 105.672247 242.116364 
L 108.710088 242.116364 
L 111.747927 242.116364 
L 114.785765 242.116364 
L 117.823604 242.116364 
L 120.861443 242.116364 
L 123.899281 242.116364 
L 126.93712 242.116364 
L 129.974958 242.116364 
L 133.012797 242.116364 
L 136.050636 242.116364 
L 139.088474 242.116364 
L 142.126313 242.116364 
L 145.164151 242.116364 
L 148.201994 242.116364 
L 151.239829 242.116364 
L 154.277672 242.116364 
L 157.315506 242.116364 
L 160.353349 242.116364 
L 163.391183 242.116364 
L 166.429026 242.116364 
L 169.46686 242.116364 
L 172.504703 242.116364 
L 175.542537 242.116364 
L 178.58038 242.116364 
L 181.618224 242.116364 
L 184.656058 242.116364 
L 187.693901 242.116364 
L 190.731735 242.116364 
L 193.769578 242.116364 
L 196.807412 242.116364 
L 199.845255 242.116364 
L 202.883089 242.116364 
L 205.920932 242.116364 
L 208.958766 242.116364 
L 211.99661 242.116364 
L 215.034444 242.116364 
L 218.072287 242.116364 
L 221.110121 242.116364 
L 224.147964 242.116364 
L 227.185807 242.116364 
L 230.223632 242.116364 
L 233.261475 242.116364 
L 236.299318 242.116364 
L 239.337161 242.116364 
L 242.375005 242.116364 
L 245.41283 242.116364 
L 248.450673 242.116364 
L 251.488516 242.116364 
L 254.526359 242.116364 
L 257.564184 242.116364 
L 260.602027 242.116364 
L 263.63987 242.116364 
L 266.677713 242.116364 
L 269.715538 242.116364 
L 272.753381 242.116364 
L 275.791225 242.116364 
L 278.829068 242.116364 
L 281.866893 242.116364 
L 284.904736 242.116364 
L 287.942579 242.116364 
L 290.980422 242.116364 
L 294.018265 242.116364 
L 297.05609 242.116364 
L 300.093933 242.116364 
L 303.131777 242.116364 
L 306.16962 242.116364 
L 309.207445 242.116364 
L 312.245288 242.116364 
L 315.283131 242.116364 
L 318.320974 242.116364 
L 321.358799 242.116364 
L 324.396642 242.116364 
L 327.434485 242.116364 
L 330.472328 242.116364 
L 333.510153 242.116364 
L 336.547997 242.116364 
L 339.58584 242.116364 
L 342.623683 242.116364 
L 345.661526 242.116364 
L 348.699351 242.116364 
L 351.737194 242.116364 
L 354.775037 242.116364 
L 357.81288 242.116364 
L 360.850705 242.116364 
L 363.888548 242.116364 
L 366.926392 242.116364 
L 369.964235 242.116364 
" style="fill:none;stroke:#ffa500;stroke-linecap:square;stroke-width:1.5;"/>
   </g>
   <g id="line2d_26">
    <path clip-path="url(#paa6fda3686)" d="M 287.415078 69.214775 
L 290.445587 71.834496 
L 293.476096 71.834496 
L 296.506606 69.214775 
L 299.537115 60.154906 
L 302.567625 48.257006 
L 303.396855 46.208793 
" style="fill:none;stroke:#ffa500;stroke-linecap:square;stroke-width:1.5;"/>
   </g>
   <g id="line2d_27">
    <path clip-path="url(#paa6fda3686)" d="M 287.415078 91.569727 
L 287.26098 91.346471 
L 287.106647 91.123204 
L 286.95208 90.899948 
L 286.797296 90.676692 
L 286.642295 90.453436 
L 286.487078 90.23018 
L 286.331679 90.006924 
L 286.176064 89.783667 
L 286.020269 89.560411 
L 285.86431 89.337166 
L 285.708154 89.11391 
L 285.551852 88.890653 
L 285.395406 88.667408 
L 285.238798 88.444152 
L 285.082045 88.220906 
L 284.925183 87.99765 
L 284.768178 87.774404 
L 284.611063 87.551159 
L 284.453841 87.327903 
L 284.296528 87.104657 
L 284.139125 86.881412 
L 283.981649 86.658166 
L 283.824083 86.434921 
L 283.666463 86.211665 
L 283.508771 85.988419 
L 283.351043 85.765174 
L 283.193278 85.541928 
L 283.035477 85.318683 
L 282.877659 85.095437 
L 282.719804 84.872191 
L 282.561967 84.648946 
L 282.404112 84.4257 
L 282.246275 84.202455 
L 282.088457 83.979209 
L 281.930674 83.755964 
L 281.77291 83.532718 
L 281.615181 83.309473 
L 281.457525 83.086217 
L 281.299905 82.862971 
L 281.142375 82.639726 
L 280.9849 82.41648 
L 280.827515 82.193235 
L 280.67022 81.969978 
L 280.513015 81.746733 
L 280.355919 81.523487 
L 280.198931 81.300231 
L 280.04207 81.076986 
L 279.885335 80.85374 
L 279.728745 80.630484 
L 279.572281 80.407239 
L 279.415979 80.183982 
L 279.259822 79.960726 
L 279.103846 79.737481 
L 278.948032 79.514224 
L 278.792399 79.290968 
L 278.636947 79.067712 
L 278.481693 78.844456 
L 278.32662 78.6212 
" style="fill:none;stroke:#ffa500;stroke-linecap:square;stroke-width:1.5;"/>
   </g>
   <g id="line2d_28">
    <path clip-path="url(#paa6fda3686)" d="M 278.323531 78.6212 
L 278.168693 78.397944 
L 278.014053 78.174687 
L 277.859649 77.951421 
L 277.705461 77.728164 
L 277.551507 77.504908 
L 277.397789 77.281641 
L 277.244306 77.058375 
L 277.091075 76.835118 
L 276.938097 76.611852 
L 276.785372 76.388585 
L 276.632936 76.165318 
L 276.480753 75.942051 
L 276.328841 75.718784 
L 276.177218 75.495517 
L 276.025884 75.27224 
L 275.874839 75.048973 
L 275.724083 74.825696 
L 275.573635 74.602429 
L 275.423493 74.379151 
L 275.273658 74.155874 
L 275.124148 73.932596 
L 274.974946 73.709319 
L 274.826068 73.486041 
L 274.677516 73.262753 
L 274.529307 73.039476 
L 274.381423 72.816187 
L 274.233882 72.59291 
L 274.086685 72.369622 
L 273.939831 72.146334 
L 273.79332 71.923046 
L 273.64717 71.699757 
L 273.501381 71.476469 
L 273.355936 71.25317 
L 273.21087 71.029882 
L 273.066147 70.806583 
L 272.921821 70.583295 
L 272.777839 70.359996 
L 272.634254 70.136698 
L 272.491031 69.913399 
L 272.348186 69.6901 
L 272.205721 69.466791 
L 272.063654 69.243492 
L 271.921948 69.020182 
L 271.780639 68.796873 
L 271.639727 68.573574 
L 271.499195 68.350264 
L 271.35906 68.126955 
L 271.219323 67.903635 
L 271.079983 67.680325 
L 270.94104 67.457016 
L 270.802495 67.233696 
L 270.664347 67.010376 
L 270.526597 66.787056 
L 270.389262 66.563735 
L 270.252324 66.340415 
L 270.115784 66.117095 
L 269.979659 65.893775 
L 269.843932 65.670444 
L 269.70862 65.447124 
L 269.573706 65.223793 
L 269.439207 65.000462 
L 269.305123 64.777132 
L 269.171455 64.553801 
L 269.038184 64.33047 
L 268.905329 64.107129 
L 268.772871 63.883798 
L 268.640847 63.660456 
L 268.50922 63.437126 
L 268.378008 63.213784 
L 268.247194 62.990443 
L 268.116813 62.767101 
L 267.98683 62.54376 
L 267.857262 62.320418 
L 267.72811 62.097056 
L 267.599373 61.873714 
L 267.471034 61.650373 
L 267.34311 61.42701 
L 267.215601 61.203668 
L 267.088508 60.980306 
L 266.961812 60.756964 
L 266.835532 60.533601 
L 266.709649 60.310239 
L 266.584182 60.086897 
L 266.45913 59.863534 
L 266.334475 59.640172 
L 266.210236 59.416809 
L 266.086394 59.193446 
L 265.962968 58.970083 
L 265.839921 58.746721 
L 265.717308 58.523358 
L 265.595074 58.299974 
L 265.473255 58.076611 
L 265.351834 57.853248 
L 265.23081 57.629864 
L 265.110184 57.406501 
L 264.989954 57.183117 
L 264.870123 56.959754 
L 264.750689 56.73637 
L 264.631652 56.512986 
L 264.513012 56.289624 
L 264.394752 56.066239 
L 264.276889 55.842855 
L 264.159424 55.619471 
L 264.042338 55.396087 
L 260.140457 60.154906 
L 257.109947 64.848573 
L 254.079438 71.834496 
L 251.048928 76.200697 
L 248.018401 83.18662 
L 244.987891 90.172543 
L 241.957382 97.158466 
L 238.926872 99.778187 
L 235.896363 104.144389 
L 232.865854 106.76411 
L 229.835326 106.76411 
L 226.804817 106.76411 
L 223.774307 104.144389 
L 220.743798 102.070443 
L 217.713288 97.158466 
L 214.68277 92.792264 
L 211.652261 85.806341 
L 208.621751 78.820418 
L 205.591233 69.214775 
L 202.560723 62.228852 
" style="fill:none;stroke:#ffa500;stroke-linecap:square;stroke-width:1.5;"/>
   </g>
   <g id="line2d_29">
    <path clip-path="url(#paa6fda3686)" d="M 202.560723 84.583805 
L 202.506976 84.360293 
L 202.453147 84.136781 
L 202.399256 83.913258 
L 202.345283 83.689746 
L 202.291246 83.466234 
L 202.237129 83.242722 
L 202.182948 83.01921 
L 202.128695 82.795687 
L 202.07437 82.572175 
L 202.019972 82.348663 
L 201.965512 82.125151 
L 201.91097 81.901639 
L 201.856364 81.678127 
L 201.801687 81.454615 
L 201.746937 81.231103 
L 201.692124 81.007591 
L 201.637239 80.784069 
L 201.582282 80.560557 
L 201.527261 80.337045 
L 201.472168 80.113533 
L 201.417003 79.890021 
L 201.361774 79.666509 
L 201.306483 79.442997 
L 201.25111 79.219485 
L 201.195683 78.995973 
L 201.140183 78.772461 
L 201.084612 78.548949 
L 201.028977 78.325437 
L 200.973279 78.101925 
L 200.917508 77.878413 
L 200.861675 77.6549 
L 200.805769 77.431388 
L 200.749809 77.207876 
L 200.693777 76.984364 
L 200.637672 76.760852 
L 200.581514 76.537351 
L 200.525283 76.313839 
L 200.468989 76.090327 
L 200.412631 75.866815 
L 200.356211 75.643303 
L 200.299727 75.419791 
L 200.24318 75.196279 
L 200.186569 74.972767 
L 200.129887 74.749255 
L 200.07315 74.525754 
L 200.01635 74.302242 
L 199.959478 74.07873 
L 199.902552 73.855218 
L 199.845562 73.631706 
L 199.788518 73.408204 
L 199.731402 73.184692 
L 199.674223 72.96118 
L 199.61699 72.737668 
L 199.559693 72.514156 
" style="fill:none;stroke:#ffa500;stroke-linecap:square;stroke-width:1.5;"/>
   </g>
   <g id="line2d_30">
    <path clip-path="url(#paa6fda3686)" d="M 199.530214 72.514156 
L 199.472863 72.290655 
L 199.415458 72.067143 
L 199.357999 71.843631 
L 199.300467 71.620119 
L 199.242881 71.396618 
L 199.185242 71.173106 
L 199.127539 70.949594 
L 199.069772 70.726092 
L 199.011952 70.50258 
L 198.954068 70.279068 
L 198.89613 70.055556 
L 198.838138 69.832055 
L 198.780083 69.608543 
L 198.721973 69.385031 
L 198.663809 69.161529 
L 198.605583 68.938017 
L 198.547301 68.714505 
L 198.488966 68.491004 
L 198.430577 68.267492 
L 198.372133 68.043991 
L 198.313626 67.820479 
L 198.255065 67.596967 
L 198.196459 67.373465 
L 198.137789 67.149953 
L 198.079066 66.926452 
L 198.020288 66.70294 
L 197.961456 66.479428 
L 197.902578 66.255927 
L 197.843638 66.032415 
L 197.784652 65.808913 
L 197.725604 65.585401 
L 197.66651 65.3619 
L 197.607362 65.138388 
L 197.548168 64.914887 
L 197.488912 64.691375 
L 197.42961 64.467873 
L 197.370263 64.244361 
L 197.310862 64.02086 
L 197.251407 63.797348 
L 197.191898 63.573847 
L 197.132343 63.350335 
L 197.072743 63.126823 
L 197.013089 62.903332 
L 196.95339 62.67982 
L 196.893637 62.456308 
L 196.833839 62.232817 
L 196.773995 62.009305 
L 196.714097 61.785793 
L 196.654154 61.562281 
L 196.594166 61.33879 
L 196.534133 61.115278 
L 196.474045 60.891766 
L 196.413922 60.668276 
L 196.353744 60.444764 
L 196.293521 60.221252 
L 196.233253 59.99774 
L 196.17294 59.774249 
L 196.112582 59.550737 
L 196.052178 59.327225 
L 195.991738 59.103734 
L 195.931244 58.880222 
L 195.870715 58.65671 
L 195.81013 58.43322 
L 195.74951 58.209708 
L 195.688845 57.986196 
L 195.628143 57.762705 
L 195.567396 57.539193 
L 195.506604 57.315681 
L 195.445776 57.09219 
L 195.384894 56.868678 
L 195.323985 56.645188 
L 195.26303 56.421676 
L 195.202031 56.198164 
L 195.140995 55.974673 
L 195.079923 55.751161 
L 195.018806 55.527649 
L 194.957653 55.304158 
L 194.896454 55.080646 
L 194.835229 54.857155 
L 190.438676 60.154906 
L 187.408158 64.848573 
L 184.377649 69.214775 
L 181.347139 76.200697 
L 178.31663 80.785209 
L 175.286111 87.771132 
" style="fill:none;stroke:#ffa500;stroke-linecap:square;stroke-width:1.5;"/>
   </g>
   <g id="line2d_31">
    <path clip-path="url(#paa6fda3686)" d="M 175.286111 110.126085 
L 175.248928 109.902552 
L 175.211709 109.679018 
L 175.174444 109.455485 
L 175.137144 109.231952 
L 175.099798 109.008418 
L 175.062416 108.784885 
L 175.024998 108.561352 
L 174.987535 108.337829 
L 174.950044 108.114296 
L 174.9125 107.890762 
L 174.874928 107.667229 
L 174.83732 107.443696 
L 174.799668 107.220162 
L 174.761979 106.996629 
L 174.724254 106.773096 
L 174.686483 106.549562 
L 174.648686 106.326029 
L 174.610843 106.102506 
L 174.572965 105.878973 
L 174.53505 105.65544 
L 174.497099 105.431906 
L 174.459112 105.208373 
L 174.421089 104.98484 
L 174.383029 104.761306 
L 174.344934 104.537773 
L 174.306793 104.31425 
L 174.268626 104.090717 
L 174.230422 103.867184 
L 174.192182 103.64365 
L 174.153906 103.420117 
L 174.115585 103.196584 
L 174.077237 102.973061 
L 174.038852 102.749528 
L 174.000441 102.525994 
L 173.961984 102.302461 
L 173.923491 102.078928 
L 173.884971 101.855394 
L 173.846415 101.631872 
L 173.807823 101.408338 
L 173.769195 101.184805 
L 173.73053 100.961272 
L 173.691839 100.737738 
L 173.653111 100.514205 
L 173.614347 100.290682 
L 173.575548 100.067149 
L 173.536721 99.843616 
L 173.497857 99.620083 
L 173.458967 99.396549 
L 173.420032 99.173027 
L 173.381078 98.949493 
L 173.34208 98.72596 
L 173.303054 98.502427 
L 173.263992 98.278904 
L 173.224903 98.055371 
L 173.185778 97.831837 
L 173.146626 97.608304 
L 173.107438 97.384771 
L 173.068223 97.161248 
L 173.028971 96.937715 
L 172.989693 96.714181 
L 172.950378 96.490648 
L 172.911036 96.267125 
L 172.871658 96.043592 
L 172.832253 95.820059 
L 172.792821 95.596525 
L 172.753353 95.373003 
L 172.713858 95.149469 
L 172.674335 94.925936 
L 172.634777 94.702403 
L 172.595191 94.47888 
L 172.555578 94.255347 
L 172.514927 94.031813 
L 172.471404 93.808291 
L 172.424665 93.584768 
L 172.374295 93.361245 
L 172.319835 93.137733 
L 172.260705 92.914232 
L 172.196246 92.690731 
L 172.125646 92.46724 
L 172.047901 92.243771 
L 171.961803 92.020301 
L 171.865842 91.796864 
L 171.758131 91.573458 
L 171.636258 91.350096 
L 171.497144 91.126775 
L 171.336778 90.903541 
L 171.149868 90.680412 
L 170.929442 90.457465 
L 170.666152 90.234753 
L 170.347652 90.012445 
L 169.957892 89.790756 
L 169.477147 89.570037 
L 168.883769 89.35081 
L 168.159252 89.133747 
L 167.295755 88.919456 
L 166.301183 88.708288 
L 165.195594 88.500147 
L 164.001802 88.294682 
L 162.738331 88.091487 
L 161.41751 87.890286 
L 160.046445 87.690918 
L 158.628524 87.493352 
L 157.164632 87.297608 
L 155.653875 87.103815 
L 154.094041 86.912154 
L 152.481831 86.72287 
L 150.812967 86.536262 
L 149.082163 86.352767 
L 147.28308 86.172863 
L 145.408177 85.997235 
L 143.448548 85.826712 
L 141.393735 85.662404 
L 139.23158 85.50576 
L 136.948244 85.358774 
L 134.528743 85.224163 
L 131.958733 85.105702 
L 129.22909 85.008593 
L 126.345823 84.939752 
L 123.347178 84.907422 
L 120.320714 84.918977 
L 117.394032 84.976997 
L 114.682236 85.076783 
L 112.239433 85.20909 
" style="fill:none;stroke:#ffa500;stroke-linecap:square;stroke-width:1.5;"/>
   </g>
   <g id="line2d_32">
    <path clip-path="url(#paa6fda3686)" d="M 111.645354 85.20909 
L 109.551159 85.37067 
L 107.677872 85.546394 
L 105.991872 85.732161 
L 104.463524 85.925197 
L 103.06832 86.123648 
L 101.78642 86.326213 
L 100.601797 86.531977 
L 99.501458 86.740267 
L 98.474774 86.950593 
L 97.512971 87.162593 
L 96.608737 87.375957 
L 95.75593 87.590472 
L 94.949333 87.805957 
L 94.184483 88.022274 
L 93.45754 88.239294 
L 92.765169 88.456933 
L 92.104458 88.675104 
L 91.472849 88.893745 
L 90.868082 89.11279 
L 90.288156 89.332209 
L 89.731282 89.551958 
L 89.195855 89.771984 
L 88.68044 89.992277 
L 88.183737 90.212805 
L 87.704569 90.433545 
L 87.241864 90.654477 
L 86.79465 90.87558 
L 86.362038 91.096832 
L 85.943207 91.318245 
L 85.53741 91.539774 
L 85.143955 91.761431 
L 84.762205 91.983206 
L 84.391571 92.205076 
L 84.031504 92.427042 
L 83.681498 92.649094 
L 83.34108 92.871231 
L 83.00981 93.093442 
L 82.687277 93.315718 
L 82.373096 93.538068 
L 82.066908 93.760471 
L 81.768375 93.982928 
L 81.477182 94.205449 
L 81.193029 94.428012 
L 80.915636 94.650618 
L 80.644739 94.873277 
L 80.380088 95.095968 
L 80.121448 95.318702 
L 79.868597 95.541479 
L 79.621323 95.764277 
L 79.379425 95.987117 
L 79.142717 96.209979 
L 78.911016 96.432872 
L 78.684151 96.655798 
L 78.461961 96.878745 
" style="fill:none;stroke:#ffa500;stroke-linecap:square;stroke-width:1.5;"/>
   </g>
   <g id="line2d_33">
    <path clip-path="url(#paa6fda3686)" d="M 78.309719 96.878745 
L 78.096043 97.101746 
L 77.886585 97.324757 
L 77.681212 97.547789 
L 77.479797 97.770843 
L 77.282219 97.993918 
L 77.088364 98.217014 
L 76.89812 98.440121 
L 76.711381 98.663249 
L 76.528047 98.886388 
L 76.348019 99.109538 
L 76.171203 99.332708 
L 75.997512 99.55589 
L 75.826857 99.779082 
L 75.659158 100.002296 
L 75.494334 100.225509 
L 75.332307 100.448744 
L 75.173007 100.671979 
L 75.01636 100.895235 
L 74.862299 101.118491 
L 74.710758 101.341758 
L 74.561674 101.565046 
L 74.414985 101.788334 
L 74.270633 102.011623 
L 74.12856 102.234932 
L 73.988712 102.458242 
L 73.851035 102.681562 
L 73.715478 102.904882 
L 73.581992 103.128213 
L 73.450528 103.351554 
L 73.32104 103.574906 
L 73.193483 103.798258 
L 73.067814 104.02161 
L 72.94399 104.244973 
L 72.821971 104.468347 
L 72.701717 104.69172 
L 72.58319 104.915093 
L 72.466352 105.138478 
L 72.351169 105.361862 
L 72.237603 105.585256 
L 72.125623 105.808651 
L 72.015194 106.032057 
L 71.906285 106.255462 
L 71.798866 106.478867 
L 71.692904 106.702283 
L 71.588373 106.9257 
L 71.485242 107.149116 
L 71.383484 107.372542 
L 71.283072 107.595969 
L 71.183981 107.819396 
L 71.086184 108.042833 
L 70.989657 108.266271 
L 70.894375 108.489708 
L 70.800316 108.713145 
L 70.707456 108.936593 
L 70.615773 109.160041 
L 70.525245 109.383489 
L 70.435852 109.606948 
L 70.347571 109.830396 
L 70.260385 110.053855 
L 70.174272 110.277314 
L 70.089214 110.500772 
L 70.005192 110.724242 
L 69.922187 110.9477 
L 69.840183 111.17117 
L 69.759162 111.394639 
L 69.679107 111.618109 
L 69.600001 111.841589 
L 69.521828 112.065058 
L 69.444574 112.288538 
L 69.368221 112.512018 
L 69.292755 112.735498 
" style="fill:none;stroke:#ffa500;stroke-linecap:square;stroke-width:1.5;"/>
   </g>
   <g id="line2d_34">
    <path clip-path="url(#paa6fda3686)" d="M 311.659171 242.116364 
L 311.77008 232.056639 
L 312.105081 221.996943 
L 312.670533 211.71375 
L 313.48562 200.983543 
L 314.57982 189.582802 
L 314.674742 188.688631 
L 314.674742 188.688631 
" style="fill:none;stroke:#800080;stroke-linecap:square;stroke-width:1.5;"/>
   </g>
   <g id="line2d_35">
    <path clip-path="url(#paa6fda3686)" d="M 314.674742 188.688631 
L 314.724832 188.465114 
L 314.775029 188.241591 
L 314.825354 188.018074 
L 314.875786 187.794557 
L 314.926309 187.571039 
L 314.976941 187.347522 
L 315.027698 187.123999 
L 315.078528 186.900482 
L 315.129485 186.676965 
L 315.18055 186.453447 
L 315.231705 186.22993 
L 315.28295 186.006413 
L 315.334304 185.782895 
L 315.385766 185.559378 
L 315.437319 185.335861 
L 315.488962 185.112343 
L 315.540713 184.888826 
L 315.592555 184.665309 
L 315.644486 184.441791 
L 315.696527 184.218274 
L 315.748639 183.994762 
L 315.80086 183.771245 
L 315.853153 183.547727 
L 315.905555 183.32421 
L 315.958047 183.100693 
L 316.010611 182.877181 
L 316.063265 182.653663 
L 316.116028 182.430146 
L 316.168845 182.206634 
L 316.22177 181.983117 
L 316.274768 181.759599 
L 316.327856 181.536087 
L 316.381016 181.31257 
L 316.434266 181.089058 
L 316.487589 180.865541 
L 316.541002 180.642029 
L 316.594488 180.418511 
L 316.648063 180.194999 
L 316.701693 179.971482 
L 316.755413 179.74797 
L 316.809206 179.524453 
L 316.86307 179.300941 
L 316.917025 179.077423 
L 316.971034 178.853911 
L 317.025116 178.630399 
L 317.079287 178.406882 
L 317.133513 178.18337 
L 317.187811 177.959858 
L 317.242182 177.73634 
L 317.296606 177.512828 
L 317.351103 177.289316 
L 317.405672 177.065804 
L 317.460314 176.842287 
L 317.515009 176.618775 
L 317.569777 176.395263 
L 317.624599 176.171751 
L 317.679493 175.948239 
" style="fill:none;stroke:#800080;stroke-linecap:square;stroke-width:1.5;"/>
   </g>
   <g id="line2d_36">
    <path clip-path="url(#paa6fda3686)" d="M 317.679493 175.948239 
L 317.751819 175.724754 
L 317.824162 175.501268 
L 317.896542 175.277778 
L 317.968939 175.054292 
L 318.041355 174.830807 
L 318.113806 174.607322 
L 318.186258 174.383836 
L 318.258746 174.160351 
L 318.331252 173.936866 
L 318.403758 173.71338 
L 318.4763 173.489895 
L 318.54886 173.266409 
L 318.62142 173.042924 
L 318.693998 172.819439 
L 318.766595 172.595953 
L 318.839191 172.372468 
L 318.911805 172.148983 
L 318.984438 171.925497 
L 319.05707 171.702012 
L 319.129702 171.478527 
L 319.202353 171.255041 
L 319.275003 171.031556 
L 319.347654 170.808071 
L 319.420322 170.584585 
L 319.492991 170.3611 
L 319.565641 170.137614 
L 319.63831 169.914129 
L 319.710978 169.690644 
L 319.783647 169.467158 
L 319.856315 169.243673 
L 319.928966 169.020188 
L 320.001634 168.796702 
L 320.074284 168.573217 
L 320.146935 168.349732 
L 320.219567 168.126246 
L 320.292218 167.902761 
L 320.364832 167.679276 
L 320.437446 167.45579 
L 320.510061 167.232305 
L 320.582657 167.008819 
L 320.655253 166.785334 
" style="fill:none;stroke:#800080;stroke-linecap:square;stroke-width:1.5;"/>
   </g>
   <g id="line2d_37">
    <path clip-path="url(#paa6fda3686)" d="M 320.655253 166.785334 
L 320.746924 166.561886 
L 320.838505 166.338443 
L 320.929995 166.114995 
L 321.021377 165.891547 
L 321.112669 165.668099 
L 321.20387 165.444651 
L 321.294963 165.221203 
L 321.385966 164.99775 
L 321.476879 164.774302 
L 321.567665 164.550854 
L 321.65836 164.327406 
L 321.748965 164.103958 
L 321.839462 163.880504 
L 321.929851 163.657056 
L 322.020149 163.433603 
L 322.110321 163.210155 
L 322.200403 162.986701 
L 322.290376 162.763253 
L 322.380258 162.5398 
L 322.470015 162.316352 
L 322.559681 162.092898 
L 322.64922 161.869445 
L 322.73867 161.645992 
L 322.828011 161.422544 
L 322.917225 161.19909 
L 323.006349 160.975637 
L 323.095347 160.752183 
L 323.184254 160.52873 
L 323.273035 160.305277 
L 323.361708 160.081823 
L 323.450272 159.85837 
L 323.538728 159.634917 
L 323.627075 159.411458 
" style="fill:none;stroke:#800080;stroke-linecap:square;stroke-width:1.5;"/>
   </g>
   <g id="line2d_38">
    <path clip-path="url(#paa6fda3686)" d="M 323.627075 159.411458 
L 323.73652 159.188058 
L 323.845731 158.964652 
L 323.954688 158.741247 
L 324.063393 158.517842 
L 324.171863 158.294436 
L 324.28008 158.071025 
L 324.388044 157.84762 
L 324.495773 157.624209 
L 324.603232 157.400804 
L 324.710473 157.177393 
L 324.817444 156.953982 
L 324.92418 156.730572 
L 325.030681 156.507161 
L 325.136911 156.28375 
L 325.242924 156.060334 
L 325.348684 155.836923 
L 325.454192 155.613507 
L 325.559465 155.390097 
L 325.664484 155.16668 
L 325.769269 154.943264 
L 325.87382 154.719848 
L 325.978117 154.496427 
L 326.082179 154.273011 
L 326.186007 154.049595 
L 326.289582 153.826173 
L 326.392922 153.602757 
L 326.496027 153.379336 
L 326.598879 153.155914 
" style="fill:none;stroke:#800080;stroke-linecap:square;stroke-width:1.5;"/>
   </g>
   <g id="line2d_39">
    <path clip-path="url(#paa6fda3686)" d="M 326.598879 153.155914 
L 326.72496 152.932557 
L 326.85059 152.7092 
L 326.975787 152.485842 
L 327.100568 152.262479 
L 327.224915 152.039117 
L 327.348829 151.815754 
L 327.47231 151.592391 
L 327.595375 151.369028 
L 327.718024 151.145666 
L 327.840258 150.922292 
L 327.962077 150.698929 
L 328.08348 150.475556 
L 328.204468 150.252182 
L 328.32504 150.028809 
L 328.445215 149.805436 
L 328.564974 149.582062 
L 328.684337 149.358689 
L 328.803301 149.135315 
L 328.921868 148.911931 
L 329.04002 148.688558 
L 329.157793 148.465174 
L 329.275168 148.24179 
L 329.392145 148.018406 
L 329.508744 147.795021 
L 329.624945 147.571637 
" style="fill:none;stroke:#800080;stroke-linecap:square;stroke-width:1.5;"/>
   </g>
   <g id="line2d_40">
    <path clip-path="url(#paa6fda3686)" d="M 329.624945 147.571637 
L 329.76703 147.348339 
L 329.908448 147.125029 
L 330.049215 146.90172 
L 330.189331 146.67841 
L 330.328798 146.455101 
L 330.467632 146.23178 
L 330.605852 146.00846 
L 330.743422 145.785151 
L 330.880377 145.56182 
L 331.016719 145.3385 
L 331.152446 145.11518 
L 331.28756 144.891849 
L 331.422077 144.668518 
L 331.55598 144.445187 
L 331.689304 144.221857 
L 331.822033 143.998526 
L 331.954166 143.775184 
L 332.085721 143.551843 
L 332.216698 143.328502 
L 332.347114 143.10516 
L 332.476953 142.881819 
L 332.606232 142.658477 
" style="fill:none;stroke:#800080;stroke-linecap:square;stroke-width:1.5;"/>
   </g>
   <g id="line2d_41">
    <path clip-path="url(#paa6fda3686)" d="M 332.606232 142.658477 
L 332.760763 142.43521 
L 332.914409 142.211954 
L 333.067206 141.988687 
L 333.219154 141.76542 
L 333.370235 141.542143 
L 333.520486 141.318876 
L 333.669905 141.095599 
L 333.818493 140.87231 
L 333.966269 140.649033 
L 334.113232 140.425745 
L 334.259399 140.202457 
L 334.404773 139.979158 
L 334.549369 139.75587 
L 334.693189 139.532571 
L 334.836232 139.309272 
L 334.978498 139.085963 
L 335.120024 138.862664 
L 335.260791 138.639354 
L 335.400835 138.416045 
L 335.540121 138.192725 
" style="fill:none;stroke:#800080;stroke-linecap:square;stroke-width:1.5;"/>
   </g>
   <g id="line2d_42">
    <path clip-path="url(#paa6fda3686)" d="M 335.540121 138.192725 
L 335.708488 137.969522 
L 335.8757 137.746319 
L 336.041792 137.523105 
L 336.206745 137.299881 
L 336.370615 137.076657 
L 336.533401 136.853433 
L 336.695086 136.630198 
L 336.855722 136.406963 
L 337.015311 136.183728 
L 337.173852 135.960483 
L 337.331364 135.737237 
L 337.487864 135.513981 
L 337.643353 135.290736 
L 337.797848 135.067469 
L 337.951367 134.844213 
L 338.10393 134.620946 
L 338.255499 134.397668 
L 338.406146 134.174401 
L 338.555836 133.951124 
" style="fill:none;stroke:#800080;stroke-linecap:square;stroke-width:1.5;"/>
   </g>
   <g id="line2d_43">
    <path clip-path="url(#paa6fda3686)" d="M 338.555836 133.951124 
L 338.73795 133.727974 
L 338.921491 133.504835 
L 339.107091 133.281707 
L 339.294786 133.05859 
L 339.484631 132.835483 
L 339.676716 132.612376 
L 339.871077 132.38929 
L 340.067804 132.166215 
L 340.266951 131.94314 
L 340.468627 131.720086 
L 340.672905 131.497054 
L 340.879856 131.274022 
L 341.089606 131.051011 
L 341.302229 130.82801 
L 341.517868 130.605031 
" style="fill:none;stroke:#800080;stroke-linecap:square;stroke-width:1.5;"/>
   </g>
   <g id="line2d_44">
    <path clip-path="url(#paa6fda3686)" d="M 341.517868 130.605031 
L 341.782838 130.38233 
L 342.053498 130.159681 
L 342.330209 129.937064 
L 342.613405 129.71449 
L 342.903537 129.49197 
L 343.201111 129.269502 
L 343.506741 129.047088 
L 343.821133 128.824749 
L 344.145061 128.602473 
L 344.479448 128.380294 
" style="fill:none;stroke:#800080;stroke-linecap:square;stroke-width:1.5;"/>
   </g>
   <g id="line2d_45">
    <path clip-path="url(#paa6fda3686)" d="M 344.479448 128.380294 
L 344.916507 128.159084 
L 345.380317 127.938163 
L 345.876551 127.717635 
L 346.413283 127.49762 
L 347.002452 127.278329 
" style="fill:none;stroke:#800080;stroke-linecap:square;stroke-width:1.5;"/>
   </g>
   <g id="line2d_46">
    <path clip-path="url(#paa6fda3686)" d="M 347.002452 127.278329 
L 347.820736 127.063089 
L 348.857386 126.853019 
" style="fill:none;stroke:#800080;stroke-linecap:square;stroke-width:1.5;"/>
   </g>
   <g id="line2d_47">
    <path clip-path="url(#paa6fda3686)" d="M 348.857386 126.853019 
L 350.685696 126.674736 
" style="fill:none;stroke:#800080;stroke-linecap:square;stroke-width:1.5;"/>
   </g>
   <g id="line2d_48">
    <path clip-path="url(#paa6fda3686)" d="M 350.685696 126.674736 
L 353.00482 126.818641 
" style="fill:none;stroke:#800080;stroke-linecap:square;stroke-width:1.5;"/>
   </g>
   <g id="line2d_49">
    <path clip-path="url(#paa6fda3686)" d="M 353.00482 126.818641 
L 353.824043 127.033871 
L 354.457232 127.252479 
L 354.990731 127.472538 
L 355.459003 127.693406 
L 355.880166 127.914786 
" style="fill:none;stroke:#800080;stroke-linecap:square;stroke-width:1.5;"/>
   </g>
   <g id="line2d_50">
    <path clip-path="url(#paa6fda3686)" d="M 355.880166 127.914786 
L 356.324305 128.135921 
L 356.726267 128.357493 
L 357.095335 128.579385 
L 357.437779 128.8015 
L 357.758094 129.023797 
L 358.059624 129.246232 
L 358.34497 129.468796 
L 358.616117 129.691444 
L 358.874747 129.914178 
" style="fill:none;stroke:#800080;stroke-linecap:square;stroke-width:1.5;"/>
   </g>
   <g id="line2d_51">
    <path clip-path="url(#paa6fda3686)" d="M 358.874747 129.914178 
L 359.167517 130.136688 
L 359.444643 130.359294 
L 359.708096 130.581996 
L 359.959446 130.804783 
L 360.199958 131.027624 
L 360.430735 131.250528 
L 360.65266 131.473475 
L 360.866529 131.696465 
L 361.072992 131.919497 
L 361.272645 132.142561 
L 361.465976 132.365658 
L 361.653437 132.588775 
L 361.83546 132.811925 
" style="fill:none;stroke:#800080;stroke-linecap:square;stroke-width:1.5;"/>
   </g>
   <g id="line2d_52">
    <path clip-path="url(#paa6fda3686)" d="M 361.83546 132.811925 
L 362.041345 133.034957 
L 362.240186 133.258021 
L 362.432541 133.481118 
L 362.618864 133.704246 
L 362.799605 133.927395 
L 362.975125 134.150577 
L 363.145751 134.373769 
L 363.311789 134.596983 
L 363.473509 134.820218 
L 363.631165 135.043463 
L 363.784974 135.266719 
L 363.935152 135.489997 
L 364.081861 135.713285 
L 364.225284 135.936584 
L 364.365581 136.159893 
L 364.502898 136.383213 
L 364.637361 136.606544 
L 364.769096 136.829875 
" style="fill:none;stroke:#800080;stroke-linecap:square;stroke-width:1.5;"/>
   </g>
   <g id="line2d_53">
    <path clip-path="url(#paa6fda3686)" d="M 364.769096 136.829875 
L 364.930022 137.05311 
L 365.086667 137.276366 
L 365.239265 137.499633 
L 365.38807 137.72291 
L 365.533263 137.946198 
L 365.675041 138.169508 
L 365.813586 138.392828 
L 365.949043 138.616148 
L 366.081573 138.83949 
L 366.211321 139.062831 
L 366.338378 139.286183 
L 366.46287 139.509546 
L 366.584924 139.732909 
L 366.704629 139.956282 
L 366.822076 140.179666 
L 366.938169 140.40305 
L 367.054316 140.626434 
L 367.170553 140.849829 
L 367.286862 141.073213 
L 367.403262 141.296597 
L 367.519734 141.519982 
L 367.636278 141.743366 
L 367.752894 141.96675 
" style="fill:none;stroke:#800080;stroke-linecap:square;stroke-width:1.5;"/>
   </g>
   <g id="line2d_54">
    <path clip-path="url(#paa6fda3686)" d="M 367.752894 141.96675 
L 367.898195 142.190038 
L 368.043695 142.413326 
L 368.189411 142.636625 
L 368.335326 142.859913 
L 368.481458 143.083201 
L 368.627806 143.306489 
L 368.774354 143.529777 
L 368.921099 143.753066 
L 369.068062 143.976354 
L 369.215224 144.199642 
L 369.362602 144.422919 
L 369.510179 144.646208 
L 369.657972 144.869496 
L 369.805946 145.092773 
L 369.954137 145.316051 
L 370.102545 145.539339 
L 370.251133 145.762616 
L 370.399939 145.985894 
L 370.548942 146.209182 
L 370.698145 146.432459 
" style="fill:none;stroke:#800080;stroke-linecap:square;stroke-width:1.5;"/>
   </g>
   <g id="line2d_55">
    <path clip-path="url(#paa6fda3686)" d="M 370.698145 146.432459 
L 370.930944 146.209566 
L 371.16508 145.986683 
L 371.400571 145.76381 
L 371.637417 145.540948 
L 371.875617 145.318087 
L 372.115208 145.095236 
L 372.356154 144.872395 
L 372.59849 144.649565 
L 372.842236 144.426736 
L 373.087354 144.203916 
L 373.333882 143.981108 
L 373.581818 143.75831 
" style="fill:none;stroke:#800080;stroke-linecap:square;stroke-width:1.5;"/>
   </g>
   <g id="patch_3">
    <path d="M 54 252 
L 54 34.56 
" style="fill:none;stroke:#000000;stroke-linecap:square;stroke-linejoin:miter;stroke-width:0.8;"/>
   </g>
   <g id="patch_4">
    <path d="M 388.8 252 
L 388.8 34.56 
" style="fill:none;stroke:#000000;stroke-linecap:square;stroke-linejoin:miter;stroke-width:0.8;"/>
   </g>
   <g id="patch_5">
    <path d="M 54 252 
L 388.8 252 
" style="fill:none;stroke:#000000;stroke-linecap:square;stroke-linejoin:miter;stroke-width:0.8;"/>
   </g>
   <g id="patch_6">
    <path d="M 54 34.56 
L 388.8 34.56 
" style="fill:none;stroke:#000000;stroke-linecap:square;stroke-linejoin:miter;stroke-width:0.8;"/>
   </g>
   <g id="text_14">
    <!-- controller -->
    <defs>
     <path d="M 48.78125 52.59375 
L 48.78125 44.1875 
Q 44.96875 46.296875 41.140625 47.34375 
Q 37.3125 48.390625 33.40625 48.390625 
Q 24.65625 48.390625 19.8125 42.84375 
Q 14.984375 37.3125 14.984375 27.296875 
Q 14.984375 17.28125 19.8125 11.734375 
Q 24.65625 6.203125 33.40625 6.203125 
Q 37.3125 6.203125 41.140625 7.25 
Q 44.96875 8.296875 48.78125 10.40625 
L 48.78125 2.09375 
Q 45.015625 0.34375 40.984375 -0.53125 
Q 36.96875 -1.421875 32.421875 -1.421875 
Q 20.0625 -1.421875 12.78125 6.34375 
Q 5.515625 14.109375 5.515625 27.296875 
Q 5.515625 40.671875 12.859375 48.328125 
Q 20.21875 56 33.015625 56 
Q 37.15625 56 41.109375 55.140625 
Q 45.0625 54.296875 48.78125 52.59375 
z
" id="DejaVuSans-99"/>
     <path d="M 30.609375 48.390625 
Q 23.390625 48.390625 19.1875 42.75 
Q 14.984375 37.109375 14.984375 27.296875 
Q 14.984375 17.484375 19.15625 11.84375 
Q 23.34375 6.203125 30.609375 6.203125 
Q 37.796875 6.203125 41.984375 11.859375 
Q 46.1875 17.53125 46.1875 27.296875 
Q 46.1875 37.015625 41.984375 42.703125 
Q 37.796875 48.390625 30.609375 48.390625 
z
M 30.609375 56 
Q 42.328125 56 49.015625 48.375 
Q 55.71875 40.765625 55.71875 27.296875 
Q 55.71875 13.875 49.015625 6.21875 
Q 42.328125 -1.421875 30.609375 -1.421875 
Q 18.84375 -1.421875 12.171875 6.21875 
Q 5.515625 13.875 5.515625 27.296875 
Q 5.515625 40.765625 12.171875 48.375 
Q 18.84375 56 30.609375 56 
z
" id="DejaVuSans-111"/>
     <path d="M 54.890625 33.015625 
L 54.890625 0 
L 45.90625 0 
L 45.90625 32.71875 
Q 45.90625 40.484375 42.875 44.328125 
Q 39.84375 48.1875 33.796875 48.1875 
Q 26.515625 48.1875 22.3125 43.546875 
Q 18.109375 38.921875 18.109375 30.90625 
L 18.109375 0 
L 9.078125 0 
L 9.078125 54.6875 
L 18.109375 54.6875 
L 18.109375 46.1875 
Q 21.34375 51.125 25.703125 53.5625 
Q 30.078125 56 35.796875 56 
Q 45.21875 56 50.046875 50.171875 
Q 54.890625 44.34375 54.890625 33.015625 
z
" id="DejaVuSans-110"/>
     <path d="M 18.3125 70.21875 
L 18.3125 54.6875 
L 36.8125 54.6875 
L 36.8125 47.703125 
L 18.3125 47.703125 
L 18.3125 18.015625 
Q 18.3125 11.328125 20.140625 9.421875 
Q 21.96875 7.515625 27.59375 7.515625 
L 36.8125 7.515625 
L 36.8125 0 
L 27.59375 0 
Q 17.1875 0 13.234375 3.875 
Q 9.28125 7.765625 9.28125 18.015625 
L 9.28125 47.703125 
L 2.6875 47.703125 
L 2.6875 54.6875 
L 9.28125 54.6875 
L 9.28125 70.21875 
z
" id="DejaVuSans-116"/>
     <path d="M 41.109375 46.296875 
Q 39.59375 47.171875 37.8125 47.578125 
Q 36.03125 48 33.890625 48 
Q 26.265625 48 22.1875 43.046875 
Q 18.109375 38.09375 18.109375 28.8125 
L 18.109375 0 
L 9.078125 0 
L 9.078125 54.6875 
L 18.109375 54.6875 
L 18.109375 46.1875 
Q 20.953125 51.171875 25.484375 53.578125 
Q 30.03125 56 36.53125 56 
Q 37.453125 56 38.578125 55.875 
Q 39.703125 55.765625 41.0625 55.515625 
z
" id="DejaVuSans-114"/>
     <path d="M 9.421875 75.984375 
L 18.40625 75.984375 
L 18.40625 0 
L 9.421875 0 
z
" id="DejaVuSans-108"/>
     <path d="M 56.203125 29.59375 
L 56.203125 25.203125 
L 14.890625 25.203125 
Q 15.484375 15.921875 20.484375 11.0625 
Q 25.484375 6.203125 34.421875 6.203125 
Q 39.59375 6.203125 44.453125 7.46875 
Q 49.3125 8.734375 54.109375 11.28125 
L 54.109375 2.78125 
Q 49.265625 0.734375 44.1875 -0.34375 
Q 39.109375 -1.421875 33.890625 -1.421875 
Q 20.796875 -1.421875 13.15625 6.1875 
Q 5.515625 13.8125 5.515625 26.8125 
Q 5.515625 40.234375 12.765625 48.109375 
Q 20.015625 56 32.328125 56 
Q 43.359375 56 49.78125 48.890625 
Q 56.203125 41.796875 56.203125 29.59375 
z
M 47.21875 32.234375 
Q 47.125 39.59375 43.09375 43.984375 
Q 39.0625 48.390625 32.421875 48.390625 
Q 24.90625 48.390625 20.390625 44.140625 
Q 15.875 39.890625 15.1875 32.171875 
z
" id="DejaVuSans-101"/>
    </defs>
    <g transform="translate(192.646875 28.56)scale(0.12 -0.12)">
     <use xlink:href="#DejaVuSans-99"/>
     <use x="54.980469" xlink:href="#DejaVuSans-111"/>
     <use x="116.162109" xlink:href="#DejaVuSans-110"/>
     <use x="179.541016" xlink:href="#DejaVuSans-116"/>
     <use x="218.75" xlink:href="#DejaVuSans-114"/>
     <use x="259.832031" xlink:href="#DejaVuSans-111"/>
     <use x="321.013672" xlink:href="#DejaVuSans-108"/>
     <use x="348.796875" xlink:href="#DejaVuSans-108"/>
     <use x="376.580078" xlink:href="#DejaVuSans-101"/>
     <use x="438.103516" xlink:href="#DejaVuSans-114"/>
    </g>
   </g>
  </g>
 </g>
 <defs>
  <clipPath id="paa6fda3686">
   <rect height="217.44" width="334.8" x="54" y="34.56"/>
  </clipPath>
 </defs>
</svg>
