<?xml version="1.0" encoding="utf-8" standalone="no"?>
<!DOCTYPE svg PUBLIC "-//W3C//DTD SVG 1.1//EN"
  "http://www.w3.org/Graphics/SVG/1.1/DTD/svg11.dtd">
<!-- Created with matplotlib (https://matplotlib.org/) -->
<svg height="288pt" version="1.1" viewBox="0 0 432 288" width="432pt" xmlns="http://www.w3.org/2000/svg" xmlns:xlink="http://www.w3.org/1999/xlink">
 <defs>
  <style type="text/css">
*{stroke-linecap:butt;stroke-linejoin:round;}
  </style>
 </defs>
 <g id="figure_1">
  <g id="patch_1">
   <path d="M 0 288 
L 432 288 
L 432 0 
L 0 0 
z
" style="fill:#ffffff;"/>
  </g>
  <g id="axes_1">
   <g id="patch_2">
    <path d="M 54 252 
L 388.8 252 
L 388.8 34.56 
L 54 34.56 
z
" style="fill:#ffffff;"/>
   </g>
   <g id="matplotlib.axis_1">
    <g id="xtick_1">
     <g id="line2d_1">
      <path clip-path="url(#p12e8813b87)" d="M 69.218182 252 
L 69.218182 34.56 
" style="fill:none;stroke:#b0b0b0;stroke-linecap:square;stroke-width:0.8;"/>
     </g>
     <g id="line2d_2">
      <defs>
       <path d="M 0 0 
L 0 3.5 
" id="m11450032d6" style="stroke:#000000;stroke-width:0.8;"/>
      </defs>
      <g>
       <use style="stroke:#000000;stroke-width:0.8;" x="69.218182" xlink:href="#m11450032d6" y="252"/>
      </g>
     </g>
     <g id="text_1">
      <!-- 0.0 -->
      <defs>
       <path d="M 31.78125 66.40625 
Q 24.171875 66.40625 20.328125 58.90625 
Q 16.5 51.421875 16.5 36.375 
Q 16.5 21.390625 20.328125 13.890625 
Q 24.171875 6.390625 31.78125 6.390625 
Q 39.453125 6.390625 43.28125 13.890625 
Q 47.125 21.390625 47.125 36.375 
Q 47.125 51.421875 43.28125 58.90625 
Q 39.453125 66.40625 31.78125 66.40625 
z
M 31.78125 74.21875 
Q 44.046875 74.21875 50.515625 64.515625 
Q 56.984375 54.828125 56.984375 36.375 
Q 56.984375 17.96875 50.515625 8.265625 
Q 44.046875 -1.421875 31.78125 -1.421875 
Q 19.53125 -1.421875 13.0625 8.265625 
Q 6.59375 17.96875 6.59375 36.375 
Q 6.59375 54.828125 13.0625 64.515625 
Q 19.53125 74.21875 31.78125 74.21875 
z
" id="DejaVuSans-48"/>
       <path d="M 10.6875 12.40625 
L 21 12.40625 
L 21 0 
L 10.6875 0 
z
" id="DejaVuSans-46"/>
      </defs>
      <g transform="translate(61.266619 266.598437)scale(0.1 -0.1)">
       <use xlink:href="#DejaVuSans-48"/>
       <use x="63.623047" xlink:href="#DejaVuSans-46"/>
       <use x="95.410156" xlink:href="#DejaVuSans-48"/>
      </g>
     </g>
    </g>
    <g id="xtick_2">
     <g id="line2d_3">
      <path clip-path="url(#p12e8813b87)" d="M 129.903801 252 
L 129.903801 34.56 
" style="fill:none;stroke:#b0b0b0;stroke-linecap:square;stroke-width:0.8;"/>
     </g>
     <g id="line2d_4">
      <g>
       <use style="stroke:#000000;stroke-width:0.8;" x="129.903801" xlink:href="#m11450032d6" y="252"/>
      </g>
     </g>
     <g id="text_2">
      <!-- 0.2 -->
      <defs>
       <path d="M 19.1875 8.296875 
L 53.609375 8.296875 
L 53.609375 0 
L 7.328125 0 
L 7.328125 8.296875 
Q 12.9375 14.109375 22.625 23.890625 
Q 32.328125 33.6875 34.8125 36.53125 
Q 39.546875 41.84375 41.421875 45.53125 
Q 43.3125 49.21875 43.3125 52.78125 
Q 43.3125 58.59375 39.234375 62.25 
Q 35.15625 65.921875 28.609375 65.921875 
Q 23.96875 65.921875 18.8125 64.3125 
Q 13.671875 62.703125 7.8125 59.421875 
L 7.8125 69.390625 
Q 13.765625 71.78125 18.9375 73 
Q 24.125 74.21875 28.421875 74.21875 
Q 39.75 74.21875 46.484375 68.546875 
Q 53.21875 62.890625 53.21875 53.421875 
Q 53.21875 48.921875 51.53125 44.890625 
Q 49.859375 40.875 45.40625 35.40625 
Q 44.1875 33.984375 37.640625 27.21875 
Q 31.109375 20.453125 19.1875 8.296875 
z
" id="DejaVuSans-50"/>
      </defs>
      <g transform="translate(121.952239 266.598437)scale(0.1 -0.1)">
       <use xlink:href="#DejaVuSans-48"/>
       <use x="63.623047" xlink:href="#DejaVuSans-46"/>
       <use x="95.410156" xlink:href="#DejaVuSans-50"/>
      </g>
     </g>
    </g>
    <g id="xtick_3">
     <g id="line2d_5">
      <path clip-path="url(#p12e8813b87)" d="M 190.589421 252 
L 190.589421 34.56 
" style="fill:none;stroke:#b0b0b0;stroke-linecap:square;stroke-width:0.8;"/>
     </g>
     <g id="line2d_6">
      <g>
       <use style="stroke:#000000;stroke-width:0.8;" x="190.589421" xlink:href="#m11450032d6" y="252"/>
      </g>
     </g>
     <g id="text_3">
      <!-- 0.4 -->
      <defs>
       <path d="M 37.796875 64.3125 
L 12.890625 25.390625 
L 37.796875 25.390625 
z
M 35.203125 72.90625 
L 47.609375 72.90625 
L 47.609375 25.390625 
L 58.015625 25.390625 
L 58.015625 17.1875 
L 47.609375 17.1875 
L 47.609375 0 
L 37.796875 0 
L 37.796875 17.1875 
L 4.890625 17.1875 
L 4.890625 26.703125 
z
" id="DejaVuSans-52"/>
      </defs>
      <g transform="translate(182.637859 266.598437)scale(0.1 -0.1)">
       <use xlink:href="#DejaVuSans-48"/>
       <use x="63.623047" xlink:href="#DejaVuSans-46"/>
       <use x="95.410156" xlink:href="#DejaVuSans-52"/>
      </g>
     </g>
    </g>
    <g id="xtick_4">
     <g id="line2d_7">
      <path clip-path="url(#p12e8813b87)" d="M 251.275041 252 
L 251.275041 34.56 
" style="fill:none;stroke:#b0b0b0;stroke-linecap:square;stroke-width:0.8;"/>
     </g>
     <g id="line2d_8">
      <g>
       <use style="stroke:#000000;stroke-width:0.8;" x="251.275041" xlink:href="#m11450032d6" y="252"/>
      </g>
     </g>
     <g id="text_4">
      <!-- 0.6 -->
      <defs>
       <path d="M 33.015625 40.375 
Q 26.375 40.375 22.484375 35.828125 
Q 18.609375 31.296875 18.609375 23.390625 
Q 18.609375 15.53125 22.484375 10.953125 
Q 26.375 6.390625 33.015625 6.390625 
Q 39.65625 6.390625 43.53125 10.953125 
Q 47.40625 15.53125 47.40625 23.390625 
Q 47.40625 31.296875 43.53125 35.828125 
Q 39.65625 40.375 33.015625 40.375 
z
M 52.59375 71.296875 
L 52.59375 62.3125 
Q 48.875 64.0625 45.09375 64.984375 
Q 41.3125 65.921875 37.59375 65.921875 
Q 27.828125 65.921875 22.671875 59.328125 
Q 17.53125 52.734375 16.796875 39.40625 
Q 19.671875 43.65625 24.015625 45.921875 
Q 28.375 48.1875 33.59375 48.1875 
Q 44.578125 48.1875 50.953125 41.515625 
Q 57.328125 34.859375 57.328125 23.390625 
Q 57.328125 12.15625 50.6875 5.359375 
Q 44.046875 -1.421875 33.015625 -1.421875 
Q 20.359375 -1.421875 13.671875 8.265625 
Q 6.984375 17.96875 6.984375 36.375 
Q 6.984375 53.65625 15.1875 63.9375 
Q 23.390625 74.21875 37.203125 74.21875 
Q 40.921875 74.21875 44.703125 73.484375 
Q 48.484375 72.75 52.59375 71.296875 
z
" id="DejaVuSans-54"/>
      </defs>
      <g transform="translate(243.323478 266.598437)scale(0.1 -0.1)">
       <use xlink:href="#DejaVuSans-48"/>
       <use x="63.623047" xlink:href="#DejaVuSans-46"/>
       <use x="95.410156" xlink:href="#DejaVuSans-54"/>
      </g>
     </g>
    </g>
    <g id="xtick_5">
     <g id="line2d_9">
      <path clip-path="url(#p12e8813b87)" d="M 311.96066 252 
L 311.96066 34.56 
" style="fill:none;stroke:#b0b0b0;stroke-linecap:square;stroke-width:0.8;"/>
     </g>
     <g id="line2d_10">
      <g>
       <use style="stroke:#000000;stroke-width:0.8;" x="311.96066" xlink:href="#m11450032d6" y="252"/>
      </g>
     </g>
     <g id="text_5">
      <!-- 0.8 -->
      <defs>
       <path d="M 31.78125 34.625 
Q 24.75 34.625 20.71875 30.859375 
Q 16.703125 27.09375 16.703125 20.515625 
Q 16.703125 13.921875 20.71875 10.15625 
Q 24.75 6.390625 31.78125 6.390625 
Q 38.8125 6.390625 42.859375 10.171875 
Q 46.921875 13.96875 46.921875 20.515625 
Q 46.921875 27.09375 42.890625 30.859375 
Q 38.875 34.625 31.78125 34.625 
z
M 21.921875 38.8125 
Q 15.578125 40.375 12.03125 44.71875 
Q 8.5 49.078125 8.5 55.328125 
Q 8.5 64.0625 14.71875 69.140625 
Q 20.953125 74.21875 31.78125 74.21875 
Q 42.671875 74.21875 48.875 69.140625 
Q 55.078125 64.0625 55.078125 55.328125 
Q 55.078125 49.078125 51.53125 44.71875 
Q 48 40.375 41.703125 38.8125 
Q 48.828125 37.15625 52.796875 32.3125 
Q 56.78125 27.484375 56.78125 20.515625 
Q 56.78125 9.90625 50.3125 4.234375 
Q 43.84375 -1.421875 31.78125 -1.421875 
Q 19.734375 -1.421875 13.25 4.234375 
Q 6.78125 9.90625 6.78125 20.515625 
Q 6.78125 27.484375 10.78125 32.3125 
Q 14.796875 37.15625 21.921875 38.8125 
z
M 18.3125 54.390625 
Q 18.3125 48.734375 21.84375 45.5625 
Q 25.390625 42.390625 31.78125 42.390625 
Q 38.140625 42.390625 41.71875 45.5625 
Q 45.3125 48.734375 45.3125 54.390625 
Q 45.3125 60.0625 41.71875 63.234375 
Q 38.140625 66.40625 31.78125 66.40625 
Q 25.390625 66.40625 21.84375 63.234375 
Q 18.3125 60.0625 18.3125 54.390625 
z
" id="DejaVuSans-56"/>
      </defs>
      <g transform="translate(304.009098 266.598437)scale(0.1 -0.1)">
       <use xlink:href="#DejaVuSans-48"/>
       <use x="63.623047" xlink:href="#DejaVuSans-46"/>
       <use x="95.410156" xlink:href="#DejaVuSans-56"/>
      </g>
     </g>
    </g>
    <g id="xtick_6">
     <g id="line2d_11">
      <path clip-path="url(#p12e8813b87)" d="M 372.64628 252 
L 372.64628 34.56 
" style="fill:none;stroke:#b0b0b0;stroke-linecap:square;stroke-width:0.8;"/>
     </g>
     <g id="line2d_12">
      <g>
       <use style="stroke:#000000;stroke-width:0.8;" x="372.64628" xlink:href="#m11450032d6" y="252"/>
      </g>
     </g>
     <g id="text_6">
      <!-- 1.0 -->
      <defs>
       <path d="M 12.40625 8.296875 
L 28.515625 8.296875 
L 28.515625 63.921875 
L 10.984375 60.40625 
L 10.984375 69.390625 
L 28.421875 72.90625 
L 38.28125 72.90625 
L 38.28125 8.296875 
L 54.390625 8.296875 
L 54.390625 0 
L 12.40625 0 
z
" id="DejaVuSans-49"/>
      </defs>
      <g transform="translate(364.694717 266.598437)scale(0.1 -0.1)">
       <use xlink:href="#DejaVuSans-49"/>
       <use x="63.623047" xlink:href="#DejaVuSans-46"/>
       <use x="95.410156" xlink:href="#DejaVuSans-48"/>
      </g>
     </g>
    </g>
    <g id="text_7">
     <!-- $x_1$ -->
     <defs>
      <path d="M 60.015625 54.6875 
L 34.90625 27.875 
L 50.296875 0 
L 39.984375 0 
L 28.421875 21.6875 
L 8.296875 0 
L -2.59375 0 
L 24.3125 28.8125 
L 10.015625 54.6875 
L 20.3125 54.6875 
L 30.8125 34.90625 
L 49.125 54.6875 
z
" id="DejaVuSans-Oblique-120"/>
     </defs>
     <g transform="translate(216.05 280.276563)scale(0.1 -0.1)">
      <use transform="translate(0 0.3125)" xlink:href="#DejaVuSans-Oblique-120"/>
      <use transform="translate(59.179688 -16.09375)scale(0.7)" xlink:href="#DejaVuSans-49"/>
     </g>
    </g>
   </g>
   <g id="matplotlib.axis_2">
    <g id="ytick_1">
     <g id="line2d_13">
      <path clip-path="url(#p12e8813b87)" d="M 54 242.116364 
L 388.8 242.116364 
" style="fill:none;stroke:#b0b0b0;stroke-linecap:square;stroke-width:0.8;"/>
     </g>
     <g id="line2d_14">
      <defs>
       <path d="M 0 0 
L -3.5 0 
" id="m986337eb6b" style="stroke:#000000;stroke-width:0.8;"/>
      </defs>
      <g>
       <use style="stroke:#000000;stroke-width:0.8;" x="54" xlink:href="#m986337eb6b" y="242.116364"/>
      </g>
     </g>
     <g id="text_8">
      <!-- 0 -->
      <g transform="translate(40.6375 245.915582)scale(0.1 -0.1)">
       <use xlink:href="#DejaVuSans-48"/>
      </g>
     </g>
    </g>
    <g id="ytick_2">
     <g id="line2d_15">
      <path clip-path="url(#p12e8813b87)" d="M 54 197.406458 
L 388.8 197.406458 
" style="fill:none;stroke:#b0b0b0;stroke-linecap:square;stroke-width:0.8;"/>
     </g>
     <g id="line2d_16">
      <g>
       <use style="stroke:#000000;stroke-width:0.8;" x="54" xlink:href="#m986337eb6b" y="197.406458"/>
      </g>
     </g>
     <g id="text_9">
      <!-- 2 -->
      <g transform="translate(40.6375 201.205677)scale(0.1 -0.1)">
       <use xlink:href="#DejaVuSans-50"/>
      </g>
     </g>
    </g>
    <g id="ytick_3">
     <g id="line2d_17">
      <path clip-path="url(#p12e8813b87)" d="M 54 152.696552 
L 388.8 152.696552 
" style="fill:none;stroke:#b0b0b0;stroke-linecap:square;stroke-width:0.8;"/>
     </g>
     <g id="line2d_18">
      <g>
       <use style="stroke:#000000;stroke-width:0.8;" x="54" xlink:href="#m986337eb6b" y="152.696552"/>
      </g>
     </g>
     <g id="text_10">
      <!-- 4 -->
      <g transform="translate(40.6375 156.495771)scale(0.1 -0.1)">
       <use xlink:href="#DejaVuSans-52"/>
      </g>
     </g>
    </g>
    <g id="ytick_4">
     <g id="line2d_19">
      <path clip-path="url(#p12e8813b87)" d="M 54 107.986646 
L 388.8 107.986646 
" style="fill:none;stroke:#b0b0b0;stroke-linecap:square;stroke-width:0.8;"/>
     </g>
     <g id="line2d_20">
      <g>
       <use style="stroke:#000000;stroke-width:0.8;" x="54" xlink:href="#m986337eb6b" y="107.986646"/>
      </g>
     </g>
     <g id="text_11">
      <!-- 6 -->
      <g transform="translate(40.6375 111.785865)scale(0.1 -0.1)">
       <use xlink:href="#DejaVuSans-54"/>
      </g>
     </g>
    </g>
    <g id="ytick_5">
     <g id="line2d_21">
      <path clip-path="url(#p12e8813b87)" d="M 54 63.27674 
L 388.8 63.27674 
" style="fill:none;stroke:#b0b0b0;stroke-linecap:square;stroke-width:0.8;"/>
     </g>
     <g id="line2d_22">
      <g>
       <use style="stroke:#000000;stroke-width:0.8;" x="54" xlink:href="#m986337eb6b" y="63.27674"/>
      </g>
     </g>
     <g id="text_12">
      <!-- 8 -->
      <g transform="translate(40.6375 67.075959)scale(0.1 -0.1)">
       <use xlink:href="#DejaVuSans-56"/>
      </g>
     </g>
    </g>
    <g id="text_13">
     <!-- $x_2$ -->
     <g transform="translate(34.557813 148.63)rotate(-90)scale(0.1 -0.1)">
      <use transform="translate(0 0.3125)" xlink:href="#DejaVuSans-Oblique-120"/>
      <use transform="translate(59.179688 -16.09375)scale(0.7)" xlink:href="#DejaVuSans-50"/>
     </g>
    </g>
   </g>
   <g id="line2d_23">
    <path clip-path="url(#p12e8813b87)" d="M 303.688073 46.208793 
L 318.848811 46.1669 
L 330.509545 45.451849 
L 340.225938 44.593405 
L 355.260546 44.443636 
L 361.83599 45.450933 
L 365.258877 46.539861 
L 367.53936 47.644928 
L 369.238893 48.755623 
L 370.587365 49.868962 
L 371.700921 50.983686 
L 372.64628 52.099264 
" style="fill:none;stroke:#ffa500;stroke-linecap:square;stroke-width:1.5;"/>
   </g>
   <g id="line2d_24">
    <path clip-path="url(#p12e8813b87)" d="M 370.338234 242.116055 
L 370.339645 240.998308 
L 370.342466 239.88056 
L 370.346698 238.762812 
L 370.352359 237.645065 
L 370.359412 236.527318 
L 370.367895 235.40957 
L 370.377787 234.291822 
L 370.389109 233.174075 
L 370.401823 232.056328 
L 370.415966 230.938581 
L 370.431538 229.820834 
L 370.448521 228.703086 
L 370.466932 227.58534 
L 370.486772 226.467593 
L 370.508023 225.349846 
L 370.530702 224.2321 
L 370.554811 223.114355 
L 370.580366 221.996608 
L 370.60735 220.878863 
L 370.635762 219.761118 
L 370.665604 218.643371 
L 370.69691 217.525627 
L 370.729645 216.40788 
L 370.763827 215.290137 
L 370.799474 214.172393 
L 370.83655 213.054646 
L 370.875109 211.936902 
L 370.915114 210.819158 
L 370.956585 209.701417 
L 370.99952 208.583673 
L 371.043921 207.465929 
L 371.089804 206.348188 
L 371.137171 205.230444 
L 371.18602 204.112703 
L 371.236353 202.994961 
L 371.288169 201.87722 
L 371.341503 200.759479 
L 371.396321 199.64174 
L 371.452658 198.523999 
L 371.510496 197.406261 
L 371.569854 196.288519 
L 371.63073 195.170783 
L 371.693144 194.053042 
L 371.757095 192.935306 
L 371.822566 191.81757 
L 371.889591 190.699834 
L 371.958172 189.582098 
L 372.028309 188.464363 
L 372.100019 187.346627 
L 372.173284 186.228891 
L 372.248141 185.111155 
L 372.324571 183.993424 
L 372.402593 182.875688 
L 372.482206 181.757958 
L 372.563447 180.640227 
L 372.64628 179.522496 
" style="fill:none;stroke:#ffa500;stroke-linecap:square;stroke-width:1.5;"/>
   </g>
   <g id="line2d_25">
    <path clip-path="url(#p12e8813b87)" d="M 69.218182 242.116364 
L 72.259798 242.116364 
L 75.301415 242.116364 
L 78.343031 242.116364 
L 81.384648 242.116364 
L 84.426265 242.116364 
L 87.467881 242.116364 
L 90.509499 242.116364 
L 93.551115 242.116364 
L 96.592731 242.116364 
L 99.634348 242.116364 
L 102.675964 242.116364 
L 105.717581 242.116364 
L 108.759199 242.116364 
L 111.800816 242.116364 
L 114.842432 242.116364 
L 117.884048 242.116364 
L 120.925665 242.116364 
L 123.967281 242.116364 
L 127.008897 242.116364 
L 130.050514 242.116364 
L 133.09213 242.116364 
L 136.133746 242.116364 
L 139.175363 242.116364 
L 142.216979 242.116364 
L 145.258596 242.116364 
L 148.300216 242.116364 
L 151.341828 242.116364 
L 154.383449 242.116364 
L 157.425061 242.116364 
L 160.466682 242.116364 
L 163.508294 242.116364 
L 166.549915 242.116364 
L 169.591527 242.116364 
L 172.633147 242.116364 
L 175.674759 242.116364 
L 178.71638 242.116364 
L 181.758001 242.116364 
L 184.799613 242.116364 
L 187.841234 242.116364 
L 190.882846 242.116364 
L 193.924467 242.116364 
L 196.966078 242.116364 
L 200.007699 242.116364 
L 203.049311 242.116364 
L 206.090932 242.116364 
L 209.132544 242.116364 
L 212.174165 242.116364 
L 215.215777 242.116364 
L 218.257397 242.116364 
L 221.299009 242.116364 
L 224.34063 242.116364 
L 227.382251 242.116364 
L 230.423854 242.116364 
L 233.465475 242.116364 
L 236.507096 242.116364 
L 239.548717 242.116364 
L 242.590337 242.116364 
L 245.63194 242.116364 
L 248.673561 242.116364 
L 251.715182 242.116364 
L 254.756803 242.116364 
L 257.798406 242.116364 
L 260.840027 242.116364 
L 263.881648 242.116364 
L 266.923268 242.116364 
L 269.964871 242.116364 
L 273.006492 242.116364 
L 276.048113 242.116364 
L 279.089734 242.116364 
L 282.131337 242.116364 
L 285.172958 242.116364 
L 288.214578 242.116364 
L 291.256199 242.116364 
L 294.29782 242.116364 
L 297.339423 242.116364 
L 300.381044 242.116364 
L 303.422665 242.116364 
L 306.464286 242.116364 
L 309.505889 242.116364 
L 312.547509 242.116364 
L 315.58913 242.116364 
L 318.630751 242.116364 
L 321.672354 242.116364 
L 324.713975 242.116364 
L 327.755596 242.116364 
L 330.797217 242.116364 
L 333.838819 242.116364 
L 336.88044 242.116364 
L 339.922061 242.116364 
L 342.963682 242.116364 
L 346.005303 242.116364 
L 349.046906 242.116364 
L 352.088527 242.116364 
L 355.130148 242.116364 
L 358.171769 242.116364 
L 361.213371 242.116364 
L 364.254992 242.116364 
L 367.296613 242.116364 
L 370.338234 242.116364 
" style="fill:none;stroke:#ffa500;stroke-linecap:square;stroke-width:1.5;"/>
   </g>
   <g id="line2d_26">
    <path clip-path="url(#p12e8813b87)" d="M 287.686421 69.214775 
L 290.720699 71.834496 
L 293.754977 71.834496 
L 296.789255 69.214775 
L 299.823533 60.154906 
L 302.857812 48.257006 
L 303.688073 46.208793 
" style="fill:none;stroke:#ffa500;stroke-linecap:square;stroke-width:1.5;"/>
   </g>
   <g id="line2d_27">
    <path clip-path="url(#p12e8813b87)" d="M 287.686421 91.569727 
L 287.532132 91.346471 
L 287.377607 91.123204 
L 287.222848 90.899948 
L 287.067871 90.676692 
L 286.912678 90.453436 
L 286.757267 90.23018 
L 286.601676 90.006924 
L 286.445867 89.783667 
L 286.289878 89.560411 
L 286.133726 89.337166 
L 285.977374 89.11391 
L 285.820879 88.890653 
L 285.664238 88.667408 
L 285.507435 88.444152 
L 285.350487 88.220906 
L 285.193431 87.99765 
L 285.03623 87.774404 
L 284.87892 87.551159 
L 284.721502 87.327903 
L 284.563993 87.104657 
L 284.406394 86.881412 
L 284.248723 86.658166 
L 284.090961 86.434921 
L 283.933145 86.211665 
L 283.775257 85.988419 
L 283.617332 85.765174 
L 283.459371 85.541928 
L 283.301375 85.318683 
L 283.14336 85.095437 
L 282.985308 84.872191 
L 282.827275 84.648946 
L 282.669224 84.4257 
L 282.511191 84.202455 
L 282.353176 83.979209 
L 282.195197 83.755964 
L 282.037237 83.532718 
L 281.879312 83.309473 
L 281.72146 83.086217 
L 281.563644 82.862971 
L 281.405918 82.639726 
L 281.248247 82.41648 
L 281.090666 82.193235 
L 280.933176 81.969978 
L 280.775776 81.746733 
L 280.618484 81.523487 
L 280.461301 81.300231 
L 280.304245 81.076986 
L 280.147315 80.85374 
L 279.99053 80.630484 
L 279.833871 80.407239 
L 279.677375 80.183982 
L 279.521024 79.960726 
L 279.364854 79.737481 
L 279.208846 79.514224 
L 279.05302 79.290968 
L 278.897374 79.067712 
L 278.741927 78.844456 
L 278.586661 78.6212 
" style="fill:none;stroke:#ffa500;stroke-linecap:square;stroke-width:1.5;"/>
   </g>
   <g id="line2d_28">
    <path clip-path="url(#p12e8813b87)" d="M 278.583569 78.6212 
L 278.428538 78.397944 
L 278.273706 78.174687 
L 278.119109 77.951421 
L 277.96473 77.728164 
L 277.810585 77.504908 
L 277.656675 77.281641 
L 277.503001 77.058375 
L 277.34958 76.835118 
L 277.196412 76.611852 
L 277.043497 76.388585 
L 276.890872 76.165318 
L 276.738499 75.942051 
L 276.586398 75.718784 
L 276.434587 75.495517 
L 276.283065 75.27224 
L 276.131832 75.048973 
L 275.980888 74.825696 
L 275.830252 74.602429 
L 275.679924 74.379151 
L 275.529903 74.155874 
L 275.380207 73.932596 
L 275.230819 73.709319 
L 275.081757 73.486041 
L 274.93302 73.262753 
L 274.784626 73.039476 
L 274.636558 72.816187 
L 274.488834 72.59291 
L 274.341454 72.369622 
L 274.194417 72.146334 
L 274.047723 71.923046 
L 273.901392 71.699757 
L 273.755422 71.476469 
L 273.609796 71.25317 
L 273.464549 71.029882 
L 273.319646 70.806583 
L 273.175141 70.583295 
L 273.03098 70.359996 
L 272.887217 70.136698 
L 272.743815 69.913399 
L 272.600793 69.6901 
L 272.458151 69.466791 
L 272.315907 69.243492 
L 272.174024 69.020182 
L 272.03254 68.796873 
L 271.891453 68.573574 
L 271.750746 68.350264 
L 271.610437 68.126955 
L 271.470526 67.903635 
L 271.331013 67.680325 
L 271.191897 67.457016 
L 271.05318 67.233696 
L 270.91486 67.010376 
L 270.776938 66.787056 
L 270.639433 66.563735 
L 270.502325 66.340415 
L 270.365615 66.117095 
L 270.229321 65.893775 
L 270.093425 65.670444 
L 269.957944 65.447124 
L 269.822862 65.223793 
L 269.688196 65.000462 
L 269.553945 64.777132 
L 269.420111 64.553801 
L 269.286675 64.33047 
L 269.153654 64.107129 
L 269.021032 63.883798 
L 268.888843 63.660456 
L 268.757052 63.437126 
L 268.625678 63.213784 
L 268.494701 62.990443 
L 268.364158 62.767101 
L 268.234013 62.54376 
L 268.104284 62.320418 
L 267.974971 62.097056 
L 267.846074 61.873714 
L 267.717575 61.650373 
L 267.589492 61.42701 
L 267.461825 61.203668 
L 267.334574 60.980306 
L 267.207721 60.756964 
L 267.081283 60.533601 
L 266.955244 60.310239 
L 266.829621 60.086897 
L 266.704413 59.863534 
L 266.579603 59.640172 
L 266.45521 59.416809 
L 266.331214 59.193446 
L 266.207634 58.970083 
L 266.084434 58.746721 
L 265.961669 58.523358 
L 265.839282 58.299974 
L 265.717312 58.076611 
L 265.59574 57.853248 
L 265.474566 57.629864 
L 265.353789 57.406501 
L 265.233411 57.183117 
L 265.11343 56.959754 
L 264.993847 56.73637 
L 264.874662 56.512986 
L 264.755875 56.289624 
L 264.637468 56.066239 
L 264.519459 55.842855 
L 264.401847 55.619471 
L 264.284616 55.396087 
L 260.377882 60.154906 
L 257.343604 64.848573 
L 254.309326 71.834496 
L 251.275048 76.200697 
L 248.240752 83.18662 
L 245.206474 90.172543 
L 242.172196 97.158466 
L 239.137917 99.778187 
L 236.103639 104.144389 
L 233.069361 106.76411 
L 230.035065 106.76411 
L 227.000787 106.76411 
L 223.966509 104.144389 
L 220.932231 102.070443 
L 217.897953 97.158466 
L 214.863666 92.792264 
L 211.829388 85.806341 
L 208.795109 78.820418 
L 205.760822 69.214775 
L 202.726544 62.228852 
" style="fill:none;stroke:#ffa500;stroke-linecap:square;stroke-width:1.5;"/>
   </g>
   <g id="line2d_29">
    <path clip-path="url(#p12e8813b87)" d="M 202.726544 84.583805 
L 202.67273 84.360293 
L 202.618835 84.136781 
L 202.564876 83.913258 
L 202.510836 83.689746 
L 202.456732 83.466234 
L 202.402548 83.242722 
L 202.348299 83.01921 
L 202.293979 82.795687 
L 202.239586 82.572175 
L 202.185121 82.348663 
L 202.130592 82.125151 
L 202.075983 81.901639 
L 202.02131 81.678127 
L 201.966564 81.454615 
L 201.911746 81.231103 
L 201.856865 81.007591 
L 201.801912 80.784069 
L 201.746886 80.560557 
L 201.691797 80.337045 
L 201.636635 80.113533 
L 201.581401 79.890021 
L 201.526104 79.666509 
L 201.470744 79.442997 
L 201.415302 79.219485 
L 201.359806 78.995973 
L 201.304238 78.772461 
L 201.248597 78.548949 
L 201.192893 78.325437 
L 201.137126 78.101925 
L 201.081286 77.878413 
L 201.025383 77.6549 
L 200.969408 77.431388 
L 200.913378 77.207876 
L 200.857276 76.984364 
L 200.801102 76.760852 
L 200.744873 76.537351 
L 200.688573 76.313839 
L 200.632208 76.090327 
L 200.575781 75.866815 
L 200.51929 75.643303 
L 200.462736 75.419791 
L 200.406119 75.196279 
L 200.349438 74.972767 
L 200.292685 74.749255 
L 200.235878 74.525754 
L 200.179007 74.302242 
L 200.122064 74.07873 
L 200.065067 73.855218 
L 200.008007 73.631706 
L 199.950892 73.408204 
L 199.893705 73.184692 
L 199.836455 72.96118 
L 199.77915 72.737668 
L 199.721782 72.514156 
" style="fill:none;stroke:#ffa500;stroke-linecap:square;stroke-width:1.5;"/>
   </g>
   <g id="line2d_30">
    <path clip-path="url(#p12e8813b87)" d="M 199.692266 72.514156 
L 199.634844 72.290655 
L 199.577368 72.067143 
L 199.519837 71.843631 
L 199.462234 71.620119 
L 199.404577 71.396618 
L 199.346865 71.173106 
L 199.28909 70.949594 
L 199.231252 70.726092 
L 199.17336 70.50258 
L 199.115404 70.279068 
L 199.057394 70.055556 
L 198.99933 69.832055 
L 198.941202 69.608543 
L 198.88302 69.385031 
L 198.824784 69.161529 
L 198.766485 68.938017 
L 198.708131 68.714505 
L 198.649724 68.491004 
L 198.591262 68.267492 
L 198.532745 68.043991 
L 198.474166 67.820479 
L 198.415532 67.596967 
L 198.356852 67.373465 
L 198.29811 67.149953 
L 198.239313 66.926452 
L 198.180462 66.70294 
L 198.121557 66.479428 
L 198.062607 66.255927 
L 198.003593 66.032415 
L 197.944534 65.808913 
L 197.885412 65.585401 
L 197.826244 65.3619 
L 197.767023 65.138388 
L 197.707756 64.914887 
L 197.648426 64.691375 
L 197.58905 64.467873 
L 197.52963 64.244361 
L 197.470155 64.02086 
L 197.410625 63.797348 
L 197.351042 63.573847 
L 197.291413 63.350335 
L 197.23174 63.126823 
L 197.172011 62.903332 
L 197.112238 62.67982 
L 197.052411 62.456308 
L 196.992538 62.232817 
L 196.93262 62.009305 
L 196.872648 61.785793 
L 196.81263 61.562281 
L 196.752567 61.33879 
L 196.692459 61.115278 
L 196.632297 60.891766 
L 196.572099 60.668276 
L 196.511846 60.444764 
L 196.451549 60.221252 
L 196.391206 59.99774 
L 196.330817 59.774249 
L 196.270384 59.550737 
L 196.209905 59.327225 
L 196.14939 59.103734 
L 196.088821 58.880222 
L 196.028216 58.65671 
L 195.967556 58.43322 
L 195.906861 58.209708 
L 195.84612 57.986196 
L 195.785343 57.762705 
L 195.724521 57.539193 
L 195.663653 57.315681 
L 195.602749 57.09219 
L 195.541791 56.868678 
L 195.480806 56.645188 
L 195.419776 56.421676 
L 195.358701 56.198164 
L 195.297589 55.974673 
L 195.236441 55.751161 
L 195.175248 55.527649 
L 195.114019 55.304158 
L 195.052744 55.080646 
L 194.991443 54.857155 
L 190.589423 60.154906 
L 187.555136 64.848573 
L 184.520858 69.214775 
L 181.48658 76.200697 
L 178.452301 80.785209 
L 175.418014 87.771132 
" style="fill:none;stroke:#ffa500;stroke-linecap:square;stroke-width:1.5;"/>
   </g>
   <g id="line2d_31">
    <path clip-path="url(#p12e8813b87)" d="M 175.418014 110.126085 
L 175.380785 109.902552 
L 175.343519 109.679018 
L 175.306208 109.455485 
L 175.268861 109.231952 
L 175.231469 109.008418 
L 175.194041 108.784885 
L 175.156576 108.561352 
L 175.119066 108.337829 
L 175.081529 108.114296 
L 175.043938 107.890762 
L 175.00632 107.667229 
L 174.968665 107.443696 
L 174.930966 107.220162 
L 174.89323 106.996629 
L 174.855458 106.773096 
L 174.817641 106.549562 
L 174.779796 106.326029 
L 174.741907 106.102506 
L 174.703981 105.878973 
L 174.666019 105.65544 
L 174.628021 105.431906 
L 174.589987 105.208373 
L 174.551916 104.98484 
L 174.51381 104.761306 
L 174.475667 104.537773 
L 174.437479 104.31425 
L 174.399264 104.090717 
L 174.361012 103.867184 
L 174.322725 103.64365 
L 174.284401 103.420117 
L 174.246032 103.196584 
L 174.207636 102.973061 
L 174.169204 102.749528 
L 174.130745 102.525994 
L 174.09224 102.302461 
L 174.0537 102.078928 
L 174.015132 101.855394 
L 173.976528 101.631872 
L 173.937888 101.408338 
L 173.899211 101.184805 
L 173.860499 100.961272 
L 173.821759 100.737738 
L 173.782983 100.514205 
L 173.744172 100.290682 
L 173.705323 100.067149 
L 173.666448 99.843616 
L 173.627537 99.620083 
L 173.588598 99.396549 
L 173.549614 99.173027 
L 173.510612 98.949493 
L 173.471565 98.72596 
L 173.432491 98.502427 
L 173.393381 98.278904 
L 173.354243 98.055371 
L 173.31507 97.831837 
L 173.275869 97.608304 
L 173.236632 97.384771 
L 173.197368 97.161248 
L 173.158067 96.937715 
L 173.11874 96.714181 
L 173.079376 96.490648 
L 173.039986 96.267125 
L 173.000559 96.043592 
L 172.961105 95.820059 
L 172.921624 95.596525 
L 172.882106 95.373003 
L 172.842562 95.149469 
L 172.80299 94.925936 
L 172.763383 94.702403 
L 172.723748 94.47888 
L 172.684086 94.255347 
L 172.643384 94.031813 
L 172.599806 93.808291 
L 172.55301 93.584768 
L 172.502578 93.361245 
L 172.448049 93.137733 
L 172.388845 92.914232 
L 172.324307 92.690731 
L 172.253618 92.46724 
L 172.175778 92.243771 
L 172.089572 92.020301 
L 171.993492 91.796864 
L 171.885646 91.573458 
L 171.763622 91.350096 
L 171.624335 91.126775 
L 171.46377 90.903541 
L 171.276628 90.680412 
L 171.055928 90.457465 
L 170.79231 90.234753 
L 170.473414 90.012445 
L 170.083169 89.790756 
L 169.601826 89.570037 
L 169.00771 89.35081 
L 168.282292 89.133747 
L 167.417722 88.919456 
L 166.421913 88.708288 
L 165.314949 88.500147 
L 164.119673 88.294682 
L 162.854631 88.091487 
L 161.532166 87.890286 
L 160.159396 87.690918 
L 158.739712 87.493352 
L 157.274 87.297608 
L 155.761364 87.103815 
L 154.19959 86.912154 
L 152.585376 86.72287 
L 150.914436 86.536262 
L 149.18148 86.352767 
L 147.38016 86.172863 
L 145.502925 85.997235 
L 143.540859 85.826712 
L 141.48349 85.662404 
L 139.318647 85.50576 
L 137.032471 85.358774 
L 134.609961 85.224163 
L 132.036756 85.105702 
L 129.303718 85.008593 
L 126.416866 84.939752 
L 123.414491 84.907422 
L 120.384264 84.918977 
L 117.453943 84.976997 
L 114.738774 85.076783 
L 112.292933 85.20909 
" style="fill:none;stroke:#ffa500;stroke-linecap:square;stroke-width:1.5;"/>
   </g>
   <g id="line2d_32">
    <path clip-path="url(#p12e8813b87)" d="M 111.698116 85.20909 
L 109.601316 85.37067 
L 107.725699 85.546394 
L 106.037603 85.732161 
L 104.507354 85.925197 
L 103.110415 86.123648 
L 101.826921 86.326213 
L 100.640825 86.531977 
L 99.539117 86.740267 
L 98.511156 86.950593 
L 97.548157 87.162593 
L 96.642799 87.375957 
L 95.788932 87.590472 
L 94.981332 87.805957 
L 94.21553 88.022274 
L 93.487684 88.239294 
L 92.794451 88.456933 
L 92.132918 88.675104 
L 91.500524 88.893745 
L 90.895005 89.11279 
L 90.314358 89.332209 
L 89.756791 89.551958 
L 89.220699 89.771984 
L 88.704643 89.992277 
L 88.207322 90.212805 
L 87.727558 90.433545 
L 87.264278 90.654477 
L 86.816508 90.87558 
L 86.383357 91.096832 
L 85.964006 91.318245 
L 85.557704 91.539774 
L 85.16376 91.761431 
L 84.781535 91.983206 
L 84.41044 92.205076 
L 84.049926 92.427042 
L 83.699484 92.649094 
L 83.358643 92.871231 
L 83.026961 93.093442 
L 82.704027 93.315718 
L 82.389455 93.538068 
L 82.082886 93.760471 
L 81.783982 93.982928 
L 81.492427 94.205449 
L 81.20792 94.428012 
L 80.930182 94.650618 
L 80.658949 94.873277 
L 80.393969 95.095968 
L 80.135007 95.318702 
L 79.881841 95.541479 
L 79.63426 95.764277 
L 79.392062 95.987117 
L 79.155058 96.209979 
L 78.923069 96.432872 
L 78.695923 96.655798 
L 78.473457 96.878745 
" style="fill:none;stroke:#ffa500;stroke-linecap:square;stroke-width:1.5;"/>
   </g>
   <g id="line2d_33">
    <path clip-path="url(#p12e8813b87)" d="M 78.321025 96.878745 
L 78.107083 97.101746 
L 77.897365 97.324757 
L 77.691736 97.547789 
L 77.490071 97.770843 
L 77.292248 97.993918 
L 77.098151 98.217014 
L 76.90767 98.440121 
L 76.7207 98.663249 
L 76.537137 98.886388 
L 76.356885 99.109538 
L 76.17985 99.332708 
L 76.005942 99.55589 
L 75.835076 99.779082 
L 75.667168 100.002296 
L 75.502138 100.225509 
L 75.339911 100.448744 
L 75.180412 100.671979 
L 75.02357 100.895235 
L 74.869318 101.118491 
L 74.717588 101.341758 
L 74.568319 101.565046 
L 74.421447 101.788334 
L 74.276916 102.011623 
L 74.134667 102.234932 
L 73.994645 102.458242 
L 73.856796 102.681562 
L 73.721071 102.904882 
L 73.587419 103.128213 
L 73.455791 103.351554 
L 73.326142 103.574906 
L 73.198427 103.798258 
L 73.072601 104.02161 
L 72.948624 104.244973 
L 72.826453 104.468347 
L 72.706049 104.69172 
L 72.587375 104.915093 
L 72.470392 105.138478 
L 72.355065 105.361862 
L 72.241358 105.585256 
L 72.129238 105.808651 
L 72.018673 106.032057 
L 71.909628 106.255462 
L 71.802075 106.478867 
L 71.695982 106.702283 
L 71.59132 106.9257 
L 71.488061 107.149116 
L 71.386176 107.372542 
L 71.28564 107.595969 
L 71.186425 107.819396 
L 71.088507 108.042833 
L 70.99186 108.266271 
L 70.89646 108.489708 
L 70.802284 108.713145 
L 70.709308 108.936593 
L 70.617511 109.160041 
L 70.526871 109.383489 
L 70.437366 109.606948 
L 70.348976 109.830396 
L 70.261681 110.053855 
L 70.175461 110.277314 
L 70.090297 110.500772 
L 70.00617 110.724242 
L 69.923063 110.9477 
L 69.840957 111.17117 
L 69.759835 111.394639 
L 69.67968 111.618109 
L 69.600476 111.841589 
L 69.522206 112.065058 
L 69.444855 112.288538 
L 69.368407 112.512018 
L 69.292848 112.735498 
" style="fill:none;stroke:#ffa500;stroke-linecap:square;stroke-width:1.5;"/>
   </g>
   <g id="line2d_34">
    <path clip-path="url(#p12e8813b87)" d="M 220.932231 197.406458 
L 221.017921 197.182999 
L 221.104497 196.95954 
L 221.191942 196.736082 
L 221.280254 196.512628 
L 221.369489 196.289175 
L 221.459611 196.065722 
L 221.550654 195.842273 
L 221.64262 195.618825 
L 221.735526 195.395383 
L 221.829373 195.17194 
L 221.924179 194.948503 
L 222.019942 194.72506 
L 222.116701 194.501628 
L 222.214436 194.27819 
L 222.313166 194.054764 
L 222.412909 193.831332 
L 222.513683 193.607905 
L 222.615469 193.384483 
L 222.718323 193.161062 
L 222.822207 192.937646 
L 222.927177 192.71423 
L 223.033213 192.490814 
L 223.140335 192.267403 
L 223.248578 192.043998 
L 223.357924 191.820592 
L 223.468392 191.597192 
L 223.579999 191.373792 
L 223.692763 191.150397 
L 223.806685 190.927008 
L 223.921783 190.703619 
" style="fill:none;stroke:#800080;stroke-linecap:square;stroke-width:1.5;"/>
   </g>
   <g id="line2d_35">
    <path clip-path="url(#p12e8813b87)" d="M 223.921783 190.703619 
L 224.193702 190.48097 
L 224.469871 190.258348 
L 224.75029 190.035753 
L 225.035013 189.813189 
L 225.32406 189.590658 
L 225.617464 189.368154 
L 225.91521 189.145686 
L 226.217313 188.923245 
L 226.523812 188.700842 
L 226.83467 188.478465 
" style="fill:none;stroke:#800080;stroke-linecap:square;stroke-width:1.5;"/>
   </g>
   <g id="line2d_36">
    <path clip-path="url(#p12e8813b87)" d="M 226.83467 188.478465 
L 227.484128 188.260097 
L 228.138289 188.041802 
L 228.796066 187.823572 
L 229.456412 187.60538 
" style="fill:none;stroke:#800080;stroke-linecap:square;stroke-width:1.5;"/>
   </g>
   <g id="line2d_37">
    <path clip-path="url(#p12e8813b87)" d="M 229.456412 187.60538 
L 231.194667 187.42215 
" style="fill:none;stroke:#800080;stroke-linecap:square;stroke-width:1.5;"/>
   </g>
   <g id="line2d_38">
    <path clip-path="url(#p12e8813b87)" d="M 231.194667 187.42215 
L 232.924911 187.238506 
" style="fill:none;stroke:#800080;stroke-linecap:square;stroke-width:1.5;"/>
   </g>
   <g id="line2d_39">
    <path clip-path="url(#p12e8813b87)" d="M 232.924911 187.238506 
L 234.618512 187.053022 
" style="fill:none;stroke:#800080;stroke-linecap:square;stroke-width:1.5;"/>
   </g>
   <g id="line2d_40">
    <path clip-path="url(#p12e8813b87)" d="M 234.618512 187.053022 
L 236.259122 186.864964 
" style="fill:none;stroke:#800080;stroke-linecap:square;stroke-width:1.5;"/>
   </g>
   <g id="line2d_41">
    <path clip-path="url(#p12e8813b87)" d="M 236.259122 186.864964 
L 237.177913 186.651909 
L 238.059375 186.438001 
L 238.906746 186.223348 
" style="fill:none;stroke:#800080;stroke-linecap:square;stroke-width:1.5;"/>
   </g>
   <g id="line2d_42">
    <path clip-path="url(#p12e8813b87)" d="M 238.906746 186.223348 
L 239.955591 186.013576 
L 240.934372 185.801976 
L 241.854773 185.588959 
" style="fill:none;stroke:#800080;stroke-linecap:square;stroke-width:1.5;"/>
   </g>
   <g id="line2d_43">
    <path clip-path="url(#p12e8813b87)" d="M 241.854773 185.588959 
L 242.478622 185.370185 
L 243.090335 185.15123 
L 243.690293 184.932088 
L 244.278839 184.712787 
L 244.856352 184.493326 
" style="fill:none;stroke:#800080;stroke-linecap:square;stroke-width:1.5;"/>
   </g>
   <g id="line2d_44">
    <path clip-path="url(#p12e8813b87)" d="M 244.856352 184.493326 
L 245.430013 184.273806 
L 245.992859 184.054136 
L 246.545251 183.834323 
L 247.08757 183.614372 
L 247.620194 183.394292 
" style="fill:none;stroke:#800080;stroke-linecap:square;stroke-width:1.5;"/>
   </g>
   <g id="line2d_45">
    <path clip-path="url(#p12e8813b87)" d="M 247.620194 183.394292 
L 248.020413 183.172699 
L 248.417974 182.951073 
L 248.812821 182.729427 
L 249.204938 182.507754 
L 249.594287 182.286048 
L 249.980852 182.064322 
L 250.364613 181.842569 
" style="fill:none;stroke:#800080;stroke-linecap:square;stroke-width:1.5;"/>
   </g>
   <g id="line2d_46">
    <path clip-path="url(#p12e8813b87)" d="M 250.364613 181.842569 
L 250.698584 181.620379 
L 251.031162 181.398172 
L 251.36233 181.175961 
L 251.692032 180.953733 
L 252.02027 180.731495 
L 252.346971 180.509246 
L 252.672152 180.286982 
L 252.99576 180.064711 
L 253.317776 179.84242 
" style="fill:none;stroke:#800080;stroke-linecap:square;stroke-width:1.5;"/>
   </g>
   <g id="line2d_47">
    <path clip-path="url(#p12e8813b87)" d="M 253.317776 179.84242 
L 253.619735 179.619985 
L 253.920519 179.397533 
L 254.220109 179.175076 
L 254.518505 178.952609 
L 254.815654 178.730136 
L 255.111573 178.507653 
L 255.406225 178.285159 
L 255.699594 178.062654 
L 255.991678 177.840144 
L 256.28246 177.617624 
" style="fill:none;stroke:#800080;stroke-linecap:square;stroke-width:1.5;"/>
   </g>
   <g id="line2d_48">
    <path clip-path="url(#p12e8813b87)" d="M 256.28246 177.617624 
L 256.586011 177.395199 
L 256.88788 177.172758 
L 257.188085 176.950302 
L 257.486626 176.72784 
L 257.783485 176.505362 
L 258.07868 176.282873 
L 258.372212 176.060374 
L 258.664079 175.837858 
L 258.954301 175.615332 
L 259.242876 175.392796 
" style="fill:none;stroke:#800080;stroke-linecap:square;stroke-width:1.5;"/>
   </g>
   <g id="line2d_49">
    <path clip-path="url(#p12e8813b87)" d="M 259.242876 175.392796 
L 259.521324 175.17019 
L 259.798361 174.947573 
L 260.07397 174.724951 
L 260.348167 174.502313 
L 260.620936 174.27967 
L 260.892312 174.057016 
L 261.16226 173.834357 
L 261.430833 173.611682 
L 261.697995 173.389001 
L 261.963783 173.16631 
L 262.228178 172.943613 
" style="fill:none;stroke:#800080;stroke-linecap:square;stroke-width:1.5;"/>
   </g>
   <g id="line2d_50">
    <path clip-path="url(#p12e8813b87)" d="M 262.228178 172.943613 
L 262.502828 172.720981 
L 262.775832 172.498337 
L 263.047226 172.275684 
L 263.316993 172.053019 
L 263.585168 171.830344 
L 263.851752 171.607658 
L 264.11678 171.384961 
L 264.380271 171.162259 
L 264.642225 170.939542 
L 264.902641 170.716818 
L 265.161574 170.494085 
" style="fill:none;stroke:#800080;stroke-linecap:square;stroke-width:1.5;"/>
   </g>
   <g id="line2d_51">
    <path clip-path="url(#p12e8813b87)" d="M 265.161574 170.494085 
L 265.438702 170.271468 
L 265.713858 170.048841 
L 265.987079 169.826197 
L 266.258401 169.603544 
L 266.52786 169.380879 
L 266.795475 169.158204 
L 267.061262 168.935513 
L 267.32526 168.712811 
L 267.587503 168.490098 
L 267.84801 168.26737 
L 268.106816 168.044636 
" style="fill:none;stroke:#800080;stroke-linecap:square;stroke-width:1.5;"/>
   </g>
   <g id="line2d_52">
    <path clip-path="url(#p12e8813b87)" d="M 268.106816 168.044636 
L 268.453827 167.822552 
L 268.796136 167.600431 
L 269.133905 167.378273 
L 269.467315 167.156077 
L 269.796529 166.933845 
L 270.121693 166.711585 
L 270.442949 166.489288 
L 270.760426 166.26697 
L 271.074268 166.04462 
" style="fill:none;stroke:#800080;stroke-linecap:square;stroke-width:1.5;"/>
   </g>
   <g id="line2d_53">
    <path clip-path="url(#p12e8813b87)" d="M 271.074268 166.04462 
L 271.504798 165.823331 
L 271.925707 165.60194 
L 272.337628 165.380464 
L 272.741138 165.158897 
L 273.136709 164.937256 
L 273.524829 164.715546 
L 273.905877 164.493766 
" style="fill:none;stroke:#800080;stroke-linecap:square;stroke-width:1.5;"/>
   </g>
   <g id="line2d_54">
    <path clip-path="url(#p12e8813b87)" d="M 273.905877 164.493766 
L 274.437218 164.27367 
L 274.950545 164.05334 
L 275.447631 163.832813 
L 275.929959 163.612104 
L 276.398777 163.391241 
L 276.855207 163.170234 
" style="fill:none;stroke:#800080;stroke-linecap:square;stroke-width:1.5;"/>
   </g>
   <g id="line2d_55">
    <path clip-path="url(#p12e8813b87)" d="M 276.855207 163.170234 
L 277.521141 162.952132 
L 278.153454 162.733491 
L 278.756884 162.514409 
L 279.335139 162.294958 
" style="fill:none;stroke:#800080;stroke-linecap:square;stroke-width:1.5;"/>
   </g>
   <g id="line2d_56">
    <path clip-path="url(#p12e8813b87)" d="M 279.335139 162.294958 
L 280.167245 162.079974 
L 280.939126 161.863779 
L 281.6625 161.646679 
L 282.345653 161.428865 
" style="fill:none;stroke:#800080;stroke-linecap:square;stroke-width:1.5;"/>
   </g>
   <g id="line2d_57">
    <path clip-path="url(#p12e8813b87)" d="M 282.345653 161.428865 
L 283.525746 161.22292 
L 284.562962 161.012834 
" style="fill:none;stroke:#800080;stroke-linecap:square;stroke-width:1.5;"/>
   </g>
   <g id="line2d_58">
    <path clip-path="url(#p12e8813b87)" d="M 284.562962 161.012834 
L 286.214731 160.825309 
L 287.559007 160.624896 
" style="fill:none;stroke:#800080;stroke-linecap:square;stroke-width:1.5;"/>
   </g>
   <g id="line2d_59">
    <path clip-path="url(#p12e8813b87)" d="M 287.559007 160.624896 
L 290.515553 160.57462 
" style="fill:none;stroke:#800080;stroke-linecap:square;stroke-width:1.5;"/>
   </g>
   <g id="line2d_60">
    <path clip-path="url(#p12e8813b87)" d="M 290.515553 160.57462 
L 292.890462 160.435479 
" style="fill:none;stroke:#800080;stroke-linecap:square;stroke-width:1.5;"/>
   </g>
   <g id="line2d_61">
    <path clip-path="url(#p12e8813b87)" d="M 292.890462 160.435479 
L 294.811672 160.262451 
" style="fill:none;stroke:#800080;stroke-linecap:square;stroke-width:1.5;"/>
   </g>
   <g id="line2d_62">
    <path clip-path="url(#p12e8813b87)" d="M 294.811672 160.262451 
L 296.491926 160.076307 
" style="fill:none;stroke:#800080;stroke-linecap:square;stroke-width:1.5;"/>
   </g>
   <g id="line2d_63">
    <path clip-path="url(#p12e8813b87)" d="M 296.491926 160.076307 
L 298.024348 159.883362 
L 299.36298 159.682741 
" style="fill:none;stroke:#800080;stroke-linecap:square;stroke-width:1.5;"/>
   </g>
   <g id="line2d_64">
    <path clip-path="url(#p12e8813b87)" d="M 299.36298 159.682741 
L 299.630016 159.460061 
L 299.894791 159.237364 
L 300.157342 159.014652 
L 300.417704 158.791928 
L 300.675932 158.569189 
L 300.932062 158.346439 
L 301.186148 158.123674 
L 301.438227 157.900897 
L 301.688334 157.67811 
L 301.936507 157.455307 
L 302.182762 157.232493 
" style="fill:none;stroke:#800080;stroke-linecap:square;stroke-width:1.5;"/>
   </g>
   <g id="line2d_65">
    <path clip-path="url(#p12e8813b87)" d="M 302.182762 157.232493 
L 302.470289 157.009951 
L 302.754994 156.787388 
L 303.036951 156.564803 
L 303.316248 156.342202 
L 303.592924 156.119586 
L 303.867031 155.896953 
L 304.138661 155.674299 
L 304.40783 155.451629 
L 304.674631 155.228949 
L 304.939062 155.006247 
L 305.201233 154.783535 
" style="fill:none;stroke:#800080;stroke-linecap:square;stroke-width:1.5;"/>
   </g>
   <g id="line2d_66">
    <path clip-path="url(#p12e8813b87)" d="M 305.201233 154.783535 
L 305.373301 154.560348 
L 305.544663 154.33715 
L 305.715302 154.113958 
L 305.885235 153.89076 
L 306.054463 153.667557 
L 306.223004 153.444355 
L 306.39084 153.221146 
L 306.557988 152.997933 
L 306.724467 152.774719 
L 306.890259 152.551506 
L 307.0554 152.328292 
L 307.219871 152.105068 
L 307.383674 151.881844 
L 307.546825 151.65862 
L 307.709325 151.435385 
L 307.871192 151.212161 
L 308.032408 150.988926 
L 308.192992 150.765691 
" style="fill:none;stroke:#800080;stroke-linecap:square;stroke-width:1.5;"/>
   </g>
   <g id="line2d_67">
    <path clip-path="url(#p12e8813b87)" d="M 308.192992 150.765691 
L 308.379238 150.542563 
L 308.564527 150.319424 
L 308.748874 150.096295 
L 308.9323 149.873146 
L 309.114803 149.650007 
L 309.296384 149.426857 
L 309.477078 149.203708 
L 309.656868 148.980548 
L 309.835772 148.757387 
L 310.013808 148.534227 
L 310.190976 148.311056 
L 310.367293 148.087885 
L 310.542761 147.864704 
L 310.717379 147.641522 
L 310.891165 147.418341 
L 311.064118 147.195159 
" style="fill:none;stroke:#800080;stroke-linecap:square;stroke-width:1.5;"/>
   </g>
   <g id="line2d_68">
    <path clip-path="url(#p12e8813b87)" d="M 311.064118 147.195159 
L 311.262971 146.972095 
L 311.460648 146.74902 
L 311.657149 146.525934 
L 311.852511 146.302849 
L 312.046734 146.079763 
L 312.239817 145.856667 
L 312.431797 145.63356 
L 312.622674 145.410453 
L 312.812483 145.187346 
L 313.001208 144.964228 
L 313.188865 144.7411 
L 313.375492 144.517972 
L 313.56107 144.294843 
L 313.745634 144.071715 
L 313.929186 143.848566 
" style="fill:none;stroke:#800080;stroke-linecap:square;stroke-width:1.5;"/>
   </g>
   <g id="line2d_69">
    <path clip-path="url(#p12e8813b87)" d="M 313.929186 143.848566 
L 314.139867 143.625565 
L 314.349119 143.402544 
L 314.556978 143.179522 
L 314.763463 142.95649 
L 314.968573 142.733447 
L 315.172345 142.510404 
L 315.374778 142.28735 
L 315.575928 142.064296 
L 315.775775 141.841232 
L 315.974338 141.618157 
L 316.171653 141.395082 
L 316.367721 141.171997 
L 316.562576 140.948911 
L 316.75622 140.725815 
L 316.94867 140.502718 
" style="fill:none;stroke:#800080;stroke-linecap:square;stroke-width:1.5;"/>
   </g>
   <g id="line2d_70">
    <path clip-path="url(#p12e8813b87)" d="M 316.94867 140.502718 
L 317.171215 140.279771 
L 317.392078 140.056814 
L 317.611277 139.833856 
L 317.828848 139.610877 
L 318.04481 139.387898 
L 318.259198 139.164908 
L 318.472013 138.941908 
L 318.683272 138.718897 
L 318.89303 138.495886 
L 319.101306 138.272864 
L 319.308098 138.049832 
L 319.513443 137.826789 
L 319.717342 137.603746 
L 319.919847 137.380703 
" style="fill:none;stroke:#800080;stroke-linecap:square;stroke-width:1.5;"/>
   </g>
   <g id="line2d_71">
    <path clip-path="url(#p12e8813b87)" d="M 319.919847 137.380703 
L 320.153207 137.157809 
L 320.384614 136.934915 
L 320.614086 136.712 
L 320.841695 136.489085 
L 321.067423 136.266149 
L 321.291324 136.043212 
L 321.513435 135.820265 
L 321.733773 135.597308 
L 321.952375 135.374339 
L 322.169259 135.15136 
L 322.384461 134.928371 
L 322.597999 134.705381 
L 322.809892 134.48237 
" style="fill:none;stroke:#800080;stroke-linecap:square;stroke-width:1.5;"/>
   </g>
   <g id="line2d_72">
    <path clip-path="url(#p12e8813b87)" d="M 322.809892 134.48237 
L 323.053525 134.25954 
L 323.294933 134.0367 
L 323.534135 133.813849 
L 323.771184 133.590987 
L 324.006136 133.368104 
L 324.23899 133.14521 
L 324.4698 132.922316 
L 324.69862 132.699401 
L 324.925451 132.476475 
L 325.150347 132.253539 
L 325.373344 132.030592 
L 325.594442 131.807645 
L 325.813714 131.584677 
" style="fill:none;stroke:#800080;stroke-linecap:square;stroke-width:1.5;"/>
   </g>
   <g id="line2d_73">
    <path clip-path="url(#p12e8813b87)" d="M 325.813714 131.584677 
L 326.067728 131.361911 
L 326.31921 131.139134 
L 326.568178 130.916337 
L 326.814722 130.693528 
L 327.058843 130.470698 
L 327.300631 130.247858 
L 327.540104 130.025007 
L 327.777299 129.802145 
L 328.012268 129.579262 
L 328.24505 129.356379 
L 328.475679 129.133474 
L 328.704192 128.910559 
" style="fill:none;stroke:#800080;stroke-linecap:square;stroke-width:1.5;"/>
   </g>
   <g id="line2d_74">
    <path clip-path="url(#p12e8813b87)" d="M 328.704192 128.910559 
L 328.967864 128.687857 
L 329.228678 128.465134 
L 329.486689 128.24239 
L 329.741951 128.019635 
L 329.994518 127.796858 
L 330.244445 127.574071 
L 330.491803 127.351262 
L 330.736611 127.128443 
L 330.978942 126.905614 
L 331.218831 126.682762 
L 331.456333 126.45989 
L 331.691483 126.237018 
" style="fill:none;stroke:#800080;stroke-linecap:square;stroke-width:1.5;"/>
   </g>
   <g id="line2d_75">
    <path clip-path="url(#p12e8813b87)" d="M 331.691483 126.237018 
L 331.957687 126.014326 
L 332.220853 125.791624 
L 332.481052 125.568901 
L 332.738339 125.346157 
L 332.992787 125.123391 
L 333.24445 124.900614 
L 333.493364 124.677817 
L 333.739619 124.455008 
L 333.983234 124.232178 
L 334.224299 124.009327 
L 334.462831 123.786476 
L 334.698868 123.563604 
" style="fill:none;stroke:#800080;stroke-linecap:square;stroke-width:1.5;"/>
   </g>
   <g id="line2d_76">
    <path clip-path="url(#p12e8813b87)" d="M 334.698868 123.563604 
L 334.974657 123.340977 
L 335.247046 123.118328 
L 335.516108 122.895658 
L 335.782745 122.672977 
L 336.054086 122.450329 
L 336.330381 122.227702 
L 336.611867 122.005117 
L 336.898815 121.782575 
L 337.191569 121.560065 
L 337.490436 121.337598 
" style="fill:none;stroke:#800080;stroke-linecap:square;stroke-width:1.5;"/>
   </g>
   <g id="line2d_77">
    <path clip-path="url(#p12e8813b87)" d="M 337.490436 121.337598 
L 337.855695 121.115674 
L 338.232873 120.893857 
L 338.623181 120.672168 
L 339.028066 120.450617 
L 339.4493 120.229237 
L 339.889037 120.008049 
L 340.349951 119.787084 
" style="fill:none;stroke:#800080;stroke-linecap:square;stroke-width:1.5;"/>
   </g>
   <g id="line2d_78">
    <path clip-path="url(#p12e8813b87)" d="M 340.349951 119.787084 
L 340.899432 119.567239 
L 341.49192 119.347991 
L 342.139371 119.129585 
L 342.860557 118.912448 
" style="fill:none;stroke:#800080;stroke-linecap:square;stroke-width:1.5;"/>
   </g>
   <g id="line2d_79">
    <path clip-path="url(#p12e8813b87)" d="M 342.860557 118.912448 
L 343.849069 118.701088 
L 345.146937 118.499023 
" style="fill:none;stroke:#800080;stroke-linecap:square;stroke-width:1.5;"/>
   </g>
   <g id="line2d_80">
    <path clip-path="url(#p12e8813b87)" d="M 345.146937 118.499023 
L 347.585163 118.365958 
" style="fill:none;stroke:#800080;stroke-linecap:square;stroke-width:1.5;"/>
   </g>
   <g id="line2d_81">
    <path clip-path="url(#p12e8813b87)" d="M 347.585163 118.365958 
L 349.244981 118.553099 
L 350.154313 118.766378 
" style="fill:none;stroke:#800080;stroke-linecap:square;stroke-width:1.5;"/>
   </g>
   <g id="line2d_82">
    <path clip-path="url(#p12e8813b87)" d="M 350.154313 118.766378 
L 350.913823 118.982801 
L 351.541868 119.201517 
L 352.087442 119.421426 
L 352.574798 119.64207 
L 353.018151 119.863216 
" style="fill:none;stroke:#800080;stroke-linecap:square;stroke-width:1.5;"/>
   </g>
   <g id="line2d_83">
    <path clip-path="url(#p12e8813b87)" d="M 353.018151 119.863216 
L 353.47874 120.08418 
L 353.9003 120.30556 
L 354.290482 120.527249 
L 354.654746 120.749184 
L 354.997091 120.97131 
L 355.320554 121.193586 
L 355.627595 121.415989 
L 355.920114 121.638488 
" style="fill:none;stroke:#800080;stroke-linecap:square;stroke-width:1.5;"/>
   </g>
   <g id="line2d_84">
    <path clip-path="url(#p12e8813b87)" d="M 355.920114 121.638488 
L 356.245024 121.860753 
L 356.552753 122.083156 
L 356.845398 122.305666 
L 357.124696 122.528262 
L 357.392021 122.750942 
L 357.648549 122.973687 
L 357.895292 123.196506 
L 358.133083 123.419368 
L 358.362663 123.642272 
L 358.584684 123.865219 
L 358.799669 124.088209 
" style="fill:none;stroke:#800080;stroke-linecap:square;stroke-width:1.5;"/>
   </g>
   <g id="line2d_85">
    <path clip-path="url(#p12e8813b87)" d="M 358.799669 124.088209 
L 359.043826 124.311039 
L 359.278904 124.533911 
L 359.505645 124.756837 
L 359.724735 124.979805 
L 359.936754 125.202806 
L 360.14219 125.425838 
L 360.341513 125.648913 
L 360.535139 125.871998 
L 360.723393 126.095127 
L 360.906637 126.318266 
L 361.085125 126.541426 
L 361.259164 126.764607 
L 361.428971 126.98781 
L 361.594781 127.211024 
L 361.756775 127.434248 
" style="fill:none;stroke:#800080;stroke-linecap:square;stroke-width:1.5;"/>
   </g>
   <g id="line2d_86">
    <path clip-path="url(#p12e8813b87)" d="M 361.756775 127.434248 
L 361.946621 127.657366 
L 362.131077 127.880505 
L 362.310488 128.103654 
L 362.485141 128.326836 
L 362.65531 128.550039 
L 362.821265 128.773252 
L 362.983204 128.996476 
L 363.141364 129.219722 
L 363.295924 129.442989 
L 363.447049 129.666255 
L 363.594918 129.889544 
L 363.739658 130.112832 
L 363.881432 130.336141 
L 364.020348 130.559461 
L 364.156552 130.782781 
L 364.290115 131.006112 
L 364.421182 131.229454 
L 364.549808 131.452806 
L 364.676136 131.676158 
" style="fill:none;stroke:#800080;stroke-linecap:square;stroke-width:1.5;"/>
   </g>
   <g id="line2d_87">
    <path clip-path="url(#p12e8813b87)" d="M 364.676136 131.676158 
L 364.823644 131.899446 
L 364.967895 132.122745 
L 365.109036 132.346054 
L 365.247193 132.569364 
L 365.382529 132.792695 
L 365.515133 133.016025 
L 365.645151 133.239378 
L 365.772674 133.46273 
L 365.897791 133.686082 
L 366.020611 133.909455 
L 366.141207 134.132829 
L 366.259686 134.356202 
L 366.376086 134.579586 
L 366.490514 134.802981 
L 366.603026 135.026376 
L 366.713692 135.249781 
L 366.82255 135.473187 
L 366.92969 135.696592 
L 367.035148 135.920008 
L 367.138996 136.143424 
L 367.241253 136.366851 
L 367.341972 136.590278 
L 367.441227 136.813704 
L 367.539034 137.037142 
L 367.635449 137.260568 
" style="fill:none;stroke:#800080;stroke-linecap:square;stroke-width:1.5;"/>
   </g>
   <g id="line2d_88">
    <path clip-path="url(#p12e8813b87)" d="M 367.635449 137.260568 
L 367.749661 137.483963 
L 367.862407 137.707358 
L 367.975208 137.930753 
L 368.088099 138.154147 
L 368.201044 138.377542 
L 368.314062 138.600937 
L 368.427152 138.824332 
L 368.540314 139.047726 
L 368.653531 139.271121 
L 368.76682 139.494516 
L 368.880181 139.717911 
L 368.993615 139.941305 
L 369.107103 140.164689 
L 369.220645 140.388084 
L 369.334259 140.611479 
L 369.447928 140.834874 
L 369.561669 141.058268 
L 369.675465 141.281653 
L 369.789332 141.505047 
L 369.903254 141.728442 
L 370.01723 141.951837 
L 370.131261 142.175221 
L 370.245346 142.398616 
L 370.359503 142.62201 
L 370.473696 142.845395 
L 370.587962 143.068789 
" style="fill:none;stroke:#800080;stroke-linecap:square;stroke-width:1.5;"/>
   </g>
   <g id="line2d_89">
    <path clip-path="url(#p12e8813b87)" d="M 370.587962 143.068789 
L 371.069783 143.289498 
L 371.558188 143.510142 
L 372.053394 143.730691 
L 372.55558 143.951154 
L 373.065001 144.171532 
L 373.581818 144.391814 
" style="fill:none;stroke:#800080;stroke-linecap:square;stroke-width:1.5;"/>
   </g>
   <g id="patch_3">
    <path d="M 54 252 
L 54 34.56 
" style="fill:none;stroke:#000000;stroke-linecap:square;stroke-linejoin:miter;stroke-width:0.8;"/>
   </g>
   <g id="patch_4">
    <path d="M 388.8 252 
L 388.8 34.56 
" style="fill:none;stroke:#000000;stroke-linecap:square;stroke-linejoin:miter;stroke-width:0.8;"/>
   </g>
   <g id="patch_5">
    <path d="M 54 252 
L 388.8 252 
" style="fill:none;stroke:#000000;stroke-linecap:square;stroke-linejoin:miter;stroke-width:0.8;"/>
   </g>
   <g id="patch_6">
    <path d="M 54 34.56 
L 388.8 34.56 
" style="fill:none;stroke:#000000;stroke-linecap:square;stroke-linejoin:miter;stroke-width:0.8;"/>
   </g>
   <g id="text_14">
    <!-- controller -->
    <defs>
     <path d="M 48.78125 52.59375 
L 48.78125 44.1875 
Q 44.96875 46.296875 41.140625 47.34375 
Q 37.3125 48.390625 33.40625 48.390625 
Q 24.65625 48.390625 19.8125 42.84375 
Q 14.984375 37.3125 14.984375 27.296875 
Q 14.984375 17.28125 19.8125 11.734375 
Q 24.65625 6.203125 33.40625 6.203125 
Q 37.3125 6.203125 41.140625 7.25 
Q 44.96875 8.296875 48.78125 10.40625 
L 48.78125 2.09375 
Q 45.015625 0.34375 40.984375 -0.53125 
Q 36.96875 -1.421875 32.421875 -1.421875 
Q 20.0625 -1.421875 12.78125 6.34375 
Q 5.515625 14.109375 5.515625 27.296875 
Q 5.515625 40.671875 12.859375 48.328125 
Q 20.21875 56 33.015625 56 
Q 37.15625 56 41.109375 55.140625 
Q 45.0625 54.296875 48.78125 52.59375 
z
" id="DejaVuSans-99"/>
     <path d="M 30.609375 48.390625 
Q 23.390625 48.390625 19.1875 42.75 
Q 14.984375 37.109375 14.984375 27.296875 
Q 14.984375 17.484375 19.15625 11.84375 
Q 23.34375 6.203125 30.609375 6.203125 
Q 37.796875 6.203125 41.984375 11.859375 
Q 46.1875 17.53125 46.1875 27.296875 
Q 46.1875 37.015625 41.984375 42.703125 
Q 37.796875 48.390625 30.609375 48.390625 
z
M 30.609375 56 
Q 42.328125 56 49.015625 48.375 
Q 55.71875 40.765625 55.71875 27.296875 
Q 55.71875 13.875 49.015625 6.21875 
Q 42.328125 -1.421875 30.609375 -1.421875 
Q 18.84375 -1.421875 12.171875 6.21875 
Q 5.515625 13.875 5.515625 27.296875 
Q 5.515625 40.765625 12.171875 48.375 
Q 18.84375 56 30.609375 56 
z
" id="DejaVuSans-111"/>
     <path d="M 54.890625 33.015625 
L 54.890625 0 
L 45.90625 0 
L 45.90625 32.71875 
Q 45.90625 40.484375 42.875 44.328125 
Q 39.84375 48.1875 33.796875 48.1875 
Q 26.515625 48.1875 22.3125 43.546875 
Q 18.109375 38.921875 18.109375 30.90625 
L 18.109375 0 
L 9.078125 0 
L 9.078125 54.6875 
L 18.109375 54.6875 
L 18.109375 46.1875 
Q 21.34375 51.125 25.703125 53.5625 
Q 30.078125 56 35.796875 56 
Q 45.21875 56 50.046875 50.171875 
Q 54.890625 44.34375 54.890625 33.015625 
z
" id="DejaVuSans-110"/>
     <path d="M 18.3125 70.21875 
L 18.3125 54.6875 
L 36.8125 54.6875 
L 36.8125 47.703125 
L 18.3125 47.703125 
L 18.3125 18.015625 
Q 18.3125 11.328125 20.140625 9.421875 
Q 21.96875 7.515625 27.59375 7.515625 
L 36.8125 7.515625 
L 36.8125 0 
L 27.59375 0 
Q 17.1875 0 13.234375 3.875 
Q 9.28125 7.765625 9.28125 18.015625 
L 9.28125 47.703125 
L 2.6875 47.703125 
L 2.6875 54.6875 
L 9.28125 54.6875 
L 9.28125 70.21875 
z
" id="DejaVuSans-116"/>
     <path d="M 41.109375 46.296875 
Q 39.59375 47.171875 37.8125 47.578125 
Q 36.03125 48 33.890625 48 
Q 26.265625 48 22.1875 43.046875 
Q 18.109375 38.09375 18.109375 28.8125 
L 18.109375 0 
L 9.078125 0 
L 9.078125 54.6875 
L 18.109375 54.6875 
L 18.109375 46.1875 
Q 20.953125 51.171875 25.484375 53.578125 
Q 30.03125 56 36.53125 56 
Q 37.453125 56 38.578125 55.875 
Q 39.703125 55.765625 41.0625 55.515625 
z
" id="DejaVuSans-114"/>
     <path d="M 9.421875 75.984375 
L 18.40625 75.984375 
L 18.40625 0 
L 9.421875 0 
z
" id="DejaVuSans-108"/>
     <path d="M 56.203125 29.59375 
L 56.203125 25.203125 
L 14.890625 25.203125 
Q 15.484375 15.921875 20.484375 11.0625 
Q 25.484375 6.203125 34.421875 6.203125 
Q 39.59375 6.203125 44.453125 7.46875 
Q 49.3125 8.734375 54.109375 11.28125 
L 54.109375 2.78125 
Q 49.265625 0.734375 44.1875 -0.34375 
Q 39.109375 -1.421875 33.890625 -1.421875 
Q 20.796875 -1.421875 13.15625 6.1875 
Q 5.515625 13.8125 5.515625 26.8125 
Q 5.515625 40.234375 12.765625 48.109375 
Q 20.015625 56 32.328125 56 
Q 43.359375 56 49.78125 48.890625 
Q 56.203125 41.796875 56.203125 29.59375 
z
M 47.21875 32.234375 
Q 47.125 39.59375 43.09375 43.984375 
Q 39.0625 48.390625 32.421875 48.390625 
Q 24.90625 48.390625 20.390625 44.140625 
Q 15.875 39.890625 15.1875 32.171875 
z
" id="DejaVuSans-101"/>
    </defs>
    <g transform="translate(192.646875 28.56)scale(0.12 -0.12)">
     <use xlink:href="#DejaVuSans-99"/>
     <use x="54.980469" xlink:href="#DejaVuSans-111"/>
     <use x="116.162109" xlink:href="#DejaVuSans-110"/>
     <use x="179.541016" xlink:href="#DejaVuSans-116"/>
     <use x="218.75" xlink:href="#DejaVuSans-114"/>
     <use x="259.832031" xlink:href="#DejaVuSans-111"/>
     <use x="321.013672" xlink:href="#DejaVuSans-108"/>
     <use x="348.796875" xlink:href="#DejaVuSans-108"/>
     <use x="376.580078" xlink:href="#DejaVuSans-101"/>
     <use x="438.103516" xlink:href="#DejaVuSans-114"/>
    </g>
   </g>
  </g>
 </g>
 <defs>
  <clipPath id="p12e8813b87">
   <rect height="217.44" width="334.8" x="54" y="34.56"/>
  </clipPath>
 </defs>
</svg>
