<?xml version="1.0" encoding="utf-8" standalone="no"?>
<!DOCTYPE svg PUBLIC "-//W3C//DTD SVG 1.1//EN"
  "http://www.w3.org/Graphics/SVG/1.1/DTD/svg11.dtd">
<!-- Created with matplotlib (https://matplotlib.org/) -->
<svg height="288pt" version="1.1" viewBox="0 0 432 288" width="432pt" xmlns="http://www.w3.org/2000/svg" xmlns:xlink="http://www.w3.org/1999/xlink">
 <defs>
  <style type="text/css">
*{stroke-linecap:butt;stroke-linejoin:round;}
  </style>
 </defs>
 <g id="figure_1">
  <g id="patch_1">
   <path d="M 0 288 
L 432 288 
L 432 0 
L 0 0 
z
" style="fill:#ffffff;"/>
  </g>
  <g id="axes_1">
   <g id="patch_2">
    <path d="M 54 252 
L 388.8 252 
L 388.8 34.56 
L 54 34.56 
z
" style="fill:#ffffff;"/>
   </g>
   <g id="matplotlib.axis_1">
    <g id="xtick_1">
     <g id="line2d_1">
      <path clip-path="url(#pf16aef23ea)" d="M 69.218182 252 
L 69.218182 34.56 
" style="fill:none;stroke:#b0b0b0;stroke-linecap:square;stroke-width:0.8;"/>
     </g>
     <g id="line2d_2">
      <defs>
       <path d="M 0 0 
L 0 3.5 
" id="m8f02c2018b" style="stroke:#000000;stroke-width:0.8;"/>
      </defs>
      <g>
       <use style="stroke:#000000;stroke-width:0.8;" x="69.218182" xlink:href="#m8f02c2018b" y="252"/>
      </g>
     </g>
     <g id="text_1">
      <!-- 0.0 -->
      <defs>
       <path d="M 31.78125 66.40625 
Q 24.171875 66.40625 20.328125 58.90625 
Q 16.5 51.421875 16.5 36.375 
Q 16.5 21.390625 20.328125 13.890625 
Q 24.171875 6.390625 31.78125 6.390625 
Q 39.453125 6.390625 43.28125 13.890625 
Q 47.125 21.390625 47.125 36.375 
Q 47.125 51.421875 43.28125 58.90625 
Q 39.453125 66.40625 31.78125 66.40625 
z
M 31.78125 74.21875 
Q 44.046875 74.21875 50.515625 64.515625 
Q 56.984375 54.828125 56.984375 36.375 
Q 56.984375 17.96875 50.515625 8.265625 
Q 44.046875 -1.421875 31.78125 -1.421875 
Q 19.53125 -1.421875 13.0625 8.265625 
Q 6.59375 17.96875 6.59375 36.375 
Q 6.59375 54.828125 13.0625 64.515625 
Q 19.53125 74.21875 31.78125 74.21875 
z
" id="DejaVuSans-48"/>
       <path d="M 10.6875 12.40625 
L 21 12.40625 
L 21 0 
L 10.6875 0 
z
" id="DejaVuSans-46"/>
      </defs>
      <g transform="translate(61.266619 266.598437)scale(0.1 -0.1)">
       <use xlink:href="#DejaVuSans-48"/>
       <use x="63.623047" xlink:href="#DejaVuSans-46"/>
       <use x="95.410156" xlink:href="#DejaVuSans-48"/>
      </g>
     </g>
    </g>
    <g id="xtick_2">
     <g id="line2d_3">
      <path clip-path="url(#pf16aef23ea)" d="M 130.09088 252 
L 130.09088 34.56 
" style="fill:none;stroke:#b0b0b0;stroke-linecap:square;stroke-width:0.8;"/>
     </g>
     <g id="line2d_4">
      <g>
       <use style="stroke:#000000;stroke-width:0.8;" x="130.09088" xlink:href="#m8f02c2018b" y="252"/>
      </g>
     </g>
     <g id="text_2">
      <!-- 0.2 -->
      <defs>
       <path d="M 19.1875 8.296875 
L 53.609375 8.296875 
L 53.609375 0 
L 7.328125 0 
L 7.328125 8.296875 
Q 12.9375 14.109375 22.625 23.890625 
Q 32.328125 33.6875 34.8125 36.53125 
Q 39.546875 41.84375 41.421875 45.53125 
Q 43.3125 49.21875 43.3125 52.78125 
Q 43.3125 58.59375 39.234375 62.25 
Q 35.15625 65.921875 28.609375 65.921875 
Q 23.96875 65.921875 18.8125 64.3125 
Q 13.671875 62.703125 7.8125 59.421875 
L 7.8125 69.390625 
Q 13.765625 71.78125 18.9375 73 
Q 24.125 74.21875 28.421875 74.21875 
Q 39.75 74.21875 46.484375 68.546875 
Q 53.21875 62.890625 53.21875 53.421875 
Q 53.21875 48.921875 51.53125 44.890625 
Q 49.859375 40.875 45.40625 35.40625 
Q 44.1875 33.984375 37.640625 27.21875 
Q 31.109375 20.453125 19.1875 8.296875 
z
" id="DejaVuSans-50"/>
      </defs>
      <g transform="translate(122.139318 266.598437)scale(0.1 -0.1)">
       <use xlink:href="#DejaVuSans-48"/>
       <use x="63.623047" xlink:href="#DejaVuSans-46"/>
       <use x="95.410156" xlink:href="#DejaVuSans-50"/>
      </g>
     </g>
    </g>
    <g id="xtick_3">
     <g id="line2d_5">
      <path clip-path="url(#pf16aef23ea)" d="M 190.963578 252 
L 190.963578 34.56 
" style="fill:none;stroke:#b0b0b0;stroke-linecap:square;stroke-width:0.8;"/>
     </g>
     <g id="line2d_6">
      <g>
       <use style="stroke:#000000;stroke-width:0.8;" x="190.963578" xlink:href="#m8f02c2018b" y="252"/>
      </g>
     </g>
     <g id="text_3">
      <!-- 0.4 -->
      <defs>
       <path d="M 37.796875 64.3125 
L 12.890625 25.390625 
L 37.796875 25.390625 
z
M 35.203125 72.90625 
L 47.609375 72.90625 
L 47.609375 25.390625 
L 58.015625 25.390625 
L 58.015625 17.1875 
L 47.609375 17.1875 
L 47.609375 0 
L 37.796875 0 
L 37.796875 17.1875 
L 4.890625 17.1875 
L 4.890625 26.703125 
z
" id="DejaVuSans-52"/>
      </defs>
      <g transform="translate(183.012016 266.598437)scale(0.1 -0.1)">
       <use xlink:href="#DejaVuSans-48"/>
       <use x="63.623047" xlink:href="#DejaVuSans-46"/>
       <use x="95.410156" xlink:href="#DejaVuSans-52"/>
      </g>
     </g>
    </g>
    <g id="xtick_4">
     <g id="line2d_7">
      <path clip-path="url(#pf16aef23ea)" d="M 251.836277 252 
L 251.836277 34.56 
" style="fill:none;stroke:#b0b0b0;stroke-linecap:square;stroke-width:0.8;"/>
     </g>
     <g id="line2d_8">
      <g>
       <use style="stroke:#000000;stroke-width:0.8;" x="251.836277" xlink:href="#m8f02c2018b" y="252"/>
      </g>
     </g>
     <g id="text_4">
      <!-- 0.6 -->
      <defs>
       <path d="M 33.015625 40.375 
Q 26.375 40.375 22.484375 35.828125 
Q 18.609375 31.296875 18.609375 23.390625 
Q 18.609375 15.53125 22.484375 10.953125 
Q 26.375 6.390625 33.015625 6.390625 
Q 39.65625 6.390625 43.53125 10.953125 
Q 47.40625 15.53125 47.40625 23.390625 
Q 47.40625 31.296875 43.53125 35.828125 
Q 39.65625 40.375 33.015625 40.375 
z
M 52.59375 71.296875 
L 52.59375 62.3125 
Q 48.875 64.0625 45.09375 64.984375 
Q 41.3125 65.921875 37.59375 65.921875 
Q 27.828125 65.921875 22.671875 59.328125 
Q 17.53125 52.734375 16.796875 39.40625 
Q 19.671875 43.65625 24.015625 45.921875 
Q 28.375 48.1875 33.59375 48.1875 
Q 44.578125 48.1875 50.953125 41.515625 
Q 57.328125 34.859375 57.328125 23.390625 
Q 57.328125 12.15625 50.6875 5.359375 
Q 44.046875 -1.421875 33.015625 -1.421875 
Q 20.359375 -1.421875 13.671875 8.265625 
Q 6.984375 17.96875 6.984375 36.375 
Q 6.984375 53.65625 15.1875 63.9375 
Q 23.390625 74.21875 37.203125 74.21875 
Q 40.921875 74.21875 44.703125 73.484375 
Q 48.484375 72.75 52.59375 71.296875 
z
" id="DejaVuSans-54"/>
      </defs>
      <g transform="translate(243.884714 266.598437)scale(0.1 -0.1)">
       <use xlink:href="#DejaVuSans-48"/>
       <use x="63.623047" xlink:href="#DejaVuSans-46"/>
       <use x="95.410156" xlink:href="#DejaVuSans-54"/>
      </g>
     </g>
    </g>
    <g id="xtick_5">
     <g id="line2d_9">
      <path clip-path="url(#pf16aef23ea)" d="M 312.708975 252 
L 312.708975 34.56 
" style="fill:none;stroke:#b0b0b0;stroke-linecap:square;stroke-width:0.8;"/>
     </g>
     <g id="line2d_10">
      <g>
       <use style="stroke:#000000;stroke-width:0.8;" x="312.708975" xlink:href="#m8f02c2018b" y="252"/>
      </g>
     </g>
     <g id="text_5">
      <!-- 0.8 -->
      <defs>
       <path d="M 31.78125 34.625 
Q 24.75 34.625 20.71875 30.859375 
Q 16.703125 27.09375 16.703125 20.515625 
Q 16.703125 13.921875 20.71875 10.15625 
Q 24.75 6.390625 31.78125 6.390625 
Q 38.8125 6.390625 42.859375 10.171875 
Q 46.921875 13.96875 46.921875 20.515625 
Q 46.921875 27.09375 42.890625 30.859375 
Q 38.875 34.625 31.78125 34.625 
z
M 21.921875 38.8125 
Q 15.578125 40.375 12.03125 44.71875 
Q 8.5 49.078125 8.5 55.328125 
Q 8.5 64.0625 14.71875 69.140625 
Q 20.953125 74.21875 31.78125 74.21875 
Q 42.671875 74.21875 48.875 69.140625 
Q 55.078125 64.0625 55.078125 55.328125 
Q 55.078125 49.078125 51.53125 44.71875 
Q 48 40.375 41.703125 38.8125 
Q 48.828125 37.15625 52.796875 32.3125 
Q 56.78125 27.484375 56.78125 20.515625 
Q 56.78125 9.90625 50.3125 4.234375 
Q 43.84375 -1.421875 31.78125 -1.421875 
Q 19.734375 -1.421875 13.25 4.234375 
Q 6.78125 9.90625 6.78125 20.515625 
Q 6.78125 27.484375 10.78125 32.3125 
Q 14.796875 37.15625 21.921875 38.8125 
z
M 18.3125 54.390625 
Q 18.3125 48.734375 21.84375 45.5625 
Q 25.390625 42.390625 31.78125 42.390625 
Q 38.140625 42.390625 41.71875 45.5625 
Q 45.3125 48.734375 45.3125 54.390625 
Q 45.3125 60.0625 41.71875 63.234375 
Q 38.140625 66.40625 31.78125 66.40625 
Q 25.390625 66.40625 21.84375 63.234375 
Q 18.3125 60.0625 18.3125 54.390625 
z
" id="DejaVuSans-56"/>
      </defs>
      <g transform="translate(304.757412 266.598437)scale(0.1 -0.1)">
       <use xlink:href="#DejaVuSans-48"/>
       <use x="63.623047" xlink:href="#DejaVuSans-46"/>
       <use x="95.410156" xlink:href="#DejaVuSans-56"/>
      </g>
     </g>
    </g>
    <g id="xtick_6">
     <g id="line2d_11">
      <path clip-path="url(#pf16aef23ea)" d="M 373.581673 252 
L 373.581673 34.56 
" style="fill:none;stroke:#b0b0b0;stroke-linecap:square;stroke-width:0.8;"/>
     </g>
     <g id="line2d_12">
      <g>
       <use style="stroke:#000000;stroke-width:0.8;" x="373.581673" xlink:href="#m8f02c2018b" y="252"/>
      </g>
     </g>
     <g id="text_6">
      <!-- 1.0 -->
      <defs>
       <path d="M 12.40625 8.296875 
L 28.515625 8.296875 
L 28.515625 63.921875 
L 10.984375 60.40625 
L 10.984375 69.390625 
L 28.421875 72.90625 
L 38.28125 72.90625 
L 38.28125 8.296875 
L 54.390625 8.296875 
L 54.390625 0 
L 12.40625 0 
z
" id="DejaVuSans-49"/>
      </defs>
      <g transform="translate(365.630111 266.598437)scale(0.1 -0.1)">
       <use xlink:href="#DejaVuSans-49"/>
       <use x="63.623047" xlink:href="#DejaVuSans-46"/>
       <use x="95.410156" xlink:href="#DejaVuSans-48"/>
      </g>
     </g>
    </g>
    <g id="text_7">
     <!-- $x_1$ -->
     <defs>
      <path d="M 60.015625 54.6875 
L 34.90625 27.875 
L 50.296875 0 
L 39.984375 0 
L 28.421875 21.6875 
L 8.296875 0 
L -2.59375 0 
L 24.3125 28.8125 
L 10.015625 54.6875 
L 20.3125 54.6875 
L 30.8125 34.90625 
L 49.125 54.6875 
z
" id="DejaVuSans-Oblique-120"/>
     </defs>
     <g transform="translate(216.05 280.276563)scale(0.1 -0.1)">
      <use transform="translate(0 0.3125)" xlink:href="#DejaVuSans-Oblique-120"/>
      <use transform="translate(59.179688 -16.09375)scale(0.7)" xlink:href="#DejaVuSans-49"/>
     </g>
    </g>
   </g>
   <g id="matplotlib.axis_2">
    <g id="ytick_1">
     <g id="line2d_13">
      <path clip-path="url(#pf16aef23ea)" d="M 54 242.116364 
L 388.8 242.116364 
" style="fill:none;stroke:#b0b0b0;stroke-linecap:square;stroke-width:0.8;"/>
     </g>
     <g id="line2d_14">
      <defs>
       <path d="M 0 0 
L -3.5 0 
" id="m3412306edb" style="stroke:#000000;stroke-width:0.8;"/>
      </defs>
      <g>
       <use style="stroke:#000000;stroke-width:0.8;" x="54" xlink:href="#m3412306edb" y="242.116364"/>
      </g>
     </g>
     <g id="text_8">
      <!-- 0 -->
      <g transform="translate(40.6375 245.915582)scale(0.1 -0.1)">
       <use xlink:href="#DejaVuSans-48"/>
      </g>
     </g>
    </g>
    <g id="ytick_2">
     <g id="line2d_15">
      <path clip-path="url(#pf16aef23ea)" d="M 54 197.406458 
L 388.8 197.406458 
" style="fill:none;stroke:#b0b0b0;stroke-linecap:square;stroke-width:0.8;"/>
     </g>
     <g id="line2d_16">
      <g>
       <use style="stroke:#000000;stroke-width:0.8;" x="54" xlink:href="#m3412306edb" y="197.406458"/>
      </g>
     </g>
     <g id="text_9">
      <!-- 2 -->
      <g transform="translate(40.6375 201.205677)scale(0.1 -0.1)">
       <use xlink:href="#DejaVuSans-50"/>
      </g>
     </g>
    </g>
    <g id="ytick_3">
     <g id="line2d_17">
      <path clip-path="url(#pf16aef23ea)" d="M 54 152.696552 
L 388.8 152.696552 
" style="fill:none;stroke:#b0b0b0;stroke-linecap:square;stroke-width:0.8;"/>
     </g>
     <g id="line2d_18">
      <g>
       <use style="stroke:#000000;stroke-width:0.8;" x="54" xlink:href="#m3412306edb" y="152.696552"/>
      </g>
     </g>
     <g id="text_10">
      <!-- 4 -->
      <g transform="translate(40.6375 156.495771)scale(0.1 -0.1)">
       <use xlink:href="#DejaVuSans-52"/>
      </g>
     </g>
    </g>
    <g id="ytick_4">
     <g id="line2d_19">
      <path clip-path="url(#pf16aef23ea)" d="M 54 107.986646 
L 388.8 107.986646 
" style="fill:none;stroke:#b0b0b0;stroke-linecap:square;stroke-width:0.8;"/>
     </g>
     <g id="line2d_20">
      <g>
       <use style="stroke:#000000;stroke-width:0.8;" x="54" xlink:href="#m3412306edb" y="107.986646"/>
      </g>
     </g>
     <g id="text_11">
      <!-- 6 -->
      <g transform="translate(40.6375 111.785865)scale(0.1 -0.1)">
       <use xlink:href="#DejaVuSans-54"/>
      </g>
     </g>
    </g>
    <g id="ytick_5">
     <g id="line2d_21">
      <path clip-path="url(#pf16aef23ea)" d="M 54 63.27674 
L 388.8 63.27674 
" style="fill:none;stroke:#b0b0b0;stroke-linecap:square;stroke-width:0.8;"/>
     </g>
     <g id="line2d_22">
      <g>
       <use style="stroke:#000000;stroke-width:0.8;" x="54" xlink:href="#m3412306edb" y="63.27674"/>
      </g>
     </g>
     <g id="text_12">
      <!-- 8 -->
      <g transform="translate(40.6375 67.075959)scale(0.1 -0.1)">
       <use xlink:href="#DejaVuSans-56"/>
      </g>
     </g>
    </g>
    <g id="text_13">
     <!-- $x_2$ -->
     <g transform="translate(34.557813 148.63)rotate(-90)scale(0.1 -0.1)">
      <use transform="translate(0 0.3125)" xlink:href="#DejaVuSans-Oblique-120"/>
      <use transform="translate(59.179688 -16.09375)scale(0.7)" xlink:href="#DejaVuSans-50"/>
     </g>
    </g>
   </g>
   <g id="line2d_23">
    <path clip-path="url(#pf16aef23ea)" d="M 304.410885 46.208793 
L 319.61836 46.1669 
L 331.315041 45.451849 
L 341.061387 44.593405 
L 356.142343 44.443636 
L 362.738058 45.450933 
L 366.171496 46.539861 
L 368.45901 47.644928 
L 370.163782 48.755623 
L 371.516411 49.868962 
L 372.6334 50.983686 
L 373.581673 52.099264 
" style="fill:none;stroke:#ffa500;stroke-linecap:square;stroke-width:1.5;"/>
   </g>
   <g id="line2d_24">
    <path clip-path="url(#pf16aef23ea)" d="M 371.266512 242.116055 
L 371.267927 240.998308 
L 371.270757 239.88056 
L 371.275002 238.762812 
L 371.280681 237.645065 
L 371.287756 236.527318 
L 371.296264 235.40957 
L 371.306187 234.291822 
L 371.317544 233.174075 
L 371.330298 232.056328 
L 371.344484 230.938581 
L 371.360104 229.820834 
L 371.377139 228.703086 
L 371.395607 227.58534 
L 371.415508 226.467593 
L 371.436824 225.349846 
L 371.459574 224.2321 
L 371.483756 223.114355 
L 371.50939 221.996608 
L 371.536457 220.878863 
L 371.564958 219.761118 
L 371.594891 218.643371 
L 371.626294 217.525627 
L 371.65913 216.40788 
L 371.693417 215.290137 
L 371.729174 214.172393 
L 371.766364 213.054646 
L 371.805042 211.936902 
L 371.845171 210.819158 
L 371.886769 209.701417 
L 371.929837 208.583673 
L 371.974374 207.465929 
L 372.020399 206.348188 
L 372.067912 205.230444 
L 372.116912 204.112703 
L 372.1674 202.994961 
L 372.219375 201.87722 
L 372.272874 200.759479 
L 372.327861 199.64174 
L 372.384372 198.523999 
L 372.442388 197.406261 
L 372.501929 196.288519 
L 372.562993 195.170783 
L 372.625599 194.053042 
L 372.689747 192.935306 
L 372.755419 191.81757 
L 372.822652 190.699834 
L 372.891444 189.582098 
L 372.961797 188.464363 
L 373.033728 187.346627 
L 373.107219 186.228891 
L 373.182307 185.111155 
L 373.258972 183.993424 
L 373.337235 182.875688 
L 373.417094 181.757958 
L 373.498585 180.640227 
L 373.581673 179.522496 
" style="fill:none;stroke:#ffa500;stroke-linecap:square;stroke-width:1.5;"/>
   </g>
   <g id="line2d_25">
    <path clip-path="url(#pf16aef23ea)" d="M 69.218182 242.116364 
L 72.269175 242.116364 
L 75.320168 242.116364 
L 78.371161 242.116364 
L 81.422155 242.116364 
L 84.473148 242.116364 
L 87.52414 242.116364 
L 90.575134 242.116364 
L 93.626127 242.116364 
L 96.67712 242.116364 
L 99.728113 242.116364 
L 102.779106 242.116364 
L 105.830099 242.116364 
L 108.881094 242.116364 
L 111.932087 242.116364 
L 114.98308 242.116364 
L 118.034073 242.116364 
L 121.085066 242.116364 
L 124.136059 242.116364 
L 127.187052 242.116364 
L 130.238045 242.116364 
L 133.289038 242.116364 
L 136.34003 242.116364 
L 139.391023 242.116364 
L 142.442016 242.116364 
L 145.493009 242.116364 
L 148.544007 242.116364 
L 151.594995 242.116364 
L 154.645992 242.116364 
L 157.696981 242.116364 
L 160.747978 242.116364 
L 163.798967 242.116364 
L 166.849964 242.116364 
L 169.900953 242.116364 
L 172.95195 242.116364 
L 176.002938 242.116364 
L 179.053936 242.116364 
L 182.104933 242.116364 
L 185.155922 242.116364 
L 188.206919 242.116364 
L 191.257907 242.116364 
L 194.308905 242.116364 
L 197.359893 242.116364 
L 200.410891 242.116364 
L 203.461879 242.116364 
L 206.512877 242.116364 
L 209.563865 242.116364 
L 212.614862 242.116364 
L 215.665851 242.116364 
L 218.716848 242.116364 
L 221.767837 242.116364 
L 224.818834 242.116364 
L 227.869832 242.116364 
L 230.920811 242.116364 
L 233.971808 242.116364 
L 237.022806 242.116364 
L 240.073803 242.116364 
L 243.124801 242.116364 
L 246.17578 242.116364 
L 249.226777 242.116364 
L 252.277775 242.116364 
L 255.328772 242.116364 
L 258.379752 242.116364 
L 261.430749 242.116364 
L 264.481746 242.116364 
L 267.532744 242.116364 
L 270.583723 242.116364 
L 273.634721 242.116364 
L 276.685718 242.116364 
L 279.736716 242.116364 
L 282.787695 242.116364 
L 285.838692 242.116364 
L 288.88969 242.116364 
L 291.940687 242.116364 
L 294.991685 242.116364 
L 298.042664 242.116364 
L 301.093661 242.116364 
L 304.144659 242.116364 
L 307.195656 242.116364 
L 310.246636 242.116364 
L 313.297633 242.116364 
L 316.348631 242.116364 
L 319.399628 242.116364 
L 322.450607 242.116364 
L 325.501605 242.116364 
L 328.552602 242.116364 
L 331.6036 242.116364 
L 334.654579 242.116364 
L 337.705576 242.116364 
L 340.756574 242.116364 
L 343.807571 242.116364 
L 346.858569 242.116364 
L 349.909548 242.116364 
L 352.960546 242.116364 
L 356.011543 242.116364 
L 359.06254 242.116364 
L 362.11352 242.116364 
L 365.164517 242.116364 
L 368.215515 242.116364 
L 371.266512 242.116364 
" style="fill:none;stroke:#ffa500;stroke-linecap:square;stroke-width:1.5;"/>
   </g>
   <g id="line2d_26">
    <path clip-path="url(#pf16aef23ea)" d="M 288.359904 69.214775 
L 291.403536 71.834496 
L 294.447168 71.834496 
L 297.4908 69.214775 
L 300.534432 60.154906 
L 303.578064 48.257006 
L 304.410885 46.208793 
" style="fill:none;stroke:#ffa500;stroke-linecap:square;stroke-width:1.5;"/>
   </g>
   <g id="line2d_27">
    <path clip-path="url(#pf16aef23ea)" d="M 288.359904 91.569727 
L 288.205139 91.346471 
L 288.050138 91.123204 
L 287.894902 90.899948 
L 287.739448 90.676692 
L 287.583776 90.453436 
L 287.427886 90.23018 
L 287.271815 90.006924 
L 287.115526 89.783667 
L 286.959056 89.560411 
L 286.802422 89.337166 
L 286.645589 89.11391 
L 286.488611 88.890653 
L 286.331487 88.667408 
L 286.174201 88.444152 
L 286.016769 88.220906 
L 285.859228 87.99765 
L 285.701543 87.774404 
L 285.543748 87.551159 
L 285.385845 87.327903 
L 285.227851 87.104657 
L 285.069766 86.881412 
L 284.911608 86.658166 
L 284.75336 86.434921 
L 284.595058 86.211665 
L 284.436683 85.988419 
L 284.278271 85.765174 
L 284.119824 85.541928 
L 283.96134 85.318683 
L 283.802838 85.095437 
L 283.644299 84.872191 
L 283.485779 84.648946 
L 283.327241 84.4257 
L 283.16872 84.202455 
L 283.010218 83.979209 
L 282.851752 83.755964 
L 282.693305 83.532718 
L 282.534893 83.309473 
L 282.376555 83.086217 
L 282.218252 82.862971 
L 282.06004 82.639726 
L 281.901883 82.41648 
L 281.743816 82.193235 
L 281.58584 81.969978 
L 281.427955 81.746733 
L 281.270178 81.523487 
L 281.112511 81.300231 
L 280.95497 81.076986 
L 280.797557 80.85374 
L 280.640288 80.630484 
L 280.483147 80.407239 
L 280.326168 80.183982 
L 280.169335 79.960726 
L 280.012684 79.737481 
L 279.856195 79.514224 
L 279.699888 79.290968 
L 279.543763 79.067712 
L 279.387837 78.844456 
L 279.232092 78.6212 
" style="fill:none;stroke:#ffa500;stroke-linecap:square;stroke-width:1.5;"/>
   </g>
   <g id="line2d_28">
    <path clip-path="url(#pf16aef23ea)" d="M 279.22899 78.6212 
L 279.073481 78.397944 
L 278.918172 78.174687 
L 278.763099 77.951421 
L 278.608243 77.728164 
L 278.453623 77.504908 
L 278.299239 77.281641 
L 278.145091 77.058375 
L 277.991197 76.835118 
L 277.837557 76.611852 
L 277.684171 76.388585 
L 277.531075 76.165318 
L 277.378233 75.942051 
L 277.225663 75.718784 
L 277.073383 75.495517 
L 276.921394 75.27224 
L 276.769695 75.048973 
L 276.618286 74.825696 
L 276.467186 74.602429 
L 276.316394 74.379151 
L 276.16591 74.155874 
L 276.015753 73.932596 
L 275.865905 73.709319 
L 275.716383 73.486041 
L 275.567187 73.262753 
L 275.418336 73.039476 
L 275.269812 72.816187 
L 275.121632 72.59291 
L 274.973798 72.369622 
L 274.826307 72.146334 
L 274.679162 71.923046 
L 274.532379 71.699757 
L 274.385959 71.476469 
L 274.239884 71.25317 
L 274.09419 71.029882 
L 273.94884 70.806583 
L 273.80389 70.583295 
L 273.659284 70.359996 
L 273.515078 70.136698 
L 273.371234 69.913399 
L 273.227771 69.6901 
L 273.084689 69.466791 
L 272.942006 69.243492 
L 272.799687 69.020182 
L 272.657766 68.796873 
L 272.516244 68.573574 
L 272.375103 68.350264 
L 272.234362 68.126955 
L 272.094019 67.903635 
L 271.954076 67.680325 
L 271.814532 67.457016 
L 271.675387 67.233696 
L 271.536641 67.010376 
L 271.398294 66.787056 
L 271.260364 66.563735 
L 271.122834 66.340415 
L 270.985702 66.117095 
L 270.848988 65.893775 
L 270.712673 65.670444 
L 270.576775 65.447124 
L 270.441276 65.223793 
L 270.306195 65.000462 
L 270.171531 64.777132 
L 270.037284 64.553801 
L 269.903436 64.33047 
L 269.770005 64.107129 
L 269.636974 63.883798 
L 269.504378 63.660456 
L 269.372181 63.437126 
L 269.240401 63.213784 
L 269.109021 62.990443 
L 268.978075 62.767101 
L 268.847529 62.54376 
L 268.717401 62.320418 
L 268.587689 62.097056 
L 268.458395 61.873714 
L 268.329499 61.650373 
L 268.201022 61.42701 
L 268.072961 61.203668 
L 267.945317 60.980306 
L 267.818073 60.756964 
L 267.691246 60.533601 
L 267.564818 60.310239 
L 267.438807 60.086897 
L 267.313214 59.863534 
L 267.18802 59.640172 
L 267.063242 59.416809 
L 266.938865 59.193446 
L 266.814904 58.970083 
L 266.691324 58.746721 
L 266.56818 58.523358 
L 266.445416 58.299974 
L 266.32307 58.076611 
L 266.201123 57.853248 
L 266.079575 57.629864 
L 265.958426 57.406501 
L 265.837677 57.183117 
L 265.717326 56.959754 
L 265.597375 56.73637 
L 265.477822 56.512986 
L 265.358669 56.289624 
L 265.239897 56.066239 
L 265.121524 55.842855 
L 265.00355 55.619471 
L 264.885957 55.396087 
L 260.96718 60.154906 
L 257.923548 64.848573 
L 254.879916 71.834496 
L 251.836284 76.200697 
L 248.792634 83.18662 
L 245.749002 90.172543 
L 242.70537 97.158466 
L 239.661738 99.778187 
L 236.618106 104.144389 
L 233.574474 106.76411 
L 230.530823 106.76411 
L 227.487191 106.76411 
L 224.443559 104.144389 
L 221.399927 102.070443 
L 218.356295 97.158466 
L 215.312654 92.792264 
L 212.269022 85.806341 
L 209.22539 78.820418 
L 206.181749 69.214775 
L 203.138117 62.228852 
" style="fill:none;stroke:#ffa500;stroke-linecap:square;stroke-width:1.5;"/>
   </g>
   <g id="line2d_29">
    <path clip-path="url(#pf16aef23ea)" d="M 203.138117 84.583805 
L 203.084137 84.360293 
L 203.030076 84.136781 
L 202.975951 83.913258 
L 202.921744 83.689746 
L 202.867474 83.466234 
L 202.813122 83.242722 
L 202.758706 83.01921 
L 202.704218 82.795687 
L 202.649658 82.572175 
L 202.595025 82.348663 
L 202.540328 82.125151 
L 202.48555 81.901639 
L 202.430708 81.678127 
L 202.375794 81.454615 
L 202.320807 81.231103 
L 202.265757 81.007591 
L 202.210634 80.784069 
L 202.155439 80.560557 
L 202.10018 80.337045 
L 202.044848 80.113533 
L 201.989444 79.890021 
L 201.933977 79.666509 
L 201.878446 79.442997 
L 201.822833 79.219485 
L 201.767166 78.995973 
L 201.711426 78.772461 
L 201.655614 78.548949 
L 201.599738 78.325437 
L 201.543799 78.101925 
L 201.487787 77.878413 
L 201.431712 77.6549 
L 201.375564 77.431388 
L 201.319362 77.207876 
L 201.263087 76.984364 
L 201.206739 76.760852 
L 201.150337 76.537351 
L 201.093863 76.313839 
L 201.037325 76.090327 
L 200.980724 75.866815 
L 200.924059 75.643303 
L 200.86733 75.419791 
L 200.810538 75.196279 
L 200.753683 74.972767 
L 200.696755 74.749255 
L 200.639773 74.525754 
L 200.582727 74.302242 
L 200.525608 74.07873 
L 200.468436 73.855218 
L 200.411199 73.631706 
L 200.353908 73.408204 
L 200.296545 73.184692 
L 200.239118 72.96118 
L 200.181637 72.737668 
L 200.124092 72.514156 
" style="fill:none;stroke:#ffa500;stroke-linecap:square;stroke-width:1.5;"/>
   </g>
   <g id="line2d_30">
    <path clip-path="url(#pf16aef23ea)" d="M 200.094485 72.514156 
L 200.036886 72.290655 
L 199.979232 72.067143 
L 199.921524 71.843631 
L 199.863744 71.620119 
L 199.805909 71.396618 
L 199.748019 71.173106 
L 199.690066 70.949594 
L 199.63205 70.726092 
L 199.573979 70.50258 
L 199.515845 70.279068 
L 199.457656 70.055556 
L 199.399413 69.832055 
L 199.341106 69.608543 
L 199.282745 69.385031 
L 199.224329 69.161529 
L 199.16585 68.938017 
L 199.107317 68.714505 
L 199.048729 68.491004 
L 198.990086 68.267492 
L 198.93139 68.043991 
L 198.872629 67.820479 
L 198.813815 67.596967 
L 198.754955 67.373465 
L 198.696031 67.149953 
L 198.637053 66.926452 
L 198.578021 66.70294 
L 198.518934 66.479428 
L 198.459802 66.255927 
L 198.400606 66.032415 
L 198.341365 65.808913 
L 198.282061 65.585401 
L 198.222711 65.3619 
L 198.163307 65.138388 
L 198.103857 64.914887 
L 198.044344 64.691375 
L 197.984786 64.467873 
L 197.925182 64.244361 
L 197.865523 64.02086 
L 197.805811 63.797348 
L 197.746044 63.573847 
L 197.686231 63.350335 
L 197.626373 63.126823 
L 197.566461 62.903332 
L 197.506504 62.67982 
L 197.446492 62.456308 
L 197.386434 62.232817 
L 197.326332 62.009305 
L 197.266174 61.785793 
L 197.205972 61.562281 
L 197.145724 61.33879 
L 197.085431 61.115278 
L 197.025083 60.891766 
L 196.964699 60.668276 
L 196.904261 60.444764 
L 196.843777 60.221252 
L 196.783248 59.99774 
L 196.722674 59.774249 
L 196.662054 59.550737 
L 196.601389 59.327225 
L 196.540688 59.103734 
L 196.479932 58.880222 
L 196.41914 58.65671 
L 196.358293 58.43322 
L 196.29741 58.209708 
L 196.236482 57.986196 
L 196.175518 57.762705 
L 196.114508 57.539193 
L 196.053453 57.315681 
L 195.992361 57.09219 
L 195.931216 56.868678 
L 195.870043 56.645188 
L 195.808824 56.421676 
L 195.74756 56.198164 
L 195.68626 55.974673 
L 195.624924 55.751161 
L 195.563542 55.527649 
L 195.502124 55.304158 
L 195.440661 55.080646 
L 195.37917 54.857155 
L 190.96358 60.154906 
L 187.919939 64.848573 
L 184.876307 69.214775 
L 181.832675 76.200697 
L 178.789043 80.785209 
L 175.745402 87.771132 
" style="fill:none;stroke:#ffa500;stroke-linecap:square;stroke-width:1.5;"/>
   </g>
   <g id="line2d_31">
    <path clip-path="url(#pf16aef23ea)" d="M 175.745402 110.126085 
L 175.708058 109.902552 
L 175.670677 109.679018 
L 175.633251 109.455485 
L 175.595789 109.231952 
L 175.558282 109.008418 
L 175.520738 108.784885 
L 175.483158 108.561352 
L 175.445532 108.337829 
L 175.40788 108.114296 
L 175.370173 107.890762 
L 175.332438 107.667229 
L 175.294668 107.443696 
L 175.256852 107.220162 
L 175.219 106.996629 
L 175.181111 106.773096 
L 175.143177 106.549562 
L 175.105216 106.326029 
L 175.06721 106.102506 
L 175.029167 105.878973 
L 174.991088 105.65544 
L 174.952973 105.431906 
L 174.914822 105.208373 
L 174.876634 104.98484 
L 174.83841 104.761306 
L 174.800149 104.537773 
L 174.761844 104.31425 
L 174.723511 104.090717 
L 174.685141 103.867184 
L 174.646736 103.64365 
L 174.608294 103.420117 
L 174.569807 103.196584 
L 174.531293 102.973061 
L 174.492742 102.749528 
L 174.454164 102.525994 
L 174.415541 102.302461 
L 174.376881 102.078928 
L 174.338195 101.855394 
L 174.299472 101.631872 
L 174.260712 101.408338 
L 174.221917 101.184805 
L 174.183085 100.961272 
L 174.144226 100.737738 
L 174.105331 100.514205 
L 174.066399 100.290682 
L 174.027431 100.067149 
L 173.988436 99.843616 
L 173.949405 99.620083 
L 173.910346 99.396549 
L 173.871242 99.173027 
L 173.83212 98.949493 
L 173.792953 98.72596 
L 173.753758 98.502427 
L 173.714527 98.278904 
L 173.675269 98.055371 
L 173.635974 97.831837 
L 173.596653 97.608304 
L 173.557295 97.384771 
L 173.51791 97.161248 
L 173.478488 96.937715 
L 173.43904 96.714181 
L 173.399555 96.490648 
L 173.360043 96.267125 
L 173.320494 96.043592 
L 173.280918 95.820059 
L 173.241316 95.596525 
L 173.201676 95.373003 
L 173.16201 95.149469 
L 173.122317 94.925936 
L 173.082587 94.702403 
L 173.04283 94.47888 
L 173.003045 94.255347 
L 172.962218 94.031813 
L 172.918506 93.808291 
L 172.871565 93.584768 
L 172.820978 93.361245 
L 172.766281 93.137733 
L 172.706895 92.914232 
L 172.642157 92.690731 
L 172.571251 92.46724 
L 172.49317 92.243771 
L 172.406699 92.020301 
L 172.310322 91.796864 
L 172.202145 91.573458 
L 172.079744 91.350096 
L 171.940027 91.126775 
L 171.778967 90.903541 
L 171.591248 90.680412 
L 171.369868 90.457465 
L 171.105438 90.234753 
L 170.785558 90.012445 
L 170.39411 89.790756 
L 169.911284 89.570037 
L 169.315337 89.35081 
L 168.587682 89.133747 
L 167.720447 88.919456 
L 166.721568 88.708288 
L 165.611191 88.500147 
L 164.41223 88.294682 
L 163.143288 88.091487 
L 161.816747 87.890286 
L 160.439746 87.690918 
L 159.015685 87.493352 
L 157.545454 87.297608 
L 156.028155 87.103815 
L 154.461566 86.912154 
L 152.842376 86.72287 
L 151.166285 86.536262 
L 149.427986 86.352767 
L 147.621113 86.172863 
L 145.738092 85.997235 
L 143.769977 85.826712 
L 141.706266 85.662404 
L 139.534749 85.50576 
L 137.241526 85.358774 
L 134.811547 85.224163 
L 132.23041 85.105702 
L 129.488947 85.008593 
L 126.593195 84.939752 
L 123.581565 84.907422 
L 120.541996 84.918977 
L 117.602641 84.976997 
L 114.879102 85.076783 
L 112.425721 85.20909 
" style="fill:none;stroke:#ffa500;stroke-linecap:square;stroke-width:1.5;"/>
   </g>
   <g id="line2d_32">
    <path clip-path="url(#pf16aef23ea)" d="M 111.829071 85.20909 
L 109.725807 85.37067 
L 107.844409 85.546394 
L 106.151108 85.732161 
L 104.616142 85.925197 
L 103.214896 86.123648 
L 101.927445 86.326213 
L 100.737693 86.531977 
L 99.632589 86.740267 
L 98.601459 86.950593 
L 97.635491 87.162593 
L 96.727343 87.375957 
L 95.870843 87.590472 
L 95.060753 87.805957 
L 94.292591 88.022274 
L 93.562501 88.239294 
L 92.867131 88.456933 
L 92.203559 88.675104 
L 91.569215 88.893745 
L 90.961829 89.11279 
L 90.379392 89.332209 
L 89.820107 89.551958 
L 89.282361 89.771984 
L 88.764715 89.992277 
L 88.26586 90.212805 
L 87.784618 90.433545 
L 87.319909 90.654477 
L 86.870759 90.87558 
L 86.436273 91.096832 
L 86.015629 91.318245 
L 85.608075 91.539774 
L 85.212916 91.761431 
L 84.829513 91.983206 
L 84.457274 92.205076 
L 84.095648 92.427042 
L 83.744127 92.649094 
L 83.402235 92.871231 
L 83.06953 93.093442 
L 82.7456 93.315718 
L 82.430059 93.538068 
L 82.122545 93.760471 
L 81.82272 93.982928 
L 81.530265 94.205449 
L 81.244882 94.428012 
L 80.966288 94.650618 
L 80.694218 94.873277 
L 80.428421 95.095968 
L 80.168661 95.318702 
L 79.914715 95.541479 
L 79.66637 95.764277 
L 79.423425 95.987117 
L 79.185691 96.209979 
L 78.952987 96.432872 
L 78.72514 96.655798 
L 78.501988 96.878745 
" style="fill:none;stroke:#ffa500;stroke-linecap:square;stroke-width:1.5;"/>
   </g>
   <g id="line2d_33">
    <path clip-path="url(#pf16aef23ea)" d="M 78.349086 96.878745 
L 78.134486 97.101746 
L 77.924121 97.324757 
L 77.717858 97.547789 
L 77.515571 97.770843 
L 77.317138 97.993918 
L 77.122443 98.217014 
L 76.931375 98.440121 
L 76.743828 98.663249 
L 76.559699 98.886388 
L 76.378892 99.109538 
L 76.201311 99.332708 
L 76.026867 99.55589 
L 75.855474 99.779082 
L 75.687048 100.002296 
L 75.52151 100.225509 
L 75.358782 100.448744 
L 75.198792 100.671979 
L 75.041467 100.895235 
L 74.886739 101.118491 
L 74.734541 101.341758 
L 74.584812 101.565046 
L 74.437488 101.788334 
L 74.292511 102.011623 
L 74.149823 102.234932 
L 74.009369 102.458242 
L 73.871096 102.681562 
L 73.734952 102.904882 
L 73.600888 103.128213 
L 73.468855 103.351554 
L 73.338806 103.574906 
L 73.210697 103.798258 
L 73.084484 104.02161 
L 72.960124 104.244973 
L 72.837576 104.468347 
L 72.716802 104.69172 
L 72.597761 104.915093 
L 72.480418 105.138478 
L 72.364735 105.361862 
L 72.250678 105.585256 
L 72.138213 105.808651 
L 72.027306 106.032057 
L 71.917925 106.255462 
L 71.81004 106.478867 
L 71.70362 106.702283 
L 71.598636 106.9257 
L 71.495058 107.149116 
L 71.39286 107.372542 
L 71.292014 107.595969 
L 71.192493 107.819396 
L 71.094273 108.042833 
L 70.997328 108.266271 
L 70.901634 108.489708 
L 70.807167 108.713145 
L 70.713905 108.936593 
L 70.621825 109.160041 
L 70.530905 109.383489 
L 70.441124 109.606948 
L 70.352462 109.830396 
L 70.264898 110.053855 
L 70.178412 110.277314 
L 70.092985 110.500772 
L 70.008599 110.724242 
L 69.925236 110.9477 
L 69.842877 111.17117 
L 69.761505 111.394639 
L 69.681103 111.618109 
L 69.601654 111.841589 
L 69.523143 112.065058 
L 69.445554 112.288538 
L 69.368871 112.512018 
L 69.293078 112.735498 
" style="fill:none;stroke:#ffa500;stroke-linecap:square;stroke-width:1.5;"/>
   </g>
   <g id="line2d_34">
    <path clip-path="url(#pf16aef23ea)" d="M 200.094485 90.102679 
L 200.150923 90.326191 
L 200.207316 90.549703 
L 200.263664 90.773215 
L 200.319966 90.996727 
L 200.376222 91.220239 
L 200.432434 91.443751 
L 200.488591 91.667263 
L 200.544702 91.890775 
L 200.600769 92.114288 
L 200.656789 92.3378 
L 200.712756 92.561312 
L 200.768668 92.784824 
L 200.824544 93.008336 
L 200.880356 93.231848 
L 200.936123 93.45536 
L 200.991844 93.678872 
L 201.047511 93.902384 
L 201.103124 94.125896 
L 201.158682 94.349408 
L 201.214195 94.57292 
L 201.269654 94.796432 
L 201.325058 95.019944 
L 201.380408 95.243456 
L 201.435703 95.466968 
L 201.490953 95.69048 
L 201.546139 95.913992 
L 201.601271 96.137504 
L 201.656349 96.361016 
L 201.711372 96.584528 
L 201.76634 96.80805 
L 201.821246 97.031562 
L 201.876105 97.255074 
L 201.930902 97.478586 
L 201.985635 97.702098 
L 202.040322 97.92561 
L 202.094946 98.149122 
L 202.149506 98.372634 
L 202.204013 98.596157 
L 202.258455 98.819669 
L 202.312843 99.043181 
L 202.367177 99.266693 
L 202.421438 99.490205 
L 202.475645 99.713717 
L 202.529797 99.93724 
L 202.583877 100.160752 
L 202.637902 100.384264 
L 202.691864 100.607776 
L 202.745762 100.831298 
L 202.799597 101.05481 
L 202.853378 101.278322 
L 202.907086 101.501834 
L 202.96073 101.725357 
L 203.01432 101.948869 
L 203.067837 102.172381 
L 203.121291 102.395893 
" style="fill:none;stroke:#800080;stroke-linecap:square;stroke-width:1.5;"/>
   </g>
   <g id="line2d_35">
    <path clip-path="url(#pf16aef23ea)" d="M 203.121291 102.395893 
L 203.175316 102.619416 
L 203.229278 102.842928 
L 203.283176 103.06644 
L 203.337011 103.289952 
L 203.390783 103.513474 
L 203.444481 103.736987 
L 203.498126 103.960499 
L 203.551698 104.184011 
L 203.605206 104.407533 
L 203.658642 104.631045 
L 203.712023 104.854557 
L 203.765332 105.078069 
L 203.818568 105.301592 
L 203.87174 105.525104 
L 203.92485 105.748616 
L 203.977886 105.972139 
L 204.03085 106.195651 
L 204.083751 106.419163 
L 204.136588 106.642685 
L 204.189352 106.866197 
L 204.242044 107.08972 
L 204.294664 107.313232 
L 204.34722 107.536744 
L 204.399703 107.760267 
L 204.452114 107.983779 
L 204.504452 108.207301 
L 204.556717 108.430813 
L 204.608919 108.654325 
L 204.661049 108.877848 
L 204.713097 109.10136 
L 204.765081 109.324883 
L 204.816993 109.548395 
L 204.868823 109.771917 
L 204.92059 109.995429 
L 204.972275 110.218952 
L 205.023888 110.442464 
L 205.075437 110.665987 
L 205.126904 110.889499 
L 205.17829 111.113021 
L 205.229612 111.336533 
L 205.280853 111.560056 
L 205.332021 111.783568 
L 205.383107 112.007091 
L 205.434121 112.230613 
L 205.485062 112.454125 
L 205.535931 112.677648 
L 205.586709 112.90116 
L 205.637423 113.124683 
L 205.688056 113.348205 
L 205.738607 113.571717 
L 205.789086 113.79524 
L 205.839483 114.018763 
L 205.889808 114.242275 
L 205.94005 114.465797 
L 205.990212 114.68932 
L 206.0403 114.912832 
L 206.090307 115.136355 
L 206.140232 115.359877 
" style="fill:none;stroke:#800080;stroke-linecap:square;stroke-width:1.5;"/>
   </g>
   <g id="line2d_36">
    <path clip-path="url(#pf16aef23ea)" d="M 206.140232 115.359877 
L 206.208209 115.583368 
L 206.276121 115.806859 
L 206.34397 116.030349 
L 206.411765 116.253851 
L 206.479496 116.477341 
L 206.547164 116.700832 
L 206.614777 116.924334 
L 206.682318 117.147824 
L 206.749795 117.371326 
L 206.817209 117.594816 
L 206.884559 117.818307 
L 206.951846 118.041808 
L 207.01906 118.265299 
L 207.086211 118.48879 
L 207.153289 118.712291 
L 207.220294 118.935782 
L 207.287227 119.159283 
L 207.354097 119.382774 
L 207.420894 119.606275 
L 207.487618 119.829766 
L 207.554261 120.053267 
L 207.62084 120.276758 
L 207.687338 120.500259 
L 207.753763 120.72375 
L 207.820106 120.947251 
L 207.886377 121.170742 
L 207.952575 121.394243 
L 208.018692 121.617734 
L 208.084727 121.841235 
L 208.15068 122.064737 
L 208.216552 122.288227 
L 208.282342 122.511729 
L 208.348059 122.735219 
L 208.413686 122.958721 
L 208.479231 123.182222 
L 208.544686 123.405713 
L 208.610068 123.629214 
L 208.67535 123.852715 
L 208.740559 124.076217 
L 208.805678 124.299707 
L 208.870706 124.523209 
L 208.935644 124.74671 
L 209.000499 124.970211 
L 209.065265 125.193702 
L 209.12993 125.417204 
" style="fill:none;stroke:#800080;stroke-linecap:square;stroke-width:1.5;"/>
   </g>
   <g id="line2d_37">
    <path clip-path="url(#pf16aef23ea)" d="M 209.12993 125.417204 
L 209.199103 125.640694 
L 209.268186 125.864185 
L 209.337178 126.087676 
L 209.406079 126.311177 
L 209.474881 126.534668 
L 209.543601 126.758158 
L 209.612212 126.981649 
L 209.680741 127.20514 
L 209.749171 127.428641 
L 209.817501 127.652132 
L 209.885731 127.875622 
L 209.95387 128.099113 
L 210.02191 128.322614 
L 210.089841 128.546105 
L 210.157681 128.769596 
L 210.225421 128.993086 
L 210.293053 129.216588 
L 210.360584 129.440079 
L 210.428016 129.66358 
L 210.495339 129.887071 
L 210.562562 130.110561 
L 210.629677 130.334063 
L 210.696682 130.557553 
L 210.763588 130.781055 
L 210.830385 131.004545 
L 210.897073 131.228047 
L 210.963652 131.451537 
L 211.030123 131.675039 
L 211.096484 131.898529 
L 211.162728 132.122031 
L 211.228872 132.345521 
L 211.294898 132.569023 
L 211.360806 132.792513 
L 211.426605 133.016015 
L 211.492295 133.239516 
L 211.557867 133.463007 
L 211.623322 133.686508 
L 211.688667 133.91001 
L 211.753895 134.1335 
L 211.818996 134.357002 
L 211.883988 134.580503 
L 211.948862 134.804004 
L 212.013618 135.027495 
L 212.078256 135.250996 
L 212.142767 135.474498 
" style="fill:none;stroke:#800080;stroke-linecap:square;stroke-width:1.5;"/>
   </g>
   <g id="line2d_38">
    <path clip-path="url(#pf16aef23ea)" d="M 212.142767 135.474498 
L 212.211033 135.697988 
L 212.279172 135.92149 
L 212.347185 136.14498 
L 212.41507 136.368471 
L 212.482838 136.591962 
L 212.550469 136.815463 
L 212.617974 137.038954 
L 212.685351 137.262455 
L 212.752592 137.485946 
L 212.819707 137.709437 
L 212.886694 137.932938 
L 212.953546 138.156429 
L 213.02027 138.37993 
L 213.086858 138.603421 
L 213.15332 138.826922 
L 213.219636 139.050413 
L 213.285825 139.273914 
L 213.351878 139.497405 
L 213.417795 139.720906 
L 213.483585 139.944407 
L 213.54923 140.167898 
L 213.614739 140.391399 
L 213.680103 140.614901 
L 213.74534 140.838391 
L 213.810431 141.061893 
L 213.875387 141.285394 
L 213.940206 141.508895 
L 214.004881 141.732386 
L 214.06941 141.955887 
L 214.133803 142.179389 
L 214.198051 142.40289 
L 214.262163 142.626392 
L 214.32613 142.849893 
L 214.389952 143.073384 
L 214.453637 143.296885 
L 214.517169 143.520386 
L 214.580564 143.743888 
L 214.643805 143.967389 
L 214.70691 144.19089 
L 214.769861 144.414392 
L 214.832676 144.637893 
L 214.895337 144.861405 
L 214.957852 145.084906 
L 215.020223 145.308408 
L 215.082439 145.531909 
L 215.14451 145.75541 
" style="fill:none;stroke:#800080;stroke-linecap:square;stroke-width:1.5;"/>
   </g>
   <g id="line2d_39">
    <path clip-path="url(#pf16aef23ea)" d="M 215.14451 145.75541 
L 215.213792 145.978901 
L 215.282902 146.202392 
L 215.351849 146.425882 
L 215.420632 146.649384 
L 215.489234 146.872875 
L 215.557682 147.096365 
L 215.625949 147.319856 
L 215.694052 147.543347 
L 215.761982 147.766848 
L 215.82975 147.990339 
L 215.897336 148.213829 
L 215.964759 148.437331 
L 216.032 148.660821 
L 216.099078 148.884323 
L 216.165984 149.107813 
L 216.232708 149.331315 
L 216.29926 149.554805 
L 216.365649 149.778307 
L 216.431847 150.001797 
L 216.497882 150.225299 
L 216.563736 150.448789 
L 216.629417 150.672291 
L 216.694926 150.895792 
L 216.760254 151.119283 
L 216.8254 151.342784 
L 216.890373 151.566286 
L 216.955175 151.789787 
L 217.019795 152.013278 
L 217.084233 152.236779 
L 217.14849 152.46028 
L 217.212575 152.683782 
L 217.276478 152.907283 
L 217.340209 153.130779 
L 217.40375 153.35428 
L 217.467118 153.577782 
L 217.530305 153.801283 
L 217.59331 154.024784 
L 217.656134 154.248286 
L 217.718777 154.471792 
L 217.781238 154.695294 
L 217.843517 154.918795 
L 217.905616 155.142296 
L 217.967533 155.365803 
L 218.029268 155.589304 
L 218.090822 155.812811 
L 218.152186 156.036312 
" style="fill:none;stroke:#800080;stroke-linecap:square;stroke-width:1.5;"/>
   </g>
   <g id="line2d_40">
    <path clip-path="url(#pf16aef23ea)" d="M 218.152186 156.036312 
L 218.222874 156.259803 
L 218.293335 156.483294 
L 218.363579 156.706779 
L 218.433596 156.93027 
L 218.503396 157.153761 
L 218.572977 157.377251 
L 218.642341 157.600747 
L 218.711478 157.824238 
L 218.780398 158.047729 
L 218.849091 158.271219 
L 218.917566 158.494715 
L 218.985823 158.718206 
L 219.053853 158.941702 
L 219.121657 159.165198 
L 219.189243 159.388689 
L 219.256612 159.612185 
L 219.323753 159.835681 
L 219.390995 160.059177 
L 219.458372 160.282668 
L 219.525895 160.506164 
L 219.593562 160.72966 
L 219.661366 160.95315 
L 219.729306 161.176646 
L 219.797391 161.400142 
L 219.865612 161.623633 
L 219.933978 161.847129 
L 220.002489 162.07062 
L 220.071128 162.29411 
L 220.139911 162.517606 
L 220.20884 162.741097 
L 220.277904 162.964588 
L 220.347105 163.188078 
L 220.416451 163.411574 
L 220.485933 163.635065 
L 220.55555 163.858556 
L 220.625314 164.082047 
L 220.695213 164.305537 
L 220.765248 164.529028 
L 220.835428 164.752519 
L 220.905735 164.976004 
L 220.976188 165.199495 
L 221.046785 165.422985 
L 221.11751 165.646476 
L 221.18838 165.869961 
" style="fill:none;stroke:#800080;stroke-linecap:square;stroke-width:1.5;"/>
   </g>
   <g id="line2d_41">
    <path clip-path="url(#pf16aef23ea)" d="M 221.18838 165.869961 
L 221.278942 166.093415 
L 221.369813 166.316863 
L 221.460992 166.540311 
L 221.552479 166.763759 
L 221.644275 166.987207 
L 221.736397 167.210655 
L 221.82881 167.434103 
L 221.921549 167.657551 
L 222.014615 167.880994 
L 222.107971 168.104437 
L 222.201672 168.327879 
L 222.295681 168.551322 
L 222.389999 168.774765 
L 222.484643 168.998207 
L 222.579613 169.22165 
L 222.67491 169.445088 
L 222.770534 169.66853 
L 222.866466 169.891968 
L 222.962743 170.115405 
L 223.059328 170.338842 
L 223.156258 170.562274 
L 223.253515 170.785712 
L 223.351098 171.009149 
L 223.449025 171.232581 
L 223.54728 171.456013 
L 223.645861 171.679445 
L 223.744786 171.902878 
L 223.844056 172.12631 
L 223.943653 172.349736 
L 224.043594 172.573168 
L 224.143862 172.796595 
" style="fill:none;stroke:#800080;stroke-linecap:square;stroke-width:1.5;"/>
   </g>
   <g id="line2d_42">
    <path clip-path="url(#pf16aef23ea)" d="M 224.143862 172.796595 
L 224.268803 173.019958 
L 224.394396 173.243315 
L 224.520661 173.466673 
L 224.647579 173.690025 
L 224.775149 173.913382 
L 224.903428 174.136729 
L 225.032359 174.360081 
L 225.161998 174.583428 
L 225.292327 174.806769 
L 225.423344 175.030111 
L 225.555088 175.253452 
L 225.687521 175.476794 
L 225.820697 175.700125 
L 225.954581 175.923461 
L 226.089191 176.146791 
L 226.224545 176.370117 
L 226.360642 176.593442 
L 226.497501 176.816768 
L 226.635104 177.040088 
L 226.773469 177.263408 
L 226.912615 177.486723 
L 227.05254 177.710038 
" style="fill:none;stroke:#800080;stroke-linecap:square;stroke-width:1.5;"/>
   </g>
   <g id="line2d_43">
    <path clip-path="url(#pf16aef23ea)" d="M 227.05254 177.710038 
L 227.240631 177.933161 
L 227.430481 178.156273 
L 227.622146 178.37938 
L 227.815643 178.602476 
L 228.011027 178.825567 
L 228.208315 179.048642 
L 228.407563 179.271712 
L 228.608806 179.494776 
L 228.8121 179.717824 
L 229.017461 179.940867 
L 229.224927 180.163894 
L 229.434588 180.386911 
L 229.646463 180.609922 
L 229.860587 180.832917 
L 230.077051 181.055901 
" style="fill:none;stroke:#800080;stroke-linecap:square;stroke-width:1.5;"/>
   </g>
   <g id="line2d_44">
    <path clip-path="url(#pf16aef23ea)" d="M 230.077051 181.055901 
L 230.356901 181.278502 
L 230.641432 181.50107 
L 230.930807 181.723607 
L 231.225243 181.946112 
L 231.52494 182.168574 
L 231.830116 182.390998 
L 232.141007 182.613375 
L 232.457866 182.835709 
L 232.780965 183.057995 
L 233.110614 183.280233 
" style="fill:none;stroke:#800080;stroke-linecap:square;stroke-width:1.5;"/>
   </g>
   <g id="line2d_45">
    <path clip-path="url(#pf16aef23ea)" d="M 233.110614 183.280233 
L 233.625034 183.500564 
L 234.161858 183.720611 
L 234.723718 183.940318 
L 235.313842 184.159624 
L 235.936149 184.378452 
" style="fill:none;stroke:#800080;stroke-linecap:square;stroke-width:1.5;"/>
   </g>
   <g id="line2d_46">
    <path clip-path="url(#pf16aef23ea)" d="M 235.936149 184.378452 
L 236.904868 184.590376 
L 238.00016 184.798949 
" style="fill:none;stroke:#800080;stroke-linecap:square;stroke-width:1.5;"/>
   </g>
   <g id="line2d_47">
    <path clip-path="url(#pf16aef23ea)" d="M 238.00016 184.798949 
L 241.026049 184.823056 
" style="fill:none;stroke:#800080;stroke-linecap:square;stroke-width:1.5;"/>
   </g>
   <g id="line2d_48">
    <path clip-path="url(#pf16aef23ea)" d="M 241.026049 184.823056 
L 241.948797 184.610028 
L 242.821765 184.395869 
L 243.651665 184.180789 
" style="fill:none;stroke:#800080;stroke-linecap:square;stroke-width:1.5;"/>
   </g>
   <g id="line2d_49">
    <path clip-path="url(#pf16aef23ea)" d="M 243.651665 184.180789 
L 244.356897 183.963327 
L 245.040214 183.74548 
L 245.703213 183.527298 
L 246.347362 183.308817 
" style="fill:none;stroke:#800080;stroke-linecap:square;stroke-width:1.5;"/>
   </g>
   <g id="line2d_50">
    <path clip-path="url(#pf16aef23ea)" d="M 246.347362 183.308817 
L 246.78742 183.087613 
L 247.223868 182.866377 
L 247.656632 182.645098 
L 248.085733 182.423782 
L 248.511114 182.202423 
L 248.932795 181.981033 
L 249.350738 181.759599 
" style="fill:none;stroke:#800080;stroke-linecap:square;stroke-width:1.5;"/>
   </g>
   <g id="line2d_51">
    <path clip-path="url(#pf16aef23ea)" d="M 249.350738 181.759599 
L 249.709522 181.537606 
L 250.066565 181.315603 
L 250.421811 181.093583 
L 250.775207 180.871542 
L 251.126734 180.64949 
L 251.476375 180.427417 
L 251.824075 180.205334 
L 252.169833 179.983234 
" style="fill:none;stroke:#800080;stroke-linecap:square;stroke-width:1.5;"/>
   </g>
   <g id="line2d_52">
    <path clip-path="url(#pf16aef23ea)" d="M 252.169833 179.983234 
L 252.48544 179.760889 
L 252.799814 179.538534 
L 253.112918 179.316168 
L 253.424733 179.093796 
L 253.735225 178.871414 
L 254.044374 178.649022 
L 254.352162 178.426618 
L 254.658572 178.204204 
L 254.963566 177.981779 
" style="fill:none;stroke:#800080;stroke-linecap:square;stroke-width:1.5;"/>
   </g>
   <g id="line2d_53">
    <path clip-path="url(#pf16aef23ea)" d="M 254.963566 177.981779 
L 255.276779 177.759413 
L 255.588304 177.537042 
L 255.898161 177.314655 
L 256.20633 177.092251 
L 256.512794 176.869837 
L 256.817571 176.647412 
L 257.120642 176.424972 
L 257.422027 176.20252 
L 257.721724 175.980058 
" style="fill:none;stroke:#800080;stroke-linecap:square;stroke-width:1.5;"/>
   </g>
   <g id="line2d_54">
    <path clip-path="url(#pf16aef23ea)" d="M 257.721724 175.980058 
L 258.07561 175.758028 
L 258.425994 175.53596 
L 258.772968 175.313871 
L 259.116568 175.09175 
L 259.456866 174.869603 
L 259.793952 174.647429 
L 260.127883 174.425228 
L 260.458711 174.203006 
" style="fill:none;stroke:#800080;stroke-linecap:square;stroke-width:1.5;"/>
   </g>
   <g id="line2d_55">
    <path clip-path="url(#pf16aef23ea)" d="M 260.458711 174.203006 
L 260.763487 173.980576 
L 261.066051 173.758135 
L 261.366419 173.535678 
L 261.664611 173.3132 
L 261.96068 173.090711 
L 262.254644 172.868207 
L 262.546522 172.645691 
L 262.836351 172.423155 
L 263.124165 172.200607 
L 263.409966 171.978044 
" style="fill:none;stroke:#800080;stroke-linecap:square;stroke-width:1.5;"/>
   </g>
   <g id="line2d_56">
    <path clip-path="url(#pf16aef23ea)" d="M 263.409966 171.978044 
L 263.702008 171.755529 
L 263.991854 171.532992 
L 264.279578 171.310445 
L 264.565179 171.087882 
L 264.848712 170.865308 
L 265.130214 170.642712 
L 265.409719 170.420112 
L 265.68723 170.19749 
L 265.962799 169.974857 
L 266.236463 169.752214 
" style="fill:none;stroke:#800080;stroke-linecap:square;stroke-width:1.5;"/>
   </g>
   <g id="line2d_57">
    <path clip-path="url(#pf16aef23ea)" d="M 266.236463 169.752214 
L 266.532042 169.529725 
L 266.825099 169.30721 
L 267.115653 169.084684 
L 267.403776 168.862137 
L 267.689523 168.639573 
L 267.972947 168.416999 
L 268.254085 168.194404 
L 268.532974 167.971793 
L 268.809686 167.749171 
L 269.084239 167.526533 
" style="fill:none;stroke:#800080;stroke-linecap:square;stroke-width:1.5;"/>
   </g>
   <g id="line2d_58">
    <path clip-path="url(#pf16aef23ea)" d="M 269.084239 167.526533 
L 269.447631 167.304583 
L 269.805545 167.082584 
L 270.158197 166.860538 
L 270.505824 166.638454 
L 270.848625 166.416328 
L 271.186782 166.194159 
L 271.520495 165.971958 
L 271.849926 165.74972 
" style="fill:none;stroke:#800080;stroke-linecap:square;stroke-width:1.5;"/>
   </g>
   <g id="line2d_59">
    <path clip-path="url(#pf16aef23ea)" d="M 271.849926 165.74972 
L 272.295263 165.52858 
L 272.729987 165.307323 
L 273.154824 165.085958 
L 273.570427 164.864504 
L 273.977395 164.642964 
L 274.376254 164.421339 
L 274.767456 164.199644 
" style="fill:none;stroke:#800080;stroke-linecap:square;stroke-width:1.5;"/>
   </g>
   <g id="line2d_60">
    <path clip-path="url(#pf16aef23ea)" d="M 274.767456 164.199644 
L 275.317724 163.979778 
L 275.848162 163.75965 
L 276.360804 163.539293 
L 276.857373 163.318739 
L 277.339337 163.098015 
L 277.807932 162.877131 
" style="fill:none;stroke:#800080;stroke-linecap:square;stroke-width:1.5;"/>
   </g>
   <g id="line2d_61">
    <path clip-path="url(#pf16aef23ea)" d="M 277.807932 162.877131 
L 278.510406 162.659615 
L 279.174112 162.441443 
L 279.805018 162.222749 
L 280.407606 162.003624 
" style="fill:none;stroke:#800080;stroke-linecap:square;stroke-width:1.5;"/>
   </g>
   <g id="line2d_62">
    <path clip-path="url(#pf16aef23ea)" d="M 280.407606 162.003624 
L 281.309074 161.790105 
L 282.136634 161.574977 
L 282.906286 161.358698 
" style="fill:none;stroke:#800080;stroke-linecap:square;stroke-width:1.5;"/>
   </g>
   <g id="line2d_63">
    <path clip-path="url(#pf16aef23ea)" d="M 282.906286 161.358698 
L 284.121529 161.153739 
L 285.183259 160.944233 
" style="fill:none;stroke:#800080;stroke-linecap:square;stroke-width:1.5;"/>
   </g>
   <g id="line2d_64">
    <path clip-path="url(#pf16aef23ea)" d="M 285.183259 160.944233 
L 286.881918 160.758734 
" style="fill:none;stroke:#800080;stroke-linecap:square;stroke-width:1.5;"/>
   </g>
   <g id="line2d_65">
    <path clip-path="url(#pf16aef23ea)" d="M 286.881918 160.758734 
L 289.22743 160.616273 
" style="fill:none;stroke:#800080;stroke-linecap:square;stroke-width:1.5;"/>
   </g>
   <g id="line2d_66">
    <path clip-path="url(#pf16aef23ea)" d="M 289.22743 160.616273 
L 292.084005 160.539113 
" style="fill:none;stroke:#800080;stroke-linecap:square;stroke-width:1.5;"/>
   </g>
   <g id="line2d_67">
    <path clip-path="url(#pf16aef23ea)" d="M 292.084005 160.539113 
L 294.270234 160.383577 
" style="fill:none;stroke:#800080;stroke-linecap:square;stroke-width:1.5;"/>
   </g>
   <g id="line2d_68">
    <path clip-path="url(#pf16aef23ea)" d="M 294.270234 160.383577 
L 296.097444 160.204793 
" style="fill:none;stroke:#800080;stroke-linecap:square;stroke-width:1.5;"/>
   </g>
   <g id="line2d_69">
    <path clip-path="url(#pf16aef23ea)" d="M 296.097444 160.204793 
L 297.723483 160.015824 
L 299.122753 159.817298 
" style="fill:none;stroke:#800080;stroke-linecap:square;stroke-width:1.5;"/>
   </g>
   <g id="line2d_70">
    <path clip-path="url(#pf16aef23ea)" d="M 299.122753 159.817298 
L 299.394512 159.594639 
L 299.663895 159.371969 
L 299.930974 159.149283 
L 300.195767 158.926581 
L 300.458347 158.703863 
L 300.718768 158.481135 
L 300.977048 158.25839 
L 301.233242 158.035635 
L 301.487386 157.812864 
L 301.739534 157.590082 
L 301.989723 157.36729 
" style="fill:none;stroke:#800080;stroke-linecap:square;stroke-width:1.5;"/>
   </g>
   <g id="line2d_71">
    <path clip-path="url(#pf16aef23ea)" d="M 301.989723 157.36729 
L 302.282001 157.144775 
L 302.571376 156.922238 
L 302.857884 156.69968 
L 303.141635 156.477106 
L 303.422683 156.254511 
L 303.701063 156.031899 
L 303.976868 155.809267 
L 304.250152 155.586624 
L 304.520968 155.363959 
L 304.789371 155.141278 
" style="fill:none;stroke:#800080;stroke-linecap:square;stroke-width:1.5;"/>
   </g>
   <g id="line2d_72">
    <path clip-path="url(#pf16aef23ea)" d="M 304.789371 155.141278 
L 304.963402 154.918097 
L 305.136726 154.69491 
L 305.309305 154.471718 
L 305.481178 154.248526 
L 305.652325 154.025333 
L 305.822782 153.80213 
L 305.992532 153.578933 
L 306.161574 153.355725 
L 306.329945 153.132517 
L 306.497627 152.909308 
L 306.664637 152.686095 
L 306.830976 152.462881 
L 306.996644 152.239668 
L 307.161641 152.016444 
L 307.326003 151.793219 
L 307.489693 151.569995 
L 307.652749 151.34676 
L 307.81517 151.123536 
" style="fill:none;stroke:#800080;stroke-linecap:square;stroke-width:1.5;"/>
   </g>
   <g id="line2d_73">
    <path clip-path="url(#pf16aef23ea)" d="M 307.81517 151.123536 
L 308.003514 150.900408 
L 308.190898 150.67729 
L 308.377338 150.454162 
L 308.562816 150.231023 
L 308.74737 150.007884 
L 308.930998 149.784745 
L 309.113719 149.561596 
L 309.295532 149.338446 
L 309.476457 149.115296 
L 309.656493 148.892136 
L 309.83564 148.668976 
L 310.013935 148.445805 
L 310.191359 148.222634 
L 310.367948 147.999463 
L 310.543684 147.776282 
L 310.718586 147.553111 
" style="fill:none;stroke:#800080;stroke-linecap:square;stroke-width:1.5;"/>
   </g>
   <g id="line2d_74">
    <path clip-path="url(#pf16aef23ea)" d="M 310.718586 147.553111 
L 310.91963 147.330047 
L 311.119477 147.106982 
L 311.318144 146.883907 
L 311.51565 146.660832 
L 311.712014 146.437747 
L 311.907216 146.21465 
L 312.101311 145.991565 
L 312.294282 145.768458 
L 312.486165 145.545351 
L 312.676959 145.322244 
L 312.866682 145.099126 
L 313.055354 144.876009 
L 313.242973 144.652891 
L 313.429558 144.429752 
L 313.615127 144.206624 
" style="fill:none;stroke:#800080;stroke-linecap:square;stroke-width:1.5;"/>
   </g>
   <g id="line2d_75">
    <path clip-path="url(#pf16aef23ea)" d="M 313.615127 144.206624 
L 313.828054 143.983624 
L 314.039547 143.760613 
L 314.249607 143.537591 
L 314.458289 143.314569 
L 314.665591 143.091537 
L 314.871533 142.868505 
L 315.076133 142.645462 
L 315.279408 142.422408 
L 315.481377 142.199354 
L 315.682058 141.97629 
L 315.881469 141.753226 
L 316.079629 141.530151 
L 316.276554 141.307065 
L 316.472265 141.08398 
" style="fill:none;stroke:#800080;stroke-linecap:square;stroke-width:1.5;"/>
   </g>
   <g id="line2d_76">
    <path clip-path="url(#pf16aef23ea)" d="M 316.472265 141.08398 
L 316.696239 140.861033 
L 316.918527 140.638086 
L 317.139164 140.415117 
L 317.358168 140.192149 
L 317.575575 139.96917 
L 317.791386 139.746191 
L 318.005637 139.52319 
L 318.218346 139.30019 
L 318.429549 139.077179 
L 318.639264 138.854157 
L 318.847492 138.631136 
L 319.054287 138.408103 
L 319.259648 138.18506 
L 319.463613 137.962017 
" style="fill:none;stroke:#800080;stroke-linecap:square;stroke-width:1.5;"/>
   </g>
   <g id="line2d_77">
    <path clip-path="url(#pf16aef23ea)" d="M 319.463613 137.962017 
L 319.698654 137.739134 
L 319.931772 137.516241 
L 320.162949 137.293336 
L 320.392239 137.070421 
L 320.619661 136.847495 
L 320.845268 136.624559 
L 321.069061 136.401612 
L 321.291095 136.178665 
L 321.511387 135.955697 
L 321.729973 135.732728 
L 321.946855 135.509749 
L 322.162085 135.28676 
L 322.375683 135.063759 
" style="fill:none;stroke:#800080;stroke-linecap:square;stroke-width:1.5;"/>
   </g>
   <g id="line2d_78">
    <path clip-path="url(#pf16aef23ea)" d="M 322.375683 135.063759 
L 322.62072 134.840929 
L 322.863525 134.6181 
L 323.104136 134.395248 
L 323.342606 134.172387 
L 323.578971 133.949514 
L 323.813268 133.726621 
L 324.045533 133.503727 
L 324.275785 133.280822 
L 324.504077 133.057897 
L 324.730447 132.834971 
L 324.954911 132.612024 
L 325.177489 132.389077 
L 325.398235 132.166119 
" style="fill:none;stroke:#800080;stroke-linecap:square;stroke-width:1.5;"/>
   </g>
   <g id="line2d_79">
    <path clip-path="url(#pf16aef23ea)" d="M 325.398235 132.166119 
L 325.653612 131.943353 
L 325.906468 131.720577 
L 326.156839 131.49779 
L 326.40476 131.274981 
L 326.650305 131.052162 
L 326.89351 130.829322 
L 327.13441 130.606471 
L 327.373043 130.383609 
L 327.609463 130.160736 
L 327.843724 129.937853 
L 328.075826 129.714949 
L 328.305824 129.492044 
" style="fill:none;stroke:#800080;stroke-linecap:square;stroke-width:1.5;"/>
   </g>
   <g id="line2d_80">
    <path clip-path="url(#pf16aef23ea)" d="M 328.305824 129.492044 
L 328.570816 129.269343 
L 328.832942 129.046619 
L 329.092293 128.823886 
L 329.348922 128.60113 
L 329.602867 128.378365 
L 329.854199 128.155577 
L 330.102973 127.93278 
L 330.349207 127.70996 
L 330.592992 127.487131 
L 330.834328 127.26428 
L 331.073306 127.041428 
L 331.309944 126.818545 
" style="fill:none;stroke:#800080;stroke-linecap:square;stroke-width:1.5;"/>
   </g>
   <g id="line2d_81">
    <path clip-path="url(#pf16aef23ea)" d="M 331.309944 126.818545 
L 331.584714 126.595918 
L 331.856274 126.373259 
L 332.124732 126.150578 
L 332.390123 125.927876 
L 332.65254 125.705164 
L 332.912017 125.48243 
L 333.168629 125.259675 
L 333.422446 125.036898 
L 333.673506 124.814111 
L 333.921863 124.591313 
L 334.167589 124.368494 
" style="fill:none;stroke:#800080;stroke-linecap:square;stroke-width:1.5;"/>
   </g>
   <g id="line2d_82">
    <path clip-path="url(#pf16aef23ea)" d="M 334.167589 124.368494 
L 334.443394 124.145856 
L 334.715861 123.923208 
L 334.985062 123.700538 
L 335.251089 123.477847 
L 335.513995 123.255124 
L 335.773836 123.03239 
L 336.030701 122.809645 
L 336.284645 122.586869 
L 336.537501 122.364092 
L 336.794348 122.141348 
L 337.05535 121.918614 
" style="fill:none;stroke:#800080;stroke-linecap:square;stroke-width:1.5;"/>
   </g>
   <g id="line2d_83">
    <path clip-path="url(#pf16aef23ea)" d="M 337.05535 121.918614 
L 337.370358 121.696264 
L 337.692932 121.473978 
L 338.023597 121.251755 
L 338.362969 121.029597 
L 338.711757 120.807524 
L 339.070759 120.585526 
L 339.440899 120.363645 
L 339.823304 120.14186 
" style="fill:none;stroke:#800080;stroke-linecap:square;stroke-width:1.5;"/>
   </g>
   <g id="line2d_84">
    <path clip-path="url(#pf16aef23ea)" d="M 339.823304 120.14186 
L 340.298084 119.921045 
L 340.799406 119.700549 
L 341.332294 119.480459 
L 341.903605 119.26088 
L 342.523082 119.042005 
" style="fill:none;stroke:#800080;stroke-linecap:square;stroke-width:1.5;"/>
   </g>
   <g id="line2d_85">
    <path clip-path="url(#pf16aef23ea)" d="M 342.523082 119.042005 
L 343.271745 118.825326 
L 344.137873 118.611024 
L 345.197227 118.401455 
" style="fill:none;stroke:#800080;stroke-linecap:square;stroke-width:1.5;"/>
   </g>
   <g id="line2d_86">
    <path clip-path="url(#pf16aef23ea)" d="M 345.197227 118.401455 
L 346.979718 118.220251 
" style="fill:none;stroke:#800080;stroke-linecap:square;stroke-width:1.5;"/>
   </g>
   <g id="line2d_87">
    <path clip-path="url(#pf16aef23ea)" d="M 346.979718 118.220251 
L 349.924878 118.276652 
" style="fill:none;stroke:#800080;stroke-linecap:square;stroke-width:1.5;"/>
   </g>
   <g id="line2d_88">
    <path clip-path="url(#pf16aef23ea)" d="M 349.924878 118.276652 
L 350.89131 118.48863 
L 351.627165 118.705543 
L 352.242978 118.924472 
L 352.78129 119.144498 
" style="fill:none;stroke:#800080;stroke-linecap:square;stroke-width:1.5;"/>
   </g>
   <g id="line2d_89">
    <path clip-path="url(#pf16aef23ea)" d="M 352.78129 119.144498 
L 353.319493 119.364524 
L 353.80133 119.585254 
L 354.2403 119.806464 
L 354.645236 120.028025 
L 355.02227 120.249853 
L 355.375866 120.471894 
L 355.709415 120.694095 
" style="fill:none;stroke:#800080;stroke-linecap:square;stroke-width:1.5;"/>
   </g>
   <g id="line2d_90">
    <path clip-path="url(#pf16aef23ea)" d="M 355.709415 120.694095 
L 356.071646 120.916061 
L 356.412052 121.138209 
L 356.733646 121.360505 
L 357.038877 121.582919 
L 357.329648 121.805451 
L 357.607539 122.028067 
L 357.873875 122.250759 
L 358.129742 122.473514 
L 358.376067 122.696333 
L 358.613684 122.919205 
" style="fill:none;stroke:#800080;stroke-linecap:square;stroke-width:1.5;"/>
   </g>
   <g id="line2d_91">
    <path clip-path="url(#pf16aef23ea)" d="M 358.613684 122.919205 
L 358.882922 123.141875 
L 359.141002 123.36462 
L 359.388978 123.587428 
L 359.627756 123.81029 
L 359.858081 124.033194 
L 360.080658 124.256141 
L 360.29607 124.479131 
L 360.504806 124.702153 
L 360.707356 124.925206 
L 360.9041 125.148292 
L 361.09542 125.371399 
L 361.281642 125.594527 
L 361.463057 125.817687 
L 361.639936 126.040858 
" style="fill:none;stroke:#800080;stroke-linecap:square;stroke-width:1.5;"/>
   </g>
   <g id="line2d_92">
    <path clip-path="url(#pf16aef23ea)" d="M 361.639936 126.040858 
L 361.845969 126.263891 
L 362.045671 126.486955 
L 362.239494 126.710051 
L 362.427803 126.933179 
L 362.610941 127.156318 
L 362.789235 127.379489 
L 362.962958 127.602671 
L 363.132363 127.825874 
L 363.297687 128.049098 
L 363.459128 128.272333 
L 363.616904 128.495578 
L 363.771179 128.718845 
L 363.922098 128.942112 
L 364.06986 129.1654 
L 364.214557 129.388699 
L 364.356369 129.612008 
L 364.495369 129.835318 
L 364.631702 130.058649 
" style="fill:none;stroke:#800080;stroke-linecap:square;stroke-width:1.5;"/>
   </g>
   <g id="line2d_93">
    <path clip-path="url(#pf16aef23ea)" d="M 364.631702 130.058649 
L 364.789787 130.281894 
L 364.944171 130.50515 
L 365.095053 130.728428 
L 365.242598 130.951716 
L 365.386968 131.175015 
L 365.52829 131.398324 
L 365.66671 131.621644 
L 365.802353 131.844965 
L 365.935349 132.068306 
L 366.065786 132.291647 
L 366.193774 132.515 
L 366.319404 132.738362 
L 366.442766 132.961725 
L 366.563951 133.185099 
L 366.683013 133.408472 
L 366.800062 133.631856 
L 366.915152 133.855251 
L 367.028354 134.078646 
L 367.139725 134.30204 
L 367.2493 134.525446 
L 367.357187 134.748862 
L 367.463405 134.972267 
L 367.568009 135.195694 
L 367.671034 135.41911 
" style="fill:none;stroke:#800080;stroke-linecap:square;stroke-width:1.5;"/>
   </g>
   <g id="line2d_94">
    <path clip-path="url(#pf16aef23ea)" d="M 367.671034 135.41911 
L 367.79563 135.642473 
L 367.917849 135.865846 
L 368.037801 136.08922 
L 368.155539 136.312604 
L 368.271173 136.535988 
L 368.384793 136.759383 
L 368.496435 136.982777 
L 368.606191 137.206183 
L 368.714115 137.429599 
L 368.82115 137.653004 
L 368.928239 137.87642 
L 369.035364 138.099826 
L 369.142544 138.323242 
L 369.249778 138.546647 
L 369.357049 138.770063 
L 369.464374 138.993469 
L 369.571735 139.216885 
L 369.679151 139.44029 
L 369.786621 139.663706 
L 369.894109 139.887112 
L 370.00167 140.110517 
L 370.109249 140.333933 
L 370.216882 140.557338 
L 370.324552 140.780755 
L 370.432258 141.00416 
L 370.54 141.227565 
L 370.647797 141.450981 
" style="fill:none;stroke:#800080;stroke-linecap:square;stroke-width:1.5;"/>
   </g>
   <g id="line2d_95">
    <path clip-path="url(#pf16aef23ea)" d="M 370.647797 141.450981 
L 370.785926 141.674302 
L 370.924219 141.897611 
L 371.062674 142.120931 
L 371.201293 142.344251 
L 371.340076 142.567571 
L 371.479003 142.790881 
L 371.618094 143.014201 
L 371.757348 143.237521 
L 371.896765 143.460831 
L 372.036346 143.684151 
L 372.176071 143.90746 
L 372.315942 144.13077 
L 372.455994 144.35409 
L 372.596174 144.577399 
L 372.736534 144.800709 
L 372.877022 145.024018 
L 373.017673 145.247328 
L 373.158487 145.470637 
L 373.299446 145.693947 
L 373.44055 145.917256 
L 373.581818 146.140566 
" style="fill:none;stroke:#800080;stroke-linecap:square;stroke-width:1.5;"/>
   </g>
   <g id="patch_3">
    <path d="M 54 252 
L 54 34.56 
" style="fill:none;stroke:#000000;stroke-linecap:square;stroke-linejoin:miter;stroke-width:0.8;"/>
   </g>
   <g id="patch_4">
    <path d="M 388.8 252 
L 388.8 34.56 
" style="fill:none;stroke:#000000;stroke-linecap:square;stroke-linejoin:miter;stroke-width:0.8;"/>
   </g>
   <g id="patch_5">
    <path d="M 54 252 
L 388.8 252 
" style="fill:none;stroke:#000000;stroke-linecap:square;stroke-linejoin:miter;stroke-width:0.8;"/>
   </g>
   <g id="patch_6">
    <path d="M 54 34.56 
L 388.8 34.56 
" style="fill:none;stroke:#000000;stroke-linecap:square;stroke-linejoin:miter;stroke-width:0.8;"/>
   </g>
   <g id="text_14">
    <!-- controller -->
    <defs>
     <path d="M 48.78125 52.59375 
L 48.78125 44.1875 
Q 44.96875 46.296875 41.140625 47.34375 
Q 37.3125 48.390625 33.40625 48.390625 
Q 24.65625 48.390625 19.8125 42.84375 
Q 14.984375 37.3125 14.984375 27.296875 
Q 14.984375 17.28125 19.8125 11.734375 
Q 24.65625 6.203125 33.40625 6.203125 
Q 37.3125 6.203125 41.140625 7.25 
Q 44.96875 8.296875 48.78125 10.40625 
L 48.78125 2.09375 
Q 45.015625 0.34375 40.984375 -0.53125 
Q 36.96875 -1.421875 32.421875 -1.421875 
Q 20.0625 -1.421875 12.78125 6.34375 
Q 5.515625 14.109375 5.515625 27.296875 
Q 5.515625 40.671875 12.859375 48.328125 
Q 20.21875 56 33.015625 56 
Q 37.15625 56 41.109375 55.140625 
Q 45.0625 54.296875 48.78125 52.59375 
z
" id="DejaVuSans-99"/>
     <path d="M 30.609375 48.390625 
Q 23.390625 48.390625 19.1875 42.75 
Q 14.984375 37.109375 14.984375 27.296875 
Q 14.984375 17.484375 19.15625 11.84375 
Q 23.34375 6.203125 30.609375 6.203125 
Q 37.796875 6.203125 41.984375 11.859375 
Q 46.1875 17.53125 46.1875 27.296875 
Q 46.1875 37.015625 41.984375 42.703125 
Q 37.796875 48.390625 30.609375 48.390625 
z
M 30.609375 56 
Q 42.328125 56 49.015625 48.375 
Q 55.71875 40.765625 55.71875 27.296875 
Q 55.71875 13.875 49.015625 6.21875 
Q 42.328125 -1.421875 30.609375 -1.421875 
Q 18.84375 -1.421875 12.171875 6.21875 
Q 5.515625 13.875 5.515625 27.296875 
Q 5.515625 40.765625 12.171875 48.375 
Q 18.84375 56 30.609375 56 
z
" id="DejaVuSans-111"/>
     <path d="M 54.890625 33.015625 
L 54.890625 0 
L 45.90625 0 
L 45.90625 32.71875 
Q 45.90625 40.484375 42.875 44.328125 
Q 39.84375 48.1875 33.796875 48.1875 
Q 26.515625 48.1875 22.3125 43.546875 
Q 18.109375 38.921875 18.109375 30.90625 
L 18.109375 0 
L 9.078125 0 
L 9.078125 54.6875 
L 18.109375 54.6875 
L 18.109375 46.1875 
Q 21.34375 51.125 25.703125 53.5625 
Q 30.078125 56 35.796875 56 
Q 45.21875 56 50.046875 50.171875 
Q 54.890625 44.34375 54.890625 33.015625 
z
" id="DejaVuSans-110"/>
     <path d="M 18.3125 70.21875 
L 18.3125 54.6875 
L 36.8125 54.6875 
L 36.8125 47.703125 
L 18.3125 47.703125 
L 18.3125 18.015625 
Q 18.3125 11.328125 20.140625 9.421875 
Q 21.96875 7.515625 27.59375 7.515625 
L 36.8125 7.515625 
L 36.8125 0 
L 27.59375 0 
Q 17.1875 0 13.234375 3.875 
Q 9.28125 7.765625 9.28125 18.015625 
L 9.28125 47.703125 
L 2.6875 47.703125 
L 2.6875 54.6875 
L 9.28125 54.6875 
L 9.28125 70.21875 
z
" id="DejaVuSans-116"/>
     <path d="M 41.109375 46.296875 
Q 39.59375 47.171875 37.8125 47.578125 
Q 36.03125 48 33.890625 48 
Q 26.265625 48 22.1875 43.046875 
Q 18.109375 38.09375 18.109375 28.8125 
L 18.109375 0 
L 9.078125 0 
L 9.078125 54.6875 
L 18.109375 54.6875 
L 18.109375 46.1875 
Q 20.953125 51.171875 25.484375 53.578125 
Q 30.03125 56 36.53125 56 
Q 37.453125 56 38.578125 55.875 
Q 39.703125 55.765625 41.0625 55.515625 
z
" id="DejaVuSans-114"/>
     <path d="M 9.421875 75.984375 
L 18.40625 75.984375 
L 18.40625 0 
L 9.421875 0 
z
" id="DejaVuSans-108"/>
     <path d="M 56.203125 29.59375 
L 56.203125 25.203125 
L 14.890625 25.203125 
Q 15.484375 15.921875 20.484375 11.0625 
Q 25.484375 6.203125 34.421875 6.203125 
Q 39.59375 6.203125 44.453125 7.46875 
Q 49.3125 8.734375 54.109375 11.28125 
L 54.109375 2.78125 
Q 49.265625 0.734375 44.1875 -0.34375 
Q 39.109375 -1.421875 33.890625 -1.421875 
Q 20.796875 -1.421875 13.15625 6.1875 
Q 5.515625 13.8125 5.515625 26.8125 
Q 5.515625 40.234375 12.765625 48.109375 
Q 20.015625 56 32.328125 56 
Q 43.359375 56 49.78125 48.890625 
Q 56.203125 41.796875 56.203125 29.59375 
z
M 47.21875 32.234375 
Q 47.125 39.59375 43.09375 43.984375 
Q 39.0625 48.390625 32.421875 48.390625 
Q 24.90625 48.390625 20.390625 44.140625 
Q 15.875 39.890625 15.1875 32.171875 
z
" id="DejaVuSans-101"/>
    </defs>
    <g transform="translate(192.646875 28.56)scale(0.12 -0.12)">
     <use xlink:href="#DejaVuSans-99"/>
     <use x="54.980469" xlink:href="#DejaVuSans-111"/>
     <use x="116.162109" xlink:href="#DejaVuSans-110"/>
     <use x="179.541016" xlink:href="#DejaVuSans-116"/>
     <use x="218.75" xlink:href="#DejaVuSans-114"/>
     <use x="259.832031" xlink:href="#DejaVuSans-111"/>
     <use x="321.013672" xlink:href="#DejaVuSans-108"/>
     <use x="348.796875" xlink:href="#DejaVuSans-108"/>
     <use x="376.580078" xlink:href="#DejaVuSans-101"/>
     <use x="438.103516" xlink:href="#DejaVuSans-114"/>
    </g>
   </g>
  </g>
 </g>
 <defs>
  <clipPath id="pf16aef23ea">
   <rect height="217.44" width="334.8" x="54" y="34.56"/>
  </clipPath>
 </defs>
</svg>
