<?xml version="1.0" encoding="utf-8" standalone="no"?>
<!DOCTYPE svg PUBLIC "-//W3C//DTD SVG 1.1//EN"
  "http://www.w3.org/Graphics/SVG/1.1/DTD/svg11.dtd">
<!-- Created with matplotlib (https://matplotlib.org/) -->
<svg height="288pt" version="1.1" viewBox="0 0 432 288" width="432pt" xmlns="http://www.w3.org/2000/svg" xmlns:xlink="http://www.w3.org/1999/xlink">
 <defs>
  <style type="text/css">
*{stroke-linecap:butt;stroke-linejoin:round;}
  </style>
 </defs>
 <g id="figure_1">
  <g id="patch_1">
   <path d="M 0 288 
L 432 288 
L 432 0 
L 0 0 
z
" style="fill:#ffffff;"/>
  </g>
  <g id="axes_1">
   <g id="patch_2">
    <path d="M 54 252 
L 388.8 252 
L 388.8 34.56 
L 54 34.56 
z
" style="fill:#ffffff;"/>
   </g>
   <g id="matplotlib.axis_1">
    <g id="xtick_1">
     <g id="line2d_1">
      <path clip-path="url(#pc6b5fbfdc1)" d="M 69.218182 252 
L 69.218182 34.56 
" style="fill:none;stroke:#b0b0b0;stroke-linecap:square;stroke-width:0.8;"/>
     </g>
     <g id="line2d_2">
      <defs>
       <path d="M 0 0 
L 0 3.5 
" id="m853c05752e" style="stroke:#000000;stroke-width:0.8;"/>
      </defs>
      <g>
       <use style="stroke:#000000;stroke-width:0.8;" x="69.218182" xlink:href="#m853c05752e" y="252"/>
      </g>
     </g>
     <g id="text_1">
      <!-- 0.0 -->
      <defs>
       <path d="M 31.78125 66.40625 
Q 24.171875 66.40625 20.328125 58.90625 
Q 16.5 51.421875 16.5 36.375 
Q 16.5 21.390625 20.328125 13.890625 
Q 24.171875 6.390625 31.78125 6.390625 
Q 39.453125 6.390625 43.28125 13.890625 
Q 47.125 21.390625 47.125 36.375 
Q 47.125 51.421875 43.28125 58.90625 
Q 39.453125 66.40625 31.78125 66.40625 
z
M 31.78125 74.21875 
Q 44.046875 74.21875 50.515625 64.515625 
Q 56.984375 54.828125 56.984375 36.375 
Q 56.984375 17.96875 50.515625 8.265625 
Q 44.046875 -1.421875 31.78125 -1.421875 
Q 19.53125 -1.421875 13.0625 8.265625 
Q 6.59375 17.96875 6.59375 36.375 
Q 6.59375 54.828125 13.0625 64.515625 
Q 19.53125 74.21875 31.78125 74.21875 
z
" id="DejaVuSans-48"/>
       <path d="M 10.6875 12.40625 
L 21 12.40625 
L 21 0 
L 10.6875 0 
z
" id="DejaVuSans-46"/>
      </defs>
      <g transform="translate(61.266619 266.598437)scale(0.1 -0.1)">
       <use xlink:href="#DejaVuSans-48"/>
       <use x="63.623047" xlink:href="#DejaVuSans-46"/>
       <use x="95.410156" xlink:href="#DejaVuSans-48"/>
      </g>
     </g>
    </g>
    <g id="xtick_2">
     <g id="line2d_3">
      <path clip-path="url(#pc6b5fbfdc1)" d="M 130.090909 252 
L 130.090909 34.56 
" style="fill:none;stroke:#b0b0b0;stroke-linecap:square;stroke-width:0.8;"/>
     </g>
     <g id="line2d_4">
      <g>
       <use style="stroke:#000000;stroke-width:0.8;" x="130.090909" xlink:href="#m853c05752e" y="252"/>
      </g>
     </g>
     <g id="text_2">
      <!-- 0.2 -->
      <defs>
       <path d="M 19.1875 8.296875 
L 53.609375 8.296875 
L 53.609375 0 
L 7.328125 0 
L 7.328125 8.296875 
Q 12.9375 14.109375 22.625 23.890625 
Q 32.328125 33.6875 34.8125 36.53125 
Q 39.546875 41.84375 41.421875 45.53125 
Q 43.3125 49.21875 43.3125 52.78125 
Q 43.3125 58.59375 39.234375 62.25 
Q 35.15625 65.921875 28.609375 65.921875 
Q 23.96875 65.921875 18.8125 64.3125 
Q 13.671875 62.703125 7.8125 59.421875 
L 7.8125 69.390625 
Q 13.765625 71.78125 18.9375 73 
Q 24.125 74.21875 28.421875 74.21875 
Q 39.75 74.21875 46.484375 68.546875 
Q 53.21875 62.890625 53.21875 53.421875 
Q 53.21875 48.921875 51.53125 44.890625 
Q 49.859375 40.875 45.40625 35.40625 
Q 44.1875 33.984375 37.640625 27.21875 
Q 31.109375 20.453125 19.1875 8.296875 
z
" id="DejaVuSans-50"/>
      </defs>
      <g transform="translate(122.139347 266.598437)scale(0.1 -0.1)">
       <use xlink:href="#DejaVuSans-48"/>
       <use x="63.623047" xlink:href="#DejaVuSans-46"/>
       <use x="95.410156" xlink:href="#DejaVuSans-50"/>
      </g>
     </g>
    </g>
    <g id="xtick_3">
     <g id="line2d_5">
      <path clip-path="url(#pc6b5fbfdc1)" d="M 190.963636 252 
L 190.963636 34.56 
" style="fill:none;stroke:#b0b0b0;stroke-linecap:square;stroke-width:0.8;"/>
     </g>
     <g id="line2d_6">
      <g>
       <use style="stroke:#000000;stroke-width:0.8;" x="190.963636" xlink:href="#m853c05752e" y="252"/>
      </g>
     </g>
     <g id="text_3">
      <!-- 0.4 -->
      <defs>
       <path d="M 37.796875 64.3125 
L 12.890625 25.390625 
L 37.796875 25.390625 
z
M 35.203125 72.90625 
L 47.609375 72.90625 
L 47.609375 25.390625 
L 58.015625 25.390625 
L 58.015625 17.1875 
L 47.609375 17.1875 
L 47.609375 0 
L 37.796875 0 
L 37.796875 17.1875 
L 4.890625 17.1875 
L 4.890625 26.703125 
z
" id="DejaVuSans-52"/>
      </defs>
      <g transform="translate(183.012074 266.598437)scale(0.1 -0.1)">
       <use xlink:href="#DejaVuSans-48"/>
       <use x="63.623047" xlink:href="#DejaVuSans-46"/>
       <use x="95.410156" xlink:href="#DejaVuSans-52"/>
      </g>
     </g>
    </g>
    <g id="xtick_4">
     <g id="line2d_7">
      <path clip-path="url(#pc6b5fbfdc1)" d="M 251.836364 252 
L 251.836364 34.56 
" style="fill:none;stroke:#b0b0b0;stroke-linecap:square;stroke-width:0.8;"/>
     </g>
     <g id="line2d_8">
      <g>
       <use style="stroke:#000000;stroke-width:0.8;" x="251.836364" xlink:href="#m853c05752e" y="252"/>
      </g>
     </g>
     <g id="text_4">
      <!-- 0.6 -->
      <defs>
       <path d="M 33.015625 40.375 
Q 26.375 40.375 22.484375 35.828125 
Q 18.609375 31.296875 18.609375 23.390625 
Q 18.609375 15.53125 22.484375 10.953125 
Q 26.375 6.390625 33.015625 6.390625 
Q 39.65625 6.390625 43.53125 10.953125 
Q 47.40625 15.53125 47.40625 23.390625 
Q 47.40625 31.296875 43.53125 35.828125 
Q 39.65625 40.375 33.015625 40.375 
z
M 52.59375 71.296875 
L 52.59375 62.3125 
Q 48.875 64.0625 45.09375 64.984375 
Q 41.3125 65.921875 37.59375 65.921875 
Q 27.828125 65.921875 22.671875 59.328125 
Q 17.53125 52.734375 16.796875 39.40625 
Q 19.671875 43.65625 24.015625 45.921875 
Q 28.375 48.1875 33.59375 48.1875 
Q 44.578125 48.1875 50.953125 41.515625 
Q 57.328125 34.859375 57.328125 23.390625 
Q 57.328125 12.15625 50.6875 5.359375 
Q 44.046875 -1.421875 33.015625 -1.421875 
Q 20.359375 -1.421875 13.671875 8.265625 
Q 6.984375 17.96875 6.984375 36.375 
Q 6.984375 53.65625 15.1875 63.9375 
Q 23.390625 74.21875 37.203125 74.21875 
Q 40.921875 74.21875 44.703125 73.484375 
Q 48.484375 72.75 52.59375 71.296875 
z
" id="DejaVuSans-54"/>
      </defs>
      <g transform="translate(243.884801 266.598437)scale(0.1 -0.1)">
       <use xlink:href="#DejaVuSans-48"/>
       <use x="63.623047" xlink:href="#DejaVuSans-46"/>
       <use x="95.410156" xlink:href="#DejaVuSans-54"/>
      </g>
     </g>
    </g>
    <g id="xtick_5">
     <g id="line2d_9">
      <path clip-path="url(#pc6b5fbfdc1)" d="M 312.709091 252 
L 312.709091 34.56 
" style="fill:none;stroke:#b0b0b0;stroke-linecap:square;stroke-width:0.8;"/>
     </g>
     <g id="line2d_10">
      <g>
       <use style="stroke:#000000;stroke-width:0.8;" x="312.709091" xlink:href="#m853c05752e" y="252"/>
      </g>
     </g>
     <g id="text_5">
      <!-- 0.8 -->
      <defs>
       <path d="M 31.78125 34.625 
Q 24.75 34.625 20.71875 30.859375 
Q 16.703125 27.09375 16.703125 20.515625 
Q 16.703125 13.921875 20.71875 10.15625 
Q 24.75 6.390625 31.78125 6.390625 
Q 38.8125 6.390625 42.859375 10.171875 
Q 46.921875 13.96875 46.921875 20.515625 
Q 46.921875 27.09375 42.890625 30.859375 
Q 38.875 34.625 31.78125 34.625 
z
M 21.921875 38.8125 
Q 15.578125 40.375 12.03125 44.71875 
Q 8.5 49.078125 8.5 55.328125 
Q 8.5 64.0625 14.71875 69.140625 
Q 20.953125 74.21875 31.78125 74.21875 
Q 42.671875 74.21875 48.875 69.140625 
Q 55.078125 64.0625 55.078125 55.328125 
Q 55.078125 49.078125 51.53125 44.71875 
Q 48 40.375 41.703125 38.8125 
Q 48.828125 37.15625 52.796875 32.3125 
Q 56.78125 27.484375 56.78125 20.515625 
Q 56.78125 9.90625 50.3125 4.234375 
Q 43.84375 -1.421875 31.78125 -1.421875 
Q 19.734375 -1.421875 13.25 4.234375 
Q 6.78125 9.90625 6.78125 20.515625 
Q 6.78125 27.484375 10.78125 32.3125 
Q 14.796875 37.15625 21.921875 38.8125 
z
M 18.3125 54.390625 
Q 18.3125 48.734375 21.84375 45.5625 
Q 25.390625 42.390625 31.78125 42.390625 
Q 38.140625 42.390625 41.71875 45.5625 
Q 45.3125 48.734375 45.3125 54.390625 
Q 45.3125 60.0625 41.71875 63.234375 
Q 38.140625 66.40625 31.78125 66.40625 
Q 25.390625 66.40625 21.84375 63.234375 
Q 18.3125 60.0625 18.3125 54.390625 
z
" id="DejaVuSans-56"/>
      </defs>
      <g transform="translate(304.757528 266.598437)scale(0.1 -0.1)">
       <use xlink:href="#DejaVuSans-48"/>
       <use x="63.623047" xlink:href="#DejaVuSans-46"/>
       <use x="95.410156" xlink:href="#DejaVuSans-56"/>
      </g>
     </g>
    </g>
    <g id="xtick_6">
     <g id="line2d_11">
      <path clip-path="url(#pc6b5fbfdc1)" d="M 373.581818 252 
L 373.581818 34.56 
" style="fill:none;stroke:#b0b0b0;stroke-linecap:square;stroke-width:0.8;"/>
     </g>
     <g id="line2d_12">
      <g>
       <use style="stroke:#000000;stroke-width:0.8;" x="373.581818" xlink:href="#m853c05752e" y="252"/>
      </g>
     </g>
     <g id="text_6">
      <!-- 1.0 -->
      <defs>
       <path d="M 12.40625 8.296875 
L 28.515625 8.296875 
L 28.515625 63.921875 
L 10.984375 60.40625 
L 10.984375 69.390625 
L 28.421875 72.90625 
L 38.28125 72.90625 
L 38.28125 8.296875 
L 54.390625 8.296875 
L 54.390625 0 
L 12.40625 0 
z
" id="DejaVuSans-49"/>
      </defs>
      <g transform="translate(365.630256 266.598437)scale(0.1 -0.1)">
       <use xlink:href="#DejaVuSans-49"/>
       <use x="63.623047" xlink:href="#DejaVuSans-46"/>
       <use x="95.410156" xlink:href="#DejaVuSans-48"/>
      </g>
     </g>
    </g>
    <g id="text_7">
     <!-- $x_1$ -->
     <defs>
      <path d="M 60.015625 54.6875 
L 34.90625 27.875 
L 50.296875 0 
L 39.984375 0 
L 28.421875 21.6875 
L 8.296875 0 
L -2.59375 0 
L 24.3125 28.8125 
L 10.015625 54.6875 
L 20.3125 54.6875 
L 30.8125 34.90625 
L 49.125 54.6875 
z
" id="DejaVuSans-Oblique-120"/>
     </defs>
     <g transform="translate(216.05 280.276563)scale(0.1 -0.1)">
      <use transform="translate(0 0.3125)" xlink:href="#DejaVuSans-Oblique-120"/>
      <use transform="translate(59.179688 -16.09375)scale(0.7)" xlink:href="#DejaVuSans-49"/>
     </g>
    </g>
   </g>
   <g id="matplotlib.axis_2">
    <g id="ytick_1">
     <g id="line2d_13">
      <path clip-path="url(#pc6b5fbfdc1)" d="M 54 242.116364 
L 388.8 242.116364 
" style="fill:none;stroke:#b0b0b0;stroke-linecap:square;stroke-width:0.8;"/>
     </g>
     <g id="line2d_14">
      <defs>
       <path d="M 0 0 
L -3.5 0 
" id="m72f014b435" style="stroke:#000000;stroke-width:0.8;"/>
      </defs>
      <g>
       <use style="stroke:#000000;stroke-width:0.8;" x="54" xlink:href="#m72f014b435" y="242.116364"/>
      </g>
     </g>
     <g id="text_8">
      <!-- 0 -->
      <g transform="translate(40.6375 245.915582)scale(0.1 -0.1)">
       <use xlink:href="#DejaVuSans-48"/>
      </g>
     </g>
    </g>
    <g id="ytick_2">
     <g id="line2d_15">
      <path clip-path="url(#pc6b5fbfdc1)" d="M 54 197.406458 
L 388.8 197.406458 
" style="fill:none;stroke:#b0b0b0;stroke-linecap:square;stroke-width:0.8;"/>
     </g>
     <g id="line2d_16">
      <g>
       <use style="stroke:#000000;stroke-width:0.8;" x="54" xlink:href="#m72f014b435" y="197.406458"/>
      </g>
     </g>
     <g id="text_9">
      <!-- 2 -->
      <g transform="translate(40.6375 201.205677)scale(0.1 -0.1)">
       <use xlink:href="#DejaVuSans-50"/>
      </g>
     </g>
    </g>
    <g id="ytick_3">
     <g id="line2d_17">
      <path clip-path="url(#pc6b5fbfdc1)" d="M 54 152.696552 
L 388.8 152.696552 
" style="fill:none;stroke:#b0b0b0;stroke-linecap:square;stroke-width:0.8;"/>
     </g>
     <g id="line2d_18">
      <g>
       <use style="stroke:#000000;stroke-width:0.8;" x="54" xlink:href="#m72f014b435" y="152.696552"/>
      </g>
     </g>
     <g id="text_10">
      <!-- 4 -->
      <g transform="translate(40.6375 156.495771)scale(0.1 -0.1)">
       <use xlink:href="#DejaVuSans-52"/>
      </g>
     </g>
    </g>
    <g id="ytick_4">
     <g id="line2d_19">
      <path clip-path="url(#pc6b5fbfdc1)" d="M 54 107.986646 
L 388.8 107.986646 
" style="fill:none;stroke:#b0b0b0;stroke-linecap:square;stroke-width:0.8;"/>
     </g>
     <g id="line2d_20">
      <g>
       <use style="stroke:#000000;stroke-width:0.8;" x="54" xlink:href="#m72f014b435" y="107.986646"/>
      </g>
     </g>
     <g id="text_11">
      <!-- 6 -->
      <g transform="translate(40.6375 111.785865)scale(0.1 -0.1)">
       <use xlink:href="#DejaVuSans-54"/>
      </g>
     </g>
    </g>
    <g id="ytick_5">
     <g id="line2d_21">
      <path clip-path="url(#pc6b5fbfdc1)" d="M 54 63.27674 
L 388.8 63.27674 
" style="fill:none;stroke:#b0b0b0;stroke-linecap:square;stroke-width:0.8;"/>
     </g>
     <g id="line2d_22">
      <g>
       <use style="stroke:#000000;stroke-width:0.8;" x="54" xlink:href="#m72f014b435" y="63.27674"/>
      </g>
     </g>
     <g id="text_12">
      <!-- 8 -->
      <g transform="translate(40.6375 67.075959)scale(0.1 -0.1)">
       <use xlink:href="#DejaVuSans-56"/>
      </g>
     </g>
    </g>
    <g id="text_13">
     <!-- $x_2$ -->
     <g transform="translate(34.557813 148.63)rotate(-90)scale(0.1 -0.1)">
      <use transform="translate(0 0.3125)" xlink:href="#DejaVuSans-Oblique-120"/>
      <use transform="translate(59.179688 -16.09375)scale(0.7)" xlink:href="#DejaVuSans-50"/>
     </g>
    </g>
   </g>
   <g id="line2d_23">
    <path clip-path="url(#pc6b5fbfdc1)" d="M 373.581818 52.099264 
L 372.633545 50.983686 
L 371.516555 49.868962 
L 370.163926 48.755623 
L 368.459152 47.644928 
L 366.171638 46.539861 
L 362.738198 45.450933 
L 356.14248 44.443636 
L 341.061517 44.593405 
L 331.315166 45.451849 
L 319.618479 46.1669 
L 304.410997 46.208793 
" style="fill:none;stroke:#ffa500;stroke-linecap:square;stroke-width:1.5;"/>
   </g>
   <g id="line2d_24">
    <path clip-path="url(#pc6b5fbfdc1)" d="M 373.581818 179.522496 
L 373.49873 180.640227 
L 373.417239 181.757958 
L 373.33738 182.875688 
L 373.259117 183.993424 
L 373.182451 185.111155 
L 373.107364 186.228891 
L 373.033873 187.346627 
L 372.961942 188.464363 
L 372.891589 189.582098 
L 372.822797 190.699834 
L 372.755564 191.81757 
L 372.689892 192.935306 
L 372.625744 194.053042 
L 372.563137 195.170783 
L 372.502073 196.288519 
L 372.442533 197.406261 
L 372.384516 198.523999 
L 372.328006 199.64174 
L 372.273019 200.759479 
L 372.21952 201.87722 
L 372.167544 202.994961 
L 372.117056 204.112703 
L 372.068056 205.230444 
L 372.020544 206.348188 
L 371.974519 207.465929 
L 371.929981 208.583673 
L 371.886914 209.701417 
L 371.845315 210.819158 
L 371.805186 211.936902 
L 371.766508 213.054646 
L 371.729318 214.172393 
L 371.693562 215.290137 
L 371.659274 216.40788 
L 371.626438 217.525627 
L 371.595035 218.643371 
L 371.565102 219.761118 
L 371.536601 220.878863 
L 371.509534 221.996608 
L 371.4839 223.114355 
L 371.459718 224.2321 
L 371.436968 225.349846 
L 371.415652 226.467593 
L 371.395751 227.58534 
L 371.377283 228.703086 
L 371.360248 229.820834 
L 371.344628 230.938581 
L 371.330442 232.056328 
L 371.317688 233.174075 
L 371.306332 234.291822 
L 371.296408 235.40957 
L 371.2879 236.527318 
L 371.280825 237.645065 
L 371.275146 238.762812 
L 371.270901 239.88056 
L 371.268071 240.998308 
" style="fill:none;stroke:#ffa500;stroke-linecap:square;stroke-width:1.5;"/>
   </g>
   <g id="line2d_25">
    <path clip-path="url(#pc6b5fbfdc1)" d="M 69.218182 242.116364 
L 72.269176 242.116364 
L 75.320171 242.116364 
L 78.371165 242.116364 
L 81.42216 242.116364 
L 84.473155 242.116364 
L 87.524149 242.116364 
L 90.575145 242.116364 
L 93.626139 242.116364 
L 96.677133 242.116364 
L 99.728128 242.116364 
L 102.779122 242.116364 
L 105.830117 242.116364 
L 108.881113 242.116364 
L 111.932108 242.116364 
L 114.983102 242.116364 
L 118.034096 242.116364 
L 121.085091 242.116364 
L 124.136085 242.116364 
L 127.187079 242.116364 
L 130.238074 242.116364 
L 133.289068 242.116364 
L 136.340062 242.116364 
L 139.391057 242.116364 
L 142.442051 242.116364 
L 145.493046 242.116364 
L 148.544044 242.116364 
L 151.595034 242.116364 
L 154.646033 242.116364 
L 157.697023 242.116364 
L 160.748022 242.116364 
L 163.799012 242.116364 
L 166.850011 242.116364 
L 169.901001 242.116364 
L 172.951999 242.116364 
L 176.002989 242.116364 
L 179.053988 242.116364 
L 182.104987 242.116364 
L 185.155977 242.116364 
L 188.206976 242.116364 
L 191.257966 242.116364 
L 194.308965 242.116364 
L 197.359954 242.116364 
L 200.410953 242.116364 
L 203.461943 242.116364 
L 206.512942 242.116364 
L 209.563932 242.116364 
L 212.614931 242.116364 
L 215.665921 242.116364 
L 218.71692 242.116364 
L 221.767909 242.116364 
L 224.818908 242.116364 
L 227.869907 242.116364 
L 230.920888 242.116364 
L 233.971887 242.116364 
L 237.022886 242.116364 
L 240.073885 242.116364 
L 243.124884 242.116364 
L 246.175864 242.116364 
L 249.226863 242.116364 
L 252.277862 242.116364 
L 255.328861 242.116364 
L 258.379842 242.116364 
L 261.430841 242.116364 
L 264.48184 242.116364 
L 267.532838 242.116364 
L 270.583819 242.116364 
L 273.634818 242.116364 
L 276.685817 242.116364 
L 279.736816 242.116364 
L 282.787797 242.116364 
L 285.838796 242.116364 
L 288.889795 242.116364 
L 291.940793 242.116364 
L 294.991792 242.116364 
L 298.042773 242.116364 
L 301.093772 242.116364 
L 304.144771 242.116364 
L 307.19577 242.116364 
L 310.246751 242.116364 
L 313.297749 242.116364 
L 316.348748 242.116364 
L 319.399747 242.116364 
L 322.450728 242.116364 
L 325.501727 242.116364 
L 328.552726 242.116364 
L 331.603725 242.116364 
L 334.654706 242.116364 
L 337.705704 242.116364 
L 340.756703 242.116364 
L 343.807702 242.116364 
L 346.858701 242.116364 
L 349.909682 242.116364 
L 352.960681 242.116364 
L 356.01168 242.116364 
L 359.062679 242.116364 
L 362.113659 242.116364 
L 365.164658 242.116364 
L 368.215657 242.116364 
L 371.266656 242.116364 
" style="fill:none;stroke:#ffa500;stroke-linecap:square;stroke-width:1.5;"/>
   </g>
   <g id="line2d_26">
    <path clip-path="url(#pc6b5fbfdc1)" d="M 287.162979 69.328769 
L 288.560037 70.560078 
L 289.710534 71.299433 
L 290.739301 71.710993 
L 291.664571 71.852905 
L 292.544197 71.766455 
L 293.402507 71.456418 
L 294.276038 70.895325 
L 295.170867 70.047306 
L 296.10528 68.849969 
L 297.112732 67.184235 
L 298.181066 64.974645 
L 299.358956 61.990757 
L 300.585556 58.257356 
L 301.906511 53.512971 
L 303.327896 47.572037 
L 303.731127 45.733755 
L 303.731127 45.733755 
" style="fill:none;stroke:#ffa500;stroke-linecap:square;stroke-width:1.5;"/>
   </g>
   <g id="line2d_27">
    <path clip-path="url(#pc6b5fbfdc1)" d="M 287.162979 91.683722 
L 287.011098 91.460445 
L 286.859 91.237178 
L 286.706702 91.013911 
L 286.554223 90.790644 
L 286.401563 90.567377 
L 286.248739 90.34411 
L 286.095734 90.120844 
L 285.942583 89.897577 
L 285.789288 89.67431 
L 285.635847 89.451043 
L 285.482261 89.227776 
L 285.328548 89.004509 
L 285.174727 88.781253 
L 285.020778 88.557986 
L 284.866739 88.33472 
L 284.71259 88.111463 
L 284.55837 87.888196 
L 284.40404 87.66493 
L 284.249656 87.441673 
L 284.095199 87.218407 
L 283.940688 86.99515 
L 283.786123 86.771894 
L 283.631521 86.548627 
L 283.476865 86.325371 
L 283.32219 86.102104 
L 283.167498 85.878848 
L 283.012806 85.655581 
L 282.858095 85.432325 
L 282.703384 85.209069 
L 282.548692 84.985802 
L 282.393999 84.762546 
L 282.239361 84.539279 
L 282.084742 84.316023 
L 281.930158 84.092756 
L 281.775629 83.8695 
L 281.621154 83.646233 
L 281.466734 83.422977 
L 281.312404 83.19971 
L 281.158129 82.976454 
L 281.003963 82.753187 
L 280.849869 82.529931 
L 280.695884 82.306664 
L 280.542008 82.083397 
L 280.38824 81.860141 
L 280.2346 81.636874 
L 280.081087 81.413608 
L 279.927701 81.190341 
L 279.77446 80.967074 
L 279.621364 80.743807 
L 279.468431 80.52054 
L 279.315643 80.297273 
L 279.163037 80.074007 
L 279.010612 79.85074 
L 278.858351 79.627462 
L 278.706289 79.404195 
L 278.554408 79.180929 
L 278.402727 78.957651 
L 278.251264 78.734384 
L 278.1 78.511107 
L 277.948954 78.287829 
L 277.798126 78.064562 
L 277.647534 77.841285 
L 277.497177 77.618007 
" style="fill:none;stroke:#ffa500;stroke-linecap:square;stroke-width:1.5;"/>
   </g>
   <g id="line2d_28">
    <path clip-path="url(#pc6b5fbfdc1)" d="M 277.618054 77.618007 
L 273.223968 70.919288 
L 269.668618 65.112879 
L 266.376718 59.305629 
L 264.481731 55.731547 
L 264.481586 54.74427 
L 264.372011 54.848116 
L 262.993222 56.323329 
L 261.43182 58.352569 
L 259.703027 61.002584 
L 257.797681 64.348165 
L 255.393191 69.075751 
L 252.279513 75.744463 
L 245.565186 90.311364 
L 243.139397 95.025785 
L 240.984478 98.750903 
L 239.097401 101.576889 
L 237.411204 103.711894 
L 235.880244 105.304395 
L 234.455811 106.473772 
L 233.137905 107.277618 
L 231.86869 107.793013 
L 230.663406 108.044123 
L 229.488545 108.063993 
L 228.316732 107.862653 
L 227.117525 107.42923 
L 225.884848 106.746702 
L 224.573019 105.761056 
L 223.169883 104.418033 
L 221.614578 102.591967 
L 220.010562 100.352828 
L 218.226981 97.461478 
L 216.339904 93.972684 
L 214.245859 89.627183 
L 211.844407 84.094483 
L 209.144673 77.268839 
L 205.970131 68.569768 
L 202.174678 57.45059 
L 199.703218 49.917122 
L 194.007272 56.346695 
L 190.963638 60.370594 
L 187.919996 64.618036 
L 184.876362 69.536132 
L 181.832729 74.901315 
L 178.789095 80.937152 
L 175.745453 87.643642 
L 175.745453 87.643642 
" style="fill:none;stroke:#ffa500;stroke-linecap:square;stroke-width:1.5;"/>
   </g>
   <g id="line2d_29">
    <path clip-path="url(#pc6b5fbfdc1)" d="M 175.745453 109.998595 
L 175.708081 109.775062 
L 175.670664 109.551529 
L 175.633211 109.327995 
L 175.595713 109.104462 
L 175.558178 108.880929 
L 175.520607 108.657395 
L 175.482991 108.433862 
L 175.445347 108.210329 
L 175.407649 107.986795 
L 175.369924 107.763262 
L 175.332153 107.539739 
L 175.294356 107.316206 
L 175.256512 107.092673 
L 175.218624 106.869139 
L 175.180708 106.645606 
L 175.142747 106.422073 
L 175.10475 106.198539 
L 175.066716 105.975006 
L 175.028646 105.751473 
L 174.99054 105.52795 
L 174.952398 105.304417 
L 174.914219 105.080883 
L 174.875995 104.85735 
L 174.837743 104.633817 
L 174.799447 104.410283 
L 174.761123 104.18675 
L 174.722754 103.963217 
L 174.684357 103.739694 
L 174.645924 103.516161 
L 174.607446 103.292627 
L 174.568941 103.069094 
L 174.530399 102.845561 
L 174.491822 102.622027 
L 174.453207 102.398505 
L 174.414557 102.174971 
L 174.37587 101.951438 
L 174.337156 101.727905 
L 174.298397 101.504371 
L 174.259611 101.280838 
L 174.220788 101.057315 
L 174.181938 100.833782 
L 174.143042 100.610249 
L 174.10412 100.386715 
L 174.065161 100.163182 
L 174.026166 99.939659 
L 173.987144 99.716126 
L 173.948085 99.492593 
L 173.90899 99.26906 
L 173.869868 99.045526 
L 173.83071 98.822004 
L 173.791524 98.59847 
L 173.752302 98.374937 
L 173.713044 98.151404 
L 173.673758 97.927881 
L 173.634437 97.704348 
L 173.595088 97.480814 
L 173.555703 97.257281 
L 173.516281 97.033758 
L 173.476842 96.810225 
L 173.437357 96.586692 
L 173.397854 96.363158 
L 173.358314 96.139636 
L 173.318739 95.916102 
L 173.279136 95.692569 
L 173.239506 95.469036 
L 173.199839 95.245513 
L 173.160146 95.02198 
L 173.120425 94.798446 
L 173.080668 94.574913 
L 173.040884 94.35139 
L 173.001072 94.127857 
L 172.959084 93.904324 
L 172.914047 93.680801 
L 172.865582 93.457278 
L 172.813253 93.233766 
L 172.756525 93.010254 
L 172.694799 92.786753 
L 172.627303 92.563252 
L 172.55315 92.339772 
L 172.471205 92.116302 
L 172.380116 91.892854 
L 172.278161 91.669427 
L 172.163153 91.446043 
L 172.032335 91.222702 
L 171.882096 90.999424 
L 171.70772 90.776243 
L 171.502975 90.5532 
L 171.259526 90.330359 
L 170.96626 90.107849 
L 170.608537 89.885851 
L 170.167798 89.664663 
L 169.622402 89.444732 
L 168.95123 89.226678 
L 168.140859 89.011204 
L 167.192749 88.798778 
L 166.123517 88.589475 
L 164.956602 88.383008 
L 163.713175 88.17896 
L 162.408213 87.977002 
L 161.050785 87.77692 
L 159.645618 87.578618 
L 158.194454 87.382118 
L 156.69701 87.187494 
L 155.151555 86.994905 
L 153.555195 86.804577 
L 151.904011 86.616775 
L 150.193124 86.431893 
L 148.416628 86.25037 
L 146.567475 86.072812 
L 144.637325 85.899965 
L 142.616382 85.7328 
L 140.493175 85.572628 
L 138.254515 85.421175 
L 135.885727 85.280798 
L 133.371775 85.15479 
L 130.700373 85.04766 
L 127.869267 84.965592 
L 124.900322 84.916365 
L 121.858739 84.908157 
L 118.859357 84.946148 
L 116.03124 85.028771 
L 113.458124 85.14817 
L 111.158559 85.294624 
" style="fill:none;stroke:#800080;stroke-linecap:square;stroke-width:1.5;"/>
   </g>
   <g id="line2d_30">
    <path clip-path="url(#pc6b5fbfdc1)" d="M 113.320915 85.294624 
L 110.96625 85.436269 
L 108.883218 85.599266 
L 107.031561 85.776686 
L 105.371958 85.964072 
L 103.871519 86.158569 
L 102.504016 86.358288 
L 101.248754 86.561941 
L 100.089323 86.768632 
L 99.012594 86.977733 
L 98.007936 87.188751 
L 97.066636 87.401337 
L 96.181479 87.615224 
L 95.346419 87.830197 
L 94.556351 88.046088 
L 93.806912 88.262745 
L 93.094355 88.480085 
L 92.415435 88.698001 
L 91.767319 88.916428 
L 91.147522 89.135293 
L 90.553851 89.354552 
L 89.984358 89.574152 
L 89.437308 89.794061 
L 88.911153 90.014247 
L 88.404493 90.234668 
L 87.916068 90.455323 
L 87.444736 90.67618 
L 86.989462 90.897209 
L 86.549299 91.118408 
L 86.123384 91.339766 
L 85.710925 91.561253 
L 85.311192 91.782857 
L 84.923516 92.004589 
L 84.547278 92.226427 
L 84.181905 92.448362 
L 83.826865 92.670381 
L 83.481666 92.892486 
L 83.145848 93.114676 
L 82.818982 93.336931 
L 82.500671 93.559249 
L 82.190539 93.781641 
L 81.888237 94.004087 
L 81.593435 94.226587 
L 81.305826 94.449129 
L 81.02512 94.671724 
L 80.751043 94.894373 
L 80.48334 95.117053 
L 80.221763 95.339776 
L 79.966087 95.562532 
L 79.716092 95.785329 
L 79.471573 96.008159 
L 79.232336 96.23101 
L 78.998195 96.453904 
L 78.768974 96.676819 
L 78.544506 96.899755 
L 78.324634 97.122724 
L 78.109204 97.345714 
L 77.898075 97.568725 
L 77.691107 97.791757 
L 77.488171 98.01481 
L 77.28914 98.237875 
L 77.093896 98.46096 
L 76.902324 98.684067 
L 76.714314 98.907196 
L 76.529762 99.130335 
L 76.348568 99.353484 
L 76.170635 99.576655 
L 75.995872 99.799837 
L 75.824188 100.023029 
" style="fill:none;stroke:#800080;stroke-linecap:square;stroke-width:1.5;"/>
   </g>
   <g id="line2d_31">
    <path clip-path="url(#pc6b5fbfdc1)" d="M 75.911205 122.377982 
L 75.519366 122.599671 
L 75.162211 122.821669 
L 74.83291 123.043913 
L 74.526638 123.266327 
L 74.239832 123.488879 
L 73.969771 123.711549 
L 73.714317 123.934315 
L 73.471757 124.157145 
L 73.240687 124.380049 
L 73.019944 124.603018 
L 72.808549 124.826018 
L 72.605668 125.049072 
L 72.410585 125.272168 
L 72.222679 125.495286 
L 72.041406 125.718446 
L 71.866289 125.941617 
L 71.696904 126.16482 
L 71.532873 126.388044 
L 71.373858 126.611289 
L 71.219555 126.834556 
L 71.069689 127.057834 
L 70.924011 127.281122 
L 70.782292 127.504431 
L 70.644326 127.727751 
L 70.509921 127.951082 
L 70.378903 128.174424 
L 70.251109 128.397776 
L 70.126391 128.621139 
L 70.00461 128.844512 
L 69.885637 129.067885 
L 69.769353 129.29128 
L 69.655645 129.514675 
L 69.54441 129.73807 
L 69.435549 129.961475 
L 69.328971 130.184891 
L 69.22459 130.408307 
" style="fill:none;stroke:#800080;stroke-linecap:square;stroke-width:1.5;"/>
   </g>
   <g id="line2d_32">
    <path clip-path="url(#pc6b5fbfdc1)" d="M 145.309091 63.27674 
L 145.39783 63.053292 
L 145.486478 62.829823 
L 145.575036 62.606375 
L 145.663494 62.382927 
L 145.751852 62.159457 
L 145.84011 61.936009 
L 145.928269 61.712561 
L 146.016319 61.489092 
L 146.10425 61.265644 
L 146.192082 61.042196 
L 146.279796 60.818726 
L 146.367393 60.595278 
L 146.454871 60.371809 
L 146.542222 60.148361 
L 146.629456 59.924892 
L 146.716562 59.701443 
L 146.803532 59.477974 
L 146.890375 59.254526 
L 146.977092 59.031057 
L 147.063663 58.807609 
L 147.150098 58.584139 
L 147.236388 58.360691 
L 147.322542 58.137222 
L 147.408551 57.913774 
L 147.494405 57.690304 
L 147.580115 57.466856 
L 147.66567 57.243387 
L 147.751071 57.019918 
L 147.836309 56.79647 
L 147.921401 56.573 
L 148.006322 56.349531 
L 148.091088 56.126083 
L 148.175682 55.902613 
L 148.260112 55.679144 
L 148.34437 55.455675 
L 148.428465 55.232227 
L 148.512379 55.008757 
L 148.59612 54.785288 
L 148.679688 54.561819 
L 148.763076 54.338349 
L 148.846282 54.114901 
L 148.929306 53.891432 
L 149.012149 53.667962 
L 149.094802 53.444493 
L 149.177273 53.221024 
L 149.259554 52.997554 
L 149.341635 52.774085 
L 149.423535 52.550616 
L 149.505235 52.327146 
L 149.586745 52.103677 
L 149.668046 51.880207 
L 149.749156 51.656738 
L 149.830067 51.433269 
L 149.910779 51.209799 
L 149.991282 50.98633 
L 150.071585 50.762861 
L 150.15168 50.539391 
L 150.231566 50.315922 
L 150.311243 50.092431 
L 150.390712 49.868962 
L 150.469963 49.645492 
L 150.549014 49.422023 
L 150.627839 49.198554 
L 150.706455 48.975063 
L 150.784863 48.751594 
L 150.863043 48.528124 
L 150.941007 48.304634 
L 151.018752 48.081164 
L 151.09628 47.857695 
L 151.17358 47.634204 
L 151.250664 47.410735 
L 151.32752 47.187265 
L 151.40415 46.963775 
L 151.480562 46.740305 
L 151.556738 46.516815 
L 151.632696 46.293345 
L 151.708419 46.069855 
" style="fill:none;stroke:#800080;stroke-linecap:square;stroke-width:1.5;"/>
   </g>
   <g id="patch_3">
    <path d="M 54 252 
L 54 34.56 
" style="fill:none;stroke:#000000;stroke-linecap:square;stroke-linejoin:miter;stroke-width:0.8;"/>
   </g>
   <g id="patch_4">
    <path d="M 388.8 252 
L 388.8 34.56 
" style="fill:none;stroke:#000000;stroke-linecap:square;stroke-linejoin:miter;stroke-width:0.8;"/>
   </g>
   <g id="patch_5">
    <path d="M 54 252 
L 388.8 252 
" style="fill:none;stroke:#000000;stroke-linecap:square;stroke-linejoin:miter;stroke-width:0.8;"/>
   </g>
   <g id="patch_6">
    <path d="M 54 34.56 
L 388.8 34.56 
" style="fill:none;stroke:#000000;stroke-linecap:square;stroke-linejoin:miter;stroke-width:0.8;"/>
   </g>
   <g id="text_14">
    <!-- controller -->
    <defs>
     <path d="M 48.78125 52.59375 
L 48.78125 44.1875 
Q 44.96875 46.296875 41.140625 47.34375 
Q 37.3125 48.390625 33.40625 48.390625 
Q 24.65625 48.390625 19.8125 42.84375 
Q 14.984375 37.3125 14.984375 27.296875 
Q 14.984375 17.28125 19.8125 11.734375 
Q 24.65625 6.203125 33.40625 6.203125 
Q 37.3125 6.203125 41.140625 7.25 
Q 44.96875 8.296875 48.78125 10.40625 
L 48.78125 2.09375 
Q 45.015625 0.34375 40.984375 -0.53125 
Q 36.96875 -1.421875 32.421875 -1.421875 
Q 20.0625 -1.421875 12.78125 6.34375 
Q 5.515625 14.109375 5.515625 27.296875 
Q 5.515625 40.671875 12.859375 48.328125 
Q 20.21875 56 33.015625 56 
Q 37.15625 56 41.109375 55.140625 
Q 45.0625 54.296875 48.78125 52.59375 
z
" id="DejaVuSans-99"/>
     <path d="M 30.609375 48.390625 
Q 23.390625 48.390625 19.1875 42.75 
Q 14.984375 37.109375 14.984375 27.296875 
Q 14.984375 17.484375 19.15625 11.84375 
Q 23.34375 6.203125 30.609375 6.203125 
Q 37.796875 6.203125 41.984375 11.859375 
Q 46.1875 17.53125 46.1875 27.296875 
Q 46.1875 37.015625 41.984375 42.703125 
Q 37.796875 48.390625 30.609375 48.390625 
z
M 30.609375 56 
Q 42.328125 56 49.015625 48.375 
Q 55.71875 40.765625 55.71875 27.296875 
Q 55.71875 13.875 49.015625 6.21875 
Q 42.328125 -1.421875 30.609375 -1.421875 
Q 18.84375 -1.421875 12.171875 6.21875 
Q 5.515625 13.875 5.515625 27.296875 
Q 5.515625 40.765625 12.171875 48.375 
Q 18.84375 56 30.609375 56 
z
" id="DejaVuSans-111"/>
     <path d="M 54.890625 33.015625 
L 54.890625 0 
L 45.90625 0 
L 45.90625 32.71875 
Q 45.90625 40.484375 42.875 44.328125 
Q 39.84375 48.1875 33.796875 48.1875 
Q 26.515625 48.1875 22.3125 43.546875 
Q 18.109375 38.921875 18.109375 30.90625 
L 18.109375 0 
L 9.078125 0 
L 9.078125 54.6875 
L 18.109375 54.6875 
L 18.109375 46.1875 
Q 21.34375 51.125 25.703125 53.5625 
Q 30.078125 56 35.796875 56 
Q 45.21875 56 50.046875 50.171875 
Q 54.890625 44.34375 54.890625 33.015625 
z
" id="DejaVuSans-110"/>
     <path d="M 18.3125 70.21875 
L 18.3125 54.6875 
L 36.8125 54.6875 
L 36.8125 47.703125 
L 18.3125 47.703125 
L 18.3125 18.015625 
Q 18.3125 11.328125 20.140625 9.421875 
Q 21.96875 7.515625 27.59375 7.515625 
L 36.8125 7.515625 
L 36.8125 0 
L 27.59375 0 
Q 17.1875 0 13.234375 3.875 
Q 9.28125 7.765625 9.28125 18.015625 
L 9.28125 47.703125 
L 2.6875 47.703125 
L 2.6875 54.6875 
L 9.28125 54.6875 
L 9.28125 70.21875 
z
" id="DejaVuSans-116"/>
     <path d="M 41.109375 46.296875 
Q 39.59375 47.171875 37.8125 47.578125 
Q 36.03125 48 33.890625 48 
Q 26.265625 48 22.1875 43.046875 
Q 18.109375 38.09375 18.109375 28.8125 
L 18.109375 0 
L 9.078125 0 
L 9.078125 54.6875 
L 18.109375 54.6875 
L 18.109375 46.1875 
Q 20.953125 51.171875 25.484375 53.578125 
Q 30.03125 56 36.53125 56 
Q 37.453125 56 38.578125 55.875 
Q 39.703125 55.765625 41.0625 55.515625 
z
" id="DejaVuSans-114"/>
     <path d="M 9.421875 75.984375 
L 18.40625 75.984375 
L 18.40625 0 
L 9.421875 0 
z
" id="DejaVuSans-108"/>
     <path d="M 56.203125 29.59375 
L 56.203125 25.203125 
L 14.890625 25.203125 
Q 15.484375 15.921875 20.484375 11.0625 
Q 25.484375 6.203125 34.421875 6.203125 
Q 39.59375 6.203125 44.453125 7.46875 
Q 49.3125 8.734375 54.109375 11.28125 
L 54.109375 2.78125 
Q 49.265625 0.734375 44.1875 -0.34375 
Q 39.109375 -1.421875 33.890625 -1.421875 
Q 20.796875 -1.421875 13.15625 6.1875 
Q 5.515625 13.8125 5.515625 26.8125 
Q 5.515625 40.234375 12.765625 48.109375 
Q 20.015625 56 32.328125 56 
Q 43.359375 56 49.78125 48.890625 
Q 56.203125 41.796875 56.203125 29.59375 
z
M 47.21875 32.234375 
Q 47.125 39.59375 43.09375 43.984375 
Q 39.0625 48.390625 32.421875 48.390625 
Q 24.90625 48.390625 20.390625 44.140625 
Q 15.875 39.890625 15.1875 32.171875 
z
" id="DejaVuSans-101"/>
    </defs>
    <g transform="translate(192.646875 28.56)scale(0.12 -0.12)">
     <use xlink:href="#DejaVuSans-99"/>
     <use x="54.980469" xlink:href="#DejaVuSans-111"/>
     <use x="116.162109" xlink:href="#DejaVuSans-110"/>
     <use x="179.541016" xlink:href="#DejaVuSans-116"/>
     <use x="218.75" xlink:href="#DejaVuSans-114"/>
     <use x="259.832031" xlink:href="#DejaVuSans-111"/>
     <use x="321.013672" xlink:href="#DejaVuSans-108"/>
     <use x="348.796875" xlink:href="#DejaVuSans-108"/>
     <use x="376.580078" xlink:href="#DejaVuSans-101"/>
     <use x="438.103516" xlink:href="#DejaVuSans-114"/>
    </g>
   </g>
   <g id="legend_1">
    <g id="patch_7">
     <path d="M 396.201 124.339378 
L 436.347412 124.339378 
Q 437.505412 124.339378 437.505412 123.181378 
L 437.505412 38.613 
Q 437.505412 37.455 436.347412 37.455 
L 396.201 37.455 
Q 395.043 37.455 395.043 38.613 
L 395.043 123.181378 
Q 395.043 124.339378 396.201 124.339378 
z
" style="fill:#ffffff;opacity:0.8;stroke:#cccccc;stroke-linejoin:miter;"/>
    </g>
    <g id="line2d_33">
     <path d="M 397.359 42.143995 
L 408.939 42.143995 
" style="fill:none;stroke:#ffa500;stroke-linecap:square;stroke-width:1.5;"/>
    </g>
    <g id="line2d_34"/>
    <g id="text_15">
     <!-- T -->
     <defs>
      <path d="M -0.296875 72.90625 
L 61.375 72.90625 
L 61.375 64.59375 
L 35.5 64.59375 
L 35.5 0 
L 25.59375 0 
L 25.59375 64.59375 
L -0.296875 64.59375 
z
" id="DejaVuSans-84"/>
     </defs>
     <g transform="translate(413.571 44.170495)scale(0.0579 -0.0579)">
      <use xlink:href="#DejaVuSans-84"/>
     </g>
    </g>
    <g id="line2d_35">
     <path d="M 397.359 50.64263 
L 408.939 50.64263 
" style="fill:none;stroke:#ffa500;stroke-linecap:square;stroke-width:1.5;"/>
    </g>
    <g id="line2d_36"/>
    <g id="text_16">
     <!-- T -->
     <g transform="translate(413.571 52.66913)scale(0.0579 -0.0579)">
      <use xlink:href="#DejaVuSans-84"/>
     </g>
    </g>
    <g id="line2d_37">
     <path d="M 397.359 59.141264 
L 408.939 59.141264 
" style="fill:none;stroke:#ffa500;stroke-linecap:square;stroke-width:1.5;"/>
    </g>
    <g id="line2d_38"/>
    <g id="text_17">
     <!-- T -->
     <g transform="translate(413.571 61.167764)scale(0.0579 -0.0579)">
      <use xlink:href="#DejaVuSans-84"/>
     </g>
    </g>
    <g id="line2d_39">
     <path d="M 397.359 67.639898 
L 408.939 67.639898 
" style="fill:none;stroke:#ffa500;stroke-linecap:square;stroke-width:1.5;"/>
    </g>
    <g id="line2d_40"/>
    <g id="text_18">
     <!-- T -->
     <g transform="translate(413.571 69.666398)scale(0.0579 -0.0579)">
      <use xlink:href="#DejaVuSans-84"/>
     </g>
    </g>
    <g id="line2d_41">
     <path d="M 397.359 76.138533 
L 408.939 76.138533 
" style="fill:none;stroke:#ffa500;stroke-linecap:square;stroke-width:1.5;"/>
    </g>
    <g id="line2d_42"/>
    <g id="text_19">
     <!-- T -->
     <g transform="translate(413.571 78.165033)scale(0.0579 -0.0579)">
      <use xlink:href="#DejaVuSans-84"/>
     </g>
    </g>
    <g id="line2d_43">
     <path d="M 397.359 84.637167 
L 408.939 84.637167 
" style="fill:none;stroke:#ffa500;stroke-linecap:square;stroke-width:1.5;"/>
    </g>
    <g id="line2d_44"/>
    <g id="text_20">
     <!-- Tu1 -->
     <defs>
      <path d="M 8.5 21.578125 
L 8.5 54.6875 
L 17.484375 54.6875 
L 17.484375 21.921875 
Q 17.484375 14.15625 20.5 10.265625 
Q 23.53125 6.390625 29.59375 6.390625 
Q 36.859375 6.390625 41.078125 11.03125 
Q 45.3125 15.671875 45.3125 23.6875 
L 45.3125 54.6875 
L 54.296875 54.6875 
L 54.296875 0 
L 45.3125 0 
L 45.3125 8.40625 
Q 42.046875 3.421875 37.71875 1 
Q 33.40625 -1.421875 27.6875 -1.421875 
Q 18.265625 -1.421875 13.375 4.4375 
Q 8.5 10.296875 8.5 21.578125 
z
M 31.109375 56 
z
" id="DejaVuSans-117"/>
     </defs>
     <g transform="translate(413.571 86.663667)scale(0.0579 -0.0579)">
      <use xlink:href="#DejaVuSans-84"/>
      <use x="60.849609" xlink:href="#DejaVuSans-117"/>
      <use x="124.228516" xlink:href="#DejaVuSans-49"/>
     </g>
    </g>
    <g id="line2d_45">
     <path d="M 397.359 93.135802 
L 408.939 93.135802 
" style="fill:none;stroke:#800080;stroke-linecap:square;stroke-width:1.5;"/>
    </g>
    <g id="line2d_46"/>
    <g id="text_21">
     <!-- Tu2 -->
     <g transform="translate(413.571 95.162302)scale(0.0579 -0.0579)">
      <use xlink:href="#DejaVuSans-84"/>
      <use x="60.849609" xlink:href="#DejaVuSans-117"/>
      <use x="124.228516" xlink:href="#DejaVuSans-50"/>
     </g>
    </g>
    <g id="line2d_47">
     <path d="M 397.359 101.634436 
L 408.939 101.634436 
" style="fill:none;stroke:#800080;stroke-linecap:square;stroke-width:1.5;"/>
    </g>
    <g id="line2d_48"/>
    <g id="text_22">
     <!-- Tu3 -->
     <defs>
      <path d="M 40.578125 39.3125 
Q 47.65625 37.796875 51.625 33 
Q 55.609375 28.21875 55.609375 21.1875 
Q 55.609375 10.40625 48.1875 4.484375 
Q 40.765625 -1.421875 27.09375 -1.421875 
Q 22.515625 -1.421875 17.65625 -0.515625 
Q 12.796875 0.390625 7.625 2.203125 
L 7.625 11.71875 
Q 11.71875 9.328125 16.59375 8.109375 
Q 21.484375 6.890625 26.8125 6.890625 
Q 36.078125 6.890625 40.9375 10.546875 
Q 45.796875 14.203125 45.796875 21.1875 
Q 45.796875 27.640625 41.28125 31.265625 
Q 36.765625 34.90625 28.71875 34.90625 
L 20.21875 34.90625 
L 20.21875 43.015625 
L 29.109375 43.015625 
Q 36.375 43.015625 40.234375 45.921875 
Q 44.09375 48.828125 44.09375 54.296875 
Q 44.09375 59.90625 40.109375 62.90625 
Q 36.140625 65.921875 28.71875 65.921875 
Q 24.65625 65.921875 20.015625 65.03125 
Q 15.375 64.15625 9.8125 62.3125 
L 9.8125 71.09375 
Q 15.4375 72.65625 20.34375 73.4375 
Q 25.25 74.21875 29.59375 74.21875 
Q 40.828125 74.21875 47.359375 69.109375 
Q 53.90625 64.015625 53.90625 55.328125 
Q 53.90625 49.265625 50.4375 45.09375 
Q 46.96875 40.921875 40.578125 39.3125 
z
" id="DejaVuSans-51"/>
     </defs>
     <g transform="translate(413.571 103.660936)scale(0.0579 -0.0579)">
      <use xlink:href="#DejaVuSans-84"/>
      <use x="60.849609" xlink:href="#DejaVuSans-117"/>
      <use x="124.228516" xlink:href="#DejaVuSans-51"/>
     </g>
    </g>
    <g id="line2d_49">
     <path d="M 397.359 110.13307 
L 408.939 110.13307 
" style="fill:none;stroke:#800080;stroke-linecap:square;stroke-width:1.5;"/>
    </g>
    <g id="line2d_50"/>
    <g id="text_23">
     <!-- Tu4 -->
     <g transform="translate(413.571 112.15957)scale(0.0579 -0.0579)">
      <use xlink:href="#DejaVuSans-84"/>
      <use x="60.849609" xlink:href="#DejaVuSans-117"/>
      <use x="124.228516" xlink:href="#DejaVuSans-52"/>
     </g>
    </g>
    <g id="line2d_51">
     <path d="M 397.359 118.631705 
L 408.939 118.631705 
" style="fill:none;stroke:#800080;stroke-linecap:square;stroke-width:1.5;"/>
    </g>
    <g id="line2d_52"/>
    <g id="text_24">
     <!-- T_extra -->
     <defs>
      <path d="M 50.984375 -16.609375 
L 50.984375 -23.578125 
L -0.984375 -23.578125 
L -0.984375 -16.609375 
z
" id="DejaVuSans-95"/>
      <path d="M 54.890625 54.6875 
L 35.109375 28.078125 
L 55.90625 0 
L 45.3125 0 
L 29.390625 21.484375 
L 13.484375 0 
L 2.875 0 
L 24.125 28.609375 
L 4.6875 54.6875 
L 15.28125 54.6875 
L 29.78125 35.203125 
L 44.28125 54.6875 
z
" id="DejaVuSans-120"/>
      <path d="M 34.28125 27.484375 
Q 23.390625 27.484375 19.1875 25 
Q 14.984375 22.515625 14.984375 16.5 
Q 14.984375 11.71875 18.140625 8.90625 
Q 21.296875 6.109375 26.703125 6.109375 
Q 34.1875 6.109375 38.703125 11.40625 
Q 43.21875 16.703125 43.21875 25.484375 
L 43.21875 27.484375 
z
M 52.203125 31.203125 
L 52.203125 0 
L 43.21875 0 
L 43.21875 8.296875 
Q 40.140625 3.328125 35.546875 0.953125 
Q 30.953125 -1.421875 24.3125 -1.421875 
Q 15.921875 -1.421875 10.953125 3.296875 
Q 6 8.015625 6 15.921875 
Q 6 25.140625 12.171875 29.828125 
Q 18.359375 34.515625 30.609375 34.515625 
L 43.21875 34.515625 
L 43.21875 35.40625 
Q 43.21875 41.609375 39.140625 45 
Q 35.0625 48.390625 27.6875 48.390625 
Q 23 48.390625 18.546875 47.265625 
Q 14.109375 46.140625 10.015625 43.890625 
L 10.015625 52.203125 
Q 14.9375 54.109375 19.578125 55.046875 
Q 24.21875 56 28.609375 56 
Q 40.484375 56 46.34375 49.84375 
Q 52.203125 43.703125 52.203125 31.203125 
z
" id="DejaVuSans-97"/>
     </defs>
     <g transform="translate(413.571 120.658205)scale(0.0579 -0.0579)">
      <use xlink:href="#DejaVuSans-84"/>
      <use x="61.083984" xlink:href="#DejaVuSans-95"/>
      <use x="111.083984" xlink:href="#DejaVuSans-101"/>
      <use x="172.591797" xlink:href="#DejaVuSans-120"/>
      <use x="231.771484" xlink:href="#DejaVuSans-116"/>
      <use x="270.980469" xlink:href="#DejaVuSans-114"/>
      <use x="312.09375" xlink:href="#DejaVuSans-97"/>
     </g>
    </g>
   </g>
  </g>
 </g>
 <defs>
  <clipPath id="pc6b5fbfdc1">
   <rect height="217.44" width="334.8" x="54" y="34.56"/>
  </clipPath>
 </defs>
</svg>
