<?xml version="1.0" encoding="utf-8" standalone="no"?>
<!DOCTYPE svg PUBLIC "-//W3C//DTD SVG 1.1//EN"
  "http://www.w3.org/Graphics/SVG/1.1/DTD/svg11.dtd">
<!-- Created with matplotlib (https://matplotlib.org/) -->
<svg height="288pt" version="1.1" viewBox="0 0 432 288" width="432pt" xmlns="http://www.w3.org/2000/svg" xmlns:xlink="http://www.w3.org/1999/xlink">
 <defs>
  <style type="text/css">
*{stroke-linecap:butt;stroke-linejoin:round;}
  </style>
 </defs>
 <g id="figure_1">
  <g id="patch_1">
   <path d="M 0 288 
L 432 288 
L 432 0 
L 0 0 
z
" style="fill:#ffffff;"/>
  </g>
  <g id="axes_1">
   <g id="patch_2">
    <path d="M 54 252 
L 388.8 252 
L 388.8 34.56 
L 54 34.56 
z
" style="fill:#ffffff;"/>
   </g>
   <g id="matplotlib.axis_1">
    <g id="xtick_1">
     <g id="line2d_1">
      <path clip-path="url(#p5c93556d4f)" d="M 69.218182 252 
L 69.218182 34.56 
" style="fill:none;stroke:#b0b0b0;stroke-linecap:square;stroke-width:0.8;"/>
     </g>
     <g id="line2d_2">
      <defs>
       <path d="M 0 0 
L 0 3.5 
" id="m53588a444e" style="stroke:#000000;stroke-width:0.8;"/>
      </defs>
      <g>
       <use style="stroke:#000000;stroke-width:0.8;" x="69.218182" xlink:href="#m53588a444e" y="252"/>
      </g>
     </g>
     <g id="text_1">
      <!-- 0.0 -->
      <defs>
       <path d="M 31.78125 66.40625 
Q 24.171875 66.40625 20.328125 58.90625 
Q 16.5 51.421875 16.5 36.375 
Q 16.5 21.390625 20.328125 13.890625 
Q 24.171875 6.390625 31.78125 6.390625 
Q 39.453125 6.390625 43.28125 13.890625 
Q 47.125 21.390625 47.125 36.375 
Q 47.125 51.421875 43.28125 58.90625 
Q 39.453125 66.40625 31.78125 66.40625 
z
M 31.78125 74.21875 
Q 44.046875 74.21875 50.515625 64.515625 
Q 56.984375 54.828125 56.984375 36.375 
Q 56.984375 17.96875 50.515625 8.265625 
Q 44.046875 -1.421875 31.78125 -1.421875 
Q 19.53125 -1.421875 13.0625 8.265625 
Q 6.59375 17.96875 6.59375 36.375 
Q 6.59375 54.828125 13.0625 64.515625 
Q 19.53125 74.21875 31.78125 74.21875 
z
" id="DejaVuSans-48"/>
       <path d="M 10.6875 12.40625 
L 21 12.40625 
L 21 0 
L 10.6875 0 
z
" id="DejaVuSans-46"/>
      </defs>
      <g transform="translate(61.266619 266.598437)scale(0.1 -0.1)">
       <use xlink:href="#DejaVuSans-48"/>
       <use x="63.623047" xlink:href="#DejaVuSans-46"/>
       <use x="95.410156" xlink:href="#DejaVuSans-48"/>
      </g>
     </g>
    </g>
    <g id="xtick_2">
     <g id="line2d_3">
      <path clip-path="url(#p5c93556d4f)" d="M 130.067878 252 
L 130.067878 34.56 
" style="fill:none;stroke:#b0b0b0;stroke-linecap:square;stroke-width:0.8;"/>
     </g>
     <g id="line2d_4">
      <g>
       <use style="stroke:#000000;stroke-width:0.8;" x="130.067878" xlink:href="#m53588a444e" y="252"/>
      </g>
     </g>
     <g id="text_2">
      <!-- 0.2 -->
      <defs>
       <path d="M 19.1875 8.296875 
L 53.609375 8.296875 
L 53.609375 0 
L 7.328125 0 
L 7.328125 8.296875 
Q 12.9375 14.109375 22.625 23.890625 
Q 32.328125 33.6875 34.8125 36.53125 
Q 39.546875 41.84375 41.421875 45.53125 
Q 43.3125 49.21875 43.3125 52.78125 
Q 43.3125 58.59375 39.234375 62.25 
Q 35.15625 65.921875 28.609375 65.921875 
Q 23.96875 65.921875 18.8125 64.3125 
Q 13.671875 62.703125 7.8125 59.421875 
L 7.8125 69.390625 
Q 13.765625 71.78125 18.9375 73 
Q 24.125 74.21875 28.421875 74.21875 
Q 39.75 74.21875 46.484375 68.546875 
Q 53.21875 62.890625 53.21875 53.421875 
Q 53.21875 48.921875 51.53125 44.890625 
Q 49.859375 40.875 45.40625 35.40625 
Q 44.1875 33.984375 37.640625 27.21875 
Q 31.109375 20.453125 19.1875 8.296875 
z
" id="DejaVuSans-50"/>
      </defs>
      <g transform="translate(122.116316 266.598437)scale(0.1 -0.1)">
       <use xlink:href="#DejaVuSans-48"/>
       <use x="63.623047" xlink:href="#DejaVuSans-46"/>
       <use x="95.410156" xlink:href="#DejaVuSans-50"/>
      </g>
     </g>
    </g>
    <g id="xtick_3">
     <g id="line2d_5">
      <path clip-path="url(#p5c93556d4f)" d="M 190.917574 252 
L 190.917574 34.56 
" style="fill:none;stroke:#b0b0b0;stroke-linecap:square;stroke-width:0.8;"/>
     </g>
     <g id="line2d_6">
      <g>
       <use style="stroke:#000000;stroke-width:0.8;" x="190.917574" xlink:href="#m53588a444e" y="252"/>
      </g>
     </g>
     <g id="text_3">
      <!-- 0.4 -->
      <defs>
       <path d="M 37.796875 64.3125 
L 12.890625 25.390625 
L 37.796875 25.390625 
z
M 35.203125 72.90625 
L 47.609375 72.90625 
L 47.609375 25.390625 
L 58.015625 25.390625 
L 58.015625 17.1875 
L 47.609375 17.1875 
L 47.609375 0 
L 37.796875 0 
L 37.796875 17.1875 
L 4.890625 17.1875 
L 4.890625 26.703125 
z
" id="DejaVuSans-52"/>
      </defs>
      <g transform="translate(182.966012 266.598437)scale(0.1 -0.1)">
       <use xlink:href="#DejaVuSans-48"/>
       <use x="63.623047" xlink:href="#DejaVuSans-46"/>
       <use x="95.410156" xlink:href="#DejaVuSans-52"/>
      </g>
     </g>
    </g>
    <g id="xtick_4">
     <g id="line2d_7">
      <path clip-path="url(#p5c93556d4f)" d="M 251.767271 252 
L 251.767271 34.56 
" style="fill:none;stroke:#b0b0b0;stroke-linecap:square;stroke-width:0.8;"/>
     </g>
     <g id="line2d_8">
      <g>
       <use style="stroke:#000000;stroke-width:0.8;" x="251.767271" xlink:href="#m53588a444e" y="252"/>
      </g>
     </g>
     <g id="text_4">
      <!-- 0.6 -->
      <defs>
       <path d="M 33.015625 40.375 
Q 26.375 40.375 22.484375 35.828125 
Q 18.609375 31.296875 18.609375 23.390625 
Q 18.609375 15.53125 22.484375 10.953125 
Q 26.375 6.390625 33.015625 6.390625 
Q 39.65625 6.390625 43.53125 10.953125 
Q 47.40625 15.53125 47.40625 23.390625 
Q 47.40625 31.296875 43.53125 35.828125 
Q 39.65625 40.375 33.015625 40.375 
z
M 52.59375 71.296875 
L 52.59375 62.3125 
Q 48.875 64.0625 45.09375 64.984375 
Q 41.3125 65.921875 37.59375 65.921875 
Q 27.828125 65.921875 22.671875 59.328125 
Q 17.53125 52.734375 16.796875 39.40625 
Q 19.671875 43.65625 24.015625 45.921875 
Q 28.375 48.1875 33.59375 48.1875 
Q 44.578125 48.1875 50.953125 41.515625 
Q 57.328125 34.859375 57.328125 23.390625 
Q 57.328125 12.15625 50.6875 5.359375 
Q 44.046875 -1.421875 33.015625 -1.421875 
Q 20.359375 -1.421875 13.671875 8.265625 
Q 6.984375 17.96875 6.984375 36.375 
Q 6.984375 53.65625 15.1875 63.9375 
Q 23.390625 74.21875 37.203125 74.21875 
Q 40.921875 74.21875 44.703125 73.484375 
Q 48.484375 72.75 52.59375 71.296875 
z
" id="DejaVuSans-54"/>
      </defs>
      <g transform="translate(243.815708 266.598437)scale(0.1 -0.1)">
       <use xlink:href="#DejaVuSans-48"/>
       <use x="63.623047" xlink:href="#DejaVuSans-46"/>
       <use x="95.410156" xlink:href="#DejaVuSans-54"/>
      </g>
     </g>
    </g>
    <g id="xtick_5">
     <g id="line2d_9">
      <path clip-path="url(#p5c93556d4f)" d="M 312.616967 252 
L 312.616967 34.56 
" style="fill:none;stroke:#b0b0b0;stroke-linecap:square;stroke-width:0.8;"/>
     </g>
     <g id="line2d_10">
      <g>
       <use style="stroke:#000000;stroke-width:0.8;" x="312.616967" xlink:href="#m53588a444e" y="252"/>
      </g>
     </g>
     <g id="text_5">
      <!-- 0.8 -->
      <defs>
       <path d="M 31.78125 34.625 
Q 24.75 34.625 20.71875 30.859375 
Q 16.703125 27.09375 16.703125 20.515625 
Q 16.703125 13.921875 20.71875 10.15625 
Q 24.75 6.390625 31.78125 6.390625 
Q 38.8125 6.390625 42.859375 10.171875 
Q 46.921875 13.96875 46.921875 20.515625 
Q 46.921875 27.09375 42.890625 30.859375 
Q 38.875 34.625 31.78125 34.625 
z
M 21.921875 38.8125 
Q 15.578125 40.375 12.03125 44.71875 
Q 8.5 49.078125 8.5 55.328125 
Q 8.5 64.0625 14.71875 69.140625 
Q 20.953125 74.21875 31.78125 74.21875 
Q 42.671875 74.21875 48.875 69.140625 
Q 55.078125 64.0625 55.078125 55.328125 
Q 55.078125 49.078125 51.53125 44.71875 
Q 48 40.375 41.703125 38.8125 
Q 48.828125 37.15625 52.796875 32.3125 
Q 56.78125 27.484375 56.78125 20.515625 
Q 56.78125 9.90625 50.3125 4.234375 
Q 43.84375 -1.421875 31.78125 -1.421875 
Q 19.734375 -1.421875 13.25 4.234375 
Q 6.78125 9.90625 6.78125 20.515625 
Q 6.78125 27.484375 10.78125 32.3125 
Q 14.796875 37.15625 21.921875 38.8125 
z
M 18.3125 54.390625 
Q 18.3125 48.734375 21.84375 45.5625 
Q 25.390625 42.390625 31.78125 42.390625 
Q 38.140625 42.390625 41.71875 45.5625 
Q 45.3125 48.734375 45.3125 54.390625 
Q 45.3125 60.0625 41.71875 63.234375 
Q 38.140625 66.40625 31.78125 66.40625 
Q 25.390625 66.40625 21.84375 63.234375 
Q 18.3125 60.0625 18.3125 54.390625 
z
" id="DejaVuSans-56"/>
      </defs>
      <g transform="translate(304.665405 266.598437)scale(0.1 -0.1)">
       <use xlink:href="#DejaVuSans-48"/>
       <use x="63.623047" xlink:href="#DejaVuSans-46"/>
       <use x="95.410156" xlink:href="#DejaVuSans-56"/>
      </g>
     </g>
    </g>
    <g id="xtick_6">
     <g id="line2d_11">
      <path clip-path="url(#p5c93556d4f)" d="M 373.466663 252 
L 373.466663 34.56 
" style="fill:none;stroke:#b0b0b0;stroke-linecap:square;stroke-width:0.8;"/>
     </g>
     <g id="line2d_12">
      <g>
       <use style="stroke:#000000;stroke-width:0.8;" x="373.466663" xlink:href="#m53588a444e" y="252"/>
      </g>
     </g>
     <g id="text_6">
      <!-- 1.0 -->
      <defs>
       <path d="M 12.40625 8.296875 
L 28.515625 8.296875 
L 28.515625 63.921875 
L 10.984375 60.40625 
L 10.984375 69.390625 
L 28.421875 72.90625 
L 38.28125 72.90625 
L 38.28125 8.296875 
L 54.390625 8.296875 
L 54.390625 0 
L 12.40625 0 
z
" id="DejaVuSans-49"/>
      </defs>
      <g transform="translate(365.515101 266.598437)scale(0.1 -0.1)">
       <use xlink:href="#DejaVuSans-49"/>
       <use x="63.623047" xlink:href="#DejaVuSans-46"/>
       <use x="95.410156" xlink:href="#DejaVuSans-48"/>
      </g>
     </g>
    </g>
    <g id="text_7">
     <!-- $x_1$ -->
     <defs>
      <path d="M 60.015625 54.6875 
L 34.90625 27.875 
L 50.296875 0 
L 39.984375 0 
L 28.421875 21.6875 
L 8.296875 0 
L -2.59375 0 
L 24.3125 28.8125 
L 10.015625 54.6875 
L 20.3125 54.6875 
L 30.8125 34.90625 
L 49.125 54.6875 
z
" id="DejaVuSans-Oblique-120"/>
     </defs>
     <g transform="translate(216.05 280.276563)scale(0.1 -0.1)">
      <use transform="translate(0 0.3125)" xlink:href="#DejaVuSans-Oblique-120"/>
      <use transform="translate(59.179688 -16.09375)scale(0.7)" xlink:href="#DejaVuSans-49"/>
     </g>
    </g>
   </g>
   <g id="matplotlib.axis_2">
    <g id="ytick_1">
     <g id="line2d_13">
      <path clip-path="url(#p5c93556d4f)" d="M 54 242.116364 
L 388.8 242.116364 
" style="fill:none;stroke:#b0b0b0;stroke-linecap:square;stroke-width:0.8;"/>
     </g>
     <g id="line2d_14">
      <defs>
       <path d="M 0 0 
L -3.5 0 
" id="m3cfab99042" style="stroke:#000000;stroke-width:0.8;"/>
      </defs>
      <g>
       <use style="stroke:#000000;stroke-width:0.8;" x="54" xlink:href="#m3cfab99042" y="242.116364"/>
      </g>
     </g>
     <g id="text_8">
      <!-- 0 -->
      <g transform="translate(40.6375 245.915582)scale(0.1 -0.1)">
       <use xlink:href="#DejaVuSans-48"/>
      </g>
     </g>
    </g>
    <g id="ytick_2">
     <g id="line2d_15">
      <path clip-path="url(#p5c93556d4f)" d="M 54 197.406458 
L 388.8 197.406458 
" style="fill:none;stroke:#b0b0b0;stroke-linecap:square;stroke-width:0.8;"/>
     </g>
     <g id="line2d_16">
      <g>
       <use style="stroke:#000000;stroke-width:0.8;" x="54" xlink:href="#m3cfab99042" y="197.406458"/>
      </g>
     </g>
     <g id="text_9">
      <!-- 2 -->
      <g transform="translate(40.6375 201.205677)scale(0.1 -0.1)">
       <use xlink:href="#DejaVuSans-50"/>
      </g>
     </g>
    </g>
    <g id="ytick_3">
     <g id="line2d_17">
      <path clip-path="url(#p5c93556d4f)" d="M 54 152.696552 
L 388.8 152.696552 
" style="fill:none;stroke:#b0b0b0;stroke-linecap:square;stroke-width:0.8;"/>
     </g>
     <g id="line2d_18">
      <g>
       <use style="stroke:#000000;stroke-width:0.8;" x="54" xlink:href="#m3cfab99042" y="152.696552"/>
      </g>
     </g>
     <g id="text_10">
      <!-- 4 -->
      <g transform="translate(40.6375 156.495771)scale(0.1 -0.1)">
       <use xlink:href="#DejaVuSans-52"/>
      </g>
     </g>
    </g>
    <g id="ytick_4">
     <g id="line2d_19">
      <path clip-path="url(#p5c93556d4f)" d="M 54 107.986646 
L 388.8 107.986646 
" style="fill:none;stroke:#b0b0b0;stroke-linecap:square;stroke-width:0.8;"/>
     </g>
     <g id="line2d_20">
      <g>
       <use style="stroke:#000000;stroke-width:0.8;" x="54" xlink:href="#m3cfab99042" y="107.986646"/>
      </g>
     </g>
     <g id="text_11">
      <!-- 6 -->
      <g transform="translate(40.6375 111.785865)scale(0.1 -0.1)">
       <use xlink:href="#DejaVuSans-54"/>
      </g>
     </g>
    </g>
    <g id="ytick_5">
     <g id="line2d_21">
      <path clip-path="url(#p5c93556d4f)" d="M 54 63.27674 
L 388.8 63.27674 
" style="fill:none;stroke:#b0b0b0;stroke-linecap:square;stroke-width:0.8;"/>
     </g>
     <g id="line2d_22">
      <g>
       <use style="stroke:#000000;stroke-width:0.8;" x="54" xlink:href="#m3cfab99042" y="63.27674"/>
      </g>
     </g>
     <g id="text_12">
      <!-- 8 -->
      <g transform="translate(40.6375 67.075959)scale(0.1 -0.1)">
       <use xlink:href="#DejaVuSans-56"/>
      </g>
     </g>
    </g>
    <g id="text_13">
     <!-- $x_2$ -->
     <g transform="translate(34.557813 148.63)rotate(-90)scale(0.1 -0.1)">
      <use transform="translate(0 0.3125)" xlink:href="#DejaVuSans-Oblique-120"/>
      <use transform="translate(59.179688 -16.09375)scale(0.7)" xlink:href="#DejaVuSans-50"/>
     </g>
    </g>
   </g>
   <g id="line2d_23">
    <path clip-path="url(#p5c93556d4f)" d="M 304.322013 46.208793 
L 319.523741 46.1669 
L 331.216003 45.451849 
L 340.958666 44.593405 
L 356.033923 44.443636 
L 362.627146 45.450933 
L 366.059287 46.539861 
L 368.345936 47.644928 
L 370.050064 48.755623 
L 371.402182 49.868962 
L 372.518748 50.983686 
L 373.466663 52.099264 
" style="fill:none;stroke:#ffa500;stroke-linecap:square;stroke-width:1.5;"/>
   </g>
   <g id="line2d_24">
    <path clip-path="url(#p5c93556d4f)" d="M 371.152377 242.116055 
L 371.153792 240.998308 
L 371.156621 239.88056 
L 371.160864 238.762812 
L 371.16654 237.645065 
L 371.173613 236.527318 
L 371.182118 235.40957 
L 371.192038 234.291822 
L 371.20339 233.174075 
L 371.216139 232.056328 
L 371.23032 230.938581 
L 371.245934 229.820834 
L 371.262962 228.703086 
L 371.281423 227.58534 
L 371.301317 226.467593 
L 371.322625 225.349846 
L 371.345366 224.2321 
L 371.369539 223.114355 
L 371.395164 221.996608 
L 371.42222 220.878863 
L 371.45071 219.761118 
L 371.480632 218.643371 
L 371.512023 217.525627 
L 371.544847 216.40788 
L 371.579121 215.290137 
L 371.614864 214.172393 
L 371.65204 213.054646 
L 371.690703 211.936902 
L 371.730817 210.819158 
L 371.7724 209.701417 
L 371.815452 208.583673 
L 371.859972 207.465929 
L 371.90598 206.348188 
L 371.953474 205.230444 
L 372.002456 204.112703 
L 372.052924 202.994961 
L 372.10488 201.87722 
L 372.158359 200.759479 
L 372.213325 199.64174 
L 372.269815 198.523999 
L 372.327809 197.406261 
L 372.387327 196.288519 
L 372.448368 195.170783 
L 372.510951 194.053042 
L 372.575075 192.935306 
L 372.640722 191.81757 
L 372.707929 190.699834 
L 372.776695 189.582098 
L 372.847021 188.464363 
L 372.918925 187.346627 
L 372.992389 186.228891 
L 373.067448 185.111155 
L 373.144085 183.993424 
L 373.222317 182.875688 
L 373.302146 181.757958 
L 373.383607 180.640227 
L 373.466663 179.522496 
" style="fill:none;stroke:#ffa500;stroke-linecap:square;stroke-width:1.5;"/>
   </g>
   <g id="line2d_25">
    <path clip-path="url(#p5c93556d4f)" d="M 69.218182 242.116364 
L 72.268022 242.116364 
L 75.317862 242.116364 
L 78.367702 242.116364 
L 81.417543 242.116364 
L 84.467383 242.116364 
L 87.517223 242.116364 
L 90.567064 242.116364 
L 93.616904 242.116364 
L 96.666744 242.116364 
L 99.716584 242.116364 
L 102.766424 242.116364 
L 105.816265 242.116364 
L 108.866107 242.116364 
L 111.915947 242.116364 
L 114.965787 242.116364 
L 118.015627 242.116364 
L 121.065467 242.116364 
L 124.115307 242.116364 
L 127.165147 242.116364 
L 130.214987 242.116364 
L 133.264827 242.116364 
L 136.314667 242.116364 
L 139.364507 242.116364 
L 142.414347 242.116364 
L 145.464187 242.116364 
L 148.514032 242.116364 
L 151.563867 242.116364 
L 154.613712 242.116364 
L 157.663547 242.116364 
L 160.713392 242.116364 
L 163.763227 242.116364 
L 166.813072 242.116364 
L 169.862908 242.116364 
L 172.912752 242.116364 
L 175.962588 242.116364 
L 179.012432 242.116364 
L 182.062277 242.116364 
L 185.112112 242.116364 
L 188.161957 242.116364 
L 191.211792 242.116364 
L 194.261637 242.116364 
L 197.311472 242.116364 
L 200.361317 242.116364 
L 203.411153 242.116364 
L 206.460997 242.116364 
L 209.510833 242.116364 
L 212.560677 242.116364 
L 215.610513 242.116364 
L 218.660357 242.116364 
L 221.710193 242.116364 
L 224.760037 242.116364 
L 227.809882 242.116364 
L 230.859708 242.116364 
L 233.909553 242.116364 
L 236.959397 242.116364 
L 240.009242 242.116364 
L 243.059087 242.116364 
L 246.108913 242.116364 
L 249.158758 242.116364 
L 252.208602 242.116364 
L 255.258447 242.116364 
L 258.308273 242.116364 
L 261.358118 242.116364 
L 264.407962 242.116364 
L 267.457807 242.116364 
L 270.507633 242.116364 
L 273.557478 242.116364 
L 276.607322 242.116364 
L 279.657167 242.116364 
L 282.706993 242.116364 
L 285.756838 242.116364 
L 288.806683 242.116364 
L 291.856527 242.116364 
L 294.906372 242.116364 
L 297.956198 242.116364 
L 301.006043 242.116364 
L 304.055887 242.116364 
L 307.105732 242.116364 
L 310.155558 242.116364 
L 313.205403 242.116364 
L 316.255247 242.116364 
L 319.305092 242.116364 
L 322.354918 242.116364 
L 325.404763 242.116364 
L 328.454608 242.116364 
L 331.504452 242.116364 
L 334.554279 242.116364 
L 337.604123 242.116364 
L 340.653968 242.116364 
L 343.703812 242.116364 
L 346.753657 242.116364 
L 349.803483 242.116364 
L 352.853328 242.116364 
L 355.903172 242.116364 
L 358.953017 242.116364 
L 362.002843 242.116364 
L 365.052688 242.116364 
L 368.102533 242.116364 
L 371.152377 242.116364 
" style="fill:none;stroke:#ffa500;stroke-linecap:square;stroke-width:1.5;"/>
   </g>
   <g id="line2d_26">
    <path clip-path="url(#p5c93556d4f)" d="M 288.277097 69.214775 
L 291.319579 71.834496 
L 294.362061 71.834496 
L 297.404543 69.214775 
L 300.447025 60.154906 
L 303.489507 48.257006 
L 304.322013 46.208793 
" style="fill:none;stroke:#ffa500;stroke-linecap:square;stroke-width:1.5;"/>
   </g>
   <g id="line2d_27">
    <path clip-path="url(#p5c93556d4f)" d="M 288.277097 91.569727 
L 288.122391 91.346471 
L 287.967449 91.123204 
L 287.812271 90.899948 
L 287.656875 90.676692 
L 287.501262 90.453436 
L 287.345431 90.23018 
L 287.189419 90.006924 
L 287.033189 89.783667 
L 286.876778 89.560411 
L 286.720204 89.337166 
L 286.56343 89.11391 
L 286.406511 88.890653 
L 286.249447 88.667408 
L 286.09222 88.444152 
L 285.934847 88.220906 
L 285.777366 87.99765 
L 285.61974 87.774404 
L 285.462005 87.551159 
L 285.304162 87.327903 
L 285.146227 87.104657 
L 284.988202 86.881412 
L 284.830104 86.658166 
L 284.671916 86.434921 
L 284.513673 86.211665 
L 284.355358 85.988419 
L 284.197007 85.765174 
L 284.038619 85.541928 
L 283.880195 85.318683 
L 283.721753 85.095437 
L 283.563274 84.872191 
L 283.404814 84.648946 
L 283.246335 84.4257 
L 283.087875 84.202455 
L 282.929433 83.979209 
L 282.771027 83.755964 
L 282.612639 83.532718 
L 282.454287 83.309473 
L 282.296009 83.086217 
L 282.137766 82.862971 
L 281.979614 82.639726 
L 281.821516 82.41648 
L 281.663509 82.193235 
L 281.505593 81.969978 
L 281.347767 81.746733 
L 281.19005 81.523487 
L 281.032442 81.300231 
L 280.874961 81.076986 
L 280.717607 80.85374 
L 280.560398 80.630484 
L 280.403316 80.407239 
L 280.246397 80.183982 
L 280.089623 79.960726 
L 279.933031 79.737481 
L 279.776602 79.514224 
L 279.620354 79.290968 
L 279.464287 79.067712 
L 279.30842 78.844456 
L 279.152734 78.6212 
" style="fill:none;stroke:#ffa500;stroke-linecap:square;stroke-width:1.5;"/>
   </g>
   <g id="line2d_28">
    <path clip-path="url(#p5c93556d4f)" d="M 279.149633 78.6212 
L 278.994183 78.397944 
L 278.838933 78.174687 
L 278.683918 77.951421 
L 278.529121 77.728164 
L 278.37456 77.504908 
L 278.220234 77.281641 
L 278.066144 77.058375 
L 277.912308 76.835118 
L 277.758726 76.611852 
L 277.605398 76.388585 
L 277.45236 76.165318 
L 277.299575 75.942051 
L 277.147063 75.718784 
L 276.994841 75.495517 
L 276.842909 75.27224 
L 276.691268 75.048973 
L 276.539916 74.825696 
L 276.388873 74.602429 
L 276.238138 74.379151 
L 276.087711 74.155874 
L 275.937611 73.932596 
L 275.787819 73.709319 
L 275.638353 73.486041 
L 275.489214 73.262753 
L 275.34042 73.039476 
L 275.191951 72.816187 
L 275.043828 72.59291 
L 274.896049 72.369622 
L 274.748614 72.146334 
L 274.601524 71.923046 
L 274.454797 71.699757 
L 274.308433 71.476469 
L 274.162413 71.25317 
L 274.016773 71.029882 
L 273.871479 70.806583 
L 273.726583 70.583295 
L 273.582032 70.359996 
L 273.43788 70.136698 
L 273.294091 69.913399 
L 273.150682 69.6901 
L 273.007654 69.466791 
L 272.865025 69.243492 
L 272.722759 69.020182 
L 272.580892 68.796873 
L 272.439424 68.573574 
L 272.298337 68.350264 
L 272.157648 68.126955 
L 272.017359 67.903635 
L 271.877468 67.680325 
L 271.737977 67.457016 
L 271.598884 67.233696 
L 271.460191 67.010376 
L 271.321896 66.787056 
L 271.184018 66.563735 
L 271.04654 66.340415 
L 270.90946 66.117095 
L 270.772798 65.893775 
L 270.636534 65.670444 
L 270.500688 65.447124 
L 270.36524 65.223793 
L 270.23021 65.000462 
L 270.095597 64.777132 
L 269.9614 64.553801 
L 269.827603 64.33047 
L 269.694223 64.107129 
L 269.561242 63.883798 
L 269.428696 63.660456 
L 269.296549 63.437126 
L 269.164819 63.213784 
L 269.033488 62.990443 
L 268.902592 62.767101 
L 268.772096 62.54376 
L 268.642016 62.320418 
L 268.512353 62.097056 
L 268.383108 61.873714 
L 268.254261 61.650373 
L 268.125832 61.42701 
L 267.99782 61.203668 
L 267.870224 60.980306 
L 267.743028 60.756964 
L 267.616249 60.533601 
L 267.489869 60.310239 
L 267.363906 60.086897 
L 267.23836 59.863534 
L 267.113213 59.640172 
L 266.988483 59.416809 
L 266.864152 59.193446 
L 266.740238 58.970083 
L 266.616705 58.746721 
L 266.493607 58.523358 
L 266.37089 58.299974 
L 266.24859 58.076611 
L 266.126689 57.853248 
L 266.005187 57.629864 
L 265.884084 57.406501 
L 265.76338 57.183117 
L 265.643075 56.959754 
L 265.523169 56.73637 
L 265.403662 56.512986 
L 265.284554 56.289624 
L 265.165826 56.066239 
L 265.047498 55.842855 
L 264.929568 55.619471 
L 264.81202 55.396087 
L 260.894724 60.154906 
L 257.852242 64.848573 
L 254.80976 71.834496 
L 251.767278 76.200697 
L 248.724778 83.18662 
L 245.682296 90.172543 
L 242.639814 97.158466 
L 239.597332 99.778187 
L 236.55485 104.144389 
L 233.512368 106.76411 
L 230.469868 106.76411 
L 227.427386 106.76411 
L 224.384904 104.144389 
L 221.342423 102.070443 
L 218.299941 97.158466 
L 215.25745 92.792264 
L 212.214968 85.806341 
L 209.172486 78.820418 
L 206.129995 69.214775 
L 203.087513 62.228852 
" style="fill:none;stroke:#ffa500;stroke-linecap:square;stroke-width:1.5;"/>
   </g>
   <g id="line2d_29">
    <path clip-path="url(#p5c93556d4f)" d="M 203.087513 84.583805 
L 203.033553 84.360293 
L 202.979512 84.136781 
L 202.925408 83.913258 
L 202.871221 83.689746 
L 202.816972 83.466234 
L 202.76264 83.242722 
L 202.708245 83.01921 
L 202.653778 82.795687 
L 202.599238 82.572175 
L 202.544626 82.348663 
L 202.48995 82.125151 
L 202.435192 81.901639 
L 202.380371 81.678127 
L 202.325478 81.454615 
L 202.270512 81.231103 
L 202.215482 81.007591 
L 202.16038 80.784069 
L 202.105206 80.560557 
L 202.049968 80.337045 
L 201.994657 80.113533 
L 201.939274 79.890021 
L 201.883827 79.666509 
L 201.828317 79.442997 
L 201.772726 79.219485 
L 201.71708 78.995973 
L 201.661361 78.772461 
L 201.60557 78.548949 
L 201.549715 78.325437 
L 201.493797 78.101925 
L 201.437806 77.878413 
L 201.381752 77.6549 
L 201.325626 77.431388 
L 201.269444 77.207876 
L 201.213191 76.984364 
L 201.156865 76.760852 
L 201.100484 76.537351 
L 201.044031 76.313839 
L 200.987515 76.090327 
L 200.930935 75.866815 
L 200.874291 75.643303 
L 200.817584 75.419791 
L 200.760814 75.196279 
L 200.70398 74.972767 
L 200.647073 74.749255 
L 200.590112 74.525754 
L 200.533088 74.302242 
L 200.475991 74.07873 
L 200.41884 73.855218 
L 200.361625 73.631706 
L 200.304356 73.408204 
L 200.247014 73.184692 
L 200.189609 72.96118 
L 200.13215 72.737668 
L 200.074627 72.514156 
" style="fill:none;stroke:#ffa500;stroke-linecap:square;stroke-width:1.5;"/>
   </g>
   <g id="line2d_30">
    <path clip-path="url(#p5c93556d4f)" d="M 200.045031 72.514156 
L 199.987454 72.290655 
L 199.929822 72.067143 
L 199.872136 71.843631 
L 199.814377 71.620119 
L 199.756564 71.396618 
L 199.698696 71.173106 
L 199.640765 70.949594 
L 199.58277 70.726092 
L 199.524722 70.50258 
L 199.466609 70.279068 
L 199.408442 70.055556 
L 199.350221 69.832055 
L 199.291936 69.608543 
L 199.233597 69.385031 
L 199.175204 69.161529 
L 199.116747 68.938017 
L 199.058236 68.714505 
L 198.99967 68.491004 
L 198.94105 68.267492 
L 198.882375 68.043991 
L 198.823637 67.820479 
L 198.764845 67.596967 
L 198.706007 67.373465 
L 198.647106 67.149953 
L 198.58815 66.926452 
L 198.52914 66.70294 
L 198.470075 66.479428 
L 198.410966 66.255927 
L 198.351792 66.032415 
L 198.292574 65.808913 
L 198.233292 65.585401 
L 198.173964 65.3619 
L 198.114582 65.138388 
L 198.055155 64.914887 
L 197.995665 64.691375 
L 197.936129 64.467873 
L 197.876547 64.244361 
L 197.816912 64.02086 
L 197.757221 63.797348 
L 197.697477 63.573847 
L 197.637687 63.350335 
L 197.577852 63.126823 
L 197.517962 62.903332 
L 197.458027 62.67982 
L 197.398038 62.456308 
L 197.338003 62.232817 
L 197.277923 62.009305 
L 197.217789 61.785793 
L 197.157609 61.562281 
L 197.097384 61.33879 
L 197.037114 61.115278 
L 196.976789 60.891766 
L 196.916428 60.668276 
L 196.856012 60.444764 
L 196.795551 60.221252 
L 196.735045 59.99774 
L 196.674494 59.774249 
L 196.613897 59.550737 
L 196.553255 59.327225 
L 196.492576 59.103734 
L 196.431843 58.880222 
L 196.371074 58.65671 
L 196.310251 58.43322 
L 196.249391 58.209708 
L 196.188486 57.986196 
L 196.127545 57.762705 
L 196.066558 57.539193 
L 196.005526 57.315681 
L 195.944457 57.09219 
L 195.883335 56.868678 
L 195.822185 56.645188 
L 195.760989 56.421676 
L 195.699749 56.198164 
L 195.638472 55.974673 
L 195.577159 55.751161 
L 195.5158 55.527649 
L 195.454405 55.304158 
L 195.392965 55.080646 
L 195.331498 54.857155 
L 190.917576 60.154906 
L 187.875085 64.848573 
L 184.832603 69.214775 
L 181.790121 76.200697 
L 178.74764 80.785209 
L 175.705149 87.771132 
" style="fill:none;stroke:#ffa500;stroke-linecap:square;stroke-width:1.5;"/>
   </g>
   <g id="line2d_31">
    <path clip-path="url(#p5c93556d4f)" d="M 175.705149 110.126085 
L 175.667818 109.902552 
L 175.630452 109.679018 
L 175.59304 109.455485 
L 175.555592 109.231952 
L 175.518099 109.008418 
L 175.480569 108.784885 
L 175.443003 108.561352 
L 175.405392 108.337829 
L 175.367754 108.114296 
L 175.330061 107.890762 
L 175.292341 107.667229 
L 175.254585 107.443696 
L 175.216783 107.220162 
L 175.178945 106.996629 
L 175.141071 106.773096 
L 175.103152 106.549562 
L 175.065205 106.326029 
L 175.027213 106.102506 
L 174.989185 105.878973 
L 174.95112 105.65544 
L 174.913019 105.431906 
L 174.874882 105.208373 
L 174.836709 104.98484 
L 174.798499 104.761306 
L 174.760253 104.537773 
L 174.721962 104.31425 
L 174.683643 104.090717 
L 174.645289 103.867184 
L 174.606898 103.64365 
L 174.56847 103.420117 
L 174.529998 103.196584 
L 174.491498 102.973061 
L 174.452962 102.749528 
L 174.414399 102.525994 
L 174.37579 102.302461 
L 174.337145 102.078928 
L 174.298473 101.855394 
L 174.259765 101.631872 
L 174.22102 101.408338 
L 174.182239 101.184805 
L 174.143422 100.961272 
L 174.104578 100.737738 
L 174.065697 100.514205 
L 174.02678 100.290682 
L 173.987827 100.067149 
L 173.948847 99.843616 
L 173.90983 99.620083 
L 173.870786 99.396549 
L 173.831697 99.173027 
L 173.79259 98.949493 
L 173.753437 98.72596 
L 173.714257 98.502427 
L 173.675041 98.278904 
L 173.635798 98.055371 
L 173.596518 97.831837 
L 173.557211 97.608304 
L 173.517868 97.384771 
L 173.478498 97.161248 
L 173.439091 96.937715 
L 173.399658 96.714181 
L 173.360188 96.490648 
L 173.32069 96.267125 
L 173.281157 96.043592 
L 173.241596 95.820059 
L 173.202008 95.596525 
L 173.162384 95.373003 
L 173.122733 95.149469 
L 173.083054 94.925936 
L 173.04334 94.702403 
L 173.003598 94.47888 
L 172.963828 94.255347 
L 172.923016 94.031813 
L 172.879321 93.808291 
L 172.832398 93.584768 
L 172.781829 93.361245 
L 172.727153 93.137733 
L 172.66779 92.914232 
L 172.603076 92.690731 
L 172.532197 92.46724 
L 172.454146 92.243771 
L 172.367707 92.020301 
L 172.271367 91.796864 
L 172.16323 91.573458 
L 172.040876 91.350096 
L 171.901212 91.126775 
L 171.740213 90.903541 
L 171.552565 90.680412 
L 171.331268 90.457465 
L 171.066938 90.234753 
L 170.747179 90.012445 
L 170.355879 89.790756 
L 169.873235 89.570037 
L 169.277513 89.35081 
L 168.550133 89.133747 
L 167.683226 88.919456 
L 166.684724 88.708288 
L 165.574767 88.500147 
L 164.376259 88.294682 
L 163.107797 88.091487 
L 161.781757 87.890286 
L 160.405276 87.690918 
L 158.981753 87.493352 
L 157.512078 87.297608 
L 155.995353 87.103815 
L 154.429355 86.912154 
L 152.810777 86.72287 
L 151.135319 86.536262 
L 149.397678 86.352767 
L 147.591487 86.172863 
L 145.709177 85.997235 
L 143.741806 85.826712 
L 141.678875 85.662404 
L 139.508179 85.50576 
L 137.215822 85.358774 
L 134.786762 85.224163 
L 132.206599 85.105702 
L 129.466172 85.008593 
L 126.571515 84.939752 
L 123.561022 84.907422 
L 120.522603 84.918977 
L 117.584358 84.976997 
L 114.861848 85.076783 
L 112.409394 85.20909 
" style="fill:none;stroke:#ffa500;stroke-linecap:square;stroke-width:1.5;"/>
   </g>
   <g id="line2d_32">
    <path clip-path="url(#p5c93556d4f)" d="M 111.812969 85.20909 
L 109.7105 85.37067 
L 107.829813 85.546394 
L 106.137152 85.732161 
L 104.602766 85.925197 
L 103.20205 86.123648 
L 101.915086 86.326213 
L 100.725783 86.531977 
L 99.621097 86.740267 
L 98.590356 86.950593 
L 97.624753 87.162593 
L 96.716948 87.375957 
L 95.860772 87.590472 
L 95.050988 87.805957 
L 94.283116 88.022274 
L 93.553302 88.239294 
L 92.858195 88.456933 
L 92.194873 88.675104 
L 91.560769 88.893745 
L 90.953613 89.11279 
L 90.371396 89.332209 
L 89.812322 89.551958 
L 89.27478 89.771984 
L 88.757329 89.992277 
L 88.258663 90.212805 
L 87.777602 90.433545 
L 87.313069 90.654477 
L 86.864089 90.87558 
L 86.429767 91.096832 
L 86.009282 91.318245 
L 85.601882 91.539774 
L 85.206872 91.761431 
L 84.823614 91.983206 
L 84.451515 92.205076 
L 84.090027 92.427042 
L 83.738638 92.649094 
L 83.396875 92.871231 
L 83.064296 93.093442 
L 82.740489 93.315718 
L 82.425066 93.538068 
L 82.117669 93.760471 
L 81.817957 93.982928 
L 81.525613 94.205449 
L 81.240337 94.428012 
L 80.961848 94.650618 
L 80.689881 94.873277 
L 80.424185 95.095968 
L 80.164523 95.318702 
L 79.910673 95.541479 
L 79.662422 95.764277 
L 79.419569 95.987117 
L 79.181925 96.209979 
L 78.949309 96.432872 
L 78.721548 96.655798 
L 78.49848 96.878745 
" style="fill:none;stroke:#ffa500;stroke-linecap:square;stroke-width:1.5;"/>
   </g>
   <g id="line2d_33">
    <path clip-path="url(#p5c93556d4f)" d="M 78.345636 96.878745 
L 78.131117 97.101746 
L 77.920831 97.324757 
L 77.714646 97.547789 
L 77.512436 97.770843 
L 77.314078 97.993918 
L 77.119456 98.217014 
L 76.928461 98.440121 
L 76.740984 98.663249 
L 76.556925 98.886388 
L 76.376186 99.109538 
L 76.198672 99.332708 
L 76.024294 99.55589 
L 75.852966 99.779082 
L 75.684604 100.002296 
L 75.519128 100.225509 
L 75.356462 100.448744 
L 75.196532 100.671979 
L 75.039266 100.895235 
L 74.884597 101.118491 
L 74.732457 101.341758 
L 74.582784 101.565046 
L 74.435516 101.788334 
L 74.290593 102.011623 
L 74.147959 102.234932 
L 74.007559 102.458242 
L 73.869338 102.681562 
L 73.733246 102.904882 
L 73.599232 103.128213 
L 73.467249 103.351554 
L 73.337249 103.574906 
L 73.209188 103.798258 
L 73.083023 104.02161 
L 72.95871 104.244973 
L 72.836208 104.468347 
L 72.71548 104.69172 
L 72.596484 104.915093 
L 72.479185 105.138478 
L 72.363546 105.361862 
L 72.249532 105.585256 
L 72.137109 105.808651 
L 72.026244 106.032057 
L 71.916905 106.255462 
L 71.809061 106.478867 
L 71.702681 106.702283 
L 71.597736 106.9257 
L 71.494198 107.149116 
L 71.392038 107.372542 
L 71.29123 107.595969 
L 71.191747 107.819396 
L 71.093564 108.042833 
L 70.996655 108.266271 
L 70.900997 108.489708 
L 70.806566 108.713145 
L 70.71334 108.936593 
L 70.621294 109.160041 
L 70.530409 109.383489 
L 70.440662 109.606948 
L 70.352033 109.830396 
L 70.264502 110.053855 
L 70.178049 110.277314 
L 70.092655 110.500772 
L 70.008301 110.724242 
L 69.924969 110.9477 
L 69.842641 111.17117 
L 69.761299 111.394639 
L 69.680928 111.618109 
L 69.601509 111.841589 
L 69.523028 112.065058 
L 69.445468 112.288538 
L 69.368814 112.512018 
L 69.29305 112.735498 
" style="fill:none;stroke:#ffa500;stroke-linecap:square;stroke-width:1.5;"/>
   </g>
   <g id="line2d_34">
    <path clip-path="url(#p5c93556d4f)" d="M 72.260667 242.116364 
L 72.365556 234.739235 
L 72.69452 227.13859 
L 73.270223 219.09092 
L 74.104093 210.596259 
L 75.227963 201.431102 
L 75.288082 200.984025 
L 75.288082 200.984025 
" style="fill:none;stroke:#800080;stroke-linecap:square;stroke-width:1.5;"/>
   </g>
   <g id="line2d_35">
    <path clip-path="url(#p5c93556d4f)" d="M 75.288082 200.984025 
L 75.344724 200.760516 
L 75.401524 200.537004 
L 75.458481 200.313494 
L 75.515593 200.089982 
L 75.572858 199.866473 
L 75.630278 199.642964 
L 75.687849 199.419454 
L 75.745572 199.195945 
L 75.803445 198.972436 
L 75.861466 198.748926 
L 75.919636 198.52542 
L 75.977954 198.30191 
L 76.036417 198.078401 
L 76.095025 197.854894 
L 76.153777 197.631385 
L 76.212672 197.407878 
L 76.27171 197.184369 
L 76.330889 196.960862 
L 76.390207 196.737355 
L 76.449665 196.513849 
L 76.509261 196.290342 
L 76.568994 196.066835 
L 76.628864 195.843329 
L 76.688869 195.619822 
L 76.749008 195.396321 
L 76.80928 195.172814 
L 76.869685 194.949307 
L 76.930222 194.725801 
L 76.990889 194.502299 
L 77.051685 194.278793 
L 77.11261 194.055286 
L 77.173663 193.831785 
L 77.234843 193.608278 
L 77.296149 193.384777 
L 77.35758 193.16127 
L 77.419135 192.937769 
L 77.480813 192.714262 
L 77.542613 192.490761 
L 77.604535 192.267254 
L 77.666578 192.043753 
L 77.728739 191.820251 
L 77.79102 191.59675 
L 77.853418 191.373243 
L 77.915933 191.149742 
L 77.978565 190.92624 
L 78.041311 190.702739 
L 78.104172 190.479238 
L 78.167146 190.255736 
L 78.230232 190.032235 
L 78.293431 189.808734 
" style="fill:none;stroke:#800080;stroke-linecap:square;stroke-width:1.5;"/>
   </g>
   <g id="line2d_36">
    <path clip-path="url(#p5c93556d4f)" d="M 78.293431 189.808734 
L 78.372136 189.585259 
L 78.450951 189.361784 
L 78.529875 189.13831 
L 78.608907 188.914835 
L 78.688046 188.69136 
L 78.76729 188.467886 
L 78.84664 188.244416 
L 78.926092 188.020941 
L 79.005646 187.797467 
L 79.085303 187.573992 
L 79.165059 187.350523 
L 79.244914 187.127048 
L 79.324867 186.903579 
L 79.404917 186.680104 
L 79.485062 186.456635 
L 79.565302 186.23316 
L 79.645635 186.009691 
L 79.726061 185.786216 
L 79.806579 185.562746 
L 79.887186 185.339277 
L 79.967882 185.115802 
L 80.048666 184.892333 
L 80.129537 184.668864 
L 80.210495 184.445394 
L 80.291536 184.221925 
L 80.372661 183.998456 
L 80.453869 183.774981 
L 80.535159 183.551511 
L 80.616529 183.328042 
L 80.697978 183.104573 
L 80.779506 182.881103 
L 80.861111 182.657634 
L 80.942791 182.434165 
L 81.024548 182.210701 
L 81.106378 181.987231 
L 81.188282 181.763762 
L 81.270257 181.540293 
" style="fill:none;stroke:#800080;stroke-linecap:square;stroke-width:1.5;"/>
   </g>
   <g id="line2d_37">
    <path clip-path="url(#p5c93556d4f)" d="M 81.270257 181.540293 
L 81.368285 181.31686 
L 81.466372 181.093428 
L 81.564515 180.869991 
L 81.662712 180.646559 
L 81.760964 180.423127 
L 81.859266 180.199695 
L 81.95762 179.976263 
L 82.056022 179.752831 
L 82.154473 179.529399 
L 82.252969 179.305961 
L 82.35151 179.082529 
L 82.450095 178.859097 
L 82.548721 178.635665 
L 82.647388 178.412233 
L 82.746093 178.188806 
L 82.844837 177.965374 
L 82.943616 177.741942 
L 83.04243 177.51851 
L 83.141278 177.295078 
L 83.240158 177.071646 
L 83.339068 176.848214 
L 83.438009 176.624782 
L 83.536976 176.40135 
L 83.635971 176.177923 
L 83.73499 175.954491 
L 83.834034 175.731059 
L 83.9331 175.507627 
L 84.032187 175.284195 
L 84.131294 175.060768 
L 84.23042 174.837336 
" style="fill:none;stroke:#800080;stroke-linecap:square;stroke-width:1.5;"/>
   </g>
   <g id="line2d_38">
    <path clip-path="url(#p5c93556d4f)" d="M 84.23042 174.837336 
L 84.346753 174.613947 
L 84.463076 174.390563 
L 84.579386 174.167178 
L 84.695683 173.943789 
L 84.811964 173.720405 
L 84.928226 173.497016 
L 85.044469 173.273631 
L 85.16069 173.050247 
L 85.276887 172.826858 
L 85.393059 172.603474 
L 85.509204 172.380084 
L 85.625318 172.1567 
L 85.741403 171.933311 
L 85.857454 171.709927 
L 85.97347 171.486537 
L 86.089451 171.263153 
L 86.205393 171.039764 
L 86.321296 170.816374 
L 86.437157 170.59299 
L 86.552975 170.369601 
L 86.668747 170.146217 
L 86.784472 169.922827 
L 86.900151 169.699438 
L 87.015778 169.476049 
L 87.131354 169.252664 
L 87.246877 169.029275 
" style="fill:none;stroke:#800080;stroke-linecap:square;stroke-width:1.5;"/>
   </g>
   <g id="line2d_39">
    <path clip-path="url(#p5c93556d4f)" d="M 87.246877 169.029275 
L 87.381549 168.805944 
L 87.516118 168.582613 
L 87.650582 168.359283 
L 87.784939 168.135952 
L 87.919185 167.912621 
L 88.053318 167.689285 
L 88.187337 167.465954 
L 88.321239 167.242623 
L 88.45502 167.019287 
L 88.588679 166.795956 
L 88.722216 166.57262 
L 88.855625 166.349284 
L 88.988906 166.125948 
L 89.122057 165.902617 
L 89.255072 165.679281 
L 89.387956 165.455945 
L 89.520701 165.232609 
L 89.653306 165.009267 
L 89.785773 164.785931 
L 89.918094 164.562595 
L 90.050273 164.339254 
L 90.182302 164.115918 
" style="fill:none;stroke:#800080;stroke-linecap:square;stroke-width:1.5;"/>
   </g>
   <g id="line2d_40">
    <path clip-path="url(#p5c93556d4f)" d="M 90.182302 164.115918 
L 90.334252 163.892645 
L 90.485982 163.669373 
L 90.637492 163.446101 
L 90.788776 163.222829 
L 90.939833 162.999557 
L 91.090659 162.776279 
L 91.241251 162.553007 
L 91.391607 162.32973 
L 91.541726 162.106452 
L 91.691601 161.883175 
L 91.841235 161.659897 
L 91.990623 161.436614 
L 92.139762 161.213332 
L 92.288652 160.990054 
L 92.437288 160.766771 
L 92.58567 160.543488 
L 92.733794 160.3202 
L 92.881659 160.096917 
L 93.029263 159.873629 
L 93.176603 159.650341 
" style="fill:none;stroke:#800080;stroke-linecap:square;stroke-width:1.5;"/>
   </g>
   <g id="line2d_41">
    <path clip-path="url(#p5c93556d4f)" d="M 93.176603 159.650341 
L 93.346039 159.427138 
L 93.515106 159.203935 
L 93.683798 158.980732 
L 93.852115 158.757524 
L 94.020055 158.534316 
L 94.187612 158.311103 
L 94.354784 158.087894 
L 94.52157 157.864681 
L 94.687965 157.641462 
L 94.853967 157.418248 
L 95.019577 157.19503 
L 95.184788 156.971811 
L 95.3496 156.748586 
L 95.51401 156.525368 
L 95.678018 156.302143 
L 95.841619 156.078914 
L 96.004815 155.85569 
L 96.1676 155.63246 
" style="fill:none;stroke:#800080;stroke-linecap:square;stroke-width:1.5;"/>
   </g>
   <g id="line2d_42">
    <path clip-path="url(#p5c93556d4f)" d="M 96.1676 155.63246 
L 96.354487 155.409332 
L 96.540815 155.186198 
L 96.726586 154.96307 
L 96.911791 154.739931 
L 97.096431 154.516798 
L 97.280502 154.293653 
L 97.464001 154.070514 
L 97.646928 153.84737 
L 97.82928 153.624221 
L 98.011053 153.401071 
L 98.192247 153.177916 
L 98.372861 152.954761 
L 98.552893 152.731606 
L 98.732339 152.508441 
L 98.911201 152.28528 
L 99.089476 152.06212 
" style="fill:none;stroke:#800080;stroke-linecap:square;stroke-width:1.5;"/>
   </g>
   <g id="line2d_43">
    <path clip-path="url(#p5c93556d4f)" d="M 99.089476 152.06212 
L 99.293579 151.839067 
L 99.496897 151.616024 
L 99.699431 151.39297 
L 99.901177 151.169906 
L 100.102131 150.946852 
L 100.302294 150.723777 
L 100.501666 150.500713 
L 100.700243 150.277638 
L 100.898026 150.054563 
L 101.095011 149.831488 
L 101.2912 149.608402 
L 101.486594 149.385306 
L 101.68119 149.16222 
L 101.874988 148.939124 
L 102.06799 148.716028 
" style="fill:none;stroke:#800080;stroke-linecap:square;stroke-width:1.5;"/>
   </g>
   <g id="line2d_44">
    <path clip-path="url(#p5c93556d4f)" d="M 102.06799 148.716028 
L 102.289015 148.49307 
L 102.508981 148.270102 
L 102.727891 148.047133 
L 102.945742 147.824154 
L 103.162535 147.601175 
L 103.378271 147.378186 
L 103.592951 147.155196 
L 103.806572 146.932196 
L 104.019142 146.709195 
L 104.230657 146.486184 
L 104.441121 146.263173 
L 104.650535 146.040152 
L 104.858899 145.81713 
L 105.066219 145.594098 
" style="fill:none;stroke:#800080;stroke-linecap:square;stroke-width:1.5;"/>
   </g>
   <g id="line2d_45">
    <path clip-path="url(#p5c93556d4f)" d="M 105.066219 145.594098 
L 105.305061 145.371236 
L 105.542507 145.148374 
L 105.77856 144.925491 
L 106.013222 144.702608 
L 106.246497 144.479714 
L 106.478391 144.25682 
L 106.708903 144.033916 
L 106.938043 143.811001 
L 107.165811 143.588075 
L 107.392215 143.365149 
L 107.617257 143.142213 
L 107.840948 142.919266 
L 108.063287 142.696308 
" style="fill:none;stroke:#800080;stroke-linecap:square;stroke-width:1.5;"/>
   </g>
   <g id="line2d_46">
    <path clip-path="url(#p5c93556d4f)" d="M 108.063287 142.696308 
L 108.319325 142.473553 
L 108.573568 142.250787 
L 108.826025 142.028011 
L 109.076709 141.805224 
L 109.325625 141.582415 
L 109.572781 141.359607 
L 109.818188 141.136788 
L 110.061854 140.913958 
L 110.303793 140.691117 
L 110.544008 140.468266 
L 110.782519 140.245405 
L 111.01933 140.022532 
" style="fill:none;stroke:#800080;stroke-linecap:square;stroke-width:1.5;"/>
   </g>
   <g id="line2d_47">
    <path clip-path="url(#p5c93556d4f)" d="M 111.01933 140.022532 
L 111.293571 139.799894 
L 111.565541 139.577235 
L 111.835248 139.354565 
L 112.102715 139.131884 
L 112.367952 138.909183 
L 112.630981 138.68647 
L 112.891816 138.463747 
L 113.150479 138.241002 
L 113.40698 138.018247 
L 113.661341 137.795481 
L 113.91358 137.572705 
" style="fill:none;stroke:#800080;stroke-linecap:square;stroke-width:1.5;"/>
   </g>
   <g id="line2d_48">
    <path clip-path="url(#p5c93556d4f)" d="M 113.91358 137.572705 
L 114.205085 137.350184 
L 114.49377 137.127642 
L 114.779662 136.905079 
L 115.06278 136.682505 
L 115.343155 136.45991 
L 115.620819 136.237293 
L 115.895789 136.014655 
L 116.168103 135.791996 
L 116.437788 135.569337 
L 116.70487 135.346646 
" style="fill:none;stroke:#800080;stroke-linecap:square;stroke-width:1.5;"/>
   </g>
   <g id="line2d_49">
    <path clip-path="url(#p5c93556d4f)" d="M 116.70487 135.346646 
L 117.012533 135.124242 
L 117.316759 134.901817 
L 117.617599 134.679361 
L 117.915089 134.456883 
L 118.209268 134.234373 
L 118.50018 134.011852 
L 118.787867 133.789299 
L 119.072372 133.566736 
L 119.35374 133.344141 
L 119.632002 133.121535 
" style="fill:none;stroke:#800080;stroke-linecap:square;stroke-width:1.5;"/>
   </g>
   <g id="line2d_50">
    <path clip-path="url(#p5c93556d4f)" d="M 119.632002 133.121535 
L 119.956435 132.899259 
L 120.276683 132.676952 
L 120.59282 132.454613 
L 120.904903 132.232241 
L 121.212997 132.009838 
L 121.517164 131.787413 
L 121.817464 131.564946 
L 122.113961 131.342468 
L 122.406717 131.119958 
" style="fill:none;stroke:#800080;stroke-linecap:square;stroke-width:1.5;"/>
   </g>
   <g id="line2d_51">
    <path clip-path="url(#p5c93556d4f)" d="M 122.406717 131.119958 
L 122.746637 130.897799 
L 123.081561 130.675609 
L 123.411579 130.453376 
L 123.736788 130.231111 
L 124.057267 130.008804 
L 124.373113 129.786465 
L 124.684412 129.564093 
L 124.99125 129.341679 
L 125.293708 129.119233 
" style="fill:none;stroke:#800080;stroke-linecap:square;stroke-width:1.5;"/>
   </g>
   <g id="line2d_52">
    <path clip-path="url(#p5c93556d4f)" d="M 125.293708 129.119233 
L 125.649823 128.897224 
L 125.999934 128.675162 
L 126.344188 128.453046 
L 126.682707 128.230888 
L 127.015618 128.008676 
L 127.343048 127.786422 
L 127.665123 127.564136 
L 127.981958 127.341797 
L 128.293674 127.119425 
" style="fill:none;stroke:#800080;stroke-linecap:square;stroke-width:1.5;"/>
   </g>
   <g id="line2d_53">
    <path clip-path="url(#p5c93556d4f)" d="M 128.293674 127.119425 
L 128.666562 126.897565 
L 129.03222 126.675631 
L 129.39085 126.453643 
L 129.742626 126.231592 
L 130.087736 126.009487 
L 130.426355 125.787318 
L 130.758659 125.565106 
L 131.08481 125.342852 
" style="fill:none;stroke:#800080;stroke-linecap:square;stroke-width:1.5;"/>
   </g>
   <g id="line2d_54">
    <path clip-path="url(#p5c93556d4f)" d="M 131.08481 125.342852 
L 131.472873 125.12112 
L 131.852371 124.899325 
L 132.223569 124.677444 
L 132.586724 124.455488 
L 132.942081 124.233468 
L 133.289889 124.011385 
L 133.630376 123.789237 
L 133.963772 123.567036 
" style="fill:none;stroke:#800080;stroke-linecap:square;stroke-width:1.5;"/>
   </g>
   <g id="line2d_55">
    <path clip-path="url(#p5c93556d4f)" d="M 133.963772 123.567036 
L 134.391019 123.345709 
L 134.844892 123.12466 
L 135.330683 122.903973 
L 135.855739 122.683776 
L 136.430747 122.464261 
" style="fill:none;stroke:#800080;stroke-linecap:square;stroke-width:1.5;"/>
   </g>
   <g id="line2d_56">
    <path clip-path="url(#p5c93556d4f)" d="M 136.430747 122.464261 
L 137.256321 122.249096 
L 138.3036 122.039207 
" style="fill:none;stroke:#800080;stroke-linecap:square;stroke-width:1.5;"/>
   </g>
   <g id="line2d_57">
    <path clip-path="url(#p5c93556d4f)" d="M 138.3036 122.039207 
L 140.25047 121.867415 
" style="fill:none;stroke:#800080;stroke-linecap:square;stroke-width:1.5;"/>
   </g>
   <g id="line2d_58">
    <path clip-path="url(#p5c93556d4f)" d="M 140.25047 121.867415 
L 142.29679 122.032854 
L 143.134913 122.247752 
" style="fill:none;stroke:#800080;stroke-linecap:square;stroke-width:1.5;"/>
   </g>
   <g id="line2d_59">
    <path clip-path="url(#p5c93556d4f)" d="M 143.134913 122.247752 
L 143.814635 122.465647 
L 144.378078 122.685332 
L 144.86769 122.905966 
L 145.30482 123.127197 
L 145.702068 123.348833 
L 146.067617 123.570767 
" style="fill:none;stroke:#800080;stroke-linecap:square;stroke-width:1.5;"/>
   </g>
   <g id="line2d_60">
    <path clip-path="url(#p5c93556d4f)" d="M 146.067617 123.570767 
L 146.447247 123.792563 
L 146.79778 124.014625 
L 147.124222 124.23689 
L 147.430298 124.459304 
L 147.718847 124.681846 
L 147.992081 124.904495 
L 148.251814 125.127228 
L 148.499488 125.350026 
L 148.736344 125.572899 
L 148.963399 125.795824 
" style="fill:none;stroke:#800080;stroke-linecap:square;stroke-width:1.5;"/>
   </g>
   <g id="line2d_61">
    <path clip-path="url(#p5c93556d4f)" d="M 148.963399 125.795824 
L 149.216966 126.018601 
L 149.458619 126.241441 
L 149.689572 126.464346 
L 149.91086 126.687303 
L 150.123344 126.910304 
L 150.327775 127.133357 
L 150.52479 127.356432 
L 150.714977 127.57955 
L 150.898816 127.802689 
L 151.076744 128.025849 
L 151.249177 128.249041 
L 151.416433 128.472255 
L 151.578856 128.69549 
L 151.736717 128.918735 
L 151.890281 129.142002 
" style="fill:none;stroke:#800080;stroke-linecap:square;stroke-width:1.5;"/>
   </g>
   <g id="line2d_62">
    <path clip-path="url(#p5c93556d4f)" d="M 151.890281 129.142002 
L 152.066759 129.365173 
L 152.237505 129.588365 
L 152.40292 129.811589 
L 152.56333 130.034824 
L 152.719052 130.25808 
L 152.870367 130.481358 
L 153.017521 130.704646 
L 153.160748 130.927945 
L 153.300267 131.151265 
L 153.436249 131.374585 
L 153.568886 131.597927 
L 153.69834 131.821268 
L 153.824756 132.044631 
L 153.948271 132.267994 
L 154.06902 132.491367 
L 154.187122 132.714751 
L 154.302685 132.938135 
L 154.415818 133.16153 
L 154.526611 133.384935 
L 154.635165 133.608341 
L 154.74157 133.831746 
L 154.845889 134.055173 
" style="fill:none;stroke:#800080;stroke-linecap:square;stroke-width:1.5;"/>
   </g>
   <g id="line2d_63">
    <path clip-path="url(#p5c93556d4f)" d="M 154.845889 134.055173 
L 154.970556 134.278536 
L 155.092194 134.501898 
L 155.210958 134.725283 
L 155.326965 134.948667 
L 155.440361 135.172061 
L 155.551254 135.395467 
L 155.659735 135.618872 
L 155.765922 135.842288 
L 155.869906 136.065704 
L 155.971768 136.289131 
L 156.07159 136.512558 
L 156.169463 136.735995 
L 156.265441 136.959433 
L 156.359596 137.18287 
L 156.452 137.406318 
L 156.54271 137.629766 
L 156.631787 137.853225 
L 156.719278 138.076684 
L 156.805236 138.300142 
L 156.889725 138.523601 
L 156.972772 138.74707 
L 157.054424 138.97054 
L 157.134733 139.194009 
L 157.213736 139.417478 
L 157.29147 139.640958 
L 157.367971 139.864438 
L 157.443275 140.087919 
L 157.517419 140.311399 
L 157.59042 140.534889 
L 157.662332 140.75838 
L 157.733166 140.98186 
L 157.802957 141.205351 
L 157.871733 141.428852 
" style="fill:none;stroke:#800080;stroke-linecap:square;stroke-width:1.5;"/>
   </g>
   <g id="line2d_64">
    <path clip-path="url(#p5c93556d4f)" d="M 157.871733 141.428852 
L 157.958752 141.6523 
L 158.044121 141.875769 
L 158.127893 142.099228 
L 158.210134 142.322697 
L 158.290878 142.546167 
L 158.37019 142.769647 
L 158.448115 142.993116 
L 158.524697 143.216596 
L 158.599974 143.440076 
L 158.67399 143.663567 
L 158.746792 143.887047 
L 158.818396 144.110538 
L 158.888859 144.334028 
L 158.958196 144.557519 
L 159.0265 144.78101 
L 159.094795 145.0045 
L 159.163081 145.228002 
L 159.23134 145.451492 
L 159.29959 145.674983 
L 159.36783 145.898474 
L 159.436044 146.121965 
L 159.504248 146.345466 
L 159.572434 146.568957 
L 159.640593 146.792447 
L 159.708743 147.015938 
L 159.776866 147.239439 
L 159.84497 147.46293 
L 159.913048 147.686421 
L 159.981107 147.909922 
L 160.049148 148.133413 
L 160.117153 148.356903 
L 160.185149 148.580394 
L 160.253108 148.803895 
L 160.32104 149.027386 
L 160.388955 149.250877 
L 160.456832 149.474378 
L 160.524692 149.697869 
L 160.592516 149.92136 
L 160.660312 150.144861 
L 160.728081 150.368352 
L 160.795814 150.591842 
L 160.86351 150.815333 
" style="fill:none;stroke:#800080;stroke-linecap:square;stroke-width:1.5;"/>
   </g>
   <g id="line2d_65">
    <path clip-path="url(#p5c93556d4f)" d="M 160.86351 150.815333 
L 160.96365 151.03877 
L 161.063862 151.262197 
L 161.164137 151.485624 
L 161.264485 151.709051 
L 161.364896 151.932477 
L 161.46538 152.155904 
L 161.565919 152.379331 
L 161.66653 152.602757 
L 161.767195 152.82619 
L 161.867924 153.049616 
L 161.968707 153.273043 
L 162.069553 153.49647 
L 162.170455 153.719896 
L 162.27141 153.943323 
L 162.372411 154.16675 
L 162.473475 154.390171 
L 162.574585 154.613598 
L 162.675749 154.837025 
L 162.776958 155.060451 
L 162.878213 155.283878 
L 162.979522 155.507305 
L 163.080867 155.730726 
L 163.182249 155.954153 
L 163.283685 156.17758 
L 163.385148 156.401007 
L 163.486656 156.624428 
L 163.588201 156.847855 
L 163.689782 157.071281 
L 163.791391 157.294703 
L 163.893035 157.51813 
" style="fill:none;stroke:#800080;stroke-linecap:square;stroke-width:1.5;"/>
   </g>
   <g id="line2d_66">
    <path clip-path="url(#p5c93556d4f)" d="M 163.893035 157.51813 
L 164.052448 157.74137 
L 164.212286 157.96461 
L 164.372542 158.18785 
L 164.533224 158.41109 
L 164.694322 158.634325 
L 164.855848 158.85756 
L 165.01779 159.08079 
L 165.180149 159.304024 
L 165.342925 159.527254 
L 165.506119 159.750478 
L 165.669739 159.973708 
L 165.833766 160.196932 
L 165.998202 160.420151 
L 166.163064 160.643375 
L 166.328334 160.866594 
L 166.494012 161.089813 
L 166.660107 161.313026 
L 166.82661 161.53624 
" style="fill:none;stroke:#800080;stroke-linecap:square;stroke-width:1.5;"/>
   </g>
   <g id="line2d_67">
    <path clip-path="url(#p5c93556d4f)" d="M 166.82661 161.53624 
L 167.082208 161.759 
L 167.339575 161.98175 
L 167.598718 162.204489 
L 167.859676 162.427212 
L 168.122455 162.649925 
L 168.387094 162.872627 
L 168.653618 163.095318 
L 168.922029 163.317999 
L 169.192371 163.540663 
L 169.464671 163.763317 
L 169.738939 163.985955 
" style="fill:none;stroke:#800080;stroke-linecap:square;stroke-width:1.5;"/>
   </g>
   <g id="line2d_68">
    <path clip-path="url(#p5c93556d4f)" d="M 169.738939 163.985955 
L 170.15278 164.207426 
L 170.573504 164.428827 
L 171.001399 164.650154 
L 171.436766 164.871406 
L 171.879922 165.092567 
L 172.33122 165.313644 
" style="fill:none;stroke:#800080;stroke-linecap:square;stroke-width:1.5;"/>
   </g>
   <g id="line2d_69">
    <path clip-path="url(#p5c93556d4f)" d="M 172.33122 165.313644 
L 172.800553 165.534517 
L 173.279362 165.755285 
L 173.768144 165.975929 
L 174.267436 166.196446 
L 174.777826 166.416829 
L 175.299949 166.637063 
" style="fill:none;stroke:#800080;stroke-linecap:square;stroke-width:1.5;"/>
   </g>
   <g id="line2d_70">
    <path clip-path="url(#p5c93556d4f)" d="M 175.299949 166.637063 
L 175.459724 166.860304 
L 175.619653 167.083544 
L 175.779718 167.306784 
L 175.939937 167.530024 
L 176.100293 167.753264 
L 176.260784 167.976499 
L 176.421403 168.199739 
L 176.582157 168.422974 
L 176.743029 168.646214 
L 176.904028 168.869449 
L 177.065136 169.092684 
L 177.226362 169.315919 
L 177.387697 169.539154 
L 177.549131 169.762389 
L 177.710666 169.985624 
L 177.872299 170.208858 
L 178.034024 170.432093 
L 178.195839 170.655323 
" style="fill:none;stroke:#800080;stroke-linecap:square;stroke-width:1.5;"/>
   </g>
   <g id="line2d_71">
    <path clip-path="url(#p5c93556d4f)" d="M 178.195839 170.655323 
L 178.554116 170.43333 
L 178.911613 170.211331 
L 179.268294 169.989322 
L 179.624131 169.767308 
L 179.979098 169.545283 
L 180.333168 169.323253 
L 180.686312 169.101212 
L 181.038505 168.879166 
" style="fill:none;stroke:#800080;stroke-linecap:square;stroke-width:1.5;"/>
   </g>
   <g id="line2d_72">
    <path clip-path="url(#p5c93556d4f)" d="M 181.038505 168.879166 
L 181.313661 168.656533 
L 181.588809 168.4339 
L 181.86392 168.211268 
L 182.138968 167.988635 
L 182.413952 167.765997 
L 182.688828 167.543365 
L 182.963595 167.320727 
L 183.238225 167.098089 
L 183.512702 166.875451 
L 183.787006 166.652813 
L 184.06112 166.43017 
" style="fill:none;stroke:#800080;stroke-linecap:square;stroke-width:1.5;"/>
   </g>
   <g id="line2d_73">
    <path clip-path="url(#p5c93556d4f)" d="M 184.06112 166.43017 
L 184.349633 166.207628 
L 184.637756 165.985086 
L 184.925471 165.762539 
L 185.21275 165.539986 
L 185.499595 165.317433 
L 185.785968 165.094875 
L 186.07186 164.872317 
L 186.357263 164.649754 
L 186.642139 164.427185 
L 186.92649 164.204611 
" style="fill:none;stroke:#800080;stroke-linecap:square;stroke-width:1.5;"/>
   </g>
   <g id="line2d_74">
    <path clip-path="url(#p5c93556d4f)" d="M 186.92649 164.204611 
L 187.178335 163.98183 
L 187.429971 163.759048 
L 187.681389 163.536261 
L 187.932572 163.313474 
L 188.18351 163.090686 
L 188.434185 162.867899 
L 188.684588 162.645107 
L 188.9347 162.422314 
L 189.184505 162.199522 
L 189.434001 161.976724 
L 189.683171 161.753926 
L 189.931996 161.531123 
" style="fill:none;stroke:#800080;stroke-linecap:square;stroke-width:1.5;"/>
   </g>
   <g id="line2d_75">
    <path clip-path="url(#p5c93556d4f)" d="M 189.931996 161.531123 
L 190.201068 161.308453 
L 190.469533 161.085773 
L 190.737382 160.863092 
L 191.004595 160.640406 
L 191.271174 160.417715 
L 191.5371 160.195024 
L 191.802364 159.972322 
L 192.066949 159.74962 
L 192.330862 159.526913 
L 192.594077 159.3042 
L 192.856594 159.081488 
" style="fill:none;stroke:#800080;stroke-linecap:square;stroke-width:1.5;"/>
   </g>
   <g id="line2d_76">
    <path clip-path="url(#p5c93556d4f)" d="M 192.856594 159.081488 
L 193.127615 158.858828 
L 193.397785 158.636159 
L 193.667102 158.413489 
L 193.935549 158.190808 
L 194.203126 157.968128 
L 194.469822 157.745436 
L 194.735631 157.522745 
L 195.00055 157.300043 
L 195.264572 157.077336 
L 195.527687 156.854624 
L 195.789896 156.631906 
" style="fill:none;stroke:#800080;stroke-linecap:square;stroke-width:1.5;"/>
   </g>
   <g id="line2d_77">
    <path clip-path="url(#p5c93556d4f)" d="M 195.789896 156.631906 
L 196.078372 156.409364 
L 196.397759 156.187051 
L 196.757695 155.965069 
L 197.173885 155.743625 
L 197.675063 155.523124 
L 198.324355 155.304729 
" style="fill:none;stroke:#800080;stroke-linecap:square;stroke-width:1.5;"/>
   </g>
   <g id="line2d_78">
    <path clip-path="url(#p5c93556d4f)" d="M 198.324355 155.304729 
L 199.131917 155.520256 
L 199.706485 155.739787 
L 200.188721 155.960506 
L 200.616145 156.181838 
L 201.005885 156.403549 
" style="fill:none;stroke:#800080;stroke-linecap:square;stroke-width:1.5;"/>
   </g>
   <g id="line2d_79">
    <path clip-path="url(#p5c93556d4f)" d="M 201.005885 156.403549 
L 201.238316 156.626443 
L 201.465244 156.849374 
L 201.687103 157.072326 
L 201.904265 157.295305 
L 202.117066 157.518305 
L 202.325795 157.741332 
L 202.530708 157.96437 
L 202.732047 158.187434 
L 202.929996 158.410509 
L 203.124761 158.6336 
L 203.316499 158.856702 
L 203.505353 159.079825 
L 203.691477 159.302953 
L 203.874991 159.526097 
" style="fill:none;stroke:#800080;stroke-linecap:square;stroke-width:1.5;"/>
   </g>
   <g id="line2d_80">
    <path clip-path="url(#p5c93556d4f)" d="M 203.874991 159.526097 
L 204.423436 159.745985 
L 204.901247 159.966758 
L 205.332407 160.188052 
L 205.729601 160.409688 
L 206.100544 160.631569 
L 206.45037 160.853637 
L 206.782678 161.075848 
" style="fill:none;stroke:#800080;stroke-linecap:square;stroke-width:1.5;"/>
   </g>
   <g id="line2d_81">
    <path clip-path="url(#p5c93556d4f)" d="M 206.782678 161.075848 
L 207.04835 161.298545 
L 207.306642 161.521289 
L 207.558178 161.744071 
L 207.803512 161.966896 
L 208.043134 162.189747 
L 208.277433 162.412635 
L 208.506791 162.635545 
L 208.731524 162.858487 
L 208.951905 163.08145 
L 209.168197 163.304434 
L 209.380626 163.527434 
L 209.589401 163.750461 
L 209.794703 163.973499 
" style="fill:none;stroke:#800080;stroke-linecap:square;stroke-width:1.5;"/>
   </g>
   <g id="line2d_82">
    <path clip-path="url(#p5c93556d4f)" d="M 209.794703 163.973499 
L 209.973492 164.196665 
L 210.150087 164.419836 
L 210.324578 164.643017 
L 210.497021 164.866209 
L 210.667477 165.089407 
L 210.83602 165.31261 
L 211.002686 165.535823 
L 211.167548 165.759048 
L 211.330633 165.982277 
L 211.492013 166.205512 
L 211.651715 166.428752 
L 211.809795 166.651998 
L 211.966279 166.875254 
L 212.121212 167.09851 
L 212.274631 167.321777 
L 212.426572 167.545049 
L 212.577053 167.768321 
L 212.726128 167.991604 
" style="fill:none;stroke:#800080;stroke-linecap:square;stroke-width:1.5;"/>
   </g>
   <g id="line2d_83">
    <path clip-path="url(#p5c93556d4f)" d="M 212.726128 167.991604 
L 212.880572 168.214865 
L 213.033474 168.438132 
L 213.18488 168.661404 
L 213.334817 168.884682 
L 213.483321 169.107965 
L 213.630411 169.331253 
L 213.776132 169.554546 
L 213.920502 169.777845 
L 214.063548 170.001149 
L 214.205306 170.224453 
L 214.345786 170.447763 
L 214.485014 170.671078 
L 214.623019 170.894398 
L 214.759827 171.117723 
L 214.895446 171.341049 
L 215.029906 171.56438 
L 215.163213 171.787716 
L 215.295405 172.011057 
L 215.426482 172.234399 
L 215.556471 172.45774 
L 215.685391 172.681092 
" style="fill:none;stroke:#800080;stroke-linecap:square;stroke-width:1.5;"/>
   </g>
   <g id="line2d_84">
    <path clip-path="url(#p5c93556d4f)" d="M 215.685391 172.681092 
L 215.825344 172.904402 
L 215.963993 173.127722 
L 216.101353 173.351042 
L 216.237445 173.574367 
L 216.372294 173.797698 
L 216.505928 174.021034 
L 216.638365 174.24437 
L 216.77092 174.467707 
L 216.904418 174.691043 
L 217.038877 174.914373 
L 217.174316 175.137699 
L 217.310733 175.361024 
L 217.448148 175.584345 
L 217.586588 175.807665 
L 217.726043 176.030979 
L 217.866541 176.254289 
L 218.008091 176.477598 
L 218.150711 176.700903 
L 218.294419 176.924201 
L 218.439215 177.1475 
L 218.585126 177.370788 
" style="fill:none;stroke:#800080;stroke-linecap:square;stroke-width:1.5;"/>
   </g>
   <g id="line2d_85">
    <path clip-path="url(#p5c93556d4f)" d="M 218.585126 177.370788 
L 218.769473 177.593927 
L 218.955861 177.817061 
L 219.144307 178.040178 
L 219.334884 178.263291 
L 219.527618 178.486387 
L 219.722575 178.709478 
L 219.919789 178.932558 
L 220.119333 179.155628 
L 220.321253 179.378682 
L 220.525594 179.60173 
L 220.732437 179.824762 
L 220.941829 180.047778 
L 221.153832 180.270784 
L 221.368536 180.493779 
L 221.585989 180.716758 
" style="fill:none;stroke:#800080;stroke-linecap:square;stroke-width:1.5;"/>
   </g>
   <g id="line2d_86">
    <path clip-path="url(#p5c93556d4f)" d="M 221.585989 180.716758 
L 221.840345 180.939524 
L 222.098854 181.162263 
L 222.361679 181.384981 
L 222.628947 181.607662 
L 222.90084 181.830321 
L 223.177519 182.052943 
L 223.459186 182.275533 
L 223.74604 182.498085 
L 224.038261 182.720601 
L 224.336104 182.943079 
" style="fill:none;stroke:#800080;stroke-linecap:square;stroke-width:1.5;"/>
   </g>
   <g id="line2d_87">
    <path clip-path="url(#p5c93556d4f)" d="M 224.336104 182.943079 
L 224.80249 183.163984 
L 225.286721 183.384682 
L 225.790501 183.605151 
L 226.315807 183.825342 
L 226.864995 184.04522 
" style="fill:none;stroke:#800080;stroke-linecap:square;stroke-width:1.5;"/>
   </g>
   <g id="line2d_88">
    <path clip-path="url(#p5c93556d4f)" d="M 226.864995 184.04522 
L 227.481156 184.264137 
L 228.133113 184.48249 
L 228.826473 184.70016 
L 229.568469 184.916957 
" style="fill:none;stroke:#800080;stroke-linecap:square;stroke-width:1.5;"/>
   </g>
   <g id="line2d_89">
    <path clip-path="url(#p5c93556d4f)" d="M 229.568469 184.916957 
L 230.302214 185.133908 
L 231.092557 185.349788 
L 231.952084 185.564228 
" style="fill:none;stroke:#800080;stroke-linecap:square;stroke-width:1.5;"/>
   </g>
   <g id="line2d_90">
    <path clip-path="url(#p5c93556d4f)" d="M 231.952084 185.564228 
L 233.268693 185.76576 
L 234.863216 185.956152 
" style="fill:none;stroke:#800080;stroke-linecap:square;stroke-width:1.5;"/>
   </g>
   <g id="line2d_91">
    <path clip-path="url(#p5c93556d4f)" d="M 234.863216 185.956152 
L 237.561249 186.059471 
" style="fill:none;stroke:#800080;stroke-linecap:square;stroke-width:1.5;"/>
   </g>
   <g id="line2d_92">
    <path clip-path="url(#p5c93556d4f)" d="M 237.561249 186.059471 
L 238.958159 185.860876 
L 240.193979 185.6566 
" style="fill:none;stroke:#800080;stroke-linecap:square;stroke-width:1.5;"/>
   </g>
   <g id="line2d_93">
    <path clip-path="url(#p5c93556d4f)" d="M 240.193979 185.6566 
L 240.884945 185.438892 
L 241.560151 185.220917 
L 242.220179 185.002693 
L 242.865608 184.784228 
" style="fill:none;stroke:#800080;stroke-linecap:square;stroke-width:1.5;"/>
   </g>
   <g id="line2d_94">
    <path clip-path="url(#p5c93556d4f)" d="M 242.865608 184.784228 
L 243.472211 184.565166 
L 244.06739 184.34594 
L 244.651524 184.126548 
L 245.224923 183.907001 
L 245.78793 183.687316 
" style="fill:none;stroke:#800080;stroke-linecap:square;stroke-width:1.5;"/>
   </g>
   <g id="line2d_95">
    <path clip-path="url(#p5c93556d4f)" d="M 245.78793 183.687316 
L 246.204029 183.465866 
L 246.617644 183.24439 
L 247.028701 183.022893 
L 247.437165 182.801364 
L 247.842946 182.579813 
L 248.245988 182.358236 
L 248.646273 182.136627 
" style="fill:none;stroke:#800080;stroke-linecap:square;stroke-width:1.5;"/>
   </g>
   <g id="line2d_96">
    <path clip-path="url(#p5c93556d4f)" d="M 248.646273 182.136627 
L 249.149436 181.916158 
L 249.644457 181.695588 
L 250.131571 181.474922 
L 250.611051 181.254166 
L 251.083149 181.033324 
L 251.548103 180.812397 
" style="fill:none;stroke:#800080;stroke-linecap:square;stroke-width:1.5;"/>
   </g>
   <g id="line2d_97">
    <path clip-path="url(#p5c93556d4f)" d="M 251.548103 180.812397 
L 251.927987 180.590596 
L 252.304843 180.368768 
L 252.678706 180.146913 
L 253.049559 179.925032 
L 253.417438 179.703125 
L 253.782361 179.481185 
L 254.144328 179.259224 
L 254.503375 179.037236 
" style="fill:none;stroke:#800080;stroke-linecap:square;stroke-width:1.5;"/>
   </g>
   <g id="line2d_98">
    <path clip-path="url(#p5c93556d4f)" d="M 254.503375 179.037236 
L 254.828801 178.814971 
L 255.152359 178.592691 
L 255.473995 178.370394 
L 255.793745 178.148081 
L 256.11159 177.925752 
L 256.427531 177.703413 
L 256.741587 177.481057 
L 257.053738 177.258686 
L 257.364003 177.036304 
" style="fill:none;stroke:#800080;stroke-linecap:square;stroke-width:1.5;"/>
   </g>
   <g id="line2d_99">
    <path clip-path="url(#p5c93556d4f)" d="M 257.364003 177.036304 
L 257.681359 176.813975 
L 257.996593 176.59163 
L 258.309706 176.369264 
L 258.620715 176.146887 
L 258.92962 175.924495 
L 259.236458 175.702081 
L 259.541246 175.479656 
L 259.843986 175.257215 
L 260.144712 175.034764 
" style="fill:none;stroke:#800080;stroke-linecap:square;stroke-width:1.5;"/>
   </g>
   <g id="line2d_100">
    <path clip-path="url(#p5c93556d4f)" d="M 260.144712 175.034764 
L 260.429262 174.812195 
L 260.712199 174.589611 
L 260.993539 174.367021 
L 261.273302 174.14442 
L 261.551487 173.921803 
L 261.828095 173.699182 
L 262.103142 173.476549 
L 262.376649 173.2539 
L 262.648614 173.031246 
L 262.919055 172.808582 
" style="fill:none;stroke:#800080;stroke-linecap:square;stroke-width:1.5;"/>
   </g>
   <g id="line2d_101">
    <path clip-path="url(#p5c93556d4f)" d="M 262.919055 172.808582 
L 263.195826 172.58596 
L 263.47091 172.363327 
L 263.744308 172.140684 
L 264.016055 171.918025 
L 264.286152 171.69536 
L 264.554617 171.47268 
L 264.821468 171.249994 
L 265.086723 171.027297 
L 265.350419 170.804585 
L 265.612536 170.581867 
L 265.873131 170.359138 
" style="fill:none;stroke:#800080;stroke-linecap:square;stroke-width:1.5;"/>
   </g>
   <g id="line2d_102">
    <path clip-path="url(#p5c93556d4f)" d="M 265.873131 170.359138 
L 266.153492 170.136543 
L 266.431804 169.913932 
L 266.708103 169.691305 
L 266.982408 169.468667 
L 267.254772 169.246013 
L 267.525213 169.023348 
L 267.793769 168.800673 
L 268.060475 168.577982 
L 268.325331 168.35528 
L 268.58841 168.132567 
L 268.849712 167.909844 
" style="fill:none;stroke:#800080;stroke-linecap:square;stroke-width:1.5;"/>
   </g>
   <g id="line2d_103">
    <path clip-path="url(#p5c93556d4f)" d="M 268.849712 167.909844 
L 269.200979 167.687793 
L 269.547351 167.465693 
L 269.889025 167.243561 
L 270.226184 167.021387 
L 270.558991 166.799181 
L 270.887626 166.576938 
L 271.212236 166.354662 
L 271.532947 166.13236 
L 271.849886 165.910026 
" style="fill:none;stroke:#800080;stroke-linecap:square;stroke-width:1.5;"/>
   </g>
   <g id="line2d_104">
    <path clip-path="url(#p5c93556d4f)" d="M 271.849886 165.910026 
L 272.286005 165.688784 
L 272.712169 165.467442 
L 273.129047 165.245997 
L 273.537222 165.024468 
L 273.937235 164.802859 
L 274.329559 164.581175 
L 274.714612 164.359427 
" style="fill:none;stroke:#800080;stroke-linecap:square;stroke-width:1.5;"/>
   </g>
   <g id="line2d_105">
    <path clip-path="url(#p5c93556d4f)" d="M 274.714612 164.359427 
L 275.253482 164.139412 
L 275.77371 163.919151 
L 276.277127 163.698687 
L 276.765329 163.478032 
L 277.23964 163.257217 
L 277.701203 163.036253 
" style="fill:none;stroke:#800080;stroke-linecap:square;stroke-width:1.5;"/>
   </g>
   <g id="line2d_106">
    <path clip-path="url(#p5c93556d4f)" d="M 277.701203 163.036253 
L 278.389049 162.818492 
L 279.040372 162.600123 
L 279.660558 162.381269 
L 280.253778 162.16201 
" style="fill:none;stroke:#800080;stroke-linecap:square;stroke-width:1.5;"/>
   </g>
   <g id="line2d_107">
    <path clip-path="url(#p5c93556d4f)" d="M 280.253778 162.16201 
L 281.136082 161.948065 
L 281.948604 161.732639 
L 282.705924 161.516125 
" style="fill:none;stroke:#800080;stroke-linecap:square;stroke-width:1.5;"/>
   </g>
   <g id="line2d_108">
    <path clip-path="url(#p5c93556d4f)" d="M 282.705924 161.516125 
L 283.858977 161.309253 
L 284.877345 161.098596 
" style="fill:none;stroke:#800080;stroke-linecap:square;stroke-width:1.5;"/>
   </g>
   <g id="line2d_109">
    <path clip-path="url(#p5c93556d4f)" d="M 284.877345 161.098596 
L 286.484308 160.908769 
L 287.802043 160.707274 
" style="fill:none;stroke:#800080;stroke-linecap:square;stroke-width:1.5;"/>
   </g>
   <g id="line2d_110">
    <path clip-path="url(#p5c93556d4f)" d="M 287.802043 160.707274 
L 290.54057 160.609877 
" style="fill:none;stroke:#800080;stroke-linecap:square;stroke-width:1.5;"/>
   </g>
   <g id="line2d_111">
    <path clip-path="url(#p5c93556d4f)" d="M 290.54057 160.609877 
L 293.047355 160.483192 
" style="fill:none;stroke:#800080;stroke-linecap:square;stroke-width:1.5;"/>
   </g>
   <g id="line2d_112">
    <path clip-path="url(#p5c93556d4f)" d="M 293.047355 160.483192 
L 295.035563 160.31398 
" style="fill:none;stroke:#800080;stroke-linecap:square;stroke-width:1.5;"/>
   </g>
   <g id="line2d_113">
    <path clip-path="url(#p5c93556d4f)" d="M 295.035563 160.31398 
L 296.755033 160.129557 
" style="fill:none;stroke:#800080;stroke-linecap:square;stroke-width:1.5;"/>
   </g>
   <g id="line2d_114">
    <path clip-path="url(#p5c93556d4f)" d="M 296.755033 160.129557 
L 298.313505 159.937561 
L 299.669557 159.737441 
" style="fill:none;stroke:#800080;stroke-linecap:square;stroke-width:1.5;"/>
   </g>
   <g id="line2d_115">
    <path clip-path="url(#p5c93556d4f)" d="M 299.669557 159.737441 
L 299.938439 159.514766 
L 300.205036 159.29208 
L 300.469349 159.069373 
L 300.731485 158.846655 
L 300.991426 158.623927 
L 301.249264 158.401177 
L 301.505035 158.178422 
L 301.758757 157.95565 
L 302.010483 157.732869 
L 302.26027 157.510071 
L 302.508115 157.287268 
" style="fill:none;stroke:#800080;stroke-linecap:square;stroke-width:1.5;"/>
   </g>
   <g id="line2d_116">
    <path clip-path="url(#p5c93556d4f)" d="M 302.508115 157.287268 
L 302.797526 157.064731 
L 303.084089 156.842173 
L 303.367878 156.619599 
L 303.648965 156.397004 
L 303.927404 156.174393 
L 304.203249 155.951765 
L 304.476574 155.729117 
L 304.747415 155.506458 
L 305.015862 155.283777 
L 305.281933 155.061086 
L 305.545683 154.838379 
" style="fill:none;stroke:#800080;stroke-linecap:square;stroke-width:1.5;"/>
   </g>
   <g id="line2d_117">
    <path clip-path="url(#p5c93556d4f)" d="M 305.545683 154.838379 
L 305.718796 154.615192 
L 305.891202 154.391999 
L 306.062864 154.168807 
L 306.233819 153.94561 
L 306.404067 153.722412 
L 306.573626 153.499209 
L 306.742459 153.276006 
L 306.910621 153.052798 
L 307.078095 152.829585 
L 307.244879 152.606371 
L 307.410992 152.383158 
L 307.576434 152.159933 
L 307.741223 151.93672 
L 307.905342 151.713496 
L 308.068807 151.490261 
L 308.23162 151.267037 
L 308.393798 151.043802 
L 308.555323 150.820567 
" style="fill:none;stroke:#800080;stroke-linecap:square;stroke-width:1.5;"/>
   </g>
   <g id="line2d_118">
    <path clip-path="url(#p5c93556d4f)" d="M 308.555323 150.820567 
L 308.74269 150.597449 
L 308.929078 150.374321 
L 309.114522 150.151182 
L 309.299042 149.928043 
L 309.482619 149.704904 
L 309.665289 149.481755 
L 309.847034 149.258605 
L 310.027891 149.035456 
L 310.20784 148.812295 
L 310.38692 148.589135 
L 310.565129 148.365964 
L 310.742467 148.142793 
L 310.918953 147.919622 
L 311.094587 147.696441 
L 311.269387 147.47327 
L 311.443352 147.250078 
" style="fill:none;stroke:#800080;stroke-linecap:square;stroke-width:1.5;"/>
   </g>
   <g id="line2d_119">
    <path clip-path="url(#p5c93556d4f)" d="M 311.443352 147.250078 
L 311.643359 147.027013 
L 311.842187 146.803949 
L 312.039836 146.580863 
L 312.236325 146.357788 
L 312.431671 146.134692 
L 312.625875 145.911607 
L 312.818954 145.6885 
L 313.010945 145.465403 
L 313.20183 145.242286 
L 313.391645 145.019179 
L 313.580372 144.796061 
L 313.768066 144.572933 
L 313.954707 144.349805 
L 314.140315 144.126676 
L 314.324908 143.903538 
" style="fill:none;stroke:#800080;stroke-linecap:square;stroke-width:1.5;"/>
   </g>
   <g id="line2d_120">
    <path clip-path="url(#p5c93556d4f)" d="M 314.324908 143.903538 
L 314.536792 143.680527 
L 314.747245 143.457516 
L 314.956283 143.234494 
L 315.163924 143.011462 
L 315.370187 142.788429 
L 315.575108 142.565386 
L 315.778688 142.342333 
L 315.980961 142.119279 
L 316.181929 141.896225 
L 316.38161 141.67315 
L 316.58002 141.450075 
L 316.77718 141.227 
L 316.973125 141.003915 
L 317.167836 140.780829 
L 317.361351 140.557722 
" style="fill:none;stroke:#800080;stroke-linecap:square;stroke-width:1.5;"/>
   </g>
   <g id="line2d_121">
    <path clip-path="url(#p5c93556d4f)" d="M 317.361351 140.557722 
L 317.585132 140.334786 
L 317.807208 140.111828 
L 318.027635 139.88887 
L 318.246393 139.665902 
L 318.463537 139.442912 
L 318.679085 139.219933 
L 318.893073 138.996933 
L 319.105502 138.773933 
L 319.31639 138.550922 
L 319.52579 138.3279 
L 319.733704 138.104868 
L 319.940167 137.881835 
L 320.145178 137.658792 
L 320.348776 137.435749 
" style="fill:none;stroke:#800080;stroke-linecap:square;stroke-width:1.5;"/>
   </g>
   <g id="line2d_122">
    <path clip-path="url(#p5c93556d4f)" d="M 320.348776 137.435749 
L 320.583383 137.212866 
L 320.816033 136.989973 
L 321.046741 136.767058 
L 321.275546 136.544142 
L 321.502482 136.321217 
L 321.727587 136.09828 
L 321.950879 135.875333 
L 322.172393 135.652376 
L 322.392149 135.429418 
L 322.610181 135.206439 
L 322.826509 134.98346 
L 323.041169 134.76046 
L 323.254196 134.537459 
" style="fill:none;stroke:#800080;stroke-linecap:square;stroke-width:1.5;"/>
   </g>
   <g id="line2d_123">
    <path clip-path="url(#p5c93556d4f)" d="M 323.254196 134.537459 
L 323.499104 134.31464 
L 323.741764 134.0918 
L 323.982211 133.868948 
L 324.220482 133.646087 
L 324.456649 133.423214 
L 324.690712 133.200321 
L 324.922727 132.977427 
L 325.15271 132.754512 
L 325.380717 132.531597 
L 325.606783 132.30866 
L 325.830909 132.085724 
L 326.053166 131.862766 
L 326.273557 131.639808 
" style="fill:none;stroke:#800080;stroke-linecap:square;stroke-width:1.5;"/>
   </g>
   <g id="line2d_124">
    <path clip-path="url(#p5c93556d4f)" d="M 326.273557 131.639808 
L 326.528856 131.417043 
L 326.781598 131.194266 
L 327.031838 130.971479 
L 327.279611 130.748671 
L 327.524972 130.525851 
L 327.767976 130.303011 
L 328.008641 130.08016 
L 328.247039 129.857298 
L 328.483188 129.634426 
L 328.717143 129.411543 
L 328.948921 129.188638 
L 329.178596 128.965723 
" style="fill:none;stroke:#800080;stroke-linecap:square;stroke-width:1.5;"/>
   </g>
   <g id="line2d_125">
    <path clip-path="url(#p5c93556d4f)" d="M 329.178596 128.965723 
L 329.443561 128.743032 
L 329.705643 128.520309 
L 329.964913 128.297575 
L 330.221428 128.07482 
L 330.47524 127.852054 
L 330.726386 127.629267 
L 330.974957 127.406458 
L 331.220972 127.183639 
L 331.464483 126.960809 
L 331.705547 126.737969 
L 331.944217 126.515107 
L 332.180529 126.292224 
" style="fill:none;stroke:#800080;stroke-linecap:square;stroke-width:1.5;"/>
   </g>
   <g id="line2d_126">
    <path clip-path="url(#p5c93556d4f)" d="M 332.180529 126.292224 
L 332.447997 126.069543 
L 332.712436 125.846842 
L 332.973883 125.624118 
L 333.23241 125.401374 
L 333.488072 125.178619 
L 333.740941 124.955842 
L 333.991054 124.733055 
L 334.2385 124.510236 
L 334.4833 124.287417 
L 334.725506 124.064576 
L 334.965191 123.841725 
L 335.202392 123.618853 
" style="fill:none;stroke:#800080;stroke-linecap:square;stroke-width:1.5;"/>
   </g>
   <g id="line2d_127">
    <path clip-path="url(#p5c93556d4f)" d="M 335.202392 123.618853 
L 335.479453 123.396236 
L 335.753104 123.173588 
L 336.023419 122.950918 
L 336.290451 122.728237 
L 336.557647 122.505546 
L 336.829521 122.282897 
L 337.106328 122.06027 
L 337.388321 121.837686 
L 337.675773 121.615133 
L 337.968992 121.392623 
" style="fill:none;stroke:#800080;stroke-linecap:square;stroke-width:1.5;"/>
   </g>
   <g id="line2d_128">
    <path clip-path="url(#p5c93556d4f)" d="M 337.968992 121.392623 
L 338.3255 121.170614 
L 338.692998 120.948701 
L 339.072538 120.726905 
L 339.465352 120.505227 
L 339.872946 120.283687 
L 340.297078 120.062317 
L 340.73998 119.84115 
" style="fill:none;stroke:#800080;stroke-linecap:square;stroke-width:1.5;"/>
   </g>
   <g id="line2d_129">
    <path clip-path="url(#p5c93556d4f)" d="M 340.73998 119.84115 
L 341.298962 119.621412 
L 341.902863 119.402313 
L 342.564613 119.184109 
L 343.304615 118.96727 
" style="fill:none;stroke:#800080;stroke-linecap:square;stroke-width:1.5;"/>
   </g>
   <g id="line2d_130">
    <path clip-path="url(#p5c93556d4f)" d="M 343.304615 118.96727 
L 344.218346 118.754045 
L 345.365415 118.546991 
" style="fill:none;stroke:#800080;stroke-linecap:square;stroke-width:1.5;"/>
   </g>
   <g id="line2d_131">
    <path clip-path="url(#p5c93556d4f)" d="M 345.365415 118.546991 
L 347.291965 118.373964 
" style="fill:none;stroke:#800080;stroke-linecap:square;stroke-width:1.5;"/>
   </g>
   <g id="line2d_132">
    <path clip-path="url(#p5c93556d4f)" d="M 347.291965 118.373964 
L 349.942032 118.48379 
" style="fill:none;stroke:#800080;stroke-linecap:square;stroke-width:1.5;"/>
   </g>
   <g id="line2d_133">
    <path clip-path="url(#p5c93556d4f)" d="M 349.942032 118.48379 
L 350.899395 118.695982 
L 351.630184 118.912981 
L 352.242372 119.131962 
L 352.777815 119.352021 
" style="fill:none;stroke:#800080;stroke-linecap:square;stroke-width:1.5;"/>
   </g>
   <g id="line2d_134">
    <path clip-path="url(#p5c93556d4f)" d="M 352.777815 119.352021 
L 353.313331 119.572079 
L 353.792883 119.792841 
L 354.229891 120.014071 
L 354.633078 120.235643 
L 355.008537 120.457493 
L 355.360675 120.679533 
L 355.692902 120.901745 
" style="fill:none;stroke:#800080;stroke-linecap:square;stroke-width:1.5;"/>
   </g>
   <g id="line2d_135">
    <path clip-path="url(#p5c93556d4f)" d="M 355.692902 120.901745 
L 356.053726 121.123722 
L 356.392825 121.34588 
L 356.713228 121.568188 
L 357.017327 121.790612 
L 357.307028 122.013144 
L 357.583926 122.235771 
L 357.849308 122.458462 
L 358.104262 122.681228 
L 358.349714 122.904047 
L 358.586498 123.12692 
" style="fill:none;stroke:#800080;stroke-linecap:square;stroke-width:1.5;"/>
   </g>
   <g id="line2d_136">
    <path clip-path="url(#p5c93556d4f)" d="M 358.586498 123.12692 
L 358.854854 123.3496 
L 359.112076 123.572345 
L 359.359233 123.795164 
L 359.597213 124.018026 
L 359.826798 124.240941 
L 360.048657 124.463888 
L 360.263352 124.686888 
L 360.471411 124.90991 
L 360.673304 125.132963 
L 360.86943 125.356049 
L 361.060133 125.579156 
L 361.245759 125.802295 
L 361.426598 126.025444 
L 361.602921 126.248626 
" style="fill:none;stroke:#800080;stroke-linecap:square;stroke-width:1.5;"/>
   </g>
   <g id="line2d_137">
    <path clip-path="url(#p5c93556d4f)" d="M 361.602921 126.248626 
L 361.80835 126.471658 
L 362.007468 126.694733 
L 362.20071 126.91783 
L 362.388476 127.140958 
L 362.571074 127.364097 
L 362.748847 127.587268 
L 362.922069 127.810449 
L 363.090975 128.033663 
L 363.255819 128.256876 
L 363.4168 128.480111 
L 363.5741 128.703367 
L 363.727918 128.926634 
L 363.878417 129.149912 
L 364.025724 129.373189 
L 364.170022 129.596488 
L 364.311399 129.819797 
L 364.450002 130.043117 
L 364.585957 130.266448 
" style="fill:none;stroke:#800080;stroke-linecap:square;stroke-width:1.5;"/>
   </g>
   <g id="line2d_138">
    <path clip-path="url(#p5c93556d4f)" d="M 364.585957 130.266448 
L 364.74362 130.489694 
L 364.897619 130.712961 
L 365.0481 130.936227 
L 365.195262 131.159516 
L 365.339251 131.382814 
L 365.480194 131.606124 
L 365.618271 131.829444 
L 365.753555 132.052775 
L 365.886192 132.276116 
L 366.016289 132.499458 
L 366.143939 132.72281 
L 366.269231 132.946173 
L 366.392274 133.169535 
L 366.513124 133.392909 
L 366.631887 133.616293 
L 366.74862 133.839677 
L 366.863412 134.063061 
L 366.9763 134.286456 
L 367.087375 134.509861 
L 367.196672 134.733267 
L 367.304265 134.956672 
L 367.410189 135.180088 
L 367.514517 135.403504 
L 367.617268 135.626931 
" style="fill:none;stroke:#800080;stroke-linecap:square;stroke-width:1.5;"/>
   </g>
   <g id="line2d_139">
    <path clip-path="url(#p5c93556d4f)" d="M 367.617268 135.626931 
L 367.741599 135.850294 
L 367.863536 136.073667 
L 367.983207 136.297041 
L 368.100701 136.520425 
L 368.216073 136.743809 
L 368.329415 136.967204 
L 368.440816 137.190609 
L 368.550313 137.414004 
L 368.65825 137.63742 
L 368.766224 137.860825 
L 368.87427 138.084231 
L 368.982352 138.307647 
L 369.090489 138.531052 
L 369.19868 138.754457 
L 369.306925 138.977863 
L 369.415207 139.201279 
L 369.523544 139.424684 
L 369.631934 139.64809 
L 369.740361 139.871495 
L 369.848842 140.094911 
L 369.95736 140.318317 
L 370.065932 140.541722 
L 370.17454 140.765127 
L 370.283203 140.988533 
L 370.391902 141.211938 
L 370.500637 141.435344 
L 370.609427 141.65876 
" style="fill:none;stroke:#800080;stroke-linecap:square;stroke-width:1.5;"/>
   </g>
   <g id="line2d_140">
    <path clip-path="url(#p5c93556d4f)" d="M 370.609427 141.65876 
L 370.749299 141.882069 
L 370.889353 142.105379 
L 371.02957 142.328688 
L 371.16995 142.552008 
L 371.310511 142.775318 
L 371.451236 142.998627 
L 371.592124 143.221937 
L 371.733175 143.445246 
L 371.874407 143.668556 
L 372.015785 143.891865 
L 372.157344 144.115164 
L 372.299066 144.338473 
L 372.440951 144.561783 
L 372.582999 144.785082 
L 372.725193 145.008391 
L 372.867568 145.231701 
L 373.010106 145.455 
L 373.152789 145.678309 
L 373.295636 145.901608 
L 373.438645 146.124907 
L 373.581818 146.348216 
" style="fill:none;stroke:#800080;stroke-linecap:square;stroke-width:1.5;"/>
   </g>
   <g id="patch_3">
    <path d="M 54 252 
L 54 34.56 
" style="fill:none;stroke:#000000;stroke-linecap:square;stroke-linejoin:miter;stroke-width:0.8;"/>
   </g>
   <g id="patch_4">
    <path d="M 388.8 252 
L 388.8 34.56 
" style="fill:none;stroke:#000000;stroke-linecap:square;stroke-linejoin:miter;stroke-width:0.8;"/>
   </g>
   <g id="patch_5">
    <path d="M 54 252 
L 388.8 252 
" style="fill:none;stroke:#000000;stroke-linecap:square;stroke-linejoin:miter;stroke-width:0.8;"/>
   </g>
   <g id="patch_6">
    <path d="M 54 34.56 
L 388.8 34.56 
" style="fill:none;stroke:#000000;stroke-linecap:square;stroke-linejoin:miter;stroke-width:0.8;"/>
   </g>
   <g id="text_14">
    <!-- controller -->
    <defs>
     <path d="M 48.78125 52.59375 
L 48.78125 44.1875 
Q 44.96875 46.296875 41.140625 47.34375 
Q 37.3125 48.390625 33.40625 48.390625 
Q 24.65625 48.390625 19.8125 42.84375 
Q 14.984375 37.3125 14.984375 27.296875 
Q 14.984375 17.28125 19.8125 11.734375 
Q 24.65625 6.203125 33.40625 6.203125 
Q 37.3125 6.203125 41.140625 7.25 
Q 44.96875 8.296875 48.78125 10.40625 
L 48.78125 2.09375 
Q 45.015625 0.34375 40.984375 -0.53125 
Q 36.96875 -1.421875 32.421875 -1.421875 
Q 20.0625 -1.421875 12.78125 6.34375 
Q 5.515625 14.109375 5.515625 27.296875 
Q 5.515625 40.671875 12.859375 48.328125 
Q 20.21875 56 33.015625 56 
Q 37.15625 56 41.109375 55.140625 
Q 45.0625 54.296875 48.78125 52.59375 
z
" id="DejaVuSans-99"/>
     <path d="M 30.609375 48.390625 
Q 23.390625 48.390625 19.1875 42.75 
Q 14.984375 37.109375 14.984375 27.296875 
Q 14.984375 17.484375 19.15625 11.84375 
Q 23.34375 6.203125 30.609375 6.203125 
Q 37.796875 6.203125 41.984375 11.859375 
Q 46.1875 17.53125 46.1875 27.296875 
Q 46.1875 37.015625 41.984375 42.703125 
Q 37.796875 48.390625 30.609375 48.390625 
z
M 30.609375 56 
Q 42.328125 56 49.015625 48.375 
Q 55.71875 40.765625 55.71875 27.296875 
Q 55.71875 13.875 49.015625 6.21875 
Q 42.328125 -1.421875 30.609375 -1.421875 
Q 18.84375 -1.421875 12.171875 6.21875 
Q 5.515625 13.875 5.515625 27.296875 
Q 5.515625 40.765625 12.171875 48.375 
Q 18.84375 56 30.609375 56 
z
" id="DejaVuSans-111"/>
     <path d="M 54.890625 33.015625 
L 54.890625 0 
L 45.90625 0 
L 45.90625 32.71875 
Q 45.90625 40.484375 42.875 44.328125 
Q 39.84375 48.1875 33.796875 48.1875 
Q 26.515625 48.1875 22.3125 43.546875 
Q 18.109375 38.921875 18.109375 30.90625 
L 18.109375 0 
L 9.078125 0 
L 9.078125 54.6875 
L 18.109375 54.6875 
L 18.109375 46.1875 
Q 21.34375 51.125 25.703125 53.5625 
Q 30.078125 56 35.796875 56 
Q 45.21875 56 50.046875 50.171875 
Q 54.890625 44.34375 54.890625 33.015625 
z
" id="DejaVuSans-110"/>
     <path d="M 18.3125 70.21875 
L 18.3125 54.6875 
L 36.8125 54.6875 
L 36.8125 47.703125 
L 18.3125 47.703125 
L 18.3125 18.015625 
Q 18.3125 11.328125 20.140625 9.421875 
Q 21.96875 7.515625 27.59375 7.515625 
L 36.8125 7.515625 
L 36.8125 0 
L 27.59375 0 
Q 17.1875 0 13.234375 3.875 
Q 9.28125 7.765625 9.28125 18.015625 
L 9.28125 47.703125 
L 2.6875 47.703125 
L 2.6875 54.6875 
L 9.28125 54.6875 
L 9.28125 70.21875 
z
" id="DejaVuSans-116"/>
     <path d="M 41.109375 46.296875 
Q 39.59375 47.171875 37.8125 47.578125 
Q 36.03125 48 33.890625 48 
Q 26.265625 48 22.1875 43.046875 
Q 18.109375 38.09375 18.109375 28.8125 
L 18.109375 0 
L 9.078125 0 
L 9.078125 54.6875 
L 18.109375 54.6875 
L 18.109375 46.1875 
Q 20.953125 51.171875 25.484375 53.578125 
Q 30.03125 56 36.53125 56 
Q 37.453125 56 38.578125 55.875 
Q 39.703125 55.765625 41.0625 55.515625 
z
" id="DejaVuSans-114"/>
     <path d="M 9.421875 75.984375 
L 18.40625 75.984375 
L 18.40625 0 
L 9.421875 0 
z
" id="DejaVuSans-108"/>
     <path d="M 56.203125 29.59375 
L 56.203125 25.203125 
L 14.890625 25.203125 
Q 15.484375 15.921875 20.484375 11.0625 
Q 25.484375 6.203125 34.421875 6.203125 
Q 39.59375 6.203125 44.453125 7.46875 
Q 49.3125 8.734375 54.109375 11.28125 
L 54.109375 2.78125 
Q 49.265625 0.734375 44.1875 -0.34375 
Q 39.109375 -1.421875 33.890625 -1.421875 
Q 20.796875 -1.421875 13.15625 6.1875 
Q 5.515625 13.8125 5.515625 26.8125 
Q 5.515625 40.234375 12.765625 48.109375 
Q 20.015625 56 32.328125 56 
Q 43.359375 56 49.78125 48.890625 
Q 56.203125 41.796875 56.203125 29.59375 
z
M 47.21875 32.234375 
Q 47.125 39.59375 43.09375 43.984375 
Q 39.0625 48.390625 32.421875 48.390625 
Q 24.90625 48.390625 20.390625 44.140625 
Q 15.875 39.890625 15.1875 32.171875 
z
" id="DejaVuSans-101"/>
    </defs>
    <g transform="translate(192.646875 28.56)scale(0.12 -0.12)">
     <use xlink:href="#DejaVuSans-99"/>
     <use x="54.980469" xlink:href="#DejaVuSans-111"/>
     <use x="116.162109" xlink:href="#DejaVuSans-110"/>
     <use x="179.541016" xlink:href="#DejaVuSans-116"/>
     <use x="218.75" xlink:href="#DejaVuSans-114"/>
     <use x="259.832031" xlink:href="#DejaVuSans-111"/>
     <use x="321.013672" xlink:href="#DejaVuSans-108"/>
     <use x="348.796875" xlink:href="#DejaVuSans-108"/>
     <use x="376.580078" xlink:href="#DejaVuSans-101"/>
     <use x="438.103516" xlink:href="#DejaVuSans-114"/>
    </g>
   </g>
  </g>
 </g>
 <defs>
  <clipPath id="p5c93556d4f">
   <rect height="217.44" width="334.8" x="54" y="34.56"/>
  </clipPath>
 </defs>
</svg>
