<?xml version="1.0" encoding="utf-8" standalone="no"?>
<!DOCTYPE svg PUBLIC "-//W3C//DTD SVG 1.1//EN"
  "http://www.w3.org/Graphics/SVG/1.1/DTD/svg11.dtd">
<!-- Created with matplotlib (https://matplotlib.org/) -->
<svg height="288pt" version="1.1" viewBox="0 0 432 288" width="432pt" xmlns="http://www.w3.org/2000/svg" xmlns:xlink="http://www.w3.org/1999/xlink">
 <metadata>
  <rdf:RDF xmlns:cc="http://creativecommons.org/ns#" xmlns:dc="http://purl.org/dc/elements/1.1/" xmlns:rdf="http://www.w3.org/1999/02/22-rdf-syntax-ns#">
   <cc:Work>
    <dc:type rdf:resource="http://purl.org/dc/dcmitype/StillImage"/>
    <dc:date>2022-02-05T01:07:47.056930</dc:date>
    <dc:format>image/svg+xml</dc:format>
    <dc:creator>
     <cc:Agent>
      <dc:title>Matplotlib v3.3.1, https://matplotlib.org/</dc:title>
     </cc:Agent>
    </dc:creator>
   </cc:Work>
  </rdf:RDF>
 </metadata>
 <defs>
  <style type="text/css">*{stroke-linecap:butt;stroke-linejoin:round;}</style>
 </defs>
 <g id="figure_1">
  <g id="patch_1">
   <path d="M 0 288 
L 432 288 
L 432 0 
L 0 0 
z
" style="fill:#ffffff;"/>
  </g>
  <g id="axes_1">
   <g id="patch_2">
    <path d="M 54 252 
L 388.8 252 
L 388.8 34.56 
L 54 34.56 
z
" style="fill:#ffffff;"/>
   </g>
   <g id="matplotlib.axis_1">
    <g id="xtick_1">
     <g id="line2d_1">
      <path clip-path="url(#p54252874a9)" d="M 69.218182 252 
L 69.218182 34.56 
" style="fill:none;stroke:#b0b0b0;stroke-linecap:square;stroke-width:0.8;"/>
     </g>
     <g id="line2d_2">
      <defs>
       <path d="M 0 0 
L 0 3.5 
" id="m67af0e255c" style="stroke:#000000;stroke-width:0.8;"/>
      </defs>
      <g>
       <use style="stroke:#000000;stroke-width:0.8;" x="69.218182" xlink:href="#m67af0e255c" y="252"/>
      </g>
     </g>
     <g id="text_1">
      <!-- 0.1 -->
      <g transform="translate(61.266619 266.598437)scale(0.1 -0.1)">
       <defs>
        <path d="M 31.78125 66.40625 
Q 24.171875 66.40625 20.328125 58.90625 
Q 16.5 51.421875 16.5 36.375 
Q 16.5 21.390625 20.328125 13.890625 
Q 24.171875 6.390625 31.78125 6.390625 
Q 39.453125 6.390625 43.28125 13.890625 
Q 47.125 21.390625 47.125 36.375 
Q 47.125 51.421875 43.28125 58.90625 
Q 39.453125 66.40625 31.78125 66.40625 
z
M 31.78125 74.21875 
Q 44.046875 74.21875 50.515625 64.515625 
Q 56.984375 54.828125 56.984375 36.375 
Q 56.984375 17.96875 50.515625 8.265625 
Q 44.046875 -1.421875 31.78125 -1.421875 
Q 19.53125 -1.421875 13.0625 8.265625 
Q 6.59375 17.96875 6.59375 36.375 
Q 6.59375 54.828125 13.0625 64.515625 
Q 19.53125 74.21875 31.78125 74.21875 
z
" id="DejaVuSans-48"/>
        <path d="M 10.6875 12.40625 
L 21 12.40625 
L 21 0 
L 10.6875 0 
z
" id="DejaVuSans-46"/>
        <path d="M 12.40625 8.296875 
L 28.515625 8.296875 
L 28.515625 63.921875 
L 10.984375 60.40625 
L 10.984375 69.390625 
L 28.421875 72.90625 
L 38.28125 72.90625 
L 38.28125 8.296875 
L 54.390625 8.296875 
L 54.390625 0 
L 12.40625 0 
z
" id="DejaVuSans-49"/>
       </defs>
       <use xlink:href="#DejaVuSans-48"/>
       <use x="63.623047" xlink:href="#DejaVuSans-46"/>
       <use x="95.410156" xlink:href="#DejaVuSans-49"/>
      </g>
     </g>
    </g>
    <g id="xtick_2">
     <g id="line2d_3">
      <path clip-path="url(#p54252874a9)" d="M 107.386068 252 
L 107.386068 34.56 
" style="fill:none;stroke:#b0b0b0;stroke-linecap:square;stroke-width:0.8;"/>
     </g>
     <g id="line2d_4">
      <g>
       <use style="stroke:#000000;stroke-width:0.8;" x="107.386068" xlink:href="#m67af0e255c" y="252"/>
      </g>
     </g>
     <g id="text_2">
      <!-- 0.2 -->
      <g transform="translate(99.434505 266.598437)scale(0.1 -0.1)">
       <defs>
        <path d="M 19.1875 8.296875 
L 53.609375 8.296875 
L 53.609375 0 
L 7.328125 0 
L 7.328125 8.296875 
Q 12.9375 14.109375 22.625 23.890625 
Q 32.328125 33.6875 34.8125 36.53125 
Q 39.546875 41.84375 41.421875 45.53125 
Q 43.3125 49.21875 43.3125 52.78125 
Q 43.3125 58.59375 39.234375 62.25 
Q 35.15625 65.921875 28.609375 65.921875 
Q 23.96875 65.921875 18.8125 64.3125 
Q 13.671875 62.703125 7.8125 59.421875 
L 7.8125 69.390625 
Q 13.765625 71.78125 18.9375 73 
Q 24.125 74.21875 28.421875 74.21875 
Q 39.75 74.21875 46.484375 68.546875 
Q 53.21875 62.890625 53.21875 53.421875 
Q 53.21875 48.921875 51.53125 44.890625 
Q 49.859375 40.875 45.40625 35.40625 
Q 44.1875 33.984375 37.640625 27.21875 
Q 31.109375 20.453125 19.1875 8.296875 
z
" id="DejaVuSans-50"/>
       </defs>
       <use xlink:href="#DejaVuSans-48"/>
       <use x="63.623047" xlink:href="#DejaVuSans-46"/>
       <use x="95.410156" xlink:href="#DejaVuSans-50"/>
      </g>
     </g>
    </g>
    <g id="xtick_3">
     <g id="line2d_5">
      <path clip-path="url(#p54252874a9)" d="M 145.553953 252 
L 145.553953 34.56 
" style="fill:none;stroke:#b0b0b0;stroke-linecap:square;stroke-width:0.8;"/>
     </g>
     <g id="line2d_6">
      <g>
       <use style="stroke:#000000;stroke-width:0.8;" x="145.553953" xlink:href="#m67af0e255c" y="252"/>
      </g>
     </g>
     <g id="text_3">
      <!-- 0.3 -->
      <g transform="translate(137.602391 266.598437)scale(0.1 -0.1)">
       <defs>
        <path d="M 40.578125 39.3125 
Q 47.65625 37.796875 51.625 33 
Q 55.609375 28.21875 55.609375 21.1875 
Q 55.609375 10.40625 48.1875 4.484375 
Q 40.765625 -1.421875 27.09375 -1.421875 
Q 22.515625 -1.421875 17.65625 -0.515625 
Q 12.796875 0.390625 7.625 2.203125 
L 7.625 11.71875 
Q 11.71875 9.328125 16.59375 8.109375 
Q 21.484375 6.890625 26.8125 6.890625 
Q 36.078125 6.890625 40.9375 10.546875 
Q 45.796875 14.203125 45.796875 21.1875 
Q 45.796875 27.640625 41.28125 31.265625 
Q 36.765625 34.90625 28.71875 34.90625 
L 20.21875 34.90625 
L 20.21875 43.015625 
L 29.109375 43.015625 
Q 36.375 43.015625 40.234375 45.921875 
Q 44.09375 48.828125 44.09375 54.296875 
Q 44.09375 59.90625 40.109375 62.90625 
Q 36.140625 65.921875 28.71875 65.921875 
Q 24.65625 65.921875 20.015625 65.03125 
Q 15.375 64.15625 9.8125 62.3125 
L 9.8125 71.09375 
Q 15.4375 72.65625 20.34375 73.4375 
Q 25.25 74.21875 29.59375 74.21875 
Q 40.828125 74.21875 47.359375 69.109375 
Q 53.90625 64.015625 53.90625 55.328125 
Q 53.90625 49.265625 50.4375 45.09375 
Q 46.96875 40.921875 40.578125 39.3125 
z
" id="DejaVuSans-51"/>
       </defs>
       <use xlink:href="#DejaVuSans-48"/>
       <use x="63.623047" xlink:href="#DejaVuSans-46"/>
       <use x="95.410156" xlink:href="#DejaVuSans-51"/>
      </g>
     </g>
    </g>
    <g id="xtick_4">
     <g id="line2d_7">
      <path clip-path="url(#p54252874a9)" d="M 183.721839 252 
L 183.721839 34.56 
" style="fill:none;stroke:#b0b0b0;stroke-linecap:square;stroke-width:0.8;"/>
     </g>
     <g id="line2d_8">
      <g>
       <use style="stroke:#000000;stroke-width:0.8;" x="183.721839" xlink:href="#m67af0e255c" y="252"/>
      </g>
     </g>
     <g id="text_4">
      <!-- 0.4 -->
      <g transform="translate(175.770277 266.598437)scale(0.1 -0.1)">
       <defs>
        <path d="M 37.796875 64.3125 
L 12.890625 25.390625 
L 37.796875 25.390625 
z
M 35.203125 72.90625 
L 47.609375 72.90625 
L 47.609375 25.390625 
L 58.015625 25.390625 
L 58.015625 17.1875 
L 47.609375 17.1875 
L 47.609375 0 
L 37.796875 0 
L 37.796875 17.1875 
L 4.890625 17.1875 
L 4.890625 26.703125 
z
" id="DejaVuSans-52"/>
       </defs>
       <use xlink:href="#DejaVuSans-48"/>
       <use x="63.623047" xlink:href="#DejaVuSans-46"/>
       <use x="95.410156" xlink:href="#DejaVuSans-52"/>
      </g>
     </g>
    </g>
    <g id="xtick_5">
     <g id="line2d_9">
      <path clip-path="url(#p54252874a9)" d="M 221.889725 252 
L 221.889725 34.56 
" style="fill:none;stroke:#b0b0b0;stroke-linecap:square;stroke-width:0.8;"/>
     </g>
     <g id="line2d_10">
      <g>
       <use style="stroke:#000000;stroke-width:0.8;" x="221.889725" xlink:href="#m67af0e255c" y="252"/>
      </g>
     </g>
     <g id="text_5">
      <!-- 0.5 -->
      <g transform="translate(213.938163 266.598437)scale(0.1 -0.1)">
       <defs>
        <path d="M 10.796875 72.90625 
L 49.515625 72.90625 
L 49.515625 64.59375 
L 19.828125 64.59375 
L 19.828125 46.734375 
Q 21.96875 47.46875 24.109375 47.828125 
Q 26.265625 48.1875 28.421875 48.1875 
Q 40.625 48.1875 47.75 41.5 
Q 54.890625 34.8125 54.890625 23.390625 
Q 54.890625 11.625 47.5625 5.09375 
Q 40.234375 -1.421875 26.90625 -1.421875 
Q 22.3125 -1.421875 17.546875 -0.640625 
Q 12.796875 0.140625 7.71875 1.703125 
L 7.71875 11.625 
Q 12.109375 9.234375 16.796875 8.0625 
Q 21.484375 6.890625 26.703125 6.890625 
Q 35.15625 6.890625 40.078125 11.328125 
Q 45.015625 15.765625 45.015625 23.390625 
Q 45.015625 31 40.078125 35.4375 
Q 35.15625 39.890625 26.703125 39.890625 
Q 22.75 39.890625 18.8125 39.015625 
Q 14.890625 38.140625 10.796875 36.28125 
z
" id="DejaVuSans-53"/>
       </defs>
       <use xlink:href="#DejaVuSans-48"/>
       <use x="63.623047" xlink:href="#DejaVuSans-46"/>
       <use x="95.410156" xlink:href="#DejaVuSans-53"/>
      </g>
     </g>
    </g>
    <g id="xtick_6">
     <g id="line2d_11">
      <path clip-path="url(#p54252874a9)" d="M 260.057611 252 
L 260.057611 34.56 
" style="fill:none;stroke:#b0b0b0;stroke-linecap:square;stroke-width:0.8;"/>
     </g>
     <g id="line2d_12">
      <g>
       <use style="stroke:#000000;stroke-width:0.8;" x="260.057611" xlink:href="#m67af0e255c" y="252"/>
      </g>
     </g>
     <g id="text_6">
      <!-- 0.6 -->
      <g transform="translate(252.106048 266.598437)scale(0.1 -0.1)">
       <defs>
        <path d="M 33.015625 40.375 
Q 26.375 40.375 22.484375 35.828125 
Q 18.609375 31.296875 18.609375 23.390625 
Q 18.609375 15.53125 22.484375 10.953125 
Q 26.375 6.390625 33.015625 6.390625 
Q 39.65625 6.390625 43.53125 10.953125 
Q 47.40625 15.53125 47.40625 23.390625 
Q 47.40625 31.296875 43.53125 35.828125 
Q 39.65625 40.375 33.015625 40.375 
z
M 52.59375 71.296875 
L 52.59375 62.3125 
Q 48.875 64.0625 45.09375 64.984375 
Q 41.3125 65.921875 37.59375 65.921875 
Q 27.828125 65.921875 22.671875 59.328125 
Q 17.53125 52.734375 16.796875 39.40625 
Q 19.671875 43.65625 24.015625 45.921875 
Q 28.375 48.1875 33.59375 48.1875 
Q 44.578125 48.1875 50.953125 41.515625 
Q 57.328125 34.859375 57.328125 23.390625 
Q 57.328125 12.15625 50.6875 5.359375 
Q 44.046875 -1.421875 33.015625 -1.421875 
Q 20.359375 -1.421875 13.671875 8.265625 
Q 6.984375 17.96875 6.984375 36.375 
Q 6.984375 53.65625 15.1875 63.9375 
Q 23.390625 74.21875 37.203125 74.21875 
Q 40.921875 74.21875 44.703125 73.484375 
Q 48.484375 72.75 52.59375 71.296875 
z
" id="DejaVuSans-54"/>
       </defs>
       <use xlink:href="#DejaVuSans-48"/>
       <use x="63.623047" xlink:href="#DejaVuSans-46"/>
       <use x="95.410156" xlink:href="#DejaVuSans-54"/>
      </g>
     </g>
    </g>
    <g id="xtick_7">
     <g id="line2d_13">
      <path clip-path="url(#p54252874a9)" d="M 298.225497 252 
L 298.225497 34.56 
" style="fill:none;stroke:#b0b0b0;stroke-linecap:square;stroke-width:0.8;"/>
     </g>
     <g id="line2d_14">
      <g>
       <use style="stroke:#000000;stroke-width:0.8;" x="298.225497" xlink:href="#m67af0e255c" y="252"/>
      </g>
     </g>
     <g id="text_7">
      <!-- 0.7 -->
      <g transform="translate(290.273934 266.598437)scale(0.1 -0.1)">
       <defs>
        <path d="M 8.203125 72.90625 
L 55.078125 72.90625 
L 55.078125 68.703125 
L 28.609375 0 
L 18.3125 0 
L 43.21875 64.59375 
L 8.203125 64.59375 
z
" id="DejaVuSans-55"/>
       </defs>
       <use xlink:href="#DejaVuSans-48"/>
       <use x="63.623047" xlink:href="#DejaVuSans-46"/>
       <use x="95.410156" xlink:href="#DejaVuSans-55"/>
      </g>
     </g>
    </g>
    <g id="xtick_8">
     <g id="line2d_15">
      <path clip-path="url(#p54252874a9)" d="M 336.393382 252 
L 336.393382 34.56 
" style="fill:none;stroke:#b0b0b0;stroke-linecap:square;stroke-width:0.8;"/>
     </g>
     <g id="line2d_16">
      <g>
       <use style="stroke:#000000;stroke-width:0.8;" x="336.393382" xlink:href="#m67af0e255c" y="252"/>
      </g>
     </g>
     <g id="text_8">
      <!-- 0.8 -->
      <g transform="translate(328.44182 266.598437)scale(0.1 -0.1)">
       <defs>
        <path d="M 31.78125 34.625 
Q 24.75 34.625 20.71875 30.859375 
Q 16.703125 27.09375 16.703125 20.515625 
Q 16.703125 13.921875 20.71875 10.15625 
Q 24.75 6.390625 31.78125 6.390625 
Q 38.8125 6.390625 42.859375 10.171875 
Q 46.921875 13.96875 46.921875 20.515625 
Q 46.921875 27.09375 42.890625 30.859375 
Q 38.875 34.625 31.78125 34.625 
z
M 21.921875 38.8125 
Q 15.578125 40.375 12.03125 44.71875 
Q 8.5 49.078125 8.5 55.328125 
Q 8.5 64.0625 14.71875 69.140625 
Q 20.953125 74.21875 31.78125 74.21875 
Q 42.671875 74.21875 48.875 69.140625 
Q 55.078125 64.0625 55.078125 55.328125 
Q 55.078125 49.078125 51.53125 44.71875 
Q 48 40.375 41.703125 38.8125 
Q 48.828125 37.15625 52.796875 32.3125 
Q 56.78125 27.484375 56.78125 20.515625 
Q 56.78125 9.90625 50.3125 4.234375 
Q 43.84375 -1.421875 31.78125 -1.421875 
Q 19.734375 -1.421875 13.25 4.234375 
Q 6.78125 9.90625 6.78125 20.515625 
Q 6.78125 27.484375 10.78125 32.3125 
Q 14.796875 37.15625 21.921875 38.8125 
z
M 18.3125 54.390625 
Q 18.3125 48.734375 21.84375 45.5625 
Q 25.390625 42.390625 31.78125 42.390625 
Q 38.140625 42.390625 41.71875 45.5625 
Q 45.3125 48.734375 45.3125 54.390625 
Q 45.3125 60.0625 41.71875 63.234375 
Q 38.140625 66.40625 31.78125 66.40625 
Q 25.390625 66.40625 21.84375 63.234375 
Q 18.3125 60.0625 18.3125 54.390625 
z
" id="DejaVuSans-56"/>
       </defs>
       <use xlink:href="#DejaVuSans-48"/>
       <use x="63.623047" xlink:href="#DejaVuSans-46"/>
       <use x="95.410156" xlink:href="#DejaVuSans-56"/>
      </g>
     </g>
    </g>
    <g id="xtick_9">
     <g id="line2d_17">
      <path clip-path="url(#p54252874a9)" d="M 374.561268 252 
L 374.561268 34.56 
" style="fill:none;stroke:#b0b0b0;stroke-linecap:square;stroke-width:0.8;"/>
     </g>
     <g id="line2d_18">
      <g>
       <use style="stroke:#000000;stroke-width:0.8;" x="374.561268" xlink:href="#m67af0e255c" y="252"/>
      </g>
     </g>
     <g id="text_9">
      <!-- 0.9 -->
      <g transform="translate(366.609706 266.598437)scale(0.1 -0.1)">
       <defs>
        <path d="M 10.984375 1.515625 
L 10.984375 10.5 
Q 14.703125 8.734375 18.5 7.8125 
Q 22.3125 6.890625 25.984375 6.890625 
Q 35.75 6.890625 40.890625 13.453125 
Q 46.046875 20.015625 46.78125 33.40625 
Q 43.953125 29.203125 39.59375 26.953125 
Q 35.25 24.703125 29.984375 24.703125 
Q 19.046875 24.703125 12.671875 31.3125 
Q 6.296875 37.9375 6.296875 49.421875 
Q 6.296875 60.640625 12.9375 67.421875 
Q 19.578125 74.21875 30.609375 74.21875 
Q 43.265625 74.21875 49.921875 64.515625 
Q 56.59375 54.828125 56.59375 36.375 
Q 56.59375 19.140625 48.40625 8.859375 
Q 40.234375 -1.421875 26.421875 -1.421875 
Q 22.703125 -1.421875 18.890625 -0.6875 
Q 15.09375 0.046875 10.984375 1.515625 
z
M 30.609375 32.421875 
Q 37.25 32.421875 41.125 36.953125 
Q 45.015625 41.5 45.015625 49.421875 
Q 45.015625 57.28125 41.125 61.84375 
Q 37.25 66.40625 30.609375 66.40625 
Q 23.96875 66.40625 20.09375 61.84375 
Q 16.21875 57.28125 16.21875 49.421875 
Q 16.21875 41.5 20.09375 36.953125 
Q 23.96875 32.421875 30.609375 32.421875 
z
" id="DejaVuSans-57"/>
       </defs>
       <use xlink:href="#DejaVuSans-48"/>
       <use x="63.623047" xlink:href="#DejaVuSans-46"/>
       <use x="95.410156" xlink:href="#DejaVuSans-57"/>
      </g>
     </g>
    </g>
    <g id="text_10">
     <!-- $x_1$ -->
     <g transform="translate(216.05 280.276563)scale(0.1 -0.1)">
      <defs>
       <path d="M 60.015625 54.6875 
L 34.90625 27.875 
L 50.296875 0 
L 39.984375 0 
L 28.421875 21.6875 
L 8.296875 0 
L -2.59375 0 
L 24.3125 28.8125 
L 10.015625 54.6875 
L 20.3125 54.6875 
L 30.8125 34.90625 
L 49.125 54.6875 
z
" id="DejaVuSans-Oblique-120"/>
      </defs>
      <use transform="translate(0 0.3125)" xlink:href="#DejaVuSans-Oblique-120"/>
      <use transform="translate(59.179688 -16.09375)scale(0.7)" xlink:href="#DejaVuSans-49"/>
     </g>
    </g>
   </g>
   <g id="matplotlib.axis_2">
    <g id="ytick_1">
     <g id="line2d_19">
      <path clip-path="url(#p54252874a9)" d="M 54 248.505851 
L 388.8 248.505851 
" style="fill:none;stroke:#b0b0b0;stroke-linecap:square;stroke-width:0.8;"/>
     </g>
     <g id="line2d_20">
      <defs>
       <path d="M 0 0 
L -3.5 0 
" id="mfa18d03551" style="stroke:#000000;stroke-width:0.8;"/>
      </defs>
      <g>
       <use style="stroke:#000000;stroke-width:0.8;" x="54" xlink:href="#mfa18d03551" y="248.505851"/>
      </g>
     </g>
     <g id="text_11">
      <!-- 0.25 -->
      <g transform="translate(24.734375 252.305069)scale(0.1 -0.1)">
       <use xlink:href="#DejaVuSans-48"/>
       <use x="63.623047" xlink:href="#DejaVuSans-46"/>
       <use x="95.410156" xlink:href="#DejaVuSans-50"/>
       <use x="159.033203" xlink:href="#DejaVuSans-53"/>
      </g>
     </g>
    </g>
    <g id="ytick_2">
     <g id="line2d_21">
      <path clip-path="url(#p54252874a9)" d="M 54 220.640146 
L 388.8 220.640146 
" style="fill:none;stroke:#b0b0b0;stroke-linecap:square;stroke-width:0.8;"/>
     </g>
     <g id="line2d_22">
      <g>
       <use style="stroke:#000000;stroke-width:0.8;" x="54" xlink:href="#mfa18d03551" y="220.640146"/>
      </g>
     </g>
     <g id="text_12">
      <!-- 0.30 -->
      <g transform="translate(24.734375 224.439365)scale(0.1 -0.1)">
       <use xlink:href="#DejaVuSans-48"/>
       <use x="63.623047" xlink:href="#DejaVuSans-46"/>
       <use x="95.410156" xlink:href="#DejaVuSans-51"/>
       <use x="159.033203" xlink:href="#DejaVuSans-48"/>
      </g>
     </g>
    </g>
    <g id="ytick_3">
     <g id="line2d_23">
      <path clip-path="url(#p54252874a9)" d="M 54 192.774442 
L 388.8 192.774442 
" style="fill:none;stroke:#b0b0b0;stroke-linecap:square;stroke-width:0.8;"/>
     </g>
     <g id="line2d_24">
      <g>
       <use style="stroke:#000000;stroke-width:0.8;" x="54" xlink:href="#mfa18d03551" y="192.774442"/>
      </g>
     </g>
     <g id="text_13">
      <!-- 0.35 -->
      <g transform="translate(24.734375 196.57366)scale(0.1 -0.1)">
       <use xlink:href="#DejaVuSans-48"/>
       <use x="63.623047" xlink:href="#DejaVuSans-46"/>
       <use x="95.410156" xlink:href="#DejaVuSans-51"/>
       <use x="159.033203" xlink:href="#DejaVuSans-53"/>
      </g>
     </g>
    </g>
    <g id="ytick_4">
     <g id="line2d_25">
      <path clip-path="url(#p54252874a9)" d="M 54 164.908737 
L 388.8 164.908737 
" style="fill:none;stroke:#b0b0b0;stroke-linecap:square;stroke-width:0.8;"/>
     </g>
     <g id="line2d_26">
      <g>
       <use style="stroke:#000000;stroke-width:0.8;" x="54" xlink:href="#mfa18d03551" y="164.908737"/>
      </g>
     </g>
     <g id="text_14">
      <!-- 0.40 -->
      <g transform="translate(24.734375 168.707956)scale(0.1 -0.1)">
       <use xlink:href="#DejaVuSans-48"/>
       <use x="63.623047" xlink:href="#DejaVuSans-46"/>
       <use x="95.410156" xlink:href="#DejaVuSans-52"/>
       <use x="159.033203" xlink:href="#DejaVuSans-48"/>
      </g>
     </g>
    </g>
    <g id="ytick_5">
     <g id="line2d_27">
      <path clip-path="url(#p54252874a9)" d="M 54 137.043033 
L 388.8 137.043033 
" style="fill:none;stroke:#b0b0b0;stroke-linecap:square;stroke-width:0.8;"/>
     </g>
     <g id="line2d_28">
      <g>
       <use style="stroke:#000000;stroke-width:0.8;" x="54" xlink:href="#mfa18d03551" y="137.043033"/>
      </g>
     </g>
     <g id="text_15">
      <!-- 0.45 -->
      <g transform="translate(24.734375 140.842251)scale(0.1 -0.1)">
       <use xlink:href="#DejaVuSans-48"/>
       <use x="63.623047" xlink:href="#DejaVuSans-46"/>
       <use x="95.410156" xlink:href="#DejaVuSans-52"/>
       <use x="159.033203" xlink:href="#DejaVuSans-53"/>
      </g>
     </g>
    </g>
    <g id="ytick_6">
     <g id="line2d_29">
      <path clip-path="url(#p54252874a9)" d="M 54 109.177328 
L 388.8 109.177328 
" style="fill:none;stroke:#b0b0b0;stroke-linecap:square;stroke-width:0.8;"/>
     </g>
     <g id="line2d_30">
      <g>
       <use style="stroke:#000000;stroke-width:0.8;" x="54" xlink:href="#mfa18d03551" y="109.177328"/>
      </g>
     </g>
     <g id="text_16">
      <!-- 0.50 -->
      <g transform="translate(24.734375 112.976547)scale(0.1 -0.1)">
       <use xlink:href="#DejaVuSans-48"/>
       <use x="63.623047" xlink:href="#DejaVuSans-46"/>
       <use x="95.410156" xlink:href="#DejaVuSans-53"/>
       <use x="159.033203" xlink:href="#DejaVuSans-48"/>
      </g>
     </g>
    </g>
    <g id="ytick_7">
     <g id="line2d_31">
      <path clip-path="url(#p54252874a9)" d="M 54 81.311624 
L 388.8 81.311624 
" style="fill:none;stroke:#b0b0b0;stroke-linecap:square;stroke-width:0.8;"/>
     </g>
     <g id="line2d_32">
      <g>
       <use style="stroke:#000000;stroke-width:0.8;" x="54" xlink:href="#mfa18d03551" y="81.311624"/>
      </g>
     </g>
     <g id="text_17">
      <!-- 0.55 -->
      <g transform="translate(24.734375 85.110842)scale(0.1 -0.1)">
       <use xlink:href="#DejaVuSans-48"/>
       <use x="63.623047" xlink:href="#DejaVuSans-46"/>
       <use x="95.410156" xlink:href="#DejaVuSans-53"/>
       <use x="159.033203" xlink:href="#DejaVuSans-53"/>
      </g>
     </g>
    </g>
    <g id="ytick_8">
     <g id="line2d_33">
      <path clip-path="url(#p54252874a9)" d="M 54 53.445919 
L 388.8 53.445919 
" style="fill:none;stroke:#b0b0b0;stroke-linecap:square;stroke-width:0.8;"/>
     </g>
     <g id="line2d_34">
      <g>
       <use style="stroke:#000000;stroke-width:0.8;" x="54" xlink:href="#mfa18d03551" y="53.445919"/>
      </g>
     </g>
     <g id="text_18">
      <!-- 0.60 -->
      <g transform="translate(24.734375 57.245138)scale(0.1 -0.1)">
       <use xlink:href="#DejaVuSans-48"/>
       <use x="63.623047" xlink:href="#DejaVuSans-46"/>
       <use x="95.410156" xlink:href="#DejaVuSans-54"/>
       <use x="159.033203" xlink:href="#DejaVuSans-48"/>
      </g>
     </g>
    </g>
    <g id="text_19">
     <!-- $\lambda$ -->
     <g transform="translate(18.654688 146.28)rotate(-90)scale(0.1 -0.1)">
      <defs>
       <path d="M 36.71875 67.4375 
L 48.828125 0 
L 39.3125 0 
L 31.84375 40.4375 
L 5.125 0 
L -4.390625 0 
L 29.734375 52.4375 
L 28.03125 62.109375 
Q 26.953125 68.265625 21.734375 68.265625 
L 17.046875 68.265625 
L 18.5 75.984375 
L 24.21875 75.875 
Q 35.203125 75.734375 36.71875 67.4375 
z
" id="DejaVuSans-Oblique-955"/>
      </defs>
      <use transform="translate(0 0.015625)" xlink:href="#DejaVuSans-Oblique-955"/>
     </g>
    </g>
   </g>
   <g id="line2d_35">
    <defs>
     <path d="M 0 0.5 
C 0.132602 0.5 0.25979 0.447317 0.353553 0.353553 
C 0.447317 0.25979 0.5 0.132602 0.5 0 
C 0.5 -0.132602 0.447317 -0.25979 0.353553 -0.353553 
C 0.25979 -0.447317 0.132602 -0.5 0 -0.5 
C -0.132602 -0.5 -0.25979 -0.447317 -0.353553 -0.353553 
C -0.447317 -0.25979 -0.5 -0.132602 -0.5 0 
C -0.5 0.132602 -0.447317 0.25979 -0.353553 0.353553 
C -0.25979 0.447317 -0.132602 0.5 0 0.5 
z
" id="m6600786629" style="stroke:#ff0000;"/>
    </defs>
    <g clip-path="url(#p54252874a9)">
     <use style="fill:#ff0000;stroke:#ff0000;" x="69.218182" xlink:href="#m6600786629" y="110.270101"/>
     <use style="fill:#ff0000;stroke:#ff0000;" x="72.276535" xlink:href="#m6600786629" y="96.399945"/>
     <use style="fill:#ff0000;stroke:#ff0000;" x="75.986126" xlink:href="#m6600786629" y="80.877535"/>
     <use style="fill:#ff0000;stroke:#ff0000;" x="79.602802" xlink:href="#m6600786629" y="66.957571"/>
     <use style="fill:#ff0000;stroke:#ff0000;" x="82.486995" xlink:href="#m6600786629" y="57.143965"/>
     <use style="fill:#ff0000;stroke:#ff0000;" x="84.880093" xlink:href="#m6600786629" y="44.443636"/>
     <use style="fill:#ff0000;stroke:#ff0000;" x="86.786995" xlink:href="#m6600786629" y="47.420292"/>
     <use style="fill:#ff0000;stroke:#ff0000;" x="88.801893" xlink:href="#m6600786629" y="48.708688"/>
     <use style="fill:#ff0000;stroke:#ff0000;" x="90.870713" xlink:href="#m6600786629" y="50.000972"/>
     <use style="fill:#ff0000;stroke:#ff0000;" x="92.995746" xlink:href="#m6600786629" y="51.696166"/>
     <use style="fill:#ff0000;stroke:#ff0000;" x="95.195499" xlink:href="#m6600786629" y="53.403129"/>
     <use style="fill:#ff0000;stroke:#ff0000;" x="97.474111" xlink:href="#m6600786629" y="55.115161"/>
     <use style="fill:#ff0000;stroke:#ff0000;" x="99.835439" xlink:href="#m6600786629" y="56.827845"/>
     <use style="fill:#ff0000;stroke:#ff0000;" x="102.283004" xlink:href="#m6600786629" y="58.976369"/>
     <use style="fill:#ff0000;stroke:#ff0000;" x="104.84196" xlink:href="#m6600786629" y="61.128196"/>
     <use style="fill:#ff0000;stroke:#ff0000;" x="107.517276" xlink:href="#m6600786629" y="63.735471"/>
     <use style="fill:#ff0000;stroke:#ff0000;" x="110.338305" xlink:href="#m6600786629" y="66.345151"/>
     <use style="fill:#ff0000;stroke:#ff0000;" x="113.309253" xlink:href="#m6600786629" y="68.948848"/>
     <use style="fill:#ff0000;stroke:#ff0000;" x="116.43059" xlink:href="#m6600786629" y="72.421501"/>
     <use style="fill:#ff0000;stroke:#ff0000;" x="119.749573" xlink:href="#m6600786629" y="76.038278"/>
     <use style="fill:#ff0000;stroke:#ff0000;" x="123.257393" xlink:href="#m6600786629" y="79.738896"/>
     <use style="fill:#ff0000;stroke:#ff0000;" x="126.92344" xlink:href="#m6600786629" y="83.778444"/>
     <use style="fill:#ff0000;stroke:#ff0000;" x="130.70327" xlink:href="#m6600786629" y="87.018409"/>
     <use style="fill:#ff0000;stroke:#ff0000;" x="134.51853" xlink:href="#m6600786629" y="90.385052"/>
     <use style="fill:#ff0000;stroke:#ff0000;" x="138.321596" xlink:href="#m6600786629" y="93.107755"/>
     <use style="fill:#ff0000;stroke:#ff0000;" x="142.086264" xlink:href="#m6600786629" y="95.189593"/>
     <use style="fill:#ff0000;stroke:#ff0000;" x="145.815918" xlink:href="#m6600786629" y="96.992519"/>
     <use style="fill:#ff0000;stroke:#ff0000;" x="149.517087" xlink:href="#m6600786629" y="97.425172"/>
     <use style="fill:#ff0000;stroke:#ff0000;" x="153.243781" xlink:href="#m6600786629" y="98.833191"/>
     <use style="fill:#ff0000;stroke:#ff0000;" x="156.963366" xlink:href="#m6600786629" y="99.630545"/>
     <use style="fill:#ff0000;stroke:#ff0000;" x="160.700981" xlink:href="#m6600786629" y="100.380789"/>
     <use style="fill:#ff0000;stroke:#ff0000;" x="164.459297" xlink:href="#m6600786629" y="100.605725"/>
     <use style="fill:#ff0000;stroke:#ff0000;" x="168.249848" xlink:href="#m6600786629" y="100.832605"/>
     <use style="fill:#ff0000;stroke:#ff0000;" x="172.061085" xlink:href="#m6600786629" y="101.022678"/>
     <use style="fill:#ff0000;stroke:#ff0000;" x="175.87738" xlink:href="#m6600786629" y="101.133898"/>
     <use style="fill:#ff0000;stroke:#ff0000;" x="179.677425" xlink:href="#m6600786629" y="101.165492"/>
     <use style="fill:#ff0000;stroke:#ff0000;" x="183.43442" xlink:href="#m6600786629" y="101.161626"/>
     <use style="fill:#ff0000;stroke:#ff0000;" x="187.120736" xlink:href="#m6600786629" y="101.167938"/>
     <use style="fill:#ff0000;stroke:#ff0000;" x="190.713639" xlink:href="#m6600786629" y="100.780364"/>
     <use style="fill:#ff0000;stroke:#ff0000;" x="194.168448" xlink:href="#m6600786629" y="100.864125"/>
     <use style="fill:#ff0000;stroke:#ff0000;" x="197.506462" xlink:href="#m6600786629" y="100.507991"/>
     <use style="fill:#ff0000;stroke:#ff0000;" x="200.689069" xlink:href="#m6600786629" y="100.704084"/>
     <use style="fill:#ff0000;stroke:#ff0000;" x="203.76154" xlink:href="#m6600786629" y="100.942489"/>
     <use style="fill:#ff0000;stroke:#ff0000;" x="206.729894" xlink:href="#m6600786629" y="100.696357"/>
     <use style="fill:#ff0000;stroke:#ff0000;" x="209.559739" xlink:href="#m6600786629" y="101.016547"/>
     <use style="fill:#ff0000;stroke:#ff0000;" x="212.30313" xlink:href="#m6600786629" y="100.836726"/>
     <use style="fill:#ff0000;stroke:#ff0000;" x="214.926812" xlink:href="#m6600786629" y="101.748236"/>
     <use style="fill:#ff0000;stroke:#ff0000;" x="217.518947" xlink:href="#m6600786629" y="102.149363"/>
     <use style="fill:#ff0000;stroke:#ff0000;" x="220.042379" xlink:href="#m6600786629" y="102.058752"/>
     <use style="fill:#ff0000;stroke:#ff0000;" x="222.46621" xlink:href="#m6600786629" y="103.022737"/>
     <use style="fill:#ff0000;stroke:#ff0000;" x="224.869531" xlink:href="#m6600786629" y="102.395197"/>
     <use style="fill:#ff0000;stroke:#ff0000;" x="227.145797" xlink:href="#m6600786629" y="96.453658"/>
     <use style="fill:#ff0000;stroke:#ff0000;" x="229.021375" xlink:href="#m6600786629" y="100.543808"/>
     <use style="fill:#ff0000;stroke:#ff0000;" x="231.061666" xlink:href="#m6600786629" y="101.04584"/>
     <use style="fill:#ff0000;stroke:#ff0000;" x="233.071873" xlink:href="#m6600786629" y="101.556632"/>
     <use style="fill:#ff0000;stroke:#ff0000;" x="235.053356" xlink:href="#m6600786629" y="102.077809"/>
     <use style="fill:#ff0000;stroke:#ff0000;" x="237.00748" xlink:href="#m6600786629" y="103.122135"/>
     <use style="fill:#ff0000;stroke:#ff0000;" x="238.962485" xlink:href="#m6600786629" y="103.688926"/>
     <use style="fill:#ff0000;stroke:#ff0000;" x="240.892245" xlink:href="#m6600786629" y="104.736008"/>
     <use style="fill:#ff0000;stroke:#ff0000;" x="242.822465" xlink:href="#m6600786629" y="99.804774"/>
     <use style="fill:#ff0000;stroke:#ff0000;" x="244.473758" xlink:href="#m6600786629" y="100.196141"/>
     <use style="fill:#ff0000;stroke:#ff0000;" x="246.106644" xlink:href="#m6600786629" y="98.973345"/>
     <use style="fill:#ff0000;stroke:#ff0000;" x="247.659854" xlink:href="#m6600786629" y="98.723036"/>
     <use style="fill:#ff0000;stroke:#ff0000;" x="249.175358" xlink:href="#m6600786629" y="99.588371"/>
     <use style="fill:#ff0000;stroke:#ff0000;" x="250.69427" xlink:href="#m6600786629" y="100.247727"/>
     <use style="fill:#ff0000;stroke:#ff0000;" x="252.208714" xlink:href="#m6600786629" y="100.811205"/>
     <use style="fill:#ff0000;stroke:#ff0000;" x="253.715001" xlink:href="#m6600786629" y="94.577872"/>
     <use style="fill:#ff0000;stroke:#ff0000;" x="255.003227" xlink:href="#m6600786629" y="95.643748"/>
     <use style="fill:#ff0000;stroke:#ff0000;" x="256.303593" xlink:href="#m6600786629" y="96.708326"/>
     <use style="fill:#ff0000;stroke:#ff0000;" x="257.615759" xlink:href="#m6600786629" y="99.736262"/>
     <use style="fill:#ff0000;stroke:#ff0000;" x="258.997799" xlink:href="#m6600786629" y="100.300021"/>
     <use style="fill:#ff0000;stroke:#ff0000;" x="260.374663" xlink:href="#m6600786629" y="100.879232"/>
     <use style="fill:#ff0000;stroke:#ff0000;" x="261.746656" xlink:href="#m6600786629" y="101.939775"/>
     <use style="fill:#ff0000;stroke:#ff0000;" x="263.128568" xlink:href="#m6600786629" y="96.972902"/>
     <use style="fill:#ff0000;stroke:#ff0000;" x="264.349296" xlink:href="#m6600786629" y="97.246757"/>
     <use style="fill:#ff0000;stroke:#ff0000;" x="265.561181" xlink:href="#m6600786629" y="97.589839"/>
     <use style="fill:#ff0000;stroke:#ff0000;" x="266.765977" xlink:href="#m6600786629" y="94.731742"/>
     <use style="fill:#ff0000;stroke:#ff0000;" x="267.889927" xlink:href="#m6600786629" y="96.812476"/>
     <use style="fill:#ff0000;stroke:#ff0000;" x="269.047794" xlink:href="#m6600786629" y="97.614413"/>
     <use style="fill:#ff0000;stroke:#ff0000;" x="270.210194" xlink:href="#m6600786629" y="97.847698"/>
     <use style="fill:#ff0000;stroke:#ff0000;" x="271.363617" xlink:href="#m6600786629" y="92.877695"/>
     <use style="fill:#ff0000;stroke:#ff0000;" x="272.400155" xlink:href="#m6600786629" y="95.493154"/>
     <use style="fill:#ff0000;stroke:#ff0000;" x="273.477947" xlink:href="#m6600786629" y="96.52071"/>
     <use style="fill:#ff0000;stroke:#ff0000;" x="274.565279" xlink:href="#m6600786629" y="96.918567"/>
     <use style="fill:#ff0000;stroke:#ff0000;" x="275.648739" xlink:href="#m6600786629" y="97.627443"/>
     <use style="fill:#ff0000;stroke:#ff0000;" x="276.734713" xlink:href="#m6600786629" y="93.871164"/>
     <use style="fill:#ff0000;stroke:#ff0000;" x="277.735923" xlink:href="#m6600786629" y="93.614142"/>
     <use style="fill:#ff0000;stroke:#ff0000;" x="278.723203" xlink:href="#m6600786629" y="93.943062"/>
     <use style="fill:#ff0000;stroke:#ff0000;" x="279.707144" xlink:href="#m6600786629" y="94.183934"/>
     <use style="fill:#ff0000;stroke:#ff0000;" x="280.686137" xlink:href="#m6600786629" y="93.213608"/>
     <use style="fill:#ff0000;stroke:#ff0000;" x="281.639622" xlink:href="#m6600786629" y="93.941921"/>
     <use style="fill:#ff0000;stroke:#ff0000;" x="282.596782" xlink:href="#m6600786629" y="88.745026"/>
     <use style="fill:#ff0000;stroke:#ff0000;" x="283.466167" xlink:href="#m6600786629" y="89.72335"/>
     <use style="fill:#ff0000;stroke:#ff0000;" x="284.343224" xlink:href="#m6600786629" y="90.701199"/>
     <use style="fill:#ff0000;stroke:#ff0000;" x="285.227872" xlink:href="#m6600786629" y="92.651009"/>
     <use style="fill:#ff0000;stroke:#ff0000;" x="286.134683" xlink:href="#m6600786629" y="93.501403"/>
     <use style="fill:#ff0000;stroke:#ff0000;" x="287.04693" xlink:href="#m6600786629" y="94.227187"/>
     <use style="fill:#ff0000;stroke:#ff0000;" x="287.962521" xlink:href="#m6600786629" y="90.599059"/>
     <use style="fill:#ff0000;stroke:#ff0000;" x="288.816903" xlink:href="#m6600786629" y="90.549025"/>
     <use style="fill:#ff0000;stroke:#ff0000;" x="289.664214" xlink:href="#m6600786629" y="90.16477"/>
     <use style="fill:#ff0000;stroke:#ff0000;" x="290.500082" xlink:href="#m6600786629" y="88.462337"/>
     <use style="fill:#ff0000;stroke:#ff0000;" x="291.308056" xlink:href="#m6600786629" y="90.026645"/>
     <use style="fill:#ff0000;stroke:#ff0000;" x="292.130393" xlink:href="#m6600786629" y="90.358668"/>
     <use style="fill:#ff0000;stroke:#ff0000;" x="292.951074" xlink:href="#m6600786629" y="86.090802"/>
     <use style="fill:#ff0000;stroke:#ff0000;" x="293.71449" xlink:href="#m6600786629" y="87.022731"/>
     <use style="fill:#ff0000;stroke:#ff0000;" x="294.483884" xlink:href="#m6600786629" y="88.845134"/>
     <use style="fill:#ff0000;stroke:#ff0000;" x="295.269745" xlink:href="#m6600786629" y="89.558329"/>
     <use style="fill:#ff0000;stroke:#ff0000;" x="296.05882" xlink:href="#m6600786629" y="90.334935"/>
     <use style="fill:#ff0000;stroke:#ff0000;" x="296.85179" xlink:href="#m6600786629" y="87.163806"/>
     <use style="fill:#ff0000;stroke:#ff0000;" x="297.602238" xlink:href="#m6600786629" y="86.976998"/>
     <use style="fill:#ff0000;stroke:#ff0000;" x="298.345929" xlink:href="#m6600786629" y="86.6356"/>
     <use style="fill:#ff0000;stroke:#ff0000;" x="299.081315" xlink:href="#m6600786629" y="85.060285"/>
     <use style="fill:#ff0000;stroke:#ff0000;" x="299.795854" xlink:href="#m6600786629" y="86.444148"/>
     <use style="fill:#ff0000;stroke:#ff0000;" x="300.520478" xlink:href="#m6600786629" y="82.00084"/>
     <use style="fill:#ff0000;stroke:#ff0000;" x="301.197382" xlink:href="#m6600786629" y="82.889515"/>
     <use style="fill:#ff0000;stroke:#ff0000;" x="301.879062" xlink:href="#m6600786629" y="84.511887"/>
     <use style="fill:#ff0000;stroke:#ff0000;" x="302.572497" xlink:href="#m6600786629" y="85.290195"/>
     <use style="fill:#ff0000;stroke:#ff0000;" x="303.269552" xlink:href="#m6600786629" y="86.107456"/>
     <use style="fill:#ff0000;stroke:#ff0000;" x="303.970552" xlink:href="#m6600786629" y="86.441382"/>
     <use style="fill:#ff0000;stroke:#ff0000;" x="304.670603" xlink:href="#m6600786629" y="82.935746"/>
     <use style="fill:#ff0000;stroke:#ff0000;" x="305.333455" xlink:href="#m6600786629" y="82.633534"/>
     <use style="fill:#ff0000;stroke:#ff0000;" x="305.990108" xlink:href="#m6600786629" y="81.175713"/>
     <use style="fill:#ff0000;stroke:#ff0000;" x="306.630803" xlink:href="#m6600786629" y="82.504775"/>
     <use style="fill:#ff0000;stroke:#ff0000;" x="307.279603" xlink:href="#m6600786629" y="82.901137"/>
     <use style="fill:#ff0000;stroke:#ff0000;" x="307.928399" xlink:href="#m6600786629" y="79.187001"/>
     <use style="fill:#ff0000;stroke:#ff0000;" x="308.543248" xlink:href="#m6600786629" y="80.035248"/>
     <use style="fill:#ff0000;stroke:#ff0000;" x="309.161905" xlink:href="#m6600786629" y="81.470383"/>
     <use style="fill:#ff0000;stroke:#ff0000;" x="309.789098" xlink:href="#m6600786629" y="82.15141"/>
     <use style="fill:#ff0000;stroke:#ff0000;" x="310.418648" xlink:href="#m6600786629" y="82.578844"/>
     <use style="fill:#ff0000;stroke:#ff0000;" x="311.048394" xlink:href="#m6600786629" y="83.426537"/>
     <use style="fill:#ff0000;stroke:#ff0000;" x="311.681794" xlink:href="#m6600786629" y="84.274092"/>
     <use style="fill:#ff0000;stroke:#ff0000;" x="312.318803" xlink:href="#m6600786629" y="85.12151"/>
     <use style="fill:#ff0000;stroke:#ff0000;" x="312.959376" xlink:href="#m6600786629" y="81.829201"/>
     <use style="fill:#ff0000;stroke:#ff0000;" x="313.569093" xlink:href="#m6600786629" y="82.663887"/>
     <use style="fill:#ff0000;stroke:#ff0000;" x="314.182182" xlink:href="#m6600786629" y="83.498452"/>
     <use style="fill:#ff0000;stroke:#ff0000;" x="314.798599" xlink:href="#m6600786629" y="84.332896"/>
     <use style="fill:#ff0000;stroke:#ff0000;" x="315.418304" xlink:href="#m6600786629" y="85.167221"/>
     <use style="fill:#ff0000;stroke:#ff0000;" x="316.04125" xlink:href="#m6600786629" y="86.001428"/>
     <use style="fill:#ff0000;stroke:#ff0000;" x="316.667392" xlink:href="#m6600786629" y="86.835517"/>
     <use style="fill:#ff0000;stroke:#ff0000;" x="317.296682" xlink:href="#m6600786629" y="87.66949"/>
     <use style="fill:#ff0000;stroke:#ff0000;" x="317.929071" xlink:href="#m6600786629" y="88.503347"/>
     <use style="fill:#ff0000;stroke:#ff0000;" x="318.564507" xlink:href="#m6600786629" y="89.337092"/>
     <use style="fill:#ff0000;stroke:#ff0000;" x="319.202938" xlink:href="#m6600786629" y="90.170723"/>
     <use style="fill:#ff0000;stroke:#ff0000;" x="319.84431" xlink:href="#m6600786629" y="92.855453"/>
     <use style="fill:#ff0000;stroke:#ff0000;" x="320.505841" xlink:href="#m6600786629" y="93.694118"/>
     <use style="fill:#ff0000;stroke:#ff0000;" x="321.17019" xlink:href="#m6600786629" y="94.532673"/>
     <use style="fill:#ff0000;stroke:#ff0000;" x="321.837292" xlink:href="#m6600786629" y="95.371119"/>
     <use style="fill:#ff0000;stroke:#ff0000;" x="322.507083" xlink:href="#m6600786629" y="96.209458"/>
     <use style="fill:#ff0000;stroke:#ff0000;" x="323.179497" xlink:href="#m6600786629" y="97.047693"/>
     <use style="fill:#ff0000;stroke:#ff0000;" x="323.854467" xlink:href="#m6600786629" y="99.900766"/>
     <use style="fill:#ff0000;stroke:#ff0000;" x="324.55331" xlink:href="#m6600786629" y="100.744233"/>
     <use style="fill:#ff0000;stroke:#ff0000;" x="325.254491" xlink:href="#m6600786629" y="101.587602"/>
     <use style="fill:#ff0000;stroke:#ff0000;" x="325.957931" xlink:href="#m6600786629" y="102.430876"/>
     <use style="fill:#ff0000;stroke:#ff0000;" x="326.663552" xlink:href="#m6600786629" y="105.365547"/>
     <use style="fill:#ff0000;stroke:#ff0000;" x="327.396034" xlink:href="#m6600786629" y="106.214027"/>
     <use style="fill:#ff0000;stroke:#ff0000;" x="328.130377" xlink:href="#m6600786629" y="107.062425"/>
     <use style="fill:#ff0000;stroke:#ff0000;" x="328.866495" xlink:href="#m6600786629" y="110.062468"/>
     <use style="fill:#ff0000;stroke:#ff0000;" x="329.632495" xlink:href="#m6600786629" y="110.915998"/>
     <use style="fill:#ff0000;stroke:#ff0000;" x="330.399833" xlink:href="#m6600786629" y="111.769466"/>
     <use style="fill:#ff0000;stroke:#ff0000;" x="331.168414" xlink:href="#m6600786629" y="114.832674"/>
     <use style="fill:#ff0000;stroke:#ff0000;" x="331.970315" xlink:href="#m6600786629" y="115.691157"/>
     <use style="fill:#ff0000;stroke:#ff0000;" x="332.772871" xlink:href="#m6600786629" y="118.810595"/>
     <use style="fill:#ff0000;stroke:#ff0000;" x="333.612372" xlink:href="#m6600786629" y="119.673944"/>
     <use style="fill:#ff0000;stroke:#ff0000;" x="334.451763" xlink:href="#m6600786629" y="122.849943"/>
     <use style="fill:#ff0000;stroke:#ff0000;" x="335.332277" xlink:href="#m6600786629" y="123.717959"/>
     <use style="fill:#ff0000;stroke:#ff0000;" x="336.211688" xlink:href="#m6600786629" y="126.951173"/>
     <use style="fill:#ff0000;stroke:#ff0000;" x="337.137066" xlink:href="#m6600786629" y="130.235194"/>
     <use style="fill:#ff0000;stroke:#ff0000;" x="338.113708" xlink:href="#m6600786629" y="131.111562"/>
     <use style="fill:#ff0000;stroke:#ff0000;" x="339.086356" xlink:href="#m6600786629" y="134.454373"/>
     <use style="fill:#ff0000;stroke:#ff0000;" x="340.116795" xlink:href="#m6600786629" y="137.849194"/>
     <use style="fill:#ff0000;stroke:#ff0000;" x="341.212404" xlink:href="#m6600786629" y="141.296445"/>
     <use style="fill:#ff0000;stroke:#ff0000;" x="342.381893" xlink:href="#m6600786629" y="144.796373"/>
     <use style="fill:#ff0000;stroke:#ff0000;" x="343.635578" xlink:href="#m6600786629" y="148.34896"/>
     <use style="fill:#ff0000;stroke:#ff0000;" x="344.9857" xlink:href="#m6600786629" y="154.721513"/>
     <use style="fill:#ff0000;stroke:#ff0000;" x="346.61491" xlink:href="#m6600786629" y="158.414225"/>
     <use style="fill:#ff0000;stroke:#ff0000;" x="348.3917" xlink:href="#m6600786629" y="165.084381"/>
     <use style="fill:#ff0000;stroke:#ff0000;" x="350.652502" xlink:href="#m6600786629" y="171.915194"/>
     <use style="fill:#ff0000;stroke:#ff0000;" x="353.699947" xlink:href="#m6600786629" y="185.291354"/>
     <use style="fill:#ff0000;stroke:#ff0000;" x="356.585744" xlink:href="#m6600786629" y="194.813325"/>
     <use style="fill:#ff0000;stroke:#ff0000;" x="358.22848" xlink:href="#m6600786629" y="200.963015"/>
     <use style="fill:#ff0000;stroke:#ff0000;" x="359.462339" xlink:href="#m6600786629" y="203.582918"/>
     <use style="fill:#ff0000;stroke:#ff0000;" x="360.564263" xlink:href="#m6600786629" y="206.242895"/>
     <use style="fill:#ff0000;stroke:#ff0000;" x="361.555629" xlink:href="#m6600786629" y="208.947372"/>
     <use style="fill:#ff0000;stroke:#ff0000;" x="362.453169" xlink:href="#m6600786629" y="211.699968"/>
     <use style="fill:#ff0000;stroke:#ff0000;" x="363.270215" xlink:href="#m6600786629" y="214.503801"/>
     <use style="fill:#ff0000;stroke:#ff0000;" x="364.017551" xlink:href="#m6600786629" y="217.361678"/>
     <use style="fill:#ff0000;stroke:#ff0000;" x="364.70402" xlink:href="#m6600786629" y="220.276215"/>
     <use style="fill:#ff0000;stroke:#ff0000;" x="365.336953" xlink:href="#m6600786629" y="223.249918"/>
     <use style="fill:#ff0000;stroke:#ff0000;" x="365.922494" xlink:href="#m6600786629" y="226.28524"/>
     <use style="fill:#ff0000;stroke:#ff0000;" x="366.465834" xlink:href="#m6600786629" y="229.38462"/>
     <use style="fill:#ff0000;stroke:#ff0000;" x="366.971402" xlink:href="#m6600786629" y="228.183645"/>
     <use style="fill:#ff0000;stroke:#ff0000;" x="367.484543" xlink:href="#m6600786629" y="231.336676"/>
     <use style="fill:#ff0000;stroke:#ff0000;" x="367.962468" xlink:href="#m6600786629" y="234.558354"/>
     <use style="fill:#ff0000;stroke:#ff0000;" x="368.408663" xlink:href="#m6600786629" y="233.328288"/>
     <use style="fill:#ff0000;stroke:#ff0000;" x="368.861039" xlink:href="#m6600786629" y="236.607599"/>
     <use style="fill:#ff0000;stroke:#ff0000;" x="369.283734" xlink:href="#m6600786629" y="235.362837"/>
     <use style="fill:#ff0000;stroke:#ff0000;" x="369.712146" xlink:href="#m6600786629" y="238.701694"/>
     <use style="fill:#ff0000;stroke:#ff0000;" x="370.112772" xlink:href="#m6600786629" y="242.116364"/>
     <use style="fill:#ff0000;stroke:#ff0000;" x="370.488179" xlink:href="#m6600786629" y="240.841336"/>
     <use style="fill:#ff0000;stroke:#ff0000;" x="370.868292" xlink:href="#m6600786629" y="229.598554"/>
     <use style="fill:#ff0000;stroke:#ff0000;" x="371.330981" xlink:href="#m6600786629" y="212.438637"/>
     <use style="fill:#ff0000;stroke:#ff0000;" x="372.032576" xlink:href="#m6600786629" y="194.195289"/>
     <use style="fill:#ff0000;stroke:#ff0000;" x="373.581818" xlink:href="#m6600786629" y="170.414784"/>
    </g>
   </g>
   <g id="patch_3">
    <path d="M 54 252 
L 54 34.56 
" style="fill:none;stroke:#000000;stroke-linecap:square;stroke-linejoin:miter;stroke-width:0.8;"/>
   </g>
   <g id="patch_4">
    <path d="M 388.8 252 
L 388.8 34.56 
" style="fill:none;stroke:#000000;stroke-linecap:square;stroke-linejoin:miter;stroke-width:0.8;"/>
   </g>
   <g id="patch_5">
    <path d="M 54 252 
L 388.8 252 
" style="fill:none;stroke:#000000;stroke-linecap:square;stroke-linejoin:miter;stroke-width:0.8;"/>
   </g>
   <g id="patch_6">
    <path d="M 54 34.56 
L 388.8 34.56 
" style="fill:none;stroke:#000000;stroke-linecap:square;stroke-linejoin:miter;stroke-width:0.8;"/>
   </g>
   <g id="text_20">
    <!-- $\lambda$ vs $x_1$ -->
    <g transform="translate(200.94 28.56)scale(0.12 -0.12)">
     <defs>
      <path id="DejaVuSans-32"/>
      <path d="M 2.984375 54.6875 
L 12.5 54.6875 
L 29.59375 8.796875 
L 46.6875 54.6875 
L 56.203125 54.6875 
L 35.6875 0 
L 23.484375 0 
z
" id="DejaVuSans-118"/>
      <path d="M 44.28125 53.078125 
L 44.28125 44.578125 
Q 40.484375 46.53125 36.375 47.5 
Q 32.28125 48.484375 27.875 48.484375 
Q 21.1875 48.484375 17.84375 46.4375 
Q 14.5 44.390625 14.5 40.28125 
Q 14.5 37.15625 16.890625 35.375 
Q 19.28125 33.59375 26.515625 31.984375 
L 29.59375 31.296875 
Q 39.15625 29.25 43.1875 25.515625 
Q 47.21875 21.78125 47.21875 15.09375 
Q 47.21875 7.46875 41.1875 3.015625 
Q 35.15625 -1.421875 24.609375 -1.421875 
Q 20.21875 -1.421875 15.453125 -0.5625 
Q 10.6875 0.296875 5.421875 2 
L 5.421875 11.28125 
Q 10.40625 8.6875 15.234375 7.390625 
Q 20.0625 6.109375 24.8125 6.109375 
Q 31.15625 6.109375 34.5625 8.28125 
Q 37.984375 10.453125 37.984375 14.40625 
Q 37.984375 18.0625 35.515625 20.015625 
Q 33.0625 21.96875 24.703125 23.78125 
L 21.578125 24.515625 
Q 13.234375 26.265625 9.515625 29.90625 
Q 5.8125 33.546875 5.8125 39.890625 
Q 5.8125 47.609375 11.28125 51.796875 
Q 16.75 56 26.8125 56 
Q 31.78125 56 36.171875 55.265625 
Q 40.578125 54.546875 44.28125 53.078125 
z
" id="DejaVuSans-115"/>
     </defs>
     <use transform="translate(0 0.015625)" xlink:href="#DejaVuSans-Oblique-955"/>
     <use transform="translate(59.179688 0.015625)" xlink:href="#DejaVuSans-32"/>
     <use transform="translate(90.966797 0.015625)" xlink:href="#DejaVuSans-118"/>
     <use transform="translate(150.146484 0.015625)" xlink:href="#DejaVuSans-115"/>
     <use transform="translate(202.246094 0.015625)" xlink:href="#DejaVuSans-32"/>
     <use transform="translate(234.033203 0.015625)" xlink:href="#DejaVuSans-Oblique-120"/>
     <use transform="translate(293.212891 -16.390625)scale(0.7)" xlink:href="#DejaVuSans-49"/>
    </g>
   </g>
  </g>
 </g>
 <defs>
  <clipPath id="p54252874a9">
   <rect height="217.44" width="334.8" x="54" y="34.56"/>
  </clipPath>
 </defs>
</svg>
