<?xml version="1.0" encoding="utf-8" standalone="no"?>
<!DOCTYPE svg PUBLIC "-//W3C//DTD SVG 1.1//EN"
  "http://www.w3.org/Graphics/SVG/1.1/DTD/svg11.dtd">
<!-- Created with matplotlib (https://matplotlib.org/) -->
<svg height="288pt" version="1.1" viewBox="0 0 432 288" width="432pt" xmlns="http://www.w3.org/2000/svg" xmlns:xlink="http://www.w3.org/1999/xlink">
 <defs>
  <style type="text/css">
*{stroke-linecap:butt;stroke-linejoin:round;}
  </style>
 </defs>
 <g id="figure_1">
  <g id="patch_1">
   <path d="M 0 288 
L 432 288 
L 432 0 
L 0 0 
z
" style="fill:#ffffff;"/>
  </g>
  <g id="axes_1">
   <g id="patch_2">
    <path d="M 54 252 
L 388.8 252 
L 388.8 34.56 
L 54 34.56 
z
" style="fill:#ffffff;"/>
   </g>
   <g id="matplotlib.axis_1">
    <g id="xtick_1">
     <g id="line2d_1">
      <path clip-path="url(#p4c42c6795e)" d="M 69.218182 252 
L 69.218182 34.56 
" style="fill:none;stroke:#b0b0b0;stroke-linecap:square;stroke-width:0.8;"/>
     </g>
     <g id="line2d_2">
      <defs>
       <path d="M 0 0 
L 0 3.5 
" id="m7164dc4c72" style="stroke:#000000;stroke-width:0.8;"/>
      </defs>
      <g>
       <use style="stroke:#000000;stroke-width:0.8;" x="69.218182" xlink:href="#m7164dc4c72" y="252"/>
      </g>
     </g>
     <g id="text_1">
      <!-- 0.0 -->
      <defs>
       <path d="M 31.78125 66.40625 
Q 24.171875 66.40625 20.328125 58.90625 
Q 16.5 51.421875 16.5 36.375 
Q 16.5 21.390625 20.328125 13.890625 
Q 24.171875 6.390625 31.78125 6.390625 
Q 39.453125 6.390625 43.28125 13.890625 
Q 47.125 21.390625 47.125 36.375 
Q 47.125 51.421875 43.28125 58.90625 
Q 39.453125 66.40625 31.78125 66.40625 
z
M 31.78125 74.21875 
Q 44.046875 74.21875 50.515625 64.515625 
Q 56.984375 54.828125 56.984375 36.375 
Q 56.984375 17.96875 50.515625 8.265625 
Q 44.046875 -1.421875 31.78125 -1.421875 
Q 19.53125 -1.421875 13.0625 8.265625 
Q 6.59375 17.96875 6.59375 36.375 
Q 6.59375 54.828125 13.0625 64.515625 
Q 19.53125 74.21875 31.78125 74.21875 
z
" id="DejaVuSans-48"/>
       <path d="M 10.6875 12.40625 
L 21 12.40625 
L 21 0 
L 10.6875 0 
z
" id="DejaVuSans-46"/>
      </defs>
      <g transform="translate(61.266619 266.598437)scale(0.1 -0.1)">
       <use xlink:href="#DejaVuSans-48"/>
       <use x="63.623047" xlink:href="#DejaVuSans-46"/>
       <use x="95.410156" xlink:href="#DejaVuSans-48"/>
      </g>
     </g>
    </g>
    <g id="xtick_2">
     <g id="line2d_3">
      <path clip-path="url(#p4c42c6795e)" d="M 99.654545 252 
L 99.654545 34.56 
" style="fill:none;stroke:#b0b0b0;stroke-linecap:square;stroke-width:0.8;"/>
     </g>
     <g id="line2d_4">
      <g>
       <use style="stroke:#000000;stroke-width:0.8;" x="99.654545" xlink:href="#m7164dc4c72" y="252"/>
      </g>
     </g>
     <g id="text_2">
      <!-- 0.1 -->
      <defs>
       <path d="M 12.40625 8.296875 
L 28.515625 8.296875 
L 28.515625 63.921875 
L 10.984375 60.40625 
L 10.984375 69.390625 
L 28.421875 72.90625 
L 38.28125 72.90625 
L 38.28125 8.296875 
L 54.390625 8.296875 
L 54.390625 0 
L 12.40625 0 
z
" id="DejaVuSans-49"/>
      </defs>
      <g transform="translate(91.702983 266.598437)scale(0.1 -0.1)">
       <use xlink:href="#DejaVuSans-48"/>
       <use x="63.623047" xlink:href="#DejaVuSans-46"/>
       <use x="95.410156" xlink:href="#DejaVuSans-49"/>
      </g>
     </g>
    </g>
    <g id="xtick_3">
     <g id="line2d_5">
      <path clip-path="url(#p4c42c6795e)" d="M 130.090909 252 
L 130.090909 34.56 
" style="fill:none;stroke:#b0b0b0;stroke-linecap:square;stroke-width:0.8;"/>
     </g>
     <g id="line2d_6">
      <g>
       <use style="stroke:#000000;stroke-width:0.8;" x="130.090909" xlink:href="#m7164dc4c72" y="252"/>
      </g>
     </g>
     <g id="text_3">
      <!-- 0.2 -->
      <defs>
       <path d="M 19.1875 8.296875 
L 53.609375 8.296875 
L 53.609375 0 
L 7.328125 0 
L 7.328125 8.296875 
Q 12.9375 14.109375 22.625 23.890625 
Q 32.328125 33.6875 34.8125 36.53125 
Q 39.546875 41.84375 41.421875 45.53125 
Q 43.3125 49.21875 43.3125 52.78125 
Q 43.3125 58.59375 39.234375 62.25 
Q 35.15625 65.921875 28.609375 65.921875 
Q 23.96875 65.921875 18.8125 64.3125 
Q 13.671875 62.703125 7.8125 59.421875 
L 7.8125 69.390625 
Q 13.765625 71.78125 18.9375 73 
Q 24.125 74.21875 28.421875 74.21875 
Q 39.75 74.21875 46.484375 68.546875 
Q 53.21875 62.890625 53.21875 53.421875 
Q 53.21875 48.921875 51.53125 44.890625 
Q 49.859375 40.875 45.40625 35.40625 
Q 44.1875 33.984375 37.640625 27.21875 
Q 31.109375 20.453125 19.1875 8.296875 
z
" id="DejaVuSans-50"/>
      </defs>
      <g transform="translate(122.139347 266.598437)scale(0.1 -0.1)">
       <use xlink:href="#DejaVuSans-48"/>
       <use x="63.623047" xlink:href="#DejaVuSans-46"/>
       <use x="95.410156" xlink:href="#DejaVuSans-50"/>
      </g>
     </g>
    </g>
    <g id="xtick_4">
     <g id="line2d_7">
      <path clip-path="url(#p4c42c6795e)" d="M 160.527273 252 
L 160.527273 34.56 
" style="fill:none;stroke:#b0b0b0;stroke-linecap:square;stroke-width:0.8;"/>
     </g>
     <g id="line2d_8">
      <g>
       <use style="stroke:#000000;stroke-width:0.8;" x="160.527273" xlink:href="#m7164dc4c72" y="252"/>
      </g>
     </g>
     <g id="text_4">
      <!-- 0.3 -->
      <defs>
       <path d="M 40.578125 39.3125 
Q 47.65625 37.796875 51.625 33 
Q 55.609375 28.21875 55.609375 21.1875 
Q 55.609375 10.40625 48.1875 4.484375 
Q 40.765625 -1.421875 27.09375 -1.421875 
Q 22.515625 -1.421875 17.65625 -0.515625 
Q 12.796875 0.390625 7.625 2.203125 
L 7.625 11.71875 
Q 11.71875 9.328125 16.59375 8.109375 
Q 21.484375 6.890625 26.8125 6.890625 
Q 36.078125 6.890625 40.9375 10.546875 
Q 45.796875 14.203125 45.796875 21.1875 
Q 45.796875 27.640625 41.28125 31.265625 
Q 36.765625 34.90625 28.71875 34.90625 
L 20.21875 34.90625 
L 20.21875 43.015625 
L 29.109375 43.015625 
Q 36.375 43.015625 40.234375 45.921875 
Q 44.09375 48.828125 44.09375 54.296875 
Q 44.09375 59.90625 40.109375 62.90625 
Q 36.140625 65.921875 28.71875 65.921875 
Q 24.65625 65.921875 20.015625 65.03125 
Q 15.375 64.15625 9.8125 62.3125 
L 9.8125 71.09375 
Q 15.4375 72.65625 20.34375 73.4375 
Q 25.25 74.21875 29.59375 74.21875 
Q 40.828125 74.21875 47.359375 69.109375 
Q 53.90625 64.015625 53.90625 55.328125 
Q 53.90625 49.265625 50.4375 45.09375 
Q 46.96875 40.921875 40.578125 39.3125 
z
" id="DejaVuSans-51"/>
      </defs>
      <g transform="translate(152.57571 266.598437)scale(0.1 -0.1)">
       <use xlink:href="#DejaVuSans-48"/>
       <use x="63.623047" xlink:href="#DejaVuSans-46"/>
       <use x="95.410156" xlink:href="#DejaVuSans-51"/>
      </g>
     </g>
    </g>
    <g id="xtick_5">
     <g id="line2d_9">
      <path clip-path="url(#p4c42c6795e)" d="M 190.963636 252 
L 190.963636 34.56 
" style="fill:none;stroke:#b0b0b0;stroke-linecap:square;stroke-width:0.8;"/>
     </g>
     <g id="line2d_10">
      <g>
       <use style="stroke:#000000;stroke-width:0.8;" x="190.963636" xlink:href="#m7164dc4c72" y="252"/>
      </g>
     </g>
     <g id="text_5">
      <!-- 0.4 -->
      <defs>
       <path d="M 37.796875 64.3125 
L 12.890625 25.390625 
L 37.796875 25.390625 
z
M 35.203125 72.90625 
L 47.609375 72.90625 
L 47.609375 25.390625 
L 58.015625 25.390625 
L 58.015625 17.1875 
L 47.609375 17.1875 
L 47.609375 0 
L 37.796875 0 
L 37.796875 17.1875 
L 4.890625 17.1875 
L 4.890625 26.703125 
z
" id="DejaVuSans-52"/>
      </defs>
      <g transform="translate(183.012074 266.598437)scale(0.1 -0.1)">
       <use xlink:href="#DejaVuSans-48"/>
       <use x="63.623047" xlink:href="#DejaVuSans-46"/>
       <use x="95.410156" xlink:href="#DejaVuSans-52"/>
      </g>
     </g>
    </g>
    <g id="xtick_6">
     <g id="line2d_11">
      <path clip-path="url(#p4c42c6795e)" d="M 221.4 252 
L 221.4 34.56 
" style="fill:none;stroke:#b0b0b0;stroke-linecap:square;stroke-width:0.8;"/>
     </g>
     <g id="line2d_12">
      <g>
       <use style="stroke:#000000;stroke-width:0.8;" x="221.4" xlink:href="#m7164dc4c72" y="252"/>
      </g>
     </g>
     <g id="text_6">
      <!-- 0.5 -->
      <defs>
       <path d="M 10.796875 72.90625 
L 49.515625 72.90625 
L 49.515625 64.59375 
L 19.828125 64.59375 
L 19.828125 46.734375 
Q 21.96875 47.46875 24.109375 47.828125 
Q 26.265625 48.1875 28.421875 48.1875 
Q 40.625 48.1875 47.75 41.5 
Q 54.890625 34.8125 54.890625 23.390625 
Q 54.890625 11.625 47.5625 5.09375 
Q 40.234375 -1.421875 26.90625 -1.421875 
Q 22.3125 -1.421875 17.546875 -0.640625 
Q 12.796875 0.140625 7.71875 1.703125 
L 7.71875 11.625 
Q 12.109375 9.234375 16.796875 8.0625 
Q 21.484375 6.890625 26.703125 6.890625 
Q 35.15625 6.890625 40.078125 11.328125 
Q 45.015625 15.765625 45.015625 23.390625 
Q 45.015625 31 40.078125 35.4375 
Q 35.15625 39.890625 26.703125 39.890625 
Q 22.75 39.890625 18.8125 39.015625 
Q 14.890625 38.140625 10.796875 36.28125 
z
" id="DejaVuSans-53"/>
      </defs>
      <g transform="translate(213.448438 266.598437)scale(0.1 -0.1)">
       <use xlink:href="#DejaVuSans-48"/>
       <use x="63.623047" xlink:href="#DejaVuSans-46"/>
       <use x="95.410156" xlink:href="#DejaVuSans-53"/>
      </g>
     </g>
    </g>
    <g id="xtick_7">
     <g id="line2d_13">
      <path clip-path="url(#p4c42c6795e)" d="M 251.836364 252 
L 251.836364 34.56 
" style="fill:none;stroke:#b0b0b0;stroke-linecap:square;stroke-width:0.8;"/>
     </g>
     <g id="line2d_14">
      <g>
       <use style="stroke:#000000;stroke-width:0.8;" x="251.836364" xlink:href="#m7164dc4c72" y="252"/>
      </g>
     </g>
     <g id="text_7">
      <!-- 0.6 -->
      <defs>
       <path d="M 33.015625 40.375 
Q 26.375 40.375 22.484375 35.828125 
Q 18.609375 31.296875 18.609375 23.390625 
Q 18.609375 15.53125 22.484375 10.953125 
Q 26.375 6.390625 33.015625 6.390625 
Q 39.65625 6.390625 43.53125 10.953125 
Q 47.40625 15.53125 47.40625 23.390625 
Q 47.40625 31.296875 43.53125 35.828125 
Q 39.65625 40.375 33.015625 40.375 
z
M 52.59375 71.296875 
L 52.59375 62.3125 
Q 48.875 64.0625 45.09375 64.984375 
Q 41.3125 65.921875 37.59375 65.921875 
Q 27.828125 65.921875 22.671875 59.328125 
Q 17.53125 52.734375 16.796875 39.40625 
Q 19.671875 43.65625 24.015625 45.921875 
Q 28.375 48.1875 33.59375 48.1875 
Q 44.578125 48.1875 50.953125 41.515625 
Q 57.328125 34.859375 57.328125 23.390625 
Q 57.328125 12.15625 50.6875 5.359375 
Q 44.046875 -1.421875 33.015625 -1.421875 
Q 20.359375 -1.421875 13.671875 8.265625 
Q 6.984375 17.96875 6.984375 36.375 
Q 6.984375 53.65625 15.1875 63.9375 
Q 23.390625 74.21875 37.203125 74.21875 
Q 40.921875 74.21875 44.703125 73.484375 
Q 48.484375 72.75 52.59375 71.296875 
z
" id="DejaVuSans-54"/>
      </defs>
      <g transform="translate(243.884801 266.598437)scale(0.1 -0.1)">
       <use xlink:href="#DejaVuSans-48"/>
       <use x="63.623047" xlink:href="#DejaVuSans-46"/>
       <use x="95.410156" xlink:href="#DejaVuSans-54"/>
      </g>
     </g>
    </g>
    <g id="xtick_8">
     <g id="line2d_15">
      <path clip-path="url(#p4c42c6795e)" d="M 282.272727 252 
L 282.272727 34.56 
" style="fill:none;stroke:#b0b0b0;stroke-linecap:square;stroke-width:0.8;"/>
     </g>
     <g id="line2d_16">
      <g>
       <use style="stroke:#000000;stroke-width:0.8;" x="282.272727" xlink:href="#m7164dc4c72" y="252"/>
      </g>
     </g>
     <g id="text_8">
      <!-- 0.7 -->
      <defs>
       <path d="M 8.203125 72.90625 
L 55.078125 72.90625 
L 55.078125 68.703125 
L 28.609375 0 
L 18.3125 0 
L 43.21875 64.59375 
L 8.203125 64.59375 
z
" id="DejaVuSans-55"/>
      </defs>
      <g transform="translate(274.321165 266.598437)scale(0.1 -0.1)">
       <use xlink:href="#DejaVuSans-48"/>
       <use x="63.623047" xlink:href="#DejaVuSans-46"/>
       <use x="95.410156" xlink:href="#DejaVuSans-55"/>
      </g>
     </g>
    </g>
    <g id="xtick_9">
     <g id="line2d_17">
      <path clip-path="url(#p4c42c6795e)" d="M 312.709091 252 
L 312.709091 34.56 
" style="fill:none;stroke:#b0b0b0;stroke-linecap:square;stroke-width:0.8;"/>
     </g>
     <g id="line2d_18">
      <g>
       <use style="stroke:#000000;stroke-width:0.8;" x="312.709091" xlink:href="#m7164dc4c72" y="252"/>
      </g>
     </g>
     <g id="text_9">
      <!-- 0.8 -->
      <defs>
       <path d="M 31.78125 34.625 
Q 24.75 34.625 20.71875 30.859375 
Q 16.703125 27.09375 16.703125 20.515625 
Q 16.703125 13.921875 20.71875 10.15625 
Q 24.75 6.390625 31.78125 6.390625 
Q 38.8125 6.390625 42.859375 10.171875 
Q 46.921875 13.96875 46.921875 20.515625 
Q 46.921875 27.09375 42.890625 30.859375 
Q 38.875 34.625 31.78125 34.625 
z
M 21.921875 38.8125 
Q 15.578125 40.375 12.03125 44.71875 
Q 8.5 49.078125 8.5 55.328125 
Q 8.5 64.0625 14.71875 69.140625 
Q 20.953125 74.21875 31.78125 74.21875 
Q 42.671875 74.21875 48.875 69.140625 
Q 55.078125 64.0625 55.078125 55.328125 
Q 55.078125 49.078125 51.53125 44.71875 
Q 48 40.375 41.703125 38.8125 
Q 48.828125 37.15625 52.796875 32.3125 
Q 56.78125 27.484375 56.78125 20.515625 
Q 56.78125 9.90625 50.3125 4.234375 
Q 43.84375 -1.421875 31.78125 -1.421875 
Q 19.734375 -1.421875 13.25 4.234375 
Q 6.78125 9.90625 6.78125 20.515625 
Q 6.78125 27.484375 10.78125 32.3125 
Q 14.796875 37.15625 21.921875 38.8125 
z
M 18.3125 54.390625 
Q 18.3125 48.734375 21.84375 45.5625 
Q 25.390625 42.390625 31.78125 42.390625 
Q 38.140625 42.390625 41.71875 45.5625 
Q 45.3125 48.734375 45.3125 54.390625 
Q 45.3125 60.0625 41.71875 63.234375 
Q 38.140625 66.40625 31.78125 66.40625 
Q 25.390625 66.40625 21.84375 63.234375 
Q 18.3125 60.0625 18.3125 54.390625 
z
" id="DejaVuSans-56"/>
      </defs>
      <g transform="translate(304.757528 266.598437)scale(0.1 -0.1)">
       <use xlink:href="#DejaVuSans-48"/>
       <use x="63.623047" xlink:href="#DejaVuSans-46"/>
       <use x="95.410156" xlink:href="#DejaVuSans-56"/>
      </g>
     </g>
    </g>
    <g id="xtick_10">
     <g id="line2d_19">
      <path clip-path="url(#p4c42c6795e)" d="M 343.145455 252 
L 343.145455 34.56 
" style="fill:none;stroke:#b0b0b0;stroke-linecap:square;stroke-width:0.8;"/>
     </g>
     <g id="line2d_20">
      <g>
       <use style="stroke:#000000;stroke-width:0.8;" x="343.145455" xlink:href="#m7164dc4c72" y="252"/>
      </g>
     </g>
     <g id="text_10">
      <!-- 0.9 -->
      <defs>
       <path d="M 10.984375 1.515625 
L 10.984375 10.5 
Q 14.703125 8.734375 18.5 7.8125 
Q 22.3125 6.890625 25.984375 6.890625 
Q 35.75 6.890625 40.890625 13.453125 
Q 46.046875 20.015625 46.78125 33.40625 
Q 43.953125 29.203125 39.59375 26.953125 
Q 35.25 24.703125 29.984375 24.703125 
Q 19.046875 24.703125 12.671875 31.3125 
Q 6.296875 37.9375 6.296875 49.421875 
Q 6.296875 60.640625 12.9375 67.421875 
Q 19.578125 74.21875 30.609375 74.21875 
Q 43.265625 74.21875 49.921875 64.515625 
Q 56.59375 54.828125 56.59375 36.375 
Q 56.59375 19.140625 48.40625 8.859375 
Q 40.234375 -1.421875 26.421875 -1.421875 
Q 22.703125 -1.421875 18.890625 -0.6875 
Q 15.09375 0.046875 10.984375 1.515625 
z
M 30.609375 32.421875 
Q 37.25 32.421875 41.125 36.953125 
Q 45.015625 41.5 45.015625 49.421875 
Q 45.015625 57.28125 41.125 61.84375 
Q 37.25 66.40625 30.609375 66.40625 
Q 23.96875 66.40625 20.09375 61.84375 
Q 16.21875 57.28125 16.21875 49.421875 
Q 16.21875 41.5 20.09375 36.953125 
Q 23.96875 32.421875 30.609375 32.421875 
z
" id="DejaVuSans-57"/>
      </defs>
      <g transform="translate(335.193892 266.598437)scale(0.1 -0.1)">
       <use xlink:href="#DejaVuSans-48"/>
       <use x="63.623047" xlink:href="#DejaVuSans-46"/>
       <use x="95.410156" xlink:href="#DejaVuSans-57"/>
      </g>
     </g>
    </g>
    <g id="xtick_11">
     <g id="line2d_21">
      <path clip-path="url(#p4c42c6795e)" d="M 373.581818 252 
L 373.581818 34.56 
" style="fill:none;stroke:#b0b0b0;stroke-linecap:square;stroke-width:0.8;"/>
     </g>
     <g id="line2d_22">
      <g>
       <use style="stroke:#000000;stroke-width:0.8;" x="373.581818" xlink:href="#m7164dc4c72" y="252"/>
      </g>
     </g>
     <g id="text_11">
      <!-- 1.0 -->
      <g transform="translate(365.630256 266.598437)scale(0.1 -0.1)">
       <use xlink:href="#DejaVuSans-49"/>
       <use x="63.623047" xlink:href="#DejaVuSans-46"/>
       <use x="95.410156" xlink:href="#DejaVuSans-48"/>
      </g>
     </g>
    </g>
    <g id="text_12">
     <!-- $x_1$ -->
     <defs>
      <path d="M 60.015625 54.6875 
L 34.90625 27.875 
L 50.296875 0 
L 39.984375 0 
L 28.421875 21.6875 
L 8.296875 0 
L -2.59375 0 
L 24.3125 28.8125 
L 10.015625 54.6875 
L 20.3125 54.6875 
L 30.8125 34.90625 
L 49.125 54.6875 
z
" id="DejaVuSans-Oblique-120"/>
     </defs>
     <g transform="translate(216.05 280.276563)scale(0.1 -0.1)">
      <use transform="translate(0 0.3125)" xlink:href="#DejaVuSans-Oblique-120"/>
      <use transform="translate(59.179688 -16.09375)scale(0.7)" xlink:href="#DejaVuSans-49"/>
     </g>
    </g>
   </g>
   <g id="matplotlib.axis_2">
    <g id="ytick_1">
     <g id="line2d_23">
      <path clip-path="url(#p4c42c6795e)" d="M 54 242.116364 
L 388.8 242.116364 
" style="fill:none;stroke:#b0b0b0;stroke-linecap:square;stroke-width:0.8;"/>
     </g>
     <g id="line2d_24">
      <defs>
       <path d="M 0 0 
L -3.5 0 
" id="m03753f3a06" style="stroke:#000000;stroke-width:0.8;"/>
      </defs>
      <g>
       <use style="stroke:#000000;stroke-width:0.8;" x="54" xlink:href="#m03753f3a06" y="242.116364"/>
      </g>
     </g>
     <g id="text_13">
      <!-- 0 -->
      <g transform="translate(40.6375 245.915582)scale(0.1 -0.1)">
       <use xlink:href="#DejaVuSans-48"/>
      </g>
     </g>
    </g>
    <g id="ytick_2">
     <g id="line2d_25">
      <path clip-path="url(#p4c42c6795e)" d="M 54 206.1631 
L 388.8 206.1631 
" style="fill:none;stroke:#b0b0b0;stroke-linecap:square;stroke-width:0.8;"/>
     </g>
     <g id="line2d_26">
      <g>
       <use style="stroke:#000000;stroke-width:0.8;" x="54" xlink:href="#m03753f3a06" y="206.1631"/>
      </g>
     </g>
     <g id="text_14">
      <!-- 2 -->
      <g transform="translate(40.6375 209.962319)scale(0.1 -0.1)">
       <use xlink:href="#DejaVuSans-50"/>
      </g>
     </g>
    </g>
    <g id="ytick_3">
     <g id="line2d_27">
      <path clip-path="url(#p4c42c6795e)" d="M 54 170.209837 
L 388.8 170.209837 
" style="fill:none;stroke:#b0b0b0;stroke-linecap:square;stroke-width:0.8;"/>
     </g>
     <g id="line2d_28">
      <g>
       <use style="stroke:#000000;stroke-width:0.8;" x="54" xlink:href="#m03753f3a06" y="170.209837"/>
      </g>
     </g>
     <g id="text_15">
      <!-- 4 -->
      <g transform="translate(40.6375 174.009056)scale(0.1 -0.1)">
       <use xlink:href="#DejaVuSans-52"/>
      </g>
     </g>
    </g>
    <g id="ytick_4">
     <g id="line2d_29">
      <path clip-path="url(#p4c42c6795e)" d="M 54 134.256574 
L 388.8 134.256574 
" style="fill:none;stroke:#b0b0b0;stroke-linecap:square;stroke-width:0.8;"/>
     </g>
     <g id="line2d_30">
      <g>
       <use style="stroke:#000000;stroke-width:0.8;" x="54" xlink:href="#m03753f3a06" y="134.256574"/>
      </g>
     </g>
     <g id="text_16">
      <!-- 6 -->
      <g transform="translate(40.6375 138.055792)scale(0.1 -0.1)">
       <use xlink:href="#DejaVuSans-54"/>
      </g>
     </g>
    </g>
    <g id="ytick_5">
     <g id="line2d_31">
      <path clip-path="url(#p4c42c6795e)" d="M 54 98.30331 
L 388.8 98.30331 
" style="fill:none;stroke:#b0b0b0;stroke-linecap:square;stroke-width:0.8;"/>
     </g>
     <g id="line2d_32">
      <g>
       <use style="stroke:#000000;stroke-width:0.8;" x="54" xlink:href="#m03753f3a06" y="98.30331"/>
      </g>
     </g>
     <g id="text_17">
      <!-- 8 -->
      <g transform="translate(40.6375 102.102529)scale(0.1 -0.1)">
       <use xlink:href="#DejaVuSans-56"/>
      </g>
     </g>
    </g>
    <g id="ytick_6">
     <g id="line2d_33">
      <path clip-path="url(#p4c42c6795e)" d="M 54 62.350047 
L 388.8 62.350047 
" style="fill:none;stroke:#b0b0b0;stroke-linecap:square;stroke-width:0.8;"/>
     </g>
     <g id="line2d_34">
      <g>
       <use style="stroke:#000000;stroke-width:0.8;" x="54" xlink:href="#m03753f3a06" y="62.350047"/>
      </g>
     </g>
     <g id="text_18">
      <!-- 10 -->
      <g transform="translate(34.275 66.149266)scale(0.1 -0.1)">
       <use xlink:href="#DejaVuSans-49"/>
       <use x="63.623047" xlink:href="#DejaVuSans-48"/>
      </g>
     </g>
    </g>
    <g id="text_19">
     <!-- $x_2$ -->
     <g transform="translate(28.195312 148.63)rotate(-90)scale(0.1 -0.1)">
      <use transform="translate(0 0.3125)" xlink:href="#DejaVuSans-Oblique-120"/>
      <use transform="translate(59.179688 -16.09375)scale(0.7)" xlink:href="#DejaVuSans-50"/>
     </g>
    </g>
   </g>
   <g id="line2d_35">
    <path clip-path="url(#p4c42c6795e)" d="M 69.218182 242.116364 
L 75.429685 242.116364 
L 81.641187 242.116364 
L 87.85269 242.116364 
L 94.064193 242.116364 
L 100.275696 242.116364 
L 106.487199 242.116364 
L 112.698701 242.116364 
L 118.910204 242.116364 
L 125.121707 242.116364 
L 131.33321 242.116364 
L 137.544712 242.116364 
L 143.756215 242.116364 
L 149.967718 242.116364 
L 156.179221 242.116364 
L 162.390724 242.116364 
L 168.602226 242.116364 
L 174.813729 242.116364 
L 181.025232 242.116364 
L 187.236735 242.116364 
L 193.448237 242.116364 
L 199.65974 242.116364 
L 205.871243 242.116364 
L 212.082746 242.116364 
L 218.294249 242.116364 
L 224.505751 242.116364 
L 230.717254 242.116364 
L 236.928757 242.116364 
L 243.14026 242.116364 
L 249.351763 242.116364 
L 255.563265 242.116364 
L 261.774768 242.116364 
L 267.986271 242.116364 
L 274.197774 242.116364 
L 280.409276 242.116364 
L 286.620779 242.116364 
L 292.832282 242.116364 
L 299.043785 242.116364 
L 305.255288 242.116364 
L 311.46679 242.116364 
L 317.678293 242.116364 
L 323.889796 242.116364 
L 330.101299 242.116364 
L 336.312801 242.116364 
L 342.524304 242.116364 
L 348.735807 242.116364 
L 354.94731 242.116364 
L 361.158813 242.116364 
L 367.370315 242.116364 
L 373.581818 242.116364 
" style="fill:none;stroke:#006400;stroke-linecap:square;stroke-width:1.5;"/>
   </g>
   <g id="line2d_36">
    <path clip-path="url(#p4c42c6795e)" d="M 343.145447 170.209837 
L 342.665678 169.311456 
L 342.175368 168.413084 
L 341.674409 167.514746 
L 341.162746 166.616417 
L 340.640308 165.718113 
L 340.10702 164.819836 
L 339.562848 163.921583 
L 339.007755 163.023348 
L 338.441723 162.125139 
L 337.864733 161.226956 
L 337.276785 160.328789 
L 336.677899 159.430657 
L 336.068109 158.532551 
L 335.447488 157.634462 
L 334.816074 156.736407 
L 334.173956 155.838377 
L 333.521244 154.940374 
L 332.858045 154.042396 
L 332.184506 153.144444 
L 331.50079 152.246517 
L 330.80706 151.348617 
L 330.103515 150.45075 
L 329.390373 149.55291 
L 328.667852 148.655086 
L 327.936224 147.757297 
L 327.195725 146.859525 
L 326.446681 145.961787 
L 325.689364 145.064066 
L 324.92412 144.166371 
L 324.151257 143.268702 
L 323.371136 142.37105 
L 322.584122 141.473424 
L 321.790578 140.575815 
L 320.990901 139.678222 
L 320.185491 138.780656 
L 319.37473 137.883098 
L 318.559035 136.985558 
L 317.73884 136.088034 
L 316.895678 135.190579 
L 316.012913 134.293261 
L 315.085303 133.396106 
L 314.106352 132.499132 
L 313.067752 131.602397 
L 311.958726 130.705953 
L 310.764726 129.809896 
L 309.46556 128.914344 
L 308.031639 128.019512 
L 306.416811 127.12576 
L 304.542033 126.233774 
L 302.251671 125.345174 
L 299.154483 124.465154 
L 293.569935 123.629031 
" style="fill:none;stroke:#ffa500;stroke-linecap:square;stroke-width:1.5;"/>
   </g>
   <g id="line2d_37">
    <path clip-path="url(#p4c42c6795e)" d="M 343.145447 206.1631 
L 342.999735 207.06189 
L 342.857125 207.960682 
L 342.717653 208.859477 
L 342.581392 209.758273 
L 342.448361 210.65707 
L 342.318595 211.555868 
L 342.192148 212.454669 
L 342.069022 213.353472 
L 341.94927 214.252275 
L 341.832929 215.15108 
L 341.720034 216.049887 
L 341.610605 216.948696 
L 341.504677 217.847505 
L 341.402286 218.746317 
L 341.303433 219.645128 
L 341.208191 220.543942 
L 341.11654 221.442758 
L 341.028517 222.341575 
L 340.944177 223.240393 
L 340.863502 224.139211 
L 340.786528 225.038031 
L 340.713273 225.936852 
L 340.643773 226.835674 
L 340.578028 227.734498 
L 340.516057 228.633322 
L 340.457877 229.532147 
L 340.403507 230.430973 
L 340.352965 231.3298 
L 340.306268 232.228627 
L 340.2634 233.127455 
L 340.224414 234.026284 
L 340.189274 234.925113 
L 340.158034 235.823943 
L 340.130677 236.722773 
L 340.107202 237.621604 
L 340.087645 238.520434 
L 340.071989 239.419265 
L 340.060234 240.318097 
L 340.052396 241.216928 
L 340.048478 242.11576 
" style="fill:none;stroke:#ffa500;stroke-linecap:square;stroke-width:1.5;"/>
   </g>
   <g id="line2d_38">
    <path clip-path="url(#p4c42c6795e)" d="M 69.218182 187.343814 
L 75.920884 187.343814 
L 76.225553 185.873557 
L 76.530221 185.67606 
L 76.834889 185.67606 
L 77.139558 185.412731 
L 77.444226 185.412731 
L 77.748894 184.886071 
L 78.967567 184.886071 
L 79.272236 183.832753 
L 81.709583 183.832753 
L 82.014251 181.726117 
L 86.279607 181.726117 
L 86.584275 180.305234 
L 87.193611 179.795033 
L 87.498281 179.795033 
L 87.802949 179.268374 
L 88.412285 179.268374 
L 88.716953 178.215056 
L 90.544964 178.215056 
L 90.849632 176.108419 
L 93.896313 176.108419 
L 94.200984 174.57233 
L 94.505652 174.177336 
L 94.81032 174.177336 
L 95.114988 173.650677 
L 95.419656 173.650677 
L 95.724324 172.597358 
L 96.942997 172.597358 
L 97.247665 170.490722 
L 99.685012 170.490722 
L 99.98968 168.822968 
L 100.294349 168.559638 
L 100.599017 168.032979 
L 100.903685 168.032979 
L 101.208353 166.979661 
L 102.12236 166.979661 
L 102.427028 164.873024 
L 103.950368 164.873024 
L 104.255036 163.435684 
L 104.864373 162.415282 
L 105.169041 162.415282 
L 105.473711 161.361964 
L 105.778379 161.361964 
L 106.083047 159.255327 
L 107.606388 159.255327 
L 107.911056 157.587573 
L 108.520392 155.744266 
L 109.129729 155.744266 
L 109.434397 153.63763 
L 110.348401 153.63763 
L 110.653069 151.969876 
L 111.26241 150.126569 
L 111.567078 150.126569 
L 111.871746 148.019932 
L 118.574445 148.019932 
L 118.879118 146.483843 
L 119.183786 146.352178 
L 119.488454 146.352178 
L 119.793122 146.088849 
L 120.402458 146.088849 
L 120.707126 145.56219 
L 121.925799 145.56219 
L 122.230467 144.508871 
L 125.581816 144.508871 
L 125.886484 142.402235 
L 131.979851 142.402235 
L 132.28452 140.989581 
L 132.893856 140.734481 
L 133.198524 140.471151 
L 133.80786 140.471151 
L 134.112533 139.944492 
L 135.331205 139.944492 
L 135.635873 140.471151 
L 135.940542 140.734481 
L 136.24521 142.402235 
L 138.073218 142.402235 
L 138.377887 144.508871 
L 138.987223 144.508871 
L 139.291891 145.56219 
L 139.596559 145.56219 
L 139.901227 146.088849 
L 140.205895 146.352178 
L 140.510563 148.019932 
L 143.252581 148.019932 
L 143.557249 150.126569 
L 145.08059 150.126569 
L 145.385258 151.179887 
L 145.994594 151.179887 
L 146.299262 151.706546 
L 146.60393 151.706546 
L 147.213267 152.200289 
L 147.517935 153.63763 
L 152.087957 153.63763 
L 152.392625 155.744266 
L 155.439315 155.744266 
L 155.743983 156.797584 
L 157.571992 156.797584 
L 157.87666 157.324244 
L 158.790664 157.324244 
L 159.400001 157.719238 
L 159.704669 157.78507 
L 160.009337 159.255327 
L 170.368062 159.255327 
L 170.67273 161.361964 
L 178.289433 161.361964 
L 178.594101 162.415282 
L 185.601477 162.415282 
L 185.906146 162.941941 
L 205.100246 162.941941 
L 205.404914 162.415282 
L 213.630954 162.415282 
L 213.935631 161.361964 
L 223.685011 161.361964 
L 223.989679 159.255327 
L 236.785758 159.255327 
L 237.090426 157.834445 
L 238.004431 157.587573 
L 238.309099 157.587573 
L 238.613767 157.324244 
L 239.527771 157.324244 
L 239.83244 156.797584 
L 241.965116 156.797584 
L 242.269785 155.744266 
L 246.23047 155.744266 
L 246.535138 153.63763 
L 253.542505 153.63763 
L 253.847173 152.10154 
L 254.151841 151.969876 
L 254.456509 151.969876 
L 254.761178 151.706546 
L 255.065846 151.706546 
L 255.370514 151.179887 
L 256.589186 151.179887 
L 256.893854 150.126569 
L 259.635868 150.126569 
L 259.940536 148.019932 
L 264.815226 148.019932 
L 265.119894 146.549675 
L 266.033898 146.088849 
L 266.338566 145.56219 
L 267.252589 145.56219 
L 267.557257 144.508871 
L 269.385266 144.508871 
L 269.689934 142.402235 
L 273.650619 142.402235 
L 273.955288 140.866146 
L 274.259956 140.734481 
L 274.564624 140.471151 
L 274.869292 139.944492 
L 275.478628 139.944492 
L 275.783296 138.891174 
L 277.306637 138.891174 
L 277.611305 136.784537 
L 280.657986 136.784537 
L 280.962654 135.314281 
L 281.571991 134.853454 
L 281.876659 134.326795 
L 282.181327 134.326795 
L 282.485995 133.273477 
L 283.704667 133.273477 
L 284.009336 131.16684 
L 286.751349 131.16684 
L 287.056017 129.499086 
L 287.360685 129.235756 
L 287.665353 128.709097 
L 287.970021 128.709097 
L 288.274689 127.655779 
L 289.188694 127.655779 
L 289.493362 125.549143 
L 291.626039 125.549143 
L 291.930707 124.140604 
L 292.540043 123.0914 
L 292.844711 123.0914 
L 293.149379 122.038082 
L 294.063384 122.038082 
L 294.368052 119.931445 
L 296.19606 119.931445 
L 296.500729 118.263691 
L 296.805397 118.000362 
L 297.110065 117.473703 
L 297.414733 116.420384 
L 298.328756 116.420384 
L 298.633424 114.313748 
L 300.156764 114.313748 
L 300.461432 112.645994 
L 300.7661 111.856005 
L 301.070769 111.856005 
L 301.375437 110.802687 
L 301.984773 110.802687 
L 302.289441 108.69605 
L 303.508114 108.69605 
L 303.812782 107.225794 
L 304.422118 106.238308 
L 304.726786 105.18499 
L 305.336122 105.18499 
L 305.64079 103.078353 
L 306.859463 103.078353 
L 307.164131 101.147269 
L 307.468799 100.62061 
L 307.773467 99.567292 
L 308.078135 99.567292 
L 308.382804 97.460656 
L 309.601476 97.460656 
L 309.906144 95.792902 
L 310.51548 93.949595 
L 310.820149 93.949595 
L 311.124817 91.842958 
L 312.038821 91.842958 
L 312.648157 89.385216 
L 312.952825 88.331897 
L 313.257494 88.331897 
L 313.562162 86.225261 
L 314.476166 86.225261 
L 314.780834 84.557507 
L 315.39017 82.7142 
L 315.694839 82.7142 
L 315.999507 80.607563 
L 316.608843 80.607563 
L 316.913511 79.071474 
L 317.522847 77.096503 
L 317.827515 77.096503 
L 318.132183 74.989866 
L 318.74152 74.989866 
L 319.046188 73.058782 
L 319.350856 72.532123 
L 319.655524 71.478805 
L 319.960192 69.372169 
L 320.569528 69.372169 
L 321.178865 65.861108 
L 321.483533 65.861108 
L 321.788201 63.754471 
L 322.397537 63.754471 
L 322.702205 61.296729 
L 323.006873 60.24341 
L 323.311542 58.136774 
L 323.920878 58.136774 
L 324.834882 52.519076 
L 325.444218 52.519076 
L 326.358223 46.901379 
L 354.387708 46.901379 
L 354.692376 45.488726 
L 358.957748 45.233625 
L 360.481089 45.233625 
L 360.785757 44.970295 
L 366.269783 44.970295 
L 366.574451 44.443636 
L 373.27715 44.443636 
L 373.581818 242.105392 
L 373.581818 242.105392 
" style="fill:none;stroke:#006400;stroke-linecap:square;stroke-width:1.5;"/>
   </g>
   <g id="line2d_39">
    <path clip-path="url(#p4c42c6795e)" d="M 69.218182 242.116364 
L 71.953841 242.116364 
L 74.689501 242.116364 
L 77.425161 242.116364 
L 80.16082 242.116364 
L 82.896479 242.116364 
L 85.63214 242.116364 
L 88.3678 242.116364 
L 91.103459 242.116364 
L 93.839118 242.116364 
L 96.574777 242.116364 
L 99.310438 242.116364 
L 102.046097 242.116364 
L 104.781756 242.116364 
L 107.517418 242.116364 
L 110.253077 242.116364 
L 112.988736 242.116364 
L 115.724395 242.116364 
L 118.460054 242.116364 
L 121.195713 242.116364 
L 123.931372 242.116364 
L 126.667031 242.116364 
L 129.402695 242.116364 
L 132.138354 242.116364 
L 134.874013 242.116364 
L 137.609672 242.116364 
L 140.345331 242.116364 
L 143.08099 242.116364 
L 145.816653 242.116364 
L 148.552308 242.116364 
L 151.287972 242.116364 
L 154.023626 242.116364 
L 156.75929 242.116364 
L 159.494944 242.116364 
L 162.230608 242.116364 
L 164.966262 242.116364 
L 167.701926 242.116364 
L 170.437589 242.116364 
L 173.173244 242.116364 
L 175.908908 242.116364 
L 178.644562 242.116364 
L 181.380226 242.116364 
L 184.11588 242.116364 
L 186.851544 242.116364 
L 189.587207 242.116364 
L 192.322862 242.116364 
L 195.058525 242.116364 
L 197.79418 242.116364 
L 200.529844 242.116364 
L 203.265498 242.116364 
L 206.001162 242.116364 
L 208.736816 242.116364 
L 211.47248 242.116364 
L 214.208143 242.116364 
L 216.943798 242.116364 
L 219.679461 242.116364 
L 222.415125 242.116364 
L 225.15077 242.116364 
L 227.886434 242.116364 
L 230.622098 242.116364 
L 233.357761 242.116364 
L 236.093407 242.116364 
L 238.82907 242.116364 
L 241.564734 242.116364 
L 244.300397 242.116364 
L 247.036061 242.116364 
L 249.771706 242.116364 
L 252.50737 242.116364 
L 255.243034 242.116364 
L 257.978697 242.116364 
L 260.714343 242.116364 
L 263.450006 242.116364 
L 266.18567 242.116364 
L 268.921333 242.116364 
L 271.656997 242.116364 
L 274.392642 242.116364 
L 277.128306 242.116364 
L 279.86397 242.116364 
L 282.599633 242.116364 
L 285.335297 242.116364 
L 288.070942 242.116364 
L 290.806606 242.116364 
L 293.542269 242.116364 
L 296.277933 242.116364 
L 299.013578 242.116364 
L 301.749242 242.116364 
L 304.484906 242.116364 
L 307.220569 242.116364 
L 309.956233 242.116364 
L 312.691878 242.116364 
L 315.427542 242.116364 
L 318.163205 242.116364 
L 320.898869 242.116364 
L 323.634514 242.116364 
L 326.370178 242.116364 
L 329.105842 242.116364 
L 331.841505 242.116364 
L 334.577169 242.116364 
L 337.312814 242.116364 
L 340.048478 242.116364 
" style="fill:none;stroke:#ffa500;stroke-linecap:square;stroke-width:1.5;"/>
   </g>
   <g id="line2d_40">
    <path clip-path="url(#p4c42c6795e)" d="M 291.626039 125.549143 
L 291.930707 124.140604 
L 292.235375 123.618059 
L 292.540043 123.0914 
L 292.844711 123.0914 
L 293.149379 122.038082 
L 293.454047 122.038082 
L 293.569935 123.629031 
" style="fill:none;stroke:#ffa500;stroke-linecap:square;stroke-width:1.5;"/>
   </g>
   <g id="line2d_41">
    <path clip-path="url(#p4c42c6795e)" d="M 291.626039 125.728913 
L 291.455726 125.743828 
L 291.292671 125.759026 
L 291.136073 125.774464 
" style="fill:none;stroke:#ffa500;stroke-linecap:square;stroke-width:1.5;"/>
   </g>
   <g id="line2d_42">
    <path clip-path="url(#p4c42c6795e)" d="M 291.016702 125.774464 
L 290.57786 125.821816 
L 290.102698 125.549143 
L 289.79803 125.549143 
L 289.493362 125.549143 
L 289.188694 127.655779 
" style="fill:none;stroke:#ffa500;stroke-linecap:square;stroke-width:1.5;"/>
   </g>
   <g id="line2d_43">
    <path clip-path="url(#p4c42c6795e)" d="M 289.188694 127.83555 
L 289.117361 127.843496 
L 289.047118 127.851476 
L 288.977926 127.859491 
L 288.909732 127.86754 
" style="fill:none;stroke:#ffa500;stroke-linecap:square;stroke-width:1.5;"/>
   </g>
   <g id="line2d_44">
    <path clip-path="url(#p4c42c6795e)" d="M 288.884026 127.86754 
L 288.579357 127.655779 
L 288.274689 127.655779 
L 287.970021 128.709097 
L 287.665353 128.709097 
L 287.360685 129.235756 
L 287.056017 129.499086 
L 286.751349 131.16684 
" style="fill:none;stroke:#ffa500;stroke-linecap:square;stroke-width:1.5;"/>
   </g>
   <g id="line2d_45">
    <path clip-path="url(#p4c42c6795e)" d="M 286.751349 131.34661 
L 286.410035 131.376424 
L 286.0943 131.407197 
L 285.799338 131.43869 
" style="fill:none;stroke:#ffa500;stroke-linecap:square;stroke-width:1.5;"/>
   </g>
   <g id="line2d_46">
    <path clip-path="url(#p4c42c6795e)" d="M 285.532676 131.43869 
L 285.139459 131.487421 
L 284.618672 131.16684 
L 284.314004 131.16684 
L 284.009336 131.16684 
L 283.704667 133.273477 
" style="fill:none;stroke:#ffa500;stroke-linecap:square;stroke-width:1.5;"/>
   </g>
   <g id="line2d_47">
    <path clip-path="url(#p4c42c6795e)" d="M 283.704667 133.453247 
L 283.636764 133.461296 
L 283.569695 133.469379 
L 283.503442 133.47748 
L 283.437969 133.485597 
" style="fill:none;stroke:#ffa500;stroke-linecap:square;stroke-width:1.5;"/>
   </g>
   <g id="line2d_48">
    <path clip-path="url(#p4c42c6795e)" d="M 283.399999 133.485597 
L 283.095331 133.273477 
L 282.790663 133.273477 
L 282.485995 133.273477 
L 282.181327 134.326795 
L 281.876659 134.326795 
L 281.571991 134.853454 
L 281.267322 135.116783 
L 280.962654 135.314281 
L 280.657986 136.784537 
" style="fill:none;stroke:#ffa500;stroke-linecap:square;stroke-width:1.5;"/>
   </g>
   <g id="line2d_49">
    <path clip-path="url(#p4c42c6795e)" d="M 280.657986 136.964308 
L 280.340728 136.99503 
L 280.042155 137.026403 
L 279.75933 137.058282 
L 279.489965 137.090564 
" style="fill:none;stroke:#ffa500;stroke-linecap:square;stroke-width:1.5;"/>
   </g>
   <g id="line2d_50">
    <path clip-path="url(#p4c42c6795e)" d="M 279.439314 137.090564 
L 278.992652 137.147756 
L 278.525309 136.784537 
L 278.220641 136.784537 
L 277.915973 136.784537 
L 277.611305 136.784537 
L 277.306637 138.891174 
" style="fill:none;stroke:#ffa500;stroke-linecap:square;stroke-width:1.5;"/>
   </g>
   <g id="line2d_51">
    <path clip-path="url(#p4c42c6795e)" d="M 277.306637 139.070944 
L 277.173297 139.08712 
L 277.042715 139.103381 
L 276.91469 139.11971 
L 276.789097 139.1361 
" style="fill:none;stroke:#ffa500;stroke-linecap:square;stroke-width:1.5;"/>
   </g>
   <g id="line2d_52">
    <path clip-path="url(#p4c42c6795e)" d="M 276.697301 139.1361 
L 276.392632 138.891174 
L 276.087964 138.891174 
L 275.783296 138.891174 
L 275.478628 139.944492 
L 275.17396 139.944492 
L 274.869292 139.944492 
L 274.564624 140.471151 
L 274.259956 140.734481 
L 273.955288 140.866146 
L 273.650619 142.402235 
" style="fill:none;stroke:#ffa500;stroke-linecap:square;stroke-width:1.5;"/>
   </g>
   <g id="line2d_53">
    <path clip-path="url(#p4c42c6795e)" d="M 273.650619 142.582005 
L 273.171866 142.627985 
L 272.72905 142.675216 
L 272.314971 142.723339 
L 271.924475 142.772148 
" style="fill:none;stroke:#ffa500;stroke-linecap:square;stroke-width:1.5;"/>
   </g>
   <g id="line2d_54">
    <path clip-path="url(#p4c42c6795e)" d="M 271.822611 142.772148 
L 271.336165 142.838143 
L 270.908606 142.402235 
L 270.603938 142.402235 
L 270.29927 142.402235 
L 269.994602 142.402235 
L 269.689934 142.402235 
L 269.385266 144.508871 
" style="fill:none;stroke:#ffa500;stroke-linecap:square;stroke-width:1.5;"/>
   </g>
   <g id="line2d_55">
    <path clip-path="url(#p4c42c6795e)" d="M 269.385266 144.688642 
L 269.25501 144.704903 
L 269.126895 144.721232 
L 269.000757 144.737613 
L 268.876542 144.754046 
" style="fill:none;stroke:#ffa500;stroke-linecap:square;stroke-width:1.5;"/>
   </g>
   <g id="line2d_56">
    <path clip-path="url(#p4c42c6795e)" d="M 268.775929 144.754046 
L 268.474436 144.795354 
L 268.183066 144.836919 
L 267.861925 144.508871 
L 267.557257 144.508871 
L 267.252589 145.56219 
" style="fill:none;stroke:#ffa500;stroke-linecap:square;stroke-width:1.5;"/>
   </g>
   <g id="line2d_57">
    <path clip-path="url(#p4c42c6795e)" d="M 267.252589 145.74196 
L 267.191652 145.750206 
L 267.13115 145.758461 
L 267.071047 145.766724 
L 267.011325 145.775005 
L 266.952003 145.783294 
" style="fill:none;stroke:#ffa500;stroke-linecap:square;stroke-width:1.5;"/>
   </g>
   <g id="line2d_58">
    <path clip-path="url(#p4c42c6795e)" d="M 266.947903 145.783294 
L 266.535492 145.841369 
L 266.033898 146.088849 
L 265.72923 146.088849 
L 265.424562 146.352178 
L 265.119894 146.549675 
L 264.815226 148.019932 
" style="fill:none;stroke:#ffa500;stroke-linecap:square;stroke-width:1.5;"/>
   </g>
   <g id="line2d_59">
    <path clip-path="url(#p4c42c6795e)" d="M 264.815226 148.199703 
L 264.252313 148.253191 
L 263.729857 148.308095 
L 263.239801 148.364026 
L 262.776377 148.420755 
" style="fill:none;stroke:#ffa500;stroke-linecap:square;stroke-width:1.5;"/>
   </g>
   <g id="line2d_60">
    <path clip-path="url(#p4c42c6795e)" d="M 262.682549 148.420755 
L 261.439295 148.584839 
L 260.85454 148.019932 
L 260.549872 148.019932 
L 260.245204 148.019932 
L 259.940536 148.019932 
L 259.635868 150.126569 
" style="fill:none;stroke:#ffa500;stroke-linecap:square;stroke-width:1.5;"/>
   </g>
   <g id="line2d_61">
    <path clip-path="url(#p4c42c6795e)" d="M 259.635868 150.306339 
L 259.363165 150.338518 
L 259.097809 150.37092 
L 258.839148 150.403502 
L 258.586655 150.436255 
" style="fill:none;stroke:#ffa500;stroke-linecap:square;stroke-width:1.5;"/>
   </g>
   <g id="line2d_62">
    <path clip-path="url(#p4c42c6795e)" d="M 258.417195 150.436255 
L 258.054474 150.48581 
L 257.702638 150.53563 
L 257.360562 150.58569 
L 256.893854 150.126569 
L 256.589186 151.179887 
" style="fill:none;stroke:#ffa500;stroke-linecap:square;stroke-width:1.5;"/>
   </g>
   <g id="line2d_63">
    <path clip-path="url(#p4c42c6795e)" d="M 256.589186 151.359657 
L 256.527324 151.367878 
L 256.46577 151.376107 
L 256.404542 151.384345 
L 256.343605 151.392591 
" style="fill:none;stroke:#ffa500;stroke-linecap:square;stroke-width:1.5;"/>
   </g>
   <g id="line2d_64">
    <path clip-path="url(#p4c42c6795e)" d="M 256.284518 151.392591 
L 255.742469 151.466969 
L 255.370514 151.179887 
L 255.065846 151.706546 
L 254.761178 151.706546 
L 254.456509 151.969876 
L 254.151841 151.969876 
L 253.847173 152.10154 
L 253.542505 153.63763 
" style="fill:none;stroke:#ffa500;stroke-linecap:square;stroke-width:1.5;"/>
   </g>
   <g id="line2d_65">
    <path clip-path="url(#p4c42c6795e)" d="M 253.542505 153.8174 
L 251.771551 153.963594 
L 250.291968 154.120692 
" style="fill:none;stroke:#ffa500;stroke-linecap:square;stroke-width:1.5;"/>
   </g>
   <g id="line2d_66">
    <path clip-path="url(#p4c42c6795e)" d="M 250.191156 154.120692 
L 248.893822 154.28331 
L 248.363147 153.63763 
L 248.058479 153.63763 
L 247.753811 153.63763 
L 247.449143 153.63763 
L 247.144475 153.63763 
L 246.839806 153.63763 
L 246.535138 153.63763 
L 246.23047 155.744266 
" style="fill:none;stroke:#ffa500;stroke-linecap:square;stroke-width:1.5;"/>
   </g>
   <g id="line2d_67">
    <path clip-path="url(#p4c42c6795e)" d="M 246.23047 155.924037 
L 245.783555 155.971122 
L 245.350517 156.018662 
L 244.929798 156.066588 
L 244.520127 156.114848 
" style="fill:none;stroke:#ffa500;stroke-linecap:square;stroke-width:1.5;"/>
   </g>
   <g id="line2d_68">
    <path clip-path="url(#p4c42c6795e)" d="M 244.402461 156.114848 
L 243.875397 156.179746 
L 243.363499 156.245064 
L 242.865025 156.31075 
L 242.378452 156.376737 
" style="fill:none;stroke:#ffa500;stroke-linecap:square;stroke-width:1.5;"/>
   </g>
   <g id="line2d_69">
    <path clip-path="url(#p4c42c6795e)" d="M 241.965116 156.376737 
" style="fill:none;stroke:#ffa500;stroke-linecap:square;stroke-width:1.5;"/>
   </g>
   <g id="line2d_70">
    <path clip-path="url(#p4c42c6795e)" d="M 241.051112 156.376737 
L 240.746444 156.797584 
L 240.441776 156.797584 
L 240.137108 156.797584 
L 239.83244 156.797584 
L 239.527771 157.324244 
" style="fill:none;stroke:#ffa500;stroke-linecap:square;stroke-width:1.5;"/>
   </g>
   <g id="line2d_71">
    <path clip-path="url(#p4c42c6795e)" d="M 239.527771 157.504014 
L 239.461863 157.512123 
L 239.396137 157.520241 
L 239.330628 157.528358 
L 239.265282 157.536493 
" style="fill:none;stroke:#ffa500;stroke-linecap:square;stroke-width:1.5;"/>
   </g>
   <g id="line2d_72">
    <path clip-path="url(#p4c42c6795e)" d="M 239.223103 157.536493 
L 238.703713 157.601605 
L 238.195533 157.667026 
L 237.697368 157.732713 
L 237.090426 157.834445 
L 236.785758 159.255327 
" style="fill:none;stroke:#ffa500;stroke-linecap:square;stroke-width:1.5;"/>
   </g>
   <g id="line2d_73">
    <path clip-path="url(#p4c42c6795e)" d="M 236.785758 159.435097 
L 234.688711 159.565382 
L 232.866925 159.70939 
" style="fill:none;stroke:#ffa500;stroke-linecap:square;stroke-width:1.5;"/>
   </g>
   <g id="line2d_74">
    <path clip-path="url(#p4c42c6795e)" d="M 231.301714 159.70939 
L 229.833451 159.866857 
L 228.429989 160.026372 
L 227.074167 160.187318 
L 225.753612 160.349276 
L 225.208352 159.255327 
L 224.903683 159.255327 
L 224.599015 159.255327 
L 224.294347 159.255327 
L 223.989679 159.255327 
L 223.685011 161.361964 
" style="fill:none;stroke:#ffa500;stroke-linecap:square;stroke-width:1.5;"/>
   </g>
   <g id="line2d_75">
    <path clip-path="url(#p4c42c6795e)" d="M 223.685011 161.541734 
L 221.866508 161.685879 
L 220.130676 161.833548 
" style="fill:none;stroke:#ffa500;stroke-linecap:square;stroke-width:1.5;"/>
   </g>
   <g id="line2d_76">
    <path clip-path="url(#p4c42c6795e)" d="M 219.724325 161.833548 
L 218.078539 161.984765 
L 216.461189 162.137054 
L 214.859042 162.289892 
" style="fill:none;stroke:#ffa500;stroke-linecap:square;stroke-width:1.5;"/>
   </g>
   <g id="line2d_77">
    <path clip-path="url(#p4c42c6795e)" d="M 213.630954 162.289892 
L 212.106162 162.445472 
L 210.564308 162.60047 
" style="fill:none;stroke:#ffa500;stroke-linecap:square;stroke-width:1.5;"/>
   </g>
   <g id="line2d_78">
    <path clip-path="url(#p4c42c6795e)" d="M 210.279604 162.60047 
L 208.726448 162.755064 
L 207.138542 162.908433 
L 205.507196 163.060191 
" style="fill:none;stroke:#ffa500;stroke-linecap:square;stroke-width:1.5;"/>
   </g>
   <g id="line2d_79">
    <path clip-path="url(#p4c42c6795e)" d="M 205.100246 163.060191 
L 203.428935 163.210431 
L 201.689701 163.357954 
L 199.868314 163.501979 
L 197.947176 163.64141 
L 195.904218 163.774669 
L 193.711828 163.899356 
L 191.336645 164.011769 
L 188.743719 164.105906 
L 185.915198 164.172287 
L 182.902432 164.197831 
L 179.891009 164.171747 
L 177.12328 164.096956 
L 174.702444 163.987999 
L 172.597742 163.858143 
L 170.746049 163.715472 
L 169.092879 163.564537 
L 167.597431 163.407962 
L 166.22979 163.247367 
L 164.967777 163.083781 
L 163.794612 162.917905 
L 162.697325 162.75023 
L 161.665691 162.581106 
" style="fill:none;stroke:#ffa500;stroke-linecap:square;stroke-width:1.5;"/>
   </g>
   <g id="line2d_80">
    <path clip-path="url(#p4c42c6795e)" d="M 160.923341 162.581106 
L 160.787888 162.555321 
L 160.653342 162.529528 
L 160.519684 162.503718 
L 160.386907 162.477891 
L 160.255009 162.452047 
L 160.123964 162.426185 
" style="fill:none;stroke:#ffa500;stroke-linecap:square;stroke-width:1.5;"/>
   </g>
   <g id="line2d_81">
    <path clip-path="url(#p4c42c6795e)" d="M 160.009337 162.426185 
L 159.152261 162.253692 
L 158.331095 162.080599 
L 157.542902 161.906958 
L 156.785069 161.732854 
L 156.0553 161.558338 
L 155.351547 161.383436 
L 154.671994 161.208209 
L 154.015 161.032682 
" style="fill:none;stroke:#ffa500;stroke-linecap:square;stroke-width:1.5;"/>
   </g>
   <g id="line2d_82">
    <path clip-path="url(#p4c42c6795e)" d="M 153.915974 161.032682 
L 153.286311 160.856803 
L 152.675813 160.680693 
L 152.083331 160.504368 
L 151.507837 160.327838 
L 150.948381 160.151136 
L 150.4041 159.974272 
L 149.874187 159.797253 
L 149.357917 159.620088 
L 148.854609 159.442795 
L 148.363627 159.265382 
L 147.884393 159.087857 
" style="fill:none;stroke:#ffa500;stroke-linecap:square;stroke-width:1.5;"/>
   </g>
   <g id="line2d_83">
    <path clip-path="url(#p4c42c6795e)" d="M 147.517935 159.087857 
L 147.495321 159.07896 
L 147.472726 159.070062 
L 147.450158 159.061164 
L 147.427608 159.052267 
L 147.405086 159.043369 
L 147.38259 159.034471 
L 147.360113 159.025574 
L 147.337663 159.016676 
L 147.31524 159.007778 
L 147.292835 158.998872 
L 147.270458 158.989974 
L 147.248098 158.981077 
L 147.225766 158.972179 
" style="fill:none;stroke:#ffa500;stroke-linecap:square;stroke-width:1.5;"/>
   </g>
   <g id="line2d_84">
    <path clip-path="url(#p4c42c6795e)" d="M 147.213267 158.972179 
L 146.768056 158.794346 
L 146.33218 158.616427 
L 145.905266 158.43844 
L 145.486995 158.260384 
L 145.077039 158.08225 
L 144.675096 157.904057 
L 144.280872 157.725804 
L 143.883977 157.547576 
L 143.48398 157.369366 
L 143.080781 157.19119 
L 142.674267 157.013031 
L 142.264333 156.834907 
L 141.850861 156.656799 
L 141.43372 156.478734 
L 141.012783 156.300696 
L 140.587914 156.122691 
" style="fill:none;stroke:#ffa500;stroke-linecap:square;stroke-width:1.5;"/>
   </g>
   <g id="line2d_85">
    <path clip-path="url(#p4c42c6795e)" d="M 140.510563 156.122691 
L 140.467564 156.10487 
L 140.424518 156.087057 
L 140.381432 156.069245 
L 140.338301 156.051433 
L 140.295129 156.03362 
L 140.251916 156.015808 
L 140.208657 155.997995 
L 140.165358 155.980183 
L 140.122014 155.96237 
L 140.078628 155.944558 
L 140.035198 155.926745 
L 139.991721 155.908941 
L 139.948205 155.891129 
L 139.904642 155.873316 
" style="fill:none;stroke:#ffa500;stroke-linecap:square;stroke-width:1.5;"/>
   </g>
   <g id="line2d_86">
    <path clip-path="url(#p4c42c6795e)" d="M 139.901227 155.873316 
L 139.465568 155.695406 
L 139.025411 155.51753 
L 138.580577 155.339688 
L 138.130872 155.161898 
L 137.676092 154.984151 
L 137.21602 154.806446 
L 136.750423 154.628801 
L 136.279048 154.4512 
" style="fill:none;stroke:#ffa500;stroke-linecap:square;stroke-width:1.5;"/>
   </g>
   <g id="line2d_87">
    <path clip-path="url(#p4c42c6795e)" d="M 136.24521 154.4512 
L 136.173469 154.424541 
L 136.101584 154.397891 
L 136.029562 154.371232 
L 135.957395 154.344582 
L 135.885083 154.317923 
L 135.812626 154.291273 
L 135.740024 154.264632 
L 135.667272 154.237982 
L 135.594375 154.211331 
L 135.521328 154.18469 
L 135.448127 154.158048 
L 135.374781 154.131407 
" style="fill:none;stroke:#ffa500;stroke-linecap:square;stroke-width:1.5;"/>
   </g>
   <g id="line2d_88">
    <path clip-path="url(#p4c42c6795e)" d="M 135.331205 154.131407 
L 130.635431 152.5375 
L 126.373914 151.304626 
L 121.981634 150.257805 
L 117.312133 149.402652 
L 113.568111 148.911155 
L 113.090419 148.019932 
L 111.871746 148.019932 
L 111.567078 150.126569 
L 111.26241 150.126569 
L 110.348401 153.63763 
L 109.434397 153.63763 
L 109.129729 155.744266 
L 108.520392 155.744266 
L 107.606388 159.255327 
L 106.083047 159.255327 
L 105.778379 161.361964 
L 105.473711 161.361964 
L 105.169041 162.415282 
L 104.864373 162.415282 
L 104.255036 163.435684 
L 103.950368 164.873024 
L 102.427028 164.873024 
L 102.12236 166.979661 
L 101.208353 166.979661 
L 100.903685 168.032979 
L 100.599017 168.032979 
L 100.294349 168.559638 
L 99.98968 168.822968 
L 99.685012 170.490722 
L 97.247665 170.490722 
L 96.942997 172.597358 
L 95.724324 172.597358 
L 95.419656 173.650677 
L 95.114988 173.650677 
L 94.81032 174.177336 
L 94.505652 174.177336 
L 94.200984 174.57233 
L 93.896313 176.108419 
L 90.849632 176.108419 
L 90.544964 178.215056 
L 88.716953 178.215056 
L 88.412285 179.268374 
L 87.802949 179.268374 
L 87.498281 179.795033 
L 87.193611 179.795033 
L 86.584275 180.305234 
L 86.279607 181.726117 
L 82.014251 181.726117 
L 81.709583 183.832753 
L 79.272236 183.832753 
L 78.967567 184.886071 
L 77.748894 184.886071 
L 77.444226 185.412731 
L 77.139558 185.412731 
L 76.834889 185.67606 
L 76.530221 185.67606 
L 76.225553 185.873557 
L 75.920884 187.343814 
L 72.874202 187.343814 
L 72.874202 187.343814 
" style="fill:none;stroke:#ffa500;stroke-linecap:square;stroke-width:1.5;"/>
   </g>
   <g id="line2d_89">
    <path clip-path="url(#p4c42c6795e)" d="M 69.218182 242.116364 
L 69.218182 241.015754 
L 69.218182 239.915143 
L 69.218182 238.814533 
L 69.218182 237.713923 
L 69.218182 236.613313 
L 69.218182 235.512703 
L 69.218182 234.412093 
L 69.218182 233.311483 
L 69.218182 232.210873 
L 69.218182 231.110263 
L 69.218182 230.009653 
L 69.218182 228.909042 
L 69.218182 227.808432 
L 69.218182 226.707822 
L 69.218182 225.607212 
L 69.218182 224.506602 
L 69.218182 223.405992 
L 69.218182 222.305382 
L 69.218182 221.204772 
L 69.218182 220.104162 
L 69.218182 219.003551 
L 69.218182 217.902941 
L 69.218182 216.802331 
L 69.218182 215.701721 
L 69.218182 214.601111 
L 69.218182 213.500501 
L 69.218182 212.399891 
L 69.218182 211.299281 
L 69.218182 210.198671 
L 69.218182 209.098061 
L 69.218182 207.99745 
L 69.218182 206.89684 
L 69.218182 205.79623 
L 69.218182 204.69562 
L 69.218182 203.59501 
L 69.218182 202.4944 
L 69.218182 201.39379 
L 69.218182 200.29318 
L 69.218182 199.19257 
L 69.218182 198.09196 
L 69.218182 196.991349 
L 69.218182 195.890739 
L 69.218182 194.790129 
L 69.218182 193.689519 
L 69.218182 192.588909 
L 69.218182 191.488299 
L 69.218182 190.387689 
L 69.218182 189.287079 
L 69.218182 188.186469 
" style="fill:none;stroke:#ffa500;stroke-linecap:square;stroke-width:1.5;"/>
   </g>
   <g id="line2d_90">
    <path clip-path="url(#p4c42c6795e)" d="M 343.145455 170.209837 
L 343.145455 170.943577 
L 343.145455 171.677317 
L 343.145455 172.411057 
L 343.145455 173.144797 
L 343.145455 173.878537 
L 343.145455 174.612277 
L 343.145455 175.346017 
L 343.145455 176.079757 
L 343.145455 176.813498 
L 343.145455 177.547238 
L 343.145455 178.280978 
L 343.145455 179.014718 
L 343.145455 179.748458 
L 343.145455 180.482198 
L 343.145455 181.215938 
L 343.145455 181.949678 
L 343.145455 182.683418 
L 343.145455 183.417158 
L 343.145455 184.150898 
L 343.145455 184.884638 
L 343.145455 185.618378 
L 343.145455 186.352118 
L 343.145455 187.085858 
L 343.145455 187.819599 
L 343.145455 188.553339 
L 343.145455 189.287079 
L 343.145455 190.020819 
L 343.145455 190.754559 
L 343.145455 191.488299 
L 343.145455 192.222039 
L 343.145455 192.955779 
L 343.145455 193.689519 
L 343.145455 194.423259 
L 343.145455 195.156999 
L 343.145455 195.890739 
L 343.145455 196.624479 
L 343.145455 197.358219 
L 343.145455 198.09196 
L 343.145455 198.8257 
L 343.145455 199.55944 
L 343.145455 200.29318 
L 343.145455 201.02692 
L 343.145455 201.76066 
L 343.145455 202.4944 
L 343.145455 203.22814 
L 343.145455 203.96188 
L 343.145455 204.69562 
L 343.145455 205.42936 
L 343.145455 206.1631 
" style="fill:none;stroke:#ff0000;stroke-linecap:square;stroke-width:1.5;"/>
   </g>
   <g id="patch_3">
    <path d="M 54 252 
L 54 34.56 
" style="fill:none;stroke:#000000;stroke-linecap:square;stroke-linejoin:miter;stroke-width:0.8;"/>
   </g>
   <g id="patch_4">
    <path d="M 388.8 252 
L 388.8 34.56 
" style="fill:none;stroke:#000000;stroke-linecap:square;stroke-linejoin:miter;stroke-width:0.8;"/>
   </g>
   <g id="patch_5">
    <path d="M 54 252 
L 388.8 252 
" style="fill:none;stroke:#000000;stroke-linecap:square;stroke-linejoin:miter;stroke-width:0.8;"/>
   </g>
   <g id="patch_6">
    <path d="M 54 34.56 
L 388.8 34.56 
" style="fill:none;stroke:#000000;stroke-linecap:square;stroke-linejoin:miter;stroke-width:0.8;"/>
   </g>
   <g id="text_20">
    <!-- Reach avoid set -->
    <defs>
     <path d="M 44.390625 34.1875 
Q 47.5625 33.109375 50.5625 29.59375 
Q 53.5625 26.078125 56.59375 19.921875 
L 66.609375 0 
L 56 0 
L 46.6875 18.703125 
Q 43.0625 26.03125 39.671875 28.421875 
Q 36.28125 30.8125 30.421875 30.8125 
L 19.671875 30.8125 
L 19.671875 0 
L 9.8125 0 
L 9.8125 72.90625 
L 32.078125 72.90625 
Q 44.578125 72.90625 50.734375 67.671875 
Q 56.890625 62.453125 56.890625 51.90625 
Q 56.890625 45.015625 53.6875 40.46875 
Q 50.484375 35.9375 44.390625 34.1875 
z
M 19.671875 64.796875 
L 19.671875 38.921875 
L 32.078125 38.921875 
Q 39.203125 38.921875 42.84375 42.21875 
Q 46.484375 45.515625 46.484375 51.90625 
Q 46.484375 58.296875 42.84375 61.546875 
Q 39.203125 64.796875 32.078125 64.796875 
z
" id="DejaVuSans-82"/>
     <path d="M 56.203125 29.59375 
L 56.203125 25.203125 
L 14.890625 25.203125 
Q 15.484375 15.921875 20.484375 11.0625 
Q 25.484375 6.203125 34.421875 6.203125 
Q 39.59375 6.203125 44.453125 7.46875 
Q 49.3125 8.734375 54.109375 11.28125 
L 54.109375 2.78125 
Q 49.265625 0.734375 44.1875 -0.34375 
Q 39.109375 -1.421875 33.890625 -1.421875 
Q 20.796875 -1.421875 13.15625 6.1875 
Q 5.515625 13.8125 5.515625 26.8125 
Q 5.515625 40.234375 12.765625 48.109375 
Q 20.015625 56 32.328125 56 
Q 43.359375 56 49.78125 48.890625 
Q 56.203125 41.796875 56.203125 29.59375 
z
M 47.21875 32.234375 
Q 47.125 39.59375 43.09375 43.984375 
Q 39.0625 48.390625 32.421875 48.390625 
Q 24.90625 48.390625 20.390625 44.140625 
Q 15.875 39.890625 15.1875 32.171875 
z
" id="DejaVuSans-101"/>
     <path d="M 34.28125 27.484375 
Q 23.390625 27.484375 19.1875 25 
Q 14.984375 22.515625 14.984375 16.5 
Q 14.984375 11.71875 18.140625 8.90625 
Q 21.296875 6.109375 26.703125 6.109375 
Q 34.1875 6.109375 38.703125 11.40625 
Q 43.21875 16.703125 43.21875 25.484375 
L 43.21875 27.484375 
z
M 52.203125 31.203125 
L 52.203125 0 
L 43.21875 0 
L 43.21875 8.296875 
Q 40.140625 3.328125 35.546875 0.953125 
Q 30.953125 -1.421875 24.3125 -1.421875 
Q 15.921875 -1.421875 10.953125 3.296875 
Q 6 8.015625 6 15.921875 
Q 6 25.140625 12.171875 29.828125 
Q 18.359375 34.515625 30.609375 34.515625 
L 43.21875 34.515625 
L 43.21875 35.40625 
Q 43.21875 41.609375 39.140625 45 
Q 35.0625 48.390625 27.6875 48.390625 
Q 23 48.390625 18.546875 47.265625 
Q 14.109375 46.140625 10.015625 43.890625 
L 10.015625 52.203125 
Q 14.9375 54.109375 19.578125 55.046875 
Q 24.21875 56 28.609375 56 
Q 40.484375 56 46.34375 49.84375 
Q 52.203125 43.703125 52.203125 31.203125 
z
" id="DejaVuSans-97"/>
     <path d="M 48.78125 52.59375 
L 48.78125 44.1875 
Q 44.96875 46.296875 41.140625 47.34375 
Q 37.3125 48.390625 33.40625 48.390625 
Q 24.65625 48.390625 19.8125 42.84375 
Q 14.984375 37.3125 14.984375 27.296875 
Q 14.984375 17.28125 19.8125 11.734375 
Q 24.65625 6.203125 33.40625 6.203125 
Q 37.3125 6.203125 41.140625 7.25 
Q 44.96875 8.296875 48.78125 10.40625 
L 48.78125 2.09375 
Q 45.015625 0.34375 40.984375 -0.53125 
Q 36.96875 -1.421875 32.421875 -1.421875 
Q 20.0625 -1.421875 12.78125 6.34375 
Q 5.515625 14.109375 5.515625 27.296875 
Q 5.515625 40.671875 12.859375 48.328125 
Q 20.21875 56 33.015625 56 
Q 37.15625 56 41.109375 55.140625 
Q 45.0625 54.296875 48.78125 52.59375 
z
" id="DejaVuSans-99"/>
     <path d="M 54.890625 33.015625 
L 54.890625 0 
L 45.90625 0 
L 45.90625 32.71875 
Q 45.90625 40.484375 42.875 44.328125 
Q 39.84375 48.1875 33.796875 48.1875 
Q 26.515625 48.1875 22.3125 43.546875 
Q 18.109375 38.921875 18.109375 30.90625 
L 18.109375 0 
L 9.078125 0 
L 9.078125 75.984375 
L 18.109375 75.984375 
L 18.109375 46.1875 
Q 21.34375 51.125 25.703125 53.5625 
Q 30.078125 56 35.796875 56 
Q 45.21875 56 50.046875 50.171875 
Q 54.890625 44.34375 54.890625 33.015625 
z
" id="DejaVuSans-104"/>
     <path id="DejaVuSans-32"/>
     <path d="M 2.984375 54.6875 
L 12.5 54.6875 
L 29.59375 8.796875 
L 46.6875 54.6875 
L 56.203125 54.6875 
L 35.6875 0 
L 23.484375 0 
z
" id="DejaVuSans-118"/>
     <path d="M 30.609375 48.390625 
Q 23.390625 48.390625 19.1875 42.75 
Q 14.984375 37.109375 14.984375 27.296875 
Q 14.984375 17.484375 19.15625 11.84375 
Q 23.34375 6.203125 30.609375 6.203125 
Q 37.796875 6.203125 41.984375 11.859375 
Q 46.1875 17.53125 46.1875 27.296875 
Q 46.1875 37.015625 41.984375 42.703125 
Q 37.796875 48.390625 30.609375 48.390625 
z
M 30.609375 56 
Q 42.328125 56 49.015625 48.375 
Q 55.71875 40.765625 55.71875 27.296875 
Q 55.71875 13.875 49.015625 6.21875 
Q 42.328125 -1.421875 30.609375 -1.421875 
Q 18.84375 -1.421875 12.171875 6.21875 
Q 5.515625 13.875 5.515625 27.296875 
Q 5.515625 40.765625 12.171875 48.375 
Q 18.84375 56 30.609375 56 
z
" id="DejaVuSans-111"/>
     <path d="M 9.421875 54.6875 
L 18.40625 54.6875 
L 18.40625 0 
L 9.421875 0 
z
M 9.421875 75.984375 
L 18.40625 75.984375 
L 18.40625 64.59375 
L 9.421875 64.59375 
z
" id="DejaVuSans-105"/>
     <path d="M 45.40625 46.390625 
L 45.40625 75.984375 
L 54.390625 75.984375 
L 54.390625 0 
L 45.40625 0 
L 45.40625 8.203125 
Q 42.578125 3.328125 38.25 0.953125 
Q 33.9375 -1.421875 27.875 -1.421875 
Q 17.96875 -1.421875 11.734375 6.484375 
Q 5.515625 14.40625 5.515625 27.296875 
Q 5.515625 40.1875 11.734375 48.09375 
Q 17.96875 56 27.875 56 
Q 33.9375 56 38.25 53.625 
Q 42.578125 51.265625 45.40625 46.390625 
z
M 14.796875 27.296875 
Q 14.796875 17.390625 18.875 11.75 
Q 22.953125 6.109375 30.078125 6.109375 
Q 37.203125 6.109375 41.296875 11.75 
Q 45.40625 17.390625 45.40625 27.296875 
Q 45.40625 37.203125 41.296875 42.84375 
Q 37.203125 48.484375 30.078125 48.484375 
Q 22.953125 48.484375 18.875 42.84375 
Q 14.796875 37.203125 14.796875 27.296875 
z
" id="DejaVuSans-100"/>
     <path d="M 44.28125 53.078125 
L 44.28125 44.578125 
Q 40.484375 46.53125 36.375 47.5 
Q 32.28125 48.484375 27.875 48.484375 
Q 21.1875 48.484375 17.84375 46.4375 
Q 14.5 44.390625 14.5 40.28125 
Q 14.5 37.15625 16.890625 35.375 
Q 19.28125 33.59375 26.515625 31.984375 
L 29.59375 31.296875 
Q 39.15625 29.25 43.1875 25.515625 
Q 47.21875 21.78125 47.21875 15.09375 
Q 47.21875 7.46875 41.1875 3.015625 
Q 35.15625 -1.421875 24.609375 -1.421875 
Q 20.21875 -1.421875 15.453125 -0.5625 
Q 10.6875 0.296875 5.421875 2 
L 5.421875 11.28125 
Q 10.40625 8.6875 15.234375 7.390625 
Q 20.0625 6.109375 24.8125 6.109375 
Q 31.15625 6.109375 34.5625 8.28125 
Q 37.984375 10.453125 37.984375 14.40625 
Q 37.984375 18.0625 35.515625 20.015625 
Q 33.0625 21.96875 24.703125 23.78125 
L 21.578125 24.515625 
Q 13.234375 26.265625 9.515625 29.90625 
Q 5.8125 33.546875 5.8125 39.890625 
Q 5.8125 47.609375 11.28125 51.796875 
Q 16.75 56 26.8125 56 
Q 31.78125 56 36.171875 55.265625 
Q 40.578125 54.546875 44.28125 53.078125 
z
" id="DejaVuSans-115"/>
     <path d="M 18.3125 70.21875 
L 18.3125 54.6875 
L 36.8125 54.6875 
L 36.8125 47.703125 
L 18.3125 47.703125 
L 18.3125 18.015625 
Q 18.3125 11.328125 20.140625 9.421875 
Q 21.96875 7.515625 27.59375 7.515625 
L 36.8125 7.515625 
L 36.8125 0 
L 27.59375 0 
Q 17.1875 0 13.234375 3.875 
Q 9.28125 7.765625 9.28125 18.015625 
L 9.28125 47.703125 
L 2.6875 47.703125 
L 2.6875 54.6875 
L 9.28125 54.6875 
L 9.28125 70.21875 
z
" id="DejaVuSans-116"/>
    </defs>
    <g transform="translate(173.405625 28.56)scale(0.12 -0.12)">
     <use xlink:href="#DejaVuSans-82"/>
     <use x="69.419922" xlink:href="#DejaVuSans-101"/>
     <use x="130.943359" xlink:href="#DejaVuSans-97"/>
     <use x="192.222656" xlink:href="#DejaVuSans-99"/>
     <use x="247.203125" xlink:href="#DejaVuSans-104"/>
     <use x="310.582031" xlink:href="#DejaVuSans-32"/>
     <use x="342.369141" xlink:href="#DejaVuSans-97"/>
     <use x="403.648438" xlink:href="#DejaVuSans-118"/>
     <use x="462.828125" xlink:href="#DejaVuSans-111"/>
     <use x="524.009766" xlink:href="#DejaVuSans-105"/>
     <use x="551.792969" xlink:href="#DejaVuSans-100"/>
     <use x="615.269531" xlink:href="#DejaVuSans-32"/>
     <use x="647.056641" xlink:href="#DejaVuSans-115"/>
     <use x="699.15625" xlink:href="#DejaVuSans-101"/>
     <use x="760.679688" xlink:href="#DejaVuSans-116"/>
    </g>
   </g>
   <g id="legend_1">
    <g id="patch_7">
     <path d="M 62.4 97.9875 
L 157.8 97.9875 
Q 160.2 97.9875 160.2 95.5875 
L 160.2 42.96 
Q 160.2 40.56 157.8 40.56 
L 62.4 40.56 
Q 60 40.56 60 42.96 
L 60 95.5875 
Q 60 97.9875 62.4 97.9875 
z
" style="fill:#ffffff;opacity:0.8;stroke:#cccccc;stroke-linejoin:miter;"/>
    </g>
    <g id="line2d_91">
     <path d="M 64.8 50.278125 
L 88.8 50.278125 
" style="fill:none;stroke:#006400;stroke-linecap:square;stroke-width:4;"/>
    </g>
    <g id="line2d_92"/>
    <g id="text_21">
     <!-- $Bd(\mathcal{X})$ -->
     <defs>
      <path d="M 16.890625 72.90625 
L 42.09375 72.90625 
Q 52.34375 72.90625 57.421875 69.09375 
Q 62.5 65.28125 62.5 57.625 
Q 62.5 50.59375 58.125 45.484375 
Q 53.765625 40.375 46.6875 39.3125 
Q 52.734375 37.9375 55.765625 34.078125 
Q 58.796875 30.21875 58.796875 23.78125 
Q 58.796875 12.796875 50.65625 6.390625 
Q 42.53125 0 28.421875 0 
L 2.6875 0 
z
M 19.28125 34.8125 
L 14.109375 8.109375 
L 29.984375 8.109375 
Q 38.921875 8.109375 43.75 12.203125 
Q 48.578125 16.3125 48.578125 23.78125 
Q 48.578125 29.546875 45.375 32.171875 
Q 42.1875 34.8125 35.109375 34.8125 
z
M 25.09375 64.796875 
L 20.796875 42.828125 
L 35.5 42.828125 
Q 43.359375 42.828125 47.78125 46.234375 
Q 52.203125 49.65625 52.203125 55.71875 
Q 52.203125 60.453125 49.21875 62.625 
Q 46.234375 64.796875 39.703125 64.796875 
z
" id="DejaVuSans-Oblique-66"/>
      <path d="M 41.796875 8.203125 
Q 38.1875 3.46875 33.25 1.015625 
Q 28.328125 -1.421875 22.3125 -1.421875 
Q 14.109375 -1.421875 9.34375 4.171875 
Q 4.59375 9.765625 4.59375 19.484375 
Q 4.59375 27.59375 7.46875 34.9375 
Q 10.359375 42.28125 15.828125 48.09375 
Q 19.4375 51.953125 23.96875 53.96875 
Q 28.515625 56 33.5 56 
Q 38.765625 56 42.796875 53.453125 
Q 46.828125 50.921875 49.03125 46.1875 
L 54.890625 75.984375 
L 63.921875 75.984375 
L 49.125 0 
L 40.09375 0 
z
M 13.921875 21.09375 
Q 13.921875 14.015625 17.109375 10.0625 
Q 20.3125 6.109375 25.984375 6.109375 
Q 30.171875 6.109375 33.765625 8.125 
Q 37.359375 10.15625 40.09375 14.109375 
Q 42.96875 18.21875 44.625 23.578125 
Q 46.296875 28.953125 46.296875 34.1875 
Q 46.296875 40.96875 43.09375 44.765625 
Q 39.890625 48.578125 34.28125 48.578125 
Q 30.03125 48.578125 26.359375 46.578125 
Q 22.703125 44.578125 20.125 40.828125 
Q 17.28125 36.765625 15.59375 31.390625 
Q 13.921875 26.03125 13.921875 21.09375 
z
" id="DejaVuSans-Oblique-100"/>
      <path d="M 31 75.875 
Q 24.46875 64.65625 21.28125 53.65625 
Q 18.109375 42.671875 18.109375 31.390625 
Q 18.109375 20.125 21.3125 9.0625 
Q 24.515625 -2 31 -13.1875 
L 23.1875 -13.1875 
Q 15.875 -1.703125 12.234375 9.375 
Q 8.59375 20.453125 8.59375 31.390625 
Q 8.59375 42.28125 12.203125 53.3125 
Q 15.828125 64.359375 23.1875 75.875 
z
" id="DejaVuSans-40"/>
      <path d="M 44.40625 47.296875 
L 45.40625 37.796875 
Q 49.703125 39.796875 52.25 41.046875 
Q 54.796875 42.296875 58.1875 44.25 
Q 61.59375 46.203125 63.4375 47.796875 
Q 65.296875 49.40625 66.640625 51.40625 
Q 68 53.40625 68 55.5 
Q 68 57.90625 66.09375 57.90625 
Q 65.796875 57.90625 65.09375 57.296875 
Q 64.40625 56.703125 62.796875 56.703125 
Q 61.203125 56.703125 60.296875 58.09375 
Q 59.40625 59.5 59.40625 61.40625 
Q 59.40625 64 61.296875 65.59375 
Q 63.203125 67.203125 66.296875 67.203125 
Q 69.296875 67.203125 71.59375 64.703125 
Q 73.90625 62.203125 73.90625 57.703125 
Q 73.90625 50.90625 67.40625 45.75 
Q 60.90625 40.59375 46.09375 33.703125 
L 48.59375 16.5 
Q 50 6.203125 55.296875 6.203125 
Q 59 6.203125 61 9.5 
L 62.90625 8.09375 
Q 59 0 50.90625 0 
Q 45.90625 0 42.90625 3.703125 
Q 39.90625 7.40625 38.703125 17.09375 
L 37.09375 30 
Q 21.203125 22.09375 15.5 17.6875 
Q 9.796875 13.296875 9.796875 9.296875 
Q 9.796875 7.90625 10.59375 7.90625 
Q 10.796875 7.90625 11.59375 8.34375 
Q 12.40625 8.796875 13.203125 8.796875 
Q 17.203125 8.796875 17.203125 4.59375 
Q 17.203125 2.296875 15.34375 0.5 
Q 13.5 -1.296875 10.09375 -1.296875 
Q 7.5 -1.296875 5.640625 0.75 
Q 3.796875 2.796875 3.796875 6.59375 
Q 3.796875 10.59375 6.046875 14.046875 
Q 8.296875 17.5 12.796875 20.75 
Q 17.296875 24 22.546875 26.890625 
Q 27.796875 29.796875 35.296875 33.59375 
Q 36.203125 34 36.59375 34.203125 
L 34.203125 49.5 
Q 32.5 60 27.796875 60 
Q 24 60 22 56.59375 
L 19.796875 57.59375 
Q 23.90625 66.203125 32.203125 66.203125 
Q 37.296875 66.203125 40.296875 61.84375 
Q 43.296875 57.5 44.40625 47.296875 
z
" id="STIXNonUnicode-Italic-57924"/>
      <path d="M 8.015625 75.875 
L 15.828125 75.875 
Q 23.140625 64.359375 26.78125 53.3125 
Q 30.421875 42.28125 30.421875 31.390625 
Q 30.421875 20.453125 26.78125 9.375 
Q 23.140625 -1.703125 15.828125 -13.1875 
L 8.015625 -13.1875 
Q 14.5 -2 17.703125 9.0625 
Q 20.90625 20.125 20.90625 31.390625 
Q 20.90625 42.671875 17.703125 53.65625 
Q 14.5 64.65625 8.015625 75.875 
z
" id="DejaVuSans-41"/>
     </defs>
     <g transform="translate(98.4 54.478125)scale(0.12 -0.12)">
      <use transform="translate(0 0.015625)" xlink:href="#DejaVuSans-Oblique-66"/>
      <use transform="translate(68.603516 0.015625)" xlink:href="#DejaVuSans-Oblique-100"/>
      <use transform="translate(132.080078 0.015625)" xlink:href="#DejaVuSans-40"/>
      <use transform="translate(171.09375 0.015625)" xlink:href="#STIXNonUnicode-Italic-57924"/>
      <use transform="translate(240.293732 0.015625)" xlink:href="#DejaVuSans-41"/>
     </g>
    </g>
    <g id="line2d_93">
     <path d="M 64.8 68.878125 
L 88.8 68.878125 
" style="fill:none;stroke:#ffa500;stroke-linecap:square;stroke-width:4;"/>
    </g>
    <g id="line2d_94"/>
    <g id="text_22">
     <!-- $Bd(\mathcal{R}(x^{*}))$ -->
     <defs>
      <path d="M 80 12.90625 
L 81.59375 11.09375 
Q 70.796875 -0.296875 62.40625 -0.296875 
Q 57.40625 -0.296875 54.15625 2.296875 
Q 50.90625 4.90625 49.546875 8.25 
Q 48.203125 11.59375 46 16.34375 
Q 43.796875 21.09375 41.296875 24 
Q 40.40625 25.09375 37 27.09375 
Q 33.59375 29.09375 33.09375 29.09375 
L 34 31.40625 
Q 46.296875 32.59375 53.6875 38.5 
Q 61.09375 44.40625 61.09375 50.296875 
Q 61.09375 57.09375 57.140625 59.546875 
Q 53.203125 62 43.203125 62 
Q 40.703125 62 39.75 61.203125 
Q 38.796875 60.40625 38.296875 58.59375 
L 26.703125 19 
Q 25.703125 15.59375 24.890625 13.390625 
Q 24.09375 11.203125 22.390625 8.390625 
Q 20.703125 5.59375 18.640625 3.9375 
Q 16.59375 2.296875 13.25 1.140625 
Q 9.90625 0 5.59375 0 
L 6.5 2.40625 
Q 9.5 2.40625 11.046875 4.90625 
Q 12.59375 7.40625 14.59375 14.09375 
L 23.703125 45.59375 
Q 26.703125 55.703125 26.703125 57.203125 
Q 26.703125 60.796875 22.09375 60.796875 
Q 19.59375 60.796875 17.390625 60.296875 
Q 15.203125 59.796875 13.203125 58.75 
Q 11.203125 57.703125 10.09375 57 
Q 9 56.296875 7.296875 55 
Q 5.59375 53.703125 5.40625 53.5 
L 3.796875 55.40625 
Q 7.59375 59.296875 11.296875 61.59375 
Q 15 63.90625 19.84375 64.84375 
Q 24.703125 65.796875 28.140625 66 
Q 31.59375 66.203125 38.796875 66.203125 
Q 52.203125 66.203125 59.59375 64.34375 
Q 67 62.5 69.25 59.546875 
Q 71.5 56.59375 71.5 51.59375 
Q 71.5 48.59375 70.453125 45.84375 
Q 69.40625 43.09375 66.796875 40 
Q 64.203125 36.90625 58.953125 34.203125 
Q 53.703125 31.5 46.203125 29.5 
L 46.203125 29.09375 
Q 50.296875 27.5 52.84375 24.5 
Q 55.40625 21.5 56.40625 18.390625 
Q 57.40625 15.296875 58.296875 12.4375 
Q 59.203125 9.59375 60.890625 7.75 
Q 62.59375 5.90625 65.703125 5.90625 
Q 72.796875 5.90625 80 12.90625 
z
" id="STIXNonUnicode-Italic-57918"/>
      <path d="M 47.015625 60.890625 
L 29.5 51.421875 
L 47.015625 41.890625 
L 44.1875 37.109375 
L 27.78125 47.015625 
L 27.78125 28.609375 
L 22.21875 28.609375 
L 22.21875 47.015625 
L 5.8125 37.109375 
L 2.984375 41.890625 
L 20.515625 51.421875 
L 2.984375 60.890625 
L 5.8125 65.71875 
L 22.21875 55.8125 
L 22.21875 74.21875 
L 27.78125 74.21875 
L 27.78125 55.8125 
L 44.1875 65.71875 
z
" id="DejaVuSans-42"/>
     </defs>
     <g transform="translate(98.4 73.078125)scale(0.12 -0.12)">
      <use transform="translate(0 0.765625)" xlink:href="#DejaVuSans-Oblique-66"/>
      <use transform="translate(68.603516 0.765625)" xlink:href="#DejaVuSans-Oblique-100"/>
      <use transform="translate(132.080078 0.765625)" xlink:href="#DejaVuSans-40"/>
      <use transform="translate(171.09375 0.765625)" xlink:href="#STIXNonUnicode-Italic-57918"/>
      <use transform="translate(256.493744 0.765625)" xlink:href="#DejaVuSans-40"/>
      <use transform="translate(295.507416 0.765625)" xlink:href="#DejaVuSans-Oblique-120"/>
      <use transform="translate(359.153249 39.046875)scale(0.7)" xlink:href="#DejaVuSans-42"/>
      <use transform="translate(396.887624 0.765625)" xlink:href="#DejaVuSans-41"/>
      <use transform="translate(435.901296 0.765625)" xlink:href="#DejaVuSans-41"/>
     </g>
    </g>
    <g id="line2d_95">
     <path d="M 64.8 86.491875 
L 88.8 86.491875 
" style="fill:none;stroke:#ff0000;stroke-linecap:square;stroke-width:4;"/>
    </g>
    <g id="line2d_96"/>
    <g id="text_23">
     <!-- $x^*$ -->
     <g transform="translate(98.4 90.691875)scale(0.12 -0.12)">
      <use transform="translate(0 0.765625)" xlink:href="#DejaVuSans-Oblique-120"/>
      <use transform="translate(77.283529 39.046875)scale(0.7)" xlink:href="#DejaVuSans-42"/>
     </g>
    </g>
   </g>
  </g>
 </g>
 <defs>
  <clipPath id="p4c42c6795e">
   <rect height="217.44" width="334.8" x="54" y="34.56"/>
  </clipPath>
 </defs>
</svg>
